G04 #@! TF.GenerationSoftware,KiCad,Pcbnew,7.0.11+dfsg-1build4*
G04 #@! TF.CreationDate,2025-04-23T22:41:42-04:00*
G04 #@! TF.ProjectId,trackteur_arduino_V1,74726163-6b74-4657-9572-5f6172647569,rev?*
G04 #@! TF.SameCoordinates,Original*
G04 #@! TF.FileFunction,Legend,Bot*
G04 #@! TF.FilePolarity,Positive*
%FSLAX46Y46*%
G04 Gerber Fmt 4.6, Leading zero omitted, Abs format (unit mm)*
G04 Created by KiCad (PCBNEW 7.0.11+dfsg-1build4) date 2025-04-23 22:41:42*
%MOMM*%
%LPD*%
G01*
G04 APERTURE LIST*
G04 Aperture macros list*
%AMRoundRect*
0 Rectangle with rounded corners*
0 $1 Rounding radius*
0 $2 $3 $4 $5 $6 $7 $8 $9 X,Y pos of 4 corners*
0 Add a 4 corners polygon primitive as box body*
4,1,4,$2,$3,$4,$5,$6,$7,$8,$9,$2,$3,0*
0 Add four circle primitives for the rounded corners*
1,1,$1+$1,$2,$3*
1,1,$1+$1,$4,$5*
1,1,$1+$1,$6,$7*
1,1,$1+$1,$8,$9*
0 Add four rect primitives between the rounded corners*
20,1,$1+$1,$2,$3,$4,$5,0*
20,1,$1+$1,$4,$5,$6,$7,0*
20,1,$1+$1,$6,$7,$8,$9,0*
20,1,$1+$1,$8,$9,$2,$3,0*%
G04 Aperture macros list end*
%ADD10C,0.100000*%
%ADD11C,0.200000*%
%ADD12C,0.300000*%
%ADD13R,1.700000X1.700000*%
%ADD14R,1.600000X1.600000*%
%ADD15O,1.600000X1.600000*%
%ADD16R,2.000000X1.905000*%
%ADD17O,2.000000X1.905000*%
%ADD18R,3.200000X3.200000*%
%ADD19O,3.200000X3.200000*%
%ADD20C,2.700000*%
%ADD21O,1.700000X1.700000*%
%ADD22C,1.600000*%
%ADD23R,2.400000X2.400000*%
%ADD24O,2.400000X2.400000*%
%ADD25RoundRect,0.102000X0.825000X-0.825000X0.825000X0.825000X-0.825000X0.825000X-0.825000X-0.825000X0*%
%ADD26C,1.854000*%
%ADD27R,1.500000X1.050000*%
%ADD28O,1.500000X1.050000*%
%ADD29R,3.000000X3.000000*%
G04 APERTURE END LIST*
D10*
X230478800Y-68207600D02*
X215086400Y-68309200D01*
X230529600Y-70900000D02*
X230478800Y-68207600D01*
X225348000Y-68258400D02*
X225348000Y-70900000D01*
X241858800Y-53898800D02*
X241858800Y-48717200D01*
X241858800Y-53898800D02*
X237744000Y-54813200D01*
X204776600Y-74456800D02*
X207469000Y-74456800D01*
X207469000Y-77200000D01*
X204776600Y-77200000D01*
X204776600Y-74456800D01*
X217728000Y-70849200D02*
X207568000Y-74405200D01*
X221030000Y-74405200D02*
X230529600Y-70900000D01*
D11*
X237744000Y-54813200D02*
X246380000Y-54813200D01*
X246380000Y-63246000D01*
X237744000Y-63246000D01*
X237744000Y-54813200D01*
D10*
X227989600Y-70900000D02*
X218337600Y-74405200D01*
X178110800Y-64842000D02*
X178110800Y-58238000D01*
X220217200Y-70900000D02*
X210260400Y-74405200D01*
X215035600Y-70900000D02*
X204875600Y-74405200D01*
D11*
X242062000Y-54813200D02*
X246380000Y-54813200D01*
X246380000Y-59029600D01*
X242062000Y-59029600D01*
X242062000Y-54813200D01*
D10*
X217728000Y-68258400D02*
X217728000Y-70849200D01*
X215086400Y-68309200D02*
X215035600Y-70900000D01*
X227989600Y-68207600D02*
X227989600Y-70900000D01*
X215546200Y-74456800D02*
X218238600Y-74456800D01*
X218238600Y-77200000D01*
X215546200Y-77200000D01*
X215546200Y-74456800D01*
X244475000Y-48742600D02*
X244449600Y-53898800D01*
X241858800Y-51308000D02*
X247065800Y-51333400D01*
X220217200Y-68258400D02*
X220217200Y-70900000D01*
X175520000Y-64892800D02*
X175520000Y-58288800D01*
X247040400Y-53898800D02*
X246380000Y-54813200D01*
X247040400Y-53898800D02*
X241858800Y-53898800D01*
X180600000Y-64791200D02*
X180600000Y-58187200D01*
X247091200Y-48768000D02*
X247040400Y-53898800D01*
X241858800Y-48717200D02*
X247091200Y-48768000D01*
X167900000Y-64791200D02*
X167900000Y-58187200D01*
X222782600Y-70900000D02*
X212952800Y-74405200D01*
X222782600Y-68258400D02*
X222782600Y-70900000D01*
X207469000Y-74456800D02*
X210161400Y-74456800D01*
X210161400Y-77200000D01*
X207469000Y-77200000D01*
X207469000Y-74456800D01*
X218238600Y-74456800D02*
X220931000Y-74456800D01*
X220931000Y-77200000D01*
X218238600Y-77200000D01*
X218238600Y-74456800D01*
X170440000Y-64791200D02*
X170440000Y-58187200D01*
X165156800Y-62149600D02*
X183190800Y-62149600D01*
X183190800Y-64842000D01*
X165156800Y-64842000D01*
X165156800Y-62149600D01*
X212853800Y-74456800D02*
X215546200Y-74456800D01*
X215546200Y-77200000D01*
X212853800Y-77200000D01*
X212853800Y-74456800D01*
X242062000Y-54813200D02*
X244449600Y-53898800D01*
X225348000Y-70900000D02*
X215645200Y-74405200D01*
X215035600Y-70900000D02*
X230529600Y-70900000D01*
X165156800Y-58238000D02*
X183140000Y-58238000D01*
X183140000Y-62149600D01*
X165156800Y-62149600D01*
X165156800Y-58238000D01*
X172980000Y-64842000D02*
X172980000Y-58238000D01*
X210161400Y-74456800D02*
X212853800Y-74456800D01*
X212853800Y-77200000D01*
X210161400Y-77200000D01*
X210161400Y-74456800D01*
D11*
X237744000Y-59029600D02*
X242062000Y-59029600D01*
X242062000Y-63246000D01*
X237744000Y-63246000D01*
X237744000Y-59029600D01*
D10*
X220077877Y-75477266D02*
X220144544Y-75443933D01*
X220144544Y-75443933D02*
X220244544Y-75443933D01*
X220244544Y-75443933D02*
X220344544Y-75477266D01*
X220344544Y-75477266D02*
X220411211Y-75543933D01*
X220411211Y-75543933D02*
X220444544Y-75610600D01*
X220444544Y-75610600D02*
X220477877Y-75743933D01*
X220477877Y-75743933D02*
X220477877Y-75843933D01*
X220477877Y-75843933D02*
X220444544Y-75977266D01*
X220444544Y-75977266D02*
X220411211Y-76043933D01*
X220411211Y-76043933D02*
X220344544Y-76110600D01*
X220344544Y-76110600D02*
X220244544Y-76143933D01*
X220244544Y-76143933D02*
X220177877Y-76143933D01*
X220177877Y-76143933D02*
X220077877Y-76110600D01*
X220077877Y-76110600D02*
X220044544Y-76077266D01*
X220044544Y-76077266D02*
X220044544Y-75843933D01*
X220044544Y-75843933D02*
X220177877Y-75843933D01*
X219744544Y-76143933D02*
X219744544Y-75443933D01*
X219744544Y-75443933D02*
X219344544Y-76143933D01*
X219344544Y-76143933D02*
X219344544Y-75443933D01*
X219011211Y-76143933D02*
X219011211Y-75443933D01*
X219011211Y-75443933D02*
X218844544Y-75443933D01*
X218844544Y-75443933D02*
X218744544Y-75477266D01*
X218744544Y-75477266D02*
X218677878Y-75543933D01*
X218677878Y-75543933D02*
X218644544Y-75610600D01*
X218644544Y-75610600D02*
X218611211Y-75743933D01*
X218611211Y-75743933D02*
X218611211Y-75843933D01*
X218611211Y-75843933D02*
X218644544Y-75977266D01*
X218644544Y-75977266D02*
X218677878Y-76043933D01*
X218677878Y-76043933D02*
X218744544Y-76110600D01*
X218744544Y-76110600D02*
X218844544Y-76143933D01*
X218844544Y-76143933D02*
X219011211Y-76143933D01*
X240535734Y-61410304D02*
X240059544Y-61410304D01*
X240630972Y-61696019D02*
X240297639Y-60696019D01*
X240297639Y-60696019D02*
X239964306Y-61696019D01*
X239440496Y-60696019D02*
X239345258Y-60696019D01*
X239345258Y-60696019D02*
X239250020Y-60743638D01*
X239250020Y-60743638D02*
X239202401Y-60791257D01*
X239202401Y-60791257D02*
X239154782Y-60886495D01*
X239154782Y-60886495D02*
X239107163Y-61076971D01*
X239107163Y-61076971D02*
X239107163Y-61315066D01*
X239107163Y-61315066D02*
X239154782Y-61505542D01*
X239154782Y-61505542D02*
X239202401Y-61600780D01*
X239202401Y-61600780D02*
X239250020Y-61648400D01*
X239250020Y-61648400D02*
X239345258Y-61696019D01*
X239345258Y-61696019D02*
X239440496Y-61696019D01*
X239440496Y-61696019D02*
X239535734Y-61648400D01*
X239535734Y-61648400D02*
X239583353Y-61600780D01*
X239583353Y-61600780D02*
X239630972Y-61505542D01*
X239630972Y-61505542D02*
X239678591Y-61315066D01*
X239678591Y-61315066D02*
X239678591Y-61076971D01*
X239678591Y-61076971D02*
X239630972Y-60886495D01*
X239630972Y-60886495D02*
X239583353Y-60791257D01*
X239583353Y-60791257D02*
X239535734Y-60743638D01*
X239535734Y-60743638D02*
X239440496Y-60696019D01*
X177373619Y-59507084D02*
X176373619Y-59507084D01*
X176373619Y-59507084D02*
X176373619Y-59745179D01*
X176373619Y-59745179D02*
X176421238Y-59888036D01*
X176421238Y-59888036D02*
X176516476Y-59983274D01*
X176516476Y-59983274D02*
X176611714Y-60030893D01*
X176611714Y-60030893D02*
X176802190Y-60078512D01*
X176802190Y-60078512D02*
X176945047Y-60078512D01*
X176945047Y-60078512D02*
X177135523Y-60030893D01*
X177135523Y-60030893D02*
X177230761Y-59983274D01*
X177230761Y-59983274D02*
X177326000Y-59888036D01*
X177326000Y-59888036D02*
X177373619Y-59745179D01*
X177373619Y-59745179D02*
X177373619Y-59507084D01*
X176373619Y-60697560D02*
X176373619Y-60888036D01*
X176373619Y-60888036D02*
X176421238Y-60983274D01*
X176421238Y-60983274D02*
X176516476Y-61078512D01*
X176516476Y-61078512D02*
X176706952Y-61126131D01*
X176706952Y-61126131D02*
X177040285Y-61126131D01*
X177040285Y-61126131D02*
X177230761Y-61078512D01*
X177230761Y-61078512D02*
X177326000Y-60983274D01*
X177326000Y-60983274D02*
X177373619Y-60888036D01*
X177373619Y-60888036D02*
X177373619Y-60697560D01*
X177373619Y-60697560D02*
X177326000Y-60602322D01*
X177326000Y-60602322D02*
X177230761Y-60507084D01*
X177230761Y-60507084D02*
X177040285Y-60459465D01*
X177040285Y-60459465D02*
X176706952Y-60459465D01*
X176706952Y-60459465D02*
X176516476Y-60507084D01*
X176516476Y-60507084D02*
X176421238Y-60602322D01*
X176421238Y-60602322D02*
X176373619Y-60697560D01*
X244701334Y-61257904D02*
X244225144Y-61257904D01*
X244796572Y-61543619D02*
X244463239Y-60543619D01*
X244463239Y-60543619D02*
X244129906Y-61543619D01*
X243272763Y-61543619D02*
X243844191Y-61543619D01*
X243558477Y-61543619D02*
X243558477Y-60543619D01*
X243558477Y-60543619D02*
X243653715Y-60686476D01*
X243653715Y-60686476D02*
X243748953Y-60781714D01*
X243748953Y-60781714D02*
X243844191Y-60829333D01*
D12*
X193020574Y-77366257D02*
X193163432Y-77294828D01*
X193163432Y-77294828D02*
X193377717Y-77294828D01*
X193377717Y-77294828D02*
X193592003Y-77366257D01*
X193592003Y-77366257D02*
X193734860Y-77509114D01*
X193734860Y-77509114D02*
X193806289Y-77651971D01*
X193806289Y-77651971D02*
X193877717Y-77937685D01*
X193877717Y-77937685D02*
X193877717Y-78151971D01*
X193877717Y-78151971D02*
X193806289Y-78437685D01*
X193806289Y-78437685D02*
X193734860Y-78580542D01*
X193734860Y-78580542D02*
X193592003Y-78723400D01*
X193592003Y-78723400D02*
X193377717Y-78794828D01*
X193377717Y-78794828D02*
X193234860Y-78794828D01*
X193234860Y-78794828D02*
X193020574Y-78723400D01*
X193020574Y-78723400D02*
X192949146Y-78651971D01*
X192949146Y-78651971D02*
X192949146Y-78151971D01*
X192949146Y-78151971D02*
X193234860Y-78151971D01*
X192306289Y-78794828D02*
X192306289Y-77294828D01*
X192306289Y-77294828D02*
X191449146Y-78794828D01*
X191449146Y-78794828D02*
X191449146Y-77294828D01*
X190734860Y-78794828D02*
X190734860Y-77294828D01*
X190734860Y-77294828D02*
X190377717Y-77294828D01*
X190377717Y-77294828D02*
X190163431Y-77366257D01*
X190163431Y-77366257D02*
X190020574Y-77509114D01*
X190020574Y-77509114D02*
X189949145Y-77651971D01*
X189949145Y-77651971D02*
X189877717Y-77937685D01*
X189877717Y-77937685D02*
X189877717Y-78151971D01*
X189877717Y-78151971D02*
X189949145Y-78437685D01*
X189949145Y-78437685D02*
X190020574Y-78580542D01*
X190020574Y-78580542D02*
X190163431Y-78723400D01*
X190163431Y-78723400D02*
X190377717Y-78794828D01*
X190377717Y-78794828D02*
X190734860Y-78794828D01*
D10*
X163816115Y-47772419D02*
X163816115Y-46772419D01*
X163816115Y-46772419D02*
X163482782Y-47486704D01*
X163482782Y-47486704D02*
X163149449Y-46772419D01*
X163149449Y-46772419D02*
X163149449Y-47772419D01*
X162720877Y-46867657D02*
X162673258Y-46820038D01*
X162673258Y-46820038D02*
X162578020Y-46772419D01*
X162578020Y-46772419D02*
X162339925Y-46772419D01*
X162339925Y-46772419D02*
X162244687Y-46820038D01*
X162244687Y-46820038D02*
X162197068Y-46867657D01*
X162197068Y-46867657D02*
X162149449Y-46962895D01*
X162149449Y-46962895D02*
X162149449Y-47058133D01*
X162149449Y-47058133D02*
X162197068Y-47200990D01*
X162197068Y-47200990D02*
X162768496Y-47772419D01*
X162768496Y-47772419D02*
X162149449Y-47772419D01*
X161720877Y-47677180D02*
X161673258Y-47724800D01*
X161673258Y-47724800D02*
X161720877Y-47772419D01*
X161720877Y-47772419D02*
X161768496Y-47724800D01*
X161768496Y-47724800D02*
X161720877Y-47677180D01*
X161720877Y-47677180D02*
X161720877Y-47772419D01*
X160768497Y-46772419D02*
X161244687Y-46772419D01*
X161244687Y-46772419D02*
X161292306Y-47248609D01*
X161292306Y-47248609D02*
X161244687Y-47200990D01*
X161244687Y-47200990D02*
X161149449Y-47153371D01*
X161149449Y-47153371D02*
X160911354Y-47153371D01*
X160911354Y-47153371D02*
X160816116Y-47200990D01*
X160816116Y-47200990D02*
X160768497Y-47248609D01*
X160768497Y-47248609D02*
X160720878Y-47343847D01*
X160720878Y-47343847D02*
X160720878Y-47581942D01*
X160720878Y-47581942D02*
X160768497Y-47677180D01*
X160768497Y-47677180D02*
X160816116Y-47724800D01*
X160816116Y-47724800D02*
X160911354Y-47772419D01*
X160911354Y-47772419D02*
X161149449Y-47772419D01*
X161149449Y-47772419D02*
X161244687Y-47724800D01*
X161244687Y-47724800D02*
X161292306Y-47677180D01*
X166731066Y-59049884D02*
X166731066Y-59811789D01*
X167112019Y-59430836D02*
X166350114Y-59430836D01*
X166112019Y-60764169D02*
X166112019Y-60287979D01*
X166112019Y-60287979D02*
X166588209Y-60240360D01*
X166588209Y-60240360D02*
X166540590Y-60287979D01*
X166540590Y-60287979D02*
X166492971Y-60383217D01*
X166492971Y-60383217D02*
X166492971Y-60621312D01*
X166492971Y-60621312D02*
X166540590Y-60716550D01*
X166540590Y-60716550D02*
X166588209Y-60764169D01*
X166588209Y-60764169D02*
X166683447Y-60811788D01*
X166683447Y-60811788D02*
X166921542Y-60811788D01*
X166921542Y-60811788D02*
X167016780Y-60764169D01*
X167016780Y-60764169D02*
X167064400Y-60716550D01*
X167064400Y-60716550D02*
X167112019Y-60621312D01*
X167112019Y-60621312D02*
X167112019Y-60383217D01*
X167112019Y-60383217D02*
X167064400Y-60287979D01*
X167064400Y-60287979D02*
X167016780Y-60240360D01*
X166112019Y-61097503D02*
X167112019Y-61430836D01*
X167112019Y-61430836D02*
X166112019Y-61764169D01*
D12*
X232425374Y-77142428D02*
X231925374Y-78642428D01*
X231925374Y-78642428D02*
X231425374Y-77142428D01*
X230425375Y-77856714D02*
X230211089Y-77928142D01*
X230211089Y-77928142D02*
X230139660Y-77999571D01*
X230139660Y-77999571D02*
X230068232Y-78142428D01*
X230068232Y-78142428D02*
X230068232Y-78356714D01*
X230068232Y-78356714D02*
X230139660Y-78499571D01*
X230139660Y-78499571D02*
X230211089Y-78571000D01*
X230211089Y-78571000D02*
X230353946Y-78642428D01*
X230353946Y-78642428D02*
X230925375Y-78642428D01*
X230925375Y-78642428D02*
X230925375Y-77142428D01*
X230925375Y-77142428D02*
X230425375Y-77142428D01*
X230425375Y-77142428D02*
X230282518Y-77213857D01*
X230282518Y-77213857D02*
X230211089Y-77285285D01*
X230211089Y-77285285D02*
X230139660Y-77428142D01*
X230139660Y-77428142D02*
X230139660Y-77571000D01*
X230139660Y-77571000D02*
X230211089Y-77713857D01*
X230211089Y-77713857D02*
X230282518Y-77785285D01*
X230282518Y-77785285D02*
X230425375Y-77856714D01*
X230425375Y-77856714D02*
X230925375Y-77856714D01*
X229496803Y-78213857D02*
X228782518Y-78213857D01*
X229639660Y-78642428D02*
X229139660Y-77142428D01*
X229139660Y-77142428D02*
X228639660Y-78642428D01*
X228353946Y-77142428D02*
X227496804Y-77142428D01*
X227925375Y-78642428D02*
X227925375Y-77142428D01*
X226996804Y-78071000D02*
X225853947Y-78071000D01*
D10*
X240535734Y-57193904D02*
X240059544Y-57193904D01*
X240630972Y-57479619D02*
X240297639Y-56479619D01*
X240297639Y-56479619D02*
X239964306Y-57479619D01*
X239678591Y-56574857D02*
X239630972Y-56527238D01*
X239630972Y-56527238D02*
X239535734Y-56479619D01*
X239535734Y-56479619D02*
X239297639Y-56479619D01*
X239297639Y-56479619D02*
X239202401Y-56527238D01*
X239202401Y-56527238D02*
X239154782Y-56574857D01*
X239154782Y-56574857D02*
X239107163Y-56670095D01*
X239107163Y-56670095D02*
X239107163Y-56765333D01*
X239107163Y-56765333D02*
X239154782Y-56908190D01*
X239154782Y-56908190D02*
X239726210Y-57479619D01*
X239726210Y-57479619D02*
X239107163Y-57479619D01*
D12*
X232374574Y-89182028D02*
X231874574Y-90682028D01*
X231874574Y-90682028D02*
X231374574Y-89182028D01*
X230374575Y-89896314D02*
X230160289Y-89967742D01*
X230160289Y-89967742D02*
X230088860Y-90039171D01*
X230088860Y-90039171D02*
X230017432Y-90182028D01*
X230017432Y-90182028D02*
X230017432Y-90396314D01*
X230017432Y-90396314D02*
X230088860Y-90539171D01*
X230088860Y-90539171D02*
X230160289Y-90610600D01*
X230160289Y-90610600D02*
X230303146Y-90682028D01*
X230303146Y-90682028D02*
X230874575Y-90682028D01*
X230874575Y-90682028D02*
X230874575Y-89182028D01*
X230874575Y-89182028D02*
X230374575Y-89182028D01*
X230374575Y-89182028D02*
X230231718Y-89253457D01*
X230231718Y-89253457D02*
X230160289Y-89324885D01*
X230160289Y-89324885D02*
X230088860Y-89467742D01*
X230088860Y-89467742D02*
X230088860Y-89610600D01*
X230088860Y-89610600D02*
X230160289Y-89753457D01*
X230160289Y-89753457D02*
X230231718Y-89824885D01*
X230231718Y-89824885D02*
X230374575Y-89896314D01*
X230374575Y-89896314D02*
X230874575Y-89896314D01*
X229446003Y-90253457D02*
X228731718Y-90253457D01*
X229588860Y-90682028D02*
X229088860Y-89182028D01*
X229088860Y-89182028D02*
X228588860Y-90682028D01*
X228303146Y-89182028D02*
X227446004Y-89182028D01*
X227874575Y-90682028D02*
X227874575Y-89182028D01*
X226946004Y-90110600D02*
X225803147Y-90110600D01*
X226374575Y-90682028D02*
X226374575Y-89539171D01*
X208528746Y-89072428D02*
X208171603Y-90072428D01*
X208171603Y-90072428D02*
X207814460Y-89072428D01*
X207314460Y-88715285D02*
X207243032Y-88643857D01*
X207243032Y-88643857D02*
X207100175Y-88572428D01*
X207100175Y-88572428D02*
X206743032Y-88572428D01*
X206743032Y-88572428D02*
X206600175Y-88643857D01*
X206600175Y-88643857D02*
X206528746Y-88715285D01*
X206528746Y-88715285D02*
X206457317Y-88858142D01*
X206457317Y-88858142D02*
X206457317Y-89001000D01*
X206457317Y-89001000D02*
X206528746Y-89215285D01*
X206528746Y-89215285D02*
X207385889Y-90072428D01*
X207385889Y-90072428D02*
X206457317Y-90072428D01*
X205528746Y-88572428D02*
X205385889Y-88572428D01*
X205385889Y-88572428D02*
X205243032Y-88643857D01*
X205243032Y-88643857D02*
X205171604Y-88715285D01*
X205171604Y-88715285D02*
X205100175Y-88858142D01*
X205100175Y-88858142D02*
X205028746Y-89143857D01*
X205028746Y-89143857D02*
X205028746Y-89501000D01*
X205028746Y-89501000D02*
X205100175Y-89786714D01*
X205100175Y-89786714D02*
X205171604Y-89929571D01*
X205171604Y-89929571D02*
X205243032Y-90001000D01*
X205243032Y-90001000D02*
X205385889Y-90072428D01*
X205385889Y-90072428D02*
X205528746Y-90072428D01*
X205528746Y-90072428D02*
X205671604Y-90001000D01*
X205671604Y-90001000D02*
X205743032Y-89929571D01*
X205743032Y-89929571D02*
X205814461Y-89786714D01*
X205814461Y-89786714D02*
X205885889Y-89501000D01*
X205885889Y-89501000D02*
X205885889Y-89143857D01*
X205885889Y-89143857D02*
X205814461Y-88858142D01*
X205814461Y-88858142D02*
X205743032Y-88715285D01*
X205743032Y-88715285D02*
X205671604Y-88643857D01*
X205671604Y-88643857D02*
X205528746Y-88572428D01*
X204457318Y-88715285D02*
X204385890Y-88643857D01*
X204385890Y-88643857D02*
X204243033Y-88572428D01*
X204243033Y-88572428D02*
X203885890Y-88572428D01*
X203885890Y-88572428D02*
X203743033Y-88643857D01*
X203743033Y-88643857D02*
X203671604Y-88715285D01*
X203671604Y-88715285D02*
X203600175Y-88858142D01*
X203600175Y-88858142D02*
X203600175Y-89001000D01*
X203600175Y-89001000D02*
X203671604Y-89215285D01*
X203671604Y-89215285D02*
X204528747Y-90072428D01*
X204528747Y-90072428D02*
X203600175Y-90072428D01*
X202243033Y-88572428D02*
X202957319Y-88572428D01*
X202957319Y-88572428D02*
X203028747Y-89286714D01*
X203028747Y-89286714D02*
X202957319Y-89215285D01*
X202957319Y-89215285D02*
X202814462Y-89143857D01*
X202814462Y-89143857D02*
X202457319Y-89143857D01*
X202457319Y-89143857D02*
X202314462Y-89215285D01*
X202314462Y-89215285D02*
X202243033Y-89286714D01*
X202243033Y-89286714D02*
X202171604Y-89429571D01*
X202171604Y-89429571D02*
X202171604Y-89786714D01*
X202171604Y-89786714D02*
X202243033Y-89929571D01*
X202243033Y-89929571D02*
X202314462Y-90001000D01*
X202314462Y-90001000D02*
X202457319Y-90072428D01*
X202457319Y-90072428D02*
X202814462Y-90072428D01*
X202814462Y-90072428D02*
X202957319Y-90001000D01*
X202957319Y-90001000D02*
X203028747Y-89929571D01*
X201528748Y-89929571D02*
X201457319Y-90001000D01*
X201457319Y-90001000D02*
X201528748Y-90072428D01*
X201528748Y-90072428D02*
X201600176Y-90001000D01*
X201600176Y-90001000D02*
X201528748Y-89929571D01*
X201528748Y-89929571D02*
X201528748Y-90072428D01*
X200528747Y-88572428D02*
X200385890Y-88572428D01*
X200385890Y-88572428D02*
X200243033Y-88643857D01*
X200243033Y-88643857D02*
X200171605Y-88715285D01*
X200171605Y-88715285D02*
X200100176Y-88858142D01*
X200100176Y-88858142D02*
X200028747Y-89143857D01*
X200028747Y-89143857D02*
X200028747Y-89501000D01*
X200028747Y-89501000D02*
X200100176Y-89786714D01*
X200100176Y-89786714D02*
X200171605Y-89929571D01*
X200171605Y-89929571D02*
X200243033Y-90001000D01*
X200243033Y-90001000D02*
X200385890Y-90072428D01*
X200385890Y-90072428D02*
X200528747Y-90072428D01*
X200528747Y-90072428D02*
X200671605Y-90001000D01*
X200671605Y-90001000D02*
X200743033Y-89929571D01*
X200743033Y-89929571D02*
X200814462Y-89786714D01*
X200814462Y-89786714D02*
X200885890Y-89501000D01*
X200885890Y-89501000D02*
X200885890Y-89143857D01*
X200885890Y-89143857D02*
X200814462Y-88858142D01*
X200814462Y-88858142D02*
X200743033Y-88715285D01*
X200743033Y-88715285D02*
X200671605Y-88643857D01*
X200671605Y-88643857D02*
X200528747Y-88572428D01*
X198743034Y-89072428D02*
X198743034Y-90072428D01*
X199100176Y-88501000D02*
X199457319Y-89572428D01*
X199457319Y-89572428D02*
X198528748Y-89572428D01*
X197957320Y-89929571D02*
X197885891Y-90001000D01*
X197885891Y-90001000D02*
X197957320Y-90072428D01*
X197957320Y-90072428D02*
X198028748Y-90001000D01*
X198028748Y-90001000D02*
X197957320Y-89929571D01*
X197957320Y-89929571D02*
X197957320Y-90072428D01*
X196957319Y-88572428D02*
X196814462Y-88572428D01*
X196814462Y-88572428D02*
X196671605Y-88643857D01*
X196671605Y-88643857D02*
X196600177Y-88715285D01*
X196600177Y-88715285D02*
X196528748Y-88858142D01*
X196528748Y-88858142D02*
X196457319Y-89143857D01*
X196457319Y-89143857D02*
X196457319Y-89501000D01*
X196457319Y-89501000D02*
X196528748Y-89786714D01*
X196528748Y-89786714D02*
X196600177Y-89929571D01*
X196600177Y-89929571D02*
X196671605Y-90001000D01*
X196671605Y-90001000D02*
X196814462Y-90072428D01*
X196814462Y-90072428D02*
X196957319Y-90072428D01*
X196957319Y-90072428D02*
X197100177Y-90001000D01*
X197100177Y-90001000D02*
X197171605Y-89929571D01*
X197171605Y-89929571D02*
X197243034Y-89786714D01*
X197243034Y-89786714D02*
X197314462Y-89501000D01*
X197314462Y-89501000D02*
X197314462Y-89143857D01*
X197314462Y-89143857D02*
X197243034Y-88858142D01*
X197243034Y-88858142D02*
X197171605Y-88715285D01*
X197171605Y-88715285D02*
X197100177Y-88643857D01*
X197100177Y-88643857D02*
X196957319Y-88572428D01*
X195957320Y-88572428D02*
X195028748Y-88572428D01*
X195028748Y-88572428D02*
X195528748Y-89143857D01*
X195528748Y-89143857D02*
X195314463Y-89143857D01*
X195314463Y-89143857D02*
X195171606Y-89215285D01*
X195171606Y-89215285D02*
X195100177Y-89286714D01*
X195100177Y-89286714D02*
X195028748Y-89429571D01*
X195028748Y-89429571D02*
X195028748Y-89786714D01*
X195028748Y-89786714D02*
X195100177Y-89929571D01*
X195100177Y-89929571D02*
X195171606Y-90001000D01*
X195171606Y-90001000D02*
X195314463Y-90072428D01*
X195314463Y-90072428D02*
X195743034Y-90072428D01*
X195743034Y-90072428D02*
X195885891Y-90001000D01*
X195885891Y-90001000D02*
X195957320Y-89929571D01*
D10*
X217650544Y-76042333D02*
X217650544Y-75342333D01*
X217650544Y-75342333D02*
X217483877Y-75342333D01*
X217483877Y-75342333D02*
X217383877Y-75375666D01*
X217383877Y-75375666D02*
X217317211Y-75442333D01*
X217317211Y-75442333D02*
X217283877Y-75509000D01*
X217283877Y-75509000D02*
X217250544Y-75642333D01*
X217250544Y-75642333D02*
X217250544Y-75742333D01*
X217250544Y-75742333D02*
X217283877Y-75875666D01*
X217283877Y-75875666D02*
X217317211Y-75942333D01*
X217317211Y-75942333D02*
X217383877Y-76009000D01*
X217383877Y-76009000D02*
X217483877Y-76042333D01*
X217483877Y-76042333D02*
X217650544Y-76042333D01*
X216583877Y-76042333D02*
X216983877Y-76042333D01*
X216783877Y-76042333D02*
X216783877Y-75342333D01*
X216783877Y-75342333D02*
X216850544Y-75442333D01*
X216850544Y-75442333D02*
X216917211Y-75509000D01*
X216917211Y-75509000D02*
X216983877Y-75542333D01*
X216150544Y-75342333D02*
X216083877Y-75342333D01*
X216083877Y-75342333D02*
X216017210Y-75375666D01*
X216017210Y-75375666D02*
X215983877Y-75409000D01*
X215983877Y-75409000D02*
X215950544Y-75475666D01*
X215950544Y-75475666D02*
X215917210Y-75609000D01*
X215917210Y-75609000D02*
X215917210Y-75775666D01*
X215917210Y-75775666D02*
X215950544Y-75909000D01*
X215950544Y-75909000D02*
X215983877Y-75975666D01*
X215983877Y-75975666D02*
X216017210Y-76009000D01*
X216017210Y-76009000D02*
X216083877Y-76042333D01*
X216083877Y-76042333D02*
X216150544Y-76042333D01*
X216150544Y-76042333D02*
X216217210Y-76009000D01*
X216217210Y-76009000D02*
X216250544Y-75975666D01*
X216250544Y-75975666D02*
X216283877Y-75909000D01*
X216283877Y-75909000D02*
X216317210Y-75775666D01*
X216317210Y-75775666D02*
X216317210Y-75609000D01*
X216317210Y-75609000D02*
X216283877Y-75475666D01*
X216283877Y-75475666D02*
X216250544Y-75409000D01*
X216250544Y-75409000D02*
X216217210Y-75375666D01*
X216217210Y-75375666D02*
X216150544Y-75342333D01*
X207084144Y-75978866D02*
X206550811Y-75978866D01*
X206817477Y-76245533D02*
X206817477Y-75712200D01*
X205884144Y-75545533D02*
X206217477Y-75545533D01*
X206217477Y-75545533D02*
X206250810Y-75878866D01*
X206250810Y-75878866D02*
X206217477Y-75845533D01*
X206217477Y-75845533D02*
X206150810Y-75812200D01*
X206150810Y-75812200D02*
X205984144Y-75812200D01*
X205984144Y-75812200D02*
X205917477Y-75845533D01*
X205917477Y-75845533D02*
X205884144Y-75878866D01*
X205884144Y-75878866D02*
X205850810Y-75945533D01*
X205850810Y-75945533D02*
X205850810Y-76112200D01*
X205850810Y-76112200D02*
X205884144Y-76178866D01*
X205884144Y-76178866D02*
X205917477Y-76212200D01*
X205917477Y-76212200D02*
X205984144Y-76245533D01*
X205984144Y-76245533D02*
X206150810Y-76245533D01*
X206150810Y-76245533D02*
X206217477Y-76212200D01*
X206217477Y-76212200D02*
X206250810Y-76178866D01*
X205650810Y-75545533D02*
X205417477Y-76245533D01*
X205417477Y-76245533D02*
X205184143Y-75545533D01*
D12*
X197209889Y-93717400D02*
X196067032Y-93717400D01*
X196638460Y-94288828D02*
X196638460Y-93145971D01*
X194638460Y-92788828D02*
X195352746Y-92788828D01*
X195352746Y-92788828D02*
X195424174Y-93503114D01*
X195424174Y-93503114D02*
X195352746Y-93431685D01*
X195352746Y-93431685D02*
X195209889Y-93360257D01*
X195209889Y-93360257D02*
X194852746Y-93360257D01*
X194852746Y-93360257D02*
X194709889Y-93431685D01*
X194709889Y-93431685D02*
X194638460Y-93503114D01*
X194638460Y-93503114D02*
X194567031Y-93645971D01*
X194567031Y-93645971D02*
X194567031Y-94003114D01*
X194567031Y-94003114D02*
X194638460Y-94145971D01*
X194638460Y-94145971D02*
X194709889Y-94217400D01*
X194709889Y-94217400D02*
X194852746Y-94288828D01*
X194852746Y-94288828D02*
X195209889Y-94288828D01*
X195209889Y-94288828D02*
X195352746Y-94217400D01*
X195352746Y-94217400D02*
X195424174Y-94145971D01*
X194138460Y-92788828D02*
X193638460Y-94288828D01*
X193638460Y-94288828D02*
X193138460Y-92788828D01*
D10*
X214602544Y-76093133D02*
X214602544Y-75393133D01*
X214602544Y-75393133D02*
X214435877Y-75393133D01*
X214435877Y-75393133D02*
X214335877Y-75426466D01*
X214335877Y-75426466D02*
X214269211Y-75493133D01*
X214269211Y-75493133D02*
X214235877Y-75559800D01*
X214235877Y-75559800D02*
X214202544Y-75693133D01*
X214202544Y-75693133D02*
X214202544Y-75793133D01*
X214202544Y-75793133D02*
X214235877Y-75926466D01*
X214235877Y-75926466D02*
X214269211Y-75993133D01*
X214269211Y-75993133D02*
X214335877Y-76059800D01*
X214335877Y-76059800D02*
X214435877Y-76093133D01*
X214435877Y-76093133D02*
X214602544Y-76093133D01*
X213969211Y-75393133D02*
X213502544Y-75393133D01*
X213502544Y-75393133D02*
X213802544Y-76093133D01*
X172242819Y-59659484D02*
X171242819Y-59659484D01*
X171242819Y-59659484D02*
X171242819Y-59897579D01*
X171242819Y-59897579D02*
X171290438Y-60040436D01*
X171290438Y-60040436D02*
X171385676Y-60135674D01*
X171385676Y-60135674D02*
X171480914Y-60183293D01*
X171480914Y-60183293D02*
X171671390Y-60230912D01*
X171671390Y-60230912D02*
X171814247Y-60230912D01*
X171814247Y-60230912D02*
X172004723Y-60183293D01*
X172004723Y-60183293D02*
X172099961Y-60135674D01*
X172099961Y-60135674D02*
X172195200Y-60040436D01*
X172195200Y-60040436D02*
X172242819Y-59897579D01*
X172242819Y-59897579D02*
X172242819Y-59659484D01*
X172242819Y-60659484D02*
X171242819Y-60659484D01*
X211960944Y-76093133D02*
X211960944Y-75393133D01*
X211960944Y-75393133D02*
X211794277Y-75393133D01*
X211794277Y-75393133D02*
X211694277Y-75426466D01*
X211694277Y-75426466D02*
X211627611Y-75493133D01*
X211627611Y-75493133D02*
X211594277Y-75559800D01*
X211594277Y-75559800D02*
X211560944Y-75693133D01*
X211560944Y-75693133D02*
X211560944Y-75793133D01*
X211560944Y-75793133D02*
X211594277Y-75926466D01*
X211594277Y-75926466D02*
X211627611Y-75993133D01*
X211627611Y-75993133D02*
X211694277Y-76059800D01*
X211694277Y-76059800D02*
X211794277Y-76093133D01*
X211794277Y-76093133D02*
X211960944Y-76093133D01*
X211227611Y-76093133D02*
X211094277Y-76093133D01*
X211094277Y-76093133D02*
X211027611Y-76059800D01*
X211027611Y-76059800D02*
X210994277Y-76026466D01*
X210994277Y-76026466D02*
X210927611Y-75926466D01*
X210927611Y-75926466D02*
X210894277Y-75793133D01*
X210894277Y-75793133D02*
X210894277Y-75526466D01*
X210894277Y-75526466D02*
X210927611Y-75459800D01*
X210927611Y-75459800D02*
X210960944Y-75426466D01*
X210960944Y-75426466D02*
X211027611Y-75393133D01*
X211027611Y-75393133D02*
X211160944Y-75393133D01*
X211160944Y-75393133D02*
X211227611Y-75426466D01*
X211227611Y-75426466D02*
X211260944Y-75459800D01*
X211260944Y-75459800D02*
X211294277Y-75526466D01*
X211294277Y-75526466D02*
X211294277Y-75693133D01*
X211294277Y-75693133D02*
X211260944Y-75759800D01*
X211260944Y-75759800D02*
X211227611Y-75793133D01*
X211227611Y-75793133D02*
X211160944Y-75826466D01*
X211160944Y-75826466D02*
X211027611Y-75826466D01*
X211027611Y-75826466D02*
X210960944Y-75793133D01*
X210960944Y-75793133D02*
X210927611Y-75759800D01*
X210927611Y-75759800D02*
X210894277Y-75693133D01*
X179716780Y-60078512D02*
X179764400Y-60030893D01*
X179764400Y-60030893D02*
X179812019Y-59888036D01*
X179812019Y-59888036D02*
X179812019Y-59792798D01*
X179812019Y-59792798D02*
X179764400Y-59649941D01*
X179764400Y-59649941D02*
X179669161Y-59554703D01*
X179669161Y-59554703D02*
X179573923Y-59507084D01*
X179573923Y-59507084D02*
X179383447Y-59459465D01*
X179383447Y-59459465D02*
X179240590Y-59459465D01*
X179240590Y-59459465D02*
X179050114Y-59507084D01*
X179050114Y-59507084D02*
X178954876Y-59554703D01*
X178954876Y-59554703D02*
X178859638Y-59649941D01*
X178859638Y-59649941D02*
X178812019Y-59792798D01*
X178812019Y-59792798D02*
X178812019Y-59888036D01*
X178812019Y-59888036D02*
X178859638Y-60030893D01*
X178859638Y-60030893D02*
X178907257Y-60078512D01*
X179812019Y-60507084D02*
X178812019Y-60507084D01*
X178812019Y-60507084D02*
X178812019Y-60745179D01*
X178812019Y-60745179D02*
X178859638Y-60888036D01*
X178859638Y-60888036D02*
X178954876Y-60983274D01*
X178954876Y-60983274D02*
X179050114Y-61030893D01*
X179050114Y-61030893D02*
X179240590Y-61078512D01*
X179240590Y-61078512D02*
X179383447Y-61078512D01*
X179383447Y-61078512D02*
X179573923Y-61030893D01*
X179573923Y-61030893D02*
X179669161Y-60983274D01*
X179669161Y-60983274D02*
X179764400Y-60888036D01*
X179764400Y-60888036D02*
X179812019Y-60745179D01*
X179812019Y-60745179D02*
X179812019Y-60507084D01*
X168655200Y-59967369D02*
X169940914Y-59110227D01*
X169607580Y-60872131D02*
X169655200Y-60824512D01*
X169655200Y-60824512D02*
X169702819Y-60681655D01*
X169702819Y-60681655D02*
X169702819Y-60586417D01*
X169702819Y-60586417D02*
X169655200Y-60443560D01*
X169655200Y-60443560D02*
X169559961Y-60348322D01*
X169559961Y-60348322D02*
X169464723Y-60300703D01*
X169464723Y-60300703D02*
X169274247Y-60253084D01*
X169274247Y-60253084D02*
X169131390Y-60253084D01*
X169131390Y-60253084D02*
X168940914Y-60300703D01*
X168940914Y-60300703D02*
X168845676Y-60348322D01*
X168845676Y-60348322D02*
X168750438Y-60443560D01*
X168750438Y-60443560D02*
X168702819Y-60586417D01*
X168702819Y-60586417D02*
X168702819Y-60681655D01*
X168702819Y-60681655D02*
X168750438Y-60824512D01*
X168750438Y-60824512D02*
X168798057Y-60872131D01*
X169655200Y-61253084D02*
X169702819Y-61395941D01*
X169702819Y-61395941D02*
X169702819Y-61634036D01*
X169702819Y-61634036D02*
X169655200Y-61729274D01*
X169655200Y-61729274D02*
X169607580Y-61776893D01*
X169607580Y-61776893D02*
X169512342Y-61824512D01*
X169512342Y-61824512D02*
X169417104Y-61824512D01*
X169417104Y-61824512D02*
X169321866Y-61776893D01*
X169321866Y-61776893D02*
X169274247Y-61729274D01*
X169274247Y-61729274D02*
X169226628Y-61634036D01*
X169226628Y-61634036D02*
X169179009Y-61443560D01*
X169179009Y-61443560D02*
X169131390Y-61348322D01*
X169131390Y-61348322D02*
X169083771Y-61300703D01*
X169083771Y-61300703D02*
X168988533Y-61253084D01*
X168988533Y-61253084D02*
X168893295Y-61253084D01*
X168893295Y-61253084D02*
X168798057Y-61300703D01*
X168798057Y-61300703D02*
X168750438Y-61348322D01*
X168750438Y-61348322D02*
X168702819Y-61443560D01*
X168702819Y-61443560D02*
X168702819Y-61681655D01*
X168702819Y-61681655D02*
X168750438Y-61824512D01*
X174735200Y-59256265D02*
X174782819Y-59399122D01*
X174782819Y-59399122D02*
X174782819Y-59637217D01*
X174782819Y-59637217D02*
X174735200Y-59732455D01*
X174735200Y-59732455D02*
X174687580Y-59780074D01*
X174687580Y-59780074D02*
X174592342Y-59827693D01*
X174592342Y-59827693D02*
X174497104Y-59827693D01*
X174497104Y-59827693D02*
X174401866Y-59780074D01*
X174401866Y-59780074D02*
X174354247Y-59732455D01*
X174354247Y-59732455D02*
X174306628Y-59637217D01*
X174306628Y-59637217D02*
X174259009Y-59446741D01*
X174259009Y-59446741D02*
X174211390Y-59351503D01*
X174211390Y-59351503D02*
X174163771Y-59303884D01*
X174163771Y-59303884D02*
X174068533Y-59256265D01*
X174068533Y-59256265D02*
X173973295Y-59256265D01*
X173973295Y-59256265D02*
X173878057Y-59303884D01*
X173878057Y-59303884D02*
X173830438Y-59351503D01*
X173830438Y-59351503D02*
X173782819Y-59446741D01*
X173782819Y-59446741D02*
X173782819Y-59684836D01*
X173782819Y-59684836D02*
X173830438Y-59827693D01*
X174687580Y-60827693D02*
X174735200Y-60780074D01*
X174735200Y-60780074D02*
X174782819Y-60637217D01*
X174782819Y-60637217D02*
X174782819Y-60541979D01*
X174782819Y-60541979D02*
X174735200Y-60399122D01*
X174735200Y-60399122D02*
X174639961Y-60303884D01*
X174639961Y-60303884D02*
X174544723Y-60256265D01*
X174544723Y-60256265D02*
X174354247Y-60208646D01*
X174354247Y-60208646D02*
X174211390Y-60208646D01*
X174211390Y-60208646D02*
X174020914Y-60256265D01*
X174020914Y-60256265D02*
X173925676Y-60303884D01*
X173925676Y-60303884D02*
X173830438Y-60399122D01*
X173830438Y-60399122D02*
X173782819Y-60541979D01*
X173782819Y-60541979D02*
X173782819Y-60637217D01*
X173782819Y-60637217D02*
X173830438Y-60780074D01*
X173830438Y-60780074D02*
X173878057Y-60827693D01*
X174782819Y-61256265D02*
X173782819Y-61256265D01*
X174782819Y-61827693D02*
X174211390Y-61399122D01*
X173782819Y-61827693D02*
X174354247Y-61256265D01*
X244853734Y-57143104D02*
X244377544Y-57143104D01*
X244948972Y-57428819D02*
X244615639Y-56428819D01*
X244615639Y-56428819D02*
X244282306Y-57428819D01*
X244044210Y-56428819D02*
X243425163Y-56428819D01*
X243425163Y-56428819D02*
X243758496Y-56809771D01*
X243758496Y-56809771D02*
X243615639Y-56809771D01*
X243615639Y-56809771D02*
X243520401Y-56857390D01*
X243520401Y-56857390D02*
X243472782Y-56905009D01*
X243472782Y-56905009D02*
X243425163Y-57000247D01*
X243425163Y-57000247D02*
X243425163Y-57238342D01*
X243425163Y-57238342D02*
X243472782Y-57333580D01*
X243472782Y-57333580D02*
X243520401Y-57381200D01*
X243520401Y-57381200D02*
X243615639Y-57428819D01*
X243615639Y-57428819D02*
X243901353Y-57428819D01*
X243901353Y-57428819D02*
X243996591Y-57381200D01*
X243996591Y-57381200D02*
X244044210Y-57333580D01*
X181653638Y-59980093D02*
X181606019Y-59884855D01*
X181606019Y-59884855D02*
X181606019Y-59741998D01*
X181606019Y-59741998D02*
X181653638Y-59599141D01*
X181653638Y-59599141D02*
X181748876Y-59503903D01*
X181748876Y-59503903D02*
X181844114Y-59456284D01*
X181844114Y-59456284D02*
X182034590Y-59408665D01*
X182034590Y-59408665D02*
X182177447Y-59408665D01*
X182177447Y-59408665D02*
X182367923Y-59456284D01*
X182367923Y-59456284D02*
X182463161Y-59503903D01*
X182463161Y-59503903D02*
X182558400Y-59599141D01*
X182558400Y-59599141D02*
X182606019Y-59741998D01*
X182606019Y-59741998D02*
X182606019Y-59837236D01*
X182606019Y-59837236D02*
X182558400Y-59980093D01*
X182558400Y-59980093D02*
X182510780Y-60027712D01*
X182510780Y-60027712D02*
X182177447Y-60027712D01*
X182177447Y-60027712D02*
X182177447Y-59837236D01*
X182606019Y-60456284D02*
X181606019Y-60456284D01*
X181606019Y-60456284D02*
X182606019Y-61027712D01*
X182606019Y-61027712D02*
X181606019Y-61027712D01*
X182606019Y-61503903D02*
X181606019Y-61503903D01*
X181606019Y-61503903D02*
X181606019Y-61741998D01*
X181606019Y-61741998D02*
X181653638Y-61884855D01*
X181653638Y-61884855D02*
X181748876Y-61980093D01*
X181748876Y-61980093D02*
X181844114Y-62027712D01*
X181844114Y-62027712D02*
X182034590Y-62075331D01*
X182034590Y-62075331D02*
X182177447Y-62075331D01*
X182177447Y-62075331D02*
X182367923Y-62027712D01*
X182367923Y-62027712D02*
X182463161Y-61980093D01*
X182463161Y-61980093D02*
X182558400Y-61884855D01*
X182558400Y-61884855D02*
X182606019Y-61741998D01*
X182606019Y-61741998D02*
X182606019Y-61503903D01*
X209370144Y-76194733D02*
X209370144Y-75494733D01*
X209370144Y-75494733D02*
X209203477Y-75494733D01*
X209203477Y-75494733D02*
X209103477Y-75528066D01*
X209103477Y-75528066D02*
X209036811Y-75594733D01*
X209036811Y-75594733D02*
X209003477Y-75661400D01*
X209003477Y-75661400D02*
X208970144Y-75794733D01*
X208970144Y-75794733D02*
X208970144Y-75894733D01*
X208970144Y-75894733D02*
X209003477Y-76028066D01*
X209003477Y-76028066D02*
X209036811Y-76094733D01*
X209036811Y-76094733D02*
X209103477Y-76161400D01*
X209103477Y-76161400D02*
X209203477Y-76194733D01*
X209203477Y-76194733D02*
X209370144Y-76194733D01*
X208336811Y-75494733D02*
X208670144Y-75494733D01*
X208670144Y-75494733D02*
X208703477Y-75828066D01*
X208703477Y-75828066D02*
X208670144Y-75794733D01*
X208670144Y-75794733D02*
X208603477Y-75761400D01*
X208603477Y-75761400D02*
X208436811Y-75761400D01*
X208436811Y-75761400D02*
X208370144Y-75794733D01*
X208370144Y-75794733D02*
X208336811Y-75828066D01*
X208336811Y-75828066D02*
X208303477Y-75894733D01*
X208303477Y-75894733D02*
X208303477Y-76061400D01*
X208303477Y-76061400D02*
X208336811Y-76128066D01*
X208336811Y-76128066D02*
X208370144Y-76161400D01*
X208370144Y-76161400D02*
X208436811Y-76194733D01*
X208436811Y-76194733D02*
X208603477Y-76194733D01*
X208603477Y-76194733D02*
X208670144Y-76161400D01*
X208670144Y-76161400D02*
X208703477Y-76128066D01*
X160069046Y-48832776D02*
X160069046Y-49166109D01*
X160188094Y-48642300D02*
X160307141Y-48999442D01*
X160307141Y-48999442D02*
X159997618Y-48999442D01*
X159783332Y-49142300D02*
X159783332Y-49166109D01*
X159783332Y-49166109D02*
X159807142Y-49213728D01*
X159807142Y-49213728D02*
X159830951Y-49237538D01*
X159616666Y-48666109D02*
X159307142Y-48666109D01*
X159307142Y-48666109D02*
X159473809Y-48856585D01*
X159473809Y-48856585D02*
X159402380Y-48856585D01*
X159402380Y-48856585D02*
X159354761Y-48880395D01*
X159354761Y-48880395D02*
X159330952Y-48904204D01*
X159330952Y-48904204D02*
X159307142Y-48951823D01*
X159307142Y-48951823D02*
X159307142Y-49070871D01*
X159307142Y-49070871D02*
X159330952Y-49118490D01*
X159330952Y-49118490D02*
X159354761Y-49142300D01*
X159354761Y-49142300D02*
X159402380Y-49166109D01*
X159402380Y-49166109D02*
X159545237Y-49166109D01*
X159545237Y-49166109D02*
X159592856Y-49142300D01*
X159592856Y-49142300D02*
X159616666Y-49118490D01*
X158711905Y-49166109D02*
X158711905Y-48832776D01*
X158711905Y-48880395D02*
X158688095Y-48856585D01*
X158688095Y-48856585D02*
X158640476Y-48832776D01*
X158640476Y-48832776D02*
X158569048Y-48832776D01*
X158569048Y-48832776D02*
X158521429Y-48856585D01*
X158521429Y-48856585D02*
X158497619Y-48904204D01*
X158497619Y-48904204D02*
X158497619Y-49166109D01*
X158497619Y-48904204D02*
X158473810Y-48856585D01*
X158473810Y-48856585D02*
X158426191Y-48832776D01*
X158426191Y-48832776D02*
X158354762Y-48832776D01*
X158354762Y-48832776D02*
X158307143Y-48856585D01*
X158307143Y-48856585D02*
X158283333Y-48904204D01*
X158283333Y-48904204D02*
X158283333Y-49166109D01*
X158045238Y-49166109D02*
X158045238Y-48832776D01*
X158045238Y-48880395D02*
X158021428Y-48856585D01*
X158021428Y-48856585D02*
X157973809Y-48832776D01*
X157973809Y-48832776D02*
X157902381Y-48832776D01*
X157902381Y-48832776D02*
X157854762Y-48856585D01*
X157854762Y-48856585D02*
X157830952Y-48904204D01*
X157830952Y-48904204D02*
X157830952Y-49166109D01*
X157830952Y-48904204D02*
X157807143Y-48856585D01*
X157807143Y-48856585D02*
X157759524Y-48832776D01*
X157759524Y-48832776D02*
X157688095Y-48832776D01*
X157688095Y-48832776D02*
X157640476Y-48856585D01*
X157640476Y-48856585D02*
X157616666Y-48904204D01*
X157616666Y-48904204D02*
X157616666Y-49166109D01*
X161100000Y-45120000D02*
X161100000Y-50126420D01*
X156800000Y-45120000D02*
X156800000Y-50126420D01*
X161100000Y-49540000D02*
X156800000Y-49540000D01*
X161100000Y-49540000D02*
X156800000Y-49540000D01*
X161100000Y-49540000D02*
X160656495Y-49770874D01*
X161100000Y-49540000D02*
X160656495Y-49309126D01*
X156800000Y-49540000D02*
X157243505Y-49309126D01*
X156800000Y-49540000D02*
X157243505Y-49770874D01*
X165892776Y-41330953D02*
X166226109Y-41330953D01*
X165702300Y-41211905D02*
X166059442Y-41092858D01*
X166059442Y-41092858D02*
X166059442Y-41402381D01*
X166202300Y-41616667D02*
X166226109Y-41616667D01*
X166226109Y-41616667D02*
X166273728Y-41592857D01*
X166273728Y-41592857D02*
X166297538Y-41569048D01*
X165726109Y-41783333D02*
X165726109Y-42092857D01*
X165726109Y-42092857D02*
X165916585Y-41926190D01*
X165916585Y-41926190D02*
X165916585Y-41997619D01*
X165916585Y-41997619D02*
X165940395Y-42045238D01*
X165940395Y-42045238D02*
X165964204Y-42069047D01*
X165964204Y-42069047D02*
X166011823Y-42092857D01*
X166011823Y-42092857D02*
X166130871Y-42092857D01*
X166130871Y-42092857D02*
X166178490Y-42069047D01*
X166178490Y-42069047D02*
X166202300Y-42045238D01*
X166202300Y-42045238D02*
X166226109Y-41997619D01*
X166226109Y-41997619D02*
X166226109Y-41854762D01*
X166226109Y-41854762D02*
X166202300Y-41807143D01*
X166202300Y-41807143D02*
X166178490Y-41783333D01*
X166226109Y-42688094D02*
X165892776Y-42688094D01*
X165940395Y-42688094D02*
X165916585Y-42711904D01*
X165916585Y-42711904D02*
X165892776Y-42759523D01*
X165892776Y-42759523D02*
X165892776Y-42830951D01*
X165892776Y-42830951D02*
X165916585Y-42878570D01*
X165916585Y-42878570D02*
X165964204Y-42902380D01*
X165964204Y-42902380D02*
X166226109Y-42902380D01*
X165964204Y-42902380D02*
X165916585Y-42926189D01*
X165916585Y-42926189D02*
X165892776Y-42973808D01*
X165892776Y-42973808D02*
X165892776Y-43045237D01*
X165892776Y-43045237D02*
X165916585Y-43092856D01*
X165916585Y-43092856D02*
X165964204Y-43116666D01*
X165964204Y-43116666D02*
X166226109Y-43116666D01*
X166226109Y-43354761D02*
X165892776Y-43354761D01*
X165940395Y-43354761D02*
X165916585Y-43378571D01*
X165916585Y-43378571D02*
X165892776Y-43426190D01*
X165892776Y-43426190D02*
X165892776Y-43497618D01*
X165892776Y-43497618D02*
X165916585Y-43545237D01*
X165916585Y-43545237D02*
X165964204Y-43569047D01*
X165964204Y-43569047D02*
X166226109Y-43569047D01*
X165964204Y-43569047D02*
X165916585Y-43592856D01*
X165916585Y-43592856D02*
X165892776Y-43640475D01*
X165892776Y-43640475D02*
X165892776Y-43711904D01*
X165892776Y-43711904D02*
X165916585Y-43759523D01*
X165916585Y-43759523D02*
X165964204Y-43783333D01*
X165964204Y-43783333D02*
X166226109Y-43783333D01*
X161600000Y-44620000D02*
X168636420Y-44620000D01*
X161600000Y-40320000D02*
X168636420Y-40320000D01*
X168050000Y-44620000D02*
X168050000Y-40320000D01*
X168050000Y-44620000D02*
X168050000Y-40320000D01*
X168050000Y-44620000D02*
X167819126Y-44176495D01*
X168050000Y-44620000D02*
X168280874Y-44176495D01*
X168050000Y-40320000D02*
X168280874Y-40763505D01*
X168050000Y-40320000D02*
X167819126Y-40763505D01*
X206095237Y-92287419D02*
X205904761Y-92287419D01*
X205904761Y-92287419D02*
X205809523Y-92239800D01*
X205809523Y-92239800D02*
X205761904Y-92192180D01*
X205761904Y-92192180D02*
X205666666Y-92049323D01*
X205666666Y-92049323D02*
X205619047Y-91858847D01*
X205619047Y-91858847D02*
X205619047Y-91477895D01*
X205619047Y-91477895D02*
X205666666Y-91382657D01*
X205666666Y-91382657D02*
X205714285Y-91335038D01*
X205714285Y-91335038D02*
X205809523Y-91287419D01*
X205809523Y-91287419D02*
X205999999Y-91287419D01*
X205999999Y-91287419D02*
X206095237Y-91335038D01*
X206095237Y-91335038D02*
X206142856Y-91382657D01*
X206142856Y-91382657D02*
X206190475Y-91477895D01*
X206190475Y-91477895D02*
X206190475Y-91715990D01*
X206190475Y-91715990D02*
X206142856Y-91811228D01*
X206142856Y-91811228D02*
X206095237Y-91858847D01*
X206095237Y-91858847D02*
X205999999Y-91906466D01*
X205999999Y-91906466D02*
X205809523Y-91906466D01*
X205809523Y-91906466D02*
X205714285Y-91858847D01*
X205714285Y-91858847D02*
X205666666Y-91811228D01*
X205666666Y-91811228D02*
X205619047Y-91715990D01*
X205238094Y-91382657D02*
X205190475Y-91335038D01*
X205190475Y-91335038D02*
X205095237Y-91287419D01*
X205095237Y-91287419D02*
X204857142Y-91287419D01*
X204857142Y-91287419D02*
X204761904Y-91335038D01*
X204761904Y-91335038D02*
X204714285Y-91382657D01*
X204714285Y-91382657D02*
X204666666Y-91477895D01*
X204666666Y-91477895D02*
X204666666Y-91573133D01*
X204666666Y-91573133D02*
X204714285Y-91715990D01*
X204714285Y-91715990D02*
X205285713Y-92287419D01*
X205285713Y-92287419D02*
X204666666Y-92287419D01*
X204190475Y-92239800D02*
X204190475Y-92287419D01*
X204190475Y-92287419D02*
X204238094Y-92382657D01*
X204238094Y-92382657D02*
X204285713Y-92430276D01*
X203333333Y-91620752D02*
X203333333Y-92287419D01*
X203571428Y-91239800D02*
X203809523Y-91954085D01*
X203809523Y-91954085D02*
X203190476Y-91954085D01*
X202047618Y-92287419D02*
X202047618Y-91620752D01*
X202047618Y-91715990D02*
X201999999Y-91668371D01*
X201999999Y-91668371D02*
X201904761Y-91620752D01*
X201904761Y-91620752D02*
X201761904Y-91620752D01*
X201761904Y-91620752D02*
X201666666Y-91668371D01*
X201666666Y-91668371D02*
X201619047Y-91763609D01*
X201619047Y-91763609D02*
X201619047Y-92287419D01*
X201619047Y-91763609D02*
X201571428Y-91668371D01*
X201571428Y-91668371D02*
X201476190Y-91620752D01*
X201476190Y-91620752D02*
X201333333Y-91620752D01*
X201333333Y-91620752D02*
X201238094Y-91668371D01*
X201238094Y-91668371D02*
X201190475Y-91763609D01*
X201190475Y-91763609D02*
X201190475Y-92287419D01*
X200714285Y-92287419D02*
X200714285Y-91620752D01*
X200714285Y-91715990D02*
X200666666Y-91668371D01*
X200666666Y-91668371D02*
X200571428Y-91620752D01*
X200571428Y-91620752D02*
X200428571Y-91620752D01*
X200428571Y-91620752D02*
X200333333Y-91668371D01*
X200333333Y-91668371D02*
X200285714Y-91763609D01*
X200285714Y-91763609D02*
X200285714Y-92287419D01*
X200285714Y-91763609D02*
X200238095Y-91668371D01*
X200238095Y-91668371D02*
X200142857Y-91620752D01*
X200142857Y-91620752D02*
X200000000Y-91620752D01*
X200000000Y-91620752D02*
X199904761Y-91668371D01*
X199904761Y-91668371D02*
X199857142Y-91763609D01*
X199857142Y-91763609D02*
X199857142Y-92287419D01*
X249200000Y-93300000D02*
X249200000Y-93516420D01*
X156800000Y-93300000D02*
X156800000Y-93516420D01*
X249200000Y-92930000D02*
X156800000Y-92930000D01*
X249200000Y-92930000D02*
X156800000Y-92930000D01*
X249200000Y-92930000D02*
X248073496Y-93516421D01*
X249200000Y-92930000D02*
X248073496Y-92343579D01*
X156800000Y-92930000D02*
X157926504Y-92343579D01*
X156800000Y-92930000D02*
X157926504Y-93516421D01*
D12*
X201840699Y-80709967D02*
X201983557Y-80638538D01*
X201983557Y-80638538D02*
X202197842Y-80638538D01*
X202197842Y-80638538D02*
X202412128Y-80709967D01*
X202412128Y-80709967D02*
X202554985Y-80852824D01*
X202554985Y-80852824D02*
X202626414Y-80995681D01*
X202626414Y-80995681D02*
X202697842Y-81281395D01*
X202697842Y-81281395D02*
X202697842Y-81495681D01*
X202697842Y-81495681D02*
X202626414Y-81781395D01*
X202626414Y-81781395D02*
X202554985Y-81924252D01*
X202554985Y-81924252D02*
X202412128Y-82067110D01*
X202412128Y-82067110D02*
X202197842Y-82138538D01*
X202197842Y-82138538D02*
X202054985Y-82138538D01*
X202054985Y-82138538D02*
X201840699Y-82067110D01*
X201840699Y-82067110D02*
X201769271Y-81995681D01*
X201769271Y-81995681D02*
X201769271Y-81495681D01*
X201769271Y-81495681D02*
X202054985Y-81495681D01*
X200912128Y-80638538D02*
X200912128Y-80995681D01*
X201269271Y-80852824D02*
X200912128Y-80995681D01*
X200912128Y-80995681D02*
X200554985Y-80852824D01*
X201126414Y-81281395D02*
X200912128Y-80995681D01*
X200912128Y-80995681D02*
X200697842Y-81281395D01*
X199769271Y-80638538D02*
X199769271Y-80995681D01*
X200126414Y-80852824D02*
X199769271Y-80995681D01*
X199769271Y-80995681D02*
X199412128Y-80852824D01*
X199983557Y-81281395D02*
X199769271Y-80995681D01*
X199769271Y-80995681D02*
X199554985Y-81281395D01*
X198626414Y-80638538D02*
X198626414Y-80995681D01*
X198983557Y-80852824D02*
X198626414Y-80995681D01*
X198626414Y-80995681D02*
X198269271Y-80852824D01*
X198840700Y-81281395D02*
X198626414Y-80995681D01*
X198626414Y-80995681D02*
X198412128Y-81281395D01*
G36*
X209470029Y-84775841D02*
G01*
X209471508Y-84785749D01*
X209474423Y-84848480D01*
X209472374Y-84934532D01*
X209465631Y-85028337D01*
X209447952Y-85210041D01*
X209077267Y-85215921D01*
X208706581Y-85221801D01*
X208706581Y-86327977D01*
X208706581Y-87434153D01*
X208416480Y-87434153D01*
X208126378Y-87434153D01*
X208126378Y-86327469D01*
X208126378Y-85220786D01*
X207761065Y-85220786D01*
X207395752Y-85220786D01*
X207395752Y-84962918D01*
X207395752Y-84705050D01*
X208426251Y-84705050D01*
X209456749Y-84705050D01*
X209470029Y-84775841D01*
G37*
G36*
X201367342Y-76088634D02*
G01*
X201444489Y-76110086D01*
X201455300Y-76116864D01*
X201502156Y-76169051D01*
X201537037Y-76242118D01*
X201550663Y-76317900D01*
X201546762Y-76344333D01*
X201529626Y-76397583D01*
X201504925Y-76454148D01*
X201479385Y-76499228D01*
X201459731Y-76518022D01*
X201452874Y-76519227D01*
X201412685Y-76527172D01*
X201345059Y-76540888D01*
X201259627Y-76558431D01*
X201212379Y-76568888D01*
X201007614Y-76634243D01*
X200835673Y-76726265D01*
X200694698Y-76846466D01*
X200582832Y-76996356D01*
X200498216Y-77177445D01*
X200475609Y-77235395D01*
X200435334Y-77312580D01*
X200391079Y-77359488D01*
X200336615Y-77384088D01*
X200270987Y-77389266D01*
X200189536Y-77368720D01*
X200117526Y-77325256D01*
X200066129Y-77266032D01*
X200046514Y-77198205D01*
X200047354Y-77181072D01*
X200062077Y-77101761D01*
X200091974Y-77001065D01*
X200132905Y-76891692D01*
X200180726Y-76786352D01*
X200190526Y-76767746D01*
X200270009Y-76648892D01*
X200376901Y-76525785D01*
X200500564Y-76408659D01*
X200630360Y-76307748D01*
X200755651Y-76233286D01*
X200849700Y-76191519D01*
X200994311Y-76140383D01*
X201134174Y-76105227D01*
X201261210Y-76087496D01*
X201367342Y-76088634D01*
G37*
G36*
X206159927Y-85371214D02*
G01*
X206279260Y-85380026D01*
X206378830Y-85409549D01*
X206471828Y-85465592D01*
X206571449Y-85553963D01*
X206703406Y-85684866D01*
X206717865Y-85538131D01*
X206732324Y-85391397D01*
X206994199Y-85397419D01*
X207256074Y-85403442D01*
X207261674Y-86391936D01*
X207262499Y-86566219D01*
X207263010Y-86758146D01*
X207263053Y-86933475D01*
X207262650Y-87087812D01*
X207261821Y-87216758D01*
X207260585Y-87315918D01*
X207258963Y-87380895D01*
X207256976Y-87407292D01*
X207255503Y-87409891D01*
X207232102Y-87421122D01*
X207179120Y-87428635D01*
X207092115Y-87432842D01*
X206966647Y-87434153D01*
X206686615Y-87434153D01*
X206686615Y-86820649D01*
X206686611Y-86797852D01*
X206686121Y-86614744D01*
X206684671Y-86469436D01*
X206682045Y-86357273D01*
X206678028Y-86273597D01*
X206672405Y-86213753D01*
X206664960Y-86173085D01*
X206655479Y-86146936D01*
X206611769Y-86081851D01*
X206517281Y-85997672D01*
X206396621Y-85935049D01*
X206258327Y-85898000D01*
X206110933Y-85890545D01*
X205988223Y-85897689D01*
X205982072Y-85661591D01*
X205982001Y-85658855D01*
X205980570Y-85543072D01*
X205985980Y-85463350D01*
X206002247Y-85412997D01*
X206033390Y-85385319D01*
X206083427Y-85373621D01*
X206156376Y-85371209D01*
X206159927Y-85371214D01*
G37*
G36*
X201438670Y-75128938D02*
G01*
X201479300Y-75138365D01*
X201518563Y-75154654D01*
X201535684Y-75163622D01*
X201606815Y-75227309D01*
X201644955Y-75313235D01*
X201645743Y-75412566D01*
X201644751Y-75417527D01*
X201607483Y-75497167D01*
X201536765Y-75552534D01*
X201436414Y-75580566D01*
X201422681Y-75582179D01*
X201230115Y-75606323D01*
X201071780Y-75630044D01*
X200939533Y-75655390D01*
X200825228Y-75684411D01*
X200720721Y-75719155D01*
X200617869Y-75761672D01*
X200508527Y-75814010D01*
X200507514Y-75814520D01*
X200263586Y-75960903D01*
X200045730Y-76140463D01*
X199856414Y-76350460D01*
X199698108Y-76588158D01*
X199573282Y-76850820D01*
X199562893Y-76876568D01*
X199525910Y-76957968D01*
X199490219Y-77023304D01*
X199462305Y-77060337D01*
X199398300Y-77091518D01*
X199316843Y-77095997D01*
X199234012Y-77075435D01*
X199163747Y-77033372D01*
X199119987Y-76973352D01*
X199118492Y-76969248D01*
X199107574Y-76883064D01*
X199122889Y-76771369D01*
X199161958Y-76640153D01*
X199222302Y-76495407D01*
X199301442Y-76343121D01*
X199396901Y-76189287D01*
X199506199Y-76039894D01*
X199542299Y-75995567D01*
X199761567Y-75765609D01*
X200007288Y-75568156D01*
X200276139Y-75404991D01*
X200564793Y-75277894D01*
X200869926Y-75188645D01*
X201188212Y-75139026D01*
X201209396Y-75137131D01*
X201313635Y-75128790D01*
X201386754Y-75125902D01*
X201438670Y-75128938D01*
G37*
G36*
X201467230Y-74172257D02*
G01*
X201470446Y-74172478D01*
X201541274Y-74197688D01*
X201598895Y-74253872D01*
X201637670Y-74330117D01*
X201651962Y-74415512D01*
X201636132Y-74499145D01*
X201624944Y-74522412D01*
X201592090Y-74563549D01*
X201541978Y-74594382D01*
X201468180Y-74617237D01*
X201364270Y-74634440D01*
X201223821Y-74648314D01*
X201154102Y-74654296D01*
X200936792Y-74678899D01*
X200745178Y-74711636D01*
X200566073Y-74755080D01*
X200386291Y-74811808D01*
X200115126Y-74920147D01*
X199860932Y-75054797D01*
X199625535Y-75218013D01*
X199398069Y-75416441D01*
X199277807Y-75538609D01*
X199068144Y-75788797D01*
X198889516Y-76054517D01*
X198745867Y-76329564D01*
X198641142Y-76607731D01*
X198636386Y-76623274D01*
X198599986Y-76727330D01*
X198565138Y-76796773D01*
X198528358Y-76838738D01*
X198481913Y-76865636D01*
X198397192Y-76880813D01*
X198311730Y-76863369D01*
X198237520Y-76816628D01*
X198186558Y-76743920D01*
X198180125Y-76727651D01*
X198170030Y-76688821D01*
X198169797Y-76644746D01*
X198180155Y-76583424D01*
X198201836Y-76492851D01*
X198207053Y-76472967D01*
X198241366Y-76360256D01*
X198284812Y-76237089D01*
X198329278Y-76126776D01*
X198345883Y-76089663D01*
X198516362Y-75765976D01*
X198721279Y-75466054D01*
X198958077Y-75192037D01*
X199224201Y-74946062D01*
X199517094Y-74730266D01*
X199834202Y-74546789D01*
X200172967Y-74397766D01*
X200530834Y-74285337D01*
X200611829Y-74266033D01*
X200790732Y-74230821D01*
X200978105Y-74202342D01*
X201161566Y-74182092D01*
X201328735Y-74171565D01*
X201467230Y-74172257D01*
G37*
G36*
X191977393Y-85376029D02*
G01*
X192003263Y-85377953D01*
X192116002Y-85395445D01*
X192209335Y-85430818D01*
X192296580Y-85490695D01*
X192391057Y-85581697D01*
X192503874Y-85701381D01*
X192504203Y-85573900D01*
X192506011Y-85517102D01*
X192512502Y-85454223D01*
X192522029Y-85418845D01*
X192523149Y-85417291D01*
X192546209Y-85405445D01*
X192595667Y-85398460D01*
X192677000Y-85395907D01*
X192795685Y-85397356D01*
X193051844Y-85403442D01*
X193057444Y-86391936D01*
X193058269Y-86566219D01*
X193058779Y-86758146D01*
X193058823Y-86933475D01*
X193058420Y-87087812D01*
X193057590Y-87216758D01*
X193056355Y-87315918D01*
X193054733Y-87380895D01*
X193052746Y-87407292D01*
X193051273Y-87409891D01*
X193027871Y-87421122D01*
X192974889Y-87428635D01*
X192887885Y-87432842D01*
X192762416Y-87434153D01*
X192482385Y-87434153D01*
X192482385Y-86831048D01*
X192482377Y-86808893D01*
X192481276Y-86597701D01*
X192478325Y-86429272D01*
X192473525Y-86303651D01*
X192466879Y-86220881D01*
X192458386Y-86181006D01*
X192441605Y-86154831D01*
X192399389Y-86101422D01*
X192346818Y-86043097D01*
X192325413Y-86021993D01*
X192208491Y-85940187D01*
X192073952Y-85897296D01*
X191920705Y-85892936D01*
X191875105Y-85895887D01*
X191810707Y-85893593D01*
X191780676Y-85881578D01*
X191776679Y-85869322D01*
X191768285Y-85819796D01*
X191759470Y-85743999D01*
X191751591Y-85652610D01*
X191745385Y-85558379D01*
X191743977Y-85494339D01*
X191748785Y-85454084D01*
X191760991Y-85427970D01*
X191781777Y-85406355D01*
X191800981Y-85391744D01*
X191837910Y-85377242D01*
X191892579Y-85372645D01*
X191977393Y-85376029D01*
G37*
G36*
X194094060Y-86081147D02*
G01*
X194094060Y-86769597D01*
X194191150Y-86863958D01*
X194270681Y-86931409D01*
X194359558Y-86978440D01*
X194461374Y-86999987D01*
X194589549Y-87000653D01*
X194653806Y-86995868D01*
X194715960Y-86984938D01*
X194760633Y-86964530D01*
X194802613Y-86929721D01*
X194811686Y-86920509D01*
X194858860Y-86856722D01*
X194889169Y-86790704D01*
X194890768Y-86783164D01*
X194896079Y-86731072D01*
X194900805Y-86643449D01*
X194904781Y-86526086D01*
X194907838Y-86384777D01*
X194909807Y-86225312D01*
X194910522Y-86053484D01*
X194910642Y-85392698D01*
X195191198Y-85392698D01*
X195471754Y-85392698D01*
X195465183Y-86193163D01*
X195465176Y-86194013D01*
X195463369Y-86401368D01*
X195461519Y-86570351D01*
X195459359Y-86705551D01*
X195456626Y-86811555D01*
X195453055Y-86892952D01*
X195448381Y-86954330D01*
X195442340Y-87000277D01*
X195434666Y-87035383D01*
X195425096Y-87064234D01*
X195413363Y-87091421D01*
X195372370Y-87169436D01*
X195278872Y-87290545D01*
X195159260Y-87381665D01*
X195007343Y-87448236D01*
X194942785Y-87461834D01*
X194837180Y-87470473D01*
X194706227Y-87471131D01*
X194666545Y-87469971D01*
X194569841Y-87464496D01*
X194497849Y-87454049D01*
X194436856Y-87436024D01*
X194373148Y-87407814D01*
X194324987Y-87381525D01*
X194241707Y-87326537D01*
X194174644Y-87271411D01*
X194131205Y-87229857D01*
X194105442Y-87210519D01*
X194095624Y-87216817D01*
X194094060Y-87246359D01*
X194090529Y-87300063D01*
X194080630Y-87367000D01*
X194067199Y-87434153D01*
X193801272Y-87434153D01*
X193535346Y-87434153D01*
X193535346Y-86413425D01*
X193535346Y-85392698D01*
X193814703Y-85392698D01*
X194094060Y-85392698D01*
X194094060Y-86081147D01*
G37*
G36*
X201529255Y-86025981D02*
G01*
X201529255Y-87434153D01*
X201249898Y-87434153D01*
X200970541Y-87434153D01*
X200969768Y-86913045D01*
X200968995Y-86391936D01*
X200916860Y-86455734D01*
X200897048Y-86481714D01*
X200853687Y-86541249D01*
X200793045Y-86626038D01*
X200719074Y-86730520D01*
X200635724Y-86849134D01*
X200546948Y-86976321D01*
X200229170Y-87433110D01*
X199901463Y-87433631D01*
X199889306Y-87433642D01*
X199755164Y-87432228D01*
X199656120Y-87428078D01*
X199594781Y-87421361D01*
X199573756Y-87412248D01*
X199576731Y-87405459D01*
X199600208Y-87367891D01*
X199644525Y-87302129D01*
X199706642Y-87212536D01*
X199783518Y-87103477D01*
X199872112Y-86979316D01*
X199969384Y-86844416D01*
X200365012Y-86298489D01*
X200286734Y-86205534D01*
X200282654Y-86200703D01*
X200240601Y-86151597D01*
X200176818Y-86077806D01*
X200097054Y-85985955D01*
X200007063Y-85882671D01*
X199912595Y-85774578D01*
X199886068Y-85744184D01*
X199800296Y-85644633D01*
X199726281Y-85556798D01*
X199668218Y-85485784D01*
X199630304Y-85436696D01*
X199616734Y-85414637D01*
X199616833Y-85413939D01*
X199640713Y-85404971D01*
X199704902Y-85398521D01*
X199806958Y-85394743D01*
X199944441Y-85393794D01*
X200272148Y-85394890D01*
X200603828Y-85802085D01*
X200672124Y-85885481D01*
X200758797Y-85989933D01*
X200834090Y-86079082D01*
X200894111Y-86148385D01*
X200934965Y-86193299D01*
X200952760Y-86209280D01*
X200952936Y-86209239D01*
X200957004Y-86186774D01*
X200961028Y-86126284D01*
X200964868Y-86032515D01*
X200968388Y-85910212D01*
X200971449Y-85764121D01*
X200973915Y-85598988D01*
X200975648Y-85419559D01*
X200981285Y-84629838D01*
X201255270Y-84623824D01*
X201529255Y-84617810D01*
X201529255Y-86025981D01*
G37*
G36*
X198573429Y-84877295D02*
G01*
X198637891Y-84883847D01*
X198723244Y-84896915D01*
X198816791Y-84914052D01*
X198905835Y-84932807D01*
X198977679Y-84950730D01*
X199019626Y-84965371D01*
X199028091Y-84970777D01*
X199043417Y-84991013D01*
X199052521Y-85028261D01*
X199056893Y-85091165D01*
X199058020Y-85188367D01*
X199058020Y-85390815D01*
X199213815Y-85397129D01*
X199369610Y-85403442D01*
X199369610Y-85607588D01*
X199369610Y-85811733D01*
X199215510Y-85818013D01*
X199061409Y-85824292D01*
X199054342Y-86451938D01*
X199047275Y-87079584D01*
X198986586Y-87203175D01*
X198907566Y-87318359D01*
X198798724Y-87404089D01*
X198664084Y-87456517D01*
X198643965Y-87460579D01*
X198558027Y-87470006D01*
X198451459Y-87474035D01*
X198340086Y-87472733D01*
X198239733Y-87466167D01*
X198166226Y-87454405D01*
X198118441Y-87441826D01*
X198041758Y-87418919D01*
X197995428Y-87395367D01*
X197971803Y-87363168D01*
X197963236Y-87314323D01*
X197962080Y-87240831D01*
X197963622Y-87166618D01*
X197968611Y-87084886D01*
X197975854Y-87026834D01*
X197984288Y-86993021D01*
X198002226Y-86969080D01*
X198034949Y-86972552D01*
X198095507Y-86986399D01*
X198180239Y-86996196D01*
X198267672Y-86999280D01*
X198342837Y-86995192D01*
X198390762Y-86983472D01*
X198420104Y-86964218D01*
X198446035Y-86935301D01*
X198465727Y-86893606D01*
X198480001Y-86834103D01*
X198489676Y-86751763D01*
X198495572Y-86641554D01*
X198498509Y-86498449D01*
X198499305Y-86317415D01*
X198499305Y-85822478D01*
X198233461Y-85822478D01*
X197967617Y-85822478D01*
X197956149Y-85720405D01*
X197953132Y-85690745D01*
X197945919Y-85596517D01*
X197941574Y-85505515D01*
X197938467Y-85392698D01*
X198218886Y-85392698D01*
X198499305Y-85392698D01*
X198499305Y-85134830D01*
X198499305Y-84876962D01*
X198561399Y-84876962D01*
X198573429Y-84877295D01*
G37*
G36*
X202673136Y-85355215D02*
G01*
X202859573Y-85382808D01*
X202934697Y-85403513D01*
X203120510Y-85483483D01*
X203283189Y-85596289D01*
X203419874Y-85737848D01*
X203527703Y-85904077D01*
X203603814Y-86090893D01*
X203645347Y-86294212D01*
X203649440Y-86509952D01*
X203639115Y-86616448D01*
X203605944Y-86786185D01*
X203550533Y-86931827D01*
X203468400Y-87063765D01*
X203355062Y-87192392D01*
X203254401Y-87279778D01*
X203093770Y-87375461D01*
X202904551Y-87442931D01*
X202838309Y-87456835D01*
X202699587Y-87471449D01*
X202545088Y-87473872D01*
X202390967Y-87464123D01*
X202253378Y-87442219D01*
X202252768Y-87442081D01*
X202161077Y-87417125D01*
X202067876Y-87384823D01*
X201983949Y-87349685D01*
X201920080Y-87316225D01*
X201887051Y-87288953D01*
X201884516Y-87266300D01*
X201887000Y-87211063D01*
X201893868Y-87136498D01*
X201903620Y-87054972D01*
X201914756Y-86978850D01*
X201925775Y-86920499D01*
X201935178Y-86892286D01*
X201950168Y-86890474D01*
X201994958Y-86902446D01*
X202056080Y-86927937D01*
X202070798Y-86934758D01*
X202211616Y-86984187D01*
X202362501Y-87013111D01*
X202511900Y-87020840D01*
X202648263Y-87006686D01*
X202760039Y-86969959D01*
X202795683Y-86950105D01*
X202910066Y-86856881D01*
X202997847Y-86735760D01*
X203008698Y-86714459D01*
X203026759Y-86666835D01*
X203037583Y-86610090D01*
X203042847Y-86532957D01*
X203044229Y-86424170D01*
X203043973Y-86369712D01*
X203041027Y-86276841D01*
X203033419Y-86210349D01*
X203019454Y-86158889D01*
X202997435Y-86111113D01*
X202960984Y-86053340D01*
X202878351Y-85960480D01*
X202782217Y-85886536D01*
X202685506Y-85842632D01*
X202584914Y-85825812D01*
X202437382Y-85826188D01*
X202280719Y-85848843D01*
X202128867Y-85891563D01*
X201995766Y-85952137D01*
X201978492Y-85960952D01*
X201949712Y-85964407D01*
X201930242Y-85941769D01*
X201916869Y-85887410D01*
X201906375Y-85795701D01*
X201906339Y-85795302D01*
X201897778Y-85709124D01*
X201888845Y-85632834D01*
X201881468Y-85582908D01*
X201878629Y-85556741D01*
X201888257Y-85529462D01*
X201920972Y-85503557D01*
X201985043Y-85470014D01*
X202090904Y-85426445D01*
X202275075Y-85378402D01*
X202473728Y-85354203D01*
X202673136Y-85355215D01*
G37*
G36*
X199594951Y-81584879D02*
G01*
X199584615Y-81757972D01*
X199560597Y-81921313D01*
X199523686Y-82059466D01*
X199487407Y-82155312D01*
X199444108Y-82255698D01*
X199394287Y-82355759D01*
X199335446Y-82459054D01*
X199265083Y-82569141D01*
X199180698Y-82689576D01*
X199079790Y-82823917D01*
X198959858Y-82975723D01*
X198818401Y-83148552D01*
X198652920Y-83345959D01*
X198460913Y-83571505D01*
X198427136Y-83610730D01*
X198335853Y-83714272D01*
X198254878Y-83802581D01*
X198188486Y-83871190D01*
X198140953Y-83915631D01*
X198116553Y-83931435D01*
X198111917Y-83931149D01*
X198096047Y-83925836D01*
X198074890Y-83911184D01*
X198045309Y-83883779D01*
X198004167Y-83840207D01*
X197948325Y-83777055D01*
X197874648Y-83690909D01*
X197779996Y-83578354D01*
X197661234Y-83435977D01*
X197583761Y-83342521D01*
X197392678Y-83107702D01*
X197228987Y-82898580D01*
X197090735Y-82711488D01*
X196975969Y-82542756D01*
X196882734Y-82388718D01*
X196809077Y-82245706D01*
X196753045Y-82110052D01*
X196712683Y-81978088D01*
X196686039Y-81846145D01*
X196671158Y-81710557D01*
X196666086Y-81567655D01*
X196666117Y-81556911D01*
X197467833Y-81556911D01*
X197469366Y-81597155D01*
X197501521Y-81746413D01*
X197573504Y-81890007D01*
X197682843Y-82022581D01*
X197727346Y-82064140D01*
X197815722Y-82131973D01*
X197889687Y-82167740D01*
X197927596Y-82177360D01*
X198050901Y-82197318D01*
X198170509Y-82201918D01*
X198268632Y-82190109D01*
X198375689Y-82153536D01*
X198511869Y-82073196D01*
X198623155Y-81965727D01*
X198705952Y-81837169D01*
X198756666Y-81693565D01*
X198771702Y-81540956D01*
X198747465Y-81385382D01*
X198747397Y-81385148D01*
X198691412Y-81235950D01*
X198616850Y-81119848D01*
X198516744Y-81028567D01*
X198384126Y-80953833D01*
X198313090Y-80923995D01*
X198251927Y-80907697D01*
X198184083Y-80902645D01*
X198091578Y-80905894D01*
X198075113Y-80906912D01*
X197974734Y-80917908D01*
X197898334Y-80938050D01*
X197829401Y-80971470D01*
X197742787Y-81031842D01*
X197631115Y-81143996D01*
X197544234Y-81275095D01*
X197487891Y-81415835D01*
X197467833Y-81556911D01*
X196666117Y-81556911D01*
X196666212Y-81523553D01*
X196676425Y-81345543D01*
X196702764Y-81202342D01*
X196768262Y-81010864D01*
X196879444Y-80794146D01*
X197020293Y-80601993D01*
X197186909Y-80436702D01*
X197375393Y-80300572D01*
X197581843Y-80195900D01*
X197802360Y-80124987D01*
X198033043Y-80090128D01*
X198269992Y-80093624D01*
X198509308Y-80137772D01*
X198656829Y-80187759D01*
X198866601Y-80294459D01*
X199058979Y-80435170D01*
X199229504Y-80605218D01*
X199373713Y-80799925D01*
X199487145Y-81014617D01*
X199565340Y-81244617D01*
X199571421Y-81271190D01*
X199590817Y-81417472D01*
X199593866Y-81540956D01*
X199594951Y-81584879D01*
G37*
G36*
X205843131Y-86941092D02*
G01*
X205805704Y-87095771D01*
X205776130Y-87161717D01*
X205688004Y-87282774D01*
X205565313Y-87378324D01*
X205408020Y-87448399D01*
X205345296Y-87461680D01*
X205242327Y-87470323D01*
X205117202Y-87470936D01*
X205091010Y-87470136D01*
X204992714Y-87464568D01*
X204919087Y-87453619D01*
X204855122Y-87434230D01*
X204785814Y-87403338D01*
X204726932Y-87371574D01*
X204643591Y-87318598D01*
X204578185Y-87268163D01*
X204497083Y-87194892D01*
X204490538Y-87309150D01*
X204483992Y-87423408D01*
X204226124Y-87423408D01*
X203968256Y-87423408D01*
X203962019Y-86832461D01*
X203961075Y-86717579D01*
X203961089Y-86710529D01*
X204537715Y-86710529D01*
X204537980Y-86767943D01*
X204541249Y-86830274D01*
X204551517Y-86869558D01*
X204572778Y-86897960D01*
X204609030Y-86927646D01*
X204615586Y-86932513D01*
X204688754Y-86977112D01*
X204764825Y-87011411D01*
X204809338Y-87025617D01*
X204943930Y-87052141D01*
X205061863Y-87051115D01*
X205159092Y-87024944D01*
X205231574Y-86976033D01*
X205275263Y-86906787D01*
X205286114Y-86819610D01*
X205260084Y-86716910D01*
X205254814Y-86705298D01*
X205216406Y-86653355D01*
X205155839Y-86614371D01*
X205068016Y-86586622D01*
X204947839Y-86568383D01*
X204790211Y-86557928D01*
X204537715Y-86547807D01*
X204537715Y-86710529D01*
X203961089Y-86710529D01*
X203961510Y-86490482D01*
X203966117Y-86299688D01*
X203975711Y-86140662D01*
X203991108Y-86008868D01*
X204013123Y-85899770D01*
X204042572Y-85808832D01*
X204080270Y-85731519D01*
X204127033Y-85663294D01*
X204183676Y-85599623D01*
X204304253Y-85505337D01*
X204455931Y-85432372D01*
X204631576Y-85381948D01*
X204824308Y-85355026D01*
X205027249Y-85352566D01*
X205233522Y-85375526D01*
X205436247Y-85424866D01*
X205442349Y-85426798D01*
X205547504Y-85461777D01*
X205617674Y-85493495D01*
X205658776Y-85530540D01*
X205676729Y-85581500D01*
X205677450Y-85654963D01*
X205666857Y-85759515D01*
X205660045Y-85811878D01*
X205646904Y-85888373D01*
X205633670Y-85940232D01*
X205622375Y-85958375D01*
X205608401Y-85954562D01*
X205559337Y-85939154D01*
X205485695Y-85915020D01*
X205397275Y-85885340D01*
X205388600Y-85882407D01*
X205279446Y-85848306D01*
X205188103Y-85827813D01*
X205094419Y-85817493D01*
X204978239Y-85813911D01*
X204942510Y-85813663D01*
X204847430Y-85815208D01*
X204780764Y-85821623D01*
X204731377Y-85834504D01*
X204688138Y-85855442D01*
X204687242Y-85855966D01*
X204609504Y-85924706D01*
X204557033Y-86018535D01*
X204537760Y-86123324D01*
X204537739Y-86198535D01*
X204883197Y-86205725D01*
X204984595Y-86208663D01*
X205157931Y-86219325D01*
X205298817Y-86237548D01*
X205414030Y-86264721D01*
X205510344Y-86302232D01*
X205594537Y-86351470D01*
X205643357Y-86389568D01*
X205741345Y-86501941D01*
X205808763Y-86636462D01*
X205843421Y-86785418D01*
X205843357Y-86819610D01*
X205843131Y-86941092D01*
G37*
G36*
X197750525Y-86192380D02*
G01*
X197768424Y-86419907D01*
X197765744Y-86521852D01*
X197741932Y-86717019D01*
X197691448Y-86886113D01*
X197611822Y-87036091D01*
X197500582Y-87173911D01*
X197457857Y-87215366D01*
X197316066Y-87321145D01*
X197155318Y-87403657D01*
X196991652Y-87454075D01*
X196971868Y-87457607D01*
X196857836Y-87469536D01*
X196720582Y-87473950D01*
X196575808Y-87471078D01*
X196439216Y-87461148D01*
X196326506Y-87444390D01*
X196314654Y-87441825D01*
X196211884Y-87414503D01*
X196107952Y-87379315D01*
X196013621Y-87340625D01*
X195939656Y-87302797D01*
X195896820Y-87270195D01*
X195892140Y-87263160D01*
X195883949Y-87227844D01*
X195886091Y-87166794D01*
X195898639Y-87072038D01*
X195910306Y-86998948D01*
X195925636Y-86923341D01*
X195943360Y-86881301D01*
X195968660Y-86867499D01*
X196006719Y-86876605D01*
X196062721Y-86903289D01*
X196157306Y-86943718D01*
X196324311Y-86990936D01*
X196504100Y-87017896D01*
X196680068Y-87021420D01*
X196723685Y-87018276D01*
X196869023Y-86992985D01*
X196983958Y-86944957D01*
X197074633Y-86871865D01*
X197100141Y-86839888D01*
X197143552Y-86765060D01*
X197175829Y-86684875D01*
X197188476Y-86618261D01*
X197188302Y-86611929D01*
X197185217Y-86600983D01*
X197174775Y-86592417D01*
X197152522Y-86585938D01*
X197114006Y-86581257D01*
X197054774Y-86578080D01*
X196970374Y-86576117D01*
X196856354Y-86575076D01*
X196708261Y-86574665D01*
X196521643Y-86574593D01*
X196358708Y-86574485D01*
X196204321Y-86573942D01*
X196084530Y-86572713D01*
X195994818Y-86570548D01*
X195930670Y-86567200D01*
X195887567Y-86562419D01*
X195860994Y-86555955D01*
X195846433Y-86547561D01*
X195839367Y-86536987D01*
X195836159Y-86527274D01*
X195827316Y-86467038D01*
X195823475Y-86378507D01*
X195824194Y-86273025D01*
X195827906Y-86187791D01*
X196324133Y-86187791D01*
X196756305Y-86187791D01*
X196819298Y-86187816D01*
X196957458Y-86187542D01*
X197058861Y-86185300D01*
X197128013Y-86179235D01*
X197169421Y-86167492D01*
X197187591Y-86148214D01*
X197187029Y-86119547D01*
X197172242Y-86079636D01*
X197147736Y-86026623D01*
X197089501Y-85928704D01*
X197000113Y-85844717D01*
X196886830Y-85795530D01*
X196746988Y-85779500D01*
X196673908Y-85783538D01*
X196547655Y-85816072D01*
X196449533Y-85881020D01*
X196379839Y-85978145D01*
X196338870Y-86107207D01*
X196324133Y-86187791D01*
X195827906Y-86187791D01*
X195829032Y-86161934D01*
X195837547Y-86056576D01*
X195849297Y-85968295D01*
X195863841Y-85908434D01*
X195897353Y-85830028D01*
X195996013Y-85671370D01*
X196123818Y-85543921D01*
X196279832Y-85448323D01*
X196463118Y-85385216D01*
X196672740Y-85355240D01*
X196780141Y-85353112D01*
X196993038Y-85376469D01*
X197185052Y-85435771D01*
X197353860Y-85528759D01*
X197497136Y-85653172D01*
X197612556Y-85806753D01*
X197697794Y-85987242D01*
X197739172Y-86148214D01*
X197750525Y-86192380D01*
G37*
G36*
X205840038Y-80617957D02*
G01*
X205861711Y-80662005D01*
X205958697Y-80955219D01*
X205981651Y-81068088D01*
X206000894Y-81233035D01*
X206002541Y-81266809D01*
X206009625Y-81412112D01*
X206007661Y-81591415D01*
X206005338Y-81621378D01*
X205994822Y-81757043D01*
X205970928Y-81895090D01*
X205967191Y-81910032D01*
X205873663Y-82196431D01*
X205836680Y-82272469D01*
X205750963Y-82448704D01*
X205744290Y-82462423D01*
X205581078Y-82704498D01*
X205386034Y-82919141D01*
X205178081Y-83094802D01*
X204955061Y-83236671D01*
X204715364Y-83343255D01*
X204451759Y-83418420D01*
X204433948Y-83422138D01*
X204269152Y-83444485D01*
X204081584Y-83452689D01*
X203886983Y-83447133D01*
X203701088Y-83428199D01*
X203539636Y-83396268D01*
X203333702Y-83328342D01*
X203081603Y-83207014D01*
X202848096Y-83051241D01*
X202636877Y-82864858D01*
X202451641Y-82651703D01*
X202296087Y-82415616D01*
X202224477Y-82266048D01*
X203428409Y-82266048D01*
X203430869Y-82270226D01*
X203460839Y-82293883D01*
X203517206Y-82328486D01*
X203590576Y-82368121D01*
X203608659Y-82377151D01*
X203690335Y-82413530D01*
X203762050Y-82439067D01*
X203810025Y-82448704D01*
X203871556Y-82448704D01*
X203871556Y-82260635D01*
X204194100Y-82260635D01*
X204194650Y-82350025D01*
X204197769Y-82405286D01*
X204205426Y-82434490D01*
X204219593Y-82445707D01*
X204242241Y-82447008D01*
X204298584Y-82438095D01*
X204387163Y-82410745D01*
X204482236Y-82371009D01*
X204567573Y-82324975D01*
X204651154Y-82272469D01*
X204503106Y-82128288D01*
X204355058Y-81984107D01*
X204274693Y-82017633D01*
X204194328Y-82051158D01*
X204194109Y-82249931D01*
X204194100Y-82260635D01*
X203871556Y-82260635D01*
X203871556Y-82248539D01*
X203871556Y-82048373D01*
X203797214Y-82012922D01*
X203722871Y-81977471D01*
X203573516Y-82111015D01*
X203538039Y-82143467D01*
X203480442Y-82199913D01*
X203441582Y-82243249D01*
X203428409Y-82266048D01*
X202224477Y-82266048D01*
X202173910Y-82160432D01*
X202088806Y-81889990D01*
X202067062Y-81784674D01*
X202049268Y-81610633D01*
X202985848Y-81610633D01*
X203000420Y-81669728D01*
X203011718Y-81706205D01*
X203037634Y-81775282D01*
X203069642Y-81851248D01*
X203102365Y-81922393D01*
X203138735Y-81985914D01*
X203173351Y-82013416D01*
X203213951Y-82006019D01*
X203268274Y-81964845D01*
X203344059Y-81891015D01*
X203368624Y-81866226D01*
X203427292Y-81805528D01*
X203461579Y-81764405D01*
X203476061Y-81734674D01*
X203475749Y-81723620D01*
X204576518Y-81723620D01*
X204577597Y-81734674D01*
X204579116Y-81750226D01*
X204598398Y-81782091D01*
X204638866Y-81827656D01*
X204705027Y-81895363D01*
X204741398Y-81931841D01*
X204798791Y-81987666D01*
X204840664Y-82026103D01*
X204859825Y-82040413D01*
X204882792Y-82022200D01*
X204915244Y-81973282D01*
X204952304Y-81903751D01*
X204989310Y-81823700D01*
X205021599Y-81743225D01*
X205044510Y-81672419D01*
X205053378Y-81621378D01*
X205050208Y-81617081D01*
X205014193Y-81609021D01*
X204941616Y-81605468D01*
X204836955Y-81606724D01*
X204620366Y-81613559D01*
X204591134Y-81681935D01*
X204586098Y-81693832D01*
X204576518Y-81723620D01*
X203475749Y-81723620D01*
X203475313Y-81708152D01*
X203463909Y-81676657D01*
X203436562Y-81610633D01*
X203211205Y-81610633D01*
X202985848Y-81610633D01*
X202049268Y-81610633D01*
X202038229Y-81502659D01*
X202048386Y-81266809D01*
X202995033Y-81266809D01*
X203213693Y-81266809D01*
X203432353Y-81266809D01*
X203458650Y-81197141D01*
X203461492Y-81189568D01*
X203469374Y-81163105D01*
X204589735Y-81163105D01*
X204593766Y-81197869D01*
X204607554Y-81266809D01*
X204840089Y-81266809D01*
X205072623Y-81266809D01*
X205039712Y-81153992D01*
X205021456Y-81099840D01*
X204987645Y-81018971D01*
X204949525Y-80942277D01*
X204913265Y-80881889D01*
X204885037Y-80849936D01*
X204875797Y-80851992D01*
X204840562Y-80876613D01*
X204787409Y-80922685D01*
X204723767Y-80984031D01*
X204665060Y-81044136D01*
X204620181Y-81094792D01*
X204596807Y-81131597D01*
X204590953Y-81157678D01*
X204589735Y-81163105D01*
X203469374Y-81163105D01*
X203470990Y-81157678D01*
X203468680Y-81130523D01*
X203449712Y-81099532D01*
X203409234Y-81056135D01*
X203342395Y-80991762D01*
X203309470Y-80961275D01*
X203248113Y-80909239D01*
X203200603Y-80875249D01*
X203175171Y-80865519D01*
X203164269Y-80873972D01*
X203134524Y-80915073D01*
X203098617Y-80978912D01*
X203062379Y-81053855D01*
X203031642Y-81128272D01*
X203012236Y-81190531D01*
X202995033Y-81266809D01*
X202048386Y-81266809D01*
X202050399Y-81220079D01*
X202102525Y-80941426D01*
X202193563Y-80671195D01*
X202219104Y-80620210D01*
X203409542Y-80620210D01*
X203548600Y-80760853D01*
X203581116Y-80793392D01*
X203638440Y-80848887D01*
X203680625Y-80887203D01*
X203700288Y-80901496D01*
X203717798Y-80894306D01*
X203754631Y-80869946D01*
X203787413Y-80850795D01*
X203833950Y-80837713D01*
X203846878Y-80835434D01*
X203859785Y-80821395D01*
X203860943Y-80816172D01*
X204193891Y-80816172D01*
X204263730Y-80858754D01*
X204275927Y-80866088D01*
X204320746Y-80891090D01*
X204344314Y-80901034D01*
X204351484Y-80896554D01*
X204384199Y-80868562D01*
X204436107Y-80820610D01*
X204499908Y-80759345D01*
X204644757Y-80617957D01*
X204596608Y-80577932D01*
X204580615Y-80566251D01*
X204520243Y-80532184D01*
X204441692Y-80495611D01*
X204358930Y-80462319D01*
X204285924Y-80438098D01*
X204236643Y-80428738D01*
X204219890Y-80430611D01*
X204205811Y-80442708D01*
X204197987Y-80473268D01*
X204194614Y-80530461D01*
X204193891Y-80622455D01*
X204193891Y-80816172D01*
X203860943Y-80816172D01*
X203867262Y-80787685D01*
X203870717Y-80726540D01*
X203871556Y-80630198D01*
X203871556Y-80423366D01*
X203811906Y-80435296D01*
X203781750Y-80442351D01*
X203695373Y-80469475D01*
X203602890Y-80505555D01*
X203520216Y-80544056D01*
X203463265Y-80578443D01*
X203409542Y-80620210D01*
X202219104Y-80620210D01*
X202322465Y-80413881D01*
X202488186Y-80173979D01*
X202502439Y-80156358D01*
X202698612Y-79947248D01*
X202915871Y-79771134D01*
X203150285Y-79628608D01*
X203397926Y-79520265D01*
X203654863Y-79446698D01*
X203917167Y-79408499D01*
X204180908Y-79406263D01*
X204442157Y-79440582D01*
X204696983Y-79512051D01*
X204941458Y-79621261D01*
X205171651Y-79768808D01*
X205358734Y-79926511D01*
X205560997Y-80146548D01*
X205728900Y-80392081D01*
X205744293Y-80423366D01*
X205840038Y-80617957D01*
G37*
G36*
X205017066Y-78646361D02*
G01*
X205028121Y-78710347D01*
X205031962Y-78735934D01*
X205037755Y-78742843D01*
X205074062Y-78766192D01*
X205136315Y-78799481D01*
X205215910Y-78837940D01*
X205285806Y-78871645D01*
X205438659Y-78954883D01*
X205582848Y-79045707D01*
X205712128Y-79139401D01*
X205820253Y-79231250D01*
X205900977Y-79316541D01*
X205948053Y-79390558D01*
X205966441Y-79470255D01*
X205950278Y-79561341D01*
X205894566Y-79640744D01*
X205863466Y-79665928D01*
X205790387Y-79696229D01*
X205694152Y-79700491D01*
X205675132Y-79693541D01*
X205625389Y-79664802D01*
X205557128Y-79619097D01*
X205479262Y-79562164D01*
X205441394Y-79533794D01*
X205178782Y-79361655D01*
X204912050Y-79230723D01*
X204636711Y-79139459D01*
X204348277Y-79086328D01*
X204042262Y-79069790D01*
X203913375Y-79073450D01*
X203596413Y-79110441D01*
X203295971Y-79185721D01*
X203014267Y-79297471D01*
X202753519Y-79443869D01*
X202515946Y-79623097D01*
X202303766Y-79833333D01*
X202119197Y-80072758D01*
X201964457Y-80339552D01*
X201841764Y-80631893D01*
X201753337Y-80947964D01*
X201751595Y-80956365D01*
X201737871Y-81043064D01*
X201724961Y-81157114D01*
X201714244Y-81284663D01*
X201707102Y-81411860D01*
X201694854Y-81718078D01*
X200862886Y-81718078D01*
X200030917Y-81718078D01*
X200005812Y-81494965D01*
X200001612Y-81459332D01*
X199960294Y-81214063D01*
X199899195Y-80996486D01*
X199815438Y-80796035D01*
X199779395Y-80726336D01*
X199629995Y-80492817D01*
X199450879Y-80284622D01*
X199246292Y-80105112D01*
X199020483Y-79957649D01*
X198777697Y-79845596D01*
X198522182Y-79772313D01*
X198478821Y-79764556D01*
X198321548Y-79748349D01*
X198144762Y-79744269D01*
X197963779Y-79751832D01*
X197793916Y-79770551D01*
X197650490Y-79799941D01*
X197645967Y-79801190D01*
X197567570Y-79822848D01*
X197503711Y-79840486D01*
X197467833Y-79850390D01*
X197458516Y-79850293D01*
X197448434Y-79837475D01*
X197441189Y-79804662D01*
X197436098Y-79746109D01*
X197432480Y-79656070D01*
X197429653Y-79528800D01*
X197429526Y-79521724D01*
X197427807Y-79394604D01*
X197428382Y-79303313D01*
X201356040Y-79303313D01*
X201362063Y-79592041D01*
X201368087Y-79880769D01*
X201519344Y-79886991D01*
X201670602Y-79893213D01*
X201780212Y-79736568D01*
X201842741Y-79651049D01*
X202025206Y-79435526D01*
X202228475Y-79237722D01*
X202445224Y-79063742D01*
X202668132Y-78919688D01*
X202889877Y-78811662D01*
X202935345Y-78792559D01*
X202991682Y-78766243D01*
X203022339Y-78748312D01*
X203025825Y-78737290D01*
X203030978Y-78686051D01*
X203035351Y-78595741D01*
X203038884Y-78468790D01*
X203041515Y-78307625D01*
X203043183Y-78114673D01*
X203043828Y-77892363D01*
X203043847Y-77852357D01*
X203484754Y-77852357D01*
X203484835Y-78043593D01*
X203485226Y-78213746D01*
X203486117Y-78348536D01*
X203487698Y-78451928D01*
X203490161Y-78527887D01*
X203493695Y-78580379D01*
X203498491Y-78613369D01*
X203504741Y-78630822D01*
X203512633Y-78636704D01*
X203522360Y-78634980D01*
X203532605Y-78632461D01*
X203582860Y-78626274D01*
X203663644Y-78619916D01*
X203766332Y-78614007D01*
X203882300Y-78609164D01*
X203914031Y-78608193D01*
X204044615Y-78606336D01*
X204171700Y-78607519D01*
X204282148Y-78611500D01*
X204362820Y-78618035D01*
X204521004Y-78637953D01*
X204509394Y-78550224D01*
X204503448Y-78512044D01*
X204489181Y-78429628D01*
X204467605Y-78309857D01*
X204439207Y-78155367D01*
X204404478Y-77968798D01*
X204363907Y-77752787D01*
X204317981Y-77509973D01*
X204267189Y-77242994D01*
X204231324Y-77054965D01*
X203858039Y-77054965D01*
X203484754Y-77054965D01*
X203484754Y-77852357D01*
X203043847Y-77852357D01*
X203044229Y-77054965D01*
X202602275Y-77054965D01*
X202160320Y-77054965D01*
X202018937Y-77447139D01*
X201996964Y-77508172D01*
X201947961Y-77644637D01*
X201889221Y-77808557D01*
X201823739Y-77991557D01*
X201754511Y-78185266D01*
X201684532Y-78381309D01*
X201616797Y-78571313D01*
X201356040Y-79303313D01*
X197428382Y-79303313D01*
X197428392Y-79301646D01*
X197432070Y-79234463D01*
X197439627Y-79184666D01*
X197451849Y-79143865D01*
X197469524Y-79103673D01*
X197471467Y-79099686D01*
X197499296Y-79050104D01*
X197532258Y-79010380D01*
X197575748Y-78978691D01*
X197635156Y-78953213D01*
X197715874Y-78932121D01*
X197823296Y-78913592D01*
X197962813Y-78895800D01*
X198139816Y-78876923D01*
X198187719Y-78871950D01*
X198319165Y-78857039D01*
X198433791Y-78842211D01*
X198525102Y-78828420D01*
X198586601Y-78816616D01*
X198611794Y-78807751D01*
X198616976Y-78786853D01*
X198621822Y-78728017D01*
X198624688Y-78640621D01*
X198625593Y-78532728D01*
X198624557Y-78412402D01*
X198621598Y-78287707D01*
X198616737Y-78166708D01*
X198609992Y-78057467D01*
X198609965Y-78057104D01*
X198597467Y-77945909D01*
X198576274Y-77869779D01*
X198540727Y-77820928D01*
X198485170Y-77791572D01*
X198403945Y-77773924D01*
X198389605Y-77771583D01*
X198342681Y-77757948D01*
X198312096Y-77732062D01*
X198294454Y-77686266D01*
X198286359Y-77612900D01*
X198284415Y-77504304D01*
X198287209Y-77441037D01*
X198303621Y-77380965D01*
X198340813Y-77347832D01*
X198405628Y-77336607D01*
X198504910Y-77342262D01*
X198658164Y-77373469D01*
X198806809Y-77440377D01*
X198929356Y-77539090D01*
X199022297Y-77667402D01*
X199036007Y-77694573D01*
X199047508Y-77725074D01*
X199055954Y-77762492D01*
X199061815Y-77812837D01*
X199065557Y-77882119D01*
X199067651Y-77976349D01*
X199068564Y-78101535D01*
X199068764Y-78263689D01*
X199068772Y-78294436D01*
X199069204Y-78450696D01*
X199070518Y-78569645D01*
X199073018Y-78656119D01*
X199077011Y-78714955D01*
X199082801Y-78750991D01*
X199090695Y-78769064D01*
X199100998Y-78774010D01*
X199108780Y-78773671D01*
X199155048Y-78769918D01*
X199232182Y-78762669D01*
X199331626Y-78752748D01*
X199444822Y-78740975D01*
X199513436Y-78733717D01*
X199661970Y-78718067D01*
X199828749Y-78700553D01*
X199998003Y-78682832D01*
X200153959Y-78666558D01*
X200339530Y-78647166D01*
X200524317Y-78627620D01*
X200673618Y-78611466D01*
X200791388Y-78598228D01*
X200881582Y-78587429D01*
X200948156Y-78578592D01*
X200995067Y-78571241D01*
X201026268Y-78564900D01*
X201045716Y-78559090D01*
X201052233Y-78556058D01*
X201062692Y-78547883D01*
X201074460Y-78532862D01*
X201088743Y-78507943D01*
X201106747Y-78470072D01*
X201129678Y-78416197D01*
X201158743Y-78343263D01*
X201195147Y-78248217D01*
X201240096Y-78128007D01*
X201294797Y-77979579D01*
X201360455Y-77799880D01*
X201438277Y-77585856D01*
X201529469Y-77334455D01*
X201535959Y-77316576D01*
X201585030Y-77182942D01*
X201632157Y-77057073D01*
X201674216Y-76947148D01*
X201708084Y-76861345D01*
X201730635Y-76807844D01*
X201764642Y-76744401D01*
X201830516Y-76653763D01*
X201904013Y-76580895D01*
X201974703Y-76537357D01*
X201976718Y-76536791D01*
X202013601Y-76533288D01*
X202089499Y-76530022D01*
X202200981Y-76527042D01*
X202344620Y-76524393D01*
X202516988Y-76522121D01*
X202714655Y-76520274D01*
X202934194Y-76518897D01*
X203172175Y-76518037D01*
X203425170Y-76517740D01*
X204824041Y-76517740D01*
X204917137Y-76572298D01*
X204925987Y-76577632D01*
X205009824Y-76648491D01*
X205059801Y-76730677D01*
X205077088Y-76816711D01*
X205062850Y-76899111D01*
X205018254Y-76970399D01*
X204944467Y-77023094D01*
X204842657Y-77049715D01*
X204800120Y-77055119D01*
X204750466Y-77066176D01*
X204731116Y-77077757D01*
X204731539Y-77082159D01*
X204737603Y-77120623D01*
X204749747Y-77190506D01*
X204766535Y-77283672D01*
X204786533Y-77391986D01*
X204796651Y-77446219D01*
X204838549Y-77671355D01*
X204878147Y-77885003D01*
X204914743Y-78083317D01*
X204947635Y-78262454D01*
X204976120Y-78418570D01*
X204999498Y-78547820D01*
X205015567Y-78637953D01*
X205017066Y-78646361D01*
G37*
%LPC*%
D13*
X176460000Y-90530000D03*
D14*
X192660000Y-60400000D03*
D15*
X192660000Y-52780000D03*
D13*
X180690000Y-77110000D03*
D16*
X186290000Y-81070000D03*
D17*
X186290000Y-83610000D03*
X186290000Y-86150000D03*
D18*
X237120000Y-93810000D03*
D19*
X237120000Y-78570000D03*
D20*
X161100000Y-44620000D03*
D13*
X159210000Y-74180000D03*
D21*
X159210000Y-71640000D03*
X159210000Y-69100000D03*
D22*
X163120000Y-76440000D03*
D15*
X163120000Y-66280000D03*
D13*
X212550000Y-71870000D03*
D21*
X210010000Y-71870000D03*
X207470000Y-71870000D03*
D14*
X213310000Y-68820000D03*
D15*
X205690000Y-68820000D03*
D23*
X247160000Y-74270000D03*
D24*
X234460000Y-74270000D03*
D25*
X244730000Y-86210000D03*
D26*
X244730000Y-81130000D03*
D13*
X216340000Y-69570000D03*
D21*
X218880000Y-69570000D03*
X221420000Y-69570000D03*
X223960000Y-69570000D03*
X226500000Y-69570000D03*
X229040000Y-69570000D03*
D14*
X186269513Y-93116400D03*
D22*
X183769513Y-93116400D03*
D20*
X186900000Y-67620000D03*
D13*
X175370000Y-70880000D03*
D21*
X177910000Y-70880000D03*
D20*
X244900000Y-44620000D03*
D22*
X176060000Y-85100000D03*
D15*
X176060000Y-74940000D03*
D13*
X192020000Y-63315000D03*
D21*
X192020000Y-65855000D03*
X192020000Y-68395000D03*
D20*
X161100000Y-92800000D03*
D27*
X169950000Y-75270000D03*
D28*
X169950000Y-76540000D03*
X169950000Y-77810000D03*
D13*
X162820000Y-62925000D03*
D21*
X162820000Y-60385000D03*
D13*
X166630000Y-63521200D03*
D21*
X169170000Y-63521200D03*
X171710000Y-63521200D03*
X174250000Y-63521200D03*
X176790000Y-63521200D03*
X179330000Y-63521200D03*
X181870000Y-63521200D03*
D13*
X186425000Y-49860000D03*
D21*
X188965000Y-49860000D03*
D13*
X169970000Y-88020000D03*
D20*
X244900000Y-67620000D03*
X244900000Y-92800000D03*
D22*
X186790000Y-52830000D03*
D15*
X186790000Y-62990000D03*
D22*
X182330000Y-86150000D03*
X182330000Y-81150000D03*
D29*
X231490000Y-92700000D03*
X191940000Y-92700000D03*
X231490000Y-75200000D03*
X191940000Y-75200000D03*
D20*
X186900000Y-44620000D03*
D13*
X191770000Y-45890000D03*
D21*
X191770000Y-43350000D03*
X194310000Y-45890000D03*
X194310000Y-43350000D03*
X196850000Y-45890000D03*
X196850000Y-43350000D03*
X199390000Y-45890000D03*
X199390000Y-43350000D03*
X201930000Y-45890000D03*
X201930000Y-43350000D03*
X204470000Y-45890000D03*
X204470000Y-43350000D03*
X207010000Y-45890000D03*
X207010000Y-43350000D03*
X209550000Y-45890000D03*
X209550000Y-43350000D03*
X212090000Y-45890000D03*
X212090000Y-43350000D03*
X214630000Y-45890000D03*
X214630000Y-43350000D03*
X217170000Y-45890000D03*
X217170000Y-43350000D03*
X219710000Y-45890000D03*
X219710000Y-43350000D03*
X222250000Y-45890000D03*
X222250000Y-43350000D03*
X224790000Y-45890000D03*
X224790000Y-43350000D03*
X227330000Y-45890000D03*
X227330000Y-43350000D03*
X229870000Y-45890000D03*
X229870000Y-43350000D03*
X232410000Y-45890000D03*
X232410000Y-43350000D03*
X234950000Y-45890000D03*
X234950000Y-43350000D03*
X237490000Y-45890000D03*
X237490000Y-43350000D03*
X240030000Y-45890000D03*
X240030000Y-43350000D03*
D13*
X243179600Y-50038000D03*
D21*
X245719600Y-50038000D03*
X243179600Y-52578000D03*
X245719600Y-52578000D03*
D22*
X201560000Y-71970000D03*
D15*
X191400000Y-71970000D03*
D14*
X198120000Y-66040000D03*
D15*
X200660000Y-66040000D03*
X203200000Y-66040000D03*
X205740000Y-66040000D03*
X208280000Y-66040000D03*
X210820000Y-66040000D03*
X213360000Y-66040000D03*
X215900000Y-66040000D03*
X218440000Y-66040000D03*
X220980000Y-66040000D03*
X223520000Y-66040000D03*
X226060000Y-66040000D03*
X228600000Y-66040000D03*
X231140000Y-66040000D03*
X233680000Y-66040000D03*
X233680000Y-50800000D03*
X231140000Y-50800000D03*
X228600000Y-50800000D03*
X226060000Y-50800000D03*
X223520000Y-50800000D03*
X220980000Y-50800000D03*
X218440000Y-50800000D03*
X215900000Y-50800000D03*
X213360000Y-50800000D03*
X210820000Y-50800000D03*
X208280000Y-50800000D03*
X205740000Y-50800000D03*
X203200000Y-50800000D03*
X200660000Y-50800000D03*
X198120000Y-50800000D03*
%LPD*%
M02*
