G04 #@! TF.GenerationSoftware,KiCad,Pcbnew,7.0.11+dfsg-1build4*
G04 #@! TF.CreationDate,2025-04-23T22:41:42-04:00*
G04 #@! TF.ProjectId,trackteur_arduino_V1,74726163-6b74-4657-9572-5f6172647569,rev?*
G04 #@! TF.SameCoordinates,Original*
G04 #@! TF.FileFunction,Copper,L2,Bot*
G04 #@! TF.FilePolarity,Positive*
%FSLAX46Y46*%
G04 Gerber Fmt 4.6, Leading zero omitted, Abs format (unit mm)*
G04 Created by KiCad (PCBNEW 7.0.11+dfsg-1build4) date 2025-04-23 22:41:42*
%MOMM*%
%LPD*%
G01*
G04 APERTURE LIST*
G04 #@! TA.AperFunction,ComponentPad*
%ADD10R,1.700000X1.700000*%
G04 #@! TD*
G04 #@! TA.AperFunction,ComponentPad*
%ADD11R,1.600000X1.600000*%
G04 #@! TD*
G04 #@! TA.AperFunction,ComponentPad*
%ADD12O,1.600000X1.600000*%
G04 #@! TD*
G04 #@! TA.AperFunction,ComponentPad*
%ADD13R,2.000000X1.905000*%
G04 #@! TD*
G04 #@! TA.AperFunction,ComponentPad*
%ADD14O,2.000000X1.905000*%
G04 #@! TD*
G04 #@! TA.AperFunction,ComponentPad*
%ADD15R,3.200000X3.200000*%
G04 #@! TD*
G04 #@! TA.AperFunction,ComponentPad*
%ADD16O,3.200000X3.200000*%
G04 #@! TD*
G04 #@! TA.AperFunction,ComponentPad*
%ADD17O,1.700000X1.700000*%
G04 #@! TD*
G04 #@! TA.AperFunction,ComponentPad*
%ADD18C,1.600000*%
G04 #@! TD*
G04 #@! TA.AperFunction,ComponentPad*
%ADD19R,2.400000X2.400000*%
G04 #@! TD*
G04 #@! TA.AperFunction,ComponentPad*
%ADD20O,2.400000X2.400000*%
G04 #@! TD*
G04 #@! TA.AperFunction,ComponentPad*
%ADD21R,1.650000X1.650000*%
G04 #@! TD*
G04 #@! TA.AperFunction,ComponentPad*
%ADD22C,1.650000*%
G04 #@! TD*
G04 #@! TA.AperFunction,ComponentPad*
%ADD23R,1.500000X1.050000*%
G04 #@! TD*
G04 #@! TA.AperFunction,ComponentPad*
%ADD24O,1.500000X1.050000*%
G04 #@! TD*
G04 #@! TA.AperFunction,ComponentPad*
%ADD25R,3.000000X3.000000*%
G04 #@! TD*
G04 #@! TA.AperFunction,ViaPad*
%ADD26C,0.600000*%
G04 #@! TD*
G04 #@! TA.AperFunction,Conductor*
%ADD27C,1.000000*%
G04 #@! TD*
G04 #@! TA.AperFunction,Conductor*
%ADD28C,0.600000*%
G04 #@! TD*
G04 #@! TA.AperFunction,Conductor*
%ADD29C,0.400000*%
G04 #@! TD*
G04 #@! TA.AperFunction,Conductor*
%ADD30C,0.500000*%
G04 #@! TD*
G04 APERTURE END LIST*
D10*
X176460000Y-90530000D03*
D11*
X192660000Y-60400000D03*
D12*
X192660000Y-52780000D03*
D10*
X180690000Y-77110000D03*
D13*
X186290000Y-81070000D03*
D14*
X186290000Y-83610000D03*
X186290000Y-86150000D03*
D15*
X237120000Y-93810000D03*
D16*
X237120000Y-78570000D03*
D10*
X159210000Y-74180000D03*
D17*
X159210000Y-71640000D03*
X159210000Y-69100000D03*
D18*
X163120000Y-76440000D03*
D12*
X163120000Y-66280000D03*
D10*
X212550000Y-71870000D03*
D17*
X210010000Y-71870000D03*
X207470000Y-71870000D03*
D11*
X213310000Y-68820000D03*
D12*
X205690000Y-68820000D03*
D19*
X247160000Y-74270000D03*
D20*
X234460000Y-74270000D03*
D21*
X244730000Y-86210000D03*
D22*
X244730000Y-81130000D03*
D10*
X216340000Y-69570000D03*
D17*
X218880000Y-69570000D03*
X221420000Y-69570000D03*
X223960000Y-69570000D03*
X226500000Y-69570000D03*
X229040000Y-69570000D03*
D11*
X186269513Y-93116400D03*
D18*
X183769513Y-93116400D03*
D10*
X175370000Y-70880000D03*
D17*
X177910000Y-70880000D03*
D18*
X176060000Y-85100000D03*
D12*
X176060000Y-74940000D03*
D10*
X192020000Y-63315000D03*
D17*
X192020000Y-65855000D03*
X192020000Y-68395000D03*
D23*
X169950000Y-75270000D03*
D24*
X169950000Y-76540000D03*
X169950000Y-77810000D03*
D10*
X162820000Y-62925000D03*
D17*
X162820000Y-60385000D03*
D10*
X166630000Y-63521200D03*
D17*
X169170000Y-63521200D03*
X171710000Y-63521200D03*
X174250000Y-63521200D03*
X176790000Y-63521200D03*
X179330000Y-63521200D03*
X181870000Y-63521200D03*
D10*
X186425000Y-49860000D03*
D17*
X188965000Y-49860000D03*
D10*
X169970000Y-88020000D03*
D18*
X186790000Y-52830000D03*
D12*
X186790000Y-62990000D03*
D18*
X182330000Y-86150000D03*
X182330000Y-81150000D03*
D25*
X231490000Y-92700000D03*
X191940000Y-92700000D03*
X231490000Y-75200000D03*
X191940000Y-75200000D03*
D10*
X191770000Y-45890000D03*
D17*
X191770000Y-43350000D03*
X194310000Y-45890000D03*
X194310000Y-43350000D03*
X196850000Y-45890000D03*
X196850000Y-43350000D03*
X199390000Y-45890000D03*
X199390000Y-43350000D03*
X201930000Y-45890000D03*
X201930000Y-43350000D03*
X204470000Y-45890000D03*
X204470000Y-43350000D03*
X207010000Y-45890000D03*
X207010000Y-43350000D03*
X209550000Y-45890000D03*
X209550000Y-43350000D03*
X212090000Y-45890000D03*
X212090000Y-43350000D03*
X214630000Y-45890000D03*
X214630000Y-43350000D03*
X217170000Y-45890000D03*
X217170000Y-43350000D03*
X219710000Y-45890000D03*
X219710000Y-43350000D03*
X222250000Y-45890000D03*
X222250000Y-43350000D03*
X224790000Y-45890000D03*
X224790000Y-43350000D03*
X227330000Y-45890000D03*
X227330000Y-43350000D03*
X229870000Y-45890000D03*
X229870000Y-43350000D03*
X232410000Y-45890000D03*
X232410000Y-43350000D03*
X234950000Y-45890000D03*
X234950000Y-43350000D03*
X237490000Y-45890000D03*
X237490000Y-43350000D03*
X240030000Y-45890000D03*
X240030000Y-43350000D03*
D10*
X243179600Y-50038000D03*
D17*
X245719600Y-50038000D03*
X243179600Y-52578000D03*
X245719600Y-52578000D03*
D18*
X201560000Y-71970000D03*
D12*
X191400000Y-71970000D03*
D11*
X198120000Y-66040000D03*
D12*
X200660000Y-66040000D03*
X203200000Y-66040000D03*
X205740000Y-66040000D03*
X208280000Y-66040000D03*
X210820000Y-66040000D03*
X213360000Y-66040000D03*
X215900000Y-66040000D03*
X218440000Y-66040000D03*
X220980000Y-66040000D03*
X223520000Y-66040000D03*
X226060000Y-66040000D03*
X228600000Y-66040000D03*
X231140000Y-66040000D03*
X233680000Y-66040000D03*
X233680000Y-50800000D03*
X231140000Y-50800000D03*
X228600000Y-50800000D03*
X226060000Y-50800000D03*
X223520000Y-50800000D03*
X220980000Y-50800000D03*
X218440000Y-50800000D03*
X215900000Y-50800000D03*
X213360000Y-50800000D03*
X210820000Y-50800000D03*
X208280000Y-50800000D03*
X205740000Y-50800000D03*
X203200000Y-50800000D03*
X200660000Y-50800000D03*
X198120000Y-50800000D03*
D26*
X200690000Y-49060000D03*
X176550000Y-93010000D03*
X176090000Y-81070000D03*
X186250000Y-75220000D03*
X181810000Y-75240000D03*
X197770000Y-75115000D03*
X197770000Y-68865000D03*
X205745000Y-52940000D03*
X226450000Y-75075000D03*
X190945000Y-48390000D03*
X198995000Y-48390000D03*
X169170000Y-58040000D03*
X223545000Y-58040000D03*
X179345000Y-54440000D03*
X226045000Y-54440000D03*
X231120000Y-57165000D03*
X171595000Y-57165000D03*
X176800000Y-56190000D03*
X233650000Y-56190000D03*
X233650000Y-55365000D03*
X174300000Y-55375000D03*
X194110000Y-51150000D03*
X166550000Y-41620000D03*
X223800000Y-92800000D03*
X166630000Y-77830000D03*
X166550000Y-51450000D03*
X186269513Y-88070000D03*
X183470000Y-69270000D03*
X202590000Y-70130000D03*
X183010000Y-71600000D03*
X184195000Y-71240000D03*
X182380000Y-83590000D03*
X184245000Y-77140000D03*
X180480000Y-83590000D03*
X241430000Y-61420000D03*
X239040000Y-50240000D03*
X239690000Y-48510000D03*
X237260000Y-81110000D03*
X231390000Y-86150000D03*
D27*
X200995000Y-51135000D02*
X200660000Y-50800000D01*
D28*
X214630000Y-43350000D02*
X214630000Y-42420000D01*
D27*
X183516400Y-93116400D02*
X183500000Y-93100000D01*
X197770000Y-68865000D02*
X198305000Y-68330000D01*
D29*
X222250000Y-49030000D02*
X236890000Y-49030000D01*
D27*
X191940000Y-75200000D02*
X192025000Y-75115000D01*
X186290000Y-81070000D02*
X182410000Y-81070000D01*
D28*
X196850000Y-43350000D02*
X196850000Y-42240000D01*
X207010000Y-43350000D02*
X207010000Y-41630000D01*
X227330000Y-43350000D02*
X227330000Y-42370000D01*
X241770000Y-41645000D02*
X241795000Y-41620000D01*
D27*
X192025000Y-75115000D02*
X197770000Y-75115000D01*
D28*
X232410000Y-42270000D02*
X233060000Y-41620000D01*
X241795000Y-41620000D02*
X233060000Y-41620000D01*
D27*
X183500000Y-93100000D02*
X176640000Y-93100000D01*
D28*
X197470000Y-41620000D02*
X207000000Y-41620000D01*
D27*
X205720000Y-52915000D02*
X200995000Y-52915000D01*
X181830000Y-75220000D02*
X181810000Y-75240000D01*
X226410000Y-75115000D02*
X226450000Y-75075000D01*
X203520000Y-68330000D02*
X205740000Y-66110000D01*
D29*
X222250000Y-45890000D02*
X222250000Y-49030000D01*
D27*
X176640000Y-93100000D02*
X176550000Y-93010000D01*
D28*
X196850000Y-42240000D02*
X197470000Y-41620000D01*
D27*
X201920000Y-49060000D02*
X222220000Y-49060000D01*
D29*
X236890000Y-49030000D02*
X240030000Y-45890000D01*
D28*
X227330000Y-42370000D02*
X228080000Y-41620000D01*
D27*
X201930000Y-49050000D02*
X201920000Y-49060000D01*
X200995000Y-52915000D02*
X200995000Y-51135000D01*
X201930000Y-45890000D02*
X201930000Y-49050000D01*
D28*
X207010000Y-41630000D02*
X207020000Y-41620000D01*
X240055000Y-45865000D02*
X241770000Y-45865000D01*
D27*
X183769513Y-93116400D02*
X183516400Y-93116400D01*
X198305000Y-68330000D02*
X203520000Y-68330000D01*
X186250000Y-75220000D02*
X191920000Y-75220000D01*
D28*
X240030000Y-45890000D02*
X240055000Y-45865000D01*
X228080000Y-41620000D02*
X215430000Y-41620000D01*
D27*
X222220000Y-49060000D02*
X222250000Y-49030000D01*
X191920000Y-75220000D02*
X191940000Y-75200000D01*
X182250000Y-81070000D02*
X176090000Y-81070000D01*
D28*
X215430000Y-41620000D02*
X207020000Y-41620000D01*
D27*
X200690000Y-49060000D02*
X201920000Y-49060000D01*
X182330000Y-81150000D02*
X182250000Y-81070000D01*
D28*
X207000000Y-41620000D02*
X207010000Y-41630000D01*
D27*
X182410000Y-81070000D02*
X182330000Y-81150000D01*
D28*
X241770000Y-45865000D02*
X241770000Y-41645000D01*
X233060000Y-41620000D02*
X228080000Y-41620000D01*
D27*
X197770000Y-75115000D02*
X226410000Y-75115000D01*
D28*
X232410000Y-43350000D02*
X232410000Y-42270000D01*
D27*
X186250000Y-75220000D02*
X181830000Y-75220000D01*
X205745000Y-52940000D02*
X205720000Y-52915000D01*
D28*
X214630000Y-42420000D02*
X215430000Y-41620000D01*
D27*
X205740000Y-66110000D02*
X205740000Y-66040000D01*
X190945000Y-48390000D02*
X198995000Y-48390000D01*
D28*
X159210000Y-71640000D02*
X171370000Y-71640000D01*
X171370000Y-71640000D02*
X172830000Y-73100000D01*
D29*
X172830000Y-73100000D02*
X172950000Y-73220000D01*
X172950000Y-73220000D02*
X203640000Y-73220000D01*
X203640000Y-73220000D02*
X203760000Y-73100000D01*
D28*
X203760000Y-73100000D02*
X210820000Y-66040000D01*
X210010000Y-69390000D02*
X210010000Y-71870000D01*
X213360000Y-66040000D02*
X210010000Y-69390000D01*
X169170000Y-58040000D02*
X223545000Y-58040000D01*
X179345000Y-54440000D02*
X179425000Y-54520000D01*
X225965000Y-54520000D02*
X226045000Y-54440000D01*
X179425000Y-54520000D02*
X225965000Y-54520000D01*
X226045000Y-54440000D02*
X233270000Y-54440000D01*
X231045000Y-57090000D02*
X231120000Y-57165000D01*
X171670000Y-57090000D02*
X231045000Y-57090000D01*
X171595000Y-57165000D02*
X171670000Y-57090000D01*
X176800000Y-56190000D02*
X233650000Y-56190000D01*
X174310000Y-55365000D02*
X174300000Y-55375000D01*
X176770000Y-55365000D02*
X174310000Y-55365000D01*
X176770000Y-55365000D02*
X233650000Y-55365000D01*
D30*
X190110000Y-51150000D02*
X189810000Y-51450000D01*
D27*
X191940000Y-92700000D02*
X223700000Y-92700000D01*
X186685913Y-92700000D02*
X186269513Y-93116400D01*
D28*
X194310000Y-42470000D02*
X193460000Y-41620000D01*
D27*
X186270000Y-88020000D02*
X169970000Y-88020000D01*
D30*
X194110000Y-51150000D02*
X190110000Y-51150000D01*
D27*
X223700000Y-92700000D02*
X223800000Y-92800000D01*
X169950000Y-77810000D02*
X166650000Y-77810000D01*
X186269513Y-88070000D02*
X186320000Y-88070000D01*
X191940000Y-92700000D02*
X186685913Y-92700000D01*
D28*
X193460000Y-41620000D02*
X166550000Y-41620000D01*
D27*
X186320000Y-88070000D02*
X186270000Y-88020000D01*
D30*
X189810000Y-51450000D02*
X166550000Y-51450000D01*
D27*
X166650000Y-77810000D02*
X166630000Y-77830000D01*
D28*
X194310000Y-43350000D02*
X194310000Y-42470000D01*
X183390000Y-69350000D02*
X183700000Y-69660000D01*
X188720000Y-69660000D02*
X188960000Y-69900000D01*
X202360000Y-69900000D02*
X202590000Y-70130000D01*
X183700000Y-69660000D02*
X188720000Y-69660000D01*
D27*
X178630000Y-71600000D02*
X177910000Y-70880000D01*
X183010000Y-71600000D02*
X178630000Y-71600000D01*
D28*
X188960000Y-69900000D02*
X202360000Y-69900000D01*
D27*
X163220000Y-76540000D02*
X163120000Y-76440000D01*
X169950000Y-76540000D02*
X163220000Y-76540000D01*
D28*
X191400000Y-71780000D02*
X184735000Y-71780000D01*
X184735000Y-71780000D02*
X184195000Y-71240000D01*
D27*
X182400000Y-83610000D02*
X182380000Y-83590000D01*
X180690000Y-77110000D02*
X184215000Y-77110000D01*
X186290000Y-83610000D02*
X182400000Y-83610000D01*
X184215000Y-77110000D02*
X184245000Y-77140000D01*
X182380000Y-83590000D02*
X180480000Y-83590000D01*
D28*
X162820000Y-60385000D02*
X188115000Y-60385000D01*
X238870000Y-58860000D02*
X241430000Y-61420000D01*
X188115000Y-60385000D02*
X189640000Y-58860000D01*
X189640000Y-58860000D02*
X238870000Y-58860000D01*
D27*
X194275000Y-65855000D02*
X192020000Y-65855000D01*
X208280000Y-66040000D02*
X208280000Y-65380000D01*
X196180000Y-63950000D02*
X194275000Y-65855000D01*
X208280000Y-65380000D02*
X206850000Y-63950000D01*
X206850000Y-63950000D02*
X196180000Y-63950000D01*
D29*
X227838000Y-52578000D02*
X243179600Y-52578000D01*
X226060000Y-50800000D02*
X227838000Y-52578000D01*
X242490000Y-54530000D02*
X244960000Y-54530000D01*
X245719600Y-53770400D02*
X245719600Y-52578000D01*
X226190000Y-53470000D02*
X241430000Y-53470000D01*
X241430000Y-53470000D02*
X242490000Y-54530000D01*
X244960000Y-54530000D02*
X245719600Y-53770400D01*
X223520000Y-50800000D02*
X226190000Y-53470000D01*
X239040000Y-50240000D02*
X242977600Y-50240000D01*
X242977600Y-50240000D02*
X243179600Y-50038000D01*
X244191600Y-48510000D02*
X245719600Y-50038000D01*
X239690000Y-48510000D02*
X244191600Y-48510000D01*
D27*
X232600000Y-93810000D02*
X231490000Y-92700000D01*
X237120000Y-93810000D02*
X232600000Y-93810000D01*
X244730000Y-81130000D02*
X243960000Y-81130000D01*
X244540000Y-81130000D02*
X247510000Y-78160000D01*
X247510000Y-78160000D02*
X247510000Y-74280000D01*
X243960000Y-81130000D02*
X244540000Y-81130000D01*
D28*
X237280000Y-81130000D02*
X237260000Y-81110000D01*
D27*
X243960000Y-81130000D02*
X237280000Y-81130000D01*
X234950000Y-74290000D02*
X232400000Y-74290000D01*
D28*
X232400000Y-74290000D02*
X231490000Y-75200000D01*
X231450000Y-86210000D02*
X231390000Y-86150000D01*
D27*
X244730000Y-86210000D02*
X231450000Y-86210000D01*
D28*
X212550000Y-71870000D02*
X212550000Y-69580000D01*
X212550000Y-69580000D02*
X213310000Y-68820000D01*
D30*
X200250000Y-70660000D02*
X184890000Y-70660000D01*
X176250000Y-68290000D02*
X175350000Y-69190000D01*
X175350000Y-69190000D02*
X175370000Y-69210000D01*
X175370000Y-69210000D02*
X175370000Y-70880000D01*
X201560000Y-71970000D02*
X200250000Y-70660000D01*
X181520000Y-70450000D02*
X179360000Y-68290000D01*
D28*
X201560000Y-71780000D02*
X202730000Y-71780000D01*
D30*
X184890000Y-70660000D02*
X184680000Y-70450000D01*
X184680000Y-70450000D02*
X181520000Y-70450000D01*
D28*
X202730000Y-71780000D02*
X205690000Y-68820000D01*
D30*
X179360000Y-68290000D02*
X176250000Y-68290000D01*
D28*
X186790000Y-52830000D02*
X186840000Y-52780000D01*
X186840000Y-52780000D02*
X192660000Y-52780000D01*
X169950000Y-75270000D02*
X175730000Y-75270000D01*
X159240000Y-74210000D02*
X159210000Y-74180000D01*
X169020000Y-74340000D02*
X169020000Y-74210000D01*
X169020000Y-74210000D02*
X159240000Y-74210000D01*
X169950000Y-75270000D02*
X169020000Y-74340000D01*
X175730000Y-75270000D02*
X176060000Y-74940000D01*
G04 #@! TA.AperFunction,Conductor*
G36*
X165706463Y-41340185D02*
G01*
X165752218Y-41392989D01*
X165762644Y-41458383D01*
X165744435Y-41619996D01*
X165744435Y-41620003D01*
X165764630Y-41799249D01*
X165764631Y-41799254D01*
X165824211Y-41969523D01*
X165891177Y-42076098D01*
X165920184Y-42122262D01*
X166047738Y-42249816D01*
X166200478Y-42345789D01*
X166370745Y-42405368D01*
X166370750Y-42405369D01*
X166549996Y-42425565D01*
X166550000Y-42425565D01*
X166550002Y-42425565D01*
X166588031Y-42421280D01*
X166601915Y-42420500D01*
X190533985Y-42420500D01*
X190601024Y-42440185D01*
X190646779Y-42492989D01*
X190656723Y-42562147D01*
X190635560Y-42615623D01*
X190595965Y-42672169D01*
X190595964Y-42672171D01*
X190496098Y-42886335D01*
X190496094Y-42886344D01*
X190434938Y-43114586D01*
X190434936Y-43114596D01*
X190414341Y-43349999D01*
X190414341Y-43350000D01*
X190434936Y-43585403D01*
X190434938Y-43585413D01*
X190496094Y-43813655D01*
X190496096Y-43813659D01*
X190496097Y-43813663D01*
X190575801Y-43984588D01*
X190595965Y-44027830D01*
X190595967Y-44027834D01*
X190663226Y-44123889D01*
X190731504Y-44221400D01*
X190731506Y-44221402D01*
X190853430Y-44343326D01*
X190886915Y-44404649D01*
X190881931Y-44474341D01*
X190840059Y-44530274D01*
X190809083Y-44547189D01*
X190677669Y-44596203D01*
X190677664Y-44596206D01*
X190562455Y-44682452D01*
X190562452Y-44682455D01*
X190476206Y-44797664D01*
X190476202Y-44797671D01*
X190425908Y-44932517D01*
X190419501Y-44992116D01*
X190419500Y-44992135D01*
X190419500Y-46787870D01*
X190419501Y-46787876D01*
X190425908Y-46847483D01*
X190476202Y-46982328D01*
X190476206Y-46982335D01*
X190562452Y-47097544D01*
X190562455Y-47097547D01*
X190677664Y-47183793D01*
X190677666Y-47183794D01*
X190677669Y-47183796D01*
X190690689Y-47188652D01*
X190746624Y-47230521D01*
X190771043Y-47295985D01*
X190756193Y-47364258D01*
X190706789Y-47413665D01*
X190684481Y-47423148D01*
X190548417Y-47465838D01*
X190548405Y-47465844D01*
X190370500Y-47564589D01*
X190370495Y-47564592D01*
X190216106Y-47697132D01*
X190216104Y-47697134D01*
X190091554Y-47858037D01*
X190091553Y-47858040D01*
X190001940Y-48040728D01*
X189950937Y-48237714D01*
X189940631Y-48440936D01*
X189971442Y-48642063D01*
X189973020Y-48648155D01*
X189971138Y-48648642D01*
X189975331Y-48709251D01*
X189941704Y-48770495D01*
X189880302Y-48803837D01*
X189810623Y-48798690D01*
X189783104Y-48784185D01*
X189642834Y-48685967D01*
X189642830Y-48685965D01*
X189620062Y-48675348D01*
X189428663Y-48586097D01*
X189428659Y-48586096D01*
X189428655Y-48586094D01*
X189200413Y-48524938D01*
X189200403Y-48524936D01*
X188965001Y-48504341D01*
X188964999Y-48504341D01*
X188729596Y-48524936D01*
X188729586Y-48524938D01*
X188501344Y-48586094D01*
X188501335Y-48586098D01*
X188287171Y-48685964D01*
X188287169Y-48685965D01*
X188093600Y-48821503D01*
X187971673Y-48943430D01*
X187910350Y-48976914D01*
X187840658Y-48971930D01*
X187784725Y-48930058D01*
X187767810Y-48899081D01*
X187718797Y-48767671D01*
X187718793Y-48767664D01*
X187632547Y-48652455D01*
X187632544Y-48652452D01*
X187517335Y-48566206D01*
X187517328Y-48566202D01*
X187382482Y-48515908D01*
X187382483Y-48515908D01*
X187322883Y-48509501D01*
X187322881Y-48509500D01*
X187322873Y-48509500D01*
X187322864Y-48509500D01*
X185527129Y-48509500D01*
X185527123Y-48509501D01*
X185467516Y-48515908D01*
X185332671Y-48566202D01*
X185332664Y-48566206D01*
X185217455Y-48652452D01*
X185217452Y-48652455D01*
X185131206Y-48767664D01*
X185131202Y-48767671D01*
X185080908Y-48902517D01*
X185076510Y-48943430D01*
X185074500Y-48962127D01*
X185074500Y-49802596D01*
X185074501Y-50575500D01*
X185054816Y-50642539D01*
X185002013Y-50688294D01*
X184950501Y-50699500D01*
X166849972Y-50699500D01*
X166809017Y-50692542D01*
X166729254Y-50664631D01*
X166729249Y-50664630D01*
X166550004Y-50644435D01*
X166549996Y-50644435D01*
X166370750Y-50664630D01*
X166370745Y-50664631D01*
X166200476Y-50724211D01*
X166047737Y-50820184D01*
X165920184Y-50947737D01*
X165824211Y-51100476D01*
X165764631Y-51270745D01*
X165764630Y-51270750D01*
X165744435Y-51449996D01*
X165744435Y-51450003D01*
X165764630Y-51629249D01*
X165764631Y-51629254D01*
X165824211Y-51799523D01*
X165913020Y-51940861D01*
X165920184Y-51952262D01*
X166047738Y-52079816D01*
X166200478Y-52175789D01*
X166370745Y-52235368D01*
X166370750Y-52235369D01*
X166549996Y-52255565D01*
X166550000Y-52255565D01*
X166550004Y-52255565D01*
X166729249Y-52235369D01*
X166729252Y-52235368D01*
X166729255Y-52235368D01*
X166809017Y-52207457D01*
X166849972Y-52200500D01*
X185453956Y-52200500D01*
X185520995Y-52220185D01*
X185566750Y-52272989D01*
X185576694Y-52342147D01*
X185566339Y-52376902D01*
X185563263Y-52383496D01*
X185563258Y-52383511D01*
X185504366Y-52603302D01*
X185504364Y-52603313D01*
X185484532Y-52829998D01*
X185484532Y-52830001D01*
X185504364Y-53056686D01*
X185504366Y-53056697D01*
X185563258Y-53276488D01*
X185563261Y-53276497D01*
X185636116Y-53432734D01*
X185659432Y-53482734D01*
X185688591Y-53524378D01*
X185710918Y-53590583D01*
X185693908Y-53658350D01*
X185642960Y-53706163D01*
X185587016Y-53719500D01*
X179730706Y-53719500D01*
X179689750Y-53712541D01*
X179658398Y-53701570D01*
X179645554Y-53696250D01*
X179611061Y-53679639D01*
X179573735Y-53671119D01*
X179560380Y-53667271D01*
X179524260Y-53654633D01*
X179524256Y-53654632D01*
X179524255Y-53654632D01*
X179506139Y-53652590D01*
X179486217Y-53650345D01*
X179472518Y-53648017D01*
X179435200Y-53639501D01*
X179435196Y-53639500D01*
X179435194Y-53639500D01*
X179435191Y-53639500D01*
X179396915Y-53639500D01*
X179383031Y-53638720D01*
X179345002Y-53634435D01*
X179344998Y-53634435D01*
X179306969Y-53638720D01*
X179293085Y-53639500D01*
X179254806Y-53639500D01*
X179247334Y-53641205D01*
X179217478Y-53648018D01*
X179203781Y-53650345D01*
X179165743Y-53654632D01*
X179129622Y-53667271D01*
X179116269Y-53671118D01*
X179078939Y-53679639D01*
X179044452Y-53696247D01*
X179031613Y-53701565D01*
X178995483Y-53714208D01*
X178995476Y-53714212D01*
X178963064Y-53734577D01*
X178950900Y-53741300D01*
X178916413Y-53757909D01*
X178886492Y-53781770D01*
X178875153Y-53789815D01*
X178842742Y-53810180D01*
X178842736Y-53810185D01*
X178815664Y-53837255D01*
X178805305Y-53846513D01*
X178775380Y-53870380D01*
X178751513Y-53900305D01*
X178742255Y-53910664D01*
X178715185Y-53937736D01*
X178715180Y-53937742D01*
X178694815Y-53970153D01*
X178686770Y-53981492D01*
X178662909Y-54011413D01*
X178646300Y-54045900D01*
X178639577Y-54058064D01*
X178619212Y-54090476D01*
X178619208Y-54090483D01*
X178606565Y-54126613D01*
X178601247Y-54139452D01*
X178584639Y-54173939D01*
X178576118Y-54211269D01*
X178572271Y-54224622D01*
X178559632Y-54260743D01*
X178555345Y-54298781D01*
X178553018Y-54312478D01*
X178544500Y-54349807D01*
X178544500Y-54388085D01*
X178543720Y-54401969D01*
X178539435Y-54439998D01*
X178539435Y-54440500D01*
X178539343Y-54440812D01*
X178538655Y-54446921D01*
X178537584Y-54446800D01*
X178519750Y-54507539D01*
X178466946Y-54553294D01*
X178415435Y-54564500D01*
X176814954Y-54564500D01*
X174400194Y-54564500D01*
X174219806Y-54564500D01*
X174212334Y-54566205D01*
X174182478Y-54573018D01*
X174168781Y-54575345D01*
X174130743Y-54579632D01*
X174094622Y-54592271D01*
X174081269Y-54596118D01*
X174043939Y-54604639D01*
X174009452Y-54621247D01*
X173996613Y-54626565D01*
X173960483Y-54639208D01*
X173960476Y-54639212D01*
X173928064Y-54659577D01*
X173915900Y-54666300D01*
X173881410Y-54682910D01*
X173851488Y-54706772D01*
X173840152Y-54714816D01*
X173807739Y-54735183D01*
X173807735Y-54735186D01*
X173670186Y-54872735D01*
X173670183Y-54872739D01*
X173649816Y-54905152D01*
X173641772Y-54916488D01*
X173617910Y-54946410D01*
X173601300Y-54980900D01*
X173594577Y-54993064D01*
X173574212Y-55025476D01*
X173574208Y-55025483D01*
X173561565Y-55061613D01*
X173556247Y-55074452D01*
X173539639Y-55108939D01*
X173531118Y-55146269D01*
X173527271Y-55159622D01*
X173514632Y-55195743D01*
X173510345Y-55233781D01*
X173508018Y-55247478D01*
X173499500Y-55284807D01*
X173499500Y-55323085D01*
X173498720Y-55336969D01*
X173494435Y-55374998D01*
X173494435Y-55375001D01*
X173498720Y-55413029D01*
X173499500Y-55426914D01*
X173499500Y-55465191D01*
X173499501Y-55465200D01*
X173508017Y-55502518D01*
X173510345Y-55516217D01*
X173513504Y-55544249D01*
X173514633Y-55554260D01*
X173527271Y-55590380D01*
X173531119Y-55603735D01*
X173539639Y-55641061D01*
X173556250Y-55675554D01*
X173561570Y-55688397D01*
X173574212Y-55724525D01*
X173574213Y-55724526D01*
X173594571Y-55756925D01*
X173601297Y-55769094D01*
X173617908Y-55803585D01*
X173617909Y-55803587D01*
X173639041Y-55830085D01*
X173641769Y-55833506D01*
X173649815Y-55844846D01*
X173670182Y-55877259D01*
X173670184Y-55877262D01*
X173697250Y-55904328D01*
X173706516Y-55914696D01*
X173730376Y-55944616D01*
X173730379Y-55944619D01*
X173760301Y-55968481D01*
X173770661Y-55977739D01*
X173797738Y-56004816D01*
X173830156Y-56025185D01*
X173841483Y-56033222D01*
X173871413Y-56057091D01*
X173871416Y-56057093D01*
X173876852Y-56060509D01*
X173923141Y-56112845D01*
X173933787Y-56181899D01*
X173905409Y-56245746D01*
X173847018Y-56284116D01*
X173810876Y-56289500D01*
X171760194Y-56289500D01*
X171579806Y-56289500D01*
X171572334Y-56291205D01*
X171542478Y-56298018D01*
X171528781Y-56300345D01*
X171490743Y-56304632D01*
X171454622Y-56317271D01*
X171441269Y-56321118D01*
X171403939Y-56329639D01*
X171369452Y-56346247D01*
X171356613Y-56351565D01*
X171320483Y-56364208D01*
X171320476Y-56364212D01*
X171288064Y-56384577D01*
X171275900Y-56391300D01*
X171241410Y-56407910D01*
X171211488Y-56431772D01*
X171200152Y-56439816D01*
X171167739Y-56460183D01*
X171167735Y-56460186D01*
X170965186Y-56662735D01*
X170965183Y-56662739D01*
X170944816Y-56695152D01*
X170936772Y-56706488D01*
X170912910Y-56736410D01*
X170896300Y-56770900D01*
X170889577Y-56783064D01*
X170869213Y-56815475D01*
X170869208Y-56815483D01*
X170856565Y-56851613D01*
X170851247Y-56864452D01*
X170834639Y-56898939D01*
X170826118Y-56936269D01*
X170822271Y-56949622D01*
X170809632Y-56985743D01*
X170805345Y-57023781D01*
X170803018Y-57037478D01*
X170794500Y-57074807D01*
X170794500Y-57113085D01*
X170793721Y-57126956D01*
X170793561Y-57128385D01*
X170793449Y-57129378D01*
X170766385Y-57193793D01*
X170708792Y-57233351D01*
X170670228Y-57239500D01*
X169221915Y-57239500D01*
X169208031Y-57238720D01*
X169170002Y-57234435D01*
X169169996Y-57234435D01*
X168990750Y-57254630D01*
X168990745Y-57254631D01*
X168820476Y-57314211D01*
X168667737Y-57410184D01*
X168540184Y-57537737D01*
X168444211Y-57690476D01*
X168384631Y-57860745D01*
X168384630Y-57860750D01*
X168364435Y-58039996D01*
X168364435Y-58040003D01*
X168384630Y-58219249D01*
X168384631Y-58219254D01*
X168444211Y-58389523D01*
X168540184Y-58542262D01*
X168667738Y-58669816D01*
X168820478Y-58765789D01*
X168990745Y-58825368D01*
X168990750Y-58825369D01*
X169169996Y-58845565D01*
X169170000Y-58845565D01*
X169170002Y-58845565D01*
X169208031Y-58841280D01*
X169221915Y-58840500D01*
X188228061Y-58840500D01*
X188295100Y-58860185D01*
X188340855Y-58912989D01*
X188350799Y-58982147D01*
X188321774Y-59045703D01*
X188315742Y-59052181D01*
X187819741Y-59548181D01*
X187758418Y-59581666D01*
X187732060Y-59584500D01*
X163972691Y-59584500D01*
X163905652Y-59564815D01*
X163871116Y-59531624D01*
X163858491Y-59513594D01*
X163691402Y-59346506D01*
X163691395Y-59346501D01*
X163497834Y-59210967D01*
X163497830Y-59210965D01*
X163497828Y-59210964D01*
X163283663Y-59111097D01*
X163283659Y-59111096D01*
X163283655Y-59111094D01*
X163055413Y-59049938D01*
X163055403Y-59049936D01*
X162820001Y-59029341D01*
X162819999Y-59029341D01*
X162584596Y-59049936D01*
X162584586Y-59049938D01*
X162356344Y-59111094D01*
X162356335Y-59111098D01*
X162142171Y-59210964D01*
X162142169Y-59210965D01*
X161948597Y-59346505D01*
X161781505Y-59513597D01*
X161645965Y-59707169D01*
X161645964Y-59707171D01*
X161546098Y-59921335D01*
X161546094Y-59921344D01*
X161484938Y-60149586D01*
X161484936Y-60149596D01*
X161464341Y-60384999D01*
X161464341Y-60385000D01*
X161484936Y-60620403D01*
X161484938Y-60620413D01*
X161546094Y-60848655D01*
X161546096Y-60848659D01*
X161546097Y-60848663D01*
X161598706Y-60961483D01*
X161645965Y-61062830D01*
X161645967Y-61062834D01*
X161735885Y-61191249D01*
X161770540Y-61240742D01*
X161781501Y-61256395D01*
X161781506Y-61256402D01*
X161903430Y-61378326D01*
X161936915Y-61439649D01*
X161931931Y-61509341D01*
X161890059Y-61565274D01*
X161859083Y-61582189D01*
X161727669Y-61631203D01*
X161727664Y-61631206D01*
X161612455Y-61717452D01*
X161612452Y-61717455D01*
X161526206Y-61832664D01*
X161526202Y-61832671D01*
X161475908Y-61967517D01*
X161469970Y-62022752D01*
X161469501Y-62027123D01*
X161469500Y-62027135D01*
X161469500Y-63822870D01*
X161469501Y-63822876D01*
X161475908Y-63882483D01*
X161526202Y-64017328D01*
X161526206Y-64017335D01*
X161612452Y-64132544D01*
X161612455Y-64132547D01*
X161727664Y-64218793D01*
X161727671Y-64218797D01*
X161862517Y-64269091D01*
X161862516Y-64269091D01*
X161869444Y-64269835D01*
X161922127Y-64275500D01*
X163717872Y-64275499D01*
X163777483Y-64269091D01*
X163912331Y-64218796D01*
X164027546Y-64132546D01*
X164113796Y-64017331D01*
X164164091Y-63882483D01*
X164170500Y-63822873D01*
X164170499Y-62027128D01*
X164164091Y-61967517D01*
X164157305Y-61949324D01*
X164113797Y-61832671D01*
X164113793Y-61832664D01*
X164027547Y-61717455D01*
X164027544Y-61717452D01*
X163912335Y-61631206D01*
X163912328Y-61631202D01*
X163780917Y-61582189D01*
X163724983Y-61540318D01*
X163700566Y-61474853D01*
X163715418Y-61406580D01*
X163736563Y-61378332D01*
X163858495Y-61256401D01*
X163871116Y-61238375D01*
X163925693Y-61194752D01*
X163972691Y-61185500D01*
X188205194Y-61185500D01*
X188242517Y-61176981D01*
X188256211Y-61174654D01*
X188294255Y-61170368D01*
X188330392Y-61157722D01*
X188343726Y-61153881D01*
X188381061Y-61145360D01*
X188415561Y-61128745D01*
X188428398Y-61123429D01*
X188464522Y-61110789D01*
X188496939Y-61090419D01*
X188509103Y-61083697D01*
X188543587Y-61067091D01*
X188573515Y-61043222D01*
X188584847Y-61035182D01*
X188617262Y-61014816D01*
X188744816Y-60887262D01*
X188744816Y-60887261D01*
X189935258Y-59696819D01*
X189996581Y-59663334D01*
X190022939Y-59660500D01*
X191235500Y-59660500D01*
X191302539Y-59680185D01*
X191348294Y-59732989D01*
X191359500Y-59784500D01*
X191359500Y-61247870D01*
X191359501Y-61247876D01*
X191365908Y-61307483D01*
X191416202Y-61442328D01*
X191416206Y-61442335D01*
X191502452Y-61557544D01*
X191502455Y-61557547D01*
X191617664Y-61643793D01*
X191617671Y-61643797D01*
X191752517Y-61694091D01*
X191752516Y-61694091D01*
X191759444Y-61694835D01*
X191812127Y-61700500D01*
X193507872Y-61700499D01*
X193567483Y-61694091D01*
X193702331Y-61643796D01*
X193817546Y-61557546D01*
X193903796Y-61442331D01*
X193954091Y-61307483D01*
X193960500Y-61247873D01*
X193960499Y-59784499D01*
X193980184Y-59717461D01*
X194032987Y-59671706D01*
X194084499Y-59660500D01*
X238487060Y-59660500D01*
X238554099Y-59680185D01*
X238574741Y-59696819D01*
X240927739Y-62049817D01*
X240927742Y-62049819D01*
X240960143Y-62070178D01*
X240971483Y-62078224D01*
X241000947Y-62101720D01*
X241001414Y-62102092D01*
X241035897Y-62118698D01*
X241035899Y-62118699D01*
X241048067Y-62125425D01*
X241080470Y-62145785D01*
X241080473Y-62145786D01*
X241080478Y-62145789D01*
X241116613Y-62158433D01*
X241129442Y-62163748D01*
X241163939Y-62180360D01*
X241201249Y-62188876D01*
X241214612Y-62192725D01*
X241250742Y-62205367D01*
X241250745Y-62205368D01*
X241288790Y-62209654D01*
X241302479Y-62211980D01*
X241339806Y-62220500D01*
X241378085Y-62220500D01*
X241391969Y-62221280D01*
X241429998Y-62225565D01*
X241430000Y-62225565D01*
X241430002Y-62225565D01*
X241468031Y-62221280D01*
X241481915Y-62220500D01*
X241520194Y-62220500D01*
X241557517Y-62211981D01*
X241571211Y-62209654D01*
X241609255Y-62205368D01*
X241645383Y-62192725D01*
X241658733Y-62188879D01*
X241696061Y-62180360D01*
X241730548Y-62163750D01*
X241743385Y-62158432D01*
X241779522Y-62145789D01*
X241811939Y-62125419D01*
X241824097Y-62118700D01*
X241858587Y-62102092D01*
X241888523Y-62078218D01*
X241899859Y-62070176D01*
X241932256Y-62049820D01*
X241932256Y-62049819D01*
X241932262Y-62049816D01*
X241959334Y-62022742D01*
X241969686Y-62013492D01*
X241999621Y-61989621D01*
X242023492Y-61959686D01*
X242032742Y-61949334D01*
X242059816Y-61922262D01*
X242080176Y-61889858D01*
X242088218Y-61878523D01*
X242112092Y-61848587D01*
X242128700Y-61814097D01*
X242135419Y-61801939D01*
X242155789Y-61769522D01*
X242168432Y-61733385D01*
X242173751Y-61720548D01*
X242183406Y-61700500D01*
X242190360Y-61686061D01*
X242198879Y-61648733D01*
X242202728Y-61635376D01*
X242215368Y-61599255D01*
X242219654Y-61561211D01*
X242221982Y-61547512D01*
X242223624Y-61540318D01*
X242230500Y-61510194D01*
X242230500Y-61471914D01*
X242231280Y-61458029D01*
X242235565Y-61420001D01*
X242235565Y-61419997D01*
X242231280Y-61381969D01*
X242230500Y-61368085D01*
X242230500Y-61329807D01*
X242230500Y-61329806D01*
X242221980Y-61292479D01*
X242219654Y-61278790D01*
X242215368Y-61240745D01*
X242202725Y-61204612D01*
X242198876Y-61191249D01*
X242190360Y-61153939D01*
X242173748Y-61119442D01*
X242168433Y-61106613D01*
X242155789Y-61070478D01*
X242155786Y-61070473D01*
X242155785Y-61070470D01*
X242135425Y-61038067D01*
X242128699Y-61025899D01*
X242112092Y-60991414D01*
X242111720Y-60990947D01*
X242088224Y-60961483D01*
X242080178Y-60950143D01*
X242059819Y-60917742D01*
X242059817Y-60917739D01*
X239372262Y-58230184D01*
X239372259Y-58230182D01*
X239339849Y-58209817D01*
X239328510Y-58201771D01*
X239298589Y-58177910D01*
X239264093Y-58161296D01*
X239251927Y-58154572D01*
X239219524Y-58134212D01*
X239219525Y-58134212D01*
X239212652Y-58131807D01*
X239183393Y-58121568D01*
X239170554Y-58116250D01*
X239136061Y-58099639D01*
X239098735Y-58091119D01*
X239085380Y-58087271D01*
X239049260Y-58074633D01*
X239049256Y-58074632D01*
X239049255Y-58074632D01*
X239031139Y-58072590D01*
X239011217Y-58070345D01*
X238997518Y-58068017D01*
X238960200Y-58059501D01*
X238960196Y-58059500D01*
X238960194Y-58059500D01*
X238960191Y-58059500D01*
X231636606Y-58059500D01*
X231569567Y-58039815D01*
X231523812Y-57987011D01*
X231513868Y-57917853D01*
X231542893Y-57854297D01*
X231559286Y-57838559D01*
X231567460Y-57832038D01*
X231578509Y-57823227D01*
X231589844Y-57815184D01*
X231622262Y-57794816D01*
X231649339Y-57767737D01*
X231659687Y-57758489D01*
X231689620Y-57734620D01*
X231713489Y-57704687D01*
X231722737Y-57694339D01*
X231749816Y-57667262D01*
X231770184Y-57634844D01*
X231778221Y-57623516D01*
X231802091Y-57593587D01*
X231818701Y-57559093D01*
X231825418Y-57546939D01*
X231845789Y-57514522D01*
X231858429Y-57478397D01*
X231863745Y-57465561D01*
X231880360Y-57431061D01*
X231888881Y-57393726D01*
X231892722Y-57380392D01*
X231905368Y-57344255D01*
X231909654Y-57306211D01*
X231911982Y-57292512D01*
X231920500Y-57255194D01*
X231920500Y-57216914D01*
X231921280Y-57203029D01*
X231925565Y-57165001D01*
X231925565Y-57165000D01*
X231921551Y-57129378D01*
X231921439Y-57128383D01*
X231933493Y-57059563D01*
X231980841Y-57008183D01*
X232044659Y-56990500D01*
X233598085Y-56990500D01*
X233611969Y-56991280D01*
X233649998Y-56995565D01*
X233650000Y-56995565D01*
X233650004Y-56995565D01*
X233829249Y-56975369D01*
X233829252Y-56975368D01*
X233829255Y-56975368D01*
X233999522Y-56915789D01*
X234152262Y-56819816D01*
X234279816Y-56692262D01*
X234375789Y-56539522D01*
X234435368Y-56369255D01*
X234435369Y-56369249D01*
X234455565Y-56190003D01*
X234455565Y-56189996D01*
X234435369Y-56010750D01*
X234435368Y-56010745D01*
X234412230Y-55944620D01*
X234375789Y-55840478D01*
X234375788Y-55840477D01*
X234375786Y-55840470D01*
X234372769Y-55834205D01*
X234374781Y-55833236D01*
X234358670Y-55776252D01*
X234374683Y-55721716D01*
X234372769Y-55720795D01*
X234375786Y-55714529D01*
X234375787Y-55714523D01*
X234375789Y-55714522D01*
X234435368Y-55544255D01*
X234438527Y-55516217D01*
X234455565Y-55365003D01*
X234455565Y-55364996D01*
X234435369Y-55185750D01*
X234435368Y-55185745D01*
X234423926Y-55153046D01*
X234375789Y-55015478D01*
X234372576Y-55010365D01*
X234310169Y-54911044D01*
X234279816Y-54862738D01*
X234152262Y-54735184D01*
X234152260Y-54735182D01*
X234152258Y-54735181D01*
X234115547Y-54712113D01*
X234069256Y-54659778D01*
X234058300Y-54593237D01*
X234075565Y-54440003D01*
X234075565Y-54439996D01*
X234060736Y-54308383D01*
X234072791Y-54239561D01*
X234120140Y-54188182D01*
X234183956Y-54170500D01*
X241088481Y-54170500D01*
X241155520Y-54190185D01*
X241176162Y-54206819D01*
X241977058Y-55007715D01*
X241982178Y-55013153D01*
X242022071Y-55058183D01*
X242045641Y-55074452D01*
X242071569Y-55092349D01*
X242077601Y-55096788D01*
X242124938Y-55133874D01*
X242124943Y-55133877D01*
X242134174Y-55138031D01*
X242153727Y-55149059D01*
X242162070Y-55154818D01*
X242218322Y-55176151D01*
X242225228Y-55179012D01*
X242280063Y-55203692D01*
X242280064Y-55203692D01*
X242280068Y-55203694D01*
X242290030Y-55205519D01*
X242311651Y-55211546D01*
X242311667Y-55211552D01*
X242321128Y-55215140D01*
X242365234Y-55220495D01*
X242380830Y-55222389D01*
X242388235Y-55223516D01*
X242409400Y-55227394D01*
X242447394Y-55234357D01*
X242507423Y-55230726D01*
X242514910Y-55230500D01*
X244935079Y-55230500D01*
X244942566Y-55230725D01*
X245002606Y-55234358D01*
X245061782Y-55223513D01*
X245069185Y-55222387D01*
X245072921Y-55221933D01*
X245128872Y-55215140D01*
X245138335Y-55211550D01*
X245159961Y-55205522D01*
X245160893Y-55205351D01*
X245169932Y-55203695D01*
X245224808Y-55178996D01*
X245231678Y-55176150D01*
X245287930Y-55154818D01*
X245296266Y-55149062D01*
X245315821Y-55138034D01*
X245325057Y-55133878D01*
X245372413Y-55096775D01*
X245378404Y-55092366D01*
X245427929Y-55058183D01*
X245467822Y-55013151D01*
X245472924Y-55007731D01*
X246197331Y-54283324D01*
X246202751Y-54278222D01*
X246247783Y-54238329D01*
X246281962Y-54188811D01*
X246286389Y-54182796D01*
X246293328Y-54173939D01*
X246323478Y-54135456D01*
X246327637Y-54126213D01*
X246338661Y-54106668D01*
X246344418Y-54098330D01*
X246361923Y-54052171D01*
X246365745Y-54042094D01*
X246368613Y-54035170D01*
X246393293Y-53980336D01*
X246393293Y-53980334D01*
X246393295Y-53980331D01*
X246395122Y-53970359D01*
X246401146Y-53948747D01*
X246404740Y-53939272D01*
X246411987Y-53879584D01*
X246413114Y-53872177D01*
X246417817Y-53846513D01*
X246423958Y-53813006D01*
X246423531Y-53805955D01*
X246439130Y-53737851D01*
X246476179Y-53696893D01*
X246591001Y-53616495D01*
X246758095Y-53449401D01*
X246893635Y-53255830D01*
X246993503Y-53041663D01*
X247054663Y-52813408D01*
X247075259Y-52578000D01*
X247054663Y-52342592D01*
X246993503Y-52114337D01*
X246893635Y-51900171D01*
X246888025Y-51892158D01*
X246758094Y-51706597D01*
X246591002Y-51539506D01*
X246590996Y-51539501D01*
X246405442Y-51409575D01*
X246361817Y-51354998D01*
X246354623Y-51285500D01*
X246386146Y-51223145D01*
X246405442Y-51206425D01*
X246513448Y-51130798D01*
X246591001Y-51076495D01*
X246758095Y-50909401D01*
X246893635Y-50715830D01*
X246993503Y-50501663D01*
X247054663Y-50273408D01*
X247075259Y-50038000D01*
X247054663Y-49802592D01*
X246993503Y-49574337D01*
X246893635Y-49360171D01*
X246886192Y-49349540D01*
X246758094Y-49166597D01*
X246591002Y-48999506D01*
X246590995Y-48999501D01*
X246575425Y-48988599D01*
X246510918Y-48943430D01*
X246397434Y-48863967D01*
X246397430Y-48863965D01*
X246268485Y-48803837D01*
X246183263Y-48764097D01*
X246183259Y-48764096D01*
X246183255Y-48764094D01*
X245955013Y-48702938D01*
X245955003Y-48702936D01*
X245719601Y-48682341D01*
X245719599Y-48682341D01*
X245484197Y-48702936D01*
X245484193Y-48702936D01*
X245484192Y-48702937D01*
X245484187Y-48702938D01*
X245484184Y-48702939D01*
X245467378Y-48707442D01*
X245397528Y-48705778D01*
X245347605Y-48675348D01*
X244704540Y-48032283D01*
X244699405Y-48026828D01*
X244659529Y-47981816D01*
X244659524Y-47981812D01*
X244610038Y-47947655D01*
X244604003Y-47943215D01*
X244556660Y-47906124D01*
X244556655Y-47906120D01*
X244547413Y-47901961D01*
X244527866Y-47890936D01*
X244519531Y-47885183D01*
X244519532Y-47885183D01*
X244519530Y-47885182D01*
X244463294Y-47863854D01*
X244456390Y-47860994D01*
X244401532Y-47836305D01*
X244401530Y-47836304D01*
X244391546Y-47834474D01*
X244369943Y-47828451D01*
X244360474Y-47824860D01*
X244360471Y-47824859D01*
X244300771Y-47817610D01*
X244293370Y-47816483D01*
X244234209Y-47805642D01*
X244234203Y-47805642D01*
X244174167Y-47809274D01*
X244166679Y-47809500D01*
X240115494Y-47809500D01*
X240049523Y-47790494D01*
X240039525Y-47784212D01*
X239869254Y-47724631D01*
X239869249Y-47724630D01*
X239690004Y-47704435D01*
X239689996Y-47704435D01*
X239510750Y-47724630D01*
X239510745Y-47724631D01*
X239340476Y-47784211D01*
X239187737Y-47880184D01*
X239060184Y-48007737D01*
X238964211Y-48160476D01*
X238904631Y-48330745D01*
X238904630Y-48330750D01*
X238884435Y-48509996D01*
X238884435Y-48510003D01*
X238904630Y-48689249D01*
X238904631Y-48689254D01*
X238964211Y-48859523D01*
X239052166Y-48999501D01*
X239060184Y-49012262D01*
X239187738Y-49139816D01*
X239208805Y-49153053D01*
X239346374Y-49239494D01*
X239344879Y-49241872D01*
X239387331Y-49280197D01*
X239405647Y-49347623D01*
X239384603Y-49414248D01*
X239330879Y-49458919D01*
X239261532Y-49467453D01*
X239240719Y-49462142D01*
X239219257Y-49454632D01*
X239219249Y-49454630D01*
X239040004Y-49434435D01*
X239039996Y-49434435D01*
X238860750Y-49454630D01*
X238860745Y-49454631D01*
X238690476Y-49514211D01*
X238537737Y-49610184D01*
X238410184Y-49737737D01*
X238314211Y-49890476D01*
X238254631Y-50060745D01*
X238254630Y-50060750D01*
X238234435Y-50239996D01*
X238234435Y-50240003D01*
X238254630Y-50419249D01*
X238254631Y-50419254D01*
X238314211Y-50589523D01*
X238378943Y-50692542D01*
X238410184Y-50742262D01*
X238537738Y-50869816D01*
X238600728Y-50909395D01*
X238690474Y-50965787D01*
X238690478Y-50965789D01*
X238816380Y-51009844D01*
X238860745Y-51025368D01*
X238860750Y-51025369D01*
X239039996Y-51045565D01*
X239040000Y-51045565D01*
X239040004Y-51045565D01*
X239219249Y-51025369D01*
X239219252Y-51025368D01*
X239219255Y-51025368D01*
X239389522Y-50965789D01*
X239390488Y-50965181D01*
X239399523Y-50959506D01*
X239465494Y-50940500D01*
X241728906Y-50940500D01*
X241795945Y-50960185D01*
X241841700Y-51012989D01*
X241845088Y-51021167D01*
X241885802Y-51130328D01*
X241885806Y-51130335D01*
X241972052Y-51245544D01*
X241972055Y-51245547D01*
X242087264Y-51331793D01*
X242087271Y-51331797D01*
X242218681Y-51380810D01*
X242274615Y-51422681D01*
X242299032Y-51488145D01*
X242284180Y-51556418D01*
X242263030Y-51584673D01*
X242141103Y-51706600D01*
X242058464Y-51824623D01*
X242003887Y-51868248D01*
X241956889Y-51877500D01*
X234741049Y-51877500D01*
X234674010Y-51857815D01*
X234628255Y-51805011D01*
X234618311Y-51735853D01*
X234647336Y-51672297D01*
X234653368Y-51665819D01*
X234680045Y-51639141D01*
X234680047Y-51639139D01*
X234810568Y-51452734D01*
X234906739Y-51246496D01*
X234965635Y-51026692D01*
X234985468Y-50800000D01*
X234965635Y-50573308D01*
X234909721Y-50364632D01*
X234906741Y-50353511D01*
X234906738Y-50353502D01*
X234888933Y-50315320D01*
X234810568Y-50147266D01*
X234680047Y-49960861D01*
X234680045Y-49960858D01*
X234519141Y-49799954D01*
X234332734Y-49669432D01*
X234332732Y-49669431D01*
X234126497Y-49573261D01*
X234126488Y-49573258D01*
X233906697Y-49514366D01*
X233906693Y-49514365D01*
X233906692Y-49514365D01*
X233906691Y-49514364D01*
X233906686Y-49514364D01*
X233680002Y-49494532D01*
X233679998Y-49494532D01*
X233453313Y-49514364D01*
X233453302Y-49514366D01*
X233233511Y-49573258D01*
X233233502Y-49573261D01*
X233027267Y-49669431D01*
X233027265Y-49669432D01*
X232840858Y-49799954D01*
X232679954Y-49960858D01*
X232549432Y-50147265D01*
X232549431Y-50147267D01*
X232522382Y-50205275D01*
X232476209Y-50257714D01*
X232409016Y-50276866D01*
X232342135Y-50256650D01*
X232297618Y-50205275D01*
X232270686Y-50147520D01*
X232270568Y-50147266D01*
X232140047Y-49960861D01*
X232140045Y-49960858D01*
X231979141Y-49799954D01*
X231792734Y-49669432D01*
X231792732Y-49669431D01*
X231586497Y-49573261D01*
X231586488Y-49573258D01*
X231366697Y-49514366D01*
X231366693Y-49514365D01*
X231366692Y-49514365D01*
X231366691Y-49514364D01*
X231366686Y-49514364D01*
X231140002Y-49494532D01*
X231139998Y-49494532D01*
X230913313Y-49514364D01*
X230913302Y-49514366D01*
X230693511Y-49573258D01*
X230693502Y-49573261D01*
X230487267Y-49669431D01*
X230487265Y-49669432D01*
X230300858Y-49799954D01*
X230139954Y-49960858D01*
X230009432Y-50147265D01*
X230009431Y-50147267D01*
X229982382Y-50205275D01*
X229936209Y-50257714D01*
X229869016Y-50276866D01*
X229802135Y-50256650D01*
X229757618Y-50205275D01*
X229730686Y-50147520D01*
X229730568Y-50147266D01*
X229600047Y-49960861D01*
X229600045Y-49960858D01*
X229439141Y-49799954D01*
X229252734Y-49669432D01*
X229252732Y-49669431D01*
X229046497Y-49573261D01*
X229046488Y-49573258D01*
X228826697Y-49514366D01*
X228826693Y-49514365D01*
X228826692Y-49514365D01*
X228826691Y-49514364D01*
X228826686Y-49514364D01*
X228600002Y-49494532D01*
X228599998Y-49494532D01*
X228373313Y-49514364D01*
X228373302Y-49514366D01*
X228153511Y-49573258D01*
X228153502Y-49573261D01*
X227947267Y-49669431D01*
X227947265Y-49669432D01*
X227760858Y-49799954D01*
X227599954Y-49960858D01*
X227469432Y-50147265D01*
X227469431Y-50147267D01*
X227442382Y-50205275D01*
X227396209Y-50257714D01*
X227329016Y-50276866D01*
X227262135Y-50256650D01*
X227217618Y-50205275D01*
X227190686Y-50147520D01*
X227190568Y-50147266D01*
X227060047Y-49960861D01*
X227060045Y-49960858D01*
X226899141Y-49799954D01*
X226712734Y-49669432D01*
X226712732Y-49669431D01*
X226506497Y-49573261D01*
X226506488Y-49573258D01*
X226286697Y-49514366D01*
X226286693Y-49514365D01*
X226286692Y-49514365D01*
X226286691Y-49514364D01*
X226286686Y-49514364D01*
X226060002Y-49494532D01*
X226059998Y-49494532D01*
X225833313Y-49514364D01*
X225833302Y-49514366D01*
X225613511Y-49573258D01*
X225613502Y-49573261D01*
X225407267Y-49669431D01*
X225407265Y-49669432D01*
X225220858Y-49799954D01*
X225059954Y-49960858D01*
X224929432Y-50147265D01*
X224929431Y-50147267D01*
X224902382Y-50205275D01*
X224856209Y-50257714D01*
X224789016Y-50276866D01*
X224722135Y-50256650D01*
X224677618Y-50205275D01*
X224650686Y-50147520D01*
X224650568Y-50147266D01*
X224520047Y-49960861D01*
X224520045Y-49960858D01*
X224359141Y-49799954D01*
X224172734Y-49669432D01*
X224172732Y-49669431D01*
X223966497Y-49573261D01*
X223966488Y-49573258D01*
X223746697Y-49514366D01*
X223746693Y-49514365D01*
X223746692Y-49514365D01*
X223746691Y-49514364D01*
X223746686Y-49514364D01*
X223520002Y-49494532D01*
X223519998Y-49494532D01*
X223293313Y-49514364D01*
X223293302Y-49514366D01*
X223073511Y-49573258D01*
X223073502Y-49573261D01*
X222867267Y-49669431D01*
X222867265Y-49669432D01*
X222680858Y-49799954D01*
X222519954Y-49960858D01*
X222389432Y-50147265D01*
X222389431Y-50147267D01*
X222362382Y-50205275D01*
X222316209Y-50257714D01*
X222249016Y-50276866D01*
X222182135Y-50256650D01*
X222137618Y-50205275D01*
X222110686Y-50147520D01*
X222110568Y-50147266D01*
X221980047Y-49960861D01*
X221980045Y-49960858D01*
X221819141Y-49799954D01*
X221632734Y-49669432D01*
X221632732Y-49669431D01*
X221426497Y-49573261D01*
X221426488Y-49573258D01*
X221206697Y-49514366D01*
X221206693Y-49514365D01*
X221206692Y-49514365D01*
X221206691Y-49514364D01*
X221206686Y-49514364D01*
X220980002Y-49494532D01*
X220979998Y-49494532D01*
X220753313Y-49514364D01*
X220753302Y-49514366D01*
X220533511Y-49573258D01*
X220533502Y-49573261D01*
X220327267Y-49669431D01*
X220327265Y-49669432D01*
X220140858Y-49799954D01*
X219979954Y-49960858D01*
X219849432Y-50147265D01*
X219849431Y-50147267D01*
X219822382Y-50205275D01*
X219776209Y-50257714D01*
X219709016Y-50276866D01*
X219642135Y-50256650D01*
X219597618Y-50205275D01*
X219570686Y-50147520D01*
X219570568Y-50147266D01*
X219440047Y-49960861D01*
X219440045Y-49960858D01*
X219279141Y-49799954D01*
X219092734Y-49669432D01*
X219092732Y-49669431D01*
X218886497Y-49573261D01*
X218886488Y-49573258D01*
X218666697Y-49514366D01*
X218666693Y-49514365D01*
X218666692Y-49514365D01*
X218666691Y-49514364D01*
X218666686Y-49514364D01*
X218440002Y-49494532D01*
X218439998Y-49494532D01*
X218213313Y-49514364D01*
X218213302Y-49514366D01*
X217993511Y-49573258D01*
X217993502Y-49573261D01*
X217787267Y-49669431D01*
X217787265Y-49669432D01*
X217600858Y-49799954D01*
X217439954Y-49960858D01*
X217309432Y-50147265D01*
X217309431Y-50147267D01*
X217282382Y-50205275D01*
X217236209Y-50257714D01*
X217169016Y-50276866D01*
X217102135Y-50256650D01*
X217057618Y-50205275D01*
X217030686Y-50147520D01*
X217030568Y-50147266D01*
X216900047Y-49960861D01*
X216900045Y-49960858D01*
X216739141Y-49799954D01*
X216552734Y-49669432D01*
X216552732Y-49669431D01*
X216346497Y-49573261D01*
X216346488Y-49573258D01*
X216126697Y-49514366D01*
X216126693Y-49514365D01*
X216126692Y-49514365D01*
X216126691Y-49514364D01*
X216126686Y-49514364D01*
X215900002Y-49494532D01*
X215899998Y-49494532D01*
X215673313Y-49514364D01*
X215673302Y-49514366D01*
X215453511Y-49573258D01*
X215453502Y-49573261D01*
X215247267Y-49669431D01*
X215247265Y-49669432D01*
X215060858Y-49799954D01*
X214899954Y-49960858D01*
X214769432Y-50147265D01*
X214769431Y-50147267D01*
X214742382Y-50205275D01*
X214696209Y-50257714D01*
X214629016Y-50276866D01*
X214562135Y-50256650D01*
X214517618Y-50205275D01*
X214490686Y-50147520D01*
X214490568Y-50147266D01*
X214360047Y-49960861D01*
X214360045Y-49960858D01*
X214199141Y-49799954D01*
X214012734Y-49669432D01*
X214012732Y-49669431D01*
X213806497Y-49573261D01*
X213806488Y-49573258D01*
X213586697Y-49514366D01*
X213586693Y-49514365D01*
X213586692Y-49514365D01*
X213586691Y-49514364D01*
X213586686Y-49514364D01*
X213360002Y-49494532D01*
X213359998Y-49494532D01*
X213133313Y-49514364D01*
X213133302Y-49514366D01*
X212913511Y-49573258D01*
X212913502Y-49573261D01*
X212707267Y-49669431D01*
X212707265Y-49669432D01*
X212520858Y-49799954D01*
X212359954Y-49960858D01*
X212229432Y-50147265D01*
X212229431Y-50147267D01*
X212202382Y-50205275D01*
X212156209Y-50257714D01*
X212089016Y-50276866D01*
X212022135Y-50256650D01*
X211977618Y-50205275D01*
X211950686Y-50147520D01*
X211950568Y-50147266D01*
X211820047Y-49960861D01*
X211820045Y-49960858D01*
X211659141Y-49799954D01*
X211472734Y-49669432D01*
X211472732Y-49669431D01*
X211266497Y-49573261D01*
X211266488Y-49573258D01*
X211046697Y-49514366D01*
X211046693Y-49514365D01*
X211046692Y-49514365D01*
X211046691Y-49514364D01*
X211046686Y-49514364D01*
X210820002Y-49494532D01*
X210819998Y-49494532D01*
X210593313Y-49514364D01*
X210593302Y-49514366D01*
X210373511Y-49573258D01*
X210373502Y-49573261D01*
X210167267Y-49669431D01*
X210167265Y-49669432D01*
X209980858Y-49799954D01*
X209819954Y-49960858D01*
X209689432Y-50147265D01*
X209689431Y-50147267D01*
X209662382Y-50205275D01*
X209616209Y-50257714D01*
X209549016Y-50276866D01*
X209482135Y-50256650D01*
X209437618Y-50205275D01*
X209410686Y-50147520D01*
X209410568Y-50147266D01*
X209280047Y-49960861D01*
X209280045Y-49960858D01*
X209119141Y-49799954D01*
X208932734Y-49669432D01*
X208932732Y-49669431D01*
X208726497Y-49573261D01*
X208726488Y-49573258D01*
X208506697Y-49514366D01*
X208506693Y-49514365D01*
X208506692Y-49514365D01*
X208506691Y-49514364D01*
X208506686Y-49514364D01*
X208280002Y-49494532D01*
X208279998Y-49494532D01*
X208053313Y-49514364D01*
X208053302Y-49514366D01*
X207833511Y-49573258D01*
X207833502Y-49573261D01*
X207627267Y-49669431D01*
X207627265Y-49669432D01*
X207440858Y-49799954D01*
X207279954Y-49960858D01*
X207149432Y-50147265D01*
X207149431Y-50147267D01*
X207122382Y-50205275D01*
X207076209Y-50257714D01*
X207009016Y-50276866D01*
X206942135Y-50256650D01*
X206897618Y-50205275D01*
X206870686Y-50147520D01*
X206870568Y-50147266D01*
X206740047Y-49960861D01*
X206740045Y-49960858D01*
X206579141Y-49799954D01*
X206392734Y-49669432D01*
X206392732Y-49669431D01*
X206186497Y-49573261D01*
X206186488Y-49573258D01*
X205966697Y-49514366D01*
X205966693Y-49514365D01*
X205966692Y-49514365D01*
X205966691Y-49514364D01*
X205966686Y-49514364D01*
X205740002Y-49494532D01*
X205739998Y-49494532D01*
X205513313Y-49514364D01*
X205513302Y-49514366D01*
X205293511Y-49573258D01*
X205293502Y-49573261D01*
X205087267Y-49669431D01*
X205087265Y-49669432D01*
X204900858Y-49799954D01*
X204739954Y-49960858D01*
X204609432Y-50147265D01*
X204609431Y-50147267D01*
X204582382Y-50205275D01*
X204536209Y-50257714D01*
X204469016Y-50276866D01*
X204402135Y-50256650D01*
X204357618Y-50205275D01*
X204330686Y-50147520D01*
X204330568Y-50147266D01*
X204200047Y-49960861D01*
X204200045Y-49960858D01*
X204039141Y-49799954D01*
X203852734Y-49669432D01*
X203852732Y-49669431D01*
X203646497Y-49573261D01*
X203646488Y-49573258D01*
X203426697Y-49514366D01*
X203426693Y-49514365D01*
X203426692Y-49514365D01*
X203426691Y-49514364D01*
X203426686Y-49514364D01*
X203200002Y-49494532D01*
X203199998Y-49494532D01*
X202973313Y-49514364D01*
X202973302Y-49514366D01*
X202753511Y-49573258D01*
X202753502Y-49573261D01*
X202547267Y-49669431D01*
X202547265Y-49669432D01*
X202360858Y-49799954D01*
X202199954Y-49960858D01*
X202069433Y-50147264D01*
X202069432Y-50147266D01*
X202069315Y-50147518D01*
X202042106Y-50205867D01*
X201995933Y-50258306D01*
X201928739Y-50277457D01*
X201861858Y-50257241D01*
X201817342Y-50205865D01*
X201790135Y-50147520D01*
X201790134Y-50147518D01*
X201659657Y-49961179D01*
X201498820Y-49800342D01*
X201312482Y-49669865D01*
X201106328Y-49573734D01*
X200910000Y-49521127D01*
X200910000Y-50364498D01*
X200802315Y-50315320D01*
X200695763Y-50300000D01*
X200624237Y-50300000D01*
X200517685Y-50315320D01*
X200410000Y-50364498D01*
X200410000Y-49521127D01*
X200213671Y-49573734D01*
X200007517Y-49669865D01*
X199821179Y-49800342D01*
X199660342Y-49961179D01*
X199529867Y-50147515D01*
X199502657Y-50205867D01*
X199456484Y-50258306D01*
X199389290Y-50277457D01*
X199322409Y-50257241D01*
X199277893Y-50205865D01*
X199250685Y-50147518D01*
X199250568Y-50147266D01*
X199120047Y-49960861D01*
X199120045Y-49960858D01*
X198959141Y-49799954D01*
X198772734Y-49669432D01*
X198772732Y-49669431D01*
X198759324Y-49663179D01*
X198681484Y-49626881D01*
X198629046Y-49580710D01*
X198609894Y-49513516D01*
X198630110Y-49446635D01*
X198683275Y-49401300D01*
X198733890Y-49390500D01*
X199045743Y-49390500D01*
X199197439Y-49375074D01*
X199391579Y-49314162D01*
X199391580Y-49314161D01*
X199391588Y-49314159D01*
X199569502Y-49215409D01*
X199723895Y-49082866D01*
X199848448Y-48921958D01*
X199938060Y-48739271D01*
X199989063Y-48542285D01*
X199999369Y-48339064D01*
X199968556Y-48137929D01*
X199910739Y-47981817D01*
X199897888Y-47947118D01*
X199897887Y-47947117D01*
X199897886Y-47947113D01*
X199790252Y-47774429D01*
X199650059Y-47626947D01*
X199483049Y-47510705D01*
X199483047Y-47510704D01*
X199407479Y-47478274D01*
X199353636Y-47433747D01*
X199332414Y-47367178D01*
X199350550Y-47299703D01*
X199402287Y-47252745D01*
X199445569Y-47240797D01*
X199625408Y-47225063D01*
X199853663Y-47163903D01*
X200067830Y-47064035D01*
X200261401Y-46928495D01*
X200428495Y-46761401D01*
X200558730Y-46575405D01*
X200613307Y-46531781D01*
X200682805Y-46524587D01*
X200745160Y-46556110D01*
X200761879Y-46575405D01*
X200891890Y-46761078D01*
X201058917Y-46928105D01*
X201252421Y-47063600D01*
X201466507Y-47163429D01*
X201466516Y-47163433D01*
X201680000Y-47220634D01*
X201680000Y-46325501D01*
X201787685Y-46374680D01*
X201894237Y-46390000D01*
X201965763Y-46390000D01*
X202072315Y-46374680D01*
X202180000Y-46325501D01*
X202180000Y-47220633D01*
X202393483Y-47163433D01*
X202393492Y-47163429D01*
X202607578Y-47063600D01*
X202801082Y-46928105D01*
X202968105Y-46761082D01*
X203098119Y-46575405D01*
X203152696Y-46531781D01*
X203222195Y-46524588D01*
X203284549Y-46556110D01*
X203301269Y-46575405D01*
X203431505Y-46761401D01*
X203598599Y-46928495D01*
X203695384Y-46996265D01*
X203792165Y-47064032D01*
X203792167Y-47064033D01*
X203792170Y-47064035D01*
X204006337Y-47163903D01*
X204006343Y-47163904D01*
X204006344Y-47163905D01*
X204061285Y-47178626D01*
X204234592Y-47225063D01*
X204411034Y-47240500D01*
X204469999Y-47245659D01*
X204470000Y-47245659D01*
X204470001Y-47245659D01*
X204528966Y-47240500D01*
X204705408Y-47225063D01*
X204933663Y-47163903D01*
X205147830Y-47064035D01*
X205341401Y-46928495D01*
X205508495Y-46761401D01*
X205638425Y-46575842D01*
X205693002Y-46532217D01*
X205762500Y-46525023D01*
X205824855Y-46556546D01*
X205841575Y-46575842D01*
X205971281Y-46761082D01*
X205971505Y-46761401D01*
X206138599Y-46928495D01*
X206235384Y-46996265D01*
X206332165Y-47064032D01*
X206332167Y-47064033D01*
X206332170Y-47064035D01*
X206546337Y-47163903D01*
X206546343Y-47163904D01*
X206546344Y-47163905D01*
X206601285Y-47178626D01*
X206774592Y-47225063D01*
X206951034Y-47240500D01*
X207009999Y-47245659D01*
X207010000Y-47245659D01*
X207010001Y-47245659D01*
X207068966Y-47240500D01*
X207245408Y-47225063D01*
X207473663Y-47163903D01*
X207687830Y-47064035D01*
X207881401Y-46928495D01*
X208048495Y-46761401D01*
X208178425Y-46575842D01*
X208233002Y-46532217D01*
X208302500Y-46525023D01*
X208364855Y-46556546D01*
X208381575Y-46575842D01*
X208511281Y-46761082D01*
X208511505Y-46761401D01*
X208678599Y-46928495D01*
X208775384Y-46996265D01*
X208872165Y-47064032D01*
X208872167Y-47064033D01*
X208872170Y-47064035D01*
X209086337Y-47163903D01*
X209086343Y-47163904D01*
X209086344Y-47163905D01*
X209141285Y-47178626D01*
X209314592Y-47225063D01*
X209491034Y-47240500D01*
X209549999Y-47245659D01*
X209550000Y-47245659D01*
X209550001Y-47245659D01*
X209608966Y-47240500D01*
X209785408Y-47225063D01*
X210013663Y-47163903D01*
X210227830Y-47064035D01*
X210421401Y-46928495D01*
X210588495Y-46761401D01*
X210718425Y-46575842D01*
X210773002Y-46532217D01*
X210842500Y-46525023D01*
X210904855Y-46556546D01*
X210921575Y-46575842D01*
X211051281Y-46761082D01*
X211051505Y-46761401D01*
X211218599Y-46928495D01*
X211315384Y-46996265D01*
X211412165Y-47064032D01*
X211412167Y-47064033D01*
X211412170Y-47064035D01*
X211626337Y-47163903D01*
X211626343Y-47163904D01*
X211626344Y-47163905D01*
X211681285Y-47178626D01*
X211854592Y-47225063D01*
X212031034Y-47240500D01*
X212089999Y-47245659D01*
X212090000Y-47245659D01*
X212090001Y-47245659D01*
X212148966Y-47240500D01*
X212325408Y-47225063D01*
X212553663Y-47163903D01*
X212767830Y-47064035D01*
X212961401Y-46928495D01*
X213128495Y-46761401D01*
X213258425Y-46575842D01*
X213313002Y-46532217D01*
X213382500Y-46525023D01*
X213444855Y-46556546D01*
X213461575Y-46575842D01*
X213591281Y-46761082D01*
X213591505Y-46761401D01*
X213758599Y-46928495D01*
X213855384Y-46996265D01*
X213952165Y-47064032D01*
X213952167Y-47064033D01*
X213952170Y-47064035D01*
X214166337Y-47163903D01*
X214166343Y-47163904D01*
X214166344Y-47163905D01*
X214221285Y-47178626D01*
X214394592Y-47225063D01*
X214571034Y-47240500D01*
X214629999Y-47245659D01*
X214630000Y-47245659D01*
X214630001Y-47245659D01*
X214688966Y-47240500D01*
X214865408Y-47225063D01*
X215093663Y-47163903D01*
X215307830Y-47064035D01*
X215501401Y-46928495D01*
X215668495Y-46761401D01*
X215798425Y-46575842D01*
X215853002Y-46532217D01*
X215922500Y-46525023D01*
X215984855Y-46556546D01*
X216001575Y-46575842D01*
X216131281Y-46761082D01*
X216131505Y-46761401D01*
X216298599Y-46928495D01*
X216395384Y-46996265D01*
X216492165Y-47064032D01*
X216492167Y-47064033D01*
X216492170Y-47064035D01*
X216706337Y-47163903D01*
X216706343Y-47163904D01*
X216706344Y-47163905D01*
X216761285Y-47178626D01*
X216934592Y-47225063D01*
X217111034Y-47240500D01*
X217169999Y-47245659D01*
X217170000Y-47245659D01*
X217170001Y-47245659D01*
X217228966Y-47240500D01*
X217405408Y-47225063D01*
X217633663Y-47163903D01*
X217847830Y-47064035D01*
X218041401Y-46928495D01*
X218208495Y-46761401D01*
X218338425Y-46575842D01*
X218393002Y-46532217D01*
X218462500Y-46525023D01*
X218524855Y-46556546D01*
X218541575Y-46575842D01*
X218671281Y-46761082D01*
X218671505Y-46761401D01*
X218838599Y-46928495D01*
X218935384Y-46996265D01*
X219032165Y-47064032D01*
X219032167Y-47064033D01*
X219032170Y-47064035D01*
X219246337Y-47163903D01*
X219246343Y-47163904D01*
X219246344Y-47163905D01*
X219301285Y-47178626D01*
X219474592Y-47225063D01*
X219651034Y-47240500D01*
X219709999Y-47245659D01*
X219710000Y-47245659D01*
X219710001Y-47245659D01*
X219768966Y-47240500D01*
X219945408Y-47225063D01*
X220173663Y-47163903D01*
X220387830Y-47064035D01*
X220581401Y-46928495D01*
X220748495Y-46761401D01*
X220878730Y-46575405D01*
X220933307Y-46531781D01*
X221002805Y-46524587D01*
X221065160Y-46556110D01*
X221081879Y-46575405D01*
X221211890Y-46761078D01*
X221378917Y-46928105D01*
X221572421Y-47063600D01*
X221786507Y-47163429D01*
X221786516Y-47163433D01*
X222000000Y-47220634D01*
X222000000Y-46325501D01*
X222107685Y-46374680D01*
X222214237Y-46390000D01*
X222285763Y-46390000D01*
X222392315Y-46374680D01*
X222500000Y-46325501D01*
X222500000Y-47220633D01*
X222713483Y-47163433D01*
X222713492Y-47163429D01*
X222927578Y-47063600D01*
X223121082Y-46928105D01*
X223288105Y-46761082D01*
X223418119Y-46575405D01*
X223472696Y-46531781D01*
X223542195Y-46524588D01*
X223604549Y-46556110D01*
X223621269Y-46575405D01*
X223751505Y-46761401D01*
X223918599Y-46928495D01*
X224015384Y-46996265D01*
X224112165Y-47064032D01*
X224112167Y-47064033D01*
X224112170Y-47064035D01*
X224326337Y-47163903D01*
X224326343Y-47163904D01*
X224326344Y-47163905D01*
X224381285Y-47178626D01*
X224554592Y-47225063D01*
X224731034Y-47240500D01*
X224789999Y-47245659D01*
X224790000Y-47245659D01*
X224790001Y-47245659D01*
X224848966Y-47240500D01*
X225025408Y-47225063D01*
X225253663Y-47163903D01*
X225467830Y-47064035D01*
X225661401Y-46928495D01*
X225828495Y-46761401D01*
X225958425Y-46575842D01*
X226013002Y-46532217D01*
X226082500Y-46525023D01*
X226144855Y-46556546D01*
X226161575Y-46575842D01*
X226291281Y-46761082D01*
X226291505Y-46761401D01*
X226458599Y-46928495D01*
X226555384Y-46996265D01*
X226652165Y-47064032D01*
X226652167Y-47064033D01*
X226652170Y-47064035D01*
X226866337Y-47163903D01*
X226866343Y-47163904D01*
X226866344Y-47163905D01*
X226921285Y-47178626D01*
X227094592Y-47225063D01*
X227271034Y-47240500D01*
X227329999Y-47245659D01*
X227330000Y-47245659D01*
X227330001Y-47245659D01*
X227388966Y-47240500D01*
X227565408Y-47225063D01*
X227793663Y-47163903D01*
X228007830Y-47064035D01*
X228201401Y-46928495D01*
X228368495Y-46761401D01*
X228498425Y-46575842D01*
X228553002Y-46532217D01*
X228622500Y-46525023D01*
X228684855Y-46556546D01*
X228701575Y-46575842D01*
X228831281Y-46761082D01*
X228831505Y-46761401D01*
X228998599Y-46928495D01*
X229095384Y-46996265D01*
X229192165Y-47064032D01*
X229192167Y-47064033D01*
X229192170Y-47064035D01*
X229406337Y-47163903D01*
X229406343Y-47163904D01*
X229406344Y-47163905D01*
X229461285Y-47178626D01*
X229634592Y-47225063D01*
X229811034Y-47240500D01*
X229869999Y-47245659D01*
X229870000Y-47245659D01*
X229870001Y-47245659D01*
X229928966Y-47240500D01*
X230105408Y-47225063D01*
X230333663Y-47163903D01*
X230547830Y-47064035D01*
X230741401Y-46928495D01*
X230908495Y-46761401D01*
X231038425Y-46575842D01*
X231093002Y-46532217D01*
X231162500Y-46525023D01*
X231224855Y-46556546D01*
X231241575Y-46575842D01*
X231371281Y-46761082D01*
X231371505Y-46761401D01*
X231538599Y-46928495D01*
X231635384Y-46996265D01*
X231732165Y-47064032D01*
X231732167Y-47064033D01*
X231732170Y-47064035D01*
X231946337Y-47163903D01*
X231946343Y-47163904D01*
X231946344Y-47163905D01*
X232001285Y-47178626D01*
X232174592Y-47225063D01*
X232351034Y-47240500D01*
X232409999Y-47245659D01*
X232410000Y-47245659D01*
X232410001Y-47245659D01*
X232468966Y-47240500D01*
X232645408Y-47225063D01*
X232873663Y-47163903D01*
X233087830Y-47064035D01*
X233281401Y-46928495D01*
X233448495Y-46761401D01*
X233578425Y-46575842D01*
X233633002Y-46532217D01*
X233702500Y-46525023D01*
X233764855Y-46556546D01*
X233781575Y-46575842D01*
X233911281Y-46761082D01*
X233911505Y-46761401D01*
X234078599Y-46928495D01*
X234175384Y-46996265D01*
X234272165Y-47064032D01*
X234272167Y-47064033D01*
X234272170Y-47064035D01*
X234486337Y-47163903D01*
X234486343Y-47163904D01*
X234486344Y-47163905D01*
X234541285Y-47178626D01*
X234714592Y-47225063D01*
X234891034Y-47240500D01*
X234949999Y-47245659D01*
X234950000Y-47245659D01*
X234950001Y-47245659D01*
X235008966Y-47240500D01*
X235185408Y-47225063D01*
X235413663Y-47163903D01*
X235627830Y-47064035D01*
X235821401Y-46928495D01*
X235988495Y-46761401D01*
X236118425Y-46575842D01*
X236173002Y-46532217D01*
X236242500Y-46525023D01*
X236304855Y-46556546D01*
X236321575Y-46575842D01*
X236451281Y-46761082D01*
X236451505Y-46761401D01*
X236618599Y-46928495D01*
X236715384Y-46996265D01*
X236812165Y-47064032D01*
X236812167Y-47064033D01*
X236812170Y-47064035D01*
X237026337Y-47163903D01*
X237026343Y-47163904D01*
X237026344Y-47163905D01*
X237081285Y-47178626D01*
X237254592Y-47225063D01*
X237431034Y-47240500D01*
X237489999Y-47245659D01*
X237490000Y-47245659D01*
X237490001Y-47245659D01*
X237548966Y-47240500D01*
X237725408Y-47225063D01*
X237953663Y-47163903D01*
X238167830Y-47064035D01*
X238361401Y-46928495D01*
X238528495Y-46761401D01*
X238658730Y-46575405D01*
X238713307Y-46531781D01*
X238782805Y-46524587D01*
X238845160Y-46556110D01*
X238861879Y-46575405D01*
X238991890Y-46761078D01*
X239158917Y-46928105D01*
X239352421Y-47063600D01*
X239566507Y-47163429D01*
X239566516Y-47163433D01*
X239780000Y-47220634D01*
X239780000Y-46325501D01*
X239887685Y-46374680D01*
X239994237Y-46390000D01*
X240065763Y-46390000D01*
X240172315Y-46374680D01*
X240280000Y-46325501D01*
X240280000Y-47220634D01*
X240493483Y-47163433D01*
X240493492Y-47163429D01*
X240707578Y-47063600D01*
X240901082Y-46928105D01*
X241068105Y-46761082D01*
X241203600Y-46567578D01*
X241303429Y-46353492D01*
X241303432Y-46353486D01*
X241360636Y-46140000D01*
X240463686Y-46140000D01*
X240489493Y-46099844D01*
X240530000Y-45961889D01*
X240530000Y-45818111D01*
X240489493Y-45680156D01*
X240463686Y-45640000D01*
X241360636Y-45640000D01*
X241360635Y-45639999D01*
X241303432Y-45426513D01*
X241303429Y-45426507D01*
X241203600Y-45212422D01*
X241203599Y-45212420D01*
X241068113Y-45018926D01*
X241068108Y-45018920D01*
X240901078Y-44851890D01*
X240715405Y-44721879D01*
X240671780Y-44667302D01*
X240666885Y-44620000D01*
X243294551Y-44620000D01*
X243314317Y-44871151D01*
X243373126Y-45116110D01*
X243469533Y-45348859D01*
X243601160Y-45563653D01*
X243601161Y-45563656D01*
X243601164Y-45563659D01*
X243764776Y-45755224D01*
X243913066Y-45881875D01*
X243956343Y-45918838D01*
X243956346Y-45918839D01*
X244171140Y-46050466D01*
X244387296Y-46140000D01*
X244403889Y-46146873D01*
X244648852Y-46205683D01*
X244837118Y-46220500D01*
X244837126Y-46220500D01*
X244962874Y-46220500D01*
X244962882Y-46220500D01*
X245151148Y-46205683D01*
X245396111Y-46146873D01*
X245628859Y-46050466D01*
X245843659Y-45918836D01*
X246035224Y-45755224D01*
X246198836Y-45563659D01*
X246330466Y-45348859D01*
X246426873Y-45116111D01*
X246485683Y-44871148D01*
X246505449Y-44620000D01*
X246485683Y-44368852D01*
X246426873Y-44123889D01*
X246372333Y-43992217D01*
X246330466Y-43891140D01*
X246198839Y-43676346D01*
X246198838Y-43676343D01*
X246139334Y-43606673D01*
X246035224Y-43484776D01*
X245877422Y-43350000D01*
X245843656Y-43321161D01*
X245843653Y-43321160D01*
X245628859Y-43189533D01*
X245396110Y-43093126D01*
X245151151Y-43034317D01*
X244962887Y-43019500D01*
X244962882Y-43019500D01*
X244837118Y-43019500D01*
X244837112Y-43019500D01*
X244648848Y-43034317D01*
X244403889Y-43093126D01*
X244171140Y-43189533D01*
X243956346Y-43321160D01*
X243956343Y-43321161D01*
X243764776Y-43484776D01*
X243601161Y-43676343D01*
X243601160Y-43676346D01*
X243469533Y-43891140D01*
X243373126Y-44123889D01*
X243314317Y-44368848D01*
X243294551Y-44620000D01*
X240666885Y-44620000D01*
X240664588Y-44597804D01*
X240696110Y-44535449D01*
X240715406Y-44518730D01*
X240716279Y-44518119D01*
X240901401Y-44388495D01*
X241068495Y-44221401D01*
X241204035Y-44027830D01*
X241303903Y-43813663D01*
X241365063Y-43585408D01*
X241385659Y-43350000D01*
X241365063Y-43114592D01*
X241303903Y-42886337D01*
X241204035Y-42672171D01*
X241198731Y-42664595D01*
X241068494Y-42478597D01*
X240901402Y-42311506D01*
X240901395Y-42311501D01*
X240707834Y-42175967D01*
X240707830Y-42175965D01*
X240690736Y-42167994D01*
X240493663Y-42076097D01*
X240493659Y-42076096D01*
X240493655Y-42076094D01*
X240265413Y-42014938D01*
X240265403Y-42014936D01*
X240030001Y-41994341D01*
X240029999Y-41994341D01*
X239794596Y-42014936D01*
X239794586Y-42014938D01*
X239566344Y-42076094D01*
X239566335Y-42076098D01*
X239352171Y-42175964D01*
X239352169Y-42175965D01*
X239158597Y-42311505D01*
X238991505Y-42478597D01*
X238861575Y-42664158D01*
X238806998Y-42707783D01*
X238737500Y-42714977D01*
X238675145Y-42683454D01*
X238658425Y-42664158D01*
X238528494Y-42478597D01*
X238361402Y-42311506D01*
X238361395Y-42311501D01*
X238167834Y-42175967D01*
X238167830Y-42175965D01*
X238150736Y-42167994D01*
X237953663Y-42076097D01*
X237953659Y-42076096D01*
X237953655Y-42076094D01*
X237725413Y-42014938D01*
X237725403Y-42014936D01*
X237490001Y-41994341D01*
X237489999Y-41994341D01*
X237254596Y-42014936D01*
X237254586Y-42014938D01*
X237026344Y-42076094D01*
X237026335Y-42076098D01*
X236812171Y-42175964D01*
X236812169Y-42175965D01*
X236618597Y-42311505D01*
X236451505Y-42478597D01*
X236321575Y-42664158D01*
X236266998Y-42707783D01*
X236197500Y-42714977D01*
X236135145Y-42683454D01*
X236118425Y-42664158D01*
X235988494Y-42478597D01*
X235821402Y-42311506D01*
X235821395Y-42311501D01*
X235627834Y-42175967D01*
X235627830Y-42175965D01*
X235610736Y-42167994D01*
X235413663Y-42076097D01*
X235413659Y-42076096D01*
X235413655Y-42076094D01*
X235185413Y-42014938D01*
X235185403Y-42014936D01*
X234950001Y-41994341D01*
X234949999Y-41994341D01*
X234714596Y-42014936D01*
X234714586Y-42014938D01*
X234486344Y-42076094D01*
X234486335Y-42076098D01*
X234272171Y-42175964D01*
X234272169Y-42175965D01*
X234078597Y-42311505D01*
X233911508Y-42478594D01*
X233781269Y-42664595D01*
X233726692Y-42708219D01*
X233657193Y-42715412D01*
X233594839Y-42683890D01*
X233578119Y-42664594D01*
X233448113Y-42478926D01*
X233448108Y-42478920D01*
X233281082Y-42311894D01*
X233087578Y-42176399D01*
X232873492Y-42076570D01*
X232873486Y-42076567D01*
X232660000Y-42019364D01*
X232660000Y-42914498D01*
X232552315Y-42865320D01*
X232445763Y-42850000D01*
X232374237Y-42850000D01*
X232267685Y-42865320D01*
X232160000Y-42914498D01*
X232160000Y-42019364D01*
X232159999Y-42019364D01*
X231946513Y-42076567D01*
X231946507Y-42076570D01*
X231732422Y-42176399D01*
X231732420Y-42176400D01*
X231538926Y-42311886D01*
X231538920Y-42311891D01*
X231371891Y-42478920D01*
X231371890Y-42478922D01*
X231241880Y-42664595D01*
X231187303Y-42708219D01*
X231117804Y-42715412D01*
X231055450Y-42683890D01*
X231038730Y-42664594D01*
X230908494Y-42478597D01*
X230741402Y-42311506D01*
X230741395Y-42311501D01*
X230547834Y-42175967D01*
X230547830Y-42175965D01*
X230530736Y-42167994D01*
X230333663Y-42076097D01*
X230333659Y-42076096D01*
X230333655Y-42076094D01*
X230105413Y-42014938D01*
X230105403Y-42014936D01*
X229870001Y-41994341D01*
X229869999Y-41994341D01*
X229634596Y-42014936D01*
X229634586Y-42014938D01*
X229406344Y-42076094D01*
X229406335Y-42076098D01*
X229192171Y-42175964D01*
X229192169Y-42175965D01*
X228998597Y-42311505D01*
X228831508Y-42478594D01*
X228701269Y-42664595D01*
X228646692Y-42708219D01*
X228577193Y-42715412D01*
X228514839Y-42683890D01*
X228498119Y-42664594D01*
X228368113Y-42478926D01*
X228368108Y-42478920D01*
X228201082Y-42311894D01*
X228007578Y-42176399D01*
X227793492Y-42076570D01*
X227793486Y-42076567D01*
X227580000Y-42019364D01*
X227580000Y-42914498D01*
X227472315Y-42865320D01*
X227365763Y-42850000D01*
X227294237Y-42850000D01*
X227187685Y-42865320D01*
X227080000Y-42914498D01*
X227080000Y-42019364D01*
X227079999Y-42019364D01*
X226866513Y-42076567D01*
X226866507Y-42076570D01*
X226652422Y-42176399D01*
X226652420Y-42176400D01*
X226458926Y-42311886D01*
X226458920Y-42311891D01*
X226291891Y-42478920D01*
X226291890Y-42478922D01*
X226161880Y-42664595D01*
X226107303Y-42708219D01*
X226037804Y-42715412D01*
X225975450Y-42683890D01*
X225958730Y-42664594D01*
X225828494Y-42478597D01*
X225661402Y-42311506D01*
X225661395Y-42311501D01*
X225467834Y-42175967D01*
X225467830Y-42175965D01*
X225450736Y-42167994D01*
X225253663Y-42076097D01*
X225253659Y-42076096D01*
X225253655Y-42076094D01*
X225025413Y-42014938D01*
X225025403Y-42014936D01*
X224790001Y-41994341D01*
X224789999Y-41994341D01*
X224554596Y-42014936D01*
X224554586Y-42014938D01*
X224326344Y-42076094D01*
X224326335Y-42076098D01*
X224112171Y-42175964D01*
X224112169Y-42175965D01*
X223918597Y-42311505D01*
X223751505Y-42478597D01*
X223621575Y-42664158D01*
X223566998Y-42707783D01*
X223497500Y-42714977D01*
X223435145Y-42683454D01*
X223418425Y-42664158D01*
X223288494Y-42478597D01*
X223121402Y-42311506D01*
X223121395Y-42311501D01*
X222927834Y-42175967D01*
X222927830Y-42175965D01*
X222910736Y-42167994D01*
X222713663Y-42076097D01*
X222713659Y-42076096D01*
X222713655Y-42076094D01*
X222485413Y-42014938D01*
X222485403Y-42014936D01*
X222250001Y-41994341D01*
X222249999Y-41994341D01*
X222014596Y-42014936D01*
X222014586Y-42014938D01*
X221786344Y-42076094D01*
X221786335Y-42076098D01*
X221572171Y-42175964D01*
X221572169Y-42175965D01*
X221378597Y-42311505D01*
X221211505Y-42478597D01*
X221081575Y-42664158D01*
X221026998Y-42707783D01*
X220957500Y-42714977D01*
X220895145Y-42683454D01*
X220878425Y-42664158D01*
X220748494Y-42478597D01*
X220581402Y-42311506D01*
X220581395Y-42311501D01*
X220387834Y-42175967D01*
X220387830Y-42175965D01*
X220370736Y-42167994D01*
X220173663Y-42076097D01*
X220173659Y-42076096D01*
X220173655Y-42076094D01*
X219945413Y-42014938D01*
X219945403Y-42014936D01*
X219710001Y-41994341D01*
X219709999Y-41994341D01*
X219474596Y-42014936D01*
X219474586Y-42014938D01*
X219246344Y-42076094D01*
X219246335Y-42076098D01*
X219032171Y-42175964D01*
X219032169Y-42175965D01*
X218838597Y-42311505D01*
X218671505Y-42478597D01*
X218541575Y-42664158D01*
X218486998Y-42707783D01*
X218417500Y-42714977D01*
X218355145Y-42683454D01*
X218338425Y-42664158D01*
X218208494Y-42478597D01*
X218041402Y-42311506D01*
X218041395Y-42311501D01*
X217847834Y-42175967D01*
X217847830Y-42175965D01*
X217830736Y-42167994D01*
X217633663Y-42076097D01*
X217633659Y-42076096D01*
X217633655Y-42076094D01*
X217405413Y-42014938D01*
X217405403Y-42014936D01*
X217170001Y-41994341D01*
X217169999Y-41994341D01*
X216934596Y-42014936D01*
X216934586Y-42014938D01*
X216706344Y-42076094D01*
X216706335Y-42076098D01*
X216492171Y-42175964D01*
X216492169Y-42175965D01*
X216298597Y-42311505D01*
X216131508Y-42478594D01*
X216001269Y-42664595D01*
X215946692Y-42708219D01*
X215877193Y-42715412D01*
X215814839Y-42683890D01*
X215798119Y-42664594D01*
X215668113Y-42478926D01*
X215668108Y-42478920D01*
X215501082Y-42311894D01*
X215307578Y-42176399D01*
X215093492Y-42076570D01*
X215093486Y-42076567D01*
X214880000Y-42019364D01*
X214880000Y-42914498D01*
X214772315Y-42865320D01*
X214665763Y-42850000D01*
X214594237Y-42850000D01*
X214487685Y-42865320D01*
X214380000Y-42914498D01*
X214380000Y-42019364D01*
X214379999Y-42019364D01*
X214166513Y-42076567D01*
X214166507Y-42076570D01*
X213952422Y-42176399D01*
X213952420Y-42176400D01*
X213758926Y-42311886D01*
X213758920Y-42311891D01*
X213591891Y-42478920D01*
X213591890Y-42478922D01*
X213461880Y-42664595D01*
X213407303Y-42708219D01*
X213337804Y-42715412D01*
X213275450Y-42683890D01*
X213258730Y-42664594D01*
X213128494Y-42478597D01*
X212961402Y-42311506D01*
X212961395Y-42311501D01*
X212767834Y-42175967D01*
X212767830Y-42175965D01*
X212750736Y-42167994D01*
X212553663Y-42076097D01*
X212553659Y-42076096D01*
X212553655Y-42076094D01*
X212325413Y-42014938D01*
X212325403Y-42014936D01*
X212090001Y-41994341D01*
X212089999Y-41994341D01*
X211854596Y-42014936D01*
X211854586Y-42014938D01*
X211626344Y-42076094D01*
X211626335Y-42076098D01*
X211412171Y-42175964D01*
X211412169Y-42175965D01*
X211218597Y-42311505D01*
X211051505Y-42478597D01*
X210921575Y-42664158D01*
X210866998Y-42707783D01*
X210797500Y-42714977D01*
X210735145Y-42683454D01*
X210718425Y-42664158D01*
X210588494Y-42478597D01*
X210421402Y-42311506D01*
X210421395Y-42311501D01*
X210227834Y-42175967D01*
X210227830Y-42175965D01*
X210210736Y-42167994D01*
X210013663Y-42076097D01*
X210013659Y-42076096D01*
X210013655Y-42076094D01*
X209785413Y-42014938D01*
X209785403Y-42014936D01*
X209550001Y-41994341D01*
X209549999Y-41994341D01*
X209314596Y-42014936D01*
X209314586Y-42014938D01*
X209086344Y-42076094D01*
X209086335Y-42076098D01*
X208872171Y-42175964D01*
X208872169Y-42175965D01*
X208678597Y-42311505D01*
X208511508Y-42478594D01*
X208381269Y-42664595D01*
X208326692Y-42708219D01*
X208257193Y-42715412D01*
X208194839Y-42683890D01*
X208178119Y-42664594D01*
X208048113Y-42478926D01*
X208048108Y-42478920D01*
X207881082Y-42311894D01*
X207687578Y-42176399D01*
X207473492Y-42076570D01*
X207473486Y-42076567D01*
X207260000Y-42019364D01*
X207260000Y-42914498D01*
X207152315Y-42865320D01*
X207045763Y-42850000D01*
X206974237Y-42850000D01*
X206867685Y-42865320D01*
X206760000Y-42914498D01*
X206760000Y-42019364D01*
X206759999Y-42019364D01*
X206546513Y-42076567D01*
X206546507Y-42076570D01*
X206332422Y-42176399D01*
X206332420Y-42176400D01*
X206138926Y-42311886D01*
X206138920Y-42311891D01*
X205971891Y-42478920D01*
X205971890Y-42478922D01*
X205841880Y-42664595D01*
X205787303Y-42708219D01*
X205717804Y-42715412D01*
X205655450Y-42683890D01*
X205638730Y-42664594D01*
X205508494Y-42478597D01*
X205341402Y-42311506D01*
X205341395Y-42311501D01*
X205147834Y-42175967D01*
X205147830Y-42175965D01*
X205130736Y-42167994D01*
X204933663Y-42076097D01*
X204933659Y-42076096D01*
X204933655Y-42076094D01*
X204705413Y-42014938D01*
X204705403Y-42014936D01*
X204470001Y-41994341D01*
X204469999Y-41994341D01*
X204234596Y-42014936D01*
X204234586Y-42014938D01*
X204006344Y-42076094D01*
X204006335Y-42076098D01*
X203792171Y-42175964D01*
X203792169Y-42175965D01*
X203598597Y-42311505D01*
X203431505Y-42478597D01*
X203301575Y-42664158D01*
X203246998Y-42707783D01*
X203177500Y-42714977D01*
X203115145Y-42683454D01*
X203098425Y-42664158D01*
X202968494Y-42478597D01*
X202801402Y-42311506D01*
X202801395Y-42311501D01*
X202607834Y-42175967D01*
X202607830Y-42175965D01*
X202590736Y-42167994D01*
X202393663Y-42076097D01*
X202393659Y-42076096D01*
X202393655Y-42076094D01*
X202165413Y-42014938D01*
X202165403Y-42014936D01*
X201930001Y-41994341D01*
X201929999Y-41994341D01*
X201694596Y-42014936D01*
X201694586Y-42014938D01*
X201466344Y-42076094D01*
X201466335Y-42076098D01*
X201252171Y-42175964D01*
X201252169Y-42175965D01*
X201058597Y-42311505D01*
X200891505Y-42478597D01*
X200761575Y-42664158D01*
X200706998Y-42707783D01*
X200637500Y-42714977D01*
X200575145Y-42683454D01*
X200558425Y-42664158D01*
X200428494Y-42478597D01*
X200261402Y-42311506D01*
X200261395Y-42311501D01*
X200067834Y-42175967D01*
X200067830Y-42175965D01*
X200050736Y-42167994D01*
X199853663Y-42076097D01*
X199853659Y-42076096D01*
X199853655Y-42076094D01*
X199625413Y-42014938D01*
X199625403Y-42014936D01*
X199390001Y-41994341D01*
X199389999Y-41994341D01*
X199154596Y-42014936D01*
X199154586Y-42014938D01*
X198926344Y-42076094D01*
X198926335Y-42076098D01*
X198712171Y-42175964D01*
X198712169Y-42175965D01*
X198518597Y-42311505D01*
X198351508Y-42478594D01*
X198221269Y-42664595D01*
X198166692Y-42708219D01*
X198097193Y-42715412D01*
X198034839Y-42683890D01*
X198018119Y-42664594D01*
X197888113Y-42478926D01*
X197888108Y-42478920D01*
X197721082Y-42311894D01*
X197527578Y-42176399D01*
X197313492Y-42076570D01*
X197313486Y-42076567D01*
X197100000Y-42019364D01*
X197100000Y-42914498D01*
X196992315Y-42865320D01*
X196885763Y-42850000D01*
X196814237Y-42850000D01*
X196707685Y-42865320D01*
X196600000Y-42914498D01*
X196600000Y-42019364D01*
X196599999Y-42019364D01*
X196386513Y-42076567D01*
X196386507Y-42076570D01*
X196172422Y-42176399D01*
X196172420Y-42176400D01*
X195978926Y-42311886D01*
X195978920Y-42311891D01*
X195811891Y-42478920D01*
X195811890Y-42478922D01*
X195681880Y-42664595D01*
X195627303Y-42708219D01*
X195557804Y-42715412D01*
X195495450Y-42683890D01*
X195478730Y-42664594D01*
X195348494Y-42478597D01*
X195181401Y-42311505D01*
X195116901Y-42266341D01*
X195073276Y-42211764D01*
X195070981Y-42205715D01*
X195070357Y-42203931D01*
X195053748Y-42169442D01*
X195048433Y-42156613D01*
X195035789Y-42120478D01*
X195015426Y-42088070D01*
X195008698Y-42075897D01*
X194992093Y-42041415D01*
X194992090Y-42041411D01*
X194968229Y-42011490D01*
X194960182Y-42000150D01*
X194939816Y-41967738D01*
X194876511Y-41904433D01*
X194812262Y-41840184D01*
X194504259Y-41532181D01*
X194470774Y-41470858D01*
X194475758Y-41401166D01*
X194517630Y-41345233D01*
X194583094Y-41320816D01*
X194591940Y-41320500D01*
X244807290Y-41320500D01*
X244896754Y-41320500D01*
X244903243Y-41320669D01*
X245238405Y-41338235D01*
X245251313Y-41339592D01*
X245579587Y-41391585D01*
X245592270Y-41394280D01*
X245913332Y-41480309D01*
X245925665Y-41484316D01*
X246235971Y-41603432D01*
X246247807Y-41608701D01*
X246543977Y-41759607D01*
X246555191Y-41766083D01*
X246833943Y-41947106D01*
X246844444Y-41954735D01*
X247102749Y-42163907D01*
X247112394Y-42172592D01*
X247347407Y-42407605D01*
X247356092Y-42417250D01*
X247565264Y-42675555D01*
X247572893Y-42686056D01*
X247753913Y-42964802D01*
X247760395Y-42976029D01*
X247869181Y-43189533D01*
X247911293Y-43272182D01*
X247916572Y-43284039D01*
X248035681Y-43594329D01*
X248039692Y-43606673D01*
X248125717Y-43927723D01*
X248128415Y-43940419D01*
X248180407Y-44268686D01*
X248181764Y-44281594D01*
X248199330Y-44616756D01*
X248199500Y-44623246D01*
X248199500Y-71698151D01*
X248179815Y-71765190D01*
X248127011Y-71810945D01*
X248076979Y-71822142D01*
X228822407Y-72051819D01*
X228822407Y-72051820D01*
X228558493Y-95012394D01*
X228547406Y-95976925D01*
X228526952Y-96043734D01*
X228473626Y-96088879D01*
X228423414Y-96099500D01*
X161103246Y-96099500D01*
X161096756Y-96099330D01*
X160761594Y-96081764D01*
X160748686Y-96080407D01*
X160420419Y-96028415D01*
X160407723Y-96025717D01*
X160086673Y-95939692D01*
X160074329Y-95935681D01*
X159764039Y-95816572D01*
X159752182Y-95811293D01*
X159456029Y-95660395D01*
X159444802Y-95653913D01*
X159166056Y-95472893D01*
X159155555Y-95465264D01*
X158897250Y-95256092D01*
X158887605Y-95247407D01*
X158652592Y-95012394D01*
X158643907Y-95002749D01*
X158434735Y-94744444D01*
X158427106Y-94733943D01*
X158405387Y-94700499D01*
X158246083Y-94455191D01*
X158239607Y-94443977D01*
X158088701Y-94147807D01*
X158083432Y-94135971D01*
X157964316Y-93825665D01*
X157960307Y-93813326D01*
X157958166Y-93805337D01*
X157874280Y-93492270D01*
X157871584Y-93479580D01*
X157870728Y-93474178D01*
X157819592Y-93151313D01*
X157818235Y-93138405D01*
X157800670Y-92803243D01*
X157800585Y-92800000D01*
X159494551Y-92800000D01*
X159514317Y-93051151D01*
X159573126Y-93296110D01*
X159669533Y-93528859D01*
X159801160Y-93743653D01*
X159801161Y-93743656D01*
X159853842Y-93805337D01*
X159964776Y-93935224D01*
X160113066Y-94061875D01*
X160156343Y-94098838D01*
X160156346Y-94098839D01*
X160371140Y-94230466D01*
X160557075Y-94307482D01*
X160603889Y-94326873D01*
X160848852Y-94385683D01*
X161037118Y-94400500D01*
X161037126Y-94400500D01*
X161162874Y-94400500D01*
X161162882Y-94400500D01*
X161351148Y-94385683D01*
X161596111Y-94326873D01*
X161828859Y-94230466D01*
X162043659Y-94098836D01*
X162235224Y-93935224D01*
X162398836Y-93743659D01*
X162530466Y-93528859D01*
X162626873Y-93296111D01*
X162670017Y-93116402D01*
X182464547Y-93116402D01*
X182484371Y-93342999D01*
X182484373Y-93343010D01*
X182543243Y-93562717D01*
X182543248Y-93562731D01*
X182639376Y-93768878D01*
X182690487Y-93841872D01*
X183371559Y-93160800D01*
X183384348Y-93241548D01*
X183441872Y-93354445D01*
X183531468Y-93444041D01*
X183644365Y-93501565D01*
X183725112Y-93514353D01*
X183044039Y-94195425D01*
X183117026Y-94246532D01*
X183117034Y-94246536D01*
X183323181Y-94342664D01*
X183323195Y-94342669D01*
X183542902Y-94401539D01*
X183542913Y-94401541D01*
X183769511Y-94421366D01*
X183769515Y-94421366D01*
X183996112Y-94401541D01*
X183996123Y-94401539D01*
X184215830Y-94342669D01*
X184215844Y-94342664D01*
X184421991Y-94246536D01*
X184494984Y-94195424D01*
X183813913Y-93514353D01*
X183894661Y-93501565D01*
X184007558Y-93444041D01*
X184097154Y-93354445D01*
X184154678Y-93241548D01*
X184167466Y-93160800D01*
X184853710Y-93847044D01*
X184902705Y-93856891D01*
X184952888Y-93905506D01*
X184967562Y-93961032D01*
X184968612Y-93960976D01*
X184968659Y-93960971D01*
X184968659Y-93960973D01*
X184968837Y-93960964D01*
X184969014Y-93964276D01*
X184975421Y-94023883D01*
X185025715Y-94158728D01*
X185025719Y-94158735D01*
X185111965Y-94273944D01*
X185111968Y-94273947D01*
X185227177Y-94360193D01*
X185227184Y-94360197D01*
X185362030Y-94410491D01*
X185362029Y-94410491D01*
X185368957Y-94411235D01*
X185421640Y-94416900D01*
X187117385Y-94416899D01*
X187176996Y-94410491D01*
X187311844Y-94360196D01*
X187427059Y-94273946D01*
X187513309Y-94158731D01*
X187563604Y-94023883D01*
X187570013Y-93964273D01*
X187570013Y-93824500D01*
X187589698Y-93757461D01*
X187642502Y-93711706D01*
X187694013Y-93700500D01*
X189815501Y-93700500D01*
X189882540Y-93720185D01*
X189928295Y-93772989D01*
X189939501Y-93824500D01*
X189939501Y-94247876D01*
X189945908Y-94307483D01*
X189996202Y-94442328D01*
X189996206Y-94442335D01*
X190082452Y-94557544D01*
X190082455Y-94557547D01*
X190197664Y-94643793D01*
X190197671Y-94643797D01*
X190332517Y-94694091D01*
X190332516Y-94694091D01*
X190339444Y-94694835D01*
X190392127Y-94700500D01*
X193487872Y-94700499D01*
X193547483Y-94694091D01*
X193682331Y-94643796D01*
X193797546Y-94557546D01*
X193883796Y-94442331D01*
X193934091Y-94307483D01*
X193940500Y-94247873D01*
X193940500Y-93824500D01*
X193960185Y-93757461D01*
X194012989Y-93711706D01*
X194064500Y-93700500D01*
X223332557Y-93700500D01*
X223389968Y-93714591D01*
X223400181Y-93719925D01*
X223426951Y-93733909D01*
X223622582Y-93789886D01*
X223811117Y-93804243D01*
X223825475Y-93805337D01*
X223825476Y-93805337D01*
X224027321Y-93779631D01*
X224027321Y-93779630D01*
X224027328Y-93779630D01*
X224219872Y-93713816D01*
X224395227Y-93610590D01*
X224546213Y-93474179D01*
X224666649Y-93310167D01*
X224751605Y-93125268D01*
X224753663Y-93116402D01*
X224797602Y-92927053D01*
X224800580Y-92809500D01*
X224802756Y-92723636D01*
X224779792Y-92595514D01*
X224766859Y-92523350D01*
X224766857Y-92523345D01*
X224743118Y-92463916D01*
X224691377Y-92334383D01*
X224691372Y-92334376D01*
X224691370Y-92334371D01*
X224579404Y-92164483D01*
X224517438Y-92102517D01*
X224417542Y-92002621D01*
X224415390Y-92000414D01*
X224401938Y-91986263D01*
X224355059Y-91936947D01*
X224306640Y-91903246D01*
X224299120Y-91897575D01*
X224253413Y-91860305D01*
X224253406Y-91860301D01*
X224226441Y-91846216D01*
X224213026Y-91838089D01*
X224188049Y-91820705D01*
X224188046Y-91820703D01*
X224188045Y-91820703D01*
X224188041Y-91820701D01*
X224133845Y-91797443D01*
X224125336Y-91793402D01*
X224073057Y-91766094D01*
X224073046Y-91766090D01*
X224043806Y-91757723D01*
X224029021Y-91752459D01*
X224001058Y-91740459D01*
X223943273Y-91728583D01*
X223934127Y-91726338D01*
X223877423Y-91710113D01*
X223853699Y-91708306D01*
X223847072Y-91707801D01*
X223831533Y-91705622D01*
X223801742Y-91699500D01*
X223801741Y-91699500D01*
X223742759Y-91699500D01*
X223733344Y-91699142D01*
X223730643Y-91698936D01*
X223674524Y-91694662D01*
X223644349Y-91698506D01*
X223628682Y-91699500D01*
X194064499Y-91699500D01*
X193997460Y-91679815D01*
X193951705Y-91627011D01*
X193940499Y-91575500D01*
X193940499Y-91152129D01*
X193940498Y-91152123D01*
X193940497Y-91152116D01*
X193934091Y-91092517D01*
X193883796Y-90957669D01*
X193883795Y-90957668D01*
X193883793Y-90957664D01*
X193797547Y-90842455D01*
X193797544Y-90842452D01*
X193682335Y-90756206D01*
X193682328Y-90756202D01*
X193547482Y-90705908D01*
X193547483Y-90705908D01*
X193487883Y-90699501D01*
X193487881Y-90699500D01*
X193487873Y-90699500D01*
X193487864Y-90699500D01*
X190392129Y-90699500D01*
X190392123Y-90699501D01*
X190332516Y-90705908D01*
X190197671Y-90756202D01*
X190197664Y-90756206D01*
X190082455Y-90842452D01*
X190082452Y-90842455D01*
X189996206Y-90957664D01*
X189996202Y-90957671D01*
X189945908Y-91092517D01*
X189939501Y-91152116D01*
X189939501Y-91152123D01*
X189939500Y-91152135D01*
X189939500Y-91575500D01*
X189919815Y-91642539D01*
X189867011Y-91688294D01*
X189815500Y-91699500D01*
X186700191Y-91699500D01*
X186697051Y-91699460D01*
X186659398Y-91698506D01*
X186609550Y-91697243D01*
X186609549Y-91697243D01*
X186609540Y-91697243D01*
X186551485Y-91707649D01*
X186542156Y-91708958D01*
X186483475Y-91714925D01*
X186454445Y-91724033D01*
X186439207Y-91727773D01*
X186409262Y-91733140D01*
X186409260Y-91733141D01*
X186354467Y-91755026D01*
X186345598Y-91758183D01*
X186289330Y-91775838D01*
X186289322Y-91775841D01*
X186262727Y-91790602D01*
X186248557Y-91797331D01*
X186224226Y-91807051D01*
X186178224Y-91815900D01*
X185421642Y-91815900D01*
X185421636Y-91815901D01*
X185362029Y-91822308D01*
X185227184Y-91872602D01*
X185227177Y-91872606D01*
X185111968Y-91958852D01*
X185111965Y-91958855D01*
X185025719Y-92074064D01*
X185025715Y-92074071D01*
X184975421Y-92208917D01*
X184969014Y-92268516D01*
X184968835Y-92271852D01*
X184967360Y-92271772D01*
X184949328Y-92333184D01*
X184896524Y-92378939D01*
X184853035Y-92386429D01*
X184167466Y-93071998D01*
X184154678Y-92991252D01*
X184097154Y-92878355D01*
X184007558Y-92788759D01*
X183894661Y-92731235D01*
X183813914Y-92718446D01*
X184494985Y-92037374D01*
X184421991Y-91986263D01*
X184215844Y-91890135D01*
X184215830Y-91890130D01*
X183996123Y-91831260D01*
X183996112Y-91831258D01*
X183769515Y-91811434D01*
X183769511Y-91811434D01*
X183542913Y-91831258D01*
X183542902Y-91831260D01*
X183323195Y-91890130D01*
X183323186Y-91890134D01*
X183117029Y-91986266D01*
X183117025Y-91986268D01*
X183044039Y-92037373D01*
X183044039Y-92037374D01*
X183725112Y-92718446D01*
X183644365Y-92731235D01*
X183531468Y-92788759D01*
X183441872Y-92878355D01*
X183384348Y-92991252D01*
X183371559Y-93071998D01*
X182690487Y-92390926D01*
X182690486Y-92390926D01*
X182639381Y-92463912D01*
X182639379Y-92463916D01*
X182543247Y-92670073D01*
X182543243Y-92670082D01*
X182484373Y-92889789D01*
X182484371Y-92889800D01*
X182464547Y-93116397D01*
X182464547Y-93116402D01*
X162670017Y-93116402D01*
X162685683Y-93051148D01*
X162705449Y-92800000D01*
X162685683Y-92548852D01*
X162626873Y-92303889D01*
X162612221Y-92268516D01*
X162530466Y-92071140D01*
X162398839Y-91856346D01*
X162398838Y-91856343D01*
X162345081Y-91793402D01*
X162235224Y-91664776D01*
X162108571Y-91556604D01*
X162043656Y-91501161D01*
X162043653Y-91501160D01*
X161828859Y-91369533D01*
X161596110Y-91273126D01*
X161351151Y-91214317D01*
X161162887Y-91199500D01*
X161162882Y-91199500D01*
X161037118Y-91199500D01*
X161037112Y-91199500D01*
X160848848Y-91214317D01*
X160603889Y-91273126D01*
X160371140Y-91369533D01*
X160156346Y-91501160D01*
X160156343Y-91501161D01*
X159964776Y-91664776D01*
X159801161Y-91856343D01*
X159801160Y-91856346D01*
X159669533Y-92071140D01*
X159573126Y-92303889D01*
X159514317Y-92548848D01*
X159494551Y-92800000D01*
X157800585Y-92800000D01*
X157800500Y-92796753D01*
X157800500Y-88917870D01*
X168619500Y-88917870D01*
X168619501Y-88917876D01*
X168625908Y-88977483D01*
X168676202Y-89112328D01*
X168676206Y-89112335D01*
X168762452Y-89227544D01*
X168762455Y-89227547D01*
X168877664Y-89313793D01*
X168877671Y-89313797D01*
X169012517Y-89364091D01*
X169012516Y-89364091D01*
X169019444Y-89364835D01*
X169072127Y-89370500D01*
X170867872Y-89370499D01*
X170927483Y-89364091D01*
X171062331Y-89313796D01*
X171177546Y-89227546D01*
X171263796Y-89112331D01*
X171267960Y-89101165D01*
X171309829Y-89045234D01*
X171375293Y-89020816D01*
X171384141Y-89020500D01*
X175284089Y-89020500D01*
X175351128Y-89040185D01*
X175396883Y-89092989D01*
X175406827Y-89162147D01*
X175377802Y-89225703D01*
X175358400Y-89243766D01*
X175252812Y-89322809D01*
X175252809Y-89322812D01*
X175166649Y-89437906D01*
X175166645Y-89437913D01*
X175116403Y-89572620D01*
X175116401Y-89572627D01*
X175110000Y-89632155D01*
X175110000Y-90280000D01*
X176026314Y-90280000D01*
X176000507Y-90320156D01*
X175960000Y-90458111D01*
X175960000Y-90601889D01*
X176000507Y-90739844D01*
X176026314Y-90780000D01*
X175110000Y-90780000D01*
X175110000Y-91427844D01*
X175116401Y-91487372D01*
X175116403Y-91487379D01*
X175166645Y-91622086D01*
X175166649Y-91622093D01*
X175252809Y-91737187D01*
X175252812Y-91737190D01*
X175367906Y-91823350D01*
X175367913Y-91823354D01*
X175502620Y-91873596D01*
X175502627Y-91873598D01*
X175562155Y-91879999D01*
X175562172Y-91880000D01*
X176210000Y-91880000D01*
X176210000Y-90965501D01*
X176317685Y-91014680D01*
X176424237Y-91030000D01*
X176495763Y-91030000D01*
X176602315Y-91014680D01*
X176710000Y-90965501D01*
X176710000Y-91880000D01*
X177357828Y-91880000D01*
X177357844Y-91879999D01*
X177417372Y-91873598D01*
X177417379Y-91873596D01*
X177552086Y-91823354D01*
X177552093Y-91823350D01*
X177667187Y-91737190D01*
X177667190Y-91737187D01*
X177753350Y-91622093D01*
X177753354Y-91622086D01*
X177803596Y-91487379D01*
X177803598Y-91487372D01*
X177809999Y-91427844D01*
X177810000Y-91427827D01*
X177810000Y-90780000D01*
X176893686Y-90780000D01*
X176919493Y-90739844D01*
X176960000Y-90601889D01*
X176960000Y-90458111D01*
X176919493Y-90320156D01*
X176893686Y-90280000D01*
X177810000Y-90280000D01*
X177810000Y-89632172D01*
X177809999Y-89632155D01*
X177803598Y-89572627D01*
X177803596Y-89572620D01*
X177753354Y-89437913D01*
X177753350Y-89437906D01*
X177667190Y-89322812D01*
X177667187Y-89322809D01*
X177561600Y-89243766D01*
X177519729Y-89187832D01*
X177514745Y-89118141D01*
X177548231Y-89056818D01*
X177609554Y-89023334D01*
X177635911Y-89020500D01*
X185921908Y-89020500D01*
X185962113Y-89028763D01*
X185962460Y-89027659D01*
X185968451Y-89029539D01*
X185968454Y-89029539D01*
X185968455Y-89029540D01*
X186167772Y-89070500D01*
X186277242Y-89070500D01*
X186286656Y-89070857D01*
X186309431Y-89072592D01*
X186345476Y-89075337D01*
X186345476Y-89075336D01*
X186345477Y-89075337D01*
X186432307Y-89064278D01*
X186435334Y-89063931D01*
X186522438Y-89055074D01*
X186524118Y-89054546D01*
X186545576Y-89049852D01*
X186547328Y-89049630D01*
X186630190Y-89021305D01*
X186633032Y-89020373D01*
X186716588Y-88994159D01*
X186718122Y-88993307D01*
X186738208Y-88984384D01*
X186739872Y-88983816D01*
X186815356Y-88939380D01*
X186817947Y-88937899D01*
X186894502Y-88895409D01*
X186895826Y-88894271D01*
X186913715Y-88881480D01*
X186915227Y-88880591D01*
X186980202Y-88821886D01*
X186982510Y-88819854D01*
X187048895Y-88762866D01*
X187049971Y-88761474D01*
X187064912Y-88745355D01*
X187066214Y-88744179D01*
X187118002Y-88673650D01*
X187119853Y-88671194D01*
X187173448Y-88601958D01*
X187174225Y-88600373D01*
X187185614Y-88581576D01*
X187186649Y-88580167D01*
X187223187Y-88500645D01*
X187224482Y-88497915D01*
X187263060Y-88419271D01*
X187263497Y-88417578D01*
X187270874Y-88396858D01*
X187271605Y-88395269D01*
X187291412Y-88309909D01*
X187292105Y-88307087D01*
X187314063Y-88222285D01*
X187314152Y-88220535D01*
X187317202Y-88198779D01*
X187317603Y-88197054D01*
X187319820Y-88109513D01*
X187319934Y-88106480D01*
X187324369Y-88019064D01*
X187324104Y-88017334D01*
X187322712Y-87995392D01*
X187322757Y-87993637D01*
X187307316Y-87907491D01*
X187306803Y-87904399D01*
X187305481Y-87895772D01*
X187293556Y-87817929D01*
X187292941Y-87816270D01*
X187287167Y-87795074D01*
X187286858Y-87793348D01*
X187254369Y-87712014D01*
X187253293Y-87709218D01*
X187222886Y-87627113D01*
X187221950Y-87625612D01*
X187212033Y-87606023D01*
X187211379Y-87604386D01*
X187211378Y-87604383D01*
X187163214Y-87531305D01*
X187161533Y-87528681D01*
X187145377Y-87502761D01*
X187126621Y-87435456D01*
X187147230Y-87368695D01*
X187182787Y-87333362D01*
X187233010Y-87300551D01*
X187410171Y-87137463D01*
X187558072Y-86947439D01*
X187672679Y-86735664D01*
X187750866Y-86507913D01*
X187790500Y-86270399D01*
X187790500Y-86029601D01*
X187750866Y-85792087D01*
X187672679Y-85564336D01*
X187558072Y-85352561D01*
X187410171Y-85162537D01*
X187233010Y-84999449D01*
X187209070Y-84983808D01*
X187163714Y-84930664D01*
X187154290Y-84861433D01*
X187183791Y-84798096D01*
X187209070Y-84776191D01*
X187233010Y-84760551D01*
X187410171Y-84597463D01*
X187558072Y-84407439D01*
X187672679Y-84195664D01*
X187750866Y-83967913D01*
X187790500Y-83730399D01*
X187790500Y-83489601D01*
X187750866Y-83252087D01*
X187746966Y-83240728D01*
X187684250Y-83058042D01*
X187672679Y-83024336D01*
X187558072Y-82812561D01*
X187446844Y-82669654D01*
X187421202Y-82604663D01*
X187434768Y-82536123D01*
X187483237Y-82485798D01*
X187501367Y-82477311D01*
X187532088Y-82465853D01*
X187532093Y-82465850D01*
X187647187Y-82379690D01*
X187647190Y-82379687D01*
X187733350Y-82264593D01*
X187733354Y-82264586D01*
X187783596Y-82129879D01*
X187783598Y-82129872D01*
X187789999Y-82070344D01*
X187790000Y-82070327D01*
X187790000Y-81320000D01*
X186784852Y-81320000D01*
X186833559Y-81182953D01*
X186843877Y-81032114D01*
X186813116Y-80884085D01*
X186779910Y-80820000D01*
X187790000Y-80820000D01*
X187790000Y-80069672D01*
X187789999Y-80069655D01*
X187783598Y-80010127D01*
X187783596Y-80010120D01*
X187733354Y-79875413D01*
X187733350Y-79875406D01*
X187647190Y-79760312D01*
X187647187Y-79760309D01*
X187532093Y-79674149D01*
X187532086Y-79674145D01*
X187397379Y-79623903D01*
X187397372Y-79623901D01*
X187337844Y-79617500D01*
X186540000Y-79617500D01*
X186540000Y-80578316D01*
X186511181Y-80560791D01*
X186365596Y-80520000D01*
X186252378Y-80520000D01*
X186140217Y-80535416D01*
X186040000Y-80578946D01*
X186040000Y-79617500D01*
X185242155Y-79617500D01*
X185182627Y-79623901D01*
X185182620Y-79623903D01*
X185047913Y-79674145D01*
X185047906Y-79674149D01*
X184932812Y-79760309D01*
X184932809Y-79760312D01*
X184846649Y-79875406D01*
X184846645Y-79875413D01*
X184796403Y-80010120D01*
X184796401Y-80010127D01*
X184790000Y-80069655D01*
X184790000Y-80820000D01*
X185795148Y-80820000D01*
X185746441Y-80957047D01*
X185736123Y-81107886D01*
X185766884Y-81255915D01*
X185800090Y-81320000D01*
X184790000Y-81320000D01*
X184790000Y-82070344D01*
X184796401Y-82129872D01*
X184796403Y-82129879D01*
X184846645Y-82264586D01*
X184846649Y-82264593D01*
X184932809Y-82379687D01*
X184932811Y-82379689D01*
X184941555Y-82386235D01*
X184983425Y-82442169D01*
X184988408Y-82511861D01*
X184954921Y-82573183D01*
X184893597Y-82606667D01*
X184867242Y-82609500D01*
X182835483Y-82609500D01*
X182768444Y-82589815D01*
X182722689Y-82537011D01*
X182712745Y-82467853D01*
X182741770Y-82404297D01*
X182783078Y-82373118D01*
X182982480Y-82280135D01*
X183055471Y-82229024D01*
X182374400Y-81547953D01*
X182455148Y-81535165D01*
X182568045Y-81477641D01*
X182657641Y-81388045D01*
X182715165Y-81275148D01*
X182727953Y-81194400D01*
X183409024Y-81875471D01*
X183460136Y-81802478D01*
X183556264Y-81596331D01*
X183556269Y-81596317D01*
X183615139Y-81376610D01*
X183615141Y-81376599D01*
X183634966Y-81150002D01*
X183634966Y-81149997D01*
X183615141Y-80923400D01*
X183615139Y-80923389D01*
X183556269Y-80703682D01*
X183556264Y-80703668D01*
X183460136Y-80497521D01*
X183460132Y-80497513D01*
X183409025Y-80424526D01*
X182727953Y-81105598D01*
X182715165Y-81024852D01*
X182657641Y-80911955D01*
X182568045Y-80822359D01*
X182455148Y-80764835D01*
X182374401Y-80752046D01*
X183055472Y-80070974D01*
X182982478Y-80019863D01*
X182776331Y-79923735D01*
X182776317Y-79923730D01*
X182556610Y-79864860D01*
X182556599Y-79864858D01*
X182330002Y-79845034D01*
X182329998Y-79845034D01*
X182103400Y-79864858D01*
X182103389Y-79864860D01*
X181883682Y-79923730D01*
X181883673Y-79923734D01*
X181677516Y-80019866D01*
X181677512Y-80019868D01*
X181604526Y-80070973D01*
X181604526Y-80070974D01*
X182285599Y-80752046D01*
X182204852Y-80764835D01*
X182091955Y-80822359D01*
X182002359Y-80911955D01*
X181944835Y-81024852D01*
X181932046Y-81105598D01*
X181250974Y-80424526D01*
X181250973Y-80424526D01*
X181199868Y-80497512D01*
X181199866Y-80497516D01*
X181103734Y-80703673D01*
X181103730Y-80703682D01*
X181044860Y-80923389D01*
X181044858Y-80923400D01*
X181025034Y-81149997D01*
X181025034Y-81150002D01*
X181044858Y-81376599D01*
X181044860Y-81376610D01*
X181103730Y-81596317D01*
X181103735Y-81596331D01*
X181199863Y-81802478D01*
X181250974Y-81875472D01*
X181932046Y-81194400D01*
X181944835Y-81275148D01*
X182002359Y-81388045D01*
X182091955Y-81477641D01*
X182204852Y-81535165D01*
X182285599Y-81547953D01*
X181604526Y-82229025D01*
X181677513Y-82280132D01*
X181677521Y-82280136D01*
X181834031Y-82353118D01*
X181886471Y-82399290D01*
X181905623Y-82466484D01*
X181885407Y-82533365D01*
X181832242Y-82578699D01*
X181781627Y-82589500D01*
X180429257Y-82589500D01*
X180277560Y-82604925D01*
X180083420Y-82665837D01*
X180083405Y-82665844D01*
X179905500Y-82764589D01*
X179905495Y-82764592D01*
X179751106Y-82897132D01*
X179751104Y-82897134D01*
X179626554Y-83058037D01*
X179626553Y-83058040D01*
X179536940Y-83240728D01*
X179485937Y-83437714D01*
X179475631Y-83640936D01*
X179506442Y-83842063D01*
X179506445Y-83842075D01*
X179577111Y-84032881D01*
X179577115Y-84032888D01*
X179684745Y-84205567D01*
X179684747Y-84205569D01*
X179684748Y-84205571D01*
X179824941Y-84353053D01*
X179903080Y-84407439D01*
X179991949Y-84469294D01*
X179991950Y-84469294D01*
X179991951Y-84469295D01*
X180178942Y-84549540D01*
X180378259Y-84590500D01*
X182172387Y-84590500D01*
X182206498Y-84595283D01*
X182222582Y-84599886D01*
X182252913Y-84602195D01*
X182268469Y-84604378D01*
X182274573Y-84605633D01*
X182336275Y-84638415D01*
X182370458Y-84699352D01*
X182366270Y-84769096D01*
X182325040Y-84825504D01*
X182260409Y-84850620D01*
X182103312Y-84864364D01*
X182103302Y-84864366D01*
X181883511Y-84923258D01*
X181883502Y-84923261D01*
X181677267Y-85019431D01*
X181677265Y-85019432D01*
X181490858Y-85149954D01*
X181329954Y-85310858D01*
X181199432Y-85497265D01*
X181199431Y-85497267D01*
X181103261Y-85703502D01*
X181103258Y-85703511D01*
X181044366Y-85923302D01*
X181044364Y-85923313D01*
X181024532Y-86149998D01*
X181024532Y-86150001D01*
X181044364Y-86376686D01*
X181044366Y-86376697D01*
X181103258Y-86596488D01*
X181103261Y-86596497D01*
X181168157Y-86735665D01*
X181199432Y-86802734D01*
X181214587Y-86824378D01*
X181236914Y-86890583D01*
X181219904Y-86958350D01*
X181168956Y-87006163D01*
X181113012Y-87019500D01*
X171384141Y-87019500D01*
X171317102Y-86999815D01*
X171271347Y-86947011D01*
X171267969Y-86938859D01*
X171263796Y-86927669D01*
X171263793Y-86927665D01*
X171263793Y-86927664D01*
X171177547Y-86812455D01*
X171177544Y-86812452D01*
X171062335Y-86726206D01*
X171062328Y-86726202D01*
X170927482Y-86675908D01*
X170927483Y-86675908D01*
X170867883Y-86669501D01*
X170867881Y-86669500D01*
X170867873Y-86669500D01*
X170867864Y-86669500D01*
X169072129Y-86669500D01*
X169072123Y-86669501D01*
X169012516Y-86675908D01*
X168877671Y-86726202D01*
X168877664Y-86726206D01*
X168762455Y-86812452D01*
X168762452Y-86812455D01*
X168676206Y-86927664D01*
X168676202Y-86927671D01*
X168625908Y-87062517D01*
X168619501Y-87122116D01*
X168619500Y-87122135D01*
X168619500Y-88917870D01*
X157800500Y-88917870D01*
X157800500Y-85100002D01*
X174755034Y-85100002D01*
X174774858Y-85326599D01*
X174774860Y-85326610D01*
X174833730Y-85546317D01*
X174833735Y-85546331D01*
X174929863Y-85752478D01*
X174980974Y-85825472D01*
X175662046Y-85144400D01*
X175674835Y-85225148D01*
X175732359Y-85338045D01*
X175821955Y-85427641D01*
X175934852Y-85485165D01*
X176015599Y-85497953D01*
X175334526Y-86179025D01*
X175407513Y-86230132D01*
X175407521Y-86230136D01*
X175613668Y-86326264D01*
X175613682Y-86326269D01*
X175833389Y-86385139D01*
X175833400Y-86385141D01*
X176059998Y-86404966D01*
X176060002Y-86404966D01*
X176286599Y-86385141D01*
X176286610Y-86385139D01*
X176506317Y-86326269D01*
X176506331Y-86326264D01*
X176712478Y-86230136D01*
X176785471Y-86179024D01*
X176104400Y-85497953D01*
X176185148Y-85485165D01*
X176298045Y-85427641D01*
X176387641Y-85338045D01*
X176445165Y-85225148D01*
X176457953Y-85144400D01*
X177139024Y-85825471D01*
X177190136Y-85752478D01*
X177286264Y-85546331D01*
X177286269Y-85546317D01*
X177345139Y-85326610D01*
X177345141Y-85326599D01*
X177364966Y-85100002D01*
X177364966Y-85099997D01*
X177345141Y-84873400D01*
X177345139Y-84873389D01*
X177286269Y-84653682D01*
X177286264Y-84653668D01*
X177190136Y-84447521D01*
X177190132Y-84447513D01*
X177139025Y-84374526D01*
X176457953Y-85055598D01*
X176445165Y-84974852D01*
X176387641Y-84861955D01*
X176298045Y-84772359D01*
X176185148Y-84714835D01*
X176104401Y-84702046D01*
X176785472Y-84020974D01*
X176712478Y-83969863D01*
X176506331Y-83873735D01*
X176506317Y-83873730D01*
X176286610Y-83814860D01*
X176286599Y-83814858D01*
X176060002Y-83795034D01*
X176059998Y-83795034D01*
X175833400Y-83814858D01*
X175833389Y-83814860D01*
X175613682Y-83873730D01*
X175613673Y-83873734D01*
X175407516Y-83969866D01*
X175407512Y-83969868D01*
X175334526Y-84020973D01*
X175334526Y-84020974D01*
X176015599Y-84702046D01*
X175934852Y-84714835D01*
X175821955Y-84772359D01*
X175732359Y-84861955D01*
X175674835Y-84974852D01*
X175662046Y-85055598D01*
X174980974Y-84374526D01*
X174980973Y-84374526D01*
X174929868Y-84447512D01*
X174929866Y-84447516D01*
X174833734Y-84653673D01*
X174833730Y-84653682D01*
X174774860Y-84873389D01*
X174774858Y-84873400D01*
X174755034Y-85099997D01*
X174755034Y-85100002D01*
X157800500Y-85100002D01*
X157800500Y-75484085D01*
X157820185Y-75417046D01*
X157872989Y-75371291D01*
X157942147Y-75361347D01*
X157998811Y-75384819D01*
X158117664Y-75473793D01*
X158117671Y-75473797D01*
X158252517Y-75524091D01*
X158252516Y-75524091D01*
X158259444Y-75524835D01*
X158312127Y-75530500D01*
X160107872Y-75530499D01*
X160167483Y-75524091D01*
X160302331Y-75473796D01*
X160417546Y-75387546D01*
X160503796Y-75272331D01*
X160554091Y-75137483D01*
X160555837Y-75121242D01*
X160582574Y-75056694D01*
X160639967Y-75016846D01*
X160679126Y-75010500D01*
X162548999Y-75010500D01*
X162616038Y-75030185D01*
X162661793Y-75082989D01*
X162671737Y-75152147D01*
X162642712Y-75215703D01*
X162601404Y-75246882D01*
X162467267Y-75309431D01*
X162467265Y-75309432D01*
X162280858Y-75439954D01*
X162119954Y-75600858D01*
X161989432Y-75787265D01*
X161989431Y-75787267D01*
X161893261Y-75993502D01*
X161893258Y-75993511D01*
X161834366Y-76213302D01*
X161834364Y-76213313D01*
X161814532Y-76439998D01*
X161814532Y-76440001D01*
X161834364Y-76666686D01*
X161834366Y-76666697D01*
X161893258Y-76886488D01*
X161893261Y-76886497D01*
X161989431Y-77092732D01*
X161989432Y-77092734D01*
X162119954Y-77279141D01*
X162280858Y-77440045D01*
X162280861Y-77440047D01*
X162467266Y-77570568D01*
X162673504Y-77666739D01*
X162893308Y-77725635D01*
X163055230Y-77739801D01*
X163119998Y-77745468D01*
X163120000Y-77745468D01*
X163120002Y-77745468D01*
X163176673Y-77740509D01*
X163346692Y-77725635D01*
X163566496Y-77666739D01*
X163772734Y-77570568D01*
X163783649Y-77562924D01*
X163849856Y-77540598D01*
X163854772Y-77540500D01*
X165514846Y-77540500D01*
X165581885Y-77560185D01*
X165627640Y-77612989D01*
X165638488Y-77673915D01*
X165624662Y-77855474D01*
X165624662Y-77855477D01*
X165650368Y-78057321D01*
X165650370Y-78057329D01*
X165716183Y-78249870D01*
X165716189Y-78249882D01*
X165819406Y-78425221D01*
X165819411Y-78425228D01*
X165955820Y-78576212D01*
X166119828Y-78696646D01*
X166119835Y-78696650D01*
X166262113Y-78762023D01*
X166304732Y-78781605D01*
X166385718Y-78800398D01*
X166502945Y-78827603D01*
X166508232Y-78827736D01*
X166706363Y-78832757D01*
X166819689Y-78812444D01*
X166841565Y-78810500D01*
X169472073Y-78810500D01*
X169508067Y-78815838D01*
X169523967Y-78820662D01*
X169674620Y-78835500D01*
X169674623Y-78835500D01*
X170225377Y-78835500D01*
X170225380Y-78835500D01*
X170376033Y-78820662D01*
X170569341Y-78762023D01*
X170747494Y-78666798D01*
X170903647Y-78538647D01*
X171031798Y-78382494D01*
X171127023Y-78204341D01*
X171185662Y-78011033D01*
X171185974Y-78007870D01*
X179339500Y-78007870D01*
X179339501Y-78007876D01*
X179345908Y-78067483D01*
X179396202Y-78202328D01*
X179396206Y-78202335D01*
X179482452Y-78317544D01*
X179482455Y-78317547D01*
X179597664Y-78403793D01*
X179597671Y-78403797D01*
X179732517Y-78454091D01*
X179732516Y-78454091D01*
X179739444Y-78454835D01*
X179792127Y-78460500D01*
X181587872Y-78460499D01*
X181647483Y-78454091D01*
X181782331Y-78403796D01*
X181897546Y-78317546D01*
X181983796Y-78202331D01*
X181987960Y-78191165D01*
X182029829Y-78135234D01*
X182095293Y-78110816D01*
X182104141Y-78110500D01*
X183982438Y-78110500D01*
X184016550Y-78115284D01*
X184067582Y-78129886D01*
X184256117Y-78144243D01*
X184270475Y-78145337D01*
X184270476Y-78145337D01*
X184270477Y-78145337D01*
X184472320Y-78119631D01*
X184472320Y-78119630D01*
X184472327Y-78119630D01*
X184664872Y-78053816D01*
X184840227Y-77950590D01*
X184991213Y-77814179D01*
X185111649Y-77650167D01*
X185196605Y-77465268D01*
X185242602Y-77267053D01*
X185247756Y-77063636D01*
X185224582Y-76934341D01*
X185211859Y-76863350D01*
X185211857Y-76863345D01*
X185136377Y-76674383D01*
X185136372Y-76674376D01*
X185136370Y-76674371D01*
X185024404Y-76504483D01*
X184989421Y-76469500D01*
X184932541Y-76412620D01*
X184930388Y-76410411D01*
X184870062Y-76346950D01*
X184870061Y-76346949D01*
X184870060Y-76346948D01*
X184870059Y-76346947D01*
X184821640Y-76313246D01*
X184814120Y-76307575D01*
X184768413Y-76270305D01*
X184768406Y-76270301D01*
X184741441Y-76256216D01*
X184728026Y-76248089D01*
X184703049Y-76230705D01*
X184703046Y-76230703D01*
X184703045Y-76230703D01*
X184703041Y-76230701D01*
X184648845Y-76207443D01*
X184640336Y-76203402D01*
X184588057Y-76176094D01*
X184588046Y-76176090D01*
X184558806Y-76167723D01*
X184544021Y-76162459D01*
X184516058Y-76150459D01*
X184458273Y-76138583D01*
X184449127Y-76136338D01*
X184392423Y-76120113D01*
X184368699Y-76118306D01*
X184362072Y-76117801D01*
X184346533Y-76115622D01*
X184316742Y-76109500D01*
X184316741Y-76109500D01*
X184257759Y-76109500D01*
X184248344Y-76109142D01*
X184245643Y-76108936D01*
X184189524Y-76104662D01*
X184159349Y-76108506D01*
X184143682Y-76109500D01*
X182104141Y-76109500D01*
X182037102Y-76089815D01*
X181991347Y-76037011D01*
X181987969Y-76028859D01*
X181983796Y-76017669D01*
X181983793Y-76017665D01*
X181983793Y-76017664D01*
X181897547Y-75902455D01*
X181897544Y-75902452D01*
X181782335Y-75816206D01*
X181782328Y-75816202D01*
X181647482Y-75765908D01*
X181647483Y-75765908D01*
X181587883Y-75759501D01*
X181587881Y-75759500D01*
X181587873Y-75759500D01*
X181587864Y-75759500D01*
X179792129Y-75759500D01*
X179792123Y-75759501D01*
X179732516Y-75765908D01*
X179597671Y-75816202D01*
X179597664Y-75816206D01*
X179482455Y-75902452D01*
X179482452Y-75902455D01*
X179396206Y-76017664D01*
X179396202Y-76017671D01*
X179345908Y-76152517D01*
X179339501Y-76212116D01*
X179339500Y-76212135D01*
X179339500Y-78007870D01*
X171185974Y-78007870D01*
X171205462Y-77810000D01*
X171185662Y-77608967D01*
X171127023Y-77415659D01*
X171031798Y-77237506D01*
X171031794Y-77237502D01*
X171029631Y-77233454D01*
X171015389Y-77165051D01*
X171029631Y-77116546D01*
X171031794Y-77112498D01*
X171031798Y-77112494D01*
X171127023Y-76934341D01*
X171185662Y-76741033D01*
X171205462Y-76540000D01*
X171185662Y-76338967D01*
X171152756Y-76230493D01*
X171152134Y-76160629D01*
X171189382Y-76101516D01*
X171252676Y-76071925D01*
X171271418Y-76070500D01*
X175379630Y-76070500D01*
X175432034Y-76082117D01*
X175613504Y-76166739D01*
X175613510Y-76166740D01*
X175613511Y-76166741D01*
X175666415Y-76180916D01*
X175833308Y-76225635D01*
X175995230Y-76239801D01*
X176059998Y-76245468D01*
X176060000Y-76245468D01*
X176060002Y-76245468D01*
X176116673Y-76240509D01*
X176286692Y-76225635D01*
X176506496Y-76166739D01*
X176712734Y-76070568D01*
X176899139Y-75940047D01*
X177060047Y-75779139D01*
X177190568Y-75592734D01*
X177286739Y-75386496D01*
X177345635Y-75166692D01*
X177365468Y-74940000D01*
X177345635Y-74713308D01*
X177286739Y-74493504D01*
X177190568Y-74287266D01*
X177135193Y-74208181D01*
X177070384Y-74115623D01*
X177048057Y-74049416D01*
X177065068Y-73981649D01*
X177116016Y-73933837D01*
X177171959Y-73920500D01*
X189816000Y-73920500D01*
X189883039Y-73940185D01*
X189928794Y-73992989D01*
X189940000Y-74044500D01*
X189940000Y-74950000D01*
X191280671Y-74950000D01*
X191240000Y-75115005D01*
X191240000Y-75284995D01*
X191280671Y-75450000D01*
X189940000Y-75450000D01*
X189940000Y-76747844D01*
X189946401Y-76807372D01*
X189946403Y-76807379D01*
X189996645Y-76942086D01*
X189996649Y-76942093D01*
X190082809Y-77057187D01*
X190082812Y-77057190D01*
X190197906Y-77143350D01*
X190197913Y-77143354D01*
X190332620Y-77193596D01*
X190332627Y-77193598D01*
X190392155Y-77199999D01*
X190392172Y-77200000D01*
X191690000Y-77200000D01*
X191690000Y-75853837D01*
X191771249Y-75884651D01*
X191897660Y-75900000D01*
X191982340Y-75900000D01*
X192108751Y-75884651D01*
X192190000Y-75853837D01*
X192190000Y-77200000D01*
X193487828Y-77200000D01*
X193487844Y-77199999D01*
X193547372Y-77193598D01*
X193547379Y-77193596D01*
X193682086Y-77143354D01*
X193682093Y-77143350D01*
X193797187Y-77057190D01*
X193797190Y-77057187D01*
X193883350Y-76942093D01*
X193883354Y-76942086D01*
X193933596Y-76807379D01*
X193933598Y-76807372D01*
X193939999Y-76747844D01*
X193940000Y-76747827D01*
X193940000Y-75450000D01*
X192599329Y-75450000D01*
X192640000Y-75284995D01*
X192640000Y-75115005D01*
X192599329Y-74950000D01*
X193940000Y-74950000D01*
X193940000Y-74044500D01*
X193959685Y-73977461D01*
X194012489Y-73931706D01*
X194064000Y-73920500D01*
X203615079Y-73920500D01*
X203622566Y-73920725D01*
X203682606Y-73924358D01*
X203741782Y-73913513D01*
X203749181Y-73912387D01*
X203808872Y-73905140D01*
X203808875Y-73905138D01*
X203813079Y-73904103D01*
X203842754Y-73900500D01*
X203850192Y-73900500D01*
X203850194Y-73900500D01*
X203850196Y-73900499D01*
X203850200Y-73900499D01*
X203958903Y-73875688D01*
X204026061Y-73860360D01*
X204188587Y-73782091D01*
X204294252Y-73697826D01*
X205930605Y-72061471D01*
X205991926Y-72027988D01*
X206061617Y-72032972D01*
X206117551Y-72074844D01*
X206138059Y-72117061D01*
X206196094Y-72333655D01*
X206196096Y-72333659D01*
X206196097Y-72333663D01*
X206290703Y-72536546D01*
X206295965Y-72547830D01*
X206295967Y-72547834D01*
X206387458Y-72678495D01*
X206431505Y-72741401D01*
X206598599Y-72908495D01*
X206675750Y-72962517D01*
X206792165Y-73044032D01*
X206792167Y-73044033D01*
X206792170Y-73044035D01*
X207006337Y-73143903D01*
X207234592Y-73205063D01*
X207411034Y-73220500D01*
X207469999Y-73225659D01*
X207470000Y-73225659D01*
X207470001Y-73225659D01*
X207528966Y-73220500D01*
X207705408Y-73205063D01*
X207933663Y-73143903D01*
X208147830Y-73044035D01*
X208341401Y-72908495D01*
X208508495Y-72741401D01*
X208628861Y-72569501D01*
X208638425Y-72555842D01*
X208693002Y-72512217D01*
X208762500Y-72505023D01*
X208824855Y-72536546D01*
X208841575Y-72555842D01*
X208971500Y-72741395D01*
X208971505Y-72741401D01*
X209138599Y-72908495D01*
X209215750Y-72962517D01*
X209332165Y-73044032D01*
X209332167Y-73044033D01*
X209332170Y-73044035D01*
X209546337Y-73143903D01*
X209774592Y-73205063D01*
X209951034Y-73220500D01*
X210009999Y-73225659D01*
X210010000Y-73225659D01*
X210010001Y-73225659D01*
X210068966Y-73220500D01*
X210245408Y-73205063D01*
X210473663Y-73143903D01*
X210687830Y-73044035D01*
X210881401Y-72908495D01*
X211003329Y-72786566D01*
X211064648Y-72753084D01*
X211134340Y-72758068D01*
X211190274Y-72799939D01*
X211207189Y-72830917D01*
X211256202Y-72962328D01*
X211256206Y-72962335D01*
X211342452Y-73077544D01*
X211342455Y-73077547D01*
X211457664Y-73163793D01*
X211457671Y-73163797D01*
X211592517Y-73214091D01*
X211592516Y-73214091D01*
X211599444Y-73214835D01*
X211652127Y-73220500D01*
X213447872Y-73220499D01*
X213507483Y-73214091D01*
X213642331Y-73163796D01*
X213757546Y-73077546D01*
X213843796Y-72962331D01*
X213894091Y-72827483D01*
X213900500Y-72767873D01*
X213900499Y-70972128D01*
X213894942Y-70920433D01*
X213894091Y-70912516D01*
X213843797Y-70777671D01*
X213843793Y-70777664D01*
X213757547Y-70662455D01*
X213757544Y-70662452D01*
X213642335Y-70576206D01*
X213642328Y-70576202D01*
X213507483Y-70525908D01*
X213461243Y-70520937D01*
X213396693Y-70494199D01*
X213378413Y-70467870D01*
X214989500Y-70467870D01*
X214989501Y-70467876D01*
X214995908Y-70527483D01*
X215046202Y-70662328D01*
X215046206Y-70662335D01*
X215132452Y-70777544D01*
X215132455Y-70777547D01*
X215247664Y-70863793D01*
X215247671Y-70863797D01*
X215382517Y-70914091D01*
X215382516Y-70914091D01*
X215383642Y-70914212D01*
X215442127Y-70920500D01*
X217237872Y-70920499D01*
X217297483Y-70914091D01*
X217432331Y-70863796D01*
X217547546Y-70777546D01*
X217633796Y-70662331D01*
X217682810Y-70530916D01*
X217724681Y-70474984D01*
X217790145Y-70450566D01*
X217858418Y-70465417D01*
X217886673Y-70486569D01*
X218008599Y-70608495D01*
X218085662Y-70662455D01*
X218202165Y-70744032D01*
X218202167Y-70744033D01*
X218202170Y-70744035D01*
X218416337Y-70843903D01*
X218644592Y-70905063D01*
X218821034Y-70920500D01*
X218879999Y-70925659D01*
X218880000Y-70925659D01*
X218880001Y-70925659D01*
X218938966Y-70920500D01*
X219115408Y-70905063D01*
X219343663Y-70843903D01*
X219557830Y-70744035D01*
X219751401Y-70608495D01*
X219918495Y-70441401D01*
X220048425Y-70255842D01*
X220103002Y-70212217D01*
X220172500Y-70205023D01*
X220234855Y-70236546D01*
X220251575Y-70255842D01*
X220381500Y-70441395D01*
X220381505Y-70441401D01*
X220548599Y-70608495D01*
X220625662Y-70662455D01*
X220742165Y-70744032D01*
X220742167Y-70744033D01*
X220742170Y-70744035D01*
X220956337Y-70843903D01*
X221184592Y-70905063D01*
X221361034Y-70920500D01*
X221419999Y-70925659D01*
X221420000Y-70925659D01*
X221420001Y-70925659D01*
X221478966Y-70920500D01*
X221655408Y-70905063D01*
X221883663Y-70843903D01*
X222097830Y-70744035D01*
X222291401Y-70608495D01*
X222458495Y-70441401D01*
X222588425Y-70255842D01*
X222643002Y-70212217D01*
X222712500Y-70205023D01*
X222774855Y-70236546D01*
X222791575Y-70255842D01*
X222921500Y-70441395D01*
X222921505Y-70441401D01*
X223088599Y-70608495D01*
X223165662Y-70662455D01*
X223282165Y-70744032D01*
X223282167Y-70744033D01*
X223282170Y-70744035D01*
X223496337Y-70843903D01*
X223724592Y-70905063D01*
X223901034Y-70920500D01*
X223959999Y-70925659D01*
X223960000Y-70925659D01*
X223960001Y-70925659D01*
X224018966Y-70920500D01*
X224195408Y-70905063D01*
X224423663Y-70843903D01*
X224637830Y-70744035D01*
X224831401Y-70608495D01*
X224998495Y-70441401D01*
X225128730Y-70255405D01*
X225183307Y-70211781D01*
X225252805Y-70204587D01*
X225315160Y-70236110D01*
X225331879Y-70255405D01*
X225461890Y-70441078D01*
X225628917Y-70608105D01*
X225822421Y-70743600D01*
X226036507Y-70843429D01*
X226036516Y-70843433D01*
X226250000Y-70900634D01*
X226250000Y-70005501D01*
X226357685Y-70054680D01*
X226464237Y-70070000D01*
X226535763Y-70070000D01*
X226642315Y-70054680D01*
X226750000Y-70005501D01*
X226750000Y-70900633D01*
X226963483Y-70843433D01*
X226963492Y-70843429D01*
X227177578Y-70743600D01*
X227371082Y-70608105D01*
X227538105Y-70441082D01*
X227668119Y-70255405D01*
X227722696Y-70211781D01*
X227792195Y-70204588D01*
X227854549Y-70236110D01*
X227871269Y-70255405D01*
X228001505Y-70441401D01*
X228168599Y-70608495D01*
X228245662Y-70662455D01*
X228362165Y-70744032D01*
X228362167Y-70744033D01*
X228362170Y-70744035D01*
X228576337Y-70843903D01*
X228804592Y-70905063D01*
X228981034Y-70920500D01*
X229039999Y-70925659D01*
X229040000Y-70925659D01*
X229040001Y-70925659D01*
X229098966Y-70920500D01*
X229275408Y-70905063D01*
X229503663Y-70843903D01*
X229717830Y-70744035D01*
X229911401Y-70608495D01*
X230078495Y-70441401D01*
X230214035Y-70247830D01*
X230313903Y-70033663D01*
X230375063Y-69805408D01*
X230395659Y-69570000D01*
X230375063Y-69334592D01*
X230313903Y-69106337D01*
X230214035Y-68892171D01*
X230213299Y-68891119D01*
X230078494Y-68698597D01*
X229911402Y-68531506D01*
X229911395Y-68531501D01*
X229898650Y-68522577D01*
X229854689Y-68491795D01*
X229717834Y-68395967D01*
X229717830Y-68395965D01*
X229657428Y-68367799D01*
X229503663Y-68296097D01*
X229503659Y-68296096D01*
X229503655Y-68296094D01*
X229275413Y-68234938D01*
X229275403Y-68234936D01*
X229040001Y-68214341D01*
X229039999Y-68214341D01*
X228804596Y-68234936D01*
X228804586Y-68234938D01*
X228576344Y-68296094D01*
X228576335Y-68296098D01*
X228362171Y-68395964D01*
X228362169Y-68395965D01*
X228168597Y-68531505D01*
X228001508Y-68698594D01*
X227871269Y-68884595D01*
X227816692Y-68928219D01*
X227747193Y-68935412D01*
X227684839Y-68903890D01*
X227668119Y-68884594D01*
X227538113Y-68698926D01*
X227538108Y-68698920D01*
X227371082Y-68531894D01*
X227177578Y-68396399D01*
X226963492Y-68296570D01*
X226963486Y-68296567D01*
X226750000Y-68239364D01*
X226750000Y-69134498D01*
X226642315Y-69085320D01*
X226535763Y-69070000D01*
X226464237Y-69070000D01*
X226357685Y-69085320D01*
X226250000Y-69134498D01*
X226250000Y-68239364D01*
X226249999Y-68239364D01*
X226036513Y-68296567D01*
X226036507Y-68296570D01*
X225822422Y-68396399D01*
X225822420Y-68396400D01*
X225628926Y-68531886D01*
X225628920Y-68531891D01*
X225461891Y-68698920D01*
X225461890Y-68698922D01*
X225331880Y-68884595D01*
X225277303Y-68928219D01*
X225207804Y-68935412D01*
X225145450Y-68903890D01*
X225128730Y-68884594D01*
X224998494Y-68698597D01*
X224831402Y-68531506D01*
X224831395Y-68531501D01*
X224818650Y-68522577D01*
X224774689Y-68491795D01*
X224637834Y-68395967D01*
X224637830Y-68395965D01*
X224577428Y-68367799D01*
X224423663Y-68296097D01*
X224423659Y-68296096D01*
X224423655Y-68296094D01*
X224195413Y-68234938D01*
X224195403Y-68234936D01*
X223960001Y-68214341D01*
X223959999Y-68214341D01*
X223724596Y-68234936D01*
X223724586Y-68234938D01*
X223496344Y-68296094D01*
X223496335Y-68296098D01*
X223282171Y-68395964D01*
X223282169Y-68395965D01*
X223088597Y-68531505D01*
X222921505Y-68698597D01*
X222791575Y-68884158D01*
X222736998Y-68927783D01*
X222667500Y-68934977D01*
X222605145Y-68903454D01*
X222588425Y-68884158D01*
X222458494Y-68698597D01*
X222291402Y-68531506D01*
X222291395Y-68531501D01*
X222278650Y-68522577D01*
X222234689Y-68491795D01*
X222097834Y-68395967D01*
X222097830Y-68395965D01*
X222037428Y-68367799D01*
X221883663Y-68296097D01*
X221883659Y-68296096D01*
X221883655Y-68296094D01*
X221655413Y-68234938D01*
X221655403Y-68234936D01*
X221420001Y-68214341D01*
X221419999Y-68214341D01*
X221184596Y-68234936D01*
X221184586Y-68234938D01*
X220956344Y-68296094D01*
X220956335Y-68296098D01*
X220742171Y-68395964D01*
X220742169Y-68395965D01*
X220548597Y-68531505D01*
X220381505Y-68698597D01*
X220251575Y-68884158D01*
X220196998Y-68927783D01*
X220127500Y-68934977D01*
X220065145Y-68903454D01*
X220048425Y-68884158D01*
X219918494Y-68698597D01*
X219751402Y-68531506D01*
X219751395Y-68531501D01*
X219738650Y-68522577D01*
X219694689Y-68491795D01*
X219557834Y-68395967D01*
X219557830Y-68395965D01*
X219497428Y-68367799D01*
X219343663Y-68296097D01*
X219343659Y-68296096D01*
X219343655Y-68296094D01*
X219115413Y-68234938D01*
X219115403Y-68234936D01*
X218880001Y-68214341D01*
X218879999Y-68214341D01*
X218644596Y-68234936D01*
X218644586Y-68234938D01*
X218416344Y-68296094D01*
X218416335Y-68296098D01*
X218202171Y-68395964D01*
X218202169Y-68395965D01*
X218008600Y-68531503D01*
X217886673Y-68653430D01*
X217825350Y-68686914D01*
X217755658Y-68681930D01*
X217699725Y-68640058D01*
X217682810Y-68609081D01*
X217633797Y-68477671D01*
X217633793Y-68477664D01*
X217547547Y-68362455D01*
X217547544Y-68362452D01*
X217432335Y-68276206D01*
X217432328Y-68276202D01*
X217297482Y-68225908D01*
X217297483Y-68225908D01*
X217237883Y-68219501D01*
X217237881Y-68219500D01*
X217237873Y-68219500D01*
X217237864Y-68219500D01*
X215442129Y-68219500D01*
X215442123Y-68219501D01*
X215382516Y-68225908D01*
X215247671Y-68276202D01*
X215247664Y-68276206D01*
X215132455Y-68362452D01*
X215132452Y-68362455D01*
X215046206Y-68477664D01*
X215046202Y-68477671D01*
X214995908Y-68612517D01*
X214989501Y-68672116D01*
X214989500Y-68672135D01*
X214989500Y-70467870D01*
X213378413Y-70467870D01*
X213356845Y-70436806D01*
X213350500Y-70397648D01*
X213350500Y-70244499D01*
X213370185Y-70177460D01*
X213422989Y-70131705D01*
X213474500Y-70120499D01*
X214157871Y-70120499D01*
X214157872Y-70120499D01*
X214217483Y-70114091D01*
X214352331Y-70063796D01*
X214467546Y-69977546D01*
X214553796Y-69862331D01*
X214604091Y-69727483D01*
X214610500Y-69667873D01*
X214610499Y-67972128D01*
X214604091Y-67912517D01*
X214588662Y-67871151D01*
X214553797Y-67777671D01*
X214553793Y-67777664D01*
X214467547Y-67662455D01*
X214467544Y-67662452D01*
X214410836Y-67620000D01*
X243294551Y-67620000D01*
X243314317Y-67871151D01*
X243373126Y-68116110D01*
X243469533Y-68348859D01*
X243601160Y-68563653D01*
X243601161Y-68563656D01*
X243639958Y-68609081D01*
X243764776Y-68755224D01*
X243892834Y-68864596D01*
X243956343Y-68918838D01*
X243956345Y-68918838D01*
X243961240Y-68921838D01*
X244171140Y-69050466D01*
X244386427Y-69139640D01*
X244403889Y-69146873D01*
X244648852Y-69205683D01*
X244837118Y-69220500D01*
X244837126Y-69220500D01*
X244962874Y-69220500D01*
X244962882Y-69220500D01*
X245151148Y-69205683D01*
X245396111Y-69146873D01*
X245628859Y-69050466D01*
X245843659Y-68918836D01*
X246035224Y-68755224D01*
X246198836Y-68563659D01*
X246330466Y-68348859D01*
X246426873Y-68116111D01*
X246485683Y-67871148D01*
X246505449Y-67620000D01*
X246485683Y-67368852D01*
X246426873Y-67123889D01*
X246424906Y-67119141D01*
X246330466Y-66891140D01*
X246198839Y-66676346D01*
X246198838Y-66676343D01*
X246161875Y-66633066D01*
X246035224Y-66484776D01*
X245848200Y-66325042D01*
X245843656Y-66321161D01*
X245843653Y-66321160D01*
X245628859Y-66189533D01*
X245396110Y-66093126D01*
X245151151Y-66034317D01*
X244962887Y-66019500D01*
X244962882Y-66019500D01*
X244837118Y-66019500D01*
X244837112Y-66019500D01*
X244648848Y-66034317D01*
X244403889Y-66093126D01*
X244171140Y-66189533D01*
X243956346Y-66321160D01*
X243956343Y-66321161D01*
X243764776Y-66484776D01*
X243601161Y-66676343D01*
X243601160Y-66676346D01*
X243469533Y-66891140D01*
X243373126Y-67123889D01*
X243314317Y-67368848D01*
X243294551Y-67620000D01*
X214410836Y-67620000D01*
X214352335Y-67576206D01*
X214352328Y-67576202D01*
X214217482Y-67525908D01*
X214217483Y-67525908D01*
X214157883Y-67519501D01*
X214157881Y-67519500D01*
X214157873Y-67519500D01*
X214157865Y-67519500D01*
X213805054Y-67519500D01*
X213738015Y-67499815D01*
X213692260Y-67447011D01*
X213682316Y-67377853D01*
X213711341Y-67314297D01*
X213770119Y-67276523D01*
X213772961Y-67275725D01*
X213797119Y-67269251D01*
X213806496Y-67266739D01*
X214012734Y-67170568D01*
X214199139Y-67040047D01*
X214360047Y-66879139D01*
X214490568Y-66692734D01*
X214517618Y-66634724D01*
X214563790Y-66582285D01*
X214630983Y-66563133D01*
X214697865Y-66583348D01*
X214742382Y-66634725D01*
X214769429Y-66692728D01*
X214769432Y-66692734D01*
X214899954Y-66879141D01*
X215060858Y-67040045D01*
X215060861Y-67040047D01*
X215247266Y-67170568D01*
X215453504Y-67266739D01*
X215453509Y-67266740D01*
X215453511Y-67266741D01*
X215503163Y-67280045D01*
X215673308Y-67325635D01*
X215833294Y-67339632D01*
X215899998Y-67345468D01*
X215900000Y-67345468D01*
X215900002Y-67345468D01*
X215956807Y-67340498D01*
X216126692Y-67325635D01*
X216346496Y-67266739D01*
X216552734Y-67170568D01*
X216739139Y-67040047D01*
X216900047Y-66879139D01*
X217030568Y-66692734D01*
X217057618Y-66634724D01*
X217103790Y-66582285D01*
X217170983Y-66563133D01*
X217237865Y-66583348D01*
X217282382Y-66634725D01*
X217309429Y-66692728D01*
X217309432Y-66692734D01*
X217439954Y-66879141D01*
X217600858Y-67040045D01*
X217600861Y-67040047D01*
X217787266Y-67170568D01*
X217993504Y-67266739D01*
X217993509Y-67266740D01*
X217993511Y-67266741D01*
X218043163Y-67280045D01*
X218213308Y-67325635D01*
X218373294Y-67339632D01*
X218439998Y-67345468D01*
X218440000Y-67345468D01*
X218440002Y-67345468D01*
X218496807Y-67340498D01*
X218666692Y-67325635D01*
X218886496Y-67266739D01*
X219092734Y-67170568D01*
X219279139Y-67040047D01*
X219440047Y-66879139D01*
X219570568Y-66692734D01*
X219597618Y-66634724D01*
X219643790Y-66582285D01*
X219710983Y-66563133D01*
X219777865Y-66583348D01*
X219822382Y-66634725D01*
X219849429Y-66692728D01*
X219849432Y-66692734D01*
X219979954Y-66879141D01*
X220140858Y-67040045D01*
X220140861Y-67040047D01*
X220327266Y-67170568D01*
X220533504Y-67266739D01*
X220533509Y-67266740D01*
X220533511Y-67266741D01*
X220583163Y-67280045D01*
X220753308Y-67325635D01*
X220913294Y-67339632D01*
X220979998Y-67345468D01*
X220980000Y-67345468D01*
X220980002Y-67345468D01*
X221036807Y-67340498D01*
X221206692Y-67325635D01*
X221426496Y-67266739D01*
X221632734Y-67170568D01*
X221819139Y-67040047D01*
X221980047Y-66879139D01*
X222110568Y-66692734D01*
X222137618Y-66634724D01*
X222183790Y-66582285D01*
X222250983Y-66563133D01*
X222317865Y-66583348D01*
X222362382Y-66634725D01*
X222389429Y-66692728D01*
X222389432Y-66692734D01*
X222519954Y-66879141D01*
X222680858Y-67040045D01*
X222680861Y-67040047D01*
X222867266Y-67170568D01*
X223073504Y-67266739D01*
X223073509Y-67266740D01*
X223073511Y-67266741D01*
X223123163Y-67280045D01*
X223293308Y-67325635D01*
X223453294Y-67339632D01*
X223519998Y-67345468D01*
X223520000Y-67345468D01*
X223520002Y-67345468D01*
X223576807Y-67340498D01*
X223746692Y-67325635D01*
X223966496Y-67266739D01*
X224172734Y-67170568D01*
X224359139Y-67040047D01*
X224520047Y-66879139D01*
X224650568Y-66692734D01*
X224677618Y-66634724D01*
X224723790Y-66582285D01*
X224790983Y-66563133D01*
X224857865Y-66583348D01*
X224902382Y-66634725D01*
X224929429Y-66692728D01*
X224929432Y-66692734D01*
X225059954Y-66879141D01*
X225220858Y-67040045D01*
X225220861Y-67040047D01*
X225407266Y-67170568D01*
X225613504Y-67266739D01*
X225613509Y-67266740D01*
X225613511Y-67266741D01*
X225663163Y-67280045D01*
X225833308Y-67325635D01*
X225993294Y-67339632D01*
X226059998Y-67345468D01*
X226060000Y-67345468D01*
X226060002Y-67345468D01*
X226116807Y-67340498D01*
X226286692Y-67325635D01*
X226506496Y-67266739D01*
X226712734Y-67170568D01*
X226899139Y-67040047D01*
X227060047Y-66879139D01*
X227190568Y-66692734D01*
X227217618Y-66634724D01*
X227263790Y-66582285D01*
X227330983Y-66563133D01*
X227397865Y-66583348D01*
X227442382Y-66634725D01*
X227469429Y-66692728D01*
X227469432Y-66692734D01*
X227599954Y-66879141D01*
X227760858Y-67040045D01*
X227760861Y-67040047D01*
X227947266Y-67170568D01*
X228153504Y-67266739D01*
X228153509Y-67266740D01*
X228153511Y-67266741D01*
X228203163Y-67280045D01*
X228373308Y-67325635D01*
X228533294Y-67339632D01*
X228599998Y-67345468D01*
X228600000Y-67345468D01*
X228600002Y-67345468D01*
X228656807Y-67340498D01*
X228826692Y-67325635D01*
X229046496Y-67266739D01*
X229252734Y-67170568D01*
X229439139Y-67040047D01*
X229600047Y-66879139D01*
X229730568Y-66692734D01*
X229757618Y-66634724D01*
X229803790Y-66582285D01*
X229870983Y-66563133D01*
X229937865Y-66583348D01*
X229982382Y-66634725D01*
X230009429Y-66692728D01*
X230009432Y-66692734D01*
X230139954Y-66879141D01*
X230300858Y-67040045D01*
X230300861Y-67040047D01*
X230487266Y-67170568D01*
X230693504Y-67266739D01*
X230693509Y-67266740D01*
X230693511Y-67266741D01*
X230743163Y-67280045D01*
X230913308Y-67325635D01*
X231073294Y-67339632D01*
X231139998Y-67345468D01*
X231140000Y-67345468D01*
X231140002Y-67345468D01*
X231196807Y-67340498D01*
X231366692Y-67325635D01*
X231586496Y-67266739D01*
X231792734Y-67170568D01*
X231979139Y-67040047D01*
X232140047Y-66879139D01*
X232270568Y-66692734D01*
X232297618Y-66634724D01*
X232343790Y-66582285D01*
X232410983Y-66563133D01*
X232477865Y-66583348D01*
X232522382Y-66634725D01*
X232549429Y-66692728D01*
X232549432Y-66692734D01*
X232679954Y-66879141D01*
X232840858Y-67040045D01*
X232840861Y-67040047D01*
X233027266Y-67170568D01*
X233233504Y-67266739D01*
X233233509Y-67266740D01*
X233233511Y-67266741D01*
X233283163Y-67280045D01*
X233453308Y-67325635D01*
X233613294Y-67339632D01*
X233679998Y-67345468D01*
X233680000Y-67345468D01*
X233680002Y-67345468D01*
X233736807Y-67340498D01*
X233906692Y-67325635D01*
X234126496Y-67266739D01*
X234332734Y-67170568D01*
X234519139Y-67040047D01*
X234680047Y-66879139D01*
X234810568Y-66692734D01*
X234906739Y-66486496D01*
X234965635Y-66266692D01*
X234985468Y-66040000D01*
X234983674Y-66019500D01*
X234979179Y-65968111D01*
X234965635Y-65813308D01*
X234906739Y-65593504D01*
X234810568Y-65387266D01*
X234680047Y-65200861D01*
X234680045Y-65200858D01*
X234519141Y-65039954D01*
X234332734Y-64909432D01*
X234332732Y-64909431D01*
X234126497Y-64813261D01*
X234126488Y-64813258D01*
X233906697Y-64754366D01*
X233906693Y-64754365D01*
X233906692Y-64754365D01*
X233906691Y-64754364D01*
X233906686Y-64754364D01*
X233680002Y-64734532D01*
X233679998Y-64734532D01*
X233453313Y-64754364D01*
X233453302Y-64754366D01*
X233233511Y-64813258D01*
X233233502Y-64813261D01*
X233027267Y-64909431D01*
X233027265Y-64909432D01*
X232840858Y-65039954D01*
X232679954Y-65200858D01*
X232549432Y-65387265D01*
X232549431Y-65387267D01*
X232547530Y-65391344D01*
X232524442Y-65440858D01*
X232522382Y-65445275D01*
X232476209Y-65497714D01*
X232409016Y-65516866D01*
X232342135Y-65496650D01*
X232297618Y-65445275D01*
X232295560Y-65440861D01*
X232270568Y-65387266D01*
X232140047Y-65200861D01*
X232140045Y-65200858D01*
X231979141Y-65039954D01*
X231792734Y-64909432D01*
X231792732Y-64909431D01*
X231586497Y-64813261D01*
X231586488Y-64813258D01*
X231366697Y-64754366D01*
X231366693Y-64754365D01*
X231366692Y-64754365D01*
X231366691Y-64754364D01*
X231366686Y-64754364D01*
X231140002Y-64734532D01*
X231139998Y-64734532D01*
X230913313Y-64754364D01*
X230913302Y-64754366D01*
X230693511Y-64813258D01*
X230693502Y-64813261D01*
X230487267Y-64909431D01*
X230487265Y-64909432D01*
X230300858Y-65039954D01*
X230139954Y-65200858D01*
X230009432Y-65387265D01*
X230009431Y-65387267D01*
X230007530Y-65391344D01*
X229984442Y-65440858D01*
X229982382Y-65445275D01*
X229936209Y-65497714D01*
X229869016Y-65516866D01*
X229802135Y-65496650D01*
X229757618Y-65445275D01*
X229755560Y-65440861D01*
X229730568Y-65387266D01*
X229600047Y-65200861D01*
X229600045Y-65200858D01*
X229439141Y-65039954D01*
X229252734Y-64909432D01*
X229252732Y-64909431D01*
X229046497Y-64813261D01*
X229046488Y-64813258D01*
X228826697Y-64754366D01*
X228826693Y-64754365D01*
X228826692Y-64754365D01*
X228826691Y-64754364D01*
X228826686Y-64754364D01*
X228600002Y-64734532D01*
X228599998Y-64734532D01*
X228373313Y-64754364D01*
X228373302Y-64754366D01*
X228153511Y-64813258D01*
X228153502Y-64813261D01*
X227947267Y-64909431D01*
X227947265Y-64909432D01*
X227760858Y-65039954D01*
X227599954Y-65200858D01*
X227469432Y-65387265D01*
X227469431Y-65387267D01*
X227467530Y-65391344D01*
X227444442Y-65440858D01*
X227442382Y-65445275D01*
X227396209Y-65497714D01*
X227329016Y-65516866D01*
X227262135Y-65496650D01*
X227217618Y-65445275D01*
X227215560Y-65440861D01*
X227190568Y-65387266D01*
X227060047Y-65200861D01*
X227060045Y-65200858D01*
X226899141Y-65039954D01*
X226712734Y-64909432D01*
X226712732Y-64909431D01*
X226506497Y-64813261D01*
X226506488Y-64813258D01*
X226286697Y-64754366D01*
X226286693Y-64754365D01*
X226286692Y-64754365D01*
X226286691Y-64754364D01*
X226286686Y-64754364D01*
X226060002Y-64734532D01*
X226059998Y-64734532D01*
X225833313Y-64754364D01*
X225833302Y-64754366D01*
X225613511Y-64813258D01*
X225613502Y-64813261D01*
X225407267Y-64909431D01*
X225407265Y-64909432D01*
X225220858Y-65039954D01*
X225059954Y-65200858D01*
X224929432Y-65387265D01*
X224929431Y-65387267D01*
X224927530Y-65391344D01*
X224904442Y-65440858D01*
X224902382Y-65445275D01*
X224856209Y-65497714D01*
X224789016Y-65516866D01*
X224722135Y-65496650D01*
X224677618Y-65445275D01*
X224675560Y-65440861D01*
X224650568Y-65387266D01*
X224520047Y-65200861D01*
X224520045Y-65200858D01*
X224359141Y-65039954D01*
X224172734Y-64909432D01*
X224172732Y-64909431D01*
X223966497Y-64813261D01*
X223966488Y-64813258D01*
X223746697Y-64754366D01*
X223746693Y-64754365D01*
X223746692Y-64754365D01*
X223746691Y-64754364D01*
X223746686Y-64754364D01*
X223520002Y-64734532D01*
X223519998Y-64734532D01*
X223293313Y-64754364D01*
X223293302Y-64754366D01*
X223073511Y-64813258D01*
X223073502Y-64813261D01*
X222867267Y-64909431D01*
X222867265Y-64909432D01*
X222680858Y-65039954D01*
X222519954Y-65200858D01*
X222389432Y-65387265D01*
X222389431Y-65387267D01*
X222387530Y-65391344D01*
X222364442Y-65440858D01*
X222362382Y-65445275D01*
X222316209Y-65497714D01*
X222249016Y-65516866D01*
X222182135Y-65496650D01*
X222137618Y-65445275D01*
X222135560Y-65440861D01*
X222110568Y-65387266D01*
X221980047Y-65200861D01*
X221980045Y-65200858D01*
X221819141Y-65039954D01*
X221632734Y-64909432D01*
X221632732Y-64909431D01*
X221426497Y-64813261D01*
X221426488Y-64813258D01*
X221206697Y-64754366D01*
X221206693Y-64754365D01*
X221206692Y-64754365D01*
X221206691Y-64754364D01*
X221206686Y-64754364D01*
X220980002Y-64734532D01*
X220979998Y-64734532D01*
X220753313Y-64754364D01*
X220753302Y-64754366D01*
X220533511Y-64813258D01*
X220533502Y-64813261D01*
X220327267Y-64909431D01*
X220327265Y-64909432D01*
X220140858Y-65039954D01*
X219979954Y-65200858D01*
X219849432Y-65387265D01*
X219849431Y-65387267D01*
X219847530Y-65391344D01*
X219824442Y-65440858D01*
X219822382Y-65445275D01*
X219776209Y-65497714D01*
X219709016Y-65516866D01*
X219642135Y-65496650D01*
X219597618Y-65445275D01*
X219595560Y-65440861D01*
X219570568Y-65387266D01*
X219440047Y-65200861D01*
X219440045Y-65200858D01*
X219279141Y-65039954D01*
X219092734Y-64909432D01*
X219092732Y-64909431D01*
X218886497Y-64813261D01*
X218886488Y-64813258D01*
X218666697Y-64754366D01*
X218666693Y-64754365D01*
X218666692Y-64754365D01*
X218666691Y-64754364D01*
X218666686Y-64754364D01*
X218440002Y-64734532D01*
X218439998Y-64734532D01*
X218213313Y-64754364D01*
X218213302Y-64754366D01*
X217993511Y-64813258D01*
X217993502Y-64813261D01*
X217787267Y-64909431D01*
X217787265Y-64909432D01*
X217600858Y-65039954D01*
X217439954Y-65200858D01*
X217309432Y-65387265D01*
X217309431Y-65387267D01*
X217307530Y-65391344D01*
X217284442Y-65440858D01*
X217282382Y-65445275D01*
X217236209Y-65497714D01*
X217169016Y-65516866D01*
X217102135Y-65496650D01*
X217057618Y-65445275D01*
X217055560Y-65440861D01*
X217030568Y-65387266D01*
X216900047Y-65200861D01*
X216900045Y-65200858D01*
X216739141Y-65039954D01*
X216552734Y-64909432D01*
X216552732Y-64909431D01*
X216346497Y-64813261D01*
X216346488Y-64813258D01*
X216126697Y-64754366D01*
X216126693Y-64754365D01*
X216126692Y-64754365D01*
X216126691Y-64754364D01*
X216126686Y-64754364D01*
X215900002Y-64734532D01*
X215899998Y-64734532D01*
X215673313Y-64754364D01*
X215673302Y-64754366D01*
X215453511Y-64813258D01*
X215453502Y-64813261D01*
X215247267Y-64909431D01*
X215247265Y-64909432D01*
X215060858Y-65039954D01*
X214899954Y-65200858D01*
X214769432Y-65387265D01*
X214769431Y-65387267D01*
X214767530Y-65391344D01*
X214744442Y-65440858D01*
X214742382Y-65445275D01*
X214696209Y-65497714D01*
X214629016Y-65516866D01*
X214562135Y-65496650D01*
X214517618Y-65445275D01*
X214515560Y-65440861D01*
X214490568Y-65387266D01*
X214360047Y-65200861D01*
X214360045Y-65200858D01*
X214199141Y-65039954D01*
X214012734Y-64909432D01*
X214012732Y-64909431D01*
X213806497Y-64813261D01*
X213806488Y-64813258D01*
X213586697Y-64754366D01*
X213586693Y-64754365D01*
X213586692Y-64754365D01*
X213586691Y-64754364D01*
X213586686Y-64754364D01*
X213360002Y-64734532D01*
X213359998Y-64734532D01*
X213133313Y-64754364D01*
X213133302Y-64754366D01*
X212913511Y-64813258D01*
X212913502Y-64813261D01*
X212707267Y-64909431D01*
X212707265Y-64909432D01*
X212520858Y-65039954D01*
X212359954Y-65200858D01*
X212229432Y-65387265D01*
X212229431Y-65387267D01*
X212227530Y-65391344D01*
X212204442Y-65440858D01*
X212202382Y-65445275D01*
X212156209Y-65497714D01*
X212089016Y-65516866D01*
X212022135Y-65496650D01*
X211977618Y-65445275D01*
X211975560Y-65440861D01*
X211950568Y-65387266D01*
X211820047Y-65200861D01*
X211820045Y-65200858D01*
X211659141Y-65039954D01*
X211472734Y-64909432D01*
X211472732Y-64909431D01*
X211266497Y-64813261D01*
X211266488Y-64813258D01*
X211046697Y-64754366D01*
X211046693Y-64754365D01*
X211046692Y-64754365D01*
X211046691Y-64754364D01*
X211046686Y-64754364D01*
X210820002Y-64734532D01*
X210819998Y-64734532D01*
X210593313Y-64754364D01*
X210593302Y-64754366D01*
X210373511Y-64813258D01*
X210373502Y-64813261D01*
X210167267Y-64909431D01*
X210167265Y-64909432D01*
X209980858Y-65039954D01*
X209819954Y-65200858D01*
X209689432Y-65387265D01*
X209689431Y-65387267D01*
X209687530Y-65391344D01*
X209664442Y-65440858D01*
X209662382Y-65445275D01*
X209616209Y-65497714D01*
X209549016Y-65516866D01*
X209482135Y-65496650D01*
X209437618Y-65445275D01*
X209435560Y-65440861D01*
X209410568Y-65387266D01*
X209280047Y-65200861D01*
X209280046Y-65200860D01*
X209277160Y-65196738D01*
X209260421Y-65162734D01*
X209255965Y-65148531D01*
X209252224Y-65133287D01*
X209246858Y-65103348D01*
X209245863Y-65100858D01*
X209224974Y-65048562D01*
X209221822Y-65039709D01*
X209204159Y-64983412D01*
X209204158Y-64983411D01*
X209204157Y-64983406D01*
X209189396Y-64956814D01*
X209182659Y-64942629D01*
X209171378Y-64914385D01*
X209171375Y-64914380D01*
X209138918Y-64865131D01*
X209134036Y-64857074D01*
X209132607Y-64854500D01*
X209105409Y-64805498D01*
X209085588Y-64782410D01*
X209076144Y-64769885D01*
X209059402Y-64744481D01*
X209017692Y-64702771D01*
X209011300Y-64695875D01*
X208972866Y-64651105D01*
X208948804Y-64632479D01*
X208937026Y-64622105D01*
X207567566Y-63252646D01*
X207565373Y-63250397D01*
X207505061Y-63186949D01*
X207505060Y-63186948D01*
X207505059Y-63186947D01*
X207456640Y-63153246D01*
X207449120Y-63147575D01*
X207403413Y-63110305D01*
X207403406Y-63110301D01*
X207376441Y-63096216D01*
X207363026Y-63088089D01*
X207338049Y-63070705D01*
X207338046Y-63070703D01*
X207338045Y-63070703D01*
X207338041Y-63070701D01*
X207283845Y-63047443D01*
X207275336Y-63043402D01*
X207223057Y-63016094D01*
X207223046Y-63016090D01*
X207193806Y-63007723D01*
X207179021Y-63002459D01*
X207151058Y-62990459D01*
X207093273Y-62978583D01*
X207084127Y-62976338D01*
X207027423Y-62960113D01*
X207003699Y-62958306D01*
X206997072Y-62957801D01*
X206981533Y-62955622D01*
X206951742Y-62949500D01*
X206951741Y-62949500D01*
X206892759Y-62949500D01*
X206883344Y-62949142D01*
X206880643Y-62948936D01*
X206824524Y-62944662D01*
X206794349Y-62948506D01*
X206778682Y-62949500D01*
X196194278Y-62949500D01*
X196191138Y-62949460D01*
X196103637Y-62947243D01*
X196103628Y-62947243D01*
X196045578Y-62957648D01*
X196036252Y-62958956D01*
X195977564Y-62964925D01*
X195977562Y-62964926D01*
X195948526Y-62974035D01*
X195933290Y-62977774D01*
X195903350Y-62983141D01*
X195903341Y-62983143D01*
X195848568Y-63005021D01*
X195839699Y-63008179D01*
X195783415Y-63025840D01*
X195783402Y-63025845D01*
X195756817Y-63040601D01*
X195742644Y-63047332D01*
X195714391Y-63058618D01*
X195714377Y-63058625D01*
X195665121Y-63091087D01*
X195657066Y-63095967D01*
X195605502Y-63124588D01*
X195605499Y-63124590D01*
X195582405Y-63144414D01*
X195569883Y-63153855D01*
X195544482Y-63170598D01*
X195544475Y-63170603D01*
X195502781Y-63212297D01*
X195495874Y-63218698D01*
X195451106Y-63257132D01*
X195451105Y-63257133D01*
X195432480Y-63281194D01*
X195422107Y-63292971D01*
X193896899Y-64818181D01*
X193835576Y-64851666D01*
X193809218Y-64854500D01*
X193140860Y-64854500D01*
X193073821Y-64834815D01*
X193028066Y-64782011D01*
X193018122Y-64712853D01*
X193047147Y-64649297D01*
X193097527Y-64614318D01*
X193112328Y-64608797D01*
X193112327Y-64608797D01*
X193112331Y-64608796D01*
X193227546Y-64522546D01*
X193313796Y-64407331D01*
X193364091Y-64272483D01*
X193370500Y-64212873D01*
X193370499Y-62417128D01*
X193364091Y-62357517D01*
X193360392Y-62347600D01*
X193313797Y-62222671D01*
X193313793Y-62222664D01*
X193227547Y-62107455D01*
X193227544Y-62107452D01*
X193112335Y-62021206D01*
X193112328Y-62021202D01*
X192977482Y-61970908D01*
X192977483Y-61970908D01*
X192917883Y-61964501D01*
X192917881Y-61964500D01*
X192917873Y-61964500D01*
X192917864Y-61964500D01*
X191122129Y-61964500D01*
X191122123Y-61964501D01*
X191062516Y-61970908D01*
X190927671Y-62021202D01*
X190927664Y-62021206D01*
X190812455Y-62107452D01*
X190812452Y-62107455D01*
X190726206Y-62222664D01*
X190726202Y-62222671D01*
X190675908Y-62357517D01*
X190669501Y-62417116D01*
X190669501Y-62417123D01*
X190669500Y-62417135D01*
X190669500Y-64212870D01*
X190669501Y-64212876D01*
X190675908Y-64272483D01*
X190726202Y-64407328D01*
X190726206Y-64407335D01*
X190812452Y-64522544D01*
X190812455Y-64522547D01*
X190927664Y-64608793D01*
X190927671Y-64608797D01*
X191059081Y-64657810D01*
X191115015Y-64699681D01*
X191139432Y-64765145D01*
X191124580Y-64833418D01*
X191103430Y-64861673D01*
X190981503Y-64983600D01*
X190845965Y-65177169D01*
X190845964Y-65177171D01*
X190746098Y-65391335D01*
X190746094Y-65391344D01*
X190684938Y-65619586D01*
X190684936Y-65619596D01*
X190664341Y-65854999D01*
X190664341Y-65855000D01*
X190684936Y-66090403D01*
X190684938Y-66090413D01*
X190746094Y-66318655D01*
X190746096Y-66318659D01*
X190746097Y-66318663D01*
X190749072Y-66325042D01*
X190845965Y-66532830D01*
X190845967Y-66532834D01*
X190931838Y-66655469D01*
X190957932Y-66692736D01*
X190981501Y-66726395D01*
X190981506Y-66726402D01*
X191148597Y-66893493D01*
X191148603Y-66893498D01*
X191334158Y-67023425D01*
X191377783Y-67078002D01*
X191384977Y-67147500D01*
X191353454Y-67209855D01*
X191334158Y-67226575D01*
X191148597Y-67356505D01*
X190981505Y-67523597D01*
X190845965Y-67717169D01*
X190845964Y-67717171D01*
X190795171Y-67826098D01*
X190748603Y-67925964D01*
X190746098Y-67931335D01*
X190746094Y-67931344D01*
X190684938Y-68159586D01*
X190684936Y-68159596D01*
X190664341Y-68394999D01*
X190664341Y-68395000D01*
X190684936Y-68630403D01*
X190684938Y-68630413D01*
X190746094Y-68858655D01*
X190746099Y-68858669D01*
X190776142Y-68923096D01*
X190786634Y-68992173D01*
X190758114Y-69055957D01*
X190699637Y-69094196D01*
X190663760Y-69099500D01*
X189342940Y-69099500D01*
X189275901Y-69079815D01*
X189255259Y-69063181D01*
X189222262Y-69030184D01*
X189222259Y-69030182D01*
X189189849Y-69009817D01*
X189178510Y-69001771D01*
X189148589Y-68977910D01*
X189114093Y-68961296D01*
X189101927Y-68954572D01*
X189069524Y-68934212D01*
X189069525Y-68934212D01*
X189062652Y-68931807D01*
X189033393Y-68921568D01*
X189020554Y-68916250D01*
X188986061Y-68899639D01*
X188948735Y-68891119D01*
X188935380Y-68887271D01*
X188899260Y-68874633D01*
X188899256Y-68874632D01*
X188899255Y-68874632D01*
X188881139Y-68872590D01*
X188861217Y-68870345D01*
X188847518Y-68868017D01*
X188810200Y-68859501D01*
X188810196Y-68859500D01*
X188810194Y-68859500D01*
X188810191Y-68859500D01*
X188215140Y-68859500D01*
X188148101Y-68839815D01*
X188102346Y-68787011D01*
X188092402Y-68717853D01*
X188120849Y-68654969D01*
X188198836Y-68563659D01*
X188330466Y-68348859D01*
X188426873Y-68116111D01*
X188485683Y-67871148D01*
X188505449Y-67620000D01*
X188485683Y-67368852D01*
X188426873Y-67123889D01*
X188424906Y-67119141D01*
X188330466Y-66891140D01*
X188198839Y-66676346D01*
X188198838Y-66676343D01*
X188161875Y-66633066D01*
X188035224Y-66484776D01*
X187848200Y-66325042D01*
X187843656Y-66321161D01*
X187843653Y-66321160D01*
X187628859Y-66189533D01*
X187396110Y-66093126D01*
X187151151Y-66034317D01*
X186962887Y-66019500D01*
X186962882Y-66019500D01*
X186837118Y-66019500D01*
X186837112Y-66019500D01*
X186648848Y-66034317D01*
X186403889Y-66093126D01*
X186171140Y-66189533D01*
X185956346Y-66321160D01*
X185956343Y-66321161D01*
X185764776Y-66484776D01*
X185601161Y-66676343D01*
X185601160Y-66676346D01*
X185469533Y-66891140D01*
X185373126Y-67123889D01*
X185314317Y-67368848D01*
X185294551Y-67620000D01*
X185314317Y-67871151D01*
X185373126Y-68116110D01*
X185469533Y-68348859D01*
X185601160Y-68563653D01*
X185601161Y-68563655D01*
X185601162Y-68563656D01*
X185601164Y-68563659D01*
X185679150Y-68654969D01*
X185707721Y-68718729D01*
X185697284Y-68787815D01*
X185651153Y-68840291D01*
X185584860Y-68859500D01*
X184226006Y-68859500D01*
X184158967Y-68839815D01*
X184121013Y-68801473D01*
X184099816Y-68767738D01*
X183972262Y-68640184D01*
X183956696Y-68630403D01*
X183819523Y-68544211D01*
X183649254Y-68484631D01*
X183649249Y-68484630D01*
X183470004Y-68464435D01*
X183469996Y-68464435D01*
X183290750Y-68484630D01*
X183290745Y-68484631D01*
X183120476Y-68544211D01*
X182967734Y-68640186D01*
X182860666Y-68747253D01*
X182850304Y-68756514D01*
X182820380Y-68780380D01*
X182707910Y-68921410D01*
X182707908Y-68921413D01*
X182629639Y-69083939D01*
X182589500Y-69259799D01*
X182589500Y-69440200D01*
X182614084Y-69547908D01*
X182609811Y-69617647D01*
X182568512Y-69674004D01*
X182503300Y-69699087D01*
X182493193Y-69699500D01*
X181882230Y-69699500D01*
X181815191Y-69679815D01*
X181794549Y-69663181D01*
X179935729Y-67804361D01*
X179923949Y-67790730D01*
X179909610Y-67771470D01*
X179871651Y-67739619D01*
X179863686Y-67732318D01*
X179859780Y-67728411D01*
X179835443Y-67709168D01*
X179832647Y-67706890D01*
X179775214Y-67658698D01*
X179769180Y-67654729D01*
X179769212Y-67654680D01*
X179762853Y-67650628D01*
X179762822Y-67650679D01*
X179756680Y-67646891D01*
X179756678Y-67646890D01*
X179756677Y-67646889D01*
X179688688Y-67615184D01*
X179685447Y-67613615D01*
X179654530Y-67598088D01*
X179618433Y-67579960D01*
X179618431Y-67579959D01*
X179618430Y-67579959D01*
X179611645Y-67577489D01*
X179611665Y-67577433D01*
X179604549Y-67574959D01*
X179604531Y-67575015D01*
X179597674Y-67572743D01*
X179524210Y-67557573D01*
X179520693Y-67556793D01*
X179447718Y-67539499D01*
X179440547Y-67538661D01*
X179440553Y-67538601D01*
X179433055Y-67537835D01*
X179433050Y-67537895D01*
X179425860Y-67537265D01*
X179350870Y-67539448D01*
X179347263Y-67539500D01*
X176313705Y-67539500D01*
X176295735Y-67538191D01*
X176271972Y-67534710D01*
X176225642Y-67538764D01*
X176222632Y-67539028D01*
X176211826Y-67539500D01*
X176206282Y-67539500D01*
X176175488Y-67543099D01*
X176171905Y-67543465D01*
X176097200Y-67550001D01*
X176090134Y-67551461D01*
X176090122Y-67551404D01*
X176082753Y-67553038D01*
X176082767Y-67553095D01*
X176075743Y-67554759D01*
X176005245Y-67580417D01*
X176001845Y-67581598D01*
X175930665Y-67605186D01*
X175930663Y-67605186D01*
X175930660Y-67605188D01*
X175924123Y-67608236D01*
X175924098Y-67608184D01*
X175917310Y-67611470D01*
X175917336Y-67611521D01*
X175910884Y-67614761D01*
X175848236Y-67655965D01*
X175845196Y-67657902D01*
X175781347Y-67697285D01*
X175775682Y-67701765D01*
X175775646Y-67701719D01*
X175769798Y-67706484D01*
X175769835Y-67706528D01*
X175764310Y-67711164D01*
X175764304Y-67711169D01*
X175764304Y-67711170D01*
X175740733Y-67736153D01*
X175712848Y-67765709D01*
X175710336Y-67768294D01*
X174837308Y-68641322D01*
X174832064Y-68646270D01*
X174785544Y-68687670D01*
X174785537Y-68687678D01*
X174749827Y-68738678D01*
X174745523Y-68744459D01*
X174706890Y-68793321D01*
X174706888Y-68793322D01*
X174702144Y-68803496D01*
X174691348Y-68822195D01*
X174684912Y-68831387D01*
X174684912Y-68831388D01*
X174663774Y-68884595D01*
X174661927Y-68889243D01*
X174659072Y-68895862D01*
X174632742Y-68952329D01*
X174632741Y-68952331D01*
X174630472Y-68963320D01*
X174624279Y-68984006D01*
X174620138Y-68994431D01*
X174620137Y-68994435D01*
X174611111Y-69056050D01*
X174609859Y-69063150D01*
X174597267Y-69124133D01*
X174597266Y-69124143D01*
X174597592Y-69135365D01*
X174596335Y-69156929D01*
X174594711Y-69168014D01*
X174594711Y-69168025D01*
X174600136Y-69230048D01*
X174600555Y-69237242D01*
X174602368Y-69299509D01*
X174602369Y-69299514D01*
X174605270Y-69310340D01*
X174609023Y-69331625D01*
X174610000Y-69342795D01*
X174613205Y-69352466D01*
X174619500Y-69391473D01*
X174619500Y-69405500D01*
X174599815Y-69472539D01*
X174547011Y-69518294D01*
X174495505Y-69529500D01*
X174472132Y-69529500D01*
X174472123Y-69529501D01*
X174412516Y-69535908D01*
X174277671Y-69586202D01*
X174277664Y-69586206D01*
X174162455Y-69672452D01*
X174162452Y-69672455D01*
X174076206Y-69787664D01*
X174076202Y-69787671D01*
X174025908Y-69922517D01*
X174019501Y-69982116D01*
X174019500Y-69982135D01*
X174019500Y-71777870D01*
X174019501Y-71777876D01*
X174025908Y-71837483D01*
X174076202Y-71972328D01*
X174076206Y-71972335D01*
X174162452Y-72087544D01*
X174162454Y-72087546D01*
X174277664Y-72173793D01*
X174277671Y-72173797D01*
X174412517Y-72224091D01*
X174412516Y-72224091D01*
X174419444Y-72224835D01*
X174472127Y-72230500D01*
X176267872Y-72230499D01*
X176327483Y-72224091D01*
X176462331Y-72173796D01*
X176577546Y-72087546D01*
X176663796Y-71972331D01*
X176712810Y-71840916D01*
X176754681Y-71784984D01*
X176820145Y-71760566D01*
X176888418Y-71775417D01*
X176916673Y-71796569D01*
X177038599Y-71918495D01*
X177135384Y-71986265D01*
X177232165Y-72054032D01*
X177232167Y-72054033D01*
X177232170Y-72054035D01*
X177446337Y-72153903D01*
X177674592Y-72215063D01*
X177800096Y-72226043D01*
X177865164Y-72251495D01*
X177876969Y-72261890D01*
X177912449Y-72297370D01*
X177914640Y-72299617D01*
X177924573Y-72310066D01*
X177956495Y-72372217D01*
X177949749Y-72441760D01*
X177906475Y-72496616D01*
X177840414Y-72519368D01*
X177834701Y-72519500D01*
X173432940Y-72519500D01*
X173365901Y-72499815D01*
X173345259Y-72483181D01*
X171872262Y-71010184D01*
X171872259Y-71010182D01*
X171839849Y-70989817D01*
X171828510Y-70981771D01*
X171798589Y-70957910D01*
X171764093Y-70941296D01*
X171751927Y-70934572D01*
X171719524Y-70914212D01*
X171719525Y-70914212D01*
X171712652Y-70911807D01*
X171683393Y-70901568D01*
X171670554Y-70896250D01*
X171636061Y-70879639D01*
X171598735Y-70871119D01*
X171585380Y-70867271D01*
X171549260Y-70854633D01*
X171549256Y-70854632D01*
X171549255Y-70854632D01*
X171531139Y-70852590D01*
X171511217Y-70850345D01*
X171497518Y-70848017D01*
X171460200Y-70839501D01*
X171460196Y-70839500D01*
X171460194Y-70839500D01*
X171460191Y-70839500D01*
X160362691Y-70839500D01*
X160295652Y-70819815D01*
X160261116Y-70786624D01*
X160259198Y-70783885D01*
X160248495Y-70768599D01*
X160248493Y-70768597D01*
X160248491Y-70768594D01*
X160081402Y-70601506D01*
X160081396Y-70601501D01*
X159895842Y-70471575D01*
X159852217Y-70416998D01*
X159845023Y-70347500D01*
X159876546Y-70285145D01*
X159895842Y-70268425D01*
X159986389Y-70205023D01*
X160081401Y-70138495D01*
X160248495Y-69971401D01*
X160384035Y-69777830D01*
X160483903Y-69563663D01*
X160545063Y-69335408D01*
X160565659Y-69100000D01*
X160545063Y-68864592D01*
X160483903Y-68636337D01*
X160384035Y-68422171D01*
X160365990Y-68396399D01*
X160248494Y-68228597D01*
X160081402Y-68061506D01*
X160081395Y-68061501D01*
X159887834Y-67925967D01*
X159887830Y-67925965D01*
X159858991Y-67912517D01*
X159673663Y-67826097D01*
X159673659Y-67826096D01*
X159673655Y-67826094D01*
X159445413Y-67764938D01*
X159445403Y-67764936D01*
X159210001Y-67744341D01*
X159209999Y-67744341D01*
X158974596Y-67764936D01*
X158974586Y-67764938D01*
X158746344Y-67826094D01*
X158746335Y-67826098D01*
X158532171Y-67925964D01*
X158532169Y-67925965D01*
X158338597Y-68061505D01*
X158171505Y-68228597D01*
X158035965Y-68422169D01*
X158033257Y-68426861D01*
X158031774Y-68426004D01*
X157990708Y-68472644D01*
X157923514Y-68491795D01*
X157856633Y-68471578D01*
X157811300Y-68418412D01*
X157800500Y-68367799D01*
X157800500Y-66280001D01*
X161814532Y-66280001D01*
X161834364Y-66506686D01*
X161834366Y-66506697D01*
X161893258Y-66726488D01*
X161893261Y-66726497D01*
X161989431Y-66932732D01*
X161989432Y-66932734D01*
X162119954Y-67119141D01*
X162280858Y-67280045D01*
X162314023Y-67303267D01*
X162467266Y-67410568D01*
X162673504Y-67506739D01*
X162893308Y-67565635D01*
X163055230Y-67579801D01*
X163119998Y-67585468D01*
X163120000Y-67585468D01*
X163120002Y-67585468D01*
X163177733Y-67580417D01*
X163346692Y-67565635D01*
X163566496Y-67506739D01*
X163772734Y-67410568D01*
X163959139Y-67280047D01*
X164120047Y-67119139D01*
X164250568Y-66932734D01*
X164346739Y-66726496D01*
X164405635Y-66506692D01*
X164425468Y-66280000D01*
X164405635Y-66053308D01*
X164346739Y-65833504D01*
X164250568Y-65627266D01*
X164120047Y-65440861D01*
X164120045Y-65440858D01*
X163959141Y-65279954D01*
X163772734Y-65149432D01*
X163772732Y-65149431D01*
X163566497Y-65053261D01*
X163566488Y-65053258D01*
X163346697Y-64994366D01*
X163346693Y-64994365D01*
X163346692Y-64994365D01*
X163346691Y-64994364D01*
X163346686Y-64994364D01*
X163120002Y-64974532D01*
X163119998Y-64974532D01*
X162893313Y-64994364D01*
X162893302Y-64994366D01*
X162673511Y-65053258D01*
X162673502Y-65053261D01*
X162467267Y-65149431D01*
X162467265Y-65149432D01*
X162280858Y-65279954D01*
X162119954Y-65440858D01*
X161989432Y-65627265D01*
X161989431Y-65627267D01*
X161893261Y-65833502D01*
X161893258Y-65833511D01*
X161834366Y-66053302D01*
X161834364Y-66053313D01*
X161814532Y-66279998D01*
X161814532Y-66280001D01*
X157800500Y-66280001D01*
X157800500Y-64419070D01*
X165279500Y-64419070D01*
X165279501Y-64419076D01*
X165285908Y-64478683D01*
X165336202Y-64613528D01*
X165336206Y-64613535D01*
X165422452Y-64728744D01*
X165422455Y-64728747D01*
X165537664Y-64814993D01*
X165537671Y-64814997D01*
X165672517Y-64865291D01*
X165672516Y-64865291D01*
X165679444Y-64866035D01*
X165732127Y-64871700D01*
X167527872Y-64871699D01*
X167587483Y-64865291D01*
X167722331Y-64814996D01*
X167837546Y-64728746D01*
X167923796Y-64613531D01*
X167972810Y-64482116D01*
X168014681Y-64426184D01*
X168080145Y-64401766D01*
X168148418Y-64416617D01*
X168176673Y-64437769D01*
X168298599Y-64559695D01*
X168376609Y-64614318D01*
X168492165Y-64695232D01*
X168492167Y-64695233D01*
X168492170Y-64695235D01*
X168706337Y-64795103D01*
X168934592Y-64856263D01*
X169111034Y-64871700D01*
X169169999Y-64876859D01*
X169170000Y-64876859D01*
X169170001Y-64876859D01*
X169228966Y-64871700D01*
X169405408Y-64856263D01*
X169633663Y-64795103D01*
X169847830Y-64695235D01*
X170041401Y-64559695D01*
X170208495Y-64392601D01*
X170338425Y-64207042D01*
X170393002Y-64163417D01*
X170462500Y-64156223D01*
X170524855Y-64187746D01*
X170541575Y-64207042D01*
X170671281Y-64392282D01*
X170671505Y-64392601D01*
X170838599Y-64559695D01*
X170916609Y-64614318D01*
X171032165Y-64695232D01*
X171032167Y-64695233D01*
X171032170Y-64695235D01*
X171246337Y-64795103D01*
X171474592Y-64856263D01*
X171651034Y-64871700D01*
X171709999Y-64876859D01*
X171710000Y-64876859D01*
X171710001Y-64876859D01*
X171768966Y-64871700D01*
X171945408Y-64856263D01*
X172173663Y-64795103D01*
X172387830Y-64695235D01*
X172581401Y-64559695D01*
X172748495Y-64392601D01*
X172878425Y-64207042D01*
X172933002Y-64163417D01*
X173002500Y-64156223D01*
X173064855Y-64187746D01*
X173081575Y-64207042D01*
X173211281Y-64392282D01*
X173211505Y-64392601D01*
X173378599Y-64559695D01*
X173456609Y-64614318D01*
X173572165Y-64695232D01*
X173572167Y-64695233D01*
X173572170Y-64695235D01*
X173786337Y-64795103D01*
X174014592Y-64856263D01*
X174191034Y-64871700D01*
X174249999Y-64876859D01*
X174250000Y-64876859D01*
X174250001Y-64876859D01*
X174308966Y-64871700D01*
X174485408Y-64856263D01*
X174713663Y-64795103D01*
X174927830Y-64695235D01*
X175121401Y-64559695D01*
X175288495Y-64392601D01*
X175418425Y-64207042D01*
X175473002Y-64163417D01*
X175542500Y-64156223D01*
X175604855Y-64187746D01*
X175621575Y-64207042D01*
X175751281Y-64392282D01*
X175751505Y-64392601D01*
X175918599Y-64559695D01*
X175996609Y-64614318D01*
X176112165Y-64695232D01*
X176112167Y-64695233D01*
X176112170Y-64695235D01*
X176326337Y-64795103D01*
X176554592Y-64856263D01*
X176731034Y-64871700D01*
X176789999Y-64876859D01*
X176790000Y-64876859D01*
X176790001Y-64876859D01*
X176848966Y-64871700D01*
X177025408Y-64856263D01*
X177253663Y-64795103D01*
X177467830Y-64695235D01*
X177661401Y-64559695D01*
X177828495Y-64392601D01*
X177958425Y-64207042D01*
X178013002Y-64163417D01*
X178082500Y-64156223D01*
X178144855Y-64187746D01*
X178161575Y-64207042D01*
X178291281Y-64392282D01*
X178291505Y-64392601D01*
X178458599Y-64559695D01*
X178536609Y-64614318D01*
X178652165Y-64695232D01*
X178652167Y-64695233D01*
X178652170Y-64695235D01*
X178866337Y-64795103D01*
X179094592Y-64856263D01*
X179271034Y-64871700D01*
X179329999Y-64876859D01*
X179330000Y-64876859D01*
X179330001Y-64876859D01*
X179388966Y-64871700D01*
X179565408Y-64856263D01*
X179793663Y-64795103D01*
X180007830Y-64695235D01*
X180201401Y-64559695D01*
X180368495Y-64392601D01*
X180498730Y-64206605D01*
X180553307Y-64162981D01*
X180622805Y-64155787D01*
X180685160Y-64187310D01*
X180701879Y-64206605D01*
X180831890Y-64392278D01*
X180998917Y-64559305D01*
X181192421Y-64694800D01*
X181406507Y-64794629D01*
X181406516Y-64794633D01*
X181620000Y-64851834D01*
X181620000Y-63956701D01*
X181727685Y-64005880D01*
X181834237Y-64021200D01*
X181905763Y-64021200D01*
X182012315Y-64005880D01*
X182120000Y-63956701D01*
X182120000Y-64851833D01*
X182333483Y-64794633D01*
X182333492Y-64794629D01*
X182547578Y-64694800D01*
X182741082Y-64559305D01*
X182908105Y-64392282D01*
X183043600Y-64198778D01*
X183143429Y-63984692D01*
X183143432Y-63984686D01*
X183200636Y-63771200D01*
X182303686Y-63771200D01*
X182329493Y-63731044D01*
X182370000Y-63593089D01*
X182370000Y-63449311D01*
X182329493Y-63311356D01*
X182303686Y-63271200D01*
X183200636Y-63271200D01*
X183200635Y-63271199D01*
X183143432Y-63057713D01*
X183143429Y-63057707D01*
X183111857Y-62990001D01*
X185484532Y-62990001D01*
X185504364Y-63216686D01*
X185504366Y-63216697D01*
X185563258Y-63436488D01*
X185563261Y-63436497D01*
X185659431Y-63642732D01*
X185659432Y-63642734D01*
X185789954Y-63829141D01*
X185950858Y-63990045D01*
X185950861Y-63990047D01*
X186137266Y-64120568D01*
X186343504Y-64216739D01*
X186343509Y-64216740D01*
X186343511Y-64216741D01*
X186396415Y-64230916D01*
X186563308Y-64275635D01*
X186725230Y-64289801D01*
X186789998Y-64295468D01*
X186790000Y-64295468D01*
X186790002Y-64295468D01*
X186846673Y-64290509D01*
X187016692Y-64275635D01*
X187236496Y-64216739D01*
X187442734Y-64120568D01*
X187629139Y-63990047D01*
X187790047Y-63829139D01*
X187920568Y-63642734D01*
X188016739Y-63436496D01*
X188075635Y-63216692D01*
X188095468Y-62990000D01*
X188094398Y-62977774D01*
X188083627Y-62854654D01*
X188075635Y-62763308D01*
X188016739Y-62543504D01*
X187920568Y-62337266D01*
X187799073Y-62163751D01*
X187790045Y-62150858D01*
X187629141Y-61989954D01*
X187442734Y-61859432D01*
X187442732Y-61859431D01*
X187236497Y-61763261D01*
X187236488Y-61763258D01*
X187016697Y-61704366D01*
X187016693Y-61704365D01*
X187016692Y-61704365D01*
X187016691Y-61704364D01*
X187016686Y-61704364D01*
X186790002Y-61684532D01*
X186789998Y-61684532D01*
X186563313Y-61704364D01*
X186563302Y-61704366D01*
X186343511Y-61763258D01*
X186343502Y-61763261D01*
X186137267Y-61859431D01*
X186137265Y-61859432D01*
X185950858Y-61989954D01*
X185789954Y-62150858D01*
X185659432Y-62337265D01*
X185659431Y-62337267D01*
X185563261Y-62543502D01*
X185563258Y-62543511D01*
X185504366Y-62763302D01*
X185504364Y-62763313D01*
X185484532Y-62989998D01*
X185484532Y-62990001D01*
X183111857Y-62990001D01*
X183043600Y-62843622D01*
X183043599Y-62843620D01*
X182908113Y-62650126D01*
X182908108Y-62650120D01*
X182741082Y-62483094D01*
X182547578Y-62347599D01*
X182333492Y-62247770D01*
X182333486Y-62247767D01*
X182120000Y-62190564D01*
X182120000Y-63085698D01*
X182012315Y-63036520D01*
X181905763Y-63021200D01*
X181834237Y-63021200D01*
X181727685Y-63036520D01*
X181620000Y-63085698D01*
X181620000Y-62190564D01*
X181619999Y-62190564D01*
X181406513Y-62247767D01*
X181406507Y-62247770D01*
X181192422Y-62347599D01*
X181192420Y-62347600D01*
X180998926Y-62483086D01*
X180998920Y-62483091D01*
X180831891Y-62650120D01*
X180831890Y-62650122D01*
X180701880Y-62835795D01*
X180647303Y-62879419D01*
X180577804Y-62886612D01*
X180515450Y-62855090D01*
X180498730Y-62835794D01*
X180368494Y-62649797D01*
X180201402Y-62482706D01*
X180201395Y-62482701D01*
X180007834Y-62347167D01*
X180007830Y-62347165D01*
X179986604Y-62337267D01*
X179793663Y-62247297D01*
X179793659Y-62247296D01*
X179793655Y-62247294D01*
X179565413Y-62186138D01*
X179565403Y-62186136D01*
X179330001Y-62165541D01*
X179329999Y-62165541D01*
X179094596Y-62186136D01*
X179094586Y-62186138D01*
X178866344Y-62247294D01*
X178866335Y-62247298D01*
X178652171Y-62347164D01*
X178652169Y-62347165D01*
X178458597Y-62482705D01*
X178291505Y-62649797D01*
X178161575Y-62835358D01*
X178106998Y-62878983D01*
X178037500Y-62886177D01*
X177975145Y-62854654D01*
X177958425Y-62835358D01*
X177828494Y-62649797D01*
X177661402Y-62482706D01*
X177661395Y-62482701D01*
X177467834Y-62347167D01*
X177467830Y-62347165D01*
X177446604Y-62337267D01*
X177253663Y-62247297D01*
X177253659Y-62247296D01*
X177253655Y-62247294D01*
X177025413Y-62186138D01*
X177025403Y-62186136D01*
X176790001Y-62165541D01*
X176789999Y-62165541D01*
X176554596Y-62186136D01*
X176554586Y-62186138D01*
X176326344Y-62247294D01*
X176326335Y-62247298D01*
X176112171Y-62347164D01*
X176112169Y-62347165D01*
X175918597Y-62482705D01*
X175751505Y-62649797D01*
X175621575Y-62835358D01*
X175566998Y-62878983D01*
X175497500Y-62886177D01*
X175435145Y-62854654D01*
X175418425Y-62835358D01*
X175288494Y-62649797D01*
X175121402Y-62482706D01*
X175121395Y-62482701D01*
X174927834Y-62347167D01*
X174927830Y-62347165D01*
X174906604Y-62337267D01*
X174713663Y-62247297D01*
X174713659Y-62247296D01*
X174713655Y-62247294D01*
X174485413Y-62186138D01*
X174485403Y-62186136D01*
X174250001Y-62165541D01*
X174249999Y-62165541D01*
X174014596Y-62186136D01*
X174014586Y-62186138D01*
X173786344Y-62247294D01*
X173786335Y-62247298D01*
X173572171Y-62347164D01*
X173572169Y-62347165D01*
X173378597Y-62482705D01*
X173211505Y-62649797D01*
X173081575Y-62835358D01*
X173026998Y-62878983D01*
X172957500Y-62886177D01*
X172895145Y-62854654D01*
X172878425Y-62835358D01*
X172748494Y-62649797D01*
X172581402Y-62482706D01*
X172581395Y-62482701D01*
X172387834Y-62347167D01*
X172387830Y-62347165D01*
X172366604Y-62337267D01*
X172173663Y-62247297D01*
X172173659Y-62247296D01*
X172173655Y-62247294D01*
X171945413Y-62186138D01*
X171945403Y-62186136D01*
X171710001Y-62165541D01*
X171709999Y-62165541D01*
X171474596Y-62186136D01*
X171474586Y-62186138D01*
X171246344Y-62247294D01*
X171246335Y-62247298D01*
X171032171Y-62347164D01*
X171032169Y-62347165D01*
X170838597Y-62482705D01*
X170671505Y-62649797D01*
X170541575Y-62835358D01*
X170486998Y-62878983D01*
X170417500Y-62886177D01*
X170355145Y-62854654D01*
X170338425Y-62835358D01*
X170208494Y-62649797D01*
X170041402Y-62482706D01*
X170041395Y-62482701D01*
X169847834Y-62347167D01*
X169847830Y-62347165D01*
X169826604Y-62337267D01*
X169633663Y-62247297D01*
X169633659Y-62247296D01*
X169633655Y-62247294D01*
X169405413Y-62186138D01*
X169405403Y-62186136D01*
X169170001Y-62165541D01*
X169169999Y-62165541D01*
X168934596Y-62186136D01*
X168934586Y-62186138D01*
X168706344Y-62247294D01*
X168706335Y-62247298D01*
X168492171Y-62347164D01*
X168492169Y-62347165D01*
X168298600Y-62482703D01*
X168176673Y-62604630D01*
X168115350Y-62638114D01*
X168045658Y-62633130D01*
X167989725Y-62591258D01*
X167972810Y-62560281D01*
X167923797Y-62428871D01*
X167923793Y-62428864D01*
X167837547Y-62313655D01*
X167837544Y-62313652D01*
X167722335Y-62227406D01*
X167722328Y-62227402D01*
X167587482Y-62177108D01*
X167587483Y-62177108D01*
X167527883Y-62170701D01*
X167527881Y-62170700D01*
X167527873Y-62170700D01*
X167527864Y-62170700D01*
X165732129Y-62170700D01*
X165732123Y-62170701D01*
X165672516Y-62177108D01*
X165537671Y-62227402D01*
X165537664Y-62227406D01*
X165422455Y-62313652D01*
X165422452Y-62313655D01*
X165336206Y-62428864D01*
X165336202Y-62428871D01*
X165285908Y-62563717D01*
X165279501Y-62623316D01*
X165279500Y-62623335D01*
X165279500Y-64419070D01*
X157800500Y-64419070D01*
X157800500Y-44623246D01*
X157800585Y-44620000D01*
X159494551Y-44620000D01*
X159514317Y-44871151D01*
X159573126Y-45116110D01*
X159669533Y-45348859D01*
X159801160Y-45563653D01*
X159801161Y-45563656D01*
X159801164Y-45563659D01*
X159964776Y-45755224D01*
X160113066Y-45881875D01*
X160156343Y-45918838D01*
X160156346Y-45918839D01*
X160371140Y-46050466D01*
X160587296Y-46140000D01*
X160603889Y-46146873D01*
X160848852Y-46205683D01*
X161037118Y-46220500D01*
X161037126Y-46220500D01*
X161162874Y-46220500D01*
X161162882Y-46220500D01*
X161351148Y-46205683D01*
X161596111Y-46146873D01*
X161828859Y-46050466D01*
X162043659Y-45918836D01*
X162235224Y-45755224D01*
X162398836Y-45563659D01*
X162530466Y-45348859D01*
X162626873Y-45116111D01*
X162685683Y-44871148D01*
X162705449Y-44620000D01*
X185294551Y-44620000D01*
X185314317Y-44871151D01*
X185373126Y-45116110D01*
X185469533Y-45348859D01*
X185601160Y-45563653D01*
X185601161Y-45563656D01*
X185601164Y-45563659D01*
X185764776Y-45755224D01*
X185913066Y-45881875D01*
X185956343Y-45918838D01*
X185956346Y-45918839D01*
X186171140Y-46050466D01*
X186387296Y-46140000D01*
X186403889Y-46146873D01*
X186648852Y-46205683D01*
X186837118Y-46220500D01*
X186837126Y-46220500D01*
X186962874Y-46220500D01*
X186962882Y-46220500D01*
X187151148Y-46205683D01*
X187396111Y-46146873D01*
X187628859Y-46050466D01*
X187843659Y-45918836D01*
X188035224Y-45755224D01*
X188198836Y-45563659D01*
X188330466Y-45348859D01*
X188426873Y-45116111D01*
X188485683Y-44871148D01*
X188505449Y-44620000D01*
X188485683Y-44368852D01*
X188426873Y-44123889D01*
X188372333Y-43992217D01*
X188330466Y-43891140D01*
X188198839Y-43676346D01*
X188198838Y-43676343D01*
X188139334Y-43606673D01*
X188035224Y-43484776D01*
X187877422Y-43350000D01*
X187843656Y-43321161D01*
X187843653Y-43321160D01*
X187628859Y-43189533D01*
X187396110Y-43093126D01*
X187151151Y-43034317D01*
X186962887Y-43019500D01*
X186962882Y-43019500D01*
X186837118Y-43019500D01*
X186837112Y-43019500D01*
X186648848Y-43034317D01*
X186403889Y-43093126D01*
X186171140Y-43189533D01*
X185956346Y-43321160D01*
X185956343Y-43321161D01*
X185764776Y-43484776D01*
X185601161Y-43676343D01*
X185601160Y-43676346D01*
X185469533Y-43891140D01*
X185373126Y-44123889D01*
X185314317Y-44368848D01*
X185294551Y-44620000D01*
X162705449Y-44620000D01*
X162685683Y-44368852D01*
X162626873Y-44123889D01*
X162572333Y-43992217D01*
X162530466Y-43891140D01*
X162398839Y-43676346D01*
X162398838Y-43676343D01*
X162339334Y-43606673D01*
X162235224Y-43484776D01*
X162077422Y-43350000D01*
X162043656Y-43321161D01*
X162043653Y-43321160D01*
X161828859Y-43189533D01*
X161596110Y-43093126D01*
X161351151Y-43034317D01*
X161162887Y-43019500D01*
X161162882Y-43019500D01*
X161037118Y-43019500D01*
X161037112Y-43019500D01*
X160848848Y-43034317D01*
X160603889Y-43093126D01*
X160371140Y-43189533D01*
X160156346Y-43321160D01*
X160156343Y-43321161D01*
X159964776Y-43484776D01*
X159801161Y-43676343D01*
X159801160Y-43676346D01*
X159669533Y-43891140D01*
X159573126Y-44123889D01*
X159514317Y-44368848D01*
X159494551Y-44620000D01*
X157800585Y-44620000D01*
X157800670Y-44616756D01*
X157818235Y-44281594D01*
X157819592Y-44268686D01*
X157827081Y-44221401D01*
X157871586Y-43940409D01*
X157874279Y-43927733D01*
X157960310Y-43606662D01*
X157964314Y-43594340D01*
X158083434Y-43284021D01*
X158088698Y-43272199D01*
X158239611Y-42976014D01*
X158246077Y-42964816D01*
X158427113Y-42686045D01*
X158434727Y-42675564D01*
X158643915Y-42417241D01*
X158652582Y-42407615D01*
X158887615Y-42172582D01*
X158897241Y-42163915D01*
X159155564Y-41954727D01*
X159166045Y-41947113D01*
X159444816Y-41766077D01*
X159456014Y-41759611D01*
X159752199Y-41608698D01*
X159764021Y-41603434D01*
X160074340Y-41484314D01*
X160086662Y-41480310D01*
X160407733Y-41394279D01*
X160420409Y-41391586D01*
X160748688Y-41339591D01*
X160761592Y-41338235D01*
X161096756Y-41320669D01*
X161103246Y-41320500D01*
X161192710Y-41320500D01*
X165639424Y-41320500D01*
X165706463Y-41340185D01*
G37*
G04 #@! TD.AperFunction*
G04 #@! TA.AperFunction,Conductor*
G36*
X196782243Y-64970185D02*
G01*
X196827998Y-65022989D01*
X196837942Y-65092147D01*
X196831385Y-65117835D01*
X196825908Y-65132516D01*
X196819501Y-65192116D01*
X196819500Y-65192135D01*
X196819500Y-66887870D01*
X196819501Y-66887876D01*
X196825908Y-66947483D01*
X196876202Y-67082328D01*
X196876206Y-67082335D01*
X196962452Y-67197544D01*
X196962455Y-67197547D01*
X197077664Y-67283793D01*
X197077671Y-67283797D01*
X197212517Y-67334091D01*
X197212516Y-67334091D01*
X197219444Y-67334835D01*
X197272127Y-67340500D01*
X198967872Y-67340499D01*
X199027483Y-67334091D01*
X199162331Y-67283796D01*
X199277546Y-67197546D01*
X199363796Y-67082331D01*
X199414091Y-66947483D01*
X199417862Y-66912401D01*
X199444599Y-66847855D01*
X199501990Y-66808006D01*
X199571816Y-66805511D01*
X199631905Y-66841163D01*
X199642726Y-66854536D01*
X199659956Y-66879143D01*
X199820858Y-67040045D01*
X199820861Y-67040047D01*
X200007266Y-67170568D01*
X200213504Y-67266739D01*
X200213509Y-67266740D01*
X200213511Y-67266741D01*
X200263163Y-67280045D01*
X200433308Y-67325635D01*
X200593294Y-67339632D01*
X200659998Y-67345468D01*
X200660000Y-67345468D01*
X200660002Y-67345468D01*
X200716807Y-67340498D01*
X200886692Y-67325635D01*
X201106496Y-67266739D01*
X201312734Y-67170568D01*
X201499139Y-67040047D01*
X201660047Y-66879139D01*
X201790568Y-66692734D01*
X201817618Y-66634724D01*
X201863790Y-66582285D01*
X201930983Y-66563133D01*
X201997865Y-66583348D01*
X202042382Y-66634725D01*
X202069429Y-66692728D01*
X202069432Y-66692734D01*
X202199954Y-66879141D01*
X202360858Y-67040045D01*
X202360861Y-67040047D01*
X202547266Y-67170568D01*
X202753504Y-67266739D01*
X202753509Y-67266740D01*
X202753511Y-67266741D01*
X202803163Y-67280045D01*
X202973308Y-67325635D01*
X203133294Y-67339632D01*
X203199998Y-67345468D01*
X203200000Y-67345468D01*
X203200002Y-67345468D01*
X203256807Y-67340498D01*
X203426692Y-67325635D01*
X203646496Y-67266739D01*
X203852734Y-67170568D01*
X204039139Y-67040047D01*
X204200047Y-66879139D01*
X204330568Y-66692734D01*
X204357895Y-66634129D01*
X204404064Y-66581695D01*
X204471257Y-66562542D01*
X204538139Y-66582757D01*
X204582657Y-66634133D01*
X204609865Y-66692482D01*
X204740342Y-66878820D01*
X204901179Y-67039657D01*
X205087517Y-67170134D01*
X205293673Y-67266265D01*
X205293682Y-67266269D01*
X205431762Y-67303267D01*
X205491423Y-67339632D01*
X205521952Y-67402479D01*
X205513657Y-67471854D01*
X205469172Y-67525732D01*
X205431763Y-67542817D01*
X205243508Y-67593259D01*
X205243502Y-67593261D01*
X205037267Y-67689431D01*
X205037265Y-67689432D01*
X204850858Y-67819954D01*
X204689954Y-67980858D01*
X204559432Y-68167265D01*
X204559431Y-68167267D01*
X204463261Y-68373502D01*
X204463258Y-68373511D01*
X204404366Y-68593302D01*
X204404364Y-68593313D01*
X204384532Y-68819998D01*
X204384532Y-68820002D01*
X204393441Y-68921838D01*
X204379674Y-68990338D01*
X204357594Y-69020326D01*
X203528341Y-69849579D01*
X203467018Y-69883064D01*
X203397326Y-69878080D01*
X203341393Y-69836208D01*
X203323618Y-69802851D01*
X203315789Y-69780478D01*
X203295424Y-69748067D01*
X203288696Y-69735894D01*
X203272091Y-69701412D01*
X203272090Y-69701411D01*
X203248225Y-69671486D01*
X203240186Y-69660157D01*
X203219816Y-69627738D01*
X203092262Y-69500184D01*
X202894252Y-69302174D01*
X202862262Y-69270184D01*
X202845746Y-69259806D01*
X202829849Y-69249817D01*
X202818510Y-69241771D01*
X202788589Y-69217910D01*
X202754093Y-69201296D01*
X202741927Y-69194572D01*
X202709524Y-69174212D01*
X202709525Y-69174212D01*
X202691813Y-69168014D01*
X202673393Y-69161568D01*
X202660554Y-69156250D01*
X202626061Y-69139639D01*
X202588735Y-69131119D01*
X202575380Y-69127271D01*
X202539260Y-69114633D01*
X202539256Y-69114632D01*
X202539255Y-69114632D01*
X202521139Y-69112590D01*
X202501217Y-69110345D01*
X202487518Y-69108017D01*
X202450200Y-69099501D01*
X202450196Y-69099500D01*
X202450194Y-69099500D01*
X202450191Y-69099500D01*
X193376240Y-69099500D01*
X193309201Y-69079815D01*
X193263446Y-69027011D01*
X193253502Y-68957853D01*
X193263858Y-68923096D01*
X193293900Y-68858669D01*
X193293903Y-68858663D01*
X193355063Y-68630408D01*
X193375659Y-68395000D01*
X193355063Y-68159592D01*
X193293903Y-67931337D01*
X193194035Y-67717171D01*
X193188432Y-67709168D01*
X193058494Y-67523597D01*
X192891402Y-67356506D01*
X192891396Y-67356501D01*
X192705842Y-67226575D01*
X192662217Y-67171998D01*
X192655023Y-67102500D01*
X192686546Y-67040145D01*
X192705842Y-67023425D01*
X192814298Y-66947483D01*
X192891401Y-66893495D01*
X192893077Y-66891819D01*
X192893995Y-66891317D01*
X192895544Y-66890018D01*
X192895805Y-66890329D01*
X192954400Y-66858334D01*
X192980758Y-66855500D01*
X194260721Y-66855500D01*
X194263863Y-66855540D01*
X194351358Y-66857757D01*
X194351358Y-66857756D01*
X194351363Y-66857757D01*
X194409425Y-66847349D01*
X194418754Y-66846041D01*
X194477438Y-66840074D01*
X194506471Y-66830964D01*
X194521700Y-66827226D01*
X194551653Y-66821858D01*
X194551657Y-66821856D01*
X194551659Y-66821856D01*
X194606423Y-66799980D01*
X194615292Y-66796821D01*
X194671588Y-66779159D01*
X194698200Y-66764387D01*
X194712362Y-66757662D01*
X194740617Y-66746377D01*
X194789879Y-66713909D01*
X194797910Y-66709043D01*
X194849502Y-66680409D01*
X194849509Y-66680402D01*
X194849512Y-66680401D01*
X194872583Y-66660594D01*
X194885125Y-66651137D01*
X194910519Y-66634402D01*
X194952226Y-66592694D01*
X194959138Y-66586288D01*
X194964488Y-66581695D01*
X195003895Y-66547866D01*
X195022524Y-66523798D01*
X195032884Y-66512035D01*
X196558101Y-64986819D01*
X196619424Y-64953334D01*
X196645782Y-64950500D01*
X196715204Y-64950500D01*
X196782243Y-64970185D01*
G37*
G04 #@! TD.AperFunction*
G04 #@! TA.AperFunction,Conductor*
G36*
X190424120Y-49246444D02*
G01*
X190456951Y-49269295D01*
X190643942Y-49349540D01*
X190843259Y-49390500D01*
X197506110Y-49390500D01*
X197573149Y-49410185D01*
X197618904Y-49462989D01*
X197628848Y-49532147D01*
X197599823Y-49595703D01*
X197558516Y-49626880D01*
X197519920Y-49644878D01*
X197467267Y-49669431D01*
X197467265Y-49669432D01*
X197280858Y-49799954D01*
X197119954Y-49960858D01*
X196989432Y-50147265D01*
X196989431Y-50147267D01*
X196893261Y-50353502D01*
X196893258Y-50353511D01*
X196834366Y-50573302D01*
X196834364Y-50573313D01*
X196814532Y-50799998D01*
X196814532Y-50800001D01*
X196834364Y-51026686D01*
X196834366Y-51026697D01*
X196893258Y-51246488D01*
X196893261Y-51246497D01*
X196989431Y-51452732D01*
X196989432Y-51452734D01*
X197119954Y-51639141D01*
X197280858Y-51800045D01*
X197280861Y-51800047D01*
X197467266Y-51930568D01*
X197673504Y-52026739D01*
X197893308Y-52085635D01*
X198045465Y-52098947D01*
X198119998Y-52105468D01*
X198120000Y-52105468D01*
X198120002Y-52105468D01*
X198194535Y-52098947D01*
X198346692Y-52085635D01*
X198566496Y-52026739D01*
X198772734Y-51930568D01*
X198959139Y-51800047D01*
X199120047Y-51639139D01*
X199250568Y-51452734D01*
X199277895Y-51394129D01*
X199324064Y-51341695D01*
X199391257Y-51322542D01*
X199458139Y-51342757D01*
X199502657Y-51394133D01*
X199529865Y-51452482D01*
X199660342Y-51638820D01*
X199821179Y-51799657D01*
X200007517Y-51930134D01*
X200213673Y-52026265D01*
X200213682Y-52026269D01*
X200409999Y-52078872D01*
X200410000Y-52078871D01*
X200410000Y-51235501D01*
X200517685Y-51284680D01*
X200624237Y-51300000D01*
X200695763Y-51300000D01*
X200802315Y-51284680D01*
X200910000Y-51235501D01*
X200910000Y-52078872D01*
X201106317Y-52026269D01*
X201106326Y-52026265D01*
X201312482Y-51930134D01*
X201498820Y-51799657D01*
X201659657Y-51638820D01*
X201790132Y-51452484D01*
X201817341Y-51394134D01*
X201863513Y-51341695D01*
X201930707Y-51322542D01*
X201997588Y-51342757D01*
X202042105Y-51394132D01*
X202055418Y-51422681D01*
X202069431Y-51452732D01*
X202069432Y-51452734D01*
X202199954Y-51639141D01*
X202360858Y-51800045D01*
X202360861Y-51800047D01*
X202547266Y-51930568D01*
X202753504Y-52026739D01*
X202973308Y-52085635D01*
X203125465Y-52098947D01*
X203199998Y-52105468D01*
X203200000Y-52105468D01*
X203200002Y-52105468D01*
X203274535Y-52098947D01*
X203426692Y-52085635D01*
X203646496Y-52026739D01*
X203852734Y-51930568D01*
X204039139Y-51800047D01*
X204200047Y-51639139D01*
X204330568Y-51452734D01*
X204357618Y-51394724D01*
X204403790Y-51342285D01*
X204470983Y-51323133D01*
X204537865Y-51343348D01*
X204582381Y-51394724D01*
X204595418Y-51422681D01*
X204609429Y-51452728D01*
X204609432Y-51452734D01*
X204739954Y-51639141D01*
X204900858Y-51800045D01*
X204900861Y-51800047D01*
X205087266Y-51930568D01*
X205293504Y-52026739D01*
X205513308Y-52085635D01*
X205665465Y-52098947D01*
X205739998Y-52105468D01*
X205740000Y-52105468D01*
X205740002Y-52105468D01*
X205814535Y-52098947D01*
X205966692Y-52085635D01*
X206186496Y-52026739D01*
X206392734Y-51930568D01*
X206579139Y-51800047D01*
X206740047Y-51639139D01*
X206870568Y-51452734D01*
X206897618Y-51394724D01*
X206943790Y-51342285D01*
X207010983Y-51323133D01*
X207077865Y-51343348D01*
X207122381Y-51394724D01*
X207135418Y-51422681D01*
X207149429Y-51452728D01*
X207149432Y-51452734D01*
X207279954Y-51639141D01*
X207440858Y-51800045D01*
X207440861Y-51800047D01*
X207627266Y-51930568D01*
X207833504Y-52026739D01*
X208053308Y-52085635D01*
X208205465Y-52098947D01*
X208279998Y-52105468D01*
X208280000Y-52105468D01*
X208280002Y-52105468D01*
X208354535Y-52098947D01*
X208506692Y-52085635D01*
X208726496Y-52026739D01*
X208932734Y-51930568D01*
X209119139Y-51800047D01*
X209280047Y-51639139D01*
X209410568Y-51452734D01*
X209437618Y-51394724D01*
X209483790Y-51342285D01*
X209550983Y-51323133D01*
X209617865Y-51343348D01*
X209662381Y-51394724D01*
X209675418Y-51422681D01*
X209689429Y-51452728D01*
X209689432Y-51452734D01*
X209819954Y-51639141D01*
X209980858Y-51800045D01*
X209980861Y-51800047D01*
X210167266Y-51930568D01*
X210373504Y-52026739D01*
X210593308Y-52085635D01*
X210745465Y-52098947D01*
X210819998Y-52105468D01*
X210820000Y-52105468D01*
X210820002Y-52105468D01*
X210894535Y-52098947D01*
X211046692Y-52085635D01*
X211266496Y-52026739D01*
X211472734Y-51930568D01*
X211659139Y-51800047D01*
X211820047Y-51639139D01*
X211950568Y-51452734D01*
X211977618Y-51394724D01*
X212023790Y-51342285D01*
X212090983Y-51323133D01*
X212157865Y-51343348D01*
X212202381Y-51394724D01*
X212215418Y-51422681D01*
X212229429Y-51452728D01*
X212229432Y-51452734D01*
X212359954Y-51639141D01*
X212520858Y-51800045D01*
X212520861Y-51800047D01*
X212707266Y-51930568D01*
X212913504Y-52026739D01*
X213133308Y-52085635D01*
X213285465Y-52098947D01*
X213359998Y-52105468D01*
X213360000Y-52105468D01*
X213360002Y-52105468D01*
X213434535Y-52098947D01*
X213586692Y-52085635D01*
X213806496Y-52026739D01*
X214012734Y-51930568D01*
X214199139Y-51800047D01*
X214360047Y-51639139D01*
X214490568Y-51452734D01*
X214517618Y-51394724D01*
X214563790Y-51342285D01*
X214630983Y-51323133D01*
X214697865Y-51343348D01*
X214742381Y-51394724D01*
X214755418Y-51422681D01*
X214769429Y-51452728D01*
X214769432Y-51452734D01*
X214899954Y-51639141D01*
X215060858Y-51800045D01*
X215060861Y-51800047D01*
X215247266Y-51930568D01*
X215453504Y-52026739D01*
X215673308Y-52085635D01*
X215825465Y-52098947D01*
X215899998Y-52105468D01*
X215900000Y-52105468D01*
X215900002Y-52105468D01*
X215974535Y-52098947D01*
X216126692Y-52085635D01*
X216346496Y-52026739D01*
X216552734Y-51930568D01*
X216739139Y-51800047D01*
X216900047Y-51639139D01*
X217030568Y-51452734D01*
X217057618Y-51394724D01*
X217103790Y-51342285D01*
X217170983Y-51323133D01*
X217237865Y-51343348D01*
X217282381Y-51394724D01*
X217295418Y-51422681D01*
X217309429Y-51452728D01*
X217309432Y-51452734D01*
X217439954Y-51639141D01*
X217600858Y-51800045D01*
X217600861Y-51800047D01*
X217787266Y-51930568D01*
X217993504Y-52026739D01*
X218213308Y-52085635D01*
X218365465Y-52098947D01*
X218439998Y-52105468D01*
X218440000Y-52105468D01*
X218440002Y-52105468D01*
X218514535Y-52098947D01*
X218666692Y-52085635D01*
X218886496Y-52026739D01*
X219092734Y-51930568D01*
X219279139Y-51800047D01*
X219440047Y-51639139D01*
X219570568Y-51452734D01*
X219597618Y-51394724D01*
X219643790Y-51342285D01*
X219710983Y-51323133D01*
X219777865Y-51343348D01*
X219822381Y-51394724D01*
X219835418Y-51422681D01*
X219849429Y-51452728D01*
X219849432Y-51452734D01*
X219979954Y-51639141D01*
X220140858Y-51800045D01*
X220140861Y-51800047D01*
X220327266Y-51930568D01*
X220533504Y-52026739D01*
X220753308Y-52085635D01*
X220905465Y-52098947D01*
X220979998Y-52105468D01*
X220980000Y-52105468D01*
X220980002Y-52105468D01*
X221054535Y-52098947D01*
X221206692Y-52085635D01*
X221426496Y-52026739D01*
X221632734Y-51930568D01*
X221819139Y-51800047D01*
X221980047Y-51639139D01*
X222110568Y-51452734D01*
X222137618Y-51394724D01*
X222183790Y-51342285D01*
X222250983Y-51323133D01*
X222317865Y-51343348D01*
X222362381Y-51394724D01*
X222375418Y-51422681D01*
X222389429Y-51452728D01*
X222389432Y-51452734D01*
X222519954Y-51639141D01*
X222680858Y-51800045D01*
X222680861Y-51800047D01*
X222867266Y-51930568D01*
X223073504Y-52026739D01*
X223293308Y-52085635D01*
X223445465Y-52098947D01*
X223519998Y-52105468D01*
X223520000Y-52105468D01*
X223520001Y-52105468D01*
X223538304Y-52103866D01*
X223746692Y-52085635D01*
X223746697Y-52085633D01*
X223751881Y-52085180D01*
X223820381Y-52098946D01*
X223850370Y-52121027D01*
X225237162Y-53507819D01*
X225270647Y-53569142D01*
X225265663Y-53638834D01*
X225223791Y-53694767D01*
X225158327Y-53719184D01*
X225149481Y-53719500D01*
X193827974Y-53719500D01*
X193760935Y-53699815D01*
X193715180Y-53647011D01*
X193705236Y-53577853D01*
X193726399Y-53524377D01*
X193737993Y-53507819D01*
X193790568Y-53432734D01*
X193886739Y-53226496D01*
X193945635Y-53006692D01*
X193965468Y-52780000D01*
X193964549Y-52769500D01*
X193957492Y-52688834D01*
X193945635Y-52553308D01*
X193886739Y-52333504D01*
X193790568Y-52127266D01*
X193787864Y-52123405D01*
X193765541Y-52057198D01*
X193782556Y-51989432D01*
X193833507Y-51941622D01*
X193902217Y-51928948D01*
X193930406Y-51935249D01*
X193930745Y-51935368D01*
X193930751Y-51935368D01*
X193930752Y-51935369D01*
X193930750Y-51935369D01*
X194109996Y-51955565D01*
X194110000Y-51955565D01*
X194110004Y-51955565D01*
X194289249Y-51935369D01*
X194289252Y-51935368D01*
X194289255Y-51935368D01*
X194459522Y-51875789D01*
X194612262Y-51779816D01*
X194739816Y-51652262D01*
X194835789Y-51499522D01*
X194895368Y-51329255D01*
X194896058Y-51323133D01*
X194915565Y-51150003D01*
X194915565Y-51149996D01*
X194895369Y-50970750D01*
X194895368Y-50970745D01*
X194889708Y-50954569D01*
X194835789Y-50800478D01*
X194835489Y-50800001D01*
X194750431Y-50664632D01*
X194739816Y-50647738D01*
X194612262Y-50520184D01*
X194531125Y-50469202D01*
X194459523Y-50424211D01*
X194289254Y-50364631D01*
X194289249Y-50364630D01*
X194110004Y-50344435D01*
X194109996Y-50344435D01*
X193930750Y-50364630D01*
X193930745Y-50364631D01*
X193850983Y-50392542D01*
X193810028Y-50399500D01*
X190380182Y-50399500D01*
X190313143Y-50379815D01*
X190267388Y-50327011D01*
X190257444Y-50257853D01*
X190260407Y-50243407D01*
X190270466Y-50205865D01*
X190300063Y-50095408D01*
X190320659Y-49860000D01*
X190300063Y-49624592D01*
X190238903Y-49396337D01*
X190238900Y-49396331D01*
X190237053Y-49391256D01*
X190239348Y-49390420D01*
X190230412Y-49331528D01*
X190258942Y-49267748D01*
X190317424Y-49229517D01*
X190387291Y-49228973D01*
X190424120Y-49246444D01*
G37*
G04 #@! TD.AperFunction*
M02*
