M48
; DRILL file {KiCad 7.0.11+dfsg-1build4} date mer. 23 avril 2025 22:41:50
; FORMAT={-:-/ absolute / inch / decimal}
; #@! TF.CreationDate,2025-04-23T22:41:50-04:00
; #@! TF.GenerationSoftware,Kicad,Pcbnew,7.0.11+dfsg-1build4
; #@! TF.FileFunction,Plated,1,2,PTH
FMAT,2
INCH
; #@! TA.AperFunction,Plated,PTH,ViaDrill
T1C0.0118
; #@! TA.AperFunction,Plated,PTH,ComponentDrill
T2C0.0295
; #@! TA.AperFunction,Plated,PTH,ComponentDrill
T3C0.0315
; #@! TA.AperFunction,Plated,PTH,ComponentDrill
T4C0.0394
; #@! TA.AperFunction,Plated,PTH,ComponentDrill
T5C0.0433
; #@! TA.AperFunction,Plated,PTH,ComponentDrill
T6C0.0472
; #@! TA.AperFunction,Plated,PTH,ComponentDrill
T7C0.0551
; #@! TA.AperFunction,Plated,PTH,ComponentDrill
T8C0.0630
%
G90
G05
T1
X6.5571Y-1.6386
X6.5571Y-2.0256
X6.5602Y-3.0642
X6.6602Y-2.285
X6.7557Y-2.2506
X6.8622Y-2.1801
X6.9327Y-3.1917
X6.9508Y-3.6618
X6.9606Y-2.2122
X7.0608Y-2.1433
X7.1055Y-3.2909
X7.1579Y-2.9622
X7.1803Y-3.2909
X7.2051Y-2.8189
X7.2232Y-2.7272
X7.2518Y-2.8047
X7.2537Y-3.037
X7.3327Y-2.9614
X7.3334Y-3.4673
X7.5175Y-1.9051
X7.6421Y-2.0138
X7.7862Y-2.7112
X7.7862Y-2.9573
X7.8344Y-1.9051
X7.9012Y-1.9315
X7.976Y-2.761
X8.1002Y-2.0843
X8.801Y-2.285
X8.811Y-3.6535
X8.8994Y-2.1433
X8.9154Y-2.9557
X9.0992Y-2.2506
X9.1098Y-3.3917
X9.1988Y-2.1797
X9.1988Y-2.2122
X9.3409Y-3.1933
X9.411Y-1.978
X9.4366Y-1.9098
X9.5051Y-2.4181
T2
X6.6909Y-2.9634
X6.6909Y-3.0134
X6.6909Y-3.0634
T3
X6.422Y-2.6094
X6.422Y-3.0094
X6.9315Y-2.9504
X6.9315Y-3.3504
X7.1783Y-3.1949
X7.1783Y-3.3917
X7.235Y-3.666
X7.3334Y-3.666
X7.3539Y-2.0799
X7.3539Y-2.4799
X7.5354Y-2.8335
X7.585Y-2.078
X7.585Y-2.378
X7.9354Y-2.8335
X8.098Y-2.7094
X8.398Y-2.7094
T4
X6.2681Y-2.7205
X6.2681Y-2.8205
X6.2681Y-2.9205
X6.4102Y-2.3774
X6.4102Y-2.4774
X6.5602Y-2.5008
X6.6602Y-2.5008
X6.6917Y-3.4654
X6.7602Y-2.5008
X6.8602Y-2.5008
X6.9043Y-2.7906
X6.9472Y-3.5642
X6.9602Y-2.5008
X7.0043Y-2.7906
X7.0602Y-2.5008
X7.1138Y-3.0358
X7.1602Y-2.5008
X7.3396Y-1.963
X7.4396Y-1.963
X7.55Y-1.7067
X7.55Y-1.8067
X7.5598Y-2.4927
X7.5598Y-2.5927
X7.5598Y-2.6927
X7.65Y-1.7067
X7.65Y-1.8067
X7.75Y-1.7067
X7.75Y-1.8067
X7.8Y-2.0
X7.8Y-2.6
X7.85Y-1.7067
X7.85Y-1.8067
X7.9Y-2.0
X7.9Y-2.6
X7.95Y-1.7067
X7.95Y-1.8067
X8.0Y-2.0
X8.0Y-2.6
X8.05Y-1.7067
X8.05Y-1.8067
X8.1Y-2.0
X8.1Y-2.6
X8.15Y-1.7067
X8.15Y-1.8067
X8.1681Y-2.8295
X8.2Y-2.0
X8.2Y-2.6
X8.25Y-1.7067
X8.25Y-1.8067
X8.2681Y-2.8295
X8.3Y-2.0
X8.3Y-2.6
X8.35Y-1.7067
X8.35Y-1.8067
X8.3681Y-2.8295
X8.4Y-2.0
X8.4Y-2.6
X8.45Y-1.7067
X8.45Y-1.8067
X8.5Y-2.0
X8.5Y-2.6
X8.5173Y-2.739
X8.55Y-1.7067
X8.55Y-1.8067
X8.6Y-2.0
X8.6Y-2.6
X8.6173Y-2.739
X8.65Y-1.7067
X8.65Y-1.8067
X8.7Y-2.0
X8.7Y-2.6
X8.7173Y-2.739
X8.75Y-1.7067
X8.75Y-1.8067
X8.8Y-2.0
X8.8Y-2.6
X8.8173Y-2.739
X8.85Y-1.7067
X8.85Y-1.8067
X8.9Y-2.0
X8.9Y-2.6
X8.9173Y-2.739
X8.95Y-1.7067
X8.95Y-1.8067
X9.0Y-2.0
X9.0Y-2.6
X9.0173Y-2.739
X9.05Y-1.7067
X9.05Y-1.8067
X9.1Y-2.0
X9.1Y-2.6
X9.15Y-1.7067
X9.15Y-1.8067
X9.2Y-2.0
X9.2Y-2.6
X9.25Y-1.7067
X9.25Y-1.8067
X9.35Y-1.7067
X9.35Y-1.8067
X9.45Y-1.7067
X9.45Y-1.8067
X9.574Y-1.97
X9.574Y-2.07
X9.674Y-1.97
X9.674Y-2.07
T5
X7.3343Y-3.1917
X7.3343Y-3.2917
X7.3343Y-3.3917
X9.635Y-3.1941
X9.635Y-3.3941
T6
X9.2307Y-2.924
X9.7307Y-2.924
T7
X7.5567Y-2.9606
X7.5567Y-3.6496
X9.1138Y-2.9606
X9.1138Y-3.6496
T8
X9.3354Y-3.0933
X9.3354Y-3.6933
M30
