G04 #@! TF.GenerationSoftware,KiCad,Pcbnew,7.0.11+dfsg-1build4*
G04 #@! TF.CreationDate,2025-04-23T22:41:42-04:00*
G04 #@! TF.ProjectId,trackteur_arduino_V1,74726163-6b74-4657-9572-5f6172647569,rev?*
G04 #@! TF.SameCoordinates,Original*
G04 #@! TF.FileFunction,Soldermask,Bot*
G04 #@! TF.FilePolarity,Negative*
%FSLAX46Y46*%
G04 Gerber Fmt 4.6, Leading zero omitted, Abs format (unit mm)*
G04 Created by KiCad (PCBNEW 7.0.11+dfsg-1build4) date 2025-04-23 22:41:42*
%MOMM*%
%LPD*%
G01*
G04 APERTURE LIST*
G04 Aperture macros list*
%AMRoundRect*
0 Rectangle with rounded corners*
0 $1 Rounding radius*
0 $2 $3 $4 $5 $6 $7 $8 $9 X,Y pos of 4 corners*
0 Add a 4 corners polygon primitive as box body*
4,1,4,$2,$3,$4,$5,$6,$7,$8,$9,$2,$3,0*
0 Add four circle primitives for the rounded corners*
1,1,$1+$1,$2,$3*
1,1,$1+$1,$4,$5*
1,1,$1+$1,$6,$7*
1,1,$1+$1,$8,$9*
0 Add four rect primitives between the rounded corners*
20,1,$1+$1,$2,$3,$4,$5,0*
20,1,$1+$1,$4,$5,$6,$7,0*
20,1,$1+$1,$6,$7,$8,$9,0*
20,1,$1+$1,$8,$9,$2,$3,0*%
G04 Aperture macros list end*
%ADD10R,1.700000X1.700000*%
%ADD11R,1.600000X1.600000*%
%ADD12O,1.600000X1.600000*%
%ADD13R,2.000000X1.905000*%
%ADD14O,2.000000X1.905000*%
%ADD15R,3.200000X3.200000*%
%ADD16O,3.200000X3.200000*%
%ADD17C,2.700000*%
%ADD18O,1.700000X1.700000*%
%ADD19C,1.600000*%
%ADD20R,2.400000X2.400000*%
%ADD21O,2.400000X2.400000*%
%ADD22RoundRect,0.102000X0.825000X-0.825000X0.825000X0.825000X-0.825000X0.825000X-0.825000X-0.825000X0*%
%ADD23C,1.854000*%
%ADD24R,1.500000X1.050000*%
%ADD25O,1.500000X1.050000*%
%ADD26R,3.000000X3.000000*%
G04 APERTURE END LIST*
D10*
X176460000Y-90530000D03*
D11*
X192660000Y-60400000D03*
D12*
X192660000Y-52780000D03*
D10*
X180690000Y-77110000D03*
D13*
X186290000Y-81070000D03*
D14*
X186290000Y-83610000D03*
X186290000Y-86150000D03*
D15*
X237120000Y-93810000D03*
D16*
X237120000Y-78570000D03*
D17*
X161100000Y-44620000D03*
D10*
X159210000Y-74180000D03*
D18*
X159210000Y-71640000D03*
X159210000Y-69100000D03*
D19*
X163120000Y-76440000D03*
D12*
X163120000Y-66280000D03*
D10*
X212550000Y-71870000D03*
D18*
X210010000Y-71870000D03*
X207470000Y-71870000D03*
D11*
X213310000Y-68820000D03*
D12*
X205690000Y-68820000D03*
D20*
X247160000Y-74270000D03*
D21*
X234460000Y-74270000D03*
D22*
X244730000Y-86210000D03*
D23*
X244730000Y-81130000D03*
D10*
X216340000Y-69570000D03*
D18*
X218880000Y-69570000D03*
X221420000Y-69570000D03*
X223960000Y-69570000D03*
X226500000Y-69570000D03*
X229040000Y-69570000D03*
D11*
X186269513Y-93116400D03*
D19*
X183769513Y-93116400D03*
D17*
X186900000Y-67620000D03*
D10*
X175370000Y-70880000D03*
D18*
X177910000Y-70880000D03*
D17*
X244900000Y-44620000D03*
D19*
X176060000Y-85100000D03*
D12*
X176060000Y-74940000D03*
D10*
X192020000Y-63315000D03*
D18*
X192020000Y-65855000D03*
X192020000Y-68395000D03*
D17*
X161100000Y-92800000D03*
D24*
X169950000Y-75270000D03*
D25*
X169950000Y-76540000D03*
X169950000Y-77810000D03*
D10*
X162820000Y-62925000D03*
D18*
X162820000Y-60385000D03*
D10*
X166630000Y-63521200D03*
D18*
X169170000Y-63521200D03*
X171710000Y-63521200D03*
X174250000Y-63521200D03*
X176790000Y-63521200D03*
X179330000Y-63521200D03*
X181870000Y-63521200D03*
D10*
X186425000Y-49860000D03*
D18*
X188965000Y-49860000D03*
D10*
X169970000Y-88020000D03*
D17*
X244900000Y-67620000D03*
X244900000Y-92800000D03*
D19*
X186790000Y-52830000D03*
D12*
X186790000Y-62990000D03*
D19*
X182330000Y-86150000D03*
X182330000Y-81150000D03*
D26*
X231490000Y-92700000D03*
X191940000Y-92700000D03*
X231490000Y-75200000D03*
X191940000Y-75200000D03*
D17*
X186900000Y-44620000D03*
D10*
X191770000Y-45890000D03*
D18*
X191770000Y-43350000D03*
X194310000Y-45890000D03*
X194310000Y-43350000D03*
X196850000Y-45890000D03*
X196850000Y-43350000D03*
X199390000Y-45890000D03*
X199390000Y-43350000D03*
X201930000Y-45890000D03*
X201930000Y-43350000D03*
X204470000Y-45890000D03*
X204470000Y-43350000D03*
X207010000Y-45890000D03*
X207010000Y-43350000D03*
X209550000Y-45890000D03*
X209550000Y-43350000D03*
X212090000Y-45890000D03*
X212090000Y-43350000D03*
X214630000Y-45890000D03*
X214630000Y-43350000D03*
X217170000Y-45890000D03*
X217170000Y-43350000D03*
X219710000Y-45890000D03*
X219710000Y-43350000D03*
X222250000Y-45890000D03*
X222250000Y-43350000D03*
X224790000Y-45890000D03*
X224790000Y-43350000D03*
X227330000Y-45890000D03*
X227330000Y-43350000D03*
X229870000Y-45890000D03*
X229870000Y-43350000D03*
X232410000Y-45890000D03*
X232410000Y-43350000D03*
X234950000Y-45890000D03*
X234950000Y-43350000D03*
X237490000Y-45890000D03*
X237490000Y-43350000D03*
X240030000Y-45890000D03*
X240030000Y-43350000D03*
D10*
X243179600Y-50038000D03*
D18*
X245719600Y-50038000D03*
X243179600Y-52578000D03*
X245719600Y-52578000D03*
D19*
X201560000Y-71970000D03*
D12*
X191400000Y-71970000D03*
D11*
X198120000Y-66040000D03*
D12*
X200660000Y-66040000D03*
X203200000Y-66040000D03*
X205740000Y-66040000D03*
X208280000Y-66040000D03*
X210820000Y-66040000D03*
X213360000Y-66040000D03*
X215900000Y-66040000D03*
X218440000Y-66040000D03*
X220980000Y-66040000D03*
X223520000Y-66040000D03*
X226060000Y-66040000D03*
X228600000Y-66040000D03*
X231140000Y-66040000D03*
X233680000Y-66040000D03*
X233680000Y-50800000D03*
X231140000Y-50800000D03*
X228600000Y-50800000D03*
X226060000Y-50800000D03*
X223520000Y-50800000D03*
X220980000Y-50800000D03*
X218440000Y-50800000D03*
X215900000Y-50800000D03*
X213360000Y-50800000D03*
X210820000Y-50800000D03*
X208280000Y-50800000D03*
X205740000Y-50800000D03*
X203200000Y-50800000D03*
X200660000Y-50800000D03*
X198120000Y-50800000D03*
M02*
