G04 #@! TF.GenerationSoftware,KiCad,Pcbnew,7.0.11+dfsg-1build4*
G04 #@! TF.CreationDate,2025-04-23T22:41:42-04:00*
G04 #@! TF.ProjectId,trackteur_arduino_V1,74726163-6b74-4657-9572-5f6172647569,rev?*
G04 #@! TF.SameCoordinates,Original*
G04 #@! TF.FileFunction,Copper,L1,Top*
G04 #@! TF.FilePolarity,Positive*
%FSLAX46Y46*%
G04 Gerber Fmt 4.6, Leading zero omitted, Abs format (unit mm)*
G04 Created by KiCad (PCBNEW 7.0.11+dfsg-1build4) date 2025-04-23 22:41:42*
%MOMM*%
%LPD*%
G01*
G04 APERTURE LIST*
G04 #@! TA.AperFunction,ComponentPad*
%ADD10R,1.700000X1.700000*%
G04 #@! TD*
G04 #@! TA.AperFunction,ComponentPad*
%ADD11R,1.600000X1.600000*%
G04 #@! TD*
G04 #@! TA.AperFunction,ComponentPad*
%ADD12O,1.600000X1.600000*%
G04 #@! TD*
G04 #@! TA.AperFunction,ComponentPad*
%ADD13R,2.000000X1.905000*%
G04 #@! TD*
G04 #@! TA.AperFunction,ComponentPad*
%ADD14O,2.000000X1.905000*%
G04 #@! TD*
G04 #@! TA.AperFunction,ComponentPad*
%ADD15R,3.200000X3.200000*%
G04 #@! TD*
G04 #@! TA.AperFunction,ComponentPad*
%ADD16O,3.200000X3.200000*%
G04 #@! TD*
G04 #@! TA.AperFunction,ComponentPad*
%ADD17O,1.700000X1.700000*%
G04 #@! TD*
G04 #@! TA.AperFunction,ComponentPad*
%ADD18C,1.600000*%
G04 #@! TD*
G04 #@! TA.AperFunction,ComponentPad*
%ADD19R,2.400000X2.400000*%
G04 #@! TD*
G04 #@! TA.AperFunction,ComponentPad*
%ADD20O,2.400000X2.400000*%
G04 #@! TD*
G04 #@! TA.AperFunction,ComponentPad*
%ADD21R,1.650000X1.650000*%
G04 #@! TD*
G04 #@! TA.AperFunction,ComponentPad*
%ADD22C,1.650000*%
G04 #@! TD*
G04 #@! TA.AperFunction,ComponentPad*
%ADD23R,1.500000X1.050000*%
G04 #@! TD*
G04 #@! TA.AperFunction,ComponentPad*
%ADD24O,1.500000X1.050000*%
G04 #@! TD*
G04 #@! TA.AperFunction,ComponentPad*
%ADD25R,3.000000X3.000000*%
G04 #@! TD*
G04 #@! TA.AperFunction,ViaPad*
%ADD26C,0.600000*%
G04 #@! TD*
G04 #@! TA.AperFunction,Conductor*
%ADD27C,1.000000*%
G04 #@! TD*
G04 #@! TA.AperFunction,Conductor*
%ADD28C,0.600000*%
G04 #@! TD*
G04 #@! TA.AperFunction,Conductor*
%ADD29C,0.500000*%
G04 #@! TD*
G04 #@! TA.AperFunction,Conductor*
%ADD30C,0.400000*%
G04 #@! TD*
G04 APERTURE END LIST*
D10*
X176460000Y-90530000D03*
D11*
X192660000Y-60400000D03*
D12*
X192660000Y-52780000D03*
D10*
X180690000Y-77110000D03*
D13*
X186290000Y-81070000D03*
D14*
X186290000Y-83610000D03*
X186290000Y-86150000D03*
D15*
X237120000Y-93810000D03*
D16*
X237120000Y-78570000D03*
D10*
X159210000Y-74180000D03*
D17*
X159210000Y-71640000D03*
X159210000Y-69100000D03*
D18*
X163120000Y-76440000D03*
D12*
X163120000Y-66280000D03*
D10*
X212550000Y-71870000D03*
D17*
X210010000Y-71870000D03*
X207470000Y-71870000D03*
D11*
X213310000Y-68820000D03*
D12*
X205690000Y-68820000D03*
D19*
X247160000Y-74270000D03*
D20*
X234460000Y-74270000D03*
D21*
X244730000Y-86210000D03*
D22*
X244730000Y-81130000D03*
D10*
X216340000Y-69570000D03*
D17*
X218880000Y-69570000D03*
X221420000Y-69570000D03*
X223960000Y-69570000D03*
X226500000Y-69570000D03*
X229040000Y-69570000D03*
D11*
X186269513Y-93116400D03*
D18*
X183769513Y-93116400D03*
D10*
X175370000Y-70880000D03*
D17*
X177910000Y-70880000D03*
D18*
X176060000Y-85100000D03*
D12*
X176060000Y-74940000D03*
D10*
X192020000Y-63315000D03*
D17*
X192020000Y-65855000D03*
X192020000Y-68395000D03*
D23*
X169950000Y-75270000D03*
D24*
X169950000Y-76540000D03*
X169950000Y-77810000D03*
D10*
X162820000Y-62925000D03*
D17*
X162820000Y-60385000D03*
D10*
X166630000Y-63521200D03*
D17*
X169170000Y-63521200D03*
X171710000Y-63521200D03*
X174250000Y-63521200D03*
X176790000Y-63521200D03*
X179330000Y-63521200D03*
X181870000Y-63521200D03*
D10*
X186425000Y-49860000D03*
D17*
X188965000Y-49860000D03*
D10*
X169970000Y-88020000D03*
D18*
X186790000Y-52830000D03*
D12*
X186790000Y-62990000D03*
D18*
X182330000Y-86150000D03*
X182330000Y-81150000D03*
D25*
X231490000Y-92700000D03*
X191940000Y-92700000D03*
X231490000Y-75200000D03*
X191940000Y-75200000D03*
D10*
X191770000Y-45890000D03*
D17*
X191770000Y-43350000D03*
X194310000Y-45890000D03*
X194310000Y-43350000D03*
X196850000Y-45890000D03*
X196850000Y-43350000D03*
X199390000Y-45890000D03*
X199390000Y-43350000D03*
X201930000Y-45890000D03*
X201930000Y-43350000D03*
X204470000Y-45890000D03*
X204470000Y-43350000D03*
X207010000Y-45890000D03*
X207010000Y-43350000D03*
X209550000Y-45890000D03*
X209550000Y-43350000D03*
X212090000Y-45890000D03*
X212090000Y-43350000D03*
X214630000Y-45890000D03*
X214630000Y-43350000D03*
X217170000Y-45890000D03*
X217170000Y-43350000D03*
X219710000Y-45890000D03*
X219710000Y-43350000D03*
X222250000Y-45890000D03*
X222250000Y-43350000D03*
X224790000Y-45890000D03*
X224790000Y-43350000D03*
X227330000Y-45890000D03*
X227330000Y-43350000D03*
X229870000Y-45890000D03*
X229870000Y-43350000D03*
X232410000Y-45890000D03*
X232410000Y-43350000D03*
X234950000Y-45890000D03*
X234950000Y-43350000D03*
X237490000Y-45890000D03*
X237490000Y-43350000D03*
X240030000Y-45890000D03*
X240030000Y-43350000D03*
D10*
X243179600Y-50038000D03*
D17*
X245719600Y-50038000D03*
X243179600Y-52578000D03*
X245719600Y-52578000D03*
D18*
X201560000Y-71970000D03*
D12*
X191400000Y-71970000D03*
D11*
X198120000Y-66040000D03*
D12*
X200660000Y-66040000D03*
X203200000Y-66040000D03*
X205740000Y-66040000D03*
X208280000Y-66040000D03*
X210820000Y-66040000D03*
X213360000Y-66040000D03*
X215900000Y-66040000D03*
X218440000Y-66040000D03*
X220980000Y-66040000D03*
X223520000Y-66040000D03*
X226060000Y-66040000D03*
X228600000Y-66040000D03*
X231140000Y-66040000D03*
X233680000Y-66040000D03*
X233680000Y-50800000D03*
X231140000Y-50800000D03*
X228600000Y-50800000D03*
X226060000Y-50800000D03*
X223520000Y-50800000D03*
X220980000Y-50800000D03*
X218440000Y-50800000D03*
X215900000Y-50800000D03*
X213360000Y-50800000D03*
X210820000Y-50800000D03*
X208280000Y-50800000D03*
X205740000Y-50800000D03*
X203200000Y-50800000D03*
X200660000Y-50800000D03*
X198120000Y-50800000D03*
D26*
X200690000Y-49060000D03*
X176550000Y-93010000D03*
X176090000Y-81070000D03*
X186250000Y-75220000D03*
X181810000Y-75240000D03*
X197770000Y-75115000D03*
X197770000Y-68865000D03*
X205745000Y-52940000D03*
X226450000Y-75075000D03*
X190945000Y-48390000D03*
X198995000Y-48390000D03*
X169170000Y-58040000D03*
X223545000Y-58040000D03*
X179345000Y-54440000D03*
X226045000Y-54440000D03*
X231120000Y-57165000D03*
X171595000Y-57165000D03*
X176800000Y-56190000D03*
X233650000Y-56190000D03*
X233650000Y-55365000D03*
X174300000Y-55375000D03*
X194110000Y-51150000D03*
X166550000Y-41620000D03*
X223800000Y-92800000D03*
X166630000Y-77830000D03*
X166550000Y-51450000D03*
X186269513Y-88070000D03*
X183470000Y-69270000D03*
X202590000Y-70130000D03*
X183010000Y-71600000D03*
X184195000Y-71240000D03*
X182380000Y-83590000D03*
X184245000Y-77140000D03*
X180480000Y-83590000D03*
X241430000Y-61420000D03*
X239040000Y-50240000D03*
X239690000Y-48510000D03*
X237260000Y-81110000D03*
X231390000Y-86150000D03*
D27*
X240040000Y-45900000D02*
X240030000Y-45890000D01*
X176460000Y-85500000D02*
X176060000Y-85100000D01*
X186290000Y-81070000D02*
X186290000Y-75260000D01*
X226450000Y-75075000D02*
X226450000Y-69620000D01*
D28*
X232445000Y-43315000D02*
X232410000Y-43350000D01*
D27*
X226450000Y-69620000D02*
X226500000Y-69570000D01*
X186290000Y-75260000D02*
X186250000Y-75220000D01*
X200660000Y-50800000D02*
X200660000Y-49090000D01*
X200660000Y-49090000D02*
X200690000Y-49060000D01*
X205670000Y-66110000D02*
X205740000Y-66040000D01*
D28*
X227320000Y-43340000D02*
X227330000Y-43350000D01*
D27*
X205740000Y-52945000D02*
X205740000Y-66040000D01*
X176460000Y-90530000D02*
X176460000Y-85500000D01*
X197770000Y-75115000D02*
X197770000Y-68865000D01*
X176090000Y-85070000D02*
X176060000Y-85100000D01*
X181810000Y-63581200D02*
X181870000Y-63521200D01*
X176550000Y-93010000D02*
X176550000Y-90620000D01*
X205745000Y-52940000D02*
X205740000Y-52945000D01*
X201920000Y-45900000D02*
X201930000Y-45890000D01*
X176550000Y-90620000D02*
X176460000Y-90530000D01*
X176090000Y-81070000D02*
X176090000Y-85070000D01*
X181810000Y-75240000D02*
X181810000Y-63581200D01*
D28*
X188965000Y-49860000D02*
X189475000Y-49860000D01*
X189475000Y-49860000D02*
X190945000Y-48390000D01*
X192020000Y-68395000D02*
X191395000Y-68395000D01*
D27*
X198995000Y-46285000D02*
X199390000Y-45890000D01*
X198995000Y-48390000D02*
X198995000Y-46285000D01*
D28*
X188965000Y-65965000D02*
X188965000Y-49860000D01*
D27*
X190930000Y-48405000D02*
X190945000Y-48390000D01*
D28*
X191395000Y-68395000D02*
X188965000Y-65965000D01*
X223520000Y-66040000D02*
X223520000Y-58065000D01*
X169170000Y-63521200D02*
X169170000Y-58040000D01*
X223520000Y-58065000D02*
X223545000Y-58040000D01*
X179330000Y-54455000D02*
X179345000Y-54440000D01*
X179330000Y-63521200D02*
X179330000Y-54455000D01*
X226060000Y-54455000D02*
X226045000Y-54440000D01*
X226060000Y-66040000D02*
X226060000Y-54455000D01*
X231140000Y-66040000D02*
X231140000Y-57185000D01*
X231140000Y-57185000D02*
X231120000Y-57165000D01*
X171710000Y-57280000D02*
X171595000Y-57165000D01*
X171710000Y-63521200D02*
X171710000Y-57280000D01*
X233680000Y-56220000D02*
X233650000Y-56190000D01*
X233680000Y-66040000D02*
X233680000Y-56220000D01*
X176790000Y-63521200D02*
X176790000Y-56200000D01*
X176790000Y-56200000D02*
X176800000Y-56190000D01*
X233680000Y-50800000D02*
X233680000Y-55335000D01*
X174300000Y-63471200D02*
X174250000Y-63521200D01*
X233680000Y-55335000D02*
X233650000Y-55365000D01*
X174300000Y-55375000D02*
X174300000Y-63471200D01*
D29*
X203390000Y-53150000D02*
X202590000Y-53150000D01*
D27*
X223800000Y-69730000D02*
X223960000Y-69570000D01*
X186269513Y-93116400D02*
X186269513Y-88070000D01*
D29*
X196110000Y-53150000D02*
X194110000Y-51150000D01*
X202590000Y-53150000D02*
X196110000Y-53150000D01*
D27*
X223800000Y-92800000D02*
X223800000Y-69730000D01*
X166630000Y-77830000D02*
X166630000Y-63521200D01*
D28*
X166550000Y-63441200D02*
X166630000Y-63521200D01*
X166550000Y-41620000D02*
X166550000Y-51450000D01*
D27*
X169970000Y-88020000D02*
X169970000Y-77830000D01*
D29*
X205740000Y-50800000D02*
X203390000Y-53150000D01*
D27*
X186269513Y-86170487D02*
X186269513Y-88070000D01*
X186290000Y-86150000D02*
X186269513Y-86170487D01*
D28*
X166550000Y-51450000D02*
X166550000Y-63441200D01*
D27*
X169970000Y-77830000D02*
X169950000Y-77810000D01*
D28*
X202590000Y-70130000D02*
X204330000Y-71870000D01*
D27*
X183470000Y-69270000D02*
X183470000Y-42770000D01*
D28*
X197885000Y-41845000D02*
X197860000Y-41820000D01*
X197860000Y-41820000D02*
X184420000Y-41820000D01*
X199390000Y-43350000D02*
X197885000Y-41845000D01*
D27*
X183010000Y-69730000D02*
X183010000Y-71600000D01*
D28*
X197885000Y-41845000D02*
X197660000Y-41620000D01*
D27*
X183470000Y-42770000D02*
X184420000Y-41820000D01*
X183390000Y-69350000D02*
X183010000Y-69730000D01*
D28*
X204330000Y-71870000D02*
X207470000Y-71870000D01*
D27*
X183390000Y-69350000D02*
X183470000Y-69270000D01*
D28*
X184195000Y-71240000D02*
X184720000Y-70715000D01*
D27*
X182380000Y-86100000D02*
X182330000Y-86150000D01*
D28*
X184245000Y-71290000D02*
X184195000Y-71240000D01*
D27*
X182380000Y-83590000D02*
X182380000Y-86100000D01*
D28*
X184720000Y-64960000D02*
X184820000Y-64960000D01*
X184820000Y-64960000D02*
X186790000Y-62990000D01*
D27*
X180480000Y-83590000D02*
X180480000Y-77320000D01*
D28*
X184720000Y-70715000D02*
X184720000Y-64960000D01*
D27*
X180480000Y-77320000D02*
X180690000Y-77110000D01*
X184245000Y-77140000D02*
X184245000Y-71290000D01*
D28*
X201930000Y-43350000D02*
X201930000Y-42850000D01*
X241240000Y-41650000D02*
X241870000Y-42280000D01*
X241580000Y-48770000D02*
X241430000Y-48920000D01*
X159210000Y-62390000D02*
X159210000Y-69100000D01*
X241920000Y-42280000D02*
X241920000Y-48430000D01*
X241430000Y-48920000D02*
X241430000Y-61420000D01*
X162820000Y-60385000D02*
X161215000Y-60385000D01*
X241210000Y-41620000D02*
X241240000Y-41650000D01*
X161215000Y-60385000D02*
X159210000Y-62390000D01*
X203160000Y-41620000D02*
X241210000Y-41620000D01*
X241920000Y-48430000D02*
X241580000Y-48770000D01*
X241870000Y-42280000D02*
X241920000Y-42280000D01*
X201930000Y-42850000D02*
X203160000Y-41620000D01*
D27*
X208290000Y-66030000D02*
X208280000Y-66040000D01*
X215900000Y-69130000D02*
X216340000Y-69570000D01*
X215900000Y-66040000D02*
X215900000Y-69130000D01*
X218440000Y-66040000D02*
X218440000Y-69130000D01*
X218440000Y-69130000D02*
X218880000Y-69570000D01*
X220980000Y-66040000D02*
X220980000Y-69130000D01*
X220980000Y-69130000D02*
X221420000Y-69570000D01*
X228600000Y-66040000D02*
X228600000Y-69130000D01*
X228600000Y-69130000D02*
X229040000Y-69570000D01*
D30*
X220980000Y-50800000D02*
X220980000Y-50420000D01*
X238120000Y-49320000D02*
X239040000Y-50240000D01*
X222080000Y-49320000D02*
X238120000Y-49320000D01*
X220980000Y-50420000D02*
X222080000Y-49320000D01*
X218440000Y-50800000D02*
X218440000Y-50130000D01*
X220090000Y-48480000D02*
X220150000Y-48480000D01*
X218440000Y-50130000D02*
X219840000Y-48730000D01*
X219840000Y-48730000D02*
X220090000Y-48480000D01*
X220150000Y-48480000D02*
X239660000Y-48480000D01*
X239660000Y-48480000D02*
X239690000Y-48510000D01*
D28*
X237260000Y-78710000D02*
X237120000Y-78570000D01*
D27*
X237260000Y-81110000D02*
X237260000Y-78710000D01*
D28*
X231390000Y-75300000D02*
X231490000Y-75200000D01*
D27*
X231390000Y-86150000D02*
X231390000Y-75300000D01*
D28*
X192020000Y-61040000D02*
X192660000Y-60400000D01*
X192020000Y-63315000D02*
X192020000Y-61040000D01*
X186790000Y-52830000D02*
X186790000Y-50225000D01*
X186790000Y-50225000D02*
X186425000Y-49860000D01*
X176070000Y-74930000D02*
X176060000Y-74940000D01*
X163120000Y-66280000D02*
X163120000Y-63225000D01*
X163120000Y-63225000D02*
X162820000Y-62925000D01*
G04 #@! TA.AperFunction,Conductor*
G36*
X165706463Y-41340185D02*
G01*
X165752218Y-41392989D01*
X165762644Y-41458383D01*
X165744435Y-41619996D01*
X165744435Y-41620001D01*
X165748720Y-41658029D01*
X165749500Y-41671914D01*
X165749500Y-51398085D01*
X165748720Y-51411969D01*
X165744435Y-51449998D01*
X165744435Y-51450001D01*
X165748720Y-51488029D01*
X165749500Y-51501914D01*
X165749500Y-62062300D01*
X165729815Y-62129339D01*
X165677011Y-62175094D01*
X165668833Y-62178482D01*
X165537671Y-62227402D01*
X165537664Y-62227406D01*
X165422455Y-62313652D01*
X165422452Y-62313655D01*
X165336206Y-62428864D01*
X165336202Y-62428871D01*
X165285908Y-62563717D01*
X165279501Y-62623316D01*
X165279500Y-62623335D01*
X165279500Y-64419070D01*
X165279501Y-64419076D01*
X165285908Y-64478683D01*
X165336202Y-64613528D01*
X165336206Y-64613535D01*
X165422452Y-64728744D01*
X165422455Y-64728747D01*
X165537665Y-64814994D01*
X165537667Y-64814994D01*
X165537669Y-64814996D01*
X165548830Y-64819158D01*
X165604764Y-64861026D01*
X165629184Y-64926489D01*
X165629500Y-64935341D01*
X165629500Y-77880743D01*
X165644925Y-78032439D01*
X165705837Y-78226579D01*
X165705844Y-78226594D01*
X165804589Y-78404499D01*
X165804592Y-78404504D01*
X165937132Y-78558893D01*
X165937134Y-78558895D01*
X166098037Y-78683445D01*
X166098038Y-78683445D01*
X166098042Y-78683448D01*
X166280729Y-78773060D01*
X166477715Y-78824063D01*
X166680936Y-78834369D01*
X166882071Y-78803556D01*
X167072887Y-78732886D01*
X167245571Y-78625252D01*
X167393053Y-78485059D01*
X167509295Y-78318049D01*
X167589540Y-78131058D01*
X167630500Y-77931741D01*
X167630500Y-71777870D01*
X174019500Y-71777870D01*
X174019501Y-71777876D01*
X174025908Y-71837483D01*
X174076202Y-71972328D01*
X174076206Y-71972335D01*
X174162452Y-72087544D01*
X174162454Y-72087546D01*
X174277664Y-72173793D01*
X174277671Y-72173797D01*
X174412517Y-72224091D01*
X174412516Y-72224091D01*
X174419444Y-72224835D01*
X174472127Y-72230500D01*
X176267872Y-72230499D01*
X176327483Y-72224091D01*
X176462331Y-72173796D01*
X176577546Y-72087546D01*
X176663796Y-71972331D01*
X176712810Y-71840916D01*
X176754681Y-71784984D01*
X176820145Y-71760566D01*
X176888418Y-71775417D01*
X176916673Y-71796569D01*
X177038599Y-71918495D01*
X177135384Y-71986265D01*
X177232165Y-72054032D01*
X177232167Y-72054033D01*
X177232170Y-72054035D01*
X177446337Y-72153903D01*
X177674592Y-72215063D01*
X177851034Y-72230500D01*
X177909999Y-72235659D01*
X177910000Y-72235659D01*
X177910001Y-72235659D01*
X177968966Y-72230500D01*
X178145408Y-72215063D01*
X178373663Y-72153903D01*
X178587830Y-72054035D01*
X178781401Y-71918495D01*
X178948495Y-71751401D01*
X179084035Y-71557830D01*
X179183903Y-71343663D01*
X179245063Y-71115408D01*
X179265659Y-70880000D01*
X179245063Y-70644592D01*
X179190619Y-70441400D01*
X179183905Y-70416344D01*
X179183904Y-70416343D01*
X179183903Y-70416337D01*
X179084035Y-70202171D01*
X179039448Y-70138493D01*
X178948494Y-70008597D01*
X178781402Y-69841506D01*
X178781395Y-69841501D01*
X178764187Y-69829452D01*
X178704518Y-69787671D01*
X178587834Y-69705967D01*
X178587830Y-69705965D01*
X178567867Y-69696656D01*
X178373663Y-69606097D01*
X178373659Y-69606096D01*
X178373655Y-69606094D01*
X178145413Y-69544938D01*
X178145403Y-69544936D01*
X177910001Y-69524341D01*
X177909999Y-69524341D01*
X177674596Y-69544936D01*
X177674586Y-69544938D01*
X177446344Y-69606094D01*
X177446335Y-69606098D01*
X177232171Y-69705964D01*
X177232169Y-69705965D01*
X177038600Y-69841503D01*
X176916673Y-69963430D01*
X176855350Y-69996914D01*
X176785658Y-69991930D01*
X176729725Y-69950058D01*
X176712810Y-69919081D01*
X176663797Y-69787671D01*
X176663793Y-69787664D01*
X176577547Y-69672455D01*
X176577544Y-69672452D01*
X176462335Y-69586206D01*
X176462328Y-69586202D01*
X176327482Y-69535908D01*
X176327483Y-69535908D01*
X176267883Y-69529501D01*
X176267881Y-69529500D01*
X176267873Y-69529500D01*
X176267864Y-69529500D01*
X174472129Y-69529500D01*
X174472123Y-69529501D01*
X174412516Y-69535908D01*
X174277671Y-69586202D01*
X174277664Y-69586206D01*
X174162455Y-69672452D01*
X174162452Y-69672455D01*
X174076206Y-69787664D01*
X174076202Y-69787671D01*
X174025908Y-69922517D01*
X174019501Y-69982116D01*
X174019500Y-69982135D01*
X174019500Y-71777870D01*
X167630500Y-71777870D01*
X167630500Y-64935341D01*
X167650185Y-64868302D01*
X167702989Y-64822547D01*
X167711149Y-64819166D01*
X167722331Y-64814996D01*
X167749533Y-64794633D01*
X167788923Y-64765145D01*
X167837546Y-64728746D01*
X167923796Y-64613531D01*
X167972810Y-64482116D01*
X168014681Y-64426184D01*
X168080145Y-64401766D01*
X168148418Y-64416617D01*
X168176673Y-64437769D01*
X168298599Y-64559695D01*
X168395384Y-64627465D01*
X168492165Y-64695232D01*
X168492167Y-64695233D01*
X168492170Y-64695235D01*
X168706337Y-64795103D01*
X168706343Y-64795104D01*
X168706344Y-64795105D01*
X168724658Y-64800012D01*
X168934592Y-64856263D01*
X169122918Y-64872739D01*
X169169999Y-64876859D01*
X169170000Y-64876859D01*
X169170001Y-64876859D01*
X169209234Y-64873426D01*
X169405408Y-64856263D01*
X169633663Y-64795103D01*
X169847830Y-64695235D01*
X170041401Y-64559695D01*
X170208495Y-64392601D01*
X170338425Y-64207042D01*
X170393002Y-64163417D01*
X170462500Y-64156223D01*
X170524855Y-64187746D01*
X170541575Y-64207042D01*
X170671278Y-64392278D01*
X170671505Y-64392601D01*
X170838599Y-64559695D01*
X170935384Y-64627465D01*
X171032165Y-64695232D01*
X171032167Y-64695233D01*
X171032170Y-64695235D01*
X171246337Y-64795103D01*
X171246343Y-64795104D01*
X171246344Y-64795105D01*
X171264658Y-64800012D01*
X171474592Y-64856263D01*
X171662918Y-64872739D01*
X171709999Y-64876859D01*
X171710000Y-64876859D01*
X171710001Y-64876859D01*
X171749234Y-64873426D01*
X171945408Y-64856263D01*
X172173663Y-64795103D01*
X172387830Y-64695235D01*
X172581401Y-64559695D01*
X172748495Y-64392601D01*
X172878425Y-64207042D01*
X172933002Y-64163417D01*
X173002500Y-64156223D01*
X173064855Y-64187746D01*
X173081575Y-64207042D01*
X173211278Y-64392278D01*
X173211505Y-64392601D01*
X173378599Y-64559695D01*
X173475384Y-64627465D01*
X173572165Y-64695232D01*
X173572167Y-64695233D01*
X173572170Y-64695235D01*
X173786337Y-64795103D01*
X173786343Y-64795104D01*
X173786344Y-64795105D01*
X173804658Y-64800012D01*
X174014592Y-64856263D01*
X174202918Y-64872739D01*
X174249999Y-64876859D01*
X174250000Y-64876859D01*
X174250001Y-64876859D01*
X174289234Y-64873426D01*
X174485408Y-64856263D01*
X174713663Y-64795103D01*
X174927830Y-64695235D01*
X175121401Y-64559695D01*
X175288495Y-64392601D01*
X175418425Y-64207042D01*
X175473002Y-64163417D01*
X175542500Y-64156223D01*
X175604855Y-64187746D01*
X175621575Y-64207042D01*
X175751278Y-64392278D01*
X175751505Y-64392601D01*
X175918599Y-64559695D01*
X176015384Y-64627465D01*
X176112165Y-64695232D01*
X176112167Y-64695233D01*
X176112170Y-64695235D01*
X176326337Y-64795103D01*
X176326343Y-64795104D01*
X176326344Y-64795105D01*
X176344658Y-64800012D01*
X176554592Y-64856263D01*
X176742918Y-64872739D01*
X176789999Y-64876859D01*
X176790000Y-64876859D01*
X176790001Y-64876859D01*
X176829234Y-64873426D01*
X177025408Y-64856263D01*
X177253663Y-64795103D01*
X177467830Y-64695235D01*
X177661401Y-64559695D01*
X177828495Y-64392601D01*
X177958425Y-64207042D01*
X178013002Y-64163417D01*
X178082500Y-64156223D01*
X178144855Y-64187746D01*
X178161575Y-64207042D01*
X178291278Y-64392278D01*
X178291505Y-64392601D01*
X178458599Y-64559695D01*
X178555384Y-64627465D01*
X178652165Y-64695232D01*
X178652167Y-64695233D01*
X178652170Y-64695235D01*
X178866337Y-64795103D01*
X178866343Y-64795104D01*
X178866344Y-64795105D01*
X178884658Y-64800012D01*
X179094592Y-64856263D01*
X179282918Y-64872739D01*
X179329999Y-64876859D01*
X179330000Y-64876859D01*
X179330001Y-64876859D01*
X179369234Y-64873426D01*
X179565408Y-64856263D01*
X179793663Y-64795103D01*
X180007830Y-64695235D01*
X180201401Y-64559695D01*
X180368495Y-64392601D01*
X180498730Y-64206605D01*
X180553307Y-64162981D01*
X180622805Y-64155787D01*
X180685160Y-64187310D01*
X180701879Y-64206605D01*
X180831890Y-64392278D01*
X180998917Y-64559305D01*
X181192421Y-64694800D01*
X181406507Y-64794629D01*
X181406516Y-64794633D01*
X181620000Y-64851834D01*
X181620000Y-63956701D01*
X181727685Y-64005880D01*
X181834237Y-64021200D01*
X181905763Y-64021200D01*
X182012315Y-64005880D01*
X182120000Y-63956701D01*
X182120000Y-64851833D01*
X182313407Y-64800012D01*
X182383257Y-64801675D01*
X182441119Y-64840838D01*
X182468623Y-64905066D01*
X182469500Y-64919787D01*
X182469500Y-68804217D01*
X182449815Y-68871256D01*
X182433185Y-68891893D01*
X182312644Y-69012435D01*
X182310397Y-69014626D01*
X182246946Y-69074942D01*
X182213245Y-69123361D01*
X182207574Y-69130882D01*
X182170302Y-69176592D01*
X182170298Y-69176598D01*
X182156209Y-69203568D01*
X182148082Y-69216983D01*
X182130702Y-69241955D01*
X182107438Y-69296165D01*
X182103398Y-69304672D01*
X182076090Y-69356951D01*
X182076090Y-69356952D01*
X182067720Y-69386201D01*
X182062459Y-69400979D01*
X182050459Y-69428943D01*
X182043784Y-69461424D01*
X182040005Y-69479817D01*
X182038588Y-69486711D01*
X182036342Y-69495860D01*
X182020113Y-69552577D01*
X182017802Y-69582926D01*
X182015622Y-69598466D01*
X182009500Y-69628258D01*
X182009500Y-69687240D01*
X182009142Y-69696656D01*
X182004662Y-69755474D01*
X182008506Y-69785649D01*
X182009500Y-69801317D01*
X182009500Y-71650743D01*
X182024925Y-71802439D01*
X182085837Y-71996579D01*
X182085844Y-71996594D01*
X182184589Y-72174499D01*
X182184592Y-72174504D01*
X182317132Y-72328893D01*
X182317134Y-72328895D01*
X182478037Y-72453445D01*
X182478038Y-72453445D01*
X182478042Y-72453448D01*
X182660729Y-72543060D01*
X182857715Y-72594063D01*
X183060936Y-72604369D01*
X183101724Y-72598120D01*
X183170969Y-72607425D01*
X183224193Y-72652691D01*
X183244495Y-72719546D01*
X183244500Y-72720690D01*
X183244500Y-77190743D01*
X183259925Y-77342439D01*
X183320837Y-77536579D01*
X183320844Y-77536594D01*
X183419589Y-77714499D01*
X183419592Y-77714504D01*
X183552132Y-77868893D01*
X183552134Y-77868895D01*
X183713037Y-77993445D01*
X183713038Y-77993445D01*
X183713042Y-77993448D01*
X183895729Y-78083060D01*
X184092715Y-78134063D01*
X184295936Y-78144369D01*
X184497071Y-78113556D01*
X184687887Y-78042886D01*
X184860571Y-77935252D01*
X185008053Y-77795059D01*
X185124295Y-77628049D01*
X185204540Y-77441058D01*
X185245500Y-77241741D01*
X185245500Y-76747844D01*
X189940000Y-76747844D01*
X189946401Y-76807372D01*
X189946403Y-76807379D01*
X189996645Y-76942086D01*
X189996649Y-76942093D01*
X190082809Y-77057187D01*
X190082812Y-77057190D01*
X190197906Y-77143350D01*
X190197913Y-77143354D01*
X190332620Y-77193596D01*
X190332627Y-77193598D01*
X190392155Y-77199999D01*
X190392172Y-77200000D01*
X191690000Y-77200000D01*
X191690000Y-75853837D01*
X191771249Y-75884651D01*
X191897660Y-75900000D01*
X191982340Y-75900000D01*
X192108751Y-75884651D01*
X192190000Y-75853837D01*
X192190000Y-77200000D01*
X193487828Y-77200000D01*
X193487844Y-77199999D01*
X193547372Y-77193598D01*
X193547379Y-77193596D01*
X193682086Y-77143354D01*
X193682093Y-77143350D01*
X193797187Y-77057190D01*
X193797190Y-77057187D01*
X193883350Y-76942093D01*
X193883354Y-76942086D01*
X193933596Y-76807379D01*
X193933598Y-76807372D01*
X193939999Y-76747844D01*
X193940000Y-76747827D01*
X193940000Y-75450000D01*
X192599329Y-75450000D01*
X192640000Y-75284995D01*
X192640000Y-75115005D01*
X192599329Y-74950000D01*
X193940000Y-74950000D01*
X193940000Y-73652172D01*
X193939999Y-73652155D01*
X193933598Y-73592627D01*
X193933596Y-73592620D01*
X193883354Y-73457913D01*
X193883350Y-73457906D01*
X193797190Y-73342812D01*
X193797187Y-73342809D01*
X193682093Y-73256649D01*
X193682086Y-73256645D01*
X193547379Y-73206403D01*
X193547372Y-73206401D01*
X193487844Y-73200000D01*
X192304010Y-73200000D01*
X192236971Y-73180315D01*
X192191216Y-73127511D01*
X192181272Y-73058353D01*
X192210297Y-72994797D01*
X192232887Y-72974425D01*
X192235704Y-72972452D01*
X192239139Y-72970047D01*
X192400047Y-72809139D01*
X192530568Y-72622734D01*
X192626739Y-72416496D01*
X192685635Y-72196692D01*
X192705468Y-71970001D01*
X200254532Y-71970001D01*
X200274364Y-72196686D01*
X200274366Y-72196697D01*
X200333258Y-72416488D01*
X200333261Y-72416497D01*
X200429431Y-72622732D01*
X200429432Y-72622734D01*
X200559954Y-72809141D01*
X200720858Y-72970045D01*
X200724300Y-72972455D01*
X200907266Y-73100568D01*
X201113504Y-73196739D01*
X201333308Y-73255635D01*
X201495230Y-73269801D01*
X201559998Y-73275468D01*
X201560000Y-73275468D01*
X201560002Y-73275468D01*
X201616673Y-73270509D01*
X201786692Y-73255635D01*
X202006496Y-73196739D01*
X202212734Y-73100568D01*
X202399139Y-72970047D01*
X202560047Y-72809139D01*
X202690568Y-72622734D01*
X202786739Y-72416496D01*
X202845635Y-72196692D01*
X202865468Y-71970000D01*
X202853698Y-71835472D01*
X202867464Y-71766974D01*
X202916079Y-71716791D01*
X202984108Y-71700857D01*
X203049952Y-71724232D01*
X203064907Y-71736985D01*
X203700184Y-72372262D01*
X203781367Y-72453445D01*
X203827738Y-72499816D01*
X203860150Y-72520182D01*
X203871490Y-72528229D01*
X203901411Y-72552090D01*
X203901415Y-72552093D01*
X203935897Y-72568698D01*
X203948070Y-72575426D01*
X203980478Y-72595789D01*
X204016613Y-72608433D01*
X204029442Y-72613748D01*
X204063939Y-72630360D01*
X204101249Y-72638876D01*
X204114612Y-72642725D01*
X204150742Y-72655367D01*
X204150745Y-72655368D01*
X204188790Y-72659654D01*
X204202479Y-72661980D01*
X204239806Y-72670500D01*
X204285046Y-72670500D01*
X206317309Y-72670500D01*
X206384348Y-72690185D01*
X206418883Y-72723375D01*
X206431501Y-72741396D01*
X206431508Y-72741405D01*
X206517586Y-72827482D01*
X206598599Y-72908495D01*
X206675750Y-72962517D01*
X206792165Y-73044032D01*
X206792167Y-73044033D01*
X206792170Y-73044035D01*
X207006337Y-73143903D01*
X207234592Y-73205063D01*
X207411034Y-73220500D01*
X207469999Y-73225659D01*
X207470000Y-73225659D01*
X207470001Y-73225659D01*
X207528966Y-73220500D01*
X207705408Y-73205063D01*
X207933663Y-73143903D01*
X208147830Y-73044035D01*
X208341401Y-72908495D01*
X208508495Y-72741401D01*
X208628861Y-72569501D01*
X208638425Y-72555842D01*
X208693002Y-72512217D01*
X208762500Y-72505023D01*
X208824855Y-72536546D01*
X208841575Y-72555842D01*
X208958883Y-72723376D01*
X208971505Y-72741401D01*
X209138599Y-72908495D01*
X209215750Y-72962517D01*
X209332165Y-73044032D01*
X209332167Y-73044033D01*
X209332170Y-73044035D01*
X209546337Y-73143903D01*
X209774592Y-73205063D01*
X209951034Y-73220500D01*
X210009999Y-73225659D01*
X210010000Y-73225659D01*
X210010001Y-73225659D01*
X210068966Y-73220500D01*
X210245408Y-73205063D01*
X210473663Y-73143903D01*
X210687830Y-73044035D01*
X210881401Y-72908495D01*
X211003329Y-72786566D01*
X211064648Y-72753084D01*
X211134340Y-72758068D01*
X211190274Y-72799939D01*
X211207189Y-72830917D01*
X211256202Y-72962328D01*
X211256206Y-72962335D01*
X211342452Y-73077544D01*
X211342455Y-73077547D01*
X211457664Y-73163793D01*
X211457671Y-73163797D01*
X211592517Y-73214091D01*
X211592516Y-73214091D01*
X211599444Y-73214835D01*
X211652127Y-73220500D01*
X213447872Y-73220499D01*
X213507483Y-73214091D01*
X213642331Y-73163796D01*
X213757546Y-73077546D01*
X213843796Y-72962331D01*
X213894091Y-72827483D01*
X213900500Y-72767873D01*
X213900499Y-70972128D01*
X213894091Y-70912517D01*
X213892810Y-70909083D01*
X213843797Y-70777671D01*
X213843793Y-70777664D01*
X213757547Y-70662455D01*
X213757544Y-70662452D01*
X213642335Y-70576206D01*
X213642328Y-70576202D01*
X213507482Y-70525908D01*
X213507483Y-70525908D01*
X213447883Y-70519501D01*
X213447881Y-70519500D01*
X213447873Y-70519500D01*
X213447864Y-70519500D01*
X211652129Y-70519500D01*
X211652123Y-70519501D01*
X211592516Y-70525908D01*
X211457671Y-70576202D01*
X211457664Y-70576206D01*
X211342455Y-70662452D01*
X211342452Y-70662455D01*
X211256206Y-70777664D01*
X211256203Y-70777669D01*
X211207189Y-70909083D01*
X211165317Y-70965016D01*
X211099853Y-70989433D01*
X211031580Y-70974581D01*
X211003326Y-70953430D01*
X210881402Y-70831506D01*
X210881395Y-70831501D01*
X210687834Y-70695967D01*
X210687830Y-70695965D01*
X210662952Y-70684364D01*
X210473663Y-70596097D01*
X210473659Y-70596096D01*
X210473655Y-70596094D01*
X210245413Y-70534938D01*
X210245403Y-70534936D01*
X210010001Y-70514341D01*
X210009999Y-70514341D01*
X209774596Y-70534936D01*
X209774586Y-70534938D01*
X209546344Y-70596094D01*
X209546335Y-70596098D01*
X209332171Y-70695964D01*
X209332169Y-70695965D01*
X209138597Y-70831505D01*
X208971505Y-70998597D01*
X208841575Y-71184158D01*
X208786998Y-71227783D01*
X208717500Y-71234977D01*
X208655145Y-71203454D01*
X208638425Y-71184158D01*
X208508494Y-70998597D01*
X208341402Y-70831506D01*
X208341395Y-70831501D01*
X208147834Y-70695967D01*
X208147830Y-70695965D01*
X208122952Y-70684364D01*
X207933663Y-70596097D01*
X207933659Y-70596096D01*
X207933655Y-70596094D01*
X207705413Y-70534938D01*
X207705403Y-70534936D01*
X207470001Y-70514341D01*
X207469999Y-70514341D01*
X207234596Y-70534936D01*
X207234586Y-70534938D01*
X207006344Y-70596094D01*
X207006335Y-70596098D01*
X206792171Y-70695964D01*
X206792169Y-70695965D01*
X206598597Y-70831505D01*
X206431508Y-70998594D01*
X206418884Y-71016624D01*
X206364307Y-71060248D01*
X206317309Y-71069500D01*
X204712940Y-71069500D01*
X204645901Y-71049815D01*
X204625259Y-71033181D01*
X203092262Y-69500184D01*
X203092259Y-69500182D01*
X203059849Y-69479817D01*
X203048510Y-69471771D01*
X203018589Y-69447910D01*
X202984093Y-69431296D01*
X202971927Y-69424572D01*
X202939524Y-69404212D01*
X202939525Y-69404212D01*
X202930286Y-69400979D01*
X202903393Y-69391568D01*
X202890554Y-69386250D01*
X202856061Y-69369639D01*
X202818735Y-69361119D01*
X202805380Y-69357271D01*
X202769260Y-69344633D01*
X202769256Y-69344632D01*
X202769255Y-69344632D01*
X202751139Y-69342590D01*
X202731217Y-69340345D01*
X202717518Y-69338017D01*
X202680200Y-69329501D01*
X202680196Y-69329500D01*
X202680194Y-69329500D01*
X202680191Y-69329500D01*
X202641915Y-69329500D01*
X202628031Y-69328720D01*
X202590002Y-69324435D01*
X202589998Y-69324435D01*
X202551969Y-69328720D01*
X202538085Y-69329500D01*
X202499806Y-69329500D01*
X202492334Y-69331205D01*
X202462478Y-69338018D01*
X202448781Y-69340345D01*
X202410743Y-69344632D01*
X202374622Y-69357271D01*
X202361269Y-69361118D01*
X202323939Y-69369639D01*
X202289452Y-69386247D01*
X202276613Y-69391565D01*
X202240483Y-69404208D01*
X202240476Y-69404212D01*
X202208064Y-69424577D01*
X202195900Y-69431300D01*
X202161413Y-69447909D01*
X202131492Y-69471770D01*
X202120153Y-69479815D01*
X202087742Y-69500180D01*
X202087736Y-69500185D01*
X202060664Y-69527255D01*
X202050305Y-69536513D01*
X202020380Y-69560380D01*
X201996513Y-69590305D01*
X201987255Y-69600664D01*
X201960185Y-69627736D01*
X201960180Y-69627742D01*
X201939815Y-69660153D01*
X201931770Y-69671492D01*
X201907909Y-69701413D01*
X201891300Y-69735900D01*
X201884577Y-69748064D01*
X201864212Y-69780476D01*
X201864208Y-69780483D01*
X201851565Y-69816613D01*
X201846247Y-69829452D01*
X201829639Y-69863939D01*
X201821118Y-69901269D01*
X201817271Y-69914622D01*
X201804632Y-69950743D01*
X201800345Y-69988781D01*
X201798018Y-70002478D01*
X201789500Y-70039807D01*
X201789500Y-70078085D01*
X201788720Y-70091969D01*
X201784435Y-70129998D01*
X201784435Y-70130001D01*
X201788720Y-70168029D01*
X201789500Y-70181914D01*
X201789500Y-70220191D01*
X201789501Y-70220200D01*
X201798017Y-70257518D01*
X201800345Y-70271217D01*
X201804633Y-70309260D01*
X201817271Y-70345380D01*
X201821119Y-70358735D01*
X201829639Y-70396061D01*
X201846250Y-70430554D01*
X201851568Y-70443393D01*
X201855579Y-70454855D01*
X201864212Y-70479525D01*
X201872185Y-70492213D01*
X201891185Y-70559450D01*
X201870817Y-70626285D01*
X201817549Y-70671499D01*
X201756384Y-70681713D01*
X201560002Y-70664532D01*
X201559998Y-70664532D01*
X201333313Y-70684364D01*
X201333302Y-70684366D01*
X201113511Y-70743258D01*
X201113502Y-70743261D01*
X200907267Y-70839431D01*
X200907265Y-70839432D01*
X200720858Y-70969954D01*
X200559954Y-71130858D01*
X200429432Y-71317265D01*
X200429431Y-71317267D01*
X200333261Y-71523502D01*
X200333258Y-71523511D01*
X200274366Y-71743302D01*
X200274364Y-71743313D01*
X200254532Y-71969998D01*
X200254532Y-71970001D01*
X192705468Y-71970001D01*
X192705468Y-71970000D01*
X192685635Y-71743308D01*
X192626739Y-71523504D01*
X192530568Y-71317266D01*
X192400047Y-71130861D01*
X192400045Y-71130858D01*
X192239141Y-70969954D01*
X192052734Y-70839432D01*
X192052732Y-70839431D01*
X191846497Y-70743261D01*
X191846488Y-70743258D01*
X191626697Y-70684366D01*
X191626693Y-70684365D01*
X191626692Y-70684365D01*
X191626691Y-70684364D01*
X191626686Y-70684364D01*
X191400002Y-70664532D01*
X191399998Y-70664532D01*
X191173313Y-70684364D01*
X191173302Y-70684366D01*
X190953511Y-70743258D01*
X190953502Y-70743261D01*
X190747267Y-70839431D01*
X190747265Y-70839432D01*
X190560858Y-70969954D01*
X190399954Y-71130858D01*
X190269432Y-71317265D01*
X190269431Y-71317267D01*
X190173261Y-71523502D01*
X190173258Y-71523511D01*
X190114366Y-71743302D01*
X190114364Y-71743313D01*
X190094532Y-71969998D01*
X190094532Y-71970001D01*
X190114364Y-72196686D01*
X190114366Y-72196697D01*
X190173258Y-72416488D01*
X190173261Y-72416497D01*
X190269431Y-72622732D01*
X190269432Y-72622734D01*
X190399954Y-72809141D01*
X190560858Y-72970045D01*
X190567113Y-72974425D01*
X190610738Y-73029001D01*
X190617932Y-73098500D01*
X190586410Y-73160854D01*
X190526180Y-73196269D01*
X190495990Y-73200000D01*
X190392155Y-73200000D01*
X190332627Y-73206401D01*
X190332620Y-73206403D01*
X190197913Y-73256645D01*
X190197906Y-73256649D01*
X190082812Y-73342809D01*
X190082809Y-73342812D01*
X189996649Y-73457906D01*
X189996645Y-73457913D01*
X189946403Y-73592620D01*
X189946401Y-73592627D01*
X189940000Y-73652155D01*
X189940000Y-74950000D01*
X191280671Y-74950000D01*
X191240000Y-75115005D01*
X191240000Y-75284995D01*
X191280671Y-75450000D01*
X189940000Y-75450000D01*
X189940000Y-76747844D01*
X185245500Y-76747844D01*
X185245500Y-71372940D01*
X185265185Y-71305901D01*
X185281819Y-71285259D01*
X185349815Y-71217263D01*
X185349816Y-71217262D01*
X185370182Y-71184847D01*
X185378222Y-71173515D01*
X185402091Y-71143587D01*
X185418698Y-71109100D01*
X185425419Y-71096939D01*
X185445789Y-71064522D01*
X185458429Y-71028397D01*
X185463745Y-71015561D01*
X185480360Y-70981061D01*
X185488881Y-70943726D01*
X185492722Y-70930392D01*
X185505368Y-70894255D01*
X185509654Y-70856211D01*
X185511982Y-70842512D01*
X185512685Y-70839432D01*
X185520500Y-70805194D01*
X185520500Y-70624806D01*
X185520500Y-68805329D01*
X185540185Y-68738290D01*
X185592989Y-68692535D01*
X185662147Y-68682591D01*
X185725703Y-68711616D01*
X185738781Y-68724788D01*
X185764776Y-68755224D01*
X185892834Y-68864596D01*
X185956343Y-68918838D01*
X185956346Y-68918839D01*
X186171140Y-69050466D01*
X186347126Y-69123361D01*
X186403889Y-69146873D01*
X186648852Y-69205683D01*
X186837118Y-69220500D01*
X186837126Y-69220500D01*
X186962874Y-69220500D01*
X186962882Y-69220500D01*
X187151148Y-69205683D01*
X187396111Y-69146873D01*
X187628859Y-69050466D01*
X187843659Y-68918836D01*
X188035224Y-68755224D01*
X188198836Y-68563659D01*
X188330466Y-68348859D01*
X188426873Y-68116111D01*
X188485683Y-67871148D01*
X188505449Y-67620000D01*
X188485683Y-67368852D01*
X188426873Y-67123889D01*
X188424906Y-67119141D01*
X188330466Y-66891140D01*
X188199552Y-66677509D01*
X188181307Y-66610063D01*
X188189703Y-66583578D01*
X188162235Y-66587241D01*
X188098980Y-66557566D01*
X188086855Y-66545228D01*
X188035224Y-66484776D01*
X188014718Y-66467262D01*
X187843656Y-66321161D01*
X187843653Y-66321160D01*
X187628859Y-66189533D01*
X187396110Y-66093126D01*
X187151151Y-66034317D01*
X186962887Y-66019500D01*
X186962882Y-66019500D01*
X186837118Y-66019500D01*
X186837112Y-66019500D01*
X186648848Y-66034317D01*
X186403889Y-66093126D01*
X186171140Y-66189533D01*
X185956346Y-66321160D01*
X185956343Y-66321161D01*
X185764776Y-66484776D01*
X185738790Y-66515202D01*
X185680283Y-66553395D01*
X185610415Y-66553893D01*
X185551369Y-66516539D01*
X185521891Y-66453192D01*
X185520500Y-66434670D01*
X185520500Y-65442939D01*
X185540185Y-65375900D01*
X185556814Y-65355262D01*
X186589674Y-64322402D01*
X186650995Y-64288919D01*
X186688156Y-64286557D01*
X186790000Y-64295468D01*
X186790000Y-64295467D01*
X186790001Y-64295468D01*
X186790002Y-64295468D01*
X186864855Y-64288919D01*
X187016692Y-64275635D01*
X187236496Y-64216739D01*
X187442734Y-64120568D01*
X187629139Y-63990047D01*
X187790047Y-63829139D01*
X187920568Y-63642734D01*
X187928118Y-63626542D01*
X187974290Y-63574103D01*
X188041483Y-63554951D01*
X188108364Y-63575166D01*
X188153699Y-63628331D01*
X188164500Y-63678947D01*
X188164500Y-66055191D01*
X188164501Y-66055200D01*
X188173017Y-66092518D01*
X188175345Y-66106217D01*
X188179633Y-66144260D01*
X188192271Y-66180380D01*
X188196119Y-66193735D01*
X188204639Y-66231061D01*
X188221250Y-66265554D01*
X188226570Y-66278397D01*
X188239212Y-66314525D01*
X188259572Y-66346927D01*
X188266296Y-66359093D01*
X188282909Y-66393587D01*
X188286136Y-66398723D01*
X188305132Y-66465961D01*
X188296611Y-66493917D01*
X188325551Y-66490387D01*
X188388470Y-66520767D01*
X188392960Y-66525038D01*
X190747683Y-68879761D01*
X190772384Y-68915037D01*
X190845964Y-69072829D01*
X190845965Y-69072831D01*
X190942382Y-69210528D01*
X190981505Y-69266401D01*
X191148599Y-69433495D01*
X191237665Y-69495860D01*
X191342165Y-69569032D01*
X191342167Y-69569033D01*
X191342170Y-69569035D01*
X191556337Y-69668903D01*
X191556343Y-69668904D01*
X191556344Y-69668905D01*
X191569593Y-69672455D01*
X191784592Y-69730063D01*
X191972918Y-69746539D01*
X192019999Y-69750659D01*
X192020000Y-69750659D01*
X192020001Y-69750659D01*
X192059234Y-69747226D01*
X192255408Y-69730063D01*
X192483663Y-69668903D01*
X192697830Y-69569035D01*
X192891401Y-69433495D01*
X193058495Y-69266401D01*
X193194035Y-69072830D01*
X193293903Y-68858663D01*
X193355063Y-68630408D01*
X193375659Y-68395000D01*
X193355063Y-68159592D01*
X193293903Y-67931337D01*
X193194035Y-67717171D01*
X193174612Y-67689431D01*
X193058494Y-67523597D01*
X192891402Y-67356506D01*
X192891396Y-67356501D01*
X192705842Y-67226575D01*
X192662217Y-67171998D01*
X192655023Y-67102500D01*
X192686546Y-67040145D01*
X192705842Y-67023425D01*
X192814298Y-66947483D01*
X192891401Y-66893495D01*
X193058495Y-66726401D01*
X193194035Y-66532830D01*
X193293903Y-66318663D01*
X193355063Y-66090408D01*
X193375659Y-65855000D01*
X193355063Y-65619592D01*
X193293903Y-65391337D01*
X193194035Y-65177171D01*
X193162767Y-65132516D01*
X193058496Y-64983600D01*
X193001385Y-64926489D01*
X192936567Y-64861671D01*
X192903084Y-64800351D01*
X192908068Y-64730659D01*
X192949939Y-64674725D01*
X192980915Y-64657810D01*
X193112331Y-64608796D01*
X193227546Y-64522546D01*
X193313796Y-64407331D01*
X193364091Y-64272483D01*
X193370500Y-64212873D01*
X193370499Y-62417128D01*
X193364091Y-62357517D01*
X193360392Y-62347600D01*
X193313797Y-62222671D01*
X193313793Y-62222664D01*
X193227547Y-62107455D01*
X193227544Y-62107452D01*
X193112335Y-62021206D01*
X193112328Y-62021202D01*
X192977483Y-61970908D01*
X192931243Y-61965937D01*
X192866693Y-61939199D01*
X192826845Y-61881806D01*
X192820500Y-61842648D01*
X192820500Y-61824499D01*
X192840185Y-61757460D01*
X192892989Y-61711705D01*
X192944500Y-61700499D01*
X193507871Y-61700499D01*
X193507872Y-61700499D01*
X193567483Y-61694091D01*
X193702331Y-61643796D01*
X193817546Y-61557546D01*
X193903796Y-61442331D01*
X193954091Y-61307483D01*
X193960500Y-61247873D01*
X193960499Y-59552128D01*
X193954091Y-59492517D01*
X193903796Y-59357669D01*
X193903795Y-59357668D01*
X193903793Y-59357664D01*
X193817547Y-59242455D01*
X193817544Y-59242452D01*
X193702335Y-59156206D01*
X193702328Y-59156202D01*
X193567482Y-59105908D01*
X193567483Y-59105908D01*
X193507883Y-59099501D01*
X193507881Y-59099500D01*
X193507873Y-59099500D01*
X193507864Y-59099500D01*
X191812129Y-59099500D01*
X191812123Y-59099501D01*
X191752516Y-59105908D01*
X191617671Y-59156202D01*
X191617664Y-59156206D01*
X191502455Y-59242452D01*
X191502452Y-59242455D01*
X191416206Y-59357664D01*
X191416202Y-59357671D01*
X191365908Y-59492517D01*
X191363642Y-59513599D01*
X191359501Y-59552123D01*
X191359500Y-59552135D01*
X191359500Y-60541327D01*
X191340497Y-60607294D01*
X191337909Y-60611412D01*
X191321299Y-60645901D01*
X191314577Y-60658064D01*
X191294212Y-60690476D01*
X191294208Y-60690483D01*
X191281565Y-60726613D01*
X191276247Y-60739452D01*
X191259639Y-60773939D01*
X191251118Y-60811269D01*
X191247271Y-60824622D01*
X191234632Y-60860743D01*
X191230345Y-60898781D01*
X191228018Y-60912478D01*
X191219500Y-60949807D01*
X191219500Y-61842648D01*
X191199815Y-61909687D01*
X191147011Y-61955442D01*
X191108755Y-61965938D01*
X191062516Y-61970909D01*
X190927671Y-62021202D01*
X190927664Y-62021206D01*
X190812455Y-62107452D01*
X190812452Y-62107455D01*
X190726206Y-62222664D01*
X190726202Y-62222671D01*
X190675908Y-62357517D01*
X190670219Y-62410441D01*
X190669501Y-62417123D01*
X190669500Y-62417135D01*
X190669500Y-64212870D01*
X190669501Y-64212876D01*
X190675908Y-64272483D01*
X190726202Y-64407328D01*
X190726206Y-64407335D01*
X190812452Y-64522544D01*
X190812455Y-64522547D01*
X190927664Y-64608793D01*
X190927671Y-64608797D01*
X191059081Y-64657810D01*
X191115015Y-64699681D01*
X191139432Y-64765145D01*
X191124580Y-64833418D01*
X191103430Y-64861673D01*
X190981503Y-64983600D01*
X190845965Y-65177169D01*
X190845964Y-65177171D01*
X190746098Y-65391335D01*
X190746094Y-65391344D01*
X190684938Y-65619586D01*
X190684936Y-65619596D01*
X190664341Y-65854999D01*
X190664341Y-65855000D01*
X190684936Y-66090403D01*
X190684938Y-66090413D01*
X190734430Y-66275122D01*
X190732767Y-66344972D01*
X190693604Y-66402834D01*
X190629376Y-66430338D01*
X190560473Y-66418751D01*
X190526974Y-66394896D01*
X189801819Y-65669741D01*
X189768334Y-65608418D01*
X189765500Y-65582060D01*
X189765500Y-51012690D01*
X189785185Y-50945651D01*
X189818375Y-50911116D01*
X189836401Y-50898495D01*
X190003495Y-50731401D01*
X190139035Y-50537830D01*
X190238903Y-50323663D01*
X190265254Y-50225315D01*
X190297345Y-50169731D01*
X191043376Y-49423700D01*
X191104697Y-49390217D01*
X191109164Y-49389331D01*
X191206653Y-49371858D01*
X191395617Y-49296377D01*
X191397147Y-49295369D01*
X191565516Y-49184404D01*
X191565516Y-49184403D01*
X191565519Y-49184402D01*
X191688340Y-49061580D01*
X191784698Y-48943407D01*
X191878909Y-48763049D01*
X191934886Y-48567418D01*
X191950337Y-48364524D01*
X191941448Y-48294727D01*
X191924631Y-48162678D01*
X191924630Y-48162676D01*
X191924630Y-48162672D01*
X191858816Y-47970128D01*
X191848040Y-47951823D01*
X191755593Y-47794778D01*
X191755592Y-47794777D01*
X191755590Y-47794773D01*
X191619179Y-47643787D01*
X191573978Y-47610595D01*
X191455171Y-47523353D01*
X191455167Y-47523351D01*
X191354668Y-47477174D01*
X191301970Y-47431297D01*
X191282440Y-47364213D01*
X191302280Y-47297219D01*
X191355189Y-47251586D01*
X191406436Y-47240499D01*
X192667872Y-47240499D01*
X192727483Y-47234091D01*
X192862331Y-47183796D01*
X192977546Y-47097546D01*
X193063796Y-46982331D01*
X193112810Y-46850916D01*
X193154681Y-46794984D01*
X193220145Y-46770566D01*
X193288418Y-46785417D01*
X193316673Y-46806569D01*
X193438599Y-46928495D01*
X193535384Y-46996265D01*
X193632165Y-47064032D01*
X193632167Y-47064033D01*
X193632170Y-47064035D01*
X193846337Y-47163903D01*
X194074592Y-47225063D01*
X194251034Y-47240500D01*
X194309999Y-47245659D01*
X194310000Y-47245659D01*
X194310001Y-47245659D01*
X194368966Y-47240500D01*
X194545408Y-47225063D01*
X194773663Y-47163903D01*
X194987830Y-47064035D01*
X195181401Y-46928495D01*
X195348495Y-46761401D01*
X195478425Y-46575842D01*
X195533002Y-46532217D01*
X195602500Y-46525023D01*
X195664855Y-46556546D01*
X195681575Y-46575842D01*
X195811281Y-46761082D01*
X195811505Y-46761401D01*
X195978599Y-46928495D01*
X196075384Y-46996265D01*
X196172165Y-47064032D01*
X196172167Y-47064033D01*
X196172170Y-47064035D01*
X196386337Y-47163903D01*
X196614592Y-47225063D01*
X196791034Y-47240500D01*
X196849999Y-47245659D01*
X196850000Y-47245659D01*
X196850001Y-47245659D01*
X196908966Y-47240500D01*
X197085408Y-47225063D01*
X197313663Y-47163903D01*
X197527830Y-47064035D01*
X197721401Y-46928495D01*
X197782819Y-46867077D01*
X197844142Y-46833592D01*
X197913834Y-46838576D01*
X197969767Y-46880448D01*
X197994184Y-46945912D01*
X197994500Y-46954758D01*
X197994500Y-48440743D01*
X198009925Y-48592439D01*
X198070837Y-48786579D01*
X198070844Y-48786594D01*
X198169589Y-48964499D01*
X198169592Y-48964504D01*
X198302132Y-49118893D01*
X198302134Y-49118895D01*
X198463037Y-49243445D01*
X198463038Y-49243445D01*
X198463042Y-49243448D01*
X198645729Y-49333060D01*
X198842715Y-49384063D01*
X199045936Y-49394369D01*
X199247071Y-49363556D01*
X199437887Y-49292886D01*
X199610571Y-49185252D01*
X199758053Y-49045059D01*
X199874295Y-48878049D01*
X199954540Y-48691058D01*
X199995500Y-48491741D01*
X199995500Y-47176759D01*
X200015185Y-47109720D01*
X200063562Y-47067465D01*
X200063144Y-47066740D01*
X200066827Y-47064613D01*
X200067100Y-47064375D01*
X200067830Y-47064035D01*
X200261401Y-46928495D01*
X200428495Y-46761401D01*
X200558730Y-46575405D01*
X200613307Y-46531781D01*
X200682805Y-46524587D01*
X200745160Y-46556110D01*
X200761879Y-46575405D01*
X200891890Y-46761078D01*
X201058917Y-46928105D01*
X201252421Y-47063600D01*
X201466507Y-47163429D01*
X201466516Y-47163433D01*
X201680000Y-47220634D01*
X201680000Y-46325501D01*
X201787685Y-46374680D01*
X201894237Y-46390000D01*
X201965763Y-46390000D01*
X202072315Y-46374680D01*
X202180000Y-46325501D01*
X202180000Y-47220634D01*
X202393483Y-47163433D01*
X202393492Y-47163429D01*
X202607578Y-47063600D01*
X202801082Y-46928105D01*
X202968105Y-46761082D01*
X203098119Y-46575405D01*
X203152696Y-46531781D01*
X203222195Y-46524588D01*
X203284549Y-46556110D01*
X203301269Y-46575405D01*
X203431505Y-46761401D01*
X203598599Y-46928495D01*
X203695384Y-46996265D01*
X203792165Y-47064032D01*
X203792167Y-47064033D01*
X203792170Y-47064035D01*
X204006337Y-47163903D01*
X204234592Y-47225063D01*
X204411034Y-47240500D01*
X204469999Y-47245659D01*
X204470000Y-47245659D01*
X204470001Y-47245659D01*
X204528966Y-47240500D01*
X204705408Y-47225063D01*
X204933663Y-47163903D01*
X205147830Y-47064035D01*
X205341401Y-46928495D01*
X205508495Y-46761401D01*
X205638425Y-46575842D01*
X205693002Y-46532217D01*
X205762500Y-46525023D01*
X205824855Y-46556546D01*
X205841575Y-46575842D01*
X205971281Y-46761082D01*
X205971505Y-46761401D01*
X206138599Y-46928495D01*
X206235384Y-46996265D01*
X206332165Y-47064032D01*
X206332167Y-47064033D01*
X206332170Y-47064035D01*
X206546337Y-47163903D01*
X206774592Y-47225063D01*
X206951034Y-47240500D01*
X207009999Y-47245659D01*
X207010000Y-47245659D01*
X207010001Y-47245659D01*
X207068966Y-47240500D01*
X207245408Y-47225063D01*
X207473663Y-47163903D01*
X207687830Y-47064035D01*
X207881401Y-46928495D01*
X208048495Y-46761401D01*
X208178425Y-46575842D01*
X208233002Y-46532217D01*
X208302500Y-46525023D01*
X208364855Y-46556546D01*
X208381575Y-46575842D01*
X208511281Y-46761082D01*
X208511505Y-46761401D01*
X208678599Y-46928495D01*
X208775384Y-46996265D01*
X208872165Y-47064032D01*
X208872167Y-47064033D01*
X208872170Y-47064035D01*
X209086337Y-47163903D01*
X209314592Y-47225063D01*
X209491034Y-47240500D01*
X209549999Y-47245659D01*
X209550000Y-47245659D01*
X209550001Y-47245659D01*
X209608966Y-47240500D01*
X209785408Y-47225063D01*
X210013663Y-47163903D01*
X210227830Y-47064035D01*
X210421401Y-46928495D01*
X210588495Y-46761401D01*
X210718425Y-46575842D01*
X210773002Y-46532217D01*
X210842500Y-46525023D01*
X210904855Y-46556546D01*
X210921575Y-46575842D01*
X211051281Y-46761082D01*
X211051505Y-46761401D01*
X211218599Y-46928495D01*
X211315384Y-46996265D01*
X211412165Y-47064032D01*
X211412167Y-47064033D01*
X211412170Y-47064035D01*
X211626337Y-47163903D01*
X211854592Y-47225063D01*
X212031034Y-47240500D01*
X212089999Y-47245659D01*
X212090000Y-47245659D01*
X212090001Y-47245659D01*
X212148966Y-47240500D01*
X212325408Y-47225063D01*
X212553663Y-47163903D01*
X212767830Y-47064035D01*
X212961401Y-46928495D01*
X213128495Y-46761401D01*
X213258425Y-46575842D01*
X213313002Y-46532217D01*
X213382500Y-46525023D01*
X213444855Y-46556546D01*
X213461575Y-46575842D01*
X213591281Y-46761082D01*
X213591505Y-46761401D01*
X213758599Y-46928495D01*
X213855384Y-46996265D01*
X213952165Y-47064032D01*
X213952167Y-47064033D01*
X213952170Y-47064035D01*
X214166337Y-47163903D01*
X214394592Y-47225063D01*
X214571034Y-47240500D01*
X214629999Y-47245659D01*
X214630000Y-47245659D01*
X214630001Y-47245659D01*
X214688966Y-47240500D01*
X214865408Y-47225063D01*
X215093663Y-47163903D01*
X215307830Y-47064035D01*
X215501401Y-46928495D01*
X215668495Y-46761401D01*
X215798425Y-46575842D01*
X215853002Y-46532217D01*
X215922500Y-46525023D01*
X215984855Y-46556546D01*
X216001575Y-46575842D01*
X216131281Y-46761082D01*
X216131505Y-46761401D01*
X216298599Y-46928495D01*
X216395384Y-46996265D01*
X216492165Y-47064032D01*
X216492167Y-47064033D01*
X216492170Y-47064035D01*
X216706337Y-47163903D01*
X216934592Y-47225063D01*
X217111034Y-47240500D01*
X217169999Y-47245659D01*
X217170000Y-47245659D01*
X217170001Y-47245659D01*
X217228966Y-47240500D01*
X217405408Y-47225063D01*
X217633663Y-47163903D01*
X217847830Y-47064035D01*
X218041401Y-46928495D01*
X218208495Y-46761401D01*
X218338425Y-46575842D01*
X218393002Y-46532217D01*
X218462500Y-46525023D01*
X218524855Y-46556546D01*
X218541575Y-46575842D01*
X218671281Y-46761082D01*
X218671505Y-46761401D01*
X218838599Y-46928495D01*
X218935384Y-46996265D01*
X219032165Y-47064032D01*
X219032167Y-47064033D01*
X219032170Y-47064035D01*
X219246337Y-47163903D01*
X219474592Y-47225063D01*
X219651034Y-47240500D01*
X219709999Y-47245659D01*
X219710000Y-47245659D01*
X219710001Y-47245659D01*
X219768966Y-47240500D01*
X219945408Y-47225063D01*
X220173663Y-47163903D01*
X220387830Y-47064035D01*
X220581401Y-46928495D01*
X220748495Y-46761401D01*
X220878730Y-46575405D01*
X220933307Y-46531781D01*
X221002805Y-46524587D01*
X221065160Y-46556110D01*
X221081879Y-46575405D01*
X221211890Y-46761078D01*
X221378917Y-46928105D01*
X221572421Y-47063600D01*
X221786507Y-47163429D01*
X221786516Y-47163433D01*
X222000000Y-47220634D01*
X222000000Y-46325501D01*
X222107685Y-46374680D01*
X222214237Y-46390000D01*
X222285763Y-46390000D01*
X222392315Y-46374680D01*
X222500000Y-46325501D01*
X222500000Y-47220634D01*
X222713483Y-47163433D01*
X222713492Y-47163429D01*
X222927578Y-47063600D01*
X223121082Y-46928105D01*
X223288105Y-46761082D01*
X223418119Y-46575405D01*
X223472696Y-46531781D01*
X223542195Y-46524588D01*
X223604549Y-46556110D01*
X223621269Y-46575405D01*
X223751505Y-46761401D01*
X223918599Y-46928495D01*
X224015384Y-46996265D01*
X224112165Y-47064032D01*
X224112167Y-47064033D01*
X224112170Y-47064035D01*
X224326337Y-47163903D01*
X224554592Y-47225063D01*
X224731034Y-47240500D01*
X224789999Y-47245659D01*
X224790000Y-47245659D01*
X224790001Y-47245659D01*
X224848966Y-47240500D01*
X225025408Y-47225063D01*
X225253663Y-47163903D01*
X225467830Y-47064035D01*
X225661401Y-46928495D01*
X225828495Y-46761401D01*
X225958425Y-46575842D01*
X226013002Y-46532217D01*
X226082500Y-46525023D01*
X226144855Y-46556546D01*
X226161575Y-46575842D01*
X226291281Y-46761082D01*
X226291505Y-46761401D01*
X226458599Y-46928495D01*
X226555384Y-46996265D01*
X226652165Y-47064032D01*
X226652167Y-47064033D01*
X226652170Y-47064035D01*
X226866337Y-47163903D01*
X227094592Y-47225063D01*
X227271034Y-47240500D01*
X227329999Y-47245659D01*
X227330000Y-47245659D01*
X227330001Y-47245659D01*
X227388966Y-47240500D01*
X227565408Y-47225063D01*
X227793663Y-47163903D01*
X228007830Y-47064035D01*
X228201401Y-46928495D01*
X228368495Y-46761401D01*
X228498425Y-46575842D01*
X228553002Y-46532217D01*
X228622500Y-46525023D01*
X228684855Y-46556546D01*
X228701575Y-46575842D01*
X228831281Y-46761082D01*
X228831505Y-46761401D01*
X228998599Y-46928495D01*
X229095384Y-46996265D01*
X229192165Y-47064032D01*
X229192167Y-47064033D01*
X229192170Y-47064035D01*
X229406337Y-47163903D01*
X229634592Y-47225063D01*
X229811034Y-47240500D01*
X229869999Y-47245659D01*
X229870000Y-47245659D01*
X229870001Y-47245659D01*
X229928966Y-47240500D01*
X230105408Y-47225063D01*
X230333663Y-47163903D01*
X230547830Y-47064035D01*
X230741401Y-46928495D01*
X230908495Y-46761401D01*
X231038425Y-46575842D01*
X231093002Y-46532217D01*
X231162500Y-46525023D01*
X231224855Y-46556546D01*
X231241575Y-46575842D01*
X231371281Y-46761082D01*
X231371505Y-46761401D01*
X231538599Y-46928495D01*
X231635384Y-46996265D01*
X231732165Y-47064032D01*
X231732167Y-47064033D01*
X231732170Y-47064035D01*
X231946337Y-47163903D01*
X232174592Y-47225063D01*
X232351034Y-47240500D01*
X232409999Y-47245659D01*
X232410000Y-47245659D01*
X232410001Y-47245659D01*
X232468966Y-47240500D01*
X232645408Y-47225063D01*
X232873663Y-47163903D01*
X233087830Y-47064035D01*
X233281401Y-46928495D01*
X233448495Y-46761401D01*
X233578425Y-46575842D01*
X233633002Y-46532217D01*
X233702500Y-46525023D01*
X233764855Y-46556546D01*
X233781575Y-46575842D01*
X233911281Y-46761082D01*
X233911505Y-46761401D01*
X234078599Y-46928495D01*
X234175384Y-46996265D01*
X234272165Y-47064032D01*
X234272167Y-47064033D01*
X234272170Y-47064035D01*
X234486337Y-47163903D01*
X234714592Y-47225063D01*
X234891034Y-47240500D01*
X234949999Y-47245659D01*
X234950000Y-47245659D01*
X234950001Y-47245659D01*
X235008966Y-47240500D01*
X235185408Y-47225063D01*
X235413663Y-47163903D01*
X235627830Y-47064035D01*
X235821401Y-46928495D01*
X235988495Y-46761401D01*
X236118425Y-46575842D01*
X236173002Y-46532217D01*
X236242500Y-46525023D01*
X236304855Y-46556546D01*
X236321575Y-46575842D01*
X236451281Y-46761082D01*
X236451505Y-46761401D01*
X236618599Y-46928495D01*
X236715384Y-46996265D01*
X236812165Y-47064032D01*
X236812167Y-47064033D01*
X236812170Y-47064035D01*
X237026337Y-47163903D01*
X237254592Y-47225063D01*
X237431034Y-47240500D01*
X237489999Y-47245659D01*
X237490000Y-47245659D01*
X237490001Y-47245659D01*
X237548966Y-47240500D01*
X237725408Y-47225063D01*
X237953663Y-47163903D01*
X238167830Y-47064035D01*
X238361401Y-46928495D01*
X238528495Y-46761401D01*
X238658730Y-46575405D01*
X238713307Y-46531781D01*
X238782805Y-46524587D01*
X238845160Y-46556110D01*
X238861879Y-46575405D01*
X238991890Y-46761078D01*
X239158917Y-46928105D01*
X239352421Y-47063600D01*
X239566507Y-47163429D01*
X239566516Y-47163433D01*
X239780000Y-47220634D01*
X239780000Y-46325501D01*
X239887685Y-46374680D01*
X239994237Y-46390000D01*
X240065763Y-46390000D01*
X240172315Y-46374680D01*
X240280000Y-46325501D01*
X240280000Y-47220633D01*
X240493483Y-47163433D01*
X240493492Y-47163429D01*
X240707578Y-47063600D01*
X240901082Y-46928105D01*
X240907819Y-46921369D01*
X240969142Y-46887884D01*
X241038834Y-46892868D01*
X241094767Y-46934740D01*
X241119184Y-47000204D01*
X241119500Y-47009050D01*
X241119500Y-48047060D01*
X241099815Y-48114099D01*
X241083181Y-48134741D01*
X240800186Y-48417735D01*
X240800183Y-48417739D01*
X240779816Y-48450152D01*
X240771772Y-48461488D01*
X240747910Y-48491410D01*
X240731300Y-48525900D01*
X240724577Y-48538064D01*
X240721607Y-48542791D01*
X240669273Y-48589084D01*
X240600220Y-48599734D01*
X240536371Y-48571360D01*
X240497997Y-48512972D01*
X240493391Y-48490705D01*
X240475369Y-48330750D01*
X240475368Y-48330745D01*
X240415789Y-48160478D01*
X240399617Y-48134741D01*
X240376582Y-48098080D01*
X240319816Y-48007738D01*
X240192262Y-47880184D01*
X240116412Y-47832524D01*
X240039523Y-47784211D01*
X239869254Y-47724631D01*
X239869249Y-47724630D01*
X239690004Y-47704435D01*
X239689996Y-47704435D01*
X239510750Y-47724630D01*
X239510745Y-47724631D01*
X239373826Y-47772542D01*
X239332871Y-47779500D01*
X220114910Y-47779500D01*
X220107423Y-47779274D01*
X220047396Y-47775643D01*
X220047389Y-47775643D01*
X219988243Y-47786481D01*
X219980843Y-47787608D01*
X219921125Y-47794860D01*
X219911642Y-47798456D01*
X219890038Y-47804478D01*
X219888535Y-47804754D01*
X219880065Y-47806306D01*
X219880063Y-47806307D01*
X219825234Y-47830983D01*
X219818319Y-47833848D01*
X219762068Y-47855182D01*
X219753724Y-47860942D01*
X219734183Y-47871964D01*
X219724944Y-47876122D01*
X219724939Y-47876125D01*
X219677594Y-47913216D01*
X219671566Y-47917652D01*
X219622072Y-47951816D01*
X219622064Y-47951823D01*
X219582183Y-47996838D01*
X219577051Y-48002290D01*
X219374633Y-48204710D01*
X218032531Y-49546810D01*
X217997255Y-49571511D01*
X217787267Y-49669431D01*
X217787265Y-49669432D01*
X217600858Y-49799954D01*
X217439954Y-49960858D01*
X217309432Y-50147265D01*
X217309431Y-50147267D01*
X217282382Y-50205275D01*
X217236209Y-50257714D01*
X217169016Y-50276866D01*
X217102135Y-50256650D01*
X217057618Y-50205275D01*
X217053715Y-50196905D01*
X217030568Y-50147266D01*
X216900047Y-49960861D01*
X216900045Y-49960858D01*
X216739141Y-49799954D01*
X216552734Y-49669432D01*
X216552732Y-49669431D01*
X216346497Y-49573261D01*
X216346488Y-49573258D01*
X216126697Y-49514366D01*
X216126693Y-49514365D01*
X216126692Y-49514365D01*
X216126691Y-49514364D01*
X216126686Y-49514364D01*
X215900002Y-49494532D01*
X215899998Y-49494532D01*
X215673313Y-49514364D01*
X215673302Y-49514366D01*
X215453511Y-49573258D01*
X215453502Y-49573261D01*
X215247267Y-49669431D01*
X215247265Y-49669432D01*
X215060858Y-49799954D01*
X214899954Y-49960858D01*
X214769432Y-50147265D01*
X214769431Y-50147267D01*
X214742382Y-50205275D01*
X214696209Y-50257714D01*
X214629016Y-50276866D01*
X214562135Y-50256650D01*
X214517618Y-50205275D01*
X214513715Y-50196905D01*
X214490568Y-50147266D01*
X214360047Y-49960861D01*
X214360045Y-49960858D01*
X214199141Y-49799954D01*
X214012734Y-49669432D01*
X214012732Y-49669431D01*
X213806497Y-49573261D01*
X213806488Y-49573258D01*
X213586697Y-49514366D01*
X213586693Y-49514365D01*
X213586692Y-49514365D01*
X213586691Y-49514364D01*
X213586686Y-49514364D01*
X213360002Y-49494532D01*
X213359998Y-49494532D01*
X213133313Y-49514364D01*
X213133302Y-49514366D01*
X212913511Y-49573258D01*
X212913502Y-49573261D01*
X212707267Y-49669431D01*
X212707265Y-49669432D01*
X212520858Y-49799954D01*
X212359954Y-49960858D01*
X212229432Y-50147265D01*
X212229431Y-50147267D01*
X212202382Y-50205275D01*
X212156209Y-50257714D01*
X212089016Y-50276866D01*
X212022135Y-50256650D01*
X211977618Y-50205275D01*
X211973715Y-50196905D01*
X211950568Y-50147266D01*
X211820047Y-49960861D01*
X211820045Y-49960858D01*
X211659141Y-49799954D01*
X211472734Y-49669432D01*
X211472732Y-49669431D01*
X211266497Y-49573261D01*
X211266488Y-49573258D01*
X211046697Y-49514366D01*
X211046693Y-49514365D01*
X211046692Y-49514365D01*
X211046691Y-49514364D01*
X211046686Y-49514364D01*
X210820002Y-49494532D01*
X210819998Y-49494532D01*
X210593313Y-49514364D01*
X210593302Y-49514366D01*
X210373511Y-49573258D01*
X210373502Y-49573261D01*
X210167267Y-49669431D01*
X210167265Y-49669432D01*
X209980858Y-49799954D01*
X209819954Y-49960858D01*
X209689432Y-50147265D01*
X209689431Y-50147267D01*
X209662382Y-50205275D01*
X209616209Y-50257714D01*
X209549016Y-50276866D01*
X209482135Y-50256650D01*
X209437618Y-50205275D01*
X209433715Y-50196905D01*
X209410568Y-50147266D01*
X209280047Y-49960861D01*
X209280045Y-49960858D01*
X209119141Y-49799954D01*
X208932734Y-49669432D01*
X208932732Y-49669431D01*
X208726497Y-49573261D01*
X208726488Y-49573258D01*
X208506697Y-49514366D01*
X208506693Y-49514365D01*
X208506692Y-49514365D01*
X208506691Y-49514364D01*
X208506686Y-49514364D01*
X208280002Y-49494532D01*
X208279998Y-49494532D01*
X208053313Y-49514364D01*
X208053302Y-49514366D01*
X207833511Y-49573258D01*
X207833502Y-49573261D01*
X207627267Y-49669431D01*
X207627265Y-49669432D01*
X207440858Y-49799954D01*
X207279954Y-49960858D01*
X207149432Y-50147265D01*
X207149431Y-50147267D01*
X207122382Y-50205275D01*
X207076209Y-50257714D01*
X207009016Y-50276866D01*
X206942135Y-50256650D01*
X206897618Y-50205275D01*
X206893715Y-50196905D01*
X206870568Y-50147266D01*
X206740047Y-49960861D01*
X206740045Y-49960858D01*
X206579141Y-49799954D01*
X206392734Y-49669432D01*
X206392732Y-49669431D01*
X206186497Y-49573261D01*
X206186488Y-49573258D01*
X205966697Y-49514366D01*
X205966693Y-49514365D01*
X205966692Y-49514365D01*
X205966691Y-49514364D01*
X205966686Y-49514364D01*
X205740002Y-49494532D01*
X205739998Y-49494532D01*
X205513313Y-49514364D01*
X205513302Y-49514366D01*
X205293511Y-49573258D01*
X205293502Y-49573261D01*
X205087267Y-49669431D01*
X205087265Y-49669432D01*
X204900858Y-49799954D01*
X204739954Y-49960858D01*
X204609432Y-50147265D01*
X204609431Y-50147267D01*
X204582382Y-50205275D01*
X204536209Y-50257714D01*
X204469016Y-50276866D01*
X204402135Y-50256650D01*
X204357618Y-50205275D01*
X204353715Y-50196905D01*
X204330568Y-50147266D01*
X204200047Y-49960861D01*
X204200045Y-49960858D01*
X204039141Y-49799954D01*
X203852734Y-49669432D01*
X203852732Y-49669431D01*
X203646497Y-49573261D01*
X203646488Y-49573258D01*
X203426697Y-49514366D01*
X203426693Y-49514365D01*
X203426692Y-49514365D01*
X203426691Y-49514364D01*
X203426686Y-49514364D01*
X203200002Y-49494532D01*
X203199998Y-49494532D01*
X202973313Y-49514364D01*
X202973302Y-49514366D01*
X202753511Y-49573258D01*
X202753502Y-49573261D01*
X202547267Y-49669431D01*
X202547265Y-49669432D01*
X202360858Y-49799954D01*
X202199954Y-49960858D01*
X202069433Y-50147264D01*
X202069432Y-50147266D01*
X202048002Y-50193224D01*
X202042106Y-50205867D01*
X201995933Y-50258306D01*
X201928739Y-50277457D01*
X201861858Y-50257241D01*
X201817342Y-50205865D01*
X201790135Y-50147520D01*
X201790134Y-50147518D01*
X201659657Y-49961179D01*
X201498820Y-49800342D01*
X201312482Y-49669865D01*
X201106328Y-49573734D01*
X200910000Y-49521127D01*
X200910000Y-50364498D01*
X200802315Y-50315320D01*
X200695763Y-50300000D01*
X200624237Y-50300000D01*
X200517685Y-50315320D01*
X200410000Y-50364498D01*
X200410000Y-49521127D01*
X200213671Y-49573734D01*
X200007517Y-49669865D01*
X199821179Y-49800342D01*
X199660342Y-49961179D01*
X199529867Y-50147515D01*
X199502657Y-50205867D01*
X199456484Y-50258306D01*
X199389290Y-50277457D01*
X199322409Y-50257241D01*
X199277893Y-50205865D01*
X199271998Y-50193224D01*
X199250568Y-50147266D01*
X199120047Y-49960861D01*
X199120045Y-49960858D01*
X198959141Y-49799954D01*
X198772734Y-49669432D01*
X198772732Y-49669431D01*
X198566497Y-49573261D01*
X198566488Y-49573258D01*
X198346697Y-49514366D01*
X198346693Y-49514365D01*
X198346692Y-49514365D01*
X198346691Y-49514364D01*
X198346686Y-49514364D01*
X198120002Y-49494532D01*
X198119998Y-49494532D01*
X197893313Y-49514364D01*
X197893302Y-49514366D01*
X197673511Y-49573258D01*
X197673502Y-49573261D01*
X197467267Y-49669431D01*
X197467265Y-49669432D01*
X197280858Y-49799954D01*
X197119954Y-49960858D01*
X196989432Y-50147265D01*
X196989431Y-50147267D01*
X196893261Y-50353502D01*
X196893258Y-50353511D01*
X196834366Y-50573302D01*
X196834364Y-50573313D01*
X196814532Y-50799998D01*
X196814532Y-50800001D01*
X196834364Y-51026686D01*
X196834366Y-51026697D01*
X196893258Y-51246488D01*
X196893261Y-51246497D01*
X196989431Y-51452732D01*
X196989432Y-51452734D01*
X197119954Y-51639141D01*
X197280858Y-51800045D01*
X197280861Y-51800047D01*
X197467266Y-51930568D01*
X197673504Y-52026739D01*
X197893308Y-52085635D01*
X198055230Y-52099801D01*
X198119998Y-52105468D01*
X198120000Y-52105468D01*
X198120002Y-52105468D01*
X198176673Y-52100509D01*
X198346692Y-52085635D01*
X198566496Y-52026739D01*
X198772734Y-51930568D01*
X198959139Y-51800047D01*
X199120047Y-51639139D01*
X199250568Y-51452734D01*
X199277895Y-51394129D01*
X199324064Y-51341695D01*
X199391257Y-51322542D01*
X199458139Y-51342757D01*
X199502657Y-51394133D01*
X199529865Y-51452482D01*
X199660342Y-51638820D01*
X199821179Y-51799657D01*
X200007517Y-51930134D01*
X200213673Y-52026265D01*
X200213682Y-52026269D01*
X200409999Y-52078872D01*
X200410000Y-52078871D01*
X200410000Y-51235501D01*
X200517685Y-51284680D01*
X200624237Y-51300000D01*
X200695763Y-51300000D01*
X200802315Y-51284680D01*
X200910000Y-51235501D01*
X200910000Y-52078872D01*
X201106317Y-52026269D01*
X201106326Y-52026265D01*
X201312482Y-51930134D01*
X201498820Y-51799657D01*
X201659657Y-51638820D01*
X201790132Y-51452484D01*
X201817341Y-51394134D01*
X201863513Y-51341695D01*
X201930707Y-51322542D01*
X201997588Y-51342757D01*
X202042105Y-51394132D01*
X202050423Y-51411969D01*
X202069431Y-51452732D01*
X202069432Y-51452734D01*
X202199954Y-51639141D01*
X202360858Y-51800045D01*
X202360861Y-51800047D01*
X202547266Y-51930568D01*
X202753504Y-52026739D01*
X202973308Y-52085635D01*
X203094327Y-52096222D01*
X203159394Y-52121674D01*
X203200372Y-52178265D01*
X203204251Y-52248027D01*
X203171201Y-52307430D01*
X203154965Y-52323667D01*
X203115450Y-52363181D01*
X203054130Y-52396666D01*
X203027770Y-52399500D01*
X196472230Y-52399500D01*
X196405191Y-52379815D01*
X196384549Y-52363181D01*
X194863307Y-50841939D01*
X194840653Y-50805869D01*
X194838813Y-50806756D01*
X194835792Y-50800484D01*
X194835789Y-50800480D01*
X194835789Y-50800478D01*
X194739816Y-50647738D01*
X194612262Y-50520184D01*
X194582773Y-50501655D01*
X194459523Y-50424211D01*
X194289254Y-50364631D01*
X194289249Y-50364630D01*
X194110004Y-50344435D01*
X194109996Y-50344435D01*
X193930750Y-50364630D01*
X193930745Y-50364631D01*
X193760476Y-50424211D01*
X193607737Y-50520184D01*
X193480184Y-50647737D01*
X193384211Y-50800476D01*
X193324631Y-50970745D01*
X193324630Y-50970750D01*
X193304435Y-51149996D01*
X193304435Y-51150003D01*
X193324630Y-51329249D01*
X193324632Y-51329257D01*
X193363675Y-51440835D01*
X193367236Y-51510613D01*
X193332507Y-51571241D01*
X193270514Y-51603468D01*
X193200938Y-51597063D01*
X193194229Y-51594171D01*
X193106502Y-51553263D01*
X193106488Y-51553258D01*
X192886697Y-51494366D01*
X192886693Y-51494365D01*
X192886692Y-51494365D01*
X192886691Y-51494364D01*
X192886686Y-51494364D01*
X192660002Y-51474532D01*
X192659998Y-51474532D01*
X192433313Y-51494364D01*
X192433302Y-51494366D01*
X192213511Y-51553258D01*
X192213502Y-51553261D01*
X192007267Y-51649431D01*
X192007265Y-51649432D01*
X191820858Y-51779954D01*
X191659954Y-51940858D01*
X191529432Y-52127265D01*
X191529431Y-52127267D01*
X191433261Y-52333502D01*
X191433258Y-52333511D01*
X191374366Y-52553302D01*
X191374364Y-52553313D01*
X191354532Y-52779998D01*
X191354532Y-52780001D01*
X191374364Y-53006686D01*
X191374366Y-53006697D01*
X191433258Y-53226488D01*
X191433261Y-53226497D01*
X191529431Y-53432732D01*
X191529432Y-53432734D01*
X191659954Y-53619141D01*
X191820858Y-53780045D01*
X191834810Y-53789814D01*
X192007266Y-53910568D01*
X192213504Y-54006739D01*
X192213509Y-54006740D01*
X192213511Y-54006741D01*
X192230951Y-54011414D01*
X192433308Y-54065635D01*
X192595230Y-54079801D01*
X192659998Y-54085468D01*
X192660000Y-54085468D01*
X192660002Y-54085468D01*
X192716673Y-54080509D01*
X192886692Y-54065635D01*
X193106496Y-54006739D01*
X193312734Y-53910568D01*
X193499139Y-53780047D01*
X193660047Y-53619139D01*
X193790568Y-53432734D01*
X193886739Y-53226496D01*
X193945635Y-53006692D01*
X193965468Y-52780000D01*
X193945635Y-52553308D01*
X193886739Y-52333504D01*
X193882152Y-52323667D01*
X193871661Y-52254589D01*
X193900182Y-52190806D01*
X193958659Y-52152567D01*
X194028527Y-52152014D01*
X194082213Y-52183581D01*
X194678631Y-52779998D01*
X195534267Y-53635634D01*
X195546048Y-53649266D01*
X195560389Y-53668529D01*
X195560390Y-53668530D01*
X195598343Y-53700376D01*
X195606319Y-53707686D01*
X195610219Y-53711587D01*
X195634544Y-53730821D01*
X195637340Y-53733099D01*
X195659904Y-53752032D01*
X195694786Y-53781302D01*
X195694794Y-53781306D01*
X195700824Y-53785273D01*
X195700790Y-53785323D01*
X195707147Y-53789372D01*
X195707179Y-53789321D01*
X195713319Y-53793108D01*
X195713323Y-53793111D01*
X195749927Y-53810180D01*
X195781320Y-53824819D01*
X195784566Y-53826391D01*
X195851562Y-53860038D01*
X195858357Y-53862511D01*
X195858336Y-53862567D01*
X195865455Y-53865042D01*
X195865474Y-53864986D01*
X195872323Y-53867256D01*
X195872326Y-53867256D01*
X195872327Y-53867257D01*
X195945815Y-53882429D01*
X195949307Y-53883204D01*
X196022279Y-53900500D01*
X196022281Y-53900500D01*
X196029452Y-53901339D01*
X196029445Y-53901397D01*
X196036946Y-53902163D01*
X196036952Y-53902104D01*
X196044141Y-53902733D01*
X196044143Y-53902732D01*
X196044144Y-53902733D01*
X196119111Y-53900552D01*
X196122717Y-53900500D01*
X202502279Y-53900500D01*
X203326295Y-53900500D01*
X203344265Y-53901809D01*
X203368023Y-53905289D01*
X203417369Y-53900971D01*
X203428176Y-53900500D01*
X203433704Y-53900500D01*
X203433709Y-53900500D01*
X203464556Y-53896893D01*
X203468030Y-53896539D01*
X203542797Y-53889999D01*
X203542805Y-53889996D01*
X203549866Y-53888539D01*
X203549878Y-53888598D01*
X203557243Y-53886965D01*
X203557229Y-53886906D01*
X203564249Y-53885241D01*
X203564255Y-53885241D01*
X203634779Y-53859572D01*
X203638117Y-53858412D01*
X203709334Y-53834814D01*
X203709342Y-53834808D01*
X203715882Y-53831760D01*
X203715908Y-53831816D01*
X203722690Y-53828532D01*
X203722663Y-53828478D01*
X203729113Y-53825238D01*
X203729117Y-53825237D01*
X203791837Y-53783984D01*
X203794732Y-53782140D01*
X203858656Y-53742712D01*
X203858662Y-53742705D01*
X203864325Y-53738229D01*
X203864363Y-53738277D01*
X203870200Y-53733522D01*
X203870161Y-53733475D01*
X203875691Y-53728833D01*
X203875696Y-53728830D01*
X203927184Y-53674254D01*
X203929631Y-53671735D01*
X205474652Y-52126714D01*
X205535973Y-52093231D01*
X205573135Y-52090869D01*
X205716366Y-52103400D01*
X205739999Y-52105468D01*
X205740000Y-52105468D01*
X205740002Y-52105468D01*
X205796673Y-52100509D01*
X205966692Y-52085635D01*
X206186496Y-52026739D01*
X206392734Y-51930568D01*
X206579139Y-51800047D01*
X206740047Y-51639139D01*
X206870568Y-51452734D01*
X206897618Y-51394724D01*
X206943790Y-51342285D01*
X207010983Y-51323133D01*
X207077865Y-51343348D01*
X207122381Y-51394724D01*
X207130423Y-51411969D01*
X207149429Y-51452728D01*
X207149432Y-51452734D01*
X207279954Y-51639141D01*
X207440858Y-51800045D01*
X207440861Y-51800047D01*
X207627266Y-51930568D01*
X207833504Y-52026739D01*
X208053308Y-52085635D01*
X208215230Y-52099801D01*
X208279998Y-52105468D01*
X208280000Y-52105468D01*
X208280002Y-52105468D01*
X208336673Y-52100509D01*
X208506692Y-52085635D01*
X208726496Y-52026739D01*
X208932734Y-51930568D01*
X209119139Y-51800047D01*
X209280047Y-51639139D01*
X209410568Y-51452734D01*
X209437618Y-51394724D01*
X209483790Y-51342285D01*
X209550983Y-51323133D01*
X209617865Y-51343348D01*
X209662381Y-51394724D01*
X209670423Y-51411969D01*
X209689429Y-51452728D01*
X209689432Y-51452734D01*
X209819954Y-51639141D01*
X209980858Y-51800045D01*
X209980861Y-51800047D01*
X210167266Y-51930568D01*
X210373504Y-52026739D01*
X210593308Y-52085635D01*
X210755230Y-52099801D01*
X210819998Y-52105468D01*
X210820000Y-52105468D01*
X210820002Y-52105468D01*
X210876673Y-52100509D01*
X211046692Y-52085635D01*
X211266496Y-52026739D01*
X211472734Y-51930568D01*
X211659139Y-51800047D01*
X211820047Y-51639139D01*
X211950568Y-51452734D01*
X211977618Y-51394724D01*
X212023790Y-51342285D01*
X212090983Y-51323133D01*
X212157865Y-51343348D01*
X212202381Y-51394724D01*
X212210423Y-51411969D01*
X212229429Y-51452728D01*
X212229432Y-51452734D01*
X212359954Y-51639141D01*
X212520858Y-51800045D01*
X212520861Y-51800047D01*
X212707266Y-51930568D01*
X212913504Y-52026739D01*
X213133308Y-52085635D01*
X213295230Y-52099801D01*
X213359998Y-52105468D01*
X213360000Y-52105468D01*
X213360002Y-52105468D01*
X213416673Y-52100509D01*
X213586692Y-52085635D01*
X213806496Y-52026739D01*
X214012734Y-51930568D01*
X214199139Y-51800047D01*
X214360047Y-51639139D01*
X214490568Y-51452734D01*
X214517618Y-51394724D01*
X214563790Y-51342285D01*
X214630983Y-51323133D01*
X214697865Y-51343348D01*
X214742381Y-51394724D01*
X214750423Y-51411969D01*
X214769429Y-51452728D01*
X214769432Y-51452734D01*
X214899954Y-51639141D01*
X215060858Y-51800045D01*
X215060861Y-51800047D01*
X215247266Y-51930568D01*
X215453504Y-52026739D01*
X215673308Y-52085635D01*
X215835230Y-52099801D01*
X215899998Y-52105468D01*
X215900000Y-52105468D01*
X215900002Y-52105468D01*
X215956673Y-52100509D01*
X216126692Y-52085635D01*
X216346496Y-52026739D01*
X216552734Y-51930568D01*
X216739139Y-51800047D01*
X216900047Y-51639139D01*
X217030568Y-51452734D01*
X217057618Y-51394724D01*
X217103790Y-51342285D01*
X217170983Y-51323133D01*
X217237865Y-51343348D01*
X217282381Y-51394724D01*
X217290423Y-51411969D01*
X217309429Y-51452728D01*
X217309432Y-51452734D01*
X217439954Y-51639141D01*
X217600858Y-51800045D01*
X217600861Y-51800047D01*
X217787266Y-51930568D01*
X217993504Y-52026739D01*
X218213308Y-52085635D01*
X218375230Y-52099801D01*
X218439998Y-52105468D01*
X218440000Y-52105468D01*
X218440002Y-52105468D01*
X218496673Y-52100509D01*
X218666692Y-52085635D01*
X218886496Y-52026739D01*
X219092734Y-51930568D01*
X219279139Y-51800047D01*
X219440047Y-51639139D01*
X219570568Y-51452734D01*
X219597618Y-51394724D01*
X219643790Y-51342285D01*
X219710983Y-51323133D01*
X219777865Y-51343348D01*
X219822381Y-51394724D01*
X219830423Y-51411969D01*
X219849429Y-51452728D01*
X219849432Y-51452734D01*
X219979954Y-51639141D01*
X220140858Y-51800045D01*
X220140861Y-51800047D01*
X220327266Y-51930568D01*
X220533504Y-52026739D01*
X220753308Y-52085635D01*
X220915230Y-52099801D01*
X220979998Y-52105468D01*
X220980000Y-52105468D01*
X220980002Y-52105468D01*
X221036673Y-52100509D01*
X221206692Y-52085635D01*
X221426496Y-52026739D01*
X221632734Y-51930568D01*
X221819139Y-51800047D01*
X221980047Y-51639139D01*
X222110568Y-51452734D01*
X222137618Y-51394724D01*
X222183790Y-51342285D01*
X222250983Y-51323133D01*
X222317865Y-51343348D01*
X222362381Y-51394724D01*
X222370423Y-51411969D01*
X222389429Y-51452728D01*
X222389432Y-51452734D01*
X222519954Y-51639141D01*
X222680858Y-51800045D01*
X222680861Y-51800047D01*
X222867266Y-51930568D01*
X223073504Y-52026739D01*
X223293308Y-52085635D01*
X223455230Y-52099801D01*
X223519998Y-52105468D01*
X223520000Y-52105468D01*
X223520002Y-52105468D01*
X223576673Y-52100509D01*
X223746692Y-52085635D01*
X223966496Y-52026739D01*
X224172734Y-51930568D01*
X224359139Y-51800047D01*
X224520047Y-51639139D01*
X224650568Y-51452734D01*
X224677618Y-51394724D01*
X224723790Y-51342285D01*
X224790983Y-51323133D01*
X224857865Y-51343348D01*
X224902381Y-51394724D01*
X224910423Y-51411969D01*
X224929429Y-51452728D01*
X224929432Y-51452734D01*
X225059954Y-51639141D01*
X225220858Y-51800045D01*
X225220861Y-51800047D01*
X225407266Y-51930568D01*
X225613504Y-52026739D01*
X225833308Y-52085635D01*
X225995230Y-52099801D01*
X226059998Y-52105468D01*
X226060000Y-52105468D01*
X226060002Y-52105468D01*
X226116673Y-52100509D01*
X226286692Y-52085635D01*
X226506496Y-52026739D01*
X226712734Y-51930568D01*
X226899139Y-51800047D01*
X227060047Y-51639139D01*
X227190568Y-51452734D01*
X227217618Y-51394724D01*
X227263790Y-51342285D01*
X227330983Y-51323133D01*
X227397865Y-51343348D01*
X227442381Y-51394724D01*
X227450423Y-51411969D01*
X227469429Y-51452728D01*
X227469432Y-51452734D01*
X227599954Y-51639141D01*
X227760858Y-51800045D01*
X227760861Y-51800047D01*
X227947266Y-51930568D01*
X228153504Y-52026739D01*
X228373308Y-52085635D01*
X228535230Y-52099801D01*
X228599998Y-52105468D01*
X228600000Y-52105468D01*
X228600002Y-52105468D01*
X228656673Y-52100509D01*
X228826692Y-52085635D01*
X229046496Y-52026739D01*
X229252734Y-51930568D01*
X229439139Y-51800047D01*
X229600047Y-51639139D01*
X229730568Y-51452734D01*
X229757618Y-51394724D01*
X229803790Y-51342285D01*
X229870983Y-51323133D01*
X229937865Y-51343348D01*
X229982381Y-51394724D01*
X229990423Y-51411969D01*
X230009429Y-51452728D01*
X230009432Y-51452734D01*
X230139954Y-51639141D01*
X230300858Y-51800045D01*
X230300861Y-51800047D01*
X230487266Y-51930568D01*
X230693504Y-52026739D01*
X230913308Y-52085635D01*
X231075230Y-52099801D01*
X231139998Y-52105468D01*
X231140000Y-52105468D01*
X231140002Y-52105468D01*
X231196673Y-52100509D01*
X231366692Y-52085635D01*
X231586496Y-52026739D01*
X231792734Y-51930568D01*
X231979139Y-51800047D01*
X232140047Y-51639139D01*
X232270568Y-51452734D01*
X232297618Y-51394724D01*
X232343790Y-51342285D01*
X232410983Y-51323133D01*
X232477865Y-51343348D01*
X232522381Y-51394724D01*
X232530423Y-51411969D01*
X232549429Y-51452728D01*
X232549432Y-51452734D01*
X232679954Y-51639141D01*
X232843181Y-51802368D01*
X232876666Y-51863691D01*
X232879500Y-51890049D01*
X232879500Y-55122185D01*
X232872543Y-55163137D01*
X232864632Y-55185746D01*
X232860345Y-55223781D01*
X232858018Y-55237478D01*
X232849500Y-55274807D01*
X232849500Y-55313085D01*
X232848720Y-55326968D01*
X232844435Y-55365000D01*
X232848417Y-55400345D01*
X232848720Y-55403029D01*
X232849500Y-55416914D01*
X232849500Y-55455191D01*
X232849501Y-55455200D01*
X232858017Y-55492518D01*
X232860345Y-55506217D01*
X232863714Y-55536113D01*
X232864633Y-55544260D01*
X232877271Y-55580380D01*
X232881119Y-55593735D01*
X232889639Y-55631061D01*
X232906250Y-55665554D01*
X232911568Y-55678393D01*
X232918337Y-55697735D01*
X232924212Y-55714525D01*
X232927235Y-55720802D01*
X232925225Y-55721769D01*
X232941328Y-55778778D01*
X232925327Y-55833288D01*
X232927232Y-55834206D01*
X232924208Y-55840483D01*
X232911565Y-55876613D01*
X232906247Y-55889452D01*
X232889639Y-55923939D01*
X232881118Y-55961269D01*
X232877271Y-55974622D01*
X232864632Y-56010743D01*
X232860345Y-56048781D01*
X232858018Y-56062478D01*
X232854300Y-56078772D01*
X232849501Y-56099804D01*
X232849500Y-56099807D01*
X232849500Y-56138085D01*
X232848720Y-56151969D01*
X232844435Y-56189998D01*
X232844435Y-56190001D01*
X232848720Y-56228029D01*
X232849500Y-56241914D01*
X232849500Y-56280191D01*
X232849501Y-56280200D01*
X232858017Y-56317518D01*
X232860345Y-56331217D01*
X232864632Y-56369253D01*
X232864633Y-56369259D01*
X232872541Y-56391857D01*
X232879500Y-56432812D01*
X232879500Y-64949951D01*
X232859815Y-65016990D01*
X232843181Y-65037632D01*
X232679954Y-65200858D01*
X232549432Y-65387265D01*
X232549431Y-65387267D01*
X232547530Y-65391344D01*
X232524442Y-65440858D01*
X232522382Y-65445275D01*
X232476209Y-65497714D01*
X232409016Y-65516866D01*
X232342135Y-65496650D01*
X232297618Y-65445275D01*
X232295560Y-65440861D01*
X232270568Y-65387266D01*
X232140047Y-65200861D01*
X232140045Y-65200858D01*
X231976819Y-65037632D01*
X231943334Y-64976309D01*
X231940500Y-64949951D01*
X231940500Y-57094807D01*
X231940500Y-57094806D01*
X231931980Y-57057479D01*
X231929654Y-57043790D01*
X231925368Y-57005745D01*
X231918369Y-56985743D01*
X231912725Y-56969612D01*
X231908876Y-56956249D01*
X231900361Y-56918941D01*
X231890310Y-56898070D01*
X231883750Y-56884450D01*
X231878431Y-56871606D01*
X231871435Y-56851613D01*
X231865789Y-56835478D01*
X231845424Y-56803067D01*
X231838696Y-56790894D01*
X231822091Y-56756412D01*
X231822090Y-56756411D01*
X231798225Y-56726486D01*
X231790186Y-56715157D01*
X231769816Y-56682738D01*
X231642262Y-56555184D01*
X231622262Y-56535184D01*
X231622256Y-56535180D01*
X231589849Y-56514817D01*
X231578510Y-56506771D01*
X231548589Y-56482910D01*
X231514093Y-56466296D01*
X231501927Y-56459572D01*
X231469524Y-56439212D01*
X231469525Y-56439212D01*
X231451235Y-56432812D01*
X231433393Y-56426568D01*
X231420554Y-56421250D01*
X231386061Y-56404639D01*
X231348735Y-56396119D01*
X231335380Y-56392271D01*
X231299260Y-56379633D01*
X231299256Y-56379632D01*
X231299255Y-56379632D01*
X231281139Y-56377590D01*
X231261217Y-56375345D01*
X231247518Y-56373017D01*
X231210200Y-56364501D01*
X231210196Y-56364500D01*
X231210194Y-56364500D01*
X231210191Y-56364500D01*
X231171915Y-56364500D01*
X231158031Y-56363720D01*
X231120002Y-56359435D01*
X231119998Y-56359435D01*
X231081969Y-56363720D01*
X231068085Y-56364500D01*
X231029806Y-56364500D01*
X231022334Y-56366205D01*
X230992478Y-56373018D01*
X230978781Y-56375345D01*
X230940743Y-56379632D01*
X230904622Y-56392271D01*
X230891269Y-56396118D01*
X230853939Y-56404639D01*
X230819452Y-56421247D01*
X230806613Y-56426565D01*
X230770483Y-56439208D01*
X230770476Y-56439212D01*
X230738064Y-56459577D01*
X230725900Y-56466300D01*
X230691413Y-56482909D01*
X230661492Y-56506770D01*
X230650153Y-56514815D01*
X230617742Y-56535180D01*
X230617736Y-56535185D01*
X230590664Y-56562255D01*
X230580305Y-56571513D01*
X230550380Y-56595380D01*
X230526513Y-56625305D01*
X230517255Y-56635664D01*
X230490185Y-56662736D01*
X230490180Y-56662742D01*
X230469815Y-56695153D01*
X230461770Y-56706492D01*
X230437909Y-56736413D01*
X230421300Y-56770900D01*
X230414577Y-56783064D01*
X230394212Y-56815476D01*
X230394208Y-56815483D01*
X230381565Y-56851613D01*
X230376247Y-56864452D01*
X230359639Y-56898939D01*
X230351118Y-56936269D01*
X230347271Y-56949622D01*
X230334632Y-56985743D01*
X230330345Y-57023781D01*
X230328018Y-57037478D01*
X230319500Y-57074807D01*
X230319500Y-57113085D01*
X230318720Y-57126969D01*
X230314435Y-57164998D01*
X230314435Y-57165001D01*
X230318720Y-57203029D01*
X230319500Y-57216914D01*
X230319500Y-57255191D01*
X230319501Y-57255200D01*
X230328017Y-57292518D01*
X230330345Y-57306218D01*
X230334632Y-57344258D01*
X230336182Y-57351047D01*
X230334763Y-57351370D01*
X230339500Y-57379236D01*
X230339500Y-64949951D01*
X230319815Y-65016990D01*
X230303181Y-65037632D01*
X230139954Y-65200858D01*
X230009432Y-65387265D01*
X230009431Y-65387267D01*
X230007530Y-65391344D01*
X229984442Y-65440858D01*
X229982382Y-65445275D01*
X229936209Y-65497714D01*
X229869016Y-65516866D01*
X229802135Y-65496650D01*
X229757618Y-65445275D01*
X229755560Y-65440861D01*
X229730568Y-65387266D01*
X229600047Y-65200861D01*
X229600045Y-65200858D01*
X229439141Y-65039954D01*
X229252734Y-64909432D01*
X229252732Y-64909431D01*
X229046497Y-64813261D01*
X229046488Y-64813258D01*
X228826697Y-64754366D01*
X228826693Y-64754365D01*
X228826692Y-64754365D01*
X228826691Y-64754364D01*
X228826686Y-64754364D01*
X228600002Y-64734532D01*
X228599998Y-64734532D01*
X228373313Y-64754364D01*
X228373302Y-64754366D01*
X228153511Y-64813258D01*
X228153502Y-64813261D01*
X227947267Y-64909431D01*
X227947265Y-64909432D01*
X227760858Y-65039954D01*
X227599954Y-65200858D01*
X227469432Y-65387265D01*
X227469431Y-65387267D01*
X227467530Y-65391344D01*
X227444442Y-65440858D01*
X227442382Y-65445275D01*
X227396209Y-65497714D01*
X227329016Y-65516866D01*
X227262135Y-65496650D01*
X227217618Y-65445275D01*
X227215560Y-65440861D01*
X227190568Y-65387266D01*
X227060047Y-65200861D01*
X227060045Y-65200858D01*
X226896819Y-65037632D01*
X226863334Y-64976309D01*
X226860500Y-64949951D01*
X226860500Y-54364807D01*
X226860500Y-54364806D01*
X226851980Y-54327478D01*
X226849654Y-54313790D01*
X226845368Y-54275745D01*
X226845367Y-54275742D01*
X226832725Y-54239612D01*
X226828876Y-54226249D01*
X226820361Y-54188941D01*
X226803753Y-54154455D01*
X226798431Y-54141606D01*
X226793184Y-54126613D01*
X226785789Y-54105478D01*
X226765422Y-54073064D01*
X226758696Y-54060894D01*
X226742091Y-54026412D01*
X226742090Y-54026411D01*
X226718225Y-53996486D01*
X226710186Y-53985157D01*
X226689816Y-53952738D01*
X226562262Y-53825184D01*
X226547262Y-53810184D01*
X226547256Y-53810180D01*
X226514849Y-53789817D01*
X226503510Y-53781771D01*
X226473589Y-53757910D01*
X226439093Y-53741296D01*
X226426927Y-53734572D01*
X226394524Y-53714212D01*
X226394525Y-53714212D01*
X226375875Y-53707686D01*
X226358393Y-53701568D01*
X226345554Y-53696250D01*
X226311061Y-53679639D01*
X226273735Y-53671119D01*
X226260380Y-53667271D01*
X226224260Y-53654633D01*
X226224256Y-53654632D01*
X226224255Y-53654632D01*
X226206139Y-53652590D01*
X226186217Y-53650345D01*
X226172518Y-53648017D01*
X226135200Y-53639501D01*
X226135196Y-53639500D01*
X226135194Y-53639500D01*
X226135191Y-53639500D01*
X226096915Y-53639500D01*
X226083031Y-53638720D01*
X226045002Y-53634435D01*
X226044998Y-53634435D01*
X226006969Y-53638720D01*
X225993085Y-53639500D01*
X225954806Y-53639500D01*
X225947334Y-53641205D01*
X225917478Y-53648018D01*
X225903781Y-53650345D01*
X225865743Y-53654632D01*
X225829622Y-53667271D01*
X225816269Y-53671118D01*
X225778939Y-53679639D01*
X225744452Y-53696247D01*
X225731613Y-53701565D01*
X225695483Y-53714208D01*
X225695476Y-53714212D01*
X225663064Y-53734577D01*
X225650900Y-53741300D01*
X225616413Y-53757909D01*
X225586492Y-53781770D01*
X225575153Y-53789815D01*
X225542742Y-53810180D01*
X225542736Y-53810185D01*
X225515664Y-53837255D01*
X225505305Y-53846513D01*
X225475380Y-53870380D01*
X225451513Y-53900305D01*
X225442255Y-53910664D01*
X225415185Y-53937736D01*
X225415180Y-53937742D01*
X225394815Y-53970153D01*
X225386770Y-53981492D01*
X225362909Y-54011413D01*
X225346300Y-54045900D01*
X225339577Y-54058064D01*
X225319212Y-54090476D01*
X225319208Y-54090483D01*
X225306565Y-54126613D01*
X225301247Y-54139452D01*
X225284639Y-54173939D01*
X225276118Y-54211269D01*
X225272271Y-54224622D01*
X225259632Y-54260743D01*
X225255345Y-54298781D01*
X225253018Y-54312478D01*
X225249593Y-54327488D01*
X225244501Y-54349804D01*
X225244500Y-54349807D01*
X225244500Y-54388085D01*
X225243720Y-54401969D01*
X225239435Y-54439998D01*
X225239435Y-54440001D01*
X225243720Y-54478029D01*
X225244500Y-54491914D01*
X225244500Y-54530191D01*
X225244501Y-54530200D01*
X225253017Y-54567518D01*
X225255345Y-54581216D01*
X225256294Y-54589631D01*
X225258720Y-54611163D01*
X225259500Y-54625047D01*
X225259500Y-64949951D01*
X225239815Y-65016990D01*
X225223181Y-65037632D01*
X225059954Y-65200858D01*
X224929432Y-65387265D01*
X224929431Y-65387267D01*
X224927530Y-65391344D01*
X224904442Y-65440858D01*
X224902382Y-65445275D01*
X224856209Y-65497714D01*
X224789016Y-65516866D01*
X224722135Y-65496650D01*
X224677618Y-65445275D01*
X224675560Y-65440861D01*
X224650568Y-65387266D01*
X224520047Y-65200861D01*
X224520045Y-65200858D01*
X224356819Y-65037632D01*
X224323334Y-64976309D01*
X224320500Y-64949951D01*
X224320500Y-58268525D01*
X224327460Y-58227567D01*
X224330366Y-58219260D01*
X224330368Y-58219255D01*
X224334655Y-58181201D01*
X224336982Y-58167511D01*
X224345499Y-58130198D01*
X224345500Y-58130195D01*
X224345500Y-58091914D01*
X224346280Y-58078029D01*
X224350565Y-58040001D01*
X224350565Y-58039998D01*
X224346280Y-58001969D01*
X224345500Y-57988085D01*
X224345500Y-57949806D01*
X224336981Y-57912485D01*
X224334654Y-57898786D01*
X224330368Y-57860745D01*
X224317722Y-57824608D01*
X224313876Y-57811260D01*
X224305359Y-57773939D01*
X224288751Y-57739454D01*
X224283434Y-57726616D01*
X224270789Y-57690478D01*
X224250412Y-57658049D01*
X224243694Y-57645892D01*
X224227091Y-57611414D01*
X224203222Y-57581484D01*
X224195191Y-57570166D01*
X224174816Y-57537738D01*
X224147747Y-57510669D01*
X224138481Y-57500301D01*
X224114619Y-57470379D01*
X224084696Y-57446516D01*
X224074329Y-57437251D01*
X224047260Y-57410182D01*
X224014844Y-57389814D01*
X224003504Y-57381768D01*
X223973583Y-57357906D01*
X223939111Y-57341307D01*
X223926944Y-57334583D01*
X223894522Y-57314211D01*
X223858388Y-57301567D01*
X223845552Y-57296251D01*
X223811061Y-57279641D01*
X223811059Y-57279640D01*
X223811052Y-57279638D01*
X223773744Y-57271123D01*
X223760393Y-57267277D01*
X223724255Y-57254632D01*
X223701205Y-57252034D01*
X223686213Y-57250345D01*
X223672508Y-57248016D01*
X223635199Y-57239500D01*
X223635194Y-57239500D01*
X223596915Y-57239500D01*
X223583031Y-57238720D01*
X223545002Y-57234435D01*
X223544998Y-57234435D01*
X223506969Y-57238720D01*
X223493085Y-57239500D01*
X223454805Y-57239500D01*
X223454803Y-57239500D01*
X223454797Y-57239501D01*
X223417489Y-57248016D01*
X223403786Y-57250345D01*
X223365743Y-57254632D01*
X223329610Y-57267275D01*
X223316256Y-57271122D01*
X223278940Y-57279640D01*
X223244458Y-57296245D01*
X223231620Y-57301563D01*
X223218319Y-57306218D01*
X223195478Y-57314211D01*
X223195476Y-57314212D01*
X223195474Y-57314213D01*
X223163061Y-57334578D01*
X223150900Y-57341299D01*
X223116413Y-57357908D01*
X223116411Y-57357910D01*
X223086488Y-57381772D01*
X223075152Y-57389816D01*
X223042739Y-57410183D01*
X223042735Y-57410186D01*
X222890186Y-57562735D01*
X222890183Y-57562739D01*
X222869816Y-57595152D01*
X222861772Y-57606488D01*
X222837910Y-57636410D01*
X222821300Y-57670900D01*
X222814577Y-57683064D01*
X222794212Y-57715476D01*
X222794208Y-57715483D01*
X222781565Y-57751613D01*
X222776247Y-57764452D01*
X222759639Y-57798939D01*
X222751118Y-57836269D01*
X222747271Y-57849622D01*
X222734632Y-57885743D01*
X222730345Y-57923781D01*
X222728018Y-57937478D01*
X222725205Y-57949806D01*
X222719501Y-57974804D01*
X222719500Y-57974807D01*
X222719500Y-64949951D01*
X222699815Y-65016990D01*
X222683181Y-65037632D01*
X222519954Y-65200858D01*
X222389432Y-65387265D01*
X222389431Y-65387267D01*
X222387530Y-65391344D01*
X222364442Y-65440858D01*
X222362382Y-65445275D01*
X222316209Y-65497714D01*
X222249016Y-65516866D01*
X222182135Y-65496650D01*
X222137618Y-65445275D01*
X222135560Y-65440861D01*
X222110568Y-65387266D01*
X221980047Y-65200861D01*
X221980045Y-65200858D01*
X221819141Y-65039954D01*
X221632734Y-64909432D01*
X221632732Y-64909431D01*
X221426497Y-64813261D01*
X221426488Y-64813258D01*
X221206697Y-64754366D01*
X221206693Y-64754365D01*
X221206692Y-64754365D01*
X221206691Y-64754364D01*
X221206686Y-64754364D01*
X220980002Y-64734532D01*
X220979998Y-64734532D01*
X220753313Y-64754364D01*
X220753302Y-64754366D01*
X220533511Y-64813258D01*
X220533502Y-64813261D01*
X220327267Y-64909431D01*
X220327265Y-64909432D01*
X220140858Y-65039954D01*
X219979954Y-65200858D01*
X219849432Y-65387265D01*
X219849431Y-65387267D01*
X219847530Y-65391344D01*
X219824442Y-65440858D01*
X219822382Y-65445275D01*
X219776209Y-65497714D01*
X219709016Y-65516866D01*
X219642135Y-65496650D01*
X219597618Y-65445275D01*
X219595560Y-65440861D01*
X219570568Y-65387266D01*
X219440047Y-65200861D01*
X219440045Y-65200858D01*
X219279141Y-65039954D01*
X219092734Y-64909432D01*
X219092732Y-64909431D01*
X218886497Y-64813261D01*
X218886488Y-64813258D01*
X218666697Y-64754366D01*
X218666693Y-64754365D01*
X218666692Y-64754365D01*
X218666691Y-64754364D01*
X218666686Y-64754364D01*
X218440002Y-64734532D01*
X218439998Y-64734532D01*
X218213313Y-64754364D01*
X218213302Y-64754366D01*
X217993511Y-64813258D01*
X217993502Y-64813261D01*
X217787267Y-64909431D01*
X217787265Y-64909432D01*
X217600858Y-65039954D01*
X217439954Y-65200858D01*
X217309432Y-65387265D01*
X217309431Y-65387267D01*
X217307530Y-65391344D01*
X217284442Y-65440858D01*
X217282382Y-65445275D01*
X217236209Y-65497714D01*
X217169016Y-65516866D01*
X217102135Y-65496650D01*
X217057618Y-65445275D01*
X217055560Y-65440861D01*
X217030568Y-65387266D01*
X216900047Y-65200861D01*
X216900045Y-65200858D01*
X216739141Y-65039954D01*
X216552734Y-64909432D01*
X216552732Y-64909431D01*
X216346497Y-64813261D01*
X216346488Y-64813258D01*
X216126697Y-64754366D01*
X216126693Y-64754365D01*
X216126692Y-64754365D01*
X216126691Y-64754364D01*
X216126686Y-64754364D01*
X215900002Y-64734532D01*
X215899998Y-64734532D01*
X215673313Y-64754364D01*
X215673302Y-64754366D01*
X215453511Y-64813258D01*
X215453502Y-64813261D01*
X215247267Y-64909431D01*
X215247265Y-64909432D01*
X215060858Y-65039954D01*
X214899954Y-65200858D01*
X214769432Y-65387265D01*
X214769431Y-65387267D01*
X214767530Y-65391344D01*
X214744442Y-65440858D01*
X214742382Y-65445275D01*
X214696209Y-65497714D01*
X214629016Y-65516866D01*
X214562135Y-65496650D01*
X214517618Y-65445275D01*
X214515560Y-65440861D01*
X214490568Y-65387266D01*
X214360047Y-65200861D01*
X214360045Y-65200858D01*
X214199141Y-65039954D01*
X214012734Y-64909432D01*
X214012732Y-64909431D01*
X213806497Y-64813261D01*
X213806488Y-64813258D01*
X213586697Y-64754366D01*
X213586693Y-64754365D01*
X213586692Y-64754365D01*
X213586691Y-64754364D01*
X213586686Y-64754364D01*
X213360002Y-64734532D01*
X213359998Y-64734532D01*
X213133313Y-64754364D01*
X213133302Y-64754366D01*
X212913511Y-64813258D01*
X212913502Y-64813261D01*
X212707267Y-64909431D01*
X212707265Y-64909432D01*
X212520858Y-65039954D01*
X212359954Y-65200858D01*
X212229432Y-65387265D01*
X212229431Y-65387267D01*
X212227530Y-65391344D01*
X212204442Y-65440858D01*
X212202382Y-65445275D01*
X212156209Y-65497714D01*
X212089016Y-65516866D01*
X212022135Y-65496650D01*
X211977618Y-65445275D01*
X211975560Y-65440861D01*
X211950568Y-65387266D01*
X211820047Y-65200861D01*
X211820045Y-65200858D01*
X211659141Y-65039954D01*
X211472734Y-64909432D01*
X211472732Y-64909431D01*
X211266497Y-64813261D01*
X211266488Y-64813258D01*
X211046697Y-64754366D01*
X211046693Y-64754365D01*
X211046692Y-64754365D01*
X211046691Y-64754364D01*
X211046686Y-64754364D01*
X210820002Y-64734532D01*
X210819998Y-64734532D01*
X210593313Y-64754364D01*
X210593302Y-64754366D01*
X210373511Y-64813258D01*
X210373502Y-64813261D01*
X210167267Y-64909431D01*
X210167265Y-64909432D01*
X209980858Y-65039954D01*
X209819954Y-65200858D01*
X209689432Y-65387265D01*
X209689431Y-65387267D01*
X209687530Y-65391344D01*
X209664442Y-65440858D01*
X209662382Y-65445275D01*
X209616209Y-65497714D01*
X209549016Y-65516866D01*
X209482135Y-65496650D01*
X209437618Y-65445275D01*
X209435560Y-65440861D01*
X209410568Y-65387266D01*
X209280047Y-65200861D01*
X209280045Y-65200858D01*
X209119141Y-65039954D01*
X208932734Y-64909432D01*
X208932732Y-64909431D01*
X208726497Y-64813261D01*
X208726488Y-64813258D01*
X208506697Y-64754366D01*
X208506693Y-64754365D01*
X208506692Y-64754365D01*
X208506691Y-64754364D01*
X208506686Y-64754364D01*
X208280002Y-64734532D01*
X208279998Y-64734532D01*
X208053313Y-64754364D01*
X208053302Y-64754366D01*
X207833511Y-64813258D01*
X207833502Y-64813261D01*
X207627267Y-64909431D01*
X207627265Y-64909432D01*
X207440858Y-65039954D01*
X207279954Y-65200858D01*
X207171844Y-65355258D01*
X207149432Y-65387266D01*
X207124442Y-65440858D01*
X207122106Y-65445867D01*
X207075933Y-65498306D01*
X207008739Y-65517457D01*
X206941858Y-65497241D01*
X206897342Y-65445865D01*
X206870135Y-65387520D01*
X206870134Y-65387518D01*
X206739657Y-65201179D01*
X206578820Y-65040342D01*
X206392482Y-64909865D01*
X206186328Y-64813734D01*
X205990000Y-64761127D01*
X205990000Y-65604498D01*
X205882315Y-65555320D01*
X205775763Y-65540000D01*
X205704237Y-65540000D01*
X205597685Y-65555320D01*
X205490000Y-65604498D01*
X205490000Y-64761127D01*
X205293671Y-64813734D01*
X205087517Y-64909865D01*
X204901179Y-65040342D01*
X204740342Y-65201179D01*
X204609867Y-65387515D01*
X204582657Y-65445867D01*
X204536484Y-65498306D01*
X204469290Y-65517457D01*
X204402409Y-65497241D01*
X204357893Y-65445865D01*
X204355558Y-65440858D01*
X204330568Y-65387266D01*
X204200047Y-65200861D01*
X204200045Y-65200858D01*
X204039141Y-65039954D01*
X203852734Y-64909432D01*
X203852732Y-64909431D01*
X203646497Y-64813261D01*
X203646488Y-64813258D01*
X203426697Y-64754366D01*
X203426693Y-64754365D01*
X203426692Y-64754365D01*
X203426691Y-64754364D01*
X203426686Y-64754364D01*
X203200002Y-64734532D01*
X203199998Y-64734532D01*
X202973313Y-64754364D01*
X202973302Y-64754366D01*
X202753511Y-64813258D01*
X202753502Y-64813261D01*
X202547267Y-64909431D01*
X202547265Y-64909432D01*
X202360858Y-65039954D01*
X202199954Y-65200858D01*
X202069432Y-65387265D01*
X202069431Y-65387267D01*
X202067530Y-65391344D01*
X202044442Y-65440858D01*
X202042382Y-65445275D01*
X201996209Y-65497714D01*
X201929016Y-65516866D01*
X201862135Y-65496650D01*
X201817618Y-65445275D01*
X201815560Y-65440861D01*
X201790568Y-65387266D01*
X201660047Y-65200861D01*
X201660045Y-65200858D01*
X201499141Y-65039954D01*
X201312734Y-64909432D01*
X201312732Y-64909431D01*
X201106497Y-64813261D01*
X201106488Y-64813258D01*
X200886697Y-64754366D01*
X200886693Y-64754365D01*
X200886692Y-64754365D01*
X200886691Y-64754364D01*
X200886686Y-64754364D01*
X200660002Y-64734532D01*
X200659998Y-64734532D01*
X200433313Y-64754364D01*
X200433302Y-64754366D01*
X200213511Y-64813258D01*
X200213502Y-64813261D01*
X200007267Y-64909431D01*
X200007265Y-64909432D01*
X199820858Y-65039954D01*
X199659954Y-65200858D01*
X199642725Y-65225464D01*
X199588147Y-65269088D01*
X199518648Y-65276280D01*
X199456294Y-65244757D01*
X199420882Y-65184526D01*
X199417861Y-65167591D01*
X199414091Y-65132516D01*
X199363797Y-64997671D01*
X199363793Y-64997664D01*
X199277547Y-64882455D01*
X199277544Y-64882452D01*
X199162335Y-64796206D01*
X199162328Y-64796202D01*
X199027482Y-64745908D01*
X199027483Y-64745908D01*
X198967883Y-64739501D01*
X198967881Y-64739500D01*
X198967873Y-64739500D01*
X198967864Y-64739500D01*
X197272129Y-64739500D01*
X197272123Y-64739501D01*
X197212516Y-64745908D01*
X197077671Y-64796202D01*
X197077664Y-64796206D01*
X196962455Y-64882452D01*
X196962452Y-64882455D01*
X196876206Y-64997664D01*
X196876202Y-64997671D01*
X196825908Y-65132517D01*
X196819501Y-65192116D01*
X196819500Y-65192135D01*
X196819500Y-66887870D01*
X196819501Y-66887876D01*
X196825908Y-66947483D01*
X196876202Y-67082328D01*
X196876206Y-67082335D01*
X196962452Y-67197544D01*
X196962455Y-67197547D01*
X197077664Y-67283793D01*
X197077671Y-67283797D01*
X197212517Y-67334091D01*
X197212516Y-67334091D01*
X197219444Y-67334835D01*
X197272127Y-67340500D01*
X198967872Y-67340499D01*
X199027483Y-67334091D01*
X199162331Y-67283796D01*
X199277546Y-67197546D01*
X199363796Y-67082331D01*
X199414091Y-66947483D01*
X199417862Y-66912401D01*
X199444599Y-66847855D01*
X199501990Y-66808006D01*
X199571816Y-66805511D01*
X199631905Y-66841163D01*
X199642726Y-66854536D01*
X199659956Y-66879143D01*
X199820858Y-67040045D01*
X199820861Y-67040047D01*
X200007266Y-67170568D01*
X200213504Y-67266739D01*
X200213509Y-67266740D01*
X200213511Y-67266741D01*
X200263163Y-67280045D01*
X200433308Y-67325635D01*
X200593294Y-67339632D01*
X200659998Y-67345468D01*
X200660000Y-67345468D01*
X200660002Y-67345468D01*
X200716807Y-67340498D01*
X200886692Y-67325635D01*
X201106496Y-67266739D01*
X201312734Y-67170568D01*
X201499139Y-67040047D01*
X201660047Y-66879139D01*
X201790568Y-66692734D01*
X201817618Y-66634724D01*
X201863790Y-66582285D01*
X201930983Y-66563133D01*
X201997865Y-66583348D01*
X202042382Y-66634725D01*
X202069429Y-66692728D01*
X202069432Y-66692734D01*
X202199954Y-66879141D01*
X202360858Y-67040045D01*
X202360861Y-67040047D01*
X202547266Y-67170568D01*
X202753504Y-67266739D01*
X202753509Y-67266740D01*
X202753511Y-67266741D01*
X202803163Y-67280045D01*
X202973308Y-67325635D01*
X203133294Y-67339632D01*
X203199998Y-67345468D01*
X203200000Y-67345468D01*
X203200002Y-67345468D01*
X203256807Y-67340498D01*
X203426692Y-67325635D01*
X203646496Y-67266739D01*
X203852734Y-67170568D01*
X204039139Y-67040047D01*
X204200047Y-66879139D01*
X204330568Y-66692734D01*
X204357895Y-66634129D01*
X204404064Y-66581695D01*
X204471257Y-66562542D01*
X204538139Y-66582757D01*
X204582657Y-66634133D01*
X204609865Y-66692482D01*
X204740342Y-66878820D01*
X204901179Y-67039657D01*
X205087517Y-67170134D01*
X205293673Y-67266265D01*
X205293682Y-67266269D01*
X205431762Y-67303267D01*
X205491423Y-67339632D01*
X205521952Y-67402479D01*
X205513657Y-67471854D01*
X205469172Y-67525732D01*
X205431763Y-67542817D01*
X205243508Y-67593259D01*
X205243502Y-67593261D01*
X205037267Y-67689431D01*
X205037265Y-67689432D01*
X204850858Y-67819954D01*
X204689954Y-67980858D01*
X204559432Y-68167265D01*
X204559431Y-68167267D01*
X204463261Y-68373502D01*
X204463258Y-68373511D01*
X204404366Y-68593302D01*
X204404364Y-68593313D01*
X204384532Y-68819998D01*
X204384532Y-68820001D01*
X204404364Y-69046686D01*
X204404366Y-69046697D01*
X204463258Y-69266488D01*
X204463261Y-69266497D01*
X204559431Y-69472732D01*
X204559432Y-69472734D01*
X204689954Y-69659141D01*
X204850858Y-69820045D01*
X204850861Y-69820047D01*
X205037266Y-69950568D01*
X205243504Y-70046739D01*
X205463308Y-70105635D01*
X205625230Y-70119801D01*
X205689998Y-70125468D01*
X205690000Y-70125468D01*
X205690002Y-70125468D01*
X205746807Y-70120498D01*
X205916692Y-70105635D01*
X206136496Y-70046739D01*
X206342734Y-69950568D01*
X206529139Y-69820047D01*
X206690047Y-69659139D01*
X206820568Y-69472734D01*
X206916739Y-69266496D01*
X206975635Y-69046692D01*
X206995468Y-68820000D01*
X206994184Y-68805329D01*
X206984847Y-68698599D01*
X206975635Y-68593308D01*
X206916739Y-68373504D01*
X206820568Y-68167266D01*
X206690047Y-67980861D01*
X206690045Y-67980858D01*
X206529141Y-67819954D01*
X206342734Y-67689432D01*
X206342732Y-67689431D01*
X206136497Y-67593261D01*
X206136490Y-67593259D01*
X205998236Y-67556214D01*
X205938576Y-67519849D01*
X205908047Y-67457002D01*
X205916342Y-67387626D01*
X205960827Y-67333748D01*
X205998237Y-67316664D01*
X206186317Y-67266269D01*
X206186326Y-67266265D01*
X206392482Y-67170134D01*
X206578820Y-67039657D01*
X206739657Y-66878820D01*
X206870132Y-66692484D01*
X206897341Y-66634134D01*
X206943513Y-66581695D01*
X207010707Y-66562542D01*
X207077588Y-66582757D01*
X207122106Y-66634133D01*
X207149431Y-66692732D01*
X207149432Y-66692734D01*
X207279954Y-66879141D01*
X207440858Y-67040045D01*
X207440861Y-67040047D01*
X207627266Y-67170568D01*
X207833504Y-67266739D01*
X207833509Y-67266740D01*
X207833511Y-67266741D01*
X207883163Y-67280045D01*
X208053308Y-67325635D01*
X208213294Y-67339632D01*
X208279998Y-67345468D01*
X208280000Y-67345468D01*
X208280002Y-67345468D01*
X208336807Y-67340498D01*
X208506692Y-67325635D01*
X208726496Y-67266739D01*
X208932734Y-67170568D01*
X209119139Y-67040047D01*
X209280047Y-66879139D01*
X209410568Y-66692734D01*
X209437618Y-66634724D01*
X209483790Y-66582285D01*
X209550983Y-66563133D01*
X209617865Y-66583348D01*
X209662382Y-66634725D01*
X209689429Y-66692728D01*
X209689432Y-66692734D01*
X209819954Y-66879141D01*
X209980858Y-67040045D01*
X209980861Y-67040047D01*
X210167266Y-67170568D01*
X210373504Y-67266739D01*
X210373509Y-67266740D01*
X210373511Y-67266741D01*
X210423163Y-67280045D01*
X210593308Y-67325635D01*
X210753294Y-67339632D01*
X210819998Y-67345468D01*
X210820000Y-67345468D01*
X210820002Y-67345468D01*
X210876807Y-67340498D01*
X211046692Y-67325635D01*
X211266496Y-67266739D01*
X211472734Y-67170568D01*
X211659139Y-67040047D01*
X211820047Y-66879139D01*
X211950568Y-66692734D01*
X211977618Y-66634724D01*
X212023790Y-66582285D01*
X212090983Y-66563133D01*
X212157865Y-66583348D01*
X212202382Y-66634725D01*
X212229429Y-66692728D01*
X212229432Y-66692734D01*
X212359954Y-66879141D01*
X212520858Y-67040045D01*
X212520861Y-67040047D01*
X212707266Y-67170568D01*
X212913504Y-67266739D01*
X212913507Y-67266739D01*
X212913516Y-67266743D01*
X212947040Y-67275725D01*
X213006701Y-67312088D01*
X213037232Y-67374935D01*
X213028938Y-67444310D01*
X212984454Y-67498189D01*
X212917902Y-67519465D01*
X212914949Y-67519500D01*
X212462129Y-67519500D01*
X212462123Y-67519501D01*
X212402516Y-67525908D01*
X212267671Y-67576202D01*
X212267664Y-67576206D01*
X212152455Y-67662452D01*
X212152452Y-67662455D01*
X212066206Y-67777664D01*
X212066202Y-67777671D01*
X212015908Y-67912517D01*
X212012168Y-67947309D01*
X212009501Y-67972123D01*
X212009500Y-67972135D01*
X212009500Y-69667870D01*
X212009501Y-69667876D01*
X212015908Y-69727483D01*
X212066202Y-69862328D01*
X212066206Y-69862335D01*
X212152452Y-69977544D01*
X212152455Y-69977547D01*
X212267664Y-70063793D01*
X212267671Y-70063797D01*
X212402517Y-70114091D01*
X212402516Y-70114091D01*
X212409444Y-70114835D01*
X212462127Y-70120500D01*
X214157872Y-70120499D01*
X214217483Y-70114091D01*
X214352331Y-70063796D01*
X214467546Y-69977546D01*
X214553796Y-69862331D01*
X214604091Y-69727483D01*
X214610500Y-69667873D01*
X214610499Y-67972128D01*
X214604091Y-67912517D01*
X214588662Y-67871151D01*
X214553797Y-67777671D01*
X214553793Y-67777664D01*
X214467547Y-67662455D01*
X214467544Y-67662452D01*
X214352335Y-67576206D01*
X214352328Y-67576202D01*
X214217482Y-67525908D01*
X214217483Y-67525908D01*
X214157883Y-67519501D01*
X214157881Y-67519500D01*
X214157873Y-67519500D01*
X214157865Y-67519500D01*
X213805052Y-67519500D01*
X213738013Y-67499815D01*
X213692258Y-67447011D01*
X213682314Y-67377853D01*
X213711339Y-67314297D01*
X213770117Y-67276523D01*
X213772960Y-67275725D01*
X213806486Y-67266742D01*
X213806489Y-67266740D01*
X213806496Y-67266739D01*
X214012734Y-67170568D01*
X214199139Y-67040047D01*
X214360047Y-66879139D01*
X214490568Y-66692734D01*
X214517618Y-66634724D01*
X214563790Y-66582285D01*
X214630983Y-66563133D01*
X214697865Y-66583348D01*
X214742381Y-66634724D01*
X214769432Y-66692734D01*
X214873362Y-66841163D01*
X214877075Y-66846465D01*
X214899402Y-66912671D01*
X214899500Y-66917588D01*
X214899500Y-69115721D01*
X214899460Y-69118861D01*
X214897243Y-69206362D01*
X214897243Y-69206371D01*
X214907648Y-69264420D01*
X214908956Y-69273748D01*
X214914925Y-69332430D01*
X214914927Y-69332444D01*
X214924033Y-69361468D01*
X214927772Y-69376701D01*
X214933142Y-69406653D01*
X214933142Y-69406655D01*
X214955020Y-69461424D01*
X214958177Y-69470292D01*
X214975841Y-69526588D01*
X214975842Y-69526589D01*
X214978323Y-69532371D01*
X214976509Y-69533149D01*
X214989500Y-69583302D01*
X214989500Y-70467870D01*
X214989501Y-70467876D01*
X214995908Y-70527483D01*
X215046202Y-70662328D01*
X215046206Y-70662335D01*
X215132452Y-70777544D01*
X215132455Y-70777547D01*
X215247664Y-70863793D01*
X215247671Y-70863797D01*
X215382517Y-70914091D01*
X215382516Y-70914091D01*
X215389444Y-70914835D01*
X215442127Y-70920500D01*
X217237872Y-70920499D01*
X217297483Y-70914091D01*
X217432331Y-70863796D01*
X217547546Y-70777546D01*
X217633796Y-70662331D01*
X217682810Y-70530916D01*
X217724681Y-70474984D01*
X217790145Y-70450566D01*
X217858418Y-70465417D01*
X217886673Y-70486569D01*
X218008599Y-70608495D01*
X218085662Y-70662455D01*
X218202165Y-70744032D01*
X218202167Y-70744033D01*
X218202170Y-70744035D01*
X218416337Y-70843903D01*
X218644592Y-70905063D01*
X218821034Y-70920500D01*
X218879999Y-70925659D01*
X218880000Y-70925659D01*
X218880001Y-70925659D01*
X218938966Y-70920500D01*
X219115408Y-70905063D01*
X219343663Y-70843903D01*
X219557830Y-70744035D01*
X219751401Y-70608495D01*
X219918495Y-70441401D01*
X220048425Y-70255842D01*
X220103002Y-70212217D01*
X220172500Y-70205023D01*
X220234855Y-70236546D01*
X220251575Y-70255842D01*
X220381500Y-70441395D01*
X220381505Y-70441401D01*
X220548599Y-70608495D01*
X220625662Y-70662455D01*
X220742165Y-70744032D01*
X220742167Y-70744033D01*
X220742170Y-70744035D01*
X220956337Y-70843903D01*
X221184592Y-70905063D01*
X221361034Y-70920500D01*
X221419999Y-70925659D01*
X221420000Y-70925659D01*
X221420001Y-70925659D01*
X221478966Y-70920500D01*
X221655408Y-70905063D01*
X221883663Y-70843903D01*
X222097830Y-70744035D01*
X222291401Y-70608495D01*
X222458495Y-70441401D01*
X222573925Y-70276549D01*
X222628502Y-70232925D01*
X222698000Y-70225731D01*
X222760355Y-70257254D01*
X222795769Y-70317484D01*
X222799500Y-70347673D01*
X222799500Y-92850743D01*
X222814925Y-93002439D01*
X222875837Y-93196579D01*
X222875844Y-93196594D01*
X222974589Y-93374499D01*
X222974592Y-93374504D01*
X223107132Y-93528893D01*
X223107134Y-93528895D01*
X223268037Y-93653445D01*
X223268038Y-93653445D01*
X223268042Y-93653448D01*
X223450729Y-93743060D01*
X223647715Y-93794063D01*
X223850936Y-93804369D01*
X224052071Y-93773556D01*
X224242887Y-93702886D01*
X224415571Y-93595252D01*
X224563053Y-93455059D01*
X224679295Y-93288049D01*
X224759540Y-93101058D01*
X224800500Y-92901741D01*
X224800500Y-70690758D01*
X224820185Y-70623719D01*
X224836819Y-70603077D01*
X224913988Y-70525908D01*
X224998495Y-70441401D01*
X225128730Y-70255405D01*
X225183307Y-70211781D01*
X225252805Y-70204587D01*
X225315160Y-70236110D01*
X225331879Y-70255405D01*
X225461890Y-70441078D01*
X225628917Y-70608105D01*
X225822421Y-70743600D01*
X226036507Y-70843429D01*
X226036516Y-70843433D01*
X226250000Y-70900634D01*
X226250000Y-70005501D01*
X226357685Y-70054680D01*
X226464237Y-70070000D01*
X226535763Y-70070000D01*
X226642315Y-70054680D01*
X226750000Y-70005501D01*
X226750000Y-70900633D01*
X226963483Y-70843433D01*
X226963492Y-70843429D01*
X227177578Y-70743600D01*
X227371082Y-70608105D01*
X227538105Y-70441082D01*
X227668119Y-70255405D01*
X227722696Y-70211781D01*
X227792195Y-70204588D01*
X227854549Y-70236110D01*
X227871269Y-70255405D01*
X228001505Y-70441401D01*
X228168599Y-70608495D01*
X228245662Y-70662455D01*
X228362165Y-70744032D01*
X228362167Y-70744033D01*
X228362170Y-70744035D01*
X228576337Y-70843903D01*
X228804592Y-70905063D01*
X228981034Y-70920500D01*
X229039999Y-70925659D01*
X229040000Y-70925659D01*
X229040001Y-70925659D01*
X229098966Y-70920500D01*
X229275408Y-70905063D01*
X229503663Y-70843903D01*
X229717830Y-70744035D01*
X229911401Y-70608495D01*
X230078495Y-70441401D01*
X230214035Y-70247830D01*
X230313903Y-70033663D01*
X230375063Y-69805408D01*
X230395659Y-69570000D01*
X230395574Y-69569034D01*
X230381368Y-69406655D01*
X230375063Y-69334592D01*
X230316836Y-69117284D01*
X230313905Y-69106344D01*
X230313904Y-69106343D01*
X230313903Y-69106337D01*
X230214035Y-68892171D01*
X230208731Y-68884595D01*
X230078494Y-68698597D01*
X229911402Y-68531506D01*
X229911395Y-68531501D01*
X229906379Y-68527989D01*
X229827339Y-68472644D01*
X229717831Y-68395965D01*
X229717827Y-68395963D01*
X229672093Y-68374636D01*
X229619655Y-68328463D01*
X229600500Y-68262255D01*
X229600500Y-67620000D01*
X243294551Y-67620000D01*
X243314317Y-67871151D01*
X243373126Y-68116110D01*
X243469533Y-68348859D01*
X243601160Y-68563653D01*
X243601161Y-68563656D01*
X243626491Y-68593313D01*
X243764776Y-68755224D01*
X243892834Y-68864596D01*
X243956343Y-68918838D01*
X243956346Y-68918839D01*
X244171140Y-69050466D01*
X244347126Y-69123361D01*
X244403889Y-69146873D01*
X244648852Y-69205683D01*
X244837118Y-69220500D01*
X244837126Y-69220500D01*
X244962874Y-69220500D01*
X244962882Y-69220500D01*
X245151148Y-69205683D01*
X245396111Y-69146873D01*
X245628859Y-69050466D01*
X245843659Y-68918836D01*
X246035224Y-68755224D01*
X246198836Y-68563659D01*
X246330466Y-68348859D01*
X246426873Y-68116111D01*
X246485683Y-67871148D01*
X246505449Y-67620000D01*
X246485683Y-67368852D01*
X246426873Y-67123889D01*
X246424906Y-67119141D01*
X246330466Y-66891140D01*
X246198839Y-66676346D01*
X246198838Y-66676343D01*
X246119412Y-66583348D01*
X246035224Y-66484776D01*
X245848200Y-66325042D01*
X245843656Y-66321161D01*
X245843653Y-66321160D01*
X245628859Y-66189533D01*
X245396110Y-66093126D01*
X245151151Y-66034317D01*
X244962887Y-66019500D01*
X244962882Y-66019500D01*
X244837118Y-66019500D01*
X244837112Y-66019500D01*
X244648848Y-66034317D01*
X244403889Y-66093126D01*
X244171140Y-66189533D01*
X243956346Y-66321160D01*
X243956343Y-66321161D01*
X243764776Y-66484776D01*
X243601161Y-66676343D01*
X243601160Y-66676346D01*
X243469533Y-66891140D01*
X243373126Y-67123889D01*
X243314317Y-67368848D01*
X243294551Y-67620000D01*
X229600500Y-67620000D01*
X229600500Y-66917588D01*
X229620185Y-66850549D01*
X229622925Y-66846465D01*
X229730568Y-66692734D01*
X229757618Y-66634724D01*
X229803790Y-66582285D01*
X229870983Y-66563133D01*
X229937865Y-66583348D01*
X229982382Y-66634725D01*
X230009429Y-66692728D01*
X230009432Y-66692734D01*
X230139954Y-66879141D01*
X230300858Y-67040045D01*
X230300861Y-67040047D01*
X230487266Y-67170568D01*
X230693504Y-67266739D01*
X230693509Y-67266740D01*
X230693511Y-67266741D01*
X230743163Y-67280045D01*
X230913308Y-67325635D01*
X231073294Y-67339632D01*
X231139998Y-67345468D01*
X231140000Y-67345468D01*
X231140002Y-67345468D01*
X231196807Y-67340498D01*
X231366692Y-67325635D01*
X231586496Y-67266739D01*
X231792734Y-67170568D01*
X231979139Y-67040047D01*
X232140047Y-66879139D01*
X232270568Y-66692734D01*
X232297618Y-66634724D01*
X232343790Y-66582285D01*
X232410983Y-66563133D01*
X232477865Y-66583348D01*
X232522382Y-66634725D01*
X232549429Y-66692728D01*
X232549432Y-66692734D01*
X232679954Y-66879141D01*
X232840858Y-67040045D01*
X232840861Y-67040047D01*
X233027266Y-67170568D01*
X233233504Y-67266739D01*
X233233509Y-67266740D01*
X233233511Y-67266741D01*
X233283163Y-67280045D01*
X233453308Y-67325635D01*
X233613294Y-67339632D01*
X233679998Y-67345468D01*
X233680000Y-67345468D01*
X233680002Y-67345468D01*
X233736807Y-67340498D01*
X233906692Y-67325635D01*
X234126496Y-67266739D01*
X234332734Y-67170568D01*
X234519139Y-67040047D01*
X234680047Y-66879139D01*
X234810568Y-66692734D01*
X234906739Y-66486496D01*
X234965635Y-66266692D01*
X234985468Y-66040000D01*
X234983674Y-66019500D01*
X234971015Y-65874806D01*
X234965635Y-65813308D01*
X234906739Y-65593504D01*
X234810568Y-65387266D01*
X234680047Y-65200861D01*
X234680045Y-65200858D01*
X234516819Y-65037632D01*
X234483334Y-64976309D01*
X234480500Y-64949951D01*
X234480500Y-56129805D01*
X234480499Y-56129802D01*
X234475935Y-56109806D01*
X234471979Y-56092475D01*
X234469655Y-56078797D01*
X234465368Y-56040745D01*
X234452722Y-56004606D01*
X234448876Y-55991255D01*
X234440359Y-55953939D01*
X234423754Y-55919458D01*
X234418433Y-55906613D01*
X234415927Y-55899452D01*
X234405789Y-55870478D01*
X234388818Y-55843469D01*
X234369819Y-55776234D01*
X234388820Y-55711526D01*
X234405789Y-55684522D01*
X234418430Y-55648395D01*
X234423752Y-55635545D01*
X234431055Y-55620380D01*
X234440359Y-55601061D01*
X234448877Y-55563737D01*
X234452722Y-55550393D01*
X234465368Y-55514255D01*
X234469655Y-55476201D01*
X234471982Y-55462511D01*
X234473653Y-55455194D01*
X234480500Y-55425195D01*
X234480500Y-55244806D01*
X234480500Y-51890049D01*
X234500185Y-51823010D01*
X234516819Y-51802368D01*
X234680045Y-51639141D01*
X234680047Y-51639139D01*
X234810568Y-51452734D01*
X234906739Y-51246496D01*
X234965635Y-51026692D01*
X234985468Y-50800000D01*
X234982404Y-50764984D01*
X234972147Y-50647738D01*
X234965635Y-50573308D01*
X234909721Y-50364632D01*
X234906741Y-50353511D01*
X234906740Y-50353510D01*
X234906739Y-50353504D01*
X234833714Y-50196904D01*
X234823223Y-50127828D01*
X234851743Y-50064044D01*
X234910219Y-50025804D01*
X234946097Y-50020500D01*
X237778481Y-50020500D01*
X237845520Y-50040185D01*
X237866162Y-50056819D01*
X238248631Y-50439288D01*
X238277991Y-50486013D01*
X238314211Y-50589523D01*
X238314212Y-50589524D01*
X238372736Y-50682664D01*
X238410184Y-50742262D01*
X238537738Y-50869816D01*
X238600728Y-50909395D01*
X238690318Y-50965689D01*
X238690478Y-50965789D01*
X238860745Y-51025368D01*
X238860750Y-51025369D01*
X239039996Y-51045565D01*
X239040000Y-51045565D01*
X239040004Y-51045565D01*
X239219249Y-51025369D01*
X239219252Y-51025368D01*
X239219255Y-51025368D01*
X239389522Y-50965789D01*
X239542262Y-50869816D01*
X239669816Y-50742262D01*
X239765789Y-50589522D01*
X239825368Y-50419255D01*
X239830349Y-50375048D01*
X239845565Y-50240003D01*
X239845565Y-50239996D01*
X239825369Y-50060750D01*
X239825368Y-50060745D01*
X239765788Y-49890476D01*
X239710569Y-49802596D01*
X239669816Y-49737738D01*
X239542262Y-49610184D01*
X239484252Y-49573734D01*
X239383626Y-49510506D01*
X239385120Y-49508128D01*
X239342666Y-49469800D01*
X239324351Y-49402373D01*
X239345397Y-49335749D01*
X239399122Y-49291079D01*
X239468469Y-49282546D01*
X239489280Y-49287858D01*
X239510737Y-49295366D01*
X239510743Y-49295367D01*
X239510745Y-49295368D01*
X239510746Y-49295368D01*
X239510750Y-49295369D01*
X239689996Y-49315565D01*
X239690000Y-49315565D01*
X239690004Y-49315565D01*
X239869249Y-49295369D01*
X239869252Y-49295368D01*
X239869255Y-49295368D01*
X240039522Y-49235789D01*
X240192262Y-49139816D01*
X240319816Y-49012262D01*
X240400506Y-48883845D01*
X240452841Y-48837554D01*
X240521895Y-48826906D01*
X240585743Y-48855281D01*
X240624115Y-48913671D01*
X240629500Y-48949817D01*
X240629500Y-61368085D01*
X240628720Y-61381969D01*
X240624435Y-61419998D01*
X240624435Y-61420003D01*
X240644630Y-61599249D01*
X240644631Y-61599254D01*
X240704211Y-61769523D01*
X240760705Y-61859432D01*
X240800184Y-61922262D01*
X240927738Y-62049816D01*
X241080478Y-62145789D01*
X241208438Y-62190564D01*
X241250745Y-62205368D01*
X241250750Y-62205369D01*
X241429996Y-62225565D01*
X241430000Y-62225565D01*
X241430004Y-62225565D01*
X241609249Y-62205369D01*
X241609252Y-62205368D01*
X241609255Y-62205368D01*
X241779522Y-62145789D01*
X241932262Y-62049816D01*
X242059816Y-61922262D01*
X242155789Y-61769522D01*
X242215368Y-61599255D01*
X242218157Y-61574501D01*
X242235565Y-61420003D01*
X242235565Y-61419997D01*
X242231280Y-61381969D01*
X242230500Y-61368085D01*
X242230500Y-53800291D01*
X242250185Y-53733252D01*
X242302989Y-53687497D01*
X242372147Y-53677553D01*
X242425620Y-53698714D01*
X242501770Y-53752035D01*
X242715937Y-53851903D01*
X242715943Y-53851904D01*
X242715944Y-53851905D01*
X242746305Y-53860040D01*
X242944192Y-53913063D01*
X243132518Y-53929539D01*
X243179599Y-53933659D01*
X243179600Y-53933659D01*
X243179601Y-53933659D01*
X243218834Y-53930226D01*
X243415008Y-53913063D01*
X243643263Y-53851903D01*
X243857430Y-53752035D01*
X244051001Y-53616495D01*
X244218095Y-53449401D01*
X244339164Y-53276497D01*
X244348025Y-53263842D01*
X244402602Y-53220217D01*
X244472100Y-53213023D01*
X244534455Y-53244546D01*
X244551175Y-53263842D01*
X244681100Y-53449395D01*
X244681105Y-53449401D01*
X244848199Y-53616495D01*
X244923385Y-53669141D01*
X245041765Y-53752032D01*
X245041767Y-53752033D01*
X245041770Y-53752035D01*
X245255937Y-53851903D01*
X245255943Y-53851904D01*
X245255944Y-53851905D01*
X245286305Y-53860040D01*
X245484192Y-53913063D01*
X245672518Y-53929539D01*
X245719599Y-53933659D01*
X245719600Y-53933659D01*
X245719601Y-53933659D01*
X245758834Y-53930226D01*
X245955008Y-53913063D01*
X246183263Y-53851903D01*
X246397430Y-53752035D01*
X246591001Y-53616495D01*
X246758095Y-53449401D01*
X246893635Y-53255830D01*
X246993503Y-53041663D01*
X247054663Y-52813408D01*
X247075259Y-52578000D01*
X247054663Y-52342592D01*
X246993503Y-52114337D01*
X246893635Y-51900171D01*
X246888025Y-51892158D01*
X246758094Y-51706597D01*
X246591002Y-51539506D01*
X246590996Y-51539501D01*
X246405442Y-51409575D01*
X246361817Y-51354998D01*
X246354623Y-51285500D01*
X246386146Y-51223145D01*
X246405442Y-51206425D01*
X246513448Y-51130798D01*
X246591001Y-51076495D01*
X246758095Y-50909401D01*
X246893635Y-50715830D01*
X246993503Y-50501663D01*
X247054663Y-50273408D01*
X247075259Y-50038000D01*
X247054663Y-49802592D01*
X246993503Y-49574337D01*
X246893635Y-49360171D01*
X246867011Y-49322147D01*
X246758094Y-49166597D01*
X246591002Y-48999506D01*
X246590995Y-48999501D01*
X246575425Y-48988599D01*
X246551620Y-48971930D01*
X246397434Y-48863967D01*
X246397430Y-48863965D01*
X246378807Y-48855281D01*
X246183263Y-48764097D01*
X246183259Y-48764096D01*
X246183255Y-48764094D01*
X245955013Y-48702938D01*
X245955003Y-48702936D01*
X245719601Y-48682341D01*
X245719599Y-48682341D01*
X245484196Y-48702936D01*
X245484186Y-48702938D01*
X245255944Y-48764094D01*
X245255935Y-48764098D01*
X245041771Y-48863964D01*
X245041769Y-48863965D01*
X244848200Y-48999503D01*
X244726273Y-49121430D01*
X244664950Y-49154914D01*
X244595258Y-49149930D01*
X244539325Y-49108058D01*
X244522410Y-49077081D01*
X244473397Y-48945671D01*
X244473393Y-48945664D01*
X244387147Y-48830455D01*
X244387144Y-48830452D01*
X244271935Y-48744206D01*
X244271928Y-48744202D01*
X244137082Y-48693908D01*
X244137083Y-48693908D01*
X244077483Y-48687501D01*
X244077481Y-48687500D01*
X244077473Y-48687500D01*
X244077465Y-48687500D01*
X242837805Y-48687500D01*
X242770766Y-48667815D01*
X242725011Y-48615011D01*
X242715067Y-48545853D01*
X242716914Y-48535907D01*
X242720499Y-48520198D01*
X242720500Y-48520193D01*
X242720500Y-44620000D01*
X243294551Y-44620000D01*
X243314317Y-44871151D01*
X243373126Y-45116110D01*
X243469533Y-45348859D01*
X243601160Y-45563653D01*
X243601161Y-45563656D01*
X243601164Y-45563659D01*
X243764776Y-45755224D01*
X243913066Y-45881875D01*
X243956343Y-45918838D01*
X243956346Y-45918839D01*
X244171140Y-46050466D01*
X244403889Y-46146873D01*
X244648852Y-46205683D01*
X244837118Y-46220500D01*
X244837126Y-46220500D01*
X244962874Y-46220500D01*
X244962882Y-46220500D01*
X245151148Y-46205683D01*
X245396111Y-46146873D01*
X245628859Y-46050466D01*
X245843659Y-45918836D01*
X246035224Y-45755224D01*
X246198836Y-45563659D01*
X246330466Y-45348859D01*
X246426873Y-45116111D01*
X246485683Y-44871148D01*
X246505449Y-44620000D01*
X246485683Y-44368852D01*
X246426873Y-44123889D01*
X246372333Y-43992217D01*
X246330466Y-43891140D01*
X246198839Y-43676346D01*
X246198838Y-43676343D01*
X246139334Y-43606673D01*
X246035224Y-43484776D01*
X245877422Y-43350000D01*
X245843656Y-43321161D01*
X245843653Y-43321160D01*
X245628859Y-43189533D01*
X245396110Y-43093126D01*
X245151151Y-43034317D01*
X244962887Y-43019500D01*
X244962882Y-43019500D01*
X244837118Y-43019500D01*
X244837112Y-43019500D01*
X244648848Y-43034317D01*
X244403889Y-43093126D01*
X244171140Y-43189533D01*
X243956346Y-43321160D01*
X243956343Y-43321161D01*
X243764776Y-43484776D01*
X243601161Y-43676343D01*
X243601160Y-43676346D01*
X243469533Y-43891140D01*
X243373126Y-44123889D01*
X243314317Y-44368848D01*
X243294551Y-44620000D01*
X242720500Y-44620000D01*
X242720500Y-42331914D01*
X242721280Y-42318029D01*
X242725565Y-42280001D01*
X242725565Y-42279996D01*
X242705369Y-42100750D01*
X242705368Y-42100745D01*
X242675011Y-42013990D01*
X242645789Y-41930478D01*
X242549816Y-41777738D01*
X242422262Y-41650184D01*
X242299557Y-41573083D01*
X242277848Y-41555770D01*
X242254259Y-41532181D01*
X242220774Y-41470858D01*
X242225758Y-41401166D01*
X242267630Y-41345233D01*
X242333094Y-41320816D01*
X242341940Y-41320500D01*
X244807290Y-41320500D01*
X244896754Y-41320500D01*
X244903243Y-41320669D01*
X245238405Y-41338235D01*
X245251313Y-41339592D01*
X245579587Y-41391585D01*
X245592270Y-41394280D01*
X245913332Y-41480309D01*
X245925665Y-41484316D01*
X246235971Y-41603432D01*
X246247807Y-41608701D01*
X246543977Y-41759607D01*
X246555191Y-41766083D01*
X246808335Y-41930476D01*
X246833943Y-41947106D01*
X246844444Y-41954735D01*
X247102749Y-42163907D01*
X247112394Y-42172592D01*
X247347407Y-42407605D01*
X247356092Y-42417250D01*
X247565264Y-42675555D01*
X247572893Y-42686056D01*
X247587003Y-42707783D01*
X247753913Y-42964802D01*
X247760395Y-42976029D01*
X247846188Y-43144406D01*
X247911293Y-43272182D01*
X247916572Y-43284039D01*
X248035681Y-43594329D01*
X248039692Y-43606673D01*
X248125717Y-43927723D01*
X248128415Y-43940419D01*
X248180407Y-44268686D01*
X248181764Y-44281594D01*
X248199330Y-44616756D01*
X248199500Y-44623246D01*
X248199500Y-71698151D01*
X248179815Y-71765190D01*
X248127011Y-71810945D01*
X248076979Y-71822142D01*
X228822407Y-72051819D01*
X228822407Y-72051820D01*
X228558493Y-95012394D01*
X228547406Y-95976925D01*
X228526952Y-96043734D01*
X228473626Y-96088879D01*
X228423414Y-96099500D01*
X161103246Y-96099500D01*
X161096756Y-96099330D01*
X160761594Y-96081764D01*
X160748686Y-96080407D01*
X160420419Y-96028415D01*
X160407723Y-96025717D01*
X160086673Y-95939692D01*
X160074329Y-95935681D01*
X159764039Y-95816572D01*
X159752182Y-95811293D01*
X159456029Y-95660395D01*
X159444802Y-95653913D01*
X159166056Y-95472893D01*
X159155555Y-95465264D01*
X158897250Y-95256092D01*
X158887605Y-95247407D01*
X158652592Y-95012394D01*
X158643907Y-95002749D01*
X158434735Y-94744444D01*
X158427106Y-94733943D01*
X158405387Y-94700499D01*
X158246083Y-94455191D01*
X158239607Y-94443977D01*
X158088701Y-94147807D01*
X158083432Y-94135971D01*
X157964316Y-93825665D01*
X157960307Y-93813326D01*
X157955145Y-93794063D01*
X157874280Y-93492270D01*
X157871584Y-93479580D01*
X157870059Y-93469953D01*
X157819592Y-93151313D01*
X157818235Y-93138405D01*
X157800670Y-92803243D01*
X157800585Y-92800000D01*
X159494551Y-92800000D01*
X159514317Y-93051151D01*
X159573126Y-93296110D01*
X159669533Y-93528859D01*
X159801160Y-93743653D01*
X159801161Y-93743656D01*
X159801164Y-93743659D01*
X159964776Y-93935224D01*
X160113066Y-94061875D01*
X160156343Y-94098838D01*
X160156346Y-94098839D01*
X160371140Y-94230466D01*
X160557075Y-94307482D01*
X160603889Y-94326873D01*
X160848852Y-94385683D01*
X161037118Y-94400500D01*
X161037126Y-94400500D01*
X161162874Y-94400500D01*
X161162882Y-94400500D01*
X161351148Y-94385683D01*
X161596111Y-94326873D01*
X161828859Y-94230466D01*
X162043659Y-94098836D01*
X162235224Y-93935224D01*
X162398836Y-93743659D01*
X162530466Y-93528859D01*
X162626873Y-93296111D01*
X162670017Y-93116402D01*
X182464547Y-93116402D01*
X182484371Y-93342999D01*
X182484373Y-93343010D01*
X182543243Y-93562717D01*
X182543248Y-93562731D01*
X182639376Y-93768878D01*
X182690487Y-93841872D01*
X183371559Y-93160800D01*
X183384348Y-93241548D01*
X183441872Y-93354445D01*
X183531468Y-93444041D01*
X183644365Y-93501565D01*
X183725112Y-93514353D01*
X183044039Y-94195425D01*
X183117026Y-94246532D01*
X183117034Y-94246536D01*
X183323181Y-94342664D01*
X183323195Y-94342669D01*
X183542902Y-94401539D01*
X183542913Y-94401541D01*
X183769511Y-94421366D01*
X183769515Y-94421366D01*
X183996112Y-94401541D01*
X183996123Y-94401539D01*
X184215830Y-94342669D01*
X184215844Y-94342664D01*
X184421991Y-94246536D01*
X184494984Y-94195424D01*
X183813913Y-93514353D01*
X183894661Y-93501565D01*
X184007558Y-93444041D01*
X184097154Y-93354445D01*
X184154678Y-93241548D01*
X184167466Y-93160800D01*
X184853710Y-93847044D01*
X184902705Y-93856891D01*
X184952888Y-93905506D01*
X184967562Y-93961032D01*
X184968612Y-93960976D01*
X184968659Y-93960971D01*
X184968659Y-93960973D01*
X184968837Y-93960964D01*
X184969014Y-93964276D01*
X184975421Y-94023883D01*
X185025715Y-94158728D01*
X185025719Y-94158735D01*
X185111965Y-94273944D01*
X185111968Y-94273947D01*
X185227177Y-94360193D01*
X185227184Y-94360197D01*
X185362030Y-94410491D01*
X185362029Y-94410491D01*
X185368957Y-94411235D01*
X185421640Y-94416900D01*
X187117385Y-94416899D01*
X187176996Y-94410491D01*
X187311844Y-94360196D01*
X187427059Y-94273946D01*
X187446580Y-94247870D01*
X189939500Y-94247870D01*
X189939501Y-94247876D01*
X189945908Y-94307483D01*
X189996202Y-94442328D01*
X189996206Y-94442335D01*
X190082452Y-94557544D01*
X190082455Y-94557547D01*
X190197664Y-94643793D01*
X190197671Y-94643797D01*
X190332517Y-94694091D01*
X190332516Y-94694091D01*
X190339444Y-94694835D01*
X190392127Y-94700500D01*
X193487872Y-94700499D01*
X193547483Y-94694091D01*
X193682331Y-94643796D01*
X193797546Y-94557546D01*
X193883796Y-94442331D01*
X193934091Y-94307483D01*
X193940500Y-94247873D01*
X193940499Y-91152128D01*
X193934091Y-91092517D01*
X193883796Y-90957669D01*
X193883795Y-90957668D01*
X193883793Y-90957664D01*
X193797547Y-90842455D01*
X193797544Y-90842452D01*
X193682335Y-90756206D01*
X193682328Y-90756202D01*
X193547482Y-90705908D01*
X193547483Y-90705908D01*
X193487883Y-90699501D01*
X193487881Y-90699500D01*
X193487873Y-90699500D01*
X193487864Y-90699500D01*
X190392129Y-90699500D01*
X190392123Y-90699501D01*
X190332516Y-90705908D01*
X190197671Y-90756202D01*
X190197664Y-90756206D01*
X190082455Y-90842452D01*
X190082452Y-90842455D01*
X189996206Y-90957664D01*
X189996202Y-90957671D01*
X189945908Y-91092517D01*
X189939501Y-91152116D01*
X189939501Y-91152123D01*
X189939500Y-91152135D01*
X189939500Y-94247870D01*
X187446580Y-94247870D01*
X187513309Y-94158731D01*
X187563604Y-94023883D01*
X187570013Y-93964273D01*
X187570012Y-92268528D01*
X187563604Y-92208917D01*
X187546152Y-92162127D01*
X187513310Y-92074071D01*
X187513306Y-92074064D01*
X187427060Y-91958855D01*
X187319701Y-91878485D01*
X187277831Y-91822551D01*
X187270013Y-91779219D01*
X187270013Y-87320878D01*
X187289698Y-87253839D01*
X187310026Y-87229652D01*
X187410171Y-87137463D01*
X187558072Y-86947439D01*
X187672679Y-86735664D01*
X187750866Y-86507913D01*
X187790500Y-86270399D01*
X187790500Y-86029601D01*
X187750866Y-85792087D01*
X187672679Y-85564336D01*
X187558072Y-85352561D01*
X187410171Y-85162537D01*
X187233010Y-84999449D01*
X187209070Y-84983808D01*
X187163714Y-84930664D01*
X187154290Y-84861433D01*
X187183791Y-84798096D01*
X187209070Y-84776191D01*
X187233010Y-84760551D01*
X187410171Y-84597463D01*
X187558072Y-84407439D01*
X187672679Y-84195664D01*
X187750866Y-83967913D01*
X187790500Y-83730399D01*
X187790500Y-83489601D01*
X187750866Y-83252087D01*
X187730720Y-83193405D01*
X187672681Y-83024343D01*
X187672678Y-83024334D01*
X187584343Y-82861106D01*
X187558072Y-82812561D01*
X187558070Y-82812559D01*
X187558070Y-82812558D01*
X187525681Y-82770945D01*
X187446844Y-82669654D01*
X187421202Y-82604663D01*
X187434768Y-82536123D01*
X187483237Y-82485798D01*
X187501367Y-82477311D01*
X187532088Y-82465853D01*
X187532093Y-82465850D01*
X187647187Y-82379690D01*
X187647190Y-82379687D01*
X187733350Y-82264593D01*
X187733354Y-82264586D01*
X187783596Y-82129879D01*
X187783598Y-82129872D01*
X187789999Y-82070344D01*
X187790000Y-82070327D01*
X187790000Y-81320000D01*
X186784852Y-81320000D01*
X186833559Y-81182953D01*
X186843877Y-81032114D01*
X186813116Y-80884085D01*
X186779910Y-80820000D01*
X187790000Y-80820000D01*
X187790000Y-80069672D01*
X187789999Y-80069655D01*
X187783598Y-80010127D01*
X187783596Y-80010120D01*
X187733354Y-79875413D01*
X187733350Y-79875406D01*
X187647190Y-79760312D01*
X187647187Y-79760309D01*
X187532093Y-79674149D01*
X187532086Y-79674145D01*
X187397379Y-79623903D01*
X187397372Y-79623901D01*
X187337844Y-79617500D01*
X186540000Y-79617500D01*
X186540000Y-80578316D01*
X186511181Y-80560791D01*
X186365596Y-80520000D01*
X186252378Y-80520000D01*
X186140217Y-80535416D01*
X186040000Y-80578946D01*
X186040000Y-79617500D01*
X185242155Y-79617500D01*
X185182627Y-79623901D01*
X185182620Y-79623903D01*
X185047913Y-79674145D01*
X185047906Y-79674149D01*
X184932812Y-79760309D01*
X184932809Y-79760312D01*
X184846649Y-79875406D01*
X184846645Y-79875413D01*
X184796403Y-80010120D01*
X184796401Y-80010127D01*
X184790000Y-80069655D01*
X184790000Y-80820000D01*
X185795148Y-80820000D01*
X185746441Y-80957047D01*
X185736123Y-81107886D01*
X185766884Y-81255915D01*
X185800090Y-81320000D01*
X184790000Y-81320000D01*
X184790000Y-82070344D01*
X184796401Y-82129872D01*
X184796403Y-82129879D01*
X184846645Y-82264586D01*
X184846649Y-82264593D01*
X184932809Y-82379687D01*
X184932812Y-82379690D01*
X185047906Y-82465850D01*
X185047915Y-82465855D01*
X185078633Y-82477312D01*
X185134567Y-82519182D01*
X185158985Y-82584646D01*
X185144134Y-82652920D01*
X185133155Y-82669656D01*
X185021929Y-82812559D01*
X184907321Y-83024334D01*
X184907318Y-83024343D01*
X184829134Y-83252083D01*
X184806527Y-83387562D01*
X184789500Y-83489601D01*
X184789500Y-83730399D01*
X184799853Y-83792439D01*
X184829134Y-83967916D01*
X184907318Y-84195656D01*
X184907321Y-84195665D01*
X185021929Y-84407441D01*
X185049952Y-84443445D01*
X185169829Y-84597463D01*
X185346990Y-84760551D01*
X185370931Y-84776193D01*
X185416287Y-84829339D01*
X185425710Y-84898570D01*
X185396207Y-84961906D01*
X185370933Y-84983806D01*
X185346990Y-84999449D01*
X185169829Y-85162537D01*
X185132925Y-85209951D01*
X185021929Y-85352558D01*
X184907321Y-85564334D01*
X184907318Y-85564343D01*
X184829134Y-85792083D01*
X184789500Y-86029602D01*
X184789500Y-86270397D01*
X184829134Y-86507916D01*
X184907318Y-86735656D01*
X184907321Y-86735665D01*
X185021929Y-86947441D01*
X185021933Y-86947447D01*
X185169823Y-87137456D01*
X185169825Y-87137458D01*
X185169829Y-87137463D01*
X185228997Y-87191930D01*
X185264986Y-87251816D01*
X185269013Y-87283159D01*
X185269013Y-91779219D01*
X185249328Y-91846258D01*
X185219325Y-91878485D01*
X185111965Y-91958855D01*
X185025719Y-92074064D01*
X185025715Y-92074071D01*
X184975421Y-92208917D01*
X184969014Y-92268516D01*
X184969014Y-92268523D01*
X184968835Y-92271852D01*
X184967360Y-92271772D01*
X184949328Y-92333184D01*
X184896524Y-92378939D01*
X184853035Y-92386429D01*
X184167466Y-93071998D01*
X184154678Y-92991252D01*
X184097154Y-92878355D01*
X184007558Y-92788759D01*
X183894661Y-92731235D01*
X183813914Y-92718446D01*
X184494985Y-92037374D01*
X184421991Y-91986263D01*
X184215844Y-91890135D01*
X184215830Y-91890130D01*
X183996123Y-91831260D01*
X183996112Y-91831258D01*
X183769515Y-91811434D01*
X183769511Y-91811434D01*
X183542913Y-91831258D01*
X183542902Y-91831260D01*
X183323195Y-91890130D01*
X183323186Y-91890134D01*
X183117029Y-91986266D01*
X183117025Y-91986268D01*
X183044039Y-92037373D01*
X183044039Y-92037374D01*
X183725112Y-92718446D01*
X183644365Y-92731235D01*
X183531468Y-92788759D01*
X183441872Y-92878355D01*
X183384348Y-92991252D01*
X183371559Y-93071998D01*
X182690487Y-92390926D01*
X182690486Y-92390926D01*
X182639381Y-92463912D01*
X182639379Y-92463916D01*
X182543247Y-92670073D01*
X182543243Y-92670082D01*
X182484373Y-92889789D01*
X182484371Y-92889800D01*
X182464547Y-93116397D01*
X182464547Y-93116402D01*
X162670017Y-93116402D01*
X162685683Y-93051148D01*
X162705449Y-92800000D01*
X162685683Y-92548852D01*
X162626873Y-92303889D01*
X162613570Y-92271772D01*
X162530466Y-92071140D01*
X162398839Y-91856346D01*
X162398838Y-91856343D01*
X162360482Y-91811434D01*
X162235224Y-91664776D01*
X162108571Y-91556604D01*
X162043656Y-91501161D01*
X162043653Y-91501160D01*
X161924013Y-91427844D01*
X175110000Y-91427844D01*
X175116401Y-91487372D01*
X175116403Y-91487379D01*
X175166645Y-91622086D01*
X175166649Y-91622093D01*
X175252809Y-91737187D01*
X175252812Y-91737190D01*
X175367906Y-91823350D01*
X175367913Y-91823354D01*
X175502620Y-91873596D01*
X175502627Y-91873598D01*
X175562155Y-91879999D01*
X175562172Y-91880000D01*
X176210000Y-91880000D01*
X176210000Y-90965501D01*
X176317685Y-91014680D01*
X176424237Y-91030000D01*
X176495763Y-91030000D01*
X176602315Y-91014680D01*
X176710000Y-90965501D01*
X176710000Y-91880000D01*
X177357828Y-91880000D01*
X177357844Y-91879999D01*
X177417372Y-91873598D01*
X177417379Y-91873596D01*
X177552086Y-91823354D01*
X177552093Y-91823350D01*
X177667187Y-91737190D01*
X177667190Y-91737187D01*
X177753350Y-91622093D01*
X177753354Y-91622086D01*
X177803596Y-91487379D01*
X177803598Y-91487372D01*
X177809999Y-91427844D01*
X177810000Y-91427827D01*
X177810000Y-90780000D01*
X176893686Y-90780000D01*
X176919493Y-90739844D01*
X176960000Y-90601889D01*
X176960000Y-90458111D01*
X176919493Y-90320156D01*
X176893686Y-90280000D01*
X177810000Y-90280000D01*
X177810000Y-89632172D01*
X177809999Y-89632155D01*
X177803598Y-89572627D01*
X177803596Y-89572620D01*
X177753354Y-89437913D01*
X177753350Y-89437906D01*
X177667190Y-89322812D01*
X177667187Y-89322809D01*
X177552093Y-89236649D01*
X177552086Y-89236645D01*
X177417379Y-89186403D01*
X177417372Y-89186401D01*
X177357844Y-89180000D01*
X176710000Y-89180000D01*
X176710000Y-90094498D01*
X176602315Y-90045320D01*
X176495763Y-90030000D01*
X176424237Y-90030000D01*
X176317685Y-90045320D01*
X176210000Y-90094498D01*
X176210000Y-89180000D01*
X175562155Y-89180000D01*
X175502627Y-89186401D01*
X175502620Y-89186403D01*
X175367913Y-89236645D01*
X175367906Y-89236649D01*
X175252812Y-89322809D01*
X175252809Y-89322812D01*
X175166649Y-89437906D01*
X175166645Y-89437913D01*
X175116403Y-89572620D01*
X175116401Y-89572627D01*
X175110000Y-89632155D01*
X175110000Y-90280000D01*
X176026314Y-90280000D01*
X176000507Y-90320156D01*
X175960000Y-90458111D01*
X175960000Y-90601889D01*
X176000507Y-90739844D01*
X176026314Y-90780000D01*
X175110000Y-90780000D01*
X175110000Y-91427844D01*
X161924013Y-91427844D01*
X161828859Y-91369533D01*
X161596110Y-91273126D01*
X161351151Y-91214317D01*
X161162887Y-91199500D01*
X161162882Y-91199500D01*
X161037118Y-91199500D01*
X161037112Y-91199500D01*
X160848848Y-91214317D01*
X160603889Y-91273126D01*
X160371140Y-91369533D01*
X160156346Y-91501160D01*
X160156343Y-91501161D01*
X159964776Y-91664776D01*
X159801161Y-91856343D01*
X159801160Y-91856346D01*
X159669533Y-92071140D01*
X159573126Y-92303889D01*
X159514317Y-92548848D01*
X159494551Y-92800000D01*
X157800585Y-92800000D01*
X157800500Y-92796753D01*
X157800500Y-88917870D01*
X168619500Y-88917870D01*
X168619501Y-88917876D01*
X168625908Y-88977483D01*
X168676202Y-89112328D01*
X168676206Y-89112335D01*
X168762452Y-89227544D01*
X168762455Y-89227547D01*
X168877664Y-89313793D01*
X168877671Y-89313797D01*
X169012517Y-89364091D01*
X169012516Y-89364091D01*
X169019444Y-89364835D01*
X169072127Y-89370500D01*
X170867872Y-89370499D01*
X170927483Y-89364091D01*
X171062331Y-89313796D01*
X171177546Y-89227546D01*
X171263796Y-89112331D01*
X171314091Y-88977483D01*
X171320500Y-88917873D01*
X171320499Y-87122128D01*
X171314091Y-87062517D01*
X171271170Y-86947441D01*
X171263797Y-86927671D01*
X171263793Y-86927664D01*
X171177547Y-86812455D01*
X171177544Y-86812452D01*
X171062335Y-86726206D01*
X171062332Y-86726205D01*
X171062331Y-86726204D01*
X171051161Y-86722038D01*
X170995231Y-86680166D01*
X170970816Y-86614701D01*
X170970500Y-86605858D01*
X170970500Y-85100002D01*
X174755034Y-85100002D01*
X174774858Y-85326599D01*
X174774860Y-85326610D01*
X174833730Y-85546317D01*
X174833735Y-85546331D01*
X174929863Y-85752478D01*
X174980974Y-85825472D01*
X175662046Y-85144400D01*
X175674835Y-85225148D01*
X175732359Y-85338045D01*
X175821955Y-85427641D01*
X175934852Y-85485165D01*
X176015599Y-85497953D01*
X175334526Y-86179025D01*
X175407513Y-86230132D01*
X175407521Y-86230136D01*
X175613668Y-86326264D01*
X175613682Y-86326269D01*
X175833389Y-86385139D01*
X175833400Y-86385141D01*
X176059998Y-86404966D01*
X176060002Y-86404966D01*
X176286599Y-86385141D01*
X176286610Y-86385139D01*
X176506317Y-86326269D01*
X176506331Y-86326264D01*
X176712478Y-86230136D01*
X176785471Y-86179024D01*
X176104400Y-85497953D01*
X176185148Y-85485165D01*
X176298045Y-85427641D01*
X176387641Y-85338045D01*
X176445165Y-85225148D01*
X176457953Y-85144400D01*
X177139024Y-85825471D01*
X177190136Y-85752478D01*
X177286264Y-85546331D01*
X177286269Y-85546317D01*
X177345139Y-85326610D01*
X177345141Y-85326599D01*
X177364966Y-85100002D01*
X177364966Y-85099997D01*
X177345141Y-84873400D01*
X177345139Y-84873389D01*
X177286269Y-84653682D01*
X177286264Y-84653668D01*
X177190136Y-84447521D01*
X177190132Y-84447513D01*
X177139025Y-84374526D01*
X176457953Y-85055598D01*
X176445165Y-84974852D01*
X176387641Y-84861955D01*
X176298045Y-84772359D01*
X176185148Y-84714835D01*
X176104401Y-84702046D01*
X176785472Y-84020974D01*
X176712478Y-83969863D01*
X176506331Y-83873735D01*
X176506317Y-83873730D01*
X176286610Y-83814860D01*
X176286599Y-83814858D01*
X176060002Y-83795034D01*
X176059998Y-83795034D01*
X175833400Y-83814858D01*
X175833389Y-83814860D01*
X175613682Y-83873730D01*
X175613673Y-83873734D01*
X175407516Y-83969866D01*
X175407512Y-83969868D01*
X175334526Y-84020973D01*
X175334526Y-84020974D01*
X176015599Y-84702046D01*
X175934852Y-84714835D01*
X175821955Y-84772359D01*
X175732359Y-84861955D01*
X175674835Y-84974852D01*
X175662046Y-85055598D01*
X174980974Y-84374526D01*
X174980973Y-84374526D01*
X174929868Y-84447512D01*
X174929866Y-84447516D01*
X174833734Y-84653673D01*
X174833730Y-84653682D01*
X174774860Y-84873389D01*
X174774858Y-84873400D01*
X174755034Y-85099997D01*
X174755034Y-85100002D01*
X170970500Y-85100002D01*
X170970500Y-78501553D01*
X170990185Y-78434514D01*
X170998648Y-78422887D01*
X171013737Y-78404502D01*
X171031798Y-78382494D01*
X171088933Y-78275602D01*
X171127021Y-78204345D01*
X171127021Y-78204344D01*
X171127023Y-78204341D01*
X171185662Y-78011033D01*
X171185974Y-78007870D01*
X179339500Y-78007870D01*
X179339501Y-78007876D01*
X179345908Y-78067483D01*
X179396202Y-78202327D01*
X179396203Y-78202328D01*
X179396204Y-78202331D01*
X179454767Y-78280560D01*
X179479184Y-78346021D01*
X179479500Y-78354869D01*
X179479500Y-83640743D01*
X179494925Y-83792439D01*
X179555837Y-83986579D01*
X179555844Y-83986594D01*
X179654589Y-84164499D01*
X179654592Y-84164504D01*
X179787132Y-84318893D01*
X179787134Y-84318895D01*
X179948037Y-84443445D01*
X179948038Y-84443445D01*
X179948042Y-84443448D01*
X180130729Y-84533060D01*
X180327715Y-84584063D01*
X180530936Y-84594369D01*
X180732071Y-84563556D01*
X180922887Y-84492886D01*
X181095571Y-84385252D01*
X181170068Y-84314436D01*
X181232219Y-84282515D01*
X181301762Y-84289263D01*
X181356617Y-84332537D01*
X181379368Y-84398599D01*
X181379500Y-84404310D01*
X181379500Y-85209951D01*
X181359815Y-85276990D01*
X181343181Y-85297632D01*
X181329954Y-85310858D01*
X181199432Y-85497265D01*
X181199431Y-85497267D01*
X181103261Y-85703502D01*
X181103258Y-85703511D01*
X181044366Y-85923302D01*
X181044364Y-85923313D01*
X181024532Y-86149998D01*
X181024532Y-86150001D01*
X181044364Y-86376686D01*
X181044366Y-86376697D01*
X181103258Y-86596488D01*
X181103261Y-86596497D01*
X181199431Y-86802732D01*
X181199432Y-86802734D01*
X181329954Y-86989141D01*
X181490858Y-87150045D01*
X181537693Y-87182839D01*
X181677266Y-87280568D01*
X181883504Y-87376739D01*
X182103308Y-87435635D01*
X182265230Y-87449801D01*
X182329998Y-87455468D01*
X182330000Y-87455468D01*
X182330002Y-87455468D01*
X182386673Y-87450509D01*
X182556692Y-87435635D01*
X182776496Y-87376739D01*
X182982734Y-87280568D01*
X183169139Y-87150047D01*
X183330047Y-86989139D01*
X183460568Y-86802734D01*
X183556739Y-86596496D01*
X183615635Y-86376692D01*
X183635468Y-86150000D01*
X183615635Y-85923308D01*
X183556739Y-85703504D01*
X183460568Y-85497266D01*
X183402924Y-85414941D01*
X183380597Y-85348735D01*
X183380500Y-85343819D01*
X183380500Y-83539256D01*
X183365074Y-83387560D01*
X183304162Y-83193420D01*
X183304160Y-83193416D01*
X183304159Y-83193412D01*
X183205409Y-83015498D01*
X183205408Y-83015497D01*
X183205407Y-83015495D01*
X183072867Y-82861106D01*
X183072865Y-82861104D01*
X182911962Y-82736554D01*
X182911959Y-82736553D01*
X182911958Y-82736552D01*
X182729271Y-82646940D01*
X182729269Y-82646939D01*
X182729266Y-82646938D01*
X182729268Y-82646938D01*
X182695150Y-82638105D01*
X182635184Y-82602245D01*
X182604126Y-82539658D01*
X182611835Y-82470215D01*
X182655864Y-82415964D01*
X182694138Y-82398289D01*
X182776317Y-82376269D01*
X182776331Y-82376264D01*
X182982478Y-82280136D01*
X183055471Y-82229024D01*
X182374400Y-81547953D01*
X182455148Y-81535165D01*
X182568045Y-81477641D01*
X182657641Y-81388045D01*
X182715165Y-81275148D01*
X182727953Y-81194400D01*
X183409024Y-81875471D01*
X183460136Y-81802478D01*
X183556264Y-81596331D01*
X183556269Y-81596317D01*
X183615139Y-81376610D01*
X183615141Y-81376599D01*
X183634966Y-81150002D01*
X183634966Y-81149997D01*
X183615141Y-80923400D01*
X183615139Y-80923389D01*
X183556269Y-80703682D01*
X183556264Y-80703668D01*
X183460136Y-80497521D01*
X183460132Y-80497513D01*
X183409025Y-80424526D01*
X182727953Y-81105598D01*
X182715165Y-81024852D01*
X182657641Y-80911955D01*
X182568045Y-80822359D01*
X182455148Y-80764835D01*
X182374400Y-80752046D01*
X183055472Y-80070974D01*
X182982478Y-80019863D01*
X182776331Y-79923735D01*
X182776317Y-79923730D01*
X182556610Y-79864860D01*
X182556599Y-79864858D01*
X182330002Y-79845034D01*
X182329998Y-79845034D01*
X182103400Y-79864858D01*
X182103389Y-79864860D01*
X181883682Y-79923730D01*
X181883673Y-79923734D01*
X181677516Y-80019866D01*
X181677513Y-80019868D01*
X181675614Y-80021198D01*
X181674643Y-80021525D01*
X181672825Y-80022575D01*
X181672613Y-80022209D01*
X181609405Y-80043519D01*
X181541640Y-80026502D01*
X181493832Y-79975549D01*
X181480500Y-79919616D01*
X181480500Y-78583426D01*
X181500185Y-78516387D01*
X181552989Y-78470632D01*
X181591245Y-78460136D01*
X181647483Y-78454091D01*
X181782331Y-78403796D01*
X181897546Y-78317546D01*
X181983796Y-78202331D01*
X182034091Y-78067483D01*
X182040500Y-78007873D01*
X182040499Y-76212128D01*
X182034091Y-76152517D01*
X182031533Y-76145659D01*
X181983797Y-76017671D01*
X181983793Y-76017664D01*
X181897547Y-75902455D01*
X181897544Y-75902452D01*
X181782335Y-75816206D01*
X181782328Y-75816202D01*
X181647482Y-75765908D01*
X181647483Y-75765908D01*
X181587883Y-75759501D01*
X181587881Y-75759500D01*
X181587873Y-75759500D01*
X181587864Y-75759500D01*
X179792129Y-75759500D01*
X179792123Y-75759501D01*
X179732516Y-75765908D01*
X179597671Y-75816202D01*
X179597664Y-75816206D01*
X179482455Y-75902452D01*
X179482452Y-75902455D01*
X179396206Y-76017664D01*
X179396202Y-76017671D01*
X179345908Y-76152517D01*
X179339501Y-76212116D01*
X179339501Y-76212123D01*
X179339500Y-76212135D01*
X179339500Y-78007870D01*
X171185974Y-78007870D01*
X171205462Y-77810000D01*
X171185662Y-77608967D01*
X171127023Y-77415659D01*
X171031798Y-77237506D01*
X171031794Y-77237502D01*
X171029631Y-77233454D01*
X171015389Y-77165051D01*
X171029631Y-77116546D01*
X171031794Y-77112498D01*
X171031798Y-77112494D01*
X171127023Y-76934341D01*
X171185662Y-76741033D01*
X171205462Y-76540000D01*
X171185662Y-76338967D01*
X171127023Y-76145659D01*
X171127021Y-76145656D01*
X171126694Y-76144576D01*
X171126070Y-76074709D01*
X171140469Y-76045623D01*
X171139544Y-76045118D01*
X171143793Y-76037335D01*
X171143792Y-76037335D01*
X171143796Y-76037331D01*
X171194091Y-75902483D01*
X171200500Y-75842873D01*
X171200499Y-74940001D01*
X174754532Y-74940001D01*
X174774364Y-75166686D01*
X174774366Y-75166697D01*
X174833258Y-75386488D01*
X174833261Y-75386497D01*
X174929431Y-75592732D01*
X174929432Y-75592734D01*
X175059954Y-75779141D01*
X175220858Y-75940045D01*
X175220861Y-75940047D01*
X175407266Y-76070568D01*
X175613504Y-76166739D01*
X175833308Y-76225635D01*
X175995230Y-76239801D01*
X176059998Y-76245468D01*
X176060000Y-76245468D01*
X176060002Y-76245468D01*
X176116673Y-76240509D01*
X176286692Y-76225635D01*
X176506496Y-76166739D01*
X176712734Y-76070568D01*
X176899139Y-75940047D01*
X177060047Y-75779139D01*
X177190568Y-75592734D01*
X177286739Y-75386496D01*
X177345635Y-75166692D01*
X177365468Y-74940000D01*
X177345635Y-74713308D01*
X177289195Y-74502669D01*
X177286741Y-74493511D01*
X177286738Y-74493502D01*
X177237287Y-74387455D01*
X177190568Y-74287266D01*
X177060047Y-74100861D01*
X177060045Y-74100858D01*
X176899141Y-73939954D01*
X176712734Y-73809432D01*
X176712732Y-73809431D01*
X176506497Y-73713261D01*
X176506488Y-73713258D01*
X176286697Y-73654366D01*
X176286693Y-73654365D01*
X176286692Y-73654365D01*
X176286691Y-73654364D01*
X176286686Y-73654364D01*
X176060002Y-73634532D01*
X176059998Y-73634532D01*
X175833313Y-73654364D01*
X175833302Y-73654366D01*
X175613511Y-73713258D01*
X175613502Y-73713261D01*
X175407267Y-73809431D01*
X175407265Y-73809432D01*
X175220858Y-73939954D01*
X175059954Y-74100858D01*
X174929432Y-74287265D01*
X174929431Y-74287267D01*
X174833261Y-74493502D01*
X174833258Y-74493511D01*
X174774366Y-74713302D01*
X174774364Y-74713313D01*
X174754532Y-74939998D01*
X174754532Y-74940001D01*
X171200499Y-74940001D01*
X171200499Y-74697128D01*
X171194091Y-74637517D01*
X171171008Y-74575629D01*
X171143797Y-74502671D01*
X171143793Y-74502664D01*
X171057547Y-74387455D01*
X171057544Y-74387452D01*
X170942335Y-74301206D01*
X170942328Y-74301202D01*
X170807482Y-74250908D01*
X170807483Y-74250908D01*
X170747883Y-74244501D01*
X170747881Y-74244500D01*
X170747873Y-74244500D01*
X170747864Y-74244500D01*
X169152129Y-74244500D01*
X169152123Y-74244501D01*
X169092516Y-74250908D01*
X168957671Y-74301202D01*
X168957664Y-74301206D01*
X168842455Y-74387452D01*
X168842452Y-74387455D01*
X168756206Y-74502664D01*
X168756202Y-74502671D01*
X168705908Y-74637517D01*
X168699502Y-74697107D01*
X168699500Y-74697127D01*
X168699500Y-74697128D01*
X168699500Y-74697135D01*
X168699500Y-75842870D01*
X168699501Y-75842876D01*
X168705908Y-75902483D01*
X168756202Y-76037328D01*
X168760454Y-76045114D01*
X168758378Y-76046247D01*
X168778329Y-76099730D01*
X168773306Y-76144575D01*
X168772977Y-76145658D01*
X168772977Y-76145659D01*
X168766582Y-76166741D01*
X168714337Y-76338968D01*
X168694538Y-76540000D01*
X168714337Y-76741031D01*
X168772978Y-76934345D01*
X168870367Y-77116547D01*
X168884609Y-77184950D01*
X168870367Y-77233453D01*
X168772978Y-77415654D01*
X168714337Y-77608968D01*
X168694538Y-77810000D01*
X168714337Y-78011031D01*
X168772978Y-78204345D01*
X168868198Y-78382488D01*
X168868202Y-78382495D01*
X168886261Y-78404499D01*
X168941353Y-78471629D01*
X168968666Y-78535937D01*
X168969500Y-78550293D01*
X168969500Y-86605858D01*
X168949815Y-86672897D01*
X168897011Y-86718652D01*
X168888847Y-86722034D01*
X168877669Y-86726204D01*
X168877664Y-86726206D01*
X168762455Y-86812452D01*
X168762452Y-86812455D01*
X168676206Y-86927664D01*
X168676202Y-86927671D01*
X168625908Y-87062517D01*
X168623720Y-87082873D01*
X168619501Y-87122123D01*
X168619500Y-87122135D01*
X168619500Y-88917870D01*
X157800500Y-88917870D01*
X157800500Y-76440001D01*
X161814532Y-76440001D01*
X161834364Y-76666686D01*
X161834366Y-76666697D01*
X161893258Y-76886488D01*
X161893261Y-76886497D01*
X161989431Y-77092732D01*
X161989432Y-77092734D01*
X162119954Y-77279141D01*
X162280858Y-77440045D01*
X162280861Y-77440047D01*
X162467266Y-77570568D01*
X162673504Y-77666739D01*
X162893308Y-77725635D01*
X163055230Y-77739801D01*
X163119998Y-77745468D01*
X163120000Y-77745468D01*
X163120002Y-77745468D01*
X163176673Y-77740509D01*
X163346692Y-77725635D01*
X163566496Y-77666739D01*
X163772734Y-77570568D01*
X163959139Y-77440047D01*
X164120047Y-77279139D01*
X164250568Y-77092734D01*
X164346739Y-76886496D01*
X164405635Y-76666692D01*
X164425468Y-76440000D01*
X164405635Y-76213308D01*
X164358482Y-76037328D01*
X164346741Y-75993511D01*
X164346738Y-75993502D01*
X164336012Y-75970500D01*
X164250568Y-75787266D01*
X164120047Y-75600861D01*
X164120045Y-75600858D01*
X163959141Y-75439954D01*
X163772734Y-75309432D01*
X163772732Y-75309431D01*
X163566497Y-75213261D01*
X163566488Y-75213258D01*
X163346697Y-75154366D01*
X163346693Y-75154365D01*
X163346692Y-75154365D01*
X163346691Y-75154364D01*
X163346686Y-75154364D01*
X163120002Y-75134532D01*
X163119998Y-75134532D01*
X162893313Y-75154364D01*
X162893302Y-75154366D01*
X162673511Y-75213258D01*
X162673502Y-75213261D01*
X162467267Y-75309431D01*
X162467265Y-75309432D01*
X162280858Y-75439954D01*
X162119954Y-75600858D01*
X161989432Y-75787265D01*
X161989431Y-75787267D01*
X161893261Y-75993502D01*
X161893258Y-75993511D01*
X161834366Y-76213302D01*
X161834364Y-76213313D01*
X161814532Y-76439998D01*
X161814532Y-76440001D01*
X157800500Y-76440001D01*
X157800500Y-75484085D01*
X157820185Y-75417046D01*
X157872989Y-75371291D01*
X157942147Y-75361347D01*
X157998811Y-75384819D01*
X158117664Y-75473793D01*
X158117671Y-75473797D01*
X158252517Y-75524091D01*
X158252516Y-75524091D01*
X158259444Y-75524835D01*
X158312127Y-75530500D01*
X160107872Y-75530499D01*
X160167483Y-75524091D01*
X160302331Y-75473796D01*
X160417546Y-75387546D01*
X160503796Y-75272331D01*
X160554091Y-75137483D01*
X160560500Y-75077873D01*
X160560499Y-73282128D01*
X160554091Y-73222517D01*
X160553338Y-73220499D01*
X160503797Y-73087671D01*
X160503793Y-73087664D01*
X160417547Y-72972455D01*
X160417544Y-72972452D01*
X160302335Y-72886206D01*
X160302328Y-72886202D01*
X160170917Y-72837189D01*
X160114983Y-72795318D01*
X160090566Y-72729853D01*
X160105418Y-72661580D01*
X160126563Y-72633332D01*
X160248495Y-72511401D01*
X160384035Y-72317830D01*
X160483903Y-72103663D01*
X160545063Y-71875408D01*
X160565659Y-71640000D01*
X160545063Y-71404592D01*
X160485999Y-71184158D01*
X160483905Y-71176344D01*
X160483904Y-71176343D01*
X160483903Y-71176337D01*
X160384035Y-70962171D01*
X160371133Y-70943744D01*
X160248494Y-70768597D01*
X160081402Y-70601506D01*
X160081396Y-70601501D01*
X159895842Y-70471575D01*
X159852217Y-70416998D01*
X159845023Y-70347500D01*
X159876546Y-70285145D01*
X159895842Y-70268425D01*
X159986389Y-70205023D01*
X160081401Y-70138495D01*
X160248495Y-69971401D01*
X160384035Y-69777830D01*
X160483903Y-69563663D01*
X160545063Y-69335408D01*
X160565659Y-69100000D01*
X160545063Y-68864592D01*
X160483903Y-68636337D01*
X160384035Y-68422171D01*
X160365990Y-68396399D01*
X160248494Y-68228597D01*
X160081404Y-68061508D01*
X160081401Y-68061505D01*
X160063374Y-68048882D01*
X160019751Y-67994306D01*
X160010500Y-67947309D01*
X160010500Y-62772940D01*
X160030185Y-62705901D01*
X160046819Y-62685259D01*
X161510259Y-61221819D01*
X161571582Y-61188334D01*
X161597940Y-61185500D01*
X161667309Y-61185500D01*
X161734348Y-61205185D01*
X161768883Y-61238375D01*
X161781505Y-61256401D01*
X161903431Y-61378327D01*
X161936915Y-61439648D01*
X161931931Y-61509340D01*
X161890060Y-61565274D01*
X161859083Y-61582189D01*
X161727669Y-61631203D01*
X161727664Y-61631206D01*
X161612455Y-61717452D01*
X161612452Y-61717455D01*
X161526206Y-61832664D01*
X161526202Y-61832671D01*
X161475908Y-61967517D01*
X161469501Y-62027116D01*
X161469501Y-62027123D01*
X161469500Y-62027135D01*
X161469500Y-63822870D01*
X161469501Y-63822876D01*
X161475908Y-63882483D01*
X161526202Y-64017328D01*
X161526206Y-64017335D01*
X161612452Y-64132544D01*
X161612455Y-64132547D01*
X161727664Y-64218793D01*
X161727671Y-64218797D01*
X161772618Y-64235561D01*
X161862517Y-64269091D01*
X161922127Y-64275500D01*
X162195501Y-64275499D01*
X162262539Y-64295183D01*
X162308294Y-64347987D01*
X162319500Y-64399499D01*
X162319500Y-65189951D01*
X162299815Y-65256990D01*
X162283181Y-65277632D01*
X162119954Y-65440858D01*
X161989432Y-65627265D01*
X161989431Y-65627267D01*
X161893261Y-65833502D01*
X161893258Y-65833511D01*
X161834366Y-66053302D01*
X161834364Y-66053313D01*
X161814532Y-66279998D01*
X161814532Y-66280001D01*
X161834364Y-66506686D01*
X161834366Y-66506697D01*
X161893258Y-66726488D01*
X161893261Y-66726497D01*
X161989431Y-66932732D01*
X161989432Y-66932734D01*
X162119954Y-67119141D01*
X162280858Y-67280045D01*
X162314023Y-67303267D01*
X162467266Y-67410568D01*
X162673504Y-67506739D01*
X162893308Y-67565635D01*
X163055230Y-67579801D01*
X163119998Y-67585468D01*
X163120000Y-67585468D01*
X163120002Y-67585468D01*
X163176673Y-67580509D01*
X163346692Y-67565635D01*
X163566496Y-67506739D01*
X163772734Y-67410568D01*
X163959139Y-67280047D01*
X164120047Y-67119139D01*
X164250568Y-66932734D01*
X164346739Y-66726496D01*
X164405635Y-66506692D01*
X164425468Y-66280000D01*
X164425362Y-66278794D01*
X164410264Y-66106217D01*
X164405635Y-66053308D01*
X164346739Y-65833504D01*
X164250568Y-65627266D01*
X164120047Y-65440861D01*
X164120045Y-65440858D01*
X163956819Y-65277632D01*
X163923334Y-65216309D01*
X163920500Y-65189951D01*
X163920500Y-64274749D01*
X163940185Y-64207710D01*
X163970190Y-64175482D01*
X164027546Y-64132546D01*
X164113796Y-64017331D01*
X164164091Y-63882483D01*
X164170500Y-63822873D01*
X164170499Y-62027128D01*
X164164091Y-61967517D01*
X164161814Y-61961413D01*
X164113797Y-61832671D01*
X164113793Y-61832664D01*
X164027547Y-61717455D01*
X164027544Y-61717452D01*
X163912335Y-61631206D01*
X163912328Y-61631202D01*
X163780917Y-61582189D01*
X163724983Y-61540318D01*
X163700566Y-61474853D01*
X163715418Y-61406580D01*
X163736563Y-61378332D01*
X163858495Y-61256401D01*
X163994035Y-61062830D01*
X164093903Y-60848663D01*
X164155063Y-60620408D01*
X164175659Y-60385000D01*
X164155063Y-60149592D01*
X164093903Y-59921337D01*
X163994035Y-59707171D01*
X163991052Y-59702910D01*
X163858494Y-59513597D01*
X163691402Y-59346506D01*
X163691395Y-59346501D01*
X163497834Y-59210967D01*
X163497830Y-59210965D01*
X163380399Y-59156206D01*
X163283663Y-59111097D01*
X163283659Y-59111096D01*
X163283655Y-59111094D01*
X163055413Y-59049938D01*
X163055403Y-59049936D01*
X162820001Y-59029341D01*
X162819999Y-59029341D01*
X162584596Y-59049936D01*
X162584586Y-59049938D01*
X162356344Y-59111094D01*
X162356335Y-59111098D01*
X162142171Y-59210964D01*
X162142169Y-59210965D01*
X161948597Y-59346505D01*
X161781508Y-59513594D01*
X161768884Y-59531624D01*
X161714307Y-59575248D01*
X161667309Y-59584500D01*
X161305194Y-59584500D01*
X161124806Y-59584500D01*
X161117334Y-59586205D01*
X161087478Y-59593018D01*
X161073781Y-59595345D01*
X161035743Y-59599632D01*
X160999622Y-59612271D01*
X160986269Y-59616118D01*
X160948939Y-59624639D01*
X160914452Y-59641247D01*
X160901613Y-59646565D01*
X160865483Y-59659208D01*
X160865476Y-59659212D01*
X160833064Y-59679577D01*
X160820900Y-59686300D01*
X160786410Y-59702910D01*
X160756488Y-59726772D01*
X160745152Y-59734816D01*
X160712739Y-59755183D01*
X160712735Y-59755186D01*
X158580186Y-61887735D01*
X158580183Y-61887739D01*
X158559816Y-61920152D01*
X158551772Y-61931488D01*
X158527910Y-61961410D01*
X158511300Y-61995900D01*
X158504577Y-62008064D01*
X158484212Y-62040476D01*
X158484208Y-62040483D01*
X158471565Y-62076613D01*
X158466247Y-62089452D01*
X158449639Y-62123939D01*
X158441118Y-62161269D01*
X158437271Y-62174622D01*
X158424632Y-62210743D01*
X158420345Y-62248781D01*
X158418018Y-62262478D01*
X158409500Y-62299807D01*
X158409500Y-67947309D01*
X158389815Y-68014348D01*
X158356625Y-68048883D01*
X158338601Y-68061503D01*
X158338595Y-68061508D01*
X158171505Y-68228597D01*
X158035965Y-68422169D01*
X158033257Y-68426861D01*
X158031774Y-68426004D01*
X157990708Y-68472644D01*
X157923514Y-68491795D01*
X157856633Y-68471578D01*
X157811300Y-68418412D01*
X157800500Y-68367799D01*
X157800500Y-44623246D01*
X157800585Y-44620000D01*
X159494551Y-44620000D01*
X159514317Y-44871151D01*
X159573126Y-45116110D01*
X159669533Y-45348859D01*
X159801160Y-45563653D01*
X159801161Y-45563656D01*
X159801164Y-45563659D01*
X159964776Y-45755224D01*
X160113066Y-45881875D01*
X160156343Y-45918838D01*
X160156346Y-45918839D01*
X160371140Y-46050466D01*
X160603889Y-46146873D01*
X160848852Y-46205683D01*
X161037118Y-46220500D01*
X161037126Y-46220500D01*
X161162874Y-46220500D01*
X161162882Y-46220500D01*
X161351148Y-46205683D01*
X161596111Y-46146873D01*
X161828859Y-46050466D01*
X162043659Y-45918836D01*
X162235224Y-45755224D01*
X162398836Y-45563659D01*
X162530466Y-45348859D01*
X162626873Y-45116111D01*
X162685683Y-44871148D01*
X162705449Y-44620000D01*
X162685683Y-44368852D01*
X162626873Y-44123889D01*
X162572333Y-43992217D01*
X162530466Y-43891140D01*
X162398839Y-43676346D01*
X162398838Y-43676343D01*
X162339334Y-43606673D01*
X162235224Y-43484776D01*
X162077422Y-43350000D01*
X162043656Y-43321161D01*
X162043653Y-43321160D01*
X161828859Y-43189533D01*
X161596110Y-43093126D01*
X161351151Y-43034317D01*
X161162887Y-43019500D01*
X161162882Y-43019500D01*
X161037118Y-43019500D01*
X161037112Y-43019500D01*
X160848848Y-43034317D01*
X160603889Y-43093126D01*
X160371140Y-43189533D01*
X160156346Y-43321160D01*
X160156343Y-43321161D01*
X159964776Y-43484776D01*
X159801161Y-43676343D01*
X159801160Y-43676346D01*
X159669533Y-43891140D01*
X159573126Y-44123889D01*
X159514317Y-44368848D01*
X159494551Y-44620000D01*
X157800585Y-44620000D01*
X157800670Y-44616756D01*
X157818235Y-44281594D01*
X157819592Y-44268686D01*
X157827081Y-44221401D01*
X157871586Y-43940409D01*
X157874279Y-43927733D01*
X157960310Y-43606662D01*
X157964314Y-43594340D01*
X158083434Y-43284021D01*
X158088698Y-43272199D01*
X158239611Y-42976014D01*
X158246077Y-42964816D01*
X158427113Y-42686045D01*
X158434727Y-42675564D01*
X158643915Y-42417241D01*
X158652582Y-42407615D01*
X158887615Y-42172582D01*
X158897241Y-42163915D01*
X159155564Y-41954727D01*
X159166045Y-41947113D01*
X159444816Y-41766077D01*
X159456014Y-41759611D01*
X159752199Y-41608698D01*
X159764021Y-41603434D01*
X160074340Y-41484314D01*
X160086662Y-41480310D01*
X160407733Y-41394279D01*
X160420409Y-41391586D01*
X160748688Y-41339591D01*
X160761592Y-41338235D01*
X161096756Y-41320669D01*
X161103246Y-41320500D01*
X161192710Y-41320500D01*
X165639424Y-41320500D01*
X165706463Y-41340185D01*
G37*
G04 #@! TD.AperFunction*
G04 #@! TA.AperFunction,Conductor*
G36*
X227397865Y-66583348D02*
G01*
X227442381Y-66634724D01*
X227469432Y-66692734D01*
X227573362Y-66841163D01*
X227577075Y-66846465D01*
X227599402Y-66912671D01*
X227599500Y-66917588D01*
X227599500Y-68460950D01*
X227579815Y-68527989D01*
X227527011Y-68573744D01*
X227457853Y-68583688D01*
X227394297Y-68554663D01*
X227387819Y-68548631D01*
X227371082Y-68531894D01*
X227177578Y-68396399D01*
X226963492Y-68296570D01*
X226963486Y-68296567D01*
X226750000Y-68239364D01*
X226750000Y-69134498D01*
X226642315Y-69085320D01*
X226535763Y-69070000D01*
X226464237Y-69070000D01*
X226357685Y-69085320D01*
X226250000Y-69134498D01*
X226250000Y-68239364D01*
X226249999Y-68239364D01*
X226036513Y-68296567D01*
X226036507Y-68296570D01*
X225822422Y-68396399D01*
X225822420Y-68396400D01*
X225628926Y-68531886D01*
X225628920Y-68531891D01*
X225461891Y-68698920D01*
X225461890Y-68698922D01*
X225331880Y-68884595D01*
X225277303Y-68928219D01*
X225207804Y-68935412D01*
X225145450Y-68903890D01*
X225128730Y-68884594D01*
X224998494Y-68698597D01*
X224831402Y-68531506D01*
X224831395Y-68531501D01*
X224826379Y-68527989D01*
X224747339Y-68472644D01*
X224637834Y-68395967D01*
X224637830Y-68395965D01*
X224536811Y-68348859D01*
X224423663Y-68296097D01*
X224423659Y-68296096D01*
X224423655Y-68296094D01*
X224195413Y-68234938D01*
X224195403Y-68234936D01*
X223960001Y-68214341D01*
X223959999Y-68214341D01*
X223724596Y-68234936D01*
X223724586Y-68234938D01*
X223496344Y-68296094D01*
X223496335Y-68296098D01*
X223282171Y-68395964D01*
X223282169Y-68395965D01*
X223088597Y-68531505D01*
X222921505Y-68698597D01*
X222791575Y-68884158D01*
X222736998Y-68927783D01*
X222667500Y-68934977D01*
X222605145Y-68903454D01*
X222588425Y-68884158D01*
X222458494Y-68698597D01*
X222291402Y-68531506D01*
X222291395Y-68531501D01*
X222286379Y-68527989D01*
X222207339Y-68472644D01*
X222097831Y-68395965D01*
X222097827Y-68395963D01*
X222052093Y-68374636D01*
X221999655Y-68328463D01*
X221980500Y-68262255D01*
X221980500Y-66917588D01*
X222000185Y-66850549D01*
X222002925Y-66846465D01*
X222110568Y-66692734D01*
X222137618Y-66634724D01*
X222183790Y-66582285D01*
X222250983Y-66563133D01*
X222317865Y-66583348D01*
X222362382Y-66634725D01*
X222389429Y-66692728D01*
X222389432Y-66692734D01*
X222519954Y-66879141D01*
X222680858Y-67040045D01*
X222680861Y-67040047D01*
X222867266Y-67170568D01*
X223073504Y-67266739D01*
X223073509Y-67266740D01*
X223073511Y-67266741D01*
X223123163Y-67280045D01*
X223293308Y-67325635D01*
X223453294Y-67339632D01*
X223519998Y-67345468D01*
X223520000Y-67345468D01*
X223520002Y-67345468D01*
X223576807Y-67340498D01*
X223746692Y-67325635D01*
X223966496Y-67266739D01*
X224172734Y-67170568D01*
X224359139Y-67040047D01*
X224520047Y-66879139D01*
X224650568Y-66692734D01*
X224677618Y-66634724D01*
X224723790Y-66582285D01*
X224790983Y-66563133D01*
X224857865Y-66583348D01*
X224902382Y-66634725D01*
X224929429Y-66692728D01*
X224929432Y-66692734D01*
X225059954Y-66879141D01*
X225220858Y-67040045D01*
X225220861Y-67040047D01*
X225407266Y-67170568D01*
X225613504Y-67266739D01*
X225613509Y-67266740D01*
X225613511Y-67266741D01*
X225663163Y-67280045D01*
X225833308Y-67325635D01*
X225993294Y-67339632D01*
X226059998Y-67345468D01*
X226060000Y-67345468D01*
X226060002Y-67345468D01*
X226116807Y-67340498D01*
X226286692Y-67325635D01*
X226506496Y-67266739D01*
X226712734Y-67170568D01*
X226899139Y-67040047D01*
X227060047Y-66879139D01*
X227190568Y-66692734D01*
X227217618Y-66634724D01*
X227263790Y-66582285D01*
X227330983Y-66563133D01*
X227397865Y-66583348D01*
G37*
G04 #@! TD.AperFunction*
G04 #@! TA.AperFunction,Conductor*
G36*
X183272256Y-41340185D02*
G01*
X183318011Y-41392989D01*
X183327955Y-41462147D01*
X183298930Y-41525703D01*
X183292898Y-41532181D01*
X182772645Y-42052433D01*
X182770398Y-42054625D01*
X182706946Y-42114942D01*
X182673245Y-42163361D01*
X182667574Y-42170882D01*
X182630302Y-42216592D01*
X182630298Y-42216598D01*
X182616209Y-42243568D01*
X182608082Y-42256983D01*
X182590702Y-42281955D01*
X182567438Y-42336165D01*
X182563398Y-42344672D01*
X182536090Y-42396951D01*
X182536090Y-42396952D01*
X182527720Y-42426201D01*
X182522459Y-42440979D01*
X182510459Y-42468943D01*
X182498588Y-42526711D01*
X182496342Y-42535860D01*
X182480113Y-42592577D01*
X182477802Y-42622926D01*
X182475622Y-42638466D01*
X182469500Y-42668258D01*
X182469500Y-42727240D01*
X182469142Y-42736656D01*
X182464662Y-42795474D01*
X182468506Y-42825649D01*
X182469500Y-42841317D01*
X182469500Y-62122612D01*
X182449815Y-62189651D01*
X182397011Y-62235406D01*
X182327853Y-62245350D01*
X182313406Y-62242387D01*
X182120000Y-62190564D01*
X182120000Y-63085698D01*
X182012315Y-63036520D01*
X181905763Y-63021200D01*
X181834237Y-63021200D01*
X181727685Y-63036520D01*
X181620000Y-63085698D01*
X181620000Y-62190564D01*
X181619999Y-62190564D01*
X181406513Y-62247767D01*
X181406507Y-62247770D01*
X181192422Y-62347599D01*
X181192420Y-62347600D01*
X180998926Y-62483086D01*
X180998920Y-62483091D01*
X180831891Y-62650120D01*
X180831890Y-62650122D01*
X180701880Y-62835795D01*
X180647303Y-62879419D01*
X180577804Y-62886612D01*
X180515450Y-62855090D01*
X180498730Y-62835794D01*
X180368494Y-62649797D01*
X180201404Y-62482708D01*
X180201403Y-62482707D01*
X180201401Y-62482705D01*
X180183374Y-62470082D01*
X180139751Y-62415506D01*
X180130500Y-62368509D01*
X180130500Y-54625043D01*
X180131278Y-54611174D01*
X180134655Y-54581200D01*
X180136981Y-54567518D01*
X180145500Y-54530194D01*
X180145500Y-54491914D01*
X180146280Y-54478029D01*
X180150565Y-54440001D01*
X180150565Y-54439998D01*
X180146280Y-54401969D01*
X180145500Y-54388085D01*
X180145500Y-54349807D01*
X180145500Y-54349806D01*
X180136980Y-54312478D01*
X180134654Y-54298790D01*
X180130368Y-54260745D01*
X180122977Y-54239622D01*
X180117725Y-54224612D01*
X180113878Y-54211259D01*
X180105360Y-54173939D01*
X180088750Y-54139450D01*
X180083429Y-54126602D01*
X180070789Y-54090478D01*
X180050421Y-54058063D01*
X180043693Y-54045890D01*
X180027091Y-54011414D01*
X180027090Y-54011413D01*
X180023364Y-54006741D01*
X180003222Y-53981484D01*
X179995191Y-53970166D01*
X179974816Y-53937738D01*
X179947747Y-53910669D01*
X179938481Y-53900301D01*
X179914620Y-53870380D01*
X179910703Y-53867256D01*
X179884696Y-53846516D01*
X179874329Y-53837251D01*
X179847260Y-53810182D01*
X179814844Y-53789814D01*
X179803504Y-53781768D01*
X179801343Y-53780045D01*
X179799457Y-53778541D01*
X179773584Y-53757907D01*
X179739107Y-53741305D01*
X179726934Y-53734577D01*
X179694526Y-53714213D01*
X179694524Y-53714212D01*
X179694522Y-53714211D01*
X179658376Y-53701562D01*
X179645555Y-53696251D01*
X179611061Y-53679640D01*
X179611057Y-53679639D01*
X179611052Y-53679637D01*
X179573735Y-53671119D01*
X179560380Y-53667271D01*
X179524260Y-53654633D01*
X179524256Y-53654632D01*
X179524255Y-53654632D01*
X179506139Y-53652590D01*
X179486217Y-53650345D01*
X179472518Y-53648017D01*
X179435200Y-53639501D01*
X179435196Y-53639500D01*
X179435194Y-53639500D01*
X179435191Y-53639500D01*
X179396915Y-53639500D01*
X179383031Y-53638720D01*
X179345002Y-53634435D01*
X179344998Y-53634435D01*
X179306969Y-53638720D01*
X179293085Y-53639500D01*
X179254806Y-53639500D01*
X179247334Y-53641205D01*
X179217478Y-53648018D01*
X179203781Y-53650345D01*
X179165743Y-53654632D01*
X179129622Y-53667271D01*
X179116269Y-53671118D01*
X179078939Y-53679639D01*
X179044452Y-53696247D01*
X179031613Y-53701565D01*
X178995483Y-53714208D01*
X178995476Y-53714212D01*
X178963064Y-53734577D01*
X178950900Y-53741300D01*
X178916410Y-53757910D01*
X178886488Y-53781772D01*
X178875152Y-53789816D01*
X178842739Y-53810183D01*
X178842735Y-53810186D01*
X178700186Y-53952735D01*
X178700183Y-53952739D01*
X178679816Y-53985152D01*
X178671772Y-53996488D01*
X178647910Y-54026410D01*
X178631300Y-54060900D01*
X178624577Y-54073064D01*
X178604212Y-54105476D01*
X178604208Y-54105483D01*
X178591565Y-54141613D01*
X178586247Y-54154452D01*
X178569639Y-54188939D01*
X178561118Y-54226269D01*
X178557271Y-54239622D01*
X178544632Y-54275743D01*
X178540345Y-54313781D01*
X178538018Y-54327478D01*
X178532923Y-54349806D01*
X178529501Y-54364804D01*
X178529500Y-54364807D01*
X178529500Y-62368509D01*
X178509815Y-62435548D01*
X178476625Y-62470083D01*
X178458601Y-62482703D01*
X178458595Y-62482708D01*
X178291505Y-62649797D01*
X178161575Y-62835358D01*
X178106998Y-62878983D01*
X178037500Y-62886177D01*
X177975145Y-62854654D01*
X177958425Y-62835358D01*
X177828494Y-62649797D01*
X177661404Y-62482708D01*
X177661403Y-62482707D01*
X177661401Y-62482705D01*
X177643374Y-62470082D01*
X177599751Y-62415506D01*
X177590500Y-62368509D01*
X177590500Y-56337978D01*
X177593609Y-56310384D01*
X177600500Y-56280194D01*
X177600500Y-56241914D01*
X177601280Y-56228029D01*
X177605565Y-56190001D01*
X177605565Y-56189997D01*
X177601280Y-56151969D01*
X177600500Y-56138085D01*
X177600500Y-56099807D01*
X177600500Y-56099806D01*
X177591980Y-56062478D01*
X177589654Y-56048790D01*
X177585368Y-56010745D01*
X177583222Y-56004611D01*
X177572725Y-55974612D01*
X177568876Y-55961249D01*
X177560361Y-55923941D01*
X177552016Y-55906613D01*
X177543750Y-55889450D01*
X177538431Y-55876606D01*
X177526836Y-55843471D01*
X177525789Y-55840478D01*
X177511705Y-55818064D01*
X177505424Y-55808067D01*
X177498696Y-55795894D01*
X177490453Y-55778778D01*
X177482091Y-55761413D01*
X177458222Y-55731483D01*
X177450185Y-55720156D01*
X177429816Y-55687738D01*
X177402739Y-55660661D01*
X177393481Y-55650301D01*
X177386714Y-55641816D01*
X177369620Y-55620380D01*
X177369619Y-55620379D01*
X177369616Y-55620376D01*
X177339696Y-55596516D01*
X177329328Y-55587250D01*
X177302262Y-55560184D01*
X177302259Y-55560182D01*
X177269846Y-55539815D01*
X177258506Y-55531769D01*
X177236544Y-55514255D01*
X177228587Y-55507909D01*
X177210711Y-55499300D01*
X177194094Y-55491297D01*
X177181925Y-55484571D01*
X177149526Y-55464213D01*
X177149525Y-55464212D01*
X177123745Y-55455191D01*
X177113393Y-55451568D01*
X177100554Y-55446250D01*
X177066061Y-55429639D01*
X177028735Y-55421119D01*
X177015380Y-55417271D01*
X176979260Y-55404633D01*
X176979256Y-55404632D01*
X176979255Y-55404632D01*
X176961139Y-55402590D01*
X176941217Y-55400345D01*
X176927518Y-55398017D01*
X176890200Y-55389501D01*
X176890196Y-55389500D01*
X176890194Y-55389500D01*
X176890191Y-55389500D01*
X176851915Y-55389500D01*
X176838031Y-55388720D01*
X176800002Y-55384435D01*
X176799998Y-55384435D01*
X176761969Y-55388720D01*
X176748085Y-55389500D01*
X176709806Y-55389500D01*
X176702334Y-55391205D01*
X176672478Y-55398018D01*
X176658781Y-55400345D01*
X176620743Y-55404632D01*
X176584622Y-55417271D01*
X176571269Y-55421118D01*
X176533939Y-55429639D01*
X176499452Y-55446247D01*
X176486613Y-55451565D01*
X176450483Y-55464208D01*
X176450476Y-55464212D01*
X176418064Y-55484577D01*
X176405900Y-55491300D01*
X176371410Y-55507910D01*
X176341488Y-55531772D01*
X176330152Y-55539816D01*
X176297739Y-55560183D01*
X176297735Y-55560186D01*
X176160186Y-55697735D01*
X176160183Y-55697739D01*
X176139816Y-55730152D01*
X176131772Y-55741488D01*
X176107910Y-55771410D01*
X176091300Y-55805900D01*
X176084577Y-55818064D01*
X176064212Y-55850476D01*
X176064208Y-55850483D01*
X176051565Y-55886613D01*
X176046247Y-55899452D01*
X176029639Y-55933939D01*
X176021118Y-55971269D01*
X176017271Y-55984622D01*
X176004632Y-56020743D01*
X176000345Y-56058781D01*
X175998018Y-56072478D01*
X175989500Y-56109807D01*
X175989500Y-62368509D01*
X175969815Y-62435548D01*
X175936625Y-62470083D01*
X175918601Y-62482703D01*
X175918595Y-62482708D01*
X175751505Y-62649797D01*
X175621575Y-62835358D01*
X175566998Y-62878983D01*
X175497500Y-62886177D01*
X175435145Y-62854654D01*
X175418425Y-62835358D01*
X175288494Y-62649797D01*
X175136819Y-62498122D01*
X175103334Y-62436799D01*
X175100500Y-62410441D01*
X175100500Y-55426914D01*
X175101280Y-55413029D01*
X175105565Y-55375001D01*
X175105565Y-55374996D01*
X175085369Y-55195750D01*
X175085368Y-55195745D01*
X175025788Y-55025476D01*
X174929815Y-54872737D01*
X174802262Y-54745184D01*
X174649523Y-54649211D01*
X174479254Y-54589631D01*
X174479249Y-54589630D01*
X174300004Y-54569435D01*
X174299996Y-54569435D01*
X174120750Y-54589630D01*
X174120745Y-54589631D01*
X173950476Y-54649211D01*
X173797737Y-54745184D01*
X173670184Y-54872737D01*
X173574211Y-55025476D01*
X173514631Y-55195745D01*
X173514630Y-55195750D01*
X173494435Y-55374996D01*
X173494435Y-55375001D01*
X173498720Y-55413029D01*
X173499500Y-55426914D01*
X173499500Y-62333498D01*
X173479815Y-62400537D01*
X173446625Y-62435072D01*
X173378595Y-62482707D01*
X173211505Y-62649797D01*
X173081575Y-62835358D01*
X173026998Y-62878983D01*
X172957500Y-62886177D01*
X172895145Y-62854654D01*
X172878425Y-62835358D01*
X172748494Y-62649797D01*
X172581404Y-62482708D01*
X172581403Y-62482707D01*
X172581401Y-62482705D01*
X172563374Y-62470082D01*
X172519751Y-62415506D01*
X172510500Y-62368509D01*
X172510500Y-57189807D01*
X172510500Y-57189806D01*
X172501980Y-57152479D01*
X172499654Y-57138790D01*
X172495368Y-57100745D01*
X172482725Y-57064612D01*
X172478876Y-57051249D01*
X172470360Y-57013939D01*
X172453748Y-56979442D01*
X172448433Y-56966613D01*
X172435789Y-56930478D01*
X172415426Y-56898070D01*
X172408698Y-56885897D01*
X172392093Y-56851415D01*
X172392090Y-56851411D01*
X172368229Y-56821490D01*
X172360182Y-56810150D01*
X172339816Y-56777738D01*
X172277221Y-56715143D01*
X172212262Y-56650184D01*
X172129252Y-56567174D01*
X172097262Y-56535184D01*
X172097256Y-56535180D01*
X172064849Y-56514817D01*
X172053510Y-56506771D01*
X172023589Y-56482910D01*
X171989093Y-56466296D01*
X171976927Y-56459572D01*
X171944524Y-56439212D01*
X171944525Y-56439212D01*
X171926235Y-56432812D01*
X171908393Y-56426568D01*
X171895554Y-56421250D01*
X171861061Y-56404639D01*
X171823735Y-56396119D01*
X171810380Y-56392271D01*
X171774260Y-56379633D01*
X171774256Y-56379632D01*
X171774255Y-56379632D01*
X171756139Y-56377590D01*
X171736217Y-56375345D01*
X171722518Y-56373017D01*
X171685200Y-56364501D01*
X171685196Y-56364500D01*
X171685194Y-56364500D01*
X171685191Y-56364500D01*
X171646915Y-56364500D01*
X171633031Y-56363720D01*
X171595002Y-56359435D01*
X171594998Y-56359435D01*
X171556969Y-56363720D01*
X171543085Y-56364500D01*
X171504806Y-56364500D01*
X171497334Y-56366205D01*
X171467478Y-56373018D01*
X171453781Y-56375345D01*
X171415743Y-56379632D01*
X171379622Y-56392271D01*
X171366269Y-56396118D01*
X171328939Y-56404639D01*
X171294452Y-56421247D01*
X171281613Y-56426565D01*
X171245483Y-56439208D01*
X171245476Y-56439212D01*
X171213064Y-56459577D01*
X171200900Y-56466300D01*
X171166413Y-56482909D01*
X171136492Y-56506770D01*
X171125153Y-56514815D01*
X171092742Y-56535180D01*
X171092736Y-56535185D01*
X171065664Y-56562255D01*
X171055305Y-56571513D01*
X171025380Y-56595380D01*
X171001513Y-56625305D01*
X170992255Y-56635664D01*
X170965185Y-56662736D01*
X170965180Y-56662742D01*
X170944815Y-56695153D01*
X170936770Y-56706492D01*
X170912909Y-56736413D01*
X170896300Y-56770900D01*
X170889577Y-56783064D01*
X170869212Y-56815476D01*
X170869208Y-56815483D01*
X170856565Y-56851613D01*
X170851247Y-56864452D01*
X170834639Y-56898939D01*
X170826118Y-56936269D01*
X170822271Y-56949622D01*
X170809632Y-56985743D01*
X170805345Y-57023781D01*
X170803018Y-57037478D01*
X170794500Y-57074807D01*
X170794500Y-57113085D01*
X170793720Y-57126969D01*
X170789435Y-57164998D01*
X170789435Y-57165001D01*
X170793720Y-57203029D01*
X170794500Y-57216914D01*
X170794500Y-57255191D01*
X170794501Y-57255200D01*
X170803017Y-57292518D01*
X170805345Y-57306217D01*
X170807590Y-57326139D01*
X170808541Y-57334578D01*
X170809633Y-57344260D01*
X170822271Y-57380380D01*
X170826119Y-57393735D01*
X170834639Y-57431061D01*
X170851250Y-57465554D01*
X170856570Y-57478397D01*
X170869212Y-57514524D01*
X170889576Y-57546933D01*
X170896288Y-57559075D01*
X170897206Y-57560980D01*
X170909500Y-57614810D01*
X170909500Y-62368509D01*
X170889815Y-62435548D01*
X170856625Y-62470083D01*
X170838601Y-62482703D01*
X170838595Y-62482708D01*
X170671505Y-62649797D01*
X170541575Y-62835358D01*
X170486998Y-62878983D01*
X170417500Y-62886177D01*
X170355145Y-62854654D01*
X170338425Y-62835358D01*
X170208494Y-62649797D01*
X170041404Y-62482708D01*
X170041403Y-62482707D01*
X170041401Y-62482705D01*
X170023374Y-62470082D01*
X169979751Y-62415506D01*
X169970500Y-62368509D01*
X169970500Y-58091914D01*
X169971280Y-58078029D01*
X169975565Y-58040001D01*
X169975565Y-58039998D01*
X169968219Y-57974807D01*
X169968219Y-57974804D01*
X169955369Y-57860750D01*
X169955368Y-57860745D01*
X169924993Y-57773939D01*
X169895789Y-57690478D01*
X169891130Y-57683064D01*
X169846109Y-57611413D01*
X169799816Y-57537738D01*
X169672262Y-57410184D01*
X169639847Y-57389816D01*
X169519523Y-57314211D01*
X169349254Y-57254631D01*
X169349249Y-57254630D01*
X169170004Y-57234435D01*
X169169996Y-57234435D01*
X168990750Y-57254630D01*
X168990745Y-57254631D01*
X168820476Y-57314211D01*
X168667737Y-57410184D01*
X168540184Y-57537737D01*
X168444211Y-57690476D01*
X168384631Y-57860745D01*
X168384630Y-57860750D01*
X168371781Y-57974804D01*
X168371781Y-57974807D01*
X168364435Y-58039998D01*
X168364435Y-58040001D01*
X168368720Y-58078029D01*
X168369500Y-58091914D01*
X168369500Y-62368509D01*
X168349815Y-62435548D01*
X168316625Y-62470083D01*
X168298601Y-62482703D01*
X168176673Y-62604631D01*
X168115350Y-62638115D01*
X168045658Y-62633131D01*
X167989725Y-62591259D01*
X167972810Y-62560282D01*
X167923797Y-62428871D01*
X167923793Y-62428864D01*
X167837547Y-62313655D01*
X167837544Y-62313652D01*
X167722335Y-62227406D01*
X167722328Y-62227402D01*
X167587482Y-62177108D01*
X167587483Y-62177108D01*
X167527883Y-62170701D01*
X167527881Y-62170700D01*
X167527873Y-62170700D01*
X167527865Y-62170700D01*
X167474500Y-62170700D01*
X167407461Y-62151015D01*
X167361706Y-62098211D01*
X167350500Y-62046700D01*
X167350500Y-51501914D01*
X167351280Y-51488029D01*
X167355565Y-51450001D01*
X167355565Y-51449998D01*
X167351280Y-51411969D01*
X167350500Y-51398085D01*
X167350500Y-41671914D01*
X167351280Y-41658029D01*
X167355565Y-41620001D01*
X167355565Y-41619996D01*
X167337356Y-41458383D01*
X167349411Y-41389561D01*
X167396760Y-41338182D01*
X167460576Y-41320500D01*
X183205217Y-41320500D01*
X183272256Y-41340185D01*
G37*
G04 #@! TD.AperFunction*
M02*
