M48
; DRILL file {KiCad 7.0.11+dfsg-1build4} date jeu. 03 avril 2025 15:15:32
; FORMAT={-:-/ absolute / inch / decimal}
; #@! TF.CreationDate,2025-04-03T15:15:32-04:00
; #@! TF.GenerationSoftware,Kicad,Pcbnew,7.0.11+dfsg-1build4
; #@! TF.FileFunction,Plated,1,2,PTH
FMAT,2
INCH
; #@! TA.AperFunction,Plated,PTH,ViaDrill
T1C0.0118
; #@! TA.AperFunction,Plated,PTH,ComponentDrill
T2C0.0295
; #@! TA.AperFunction,Plated,PTH,ComponentDrill
T3C0.0315
; #@! TA.AperFunction,Plated,PTH,ComponentDrill
T4C0.0394
; #@! TA.AperFunction,Plated,PTH,ComponentDrill
T5C0.0433
; #@! TA.AperFunction,Plated,PTH,ComponentDrill
T6C0.0472
; #@! TA.AperFunction,Plated,PTH,ComponentDrill
T7C0.0551
; #@! TA.AperFunction,Plated,PTH,ComponentDrill
T8C0.0630
; #@! TA.AperFunction,Plated,PTH,ComponentDrill
T9C0.1181
%
G90
G05
T1
X6.728Y-2.324
X6.816Y-2.248
X6.9Y-2.278
X6.958Y-2.364
T2
X6.5878Y-3.068
X6.5878Y-3.118
X6.5878Y-3.168
T3
X6.39Y-2.71
X6.39Y-3.11
X6.768Y-2.908
X6.768Y-3.308
X7.098Y-3.1356
X7.098Y-3.3324
X7.235Y-3.666
X7.3334Y-3.666
X7.354Y-2.056
X7.354Y-2.456
X7.524Y-2.16
X7.524Y-2.46
X7.536Y-2.8
X7.936Y-2.8
X8.146Y-2.794
X8.446Y-2.794
T4
X6.45Y-2.5
X6.55Y-2.5
X6.574Y-3.562
X6.65Y-2.5
X6.75Y-2.5
X6.85Y-2.5
X6.932Y-3.566
X6.95Y-2.5
X7.05Y-2.5
X7.12Y-2.944
X7.55Y-1.7067
X7.55Y-1.8067
X7.65Y-1.7067
X7.65Y-1.8067
X7.75Y-1.7067
X7.75Y-1.8067
X7.8Y-2.0
X7.8Y-2.6
X7.85Y-1.7067
X7.85Y-1.8067
X7.9Y-2.0
X7.9Y-2.6
X7.95Y-1.7067
X7.95Y-1.8067
X8.0Y-2.0
X8.0Y-2.6
X8.05Y-1.7067
X8.05Y-1.8067
X8.1Y-2.0
X8.1Y-2.6
X8.15Y-1.7067
X8.15Y-1.8067
X8.2Y-2.0
X8.2Y-2.6
X8.25Y-1.7067
X8.25Y-1.8067
X8.3Y-2.0
X8.3Y-2.6
X8.35Y-1.7067
X8.35Y-1.8067
X8.4Y-2.0
X8.4Y-2.6
X8.45Y-1.7067
X8.45Y-1.8067
X8.5Y-2.0
X8.5Y-2.6
X8.55Y-1.7067
X8.55Y-1.8067
X8.6Y-2.0
X8.6Y-2.6
X8.618Y-2.75
X8.65Y-1.7067
X8.65Y-1.8067
X8.7Y-2.0
X8.7Y-2.6
X8.718Y-2.75
X8.75Y-1.7067
X8.75Y-1.8067
X8.8Y-2.0
X8.8Y-2.6
X8.818Y-2.75
X8.85Y-1.7067
X8.85Y-1.8067
X8.9Y-2.0
X8.9Y-2.6
X8.918Y-2.75
X8.95Y-1.7067
X8.95Y-1.8067
X9.0Y-2.0
X9.0Y-2.6
X9.018Y-2.75
X9.05Y-1.7067
X9.05Y-1.8067
X9.1Y-2.0
X9.1Y-2.6
X9.118Y-2.75
X9.15Y-1.7067
X9.15Y-1.8067
X9.2Y-2.0
X9.2Y-2.6
X9.25Y-1.7067
X9.25Y-1.8067
X9.35Y-1.7067
X9.35Y-1.8067
X9.45Y-1.7067
X9.45Y-1.8067
X9.574Y-1.97
X9.574Y-2.07
X9.674Y-1.97
X9.674Y-2.07
T5
X7.3Y-3.2
X7.3Y-3.3
X7.3Y-3.4
T6
X9.216Y-2.926
X9.716Y-2.926
T7
X7.5264Y-2.9614
X7.5264Y-3.6504
X9.0835Y-2.9614
X9.0835Y-3.6504
T8
X9.302Y-3.096
X9.302Y-3.696
T9
X9.6Y-3.1343
X9.6Y-3.4178
M30
