G04 #@! TF.GenerationSoftware,KiCad,Pcbnew,7.0.11+dfsg-1build4*
G04 #@! TF.CreationDate,2025-04-03T15:14:43-04:00*
G04 #@! TF.ProjectId,trackteur_arduino_V1,74726163-6b74-4657-9572-5f6172647569,rev?*
G04 #@! TF.SameCoordinates,Original*
G04 #@! TF.FileFunction,Legend,Top*
G04 #@! TF.FilePolarity,Positive*
%FSLAX46Y46*%
G04 Gerber Fmt 4.6, Leading zero omitted, Abs format (unit mm)*
G04 Created by KiCad (PCBNEW 7.0.11+dfsg-1build4) date 2025-04-03 15:14:43*
%MOMM*%
%LPD*%
G01*
G04 APERTURE LIST*
G04 Aperture macros list*
%AMRoundRect*
0 Rectangle with rounded corners*
0 $1 Rounding radius*
0 $2 $3 $4 $5 $6 $7 $8 $9 X,Y pos of 4 corners*
0 Add a 4 corners polygon primitive as box body*
4,1,4,$2,$3,$4,$5,$6,$7,$8,$9,$2,$3,0*
0 Add four circle primitives for the rounded corners*
1,1,$1+$1,$2,$3*
1,1,$1+$1,$4,$5*
1,1,$1+$1,$6,$7*
1,1,$1+$1,$8,$9*
0 Add four rect primitives between the rounded corners*
20,1,$1+$1,$2,$3,$4,$5,0*
20,1,$1+$1,$4,$5,$6,$7,0*
20,1,$1+$1,$6,$7,$8,$9,0*
20,1,$1+$1,$8,$9,$2,$3,0*%
G04 Aperture macros list end*
%ADD10C,0.300000*%
%ADD11C,0.100000*%
%ADD12C,0.150000*%
%ADD13C,0.120000*%
%ADD14R,1.700000X1.700000*%
%ADD15R,1.600000X1.600000*%
%ADD16O,1.600000X1.600000*%
%ADD17R,2.000000X1.905000*%
%ADD18O,2.000000X1.905000*%
%ADD19R,3.200000X3.200000*%
%ADD20O,3.200000X3.200000*%
%ADD21C,2.700000*%
%ADD22C,1.600000*%
%ADD23R,2.400000X2.400000*%
%ADD24O,2.400000X2.400000*%
%ADD25RoundRect,0.250000X1.750000X-1.750000X1.750000X1.750000X-1.750000X1.750000X-1.750000X-1.750000X0*%
%ADD26C,4.000000*%
%ADD27O,1.700000X1.700000*%
%ADD28R,1.500000X1.050000*%
%ADD29O,1.500000X1.050000*%
%ADD30R,3.000000X3.000000*%
G04 APERTURE END LIST*
D10*
X164861653Y-55620828D02*
X165218796Y-56620828D01*
X165218796Y-56620828D02*
X165575939Y-55620828D01*
X166075939Y-55263685D02*
X166147367Y-55192257D01*
X166147367Y-55192257D02*
X166290225Y-55120828D01*
X166290225Y-55120828D02*
X166647367Y-55120828D01*
X166647367Y-55120828D02*
X166790225Y-55192257D01*
X166790225Y-55192257D02*
X166861653Y-55263685D01*
X166861653Y-55263685D02*
X166933082Y-55406542D01*
X166933082Y-55406542D02*
X166933082Y-55549400D01*
X166933082Y-55549400D02*
X166861653Y-55763685D01*
X166861653Y-55763685D02*
X166004510Y-56620828D01*
X166004510Y-56620828D02*
X166933082Y-56620828D01*
X167861653Y-55120828D02*
X168004510Y-55120828D01*
X168004510Y-55120828D02*
X168147367Y-55192257D01*
X168147367Y-55192257D02*
X168218796Y-55263685D01*
X168218796Y-55263685D02*
X168290224Y-55406542D01*
X168290224Y-55406542D02*
X168361653Y-55692257D01*
X168361653Y-55692257D02*
X168361653Y-56049400D01*
X168361653Y-56049400D02*
X168290224Y-56335114D01*
X168290224Y-56335114D02*
X168218796Y-56477971D01*
X168218796Y-56477971D02*
X168147367Y-56549400D01*
X168147367Y-56549400D02*
X168004510Y-56620828D01*
X168004510Y-56620828D02*
X167861653Y-56620828D01*
X167861653Y-56620828D02*
X167718796Y-56549400D01*
X167718796Y-56549400D02*
X167647367Y-56477971D01*
X167647367Y-56477971D02*
X167575938Y-56335114D01*
X167575938Y-56335114D02*
X167504510Y-56049400D01*
X167504510Y-56049400D02*
X167504510Y-55692257D01*
X167504510Y-55692257D02*
X167575938Y-55406542D01*
X167575938Y-55406542D02*
X167647367Y-55263685D01*
X167647367Y-55263685D02*
X167718796Y-55192257D01*
X167718796Y-55192257D02*
X167861653Y-55120828D01*
X168933081Y-55263685D02*
X169004509Y-55192257D01*
X169004509Y-55192257D02*
X169147367Y-55120828D01*
X169147367Y-55120828D02*
X169504509Y-55120828D01*
X169504509Y-55120828D02*
X169647367Y-55192257D01*
X169647367Y-55192257D02*
X169718795Y-55263685D01*
X169718795Y-55263685D02*
X169790224Y-55406542D01*
X169790224Y-55406542D02*
X169790224Y-55549400D01*
X169790224Y-55549400D02*
X169718795Y-55763685D01*
X169718795Y-55763685D02*
X168861652Y-56620828D01*
X168861652Y-56620828D02*
X169790224Y-56620828D01*
X171147366Y-55120828D02*
X170433080Y-55120828D01*
X170433080Y-55120828D02*
X170361652Y-55835114D01*
X170361652Y-55835114D02*
X170433080Y-55763685D01*
X170433080Y-55763685D02*
X170575938Y-55692257D01*
X170575938Y-55692257D02*
X170933080Y-55692257D01*
X170933080Y-55692257D02*
X171075938Y-55763685D01*
X171075938Y-55763685D02*
X171147366Y-55835114D01*
X171147366Y-55835114D02*
X171218795Y-55977971D01*
X171218795Y-55977971D02*
X171218795Y-56335114D01*
X171218795Y-56335114D02*
X171147366Y-56477971D01*
X171147366Y-56477971D02*
X171075938Y-56549400D01*
X171075938Y-56549400D02*
X170933080Y-56620828D01*
X170933080Y-56620828D02*
X170575938Y-56620828D01*
X170575938Y-56620828D02*
X170433080Y-56549400D01*
X170433080Y-56549400D02*
X170361652Y-56477971D01*
X171861651Y-56477971D02*
X171933080Y-56549400D01*
X171933080Y-56549400D02*
X171861651Y-56620828D01*
X171861651Y-56620828D02*
X171790223Y-56549400D01*
X171790223Y-56549400D02*
X171861651Y-56477971D01*
X171861651Y-56477971D02*
X171861651Y-56620828D01*
X172861652Y-55120828D02*
X173004509Y-55120828D01*
X173004509Y-55120828D02*
X173147366Y-55192257D01*
X173147366Y-55192257D02*
X173218795Y-55263685D01*
X173218795Y-55263685D02*
X173290223Y-55406542D01*
X173290223Y-55406542D02*
X173361652Y-55692257D01*
X173361652Y-55692257D02*
X173361652Y-56049400D01*
X173361652Y-56049400D02*
X173290223Y-56335114D01*
X173290223Y-56335114D02*
X173218795Y-56477971D01*
X173218795Y-56477971D02*
X173147366Y-56549400D01*
X173147366Y-56549400D02*
X173004509Y-56620828D01*
X173004509Y-56620828D02*
X172861652Y-56620828D01*
X172861652Y-56620828D02*
X172718795Y-56549400D01*
X172718795Y-56549400D02*
X172647366Y-56477971D01*
X172647366Y-56477971D02*
X172575937Y-56335114D01*
X172575937Y-56335114D02*
X172504509Y-56049400D01*
X172504509Y-56049400D02*
X172504509Y-55692257D01*
X172504509Y-55692257D02*
X172575937Y-55406542D01*
X172575937Y-55406542D02*
X172647366Y-55263685D01*
X172647366Y-55263685D02*
X172718795Y-55192257D01*
X172718795Y-55192257D02*
X172861652Y-55120828D01*
X174647366Y-55620828D02*
X174647366Y-56620828D01*
X174290223Y-55049400D02*
X173933080Y-56120828D01*
X173933080Y-56120828D02*
X174861651Y-56120828D01*
X175433079Y-56477971D02*
X175504508Y-56549400D01*
X175504508Y-56549400D02*
X175433079Y-56620828D01*
X175433079Y-56620828D02*
X175361651Y-56549400D01*
X175361651Y-56549400D02*
X175433079Y-56477971D01*
X175433079Y-56477971D02*
X175433079Y-56620828D01*
X176433080Y-55120828D02*
X176575937Y-55120828D01*
X176575937Y-55120828D02*
X176718794Y-55192257D01*
X176718794Y-55192257D02*
X176790223Y-55263685D01*
X176790223Y-55263685D02*
X176861651Y-55406542D01*
X176861651Y-55406542D02*
X176933080Y-55692257D01*
X176933080Y-55692257D02*
X176933080Y-56049400D01*
X176933080Y-56049400D02*
X176861651Y-56335114D01*
X176861651Y-56335114D02*
X176790223Y-56477971D01*
X176790223Y-56477971D02*
X176718794Y-56549400D01*
X176718794Y-56549400D02*
X176575937Y-56620828D01*
X176575937Y-56620828D02*
X176433080Y-56620828D01*
X176433080Y-56620828D02*
X176290223Y-56549400D01*
X176290223Y-56549400D02*
X176218794Y-56477971D01*
X176218794Y-56477971D02*
X176147365Y-56335114D01*
X176147365Y-56335114D02*
X176075937Y-56049400D01*
X176075937Y-56049400D02*
X176075937Y-55692257D01*
X176075937Y-55692257D02*
X176147365Y-55406542D01*
X176147365Y-55406542D02*
X176218794Y-55263685D01*
X176218794Y-55263685D02*
X176290223Y-55192257D01*
X176290223Y-55192257D02*
X176433080Y-55120828D01*
X178361651Y-56620828D02*
X177504508Y-56620828D01*
X177933079Y-56620828D02*
X177933079Y-55120828D01*
X177933079Y-55120828D02*
X177790222Y-55335114D01*
X177790222Y-55335114D02*
X177647365Y-55477971D01*
X177647365Y-55477971D02*
X177504508Y-55549400D01*
D11*
X246522419Y-88738972D02*
X247522419Y-88405639D01*
X247522419Y-88405639D02*
X246522419Y-88072306D01*
X246998609Y-87405639D02*
X247046228Y-87262782D01*
X247046228Y-87262782D02*
X247093847Y-87215163D01*
X247093847Y-87215163D02*
X247189085Y-87167544D01*
X247189085Y-87167544D02*
X247331942Y-87167544D01*
X247331942Y-87167544D02*
X247427180Y-87215163D01*
X247427180Y-87215163D02*
X247474800Y-87262782D01*
X247474800Y-87262782D02*
X247522419Y-87358020D01*
X247522419Y-87358020D02*
X247522419Y-87738972D01*
X247522419Y-87738972D02*
X246522419Y-87738972D01*
X246522419Y-87738972D02*
X246522419Y-87405639D01*
X246522419Y-87405639D02*
X246570038Y-87310401D01*
X246570038Y-87310401D02*
X246617657Y-87262782D01*
X246617657Y-87262782D02*
X246712895Y-87215163D01*
X246712895Y-87215163D02*
X246808133Y-87215163D01*
X246808133Y-87215163D02*
X246903371Y-87262782D01*
X246903371Y-87262782D02*
X246950990Y-87310401D01*
X246950990Y-87310401D02*
X246998609Y-87405639D01*
X246998609Y-87405639D02*
X246998609Y-87738972D01*
X247236704Y-86786591D02*
X247236704Y-86310401D01*
X247522419Y-86881829D02*
X246522419Y-86548496D01*
X246522419Y-86548496D02*
X247522419Y-86215163D01*
X246522419Y-86024686D02*
X246522419Y-85453258D01*
X247522419Y-85738972D02*
X246522419Y-85738972D01*
X247141466Y-85119924D02*
X247141466Y-84358020D01*
X246471619Y-81982572D02*
X247471619Y-81649239D01*
X247471619Y-81649239D02*
X246471619Y-81315906D01*
X246947809Y-80649239D02*
X246995428Y-80506382D01*
X246995428Y-80506382D02*
X247043047Y-80458763D01*
X247043047Y-80458763D02*
X247138285Y-80411144D01*
X247138285Y-80411144D02*
X247281142Y-80411144D01*
X247281142Y-80411144D02*
X247376380Y-80458763D01*
X247376380Y-80458763D02*
X247424000Y-80506382D01*
X247424000Y-80506382D02*
X247471619Y-80601620D01*
X247471619Y-80601620D02*
X247471619Y-80982572D01*
X247471619Y-80982572D02*
X246471619Y-80982572D01*
X246471619Y-80982572D02*
X246471619Y-80649239D01*
X246471619Y-80649239D02*
X246519238Y-80554001D01*
X246519238Y-80554001D02*
X246566857Y-80506382D01*
X246566857Y-80506382D02*
X246662095Y-80458763D01*
X246662095Y-80458763D02*
X246757333Y-80458763D01*
X246757333Y-80458763D02*
X246852571Y-80506382D01*
X246852571Y-80506382D02*
X246900190Y-80554001D01*
X246900190Y-80554001D02*
X246947809Y-80649239D01*
X246947809Y-80649239D02*
X246947809Y-80982572D01*
X247185904Y-80030191D02*
X247185904Y-79554001D01*
X247471619Y-80125429D02*
X246471619Y-79792096D01*
X246471619Y-79792096D02*
X247471619Y-79458763D01*
X246471619Y-79268286D02*
X246471619Y-78696858D01*
X247471619Y-78982572D02*
X246471619Y-78982572D01*
X247090666Y-78363524D02*
X247090666Y-77601620D01*
X247471619Y-77982572D02*
X246709714Y-77982572D01*
D10*
X170978500Y-47667167D02*
X170835643Y-47595738D01*
X170835643Y-47595738D02*
X170621357Y-47595738D01*
X170621357Y-47595738D02*
X170407071Y-47667167D01*
X170407071Y-47667167D02*
X170264214Y-47810024D01*
X170264214Y-47810024D02*
X170192785Y-47952881D01*
X170192785Y-47952881D02*
X170121357Y-48238595D01*
X170121357Y-48238595D02*
X170121357Y-48452881D01*
X170121357Y-48452881D02*
X170192785Y-48738595D01*
X170192785Y-48738595D02*
X170264214Y-48881452D01*
X170264214Y-48881452D02*
X170407071Y-49024310D01*
X170407071Y-49024310D02*
X170621357Y-49095738D01*
X170621357Y-49095738D02*
X170764214Y-49095738D01*
X170764214Y-49095738D02*
X170978500Y-49024310D01*
X170978500Y-49024310D02*
X171049928Y-48952881D01*
X171049928Y-48952881D02*
X171049928Y-48452881D01*
X171049928Y-48452881D02*
X170764214Y-48452881D01*
X171907071Y-47595738D02*
X171907071Y-47952881D01*
X171549928Y-47810024D02*
X171907071Y-47952881D01*
X171907071Y-47952881D02*
X172264214Y-47810024D01*
X171692785Y-48238595D02*
X171907071Y-47952881D01*
X171907071Y-47952881D02*
X172121357Y-48238595D01*
X173049928Y-47595738D02*
X173049928Y-47952881D01*
X172692785Y-47810024D02*
X173049928Y-47952881D01*
X173049928Y-47952881D02*
X173407071Y-47810024D01*
X172835642Y-48238595D02*
X173049928Y-47952881D01*
X173049928Y-47952881D02*
X173264214Y-48238595D01*
X174192785Y-47595738D02*
X174192785Y-47952881D01*
X173835642Y-47810024D02*
X174192785Y-47952881D01*
X174192785Y-47952881D02*
X174549928Y-47810024D01*
X173978499Y-48238595D02*
X174192785Y-47952881D01*
X174192785Y-47952881D02*
X174407071Y-48238595D01*
D12*
X174810895Y-87701219D02*
X175382323Y-87701219D01*
X175096609Y-88701219D02*
X175096609Y-87701219D01*
X175715657Y-88701219D02*
X175715657Y-87701219D01*
X175715657Y-87701219D02*
X176096609Y-87701219D01*
X176096609Y-87701219D02*
X176191847Y-87748838D01*
X176191847Y-87748838D02*
X176239466Y-87796457D01*
X176239466Y-87796457D02*
X176287085Y-87891695D01*
X176287085Y-87891695D02*
X176287085Y-88034552D01*
X176287085Y-88034552D02*
X176239466Y-88129790D01*
X176239466Y-88129790D02*
X176191847Y-88177409D01*
X176191847Y-88177409D02*
X176096609Y-88225028D01*
X176096609Y-88225028D02*
X175715657Y-88225028D01*
X176668038Y-87796457D02*
X176715657Y-87748838D01*
X176715657Y-87748838D02*
X176810895Y-87701219D01*
X176810895Y-87701219D02*
X177048990Y-87701219D01*
X177048990Y-87701219D02*
X177144228Y-87748838D01*
X177144228Y-87748838D02*
X177191847Y-87796457D01*
X177191847Y-87796457D02*
X177239466Y-87891695D01*
X177239466Y-87891695D02*
X177239466Y-87986933D01*
X177239466Y-87986933D02*
X177191847Y-88129790D01*
X177191847Y-88129790D02*
X176620419Y-88701219D01*
X176620419Y-88701219D02*
X177239466Y-88701219D01*
X175310895Y-92408838D02*
X175215657Y-92361219D01*
X175215657Y-92361219D02*
X175072800Y-92361219D01*
X175072800Y-92361219D02*
X174929943Y-92408838D01*
X174929943Y-92408838D02*
X174834705Y-92504076D01*
X174834705Y-92504076D02*
X174787086Y-92599314D01*
X174787086Y-92599314D02*
X174739467Y-92789790D01*
X174739467Y-92789790D02*
X174739467Y-92932647D01*
X174739467Y-92932647D02*
X174787086Y-93123123D01*
X174787086Y-93123123D02*
X174834705Y-93218361D01*
X174834705Y-93218361D02*
X174929943Y-93313600D01*
X174929943Y-93313600D02*
X175072800Y-93361219D01*
X175072800Y-93361219D02*
X175168038Y-93361219D01*
X175168038Y-93361219D02*
X175310895Y-93313600D01*
X175310895Y-93313600D02*
X175358514Y-93265980D01*
X175358514Y-93265980D02*
X175358514Y-92932647D01*
X175358514Y-92932647D02*
X175168038Y-92932647D01*
X175787086Y-93361219D02*
X175787086Y-92361219D01*
X175787086Y-92361219D02*
X176358514Y-93361219D01*
X176358514Y-93361219D02*
X176358514Y-92361219D01*
X176834705Y-93361219D02*
X176834705Y-92361219D01*
X176834705Y-92361219D02*
X177072800Y-92361219D01*
X177072800Y-92361219D02*
X177215657Y-92408838D01*
X177215657Y-92408838D02*
X177310895Y-92504076D01*
X177310895Y-92504076D02*
X177358514Y-92599314D01*
X177358514Y-92599314D02*
X177406133Y-92789790D01*
X177406133Y-92789790D02*
X177406133Y-92932647D01*
X177406133Y-92932647D02*
X177358514Y-93123123D01*
X177358514Y-93123123D02*
X177310895Y-93218361D01*
X177310895Y-93218361D02*
X177215657Y-93313600D01*
X177215657Y-93313600D02*
X177072800Y-93361219D01*
X177072800Y-93361219D02*
X176834705Y-93361219D01*
X189532419Y-59208894D02*
X188532419Y-59208894D01*
X188532419Y-59208894D02*
X188532419Y-58970799D01*
X188532419Y-58970799D02*
X188580038Y-58827942D01*
X188580038Y-58827942D02*
X188675276Y-58732704D01*
X188675276Y-58732704D02*
X188770514Y-58685085D01*
X188770514Y-58685085D02*
X188960990Y-58637466D01*
X188960990Y-58637466D02*
X189103847Y-58637466D01*
X189103847Y-58637466D02*
X189294323Y-58685085D01*
X189294323Y-58685085D02*
X189389561Y-58732704D01*
X189389561Y-58732704D02*
X189484800Y-58827942D01*
X189484800Y-58827942D02*
X189532419Y-58970799D01*
X189532419Y-58970799D02*
X189532419Y-59208894D01*
X188865752Y-57780323D02*
X189532419Y-57780323D01*
X188484800Y-58018418D02*
X189199085Y-58256513D01*
X189199085Y-58256513D02*
X189199085Y-57637466D01*
X189764419Y-62745904D02*
X188764419Y-62745904D01*
X189764419Y-62174476D02*
X189192990Y-62603047D01*
X188764419Y-62174476D02*
X189335847Y-62745904D01*
X179586095Y-71902419D02*
X180157523Y-71902419D01*
X179871809Y-72902419D02*
X179871809Y-71902419D01*
X180490857Y-72902419D02*
X180490857Y-71902419D01*
X180490857Y-71902419D02*
X180871809Y-71902419D01*
X180871809Y-71902419D02*
X180967047Y-71950038D01*
X180967047Y-71950038D02*
X181014666Y-71997657D01*
X181014666Y-71997657D02*
X181062285Y-72092895D01*
X181062285Y-72092895D02*
X181062285Y-72235752D01*
X181062285Y-72235752D02*
X181014666Y-72330990D01*
X181014666Y-72330990D02*
X180967047Y-72378609D01*
X180967047Y-72378609D02*
X180871809Y-72426228D01*
X180871809Y-72426228D02*
X180490857Y-72426228D01*
X181395619Y-71902419D02*
X182014666Y-71902419D01*
X182014666Y-71902419D02*
X181681333Y-72283371D01*
X181681333Y-72283371D02*
X181824190Y-72283371D01*
X181824190Y-72283371D02*
X181919428Y-72330990D01*
X181919428Y-72330990D02*
X181967047Y-72378609D01*
X181967047Y-72378609D02*
X182014666Y-72473847D01*
X182014666Y-72473847D02*
X182014666Y-72711942D01*
X182014666Y-72711942D02*
X181967047Y-72807180D01*
X181967047Y-72807180D02*
X181919428Y-72854800D01*
X181919428Y-72854800D02*
X181824190Y-72902419D01*
X181824190Y-72902419D02*
X181538476Y-72902419D01*
X181538476Y-72902419D02*
X181443238Y-72854800D01*
X181443238Y-72854800D02*
X181395619Y-72807180D01*
X178848000Y-77181466D02*
X179609905Y-77181466D01*
X179228952Y-77562419D02*
X179228952Y-76800514D01*
X179990857Y-76562419D02*
X180609904Y-76562419D01*
X180609904Y-76562419D02*
X180276571Y-76943371D01*
X180276571Y-76943371D02*
X180419428Y-76943371D01*
X180419428Y-76943371D02*
X180514666Y-76990990D01*
X180514666Y-76990990D02*
X180562285Y-77038609D01*
X180562285Y-77038609D02*
X180609904Y-77133847D01*
X180609904Y-77133847D02*
X180609904Y-77371942D01*
X180609904Y-77371942D02*
X180562285Y-77467180D01*
X180562285Y-77467180D02*
X180514666Y-77514800D01*
X180514666Y-77514800D02*
X180419428Y-77562419D01*
X180419428Y-77562419D02*
X180133714Y-77562419D01*
X180133714Y-77562419D02*
X180038476Y-77514800D01*
X180038476Y-77514800D02*
X179990857Y-77467180D01*
X181038476Y-77467180D02*
X181086095Y-77514800D01*
X181086095Y-77514800D02*
X181038476Y-77562419D01*
X181038476Y-77562419D02*
X180990857Y-77514800D01*
X180990857Y-77514800D02*
X181038476Y-77467180D01*
X181038476Y-77467180D02*
X181038476Y-77562419D01*
X181419428Y-76562419D02*
X182038475Y-76562419D01*
X182038475Y-76562419D02*
X181705142Y-76943371D01*
X181705142Y-76943371D02*
X181847999Y-76943371D01*
X181847999Y-76943371D02*
X181943237Y-76990990D01*
X181943237Y-76990990D02*
X181990856Y-77038609D01*
X181990856Y-77038609D02*
X182038475Y-77133847D01*
X182038475Y-77133847D02*
X182038475Y-77371942D01*
X182038475Y-77371942D02*
X181990856Y-77467180D01*
X181990856Y-77467180D02*
X181943237Y-77514800D01*
X181943237Y-77514800D02*
X181847999Y-77562419D01*
X181847999Y-77562419D02*
X181562285Y-77562419D01*
X181562285Y-77562419D02*
X181467047Y-77514800D01*
X181467047Y-77514800D02*
X181419428Y-77467180D01*
X182324190Y-76562419D02*
X182657523Y-77562419D01*
X182657523Y-77562419D02*
X182990856Y-76562419D01*
X189144819Y-84581904D02*
X189954342Y-84581904D01*
X189954342Y-84581904D02*
X190049580Y-84534285D01*
X190049580Y-84534285D02*
X190097200Y-84486666D01*
X190097200Y-84486666D02*
X190144819Y-84391428D01*
X190144819Y-84391428D02*
X190144819Y-84200952D01*
X190144819Y-84200952D02*
X190097200Y-84105714D01*
X190097200Y-84105714D02*
X190049580Y-84058095D01*
X190049580Y-84058095D02*
X189954342Y-84010476D01*
X189954342Y-84010476D02*
X189144819Y-84010476D01*
X190144819Y-83010476D02*
X190144819Y-83581904D01*
X190144819Y-83296190D02*
X189144819Y-83296190D01*
X189144819Y-83296190D02*
X189287676Y-83391428D01*
X189287676Y-83391428D02*
X189382914Y-83486666D01*
X189382914Y-83486666D02*
X189430533Y-83581904D01*
X240738819Y-86996494D02*
X239738819Y-86996494D01*
X239738819Y-86996494D02*
X239738819Y-86758399D01*
X239738819Y-86758399D02*
X239786438Y-86615542D01*
X239786438Y-86615542D02*
X239881676Y-86520304D01*
X239881676Y-86520304D02*
X239976914Y-86472685D01*
X239976914Y-86472685D02*
X240167390Y-86425066D01*
X240167390Y-86425066D02*
X240310247Y-86425066D01*
X240310247Y-86425066D02*
X240500723Y-86472685D01*
X240500723Y-86472685D02*
X240595961Y-86520304D01*
X240595961Y-86520304D02*
X240691200Y-86615542D01*
X240691200Y-86615542D02*
X240738819Y-86758399D01*
X240738819Y-86758399D02*
X240738819Y-86996494D01*
X240738819Y-85472685D02*
X240738819Y-86044113D01*
X240738819Y-85758399D02*
X239738819Y-85758399D01*
X239738819Y-85758399D02*
X239881676Y-85853637D01*
X239881676Y-85853637D02*
X239976914Y-85948875D01*
X239976914Y-85948875D02*
X240024533Y-86044113D01*
X234125619Y-95220304D02*
X233125619Y-95220304D01*
X234125619Y-94648876D02*
X233554190Y-95077447D01*
X233125619Y-94648876D02*
X233697047Y-95220304D01*
X161229695Y-41907619D02*
X161229695Y-40907619D01*
X161229695Y-41383809D02*
X161801123Y-41383809D01*
X161801123Y-41907619D02*
X161801123Y-40907619D01*
X162801123Y-41907619D02*
X162229695Y-41907619D01*
X162515409Y-41907619D02*
X162515409Y-40907619D01*
X162515409Y-40907619D02*
X162420171Y-41050476D01*
X162420171Y-41050476D02*
X162324933Y-41145714D01*
X162324933Y-41145714D02*
X162229695Y-41193333D01*
X165300819Y-74080666D02*
X164824628Y-74413999D01*
X165300819Y-74652094D02*
X164300819Y-74652094D01*
X164300819Y-74652094D02*
X164300819Y-74271142D01*
X164300819Y-74271142D02*
X164348438Y-74175904D01*
X164348438Y-74175904D02*
X164396057Y-74128285D01*
X164396057Y-74128285D02*
X164491295Y-74080666D01*
X164491295Y-74080666D02*
X164634152Y-74080666D01*
X164634152Y-74080666D02*
X164729390Y-74128285D01*
X164729390Y-74128285D02*
X164777009Y-74175904D01*
X164777009Y-74175904D02*
X164824628Y-74271142D01*
X164824628Y-74271142D02*
X164824628Y-74652094D01*
X164396057Y-73699713D02*
X164348438Y-73652094D01*
X164348438Y-73652094D02*
X164300819Y-73556856D01*
X164300819Y-73556856D02*
X164300819Y-73318761D01*
X164300819Y-73318761D02*
X164348438Y-73223523D01*
X164348438Y-73223523D02*
X164396057Y-73175904D01*
X164396057Y-73175904D02*
X164491295Y-73128285D01*
X164491295Y-73128285D02*
X164586533Y-73128285D01*
X164586533Y-73128285D02*
X164729390Y-73175904D01*
X164729390Y-73175904D02*
X165300819Y-73747332D01*
X165300819Y-73747332D02*
X165300819Y-73128285D01*
X210031105Y-69085619D02*
X210031105Y-68085619D01*
X210031105Y-68085619D02*
X210269200Y-68085619D01*
X210269200Y-68085619D02*
X210412057Y-68133238D01*
X210412057Y-68133238D02*
X210507295Y-68228476D01*
X210507295Y-68228476D02*
X210554914Y-68323714D01*
X210554914Y-68323714D02*
X210602533Y-68514190D01*
X210602533Y-68514190D02*
X210602533Y-68657047D01*
X210602533Y-68657047D02*
X210554914Y-68847523D01*
X210554914Y-68847523D02*
X210507295Y-68942761D01*
X210507295Y-68942761D02*
X210412057Y-69038000D01*
X210412057Y-69038000D02*
X210269200Y-69085619D01*
X210269200Y-69085619D02*
X210031105Y-69085619D01*
X210935867Y-68085619D02*
X211554914Y-68085619D01*
X211554914Y-68085619D02*
X211221581Y-68466571D01*
X211221581Y-68466571D02*
X211364438Y-68466571D01*
X211364438Y-68466571D02*
X211459676Y-68514190D01*
X211459676Y-68514190D02*
X211507295Y-68561809D01*
X211507295Y-68561809D02*
X211554914Y-68657047D01*
X211554914Y-68657047D02*
X211554914Y-68895142D01*
X211554914Y-68895142D02*
X211507295Y-68990380D01*
X211507295Y-68990380D02*
X211459676Y-69038000D01*
X211459676Y-69038000D02*
X211364438Y-69085619D01*
X211364438Y-69085619D02*
X211078724Y-69085619D01*
X211078724Y-69085619D02*
X210983486Y-69038000D01*
X210983486Y-69038000D02*
X210935867Y-68990380D01*
X214266495Y-73222419D02*
X214266495Y-72222419D01*
X214837923Y-73222419D02*
X214409352Y-72650990D01*
X214837923Y-72222419D02*
X214266495Y-72793847D01*
X239698305Y-71855219D02*
X239698305Y-70855219D01*
X239698305Y-70855219D02*
X239936400Y-70855219D01*
X239936400Y-70855219D02*
X240079257Y-70902838D01*
X240079257Y-70902838D02*
X240174495Y-70998076D01*
X240174495Y-70998076D02*
X240222114Y-71093314D01*
X240222114Y-71093314D02*
X240269733Y-71283790D01*
X240269733Y-71283790D02*
X240269733Y-71426647D01*
X240269733Y-71426647D02*
X240222114Y-71617123D01*
X240222114Y-71617123D02*
X240174495Y-71712361D01*
X240174495Y-71712361D02*
X240079257Y-71807600D01*
X240079257Y-71807600D02*
X239936400Y-71855219D01*
X239936400Y-71855219D02*
X239698305Y-71855219D01*
X240650686Y-70950457D02*
X240698305Y-70902838D01*
X240698305Y-70902838D02*
X240793543Y-70855219D01*
X240793543Y-70855219D02*
X241031638Y-70855219D01*
X241031638Y-70855219D02*
X241126876Y-70902838D01*
X241126876Y-70902838D02*
X241174495Y-70950457D01*
X241174495Y-70950457D02*
X241222114Y-71045695D01*
X241222114Y-71045695D02*
X241222114Y-71140933D01*
X241222114Y-71140933D02*
X241174495Y-71283790D01*
X241174495Y-71283790D02*
X240603067Y-71855219D01*
X240603067Y-71855219D02*
X241222114Y-71855219D01*
X233824495Y-72575219D02*
X233824495Y-71575219D01*
X234395923Y-72575219D02*
X233967352Y-72003790D01*
X234395923Y-71575219D02*
X233824495Y-72146647D01*
X240094819Y-83545333D02*
X240809104Y-83545333D01*
X240809104Y-83545333D02*
X240951961Y-83592952D01*
X240951961Y-83592952D02*
X241047200Y-83688190D01*
X241047200Y-83688190D02*
X241094819Y-83831047D01*
X241094819Y-83831047D02*
X241094819Y-83926285D01*
X240094819Y-83164380D02*
X240094819Y-82545333D01*
X240094819Y-82545333D02*
X240475771Y-82878666D01*
X240475771Y-82878666D02*
X240475771Y-82735809D01*
X240475771Y-82735809D02*
X240523390Y-82640571D01*
X240523390Y-82640571D02*
X240571009Y-82592952D01*
X240571009Y-82592952D02*
X240666247Y-82545333D01*
X240666247Y-82545333D02*
X240904342Y-82545333D01*
X240904342Y-82545333D02*
X240999580Y-82592952D01*
X240999580Y-82592952D02*
X241047200Y-82640571D01*
X241047200Y-82640571D02*
X241094819Y-82735809D01*
X241094819Y-82735809D02*
X241094819Y-83021523D01*
X241094819Y-83021523D02*
X241047200Y-83116761D01*
X241047200Y-83116761D02*
X240999580Y-83164380D01*
X216022019Y-70183333D02*
X216736304Y-70183333D01*
X216736304Y-70183333D02*
X216879161Y-70230952D01*
X216879161Y-70230952D02*
X216974400Y-70326190D01*
X216974400Y-70326190D02*
X217022019Y-70469047D01*
X217022019Y-70469047D02*
X217022019Y-70564285D01*
X216022019Y-69278571D02*
X216022019Y-69469047D01*
X216022019Y-69469047D02*
X216069638Y-69564285D01*
X216069638Y-69564285D02*
X216117257Y-69611904D01*
X216117257Y-69611904D02*
X216260114Y-69707142D01*
X216260114Y-69707142D02*
X216450590Y-69754761D01*
X216450590Y-69754761D02*
X216831542Y-69754761D01*
X216831542Y-69754761D02*
X216926780Y-69707142D01*
X216926780Y-69707142D02*
X216974400Y-69659523D01*
X216974400Y-69659523D02*
X217022019Y-69564285D01*
X217022019Y-69564285D02*
X217022019Y-69373809D01*
X217022019Y-69373809D02*
X216974400Y-69278571D01*
X216974400Y-69278571D02*
X216926780Y-69230952D01*
X216926780Y-69230952D02*
X216831542Y-69183333D01*
X216831542Y-69183333D02*
X216593447Y-69183333D01*
X216593447Y-69183333D02*
X216498209Y-69230952D01*
X216498209Y-69230952D02*
X216450590Y-69278571D01*
X216450590Y-69278571D02*
X216402971Y-69373809D01*
X216402971Y-69373809D02*
X216402971Y-69564285D01*
X216402971Y-69564285D02*
X216450590Y-69659523D01*
X216450590Y-69659523D02*
X216498209Y-69707142D01*
X216498209Y-69707142D02*
X216593447Y-69754761D01*
X180427333Y-93425180D02*
X180379714Y-93472800D01*
X180379714Y-93472800D02*
X180236857Y-93520419D01*
X180236857Y-93520419D02*
X180141619Y-93520419D01*
X180141619Y-93520419D02*
X179998762Y-93472800D01*
X179998762Y-93472800D02*
X179903524Y-93377561D01*
X179903524Y-93377561D02*
X179855905Y-93282323D01*
X179855905Y-93282323D02*
X179808286Y-93091847D01*
X179808286Y-93091847D02*
X179808286Y-92948990D01*
X179808286Y-92948990D02*
X179855905Y-92758514D01*
X179855905Y-92758514D02*
X179903524Y-92663276D01*
X179903524Y-92663276D02*
X179998762Y-92568038D01*
X179998762Y-92568038D02*
X180141619Y-92520419D01*
X180141619Y-92520419D02*
X180236857Y-92520419D01*
X180236857Y-92520419D02*
X180379714Y-92568038D01*
X180379714Y-92568038D02*
X180427333Y-92615657D01*
X181379714Y-93520419D02*
X180808286Y-93520419D01*
X181094000Y-93520419D02*
X181094000Y-92520419D01*
X181094000Y-92520419D02*
X180998762Y-92663276D01*
X180998762Y-92663276D02*
X180903524Y-92758514D01*
X180903524Y-92758514D02*
X180808286Y-92806133D01*
X174902019Y-78906666D02*
X174425828Y-79239999D01*
X174902019Y-79478094D02*
X173902019Y-79478094D01*
X173902019Y-79478094D02*
X173902019Y-79097142D01*
X173902019Y-79097142D02*
X173949638Y-79001904D01*
X173949638Y-79001904D02*
X173997257Y-78954285D01*
X173997257Y-78954285D02*
X174092495Y-78906666D01*
X174092495Y-78906666D02*
X174235352Y-78906666D01*
X174235352Y-78906666D02*
X174330590Y-78954285D01*
X174330590Y-78954285D02*
X174378209Y-79001904D01*
X174378209Y-79001904D02*
X174425828Y-79097142D01*
X174425828Y-79097142D02*
X174425828Y-79478094D01*
X174902019Y-77954285D02*
X174902019Y-78525713D01*
X174902019Y-78239999D02*
X173902019Y-78239999D01*
X173902019Y-78239999D02*
X174044876Y-78335237D01*
X174044876Y-78335237D02*
X174140114Y-78430475D01*
X174140114Y-78430475D02*
X174187733Y-78525713D01*
X157338095Y-89554819D02*
X157338095Y-88554819D01*
X157338095Y-89031009D02*
X157909523Y-89031009D01*
X157909523Y-89554819D02*
X157909523Y-88554819D01*
X158290476Y-88554819D02*
X158909523Y-88554819D01*
X158909523Y-88554819D02*
X158576190Y-88935771D01*
X158576190Y-88935771D02*
X158719047Y-88935771D01*
X158719047Y-88935771D02*
X158814285Y-88983390D01*
X158814285Y-88983390D02*
X158861904Y-89031009D01*
X158861904Y-89031009D02*
X158909523Y-89126247D01*
X158909523Y-89126247D02*
X158909523Y-89364342D01*
X158909523Y-89364342D02*
X158861904Y-89459580D01*
X158861904Y-89459580D02*
X158814285Y-89507200D01*
X158814285Y-89507200D02*
X158719047Y-89554819D01*
X158719047Y-89554819D02*
X158433333Y-89554819D01*
X158433333Y-89554819D02*
X158338095Y-89507200D01*
X158338095Y-89507200D02*
X158290476Y-89459580D01*
X167880857Y-75482438D02*
X167833238Y-75577676D01*
X167833238Y-75577676D02*
X167738000Y-75672914D01*
X167738000Y-75672914D02*
X167595142Y-75815771D01*
X167595142Y-75815771D02*
X167547523Y-75911009D01*
X167547523Y-75911009D02*
X167547523Y-76006247D01*
X167785619Y-75958628D02*
X167738000Y-76053866D01*
X167738000Y-76053866D02*
X167642761Y-76149104D01*
X167642761Y-76149104D02*
X167452285Y-76196723D01*
X167452285Y-76196723D02*
X167118952Y-76196723D01*
X167118952Y-76196723D02*
X166928476Y-76149104D01*
X166928476Y-76149104D02*
X166833238Y-76053866D01*
X166833238Y-76053866D02*
X166785619Y-75958628D01*
X166785619Y-75958628D02*
X166785619Y-75768152D01*
X166785619Y-75768152D02*
X166833238Y-75672914D01*
X166833238Y-75672914D02*
X166928476Y-75577676D01*
X166928476Y-75577676D02*
X167118952Y-75530057D01*
X167118952Y-75530057D02*
X167452285Y-75530057D01*
X167452285Y-75530057D02*
X167642761Y-75577676D01*
X167642761Y-75577676D02*
X167738000Y-75672914D01*
X167738000Y-75672914D02*
X167785619Y-75768152D01*
X167785619Y-75768152D02*
X167785619Y-75958628D01*
X167785619Y-74577676D02*
X167785619Y-75149104D01*
X167785619Y-74863390D02*
X166785619Y-74863390D01*
X166785619Y-74863390D02*
X166928476Y-74958628D01*
X166928476Y-74958628D02*
X167023714Y-75053866D01*
X167023714Y-75053866D02*
X167071333Y-75149104D01*
X160954819Y-63833333D02*
X161669104Y-63833333D01*
X161669104Y-63833333D02*
X161811961Y-63880952D01*
X161811961Y-63880952D02*
X161907200Y-63976190D01*
X161907200Y-63976190D02*
X161954819Y-64119047D01*
X161954819Y-64119047D02*
X161954819Y-64214285D01*
X161288152Y-62928571D02*
X161954819Y-62928571D01*
X160907200Y-63166666D02*
X161621485Y-63404761D01*
X161621485Y-63404761D02*
X161621485Y-62785714D01*
X165717695Y-87599619D02*
X166289123Y-87599619D01*
X166003409Y-88599619D02*
X166003409Y-87599619D01*
X166622457Y-88599619D02*
X166622457Y-87599619D01*
X166622457Y-87599619D02*
X167003409Y-87599619D01*
X167003409Y-87599619D02*
X167098647Y-87647238D01*
X167098647Y-87647238D02*
X167146266Y-87694857D01*
X167146266Y-87694857D02*
X167193885Y-87790095D01*
X167193885Y-87790095D02*
X167193885Y-87932952D01*
X167193885Y-87932952D02*
X167146266Y-88028190D01*
X167146266Y-88028190D02*
X167098647Y-88075809D01*
X167098647Y-88075809D02*
X167003409Y-88123428D01*
X167003409Y-88123428D02*
X166622457Y-88123428D01*
X168146266Y-88599619D02*
X167574838Y-88599619D01*
X167860552Y-88599619D02*
X167860552Y-87599619D01*
X167860552Y-87599619D02*
X167765314Y-87742476D01*
X167765314Y-87742476D02*
X167670076Y-87837714D01*
X167670076Y-87837714D02*
X167574838Y-87885333D01*
X165693886Y-92878666D02*
X166455791Y-92878666D01*
X166074838Y-93259619D02*
X166074838Y-92497714D01*
X167408171Y-92259619D02*
X166931981Y-92259619D01*
X166931981Y-92259619D02*
X166884362Y-92735809D01*
X166884362Y-92735809D02*
X166931981Y-92688190D01*
X166931981Y-92688190D02*
X167027219Y-92640571D01*
X167027219Y-92640571D02*
X167265314Y-92640571D01*
X167265314Y-92640571D02*
X167360552Y-92688190D01*
X167360552Y-92688190D02*
X167408171Y-92735809D01*
X167408171Y-92735809D02*
X167455790Y-92831047D01*
X167455790Y-92831047D02*
X167455790Y-93069142D01*
X167455790Y-93069142D02*
X167408171Y-93164380D01*
X167408171Y-93164380D02*
X167360552Y-93212000D01*
X167360552Y-93212000D02*
X167265314Y-93259619D01*
X167265314Y-93259619D02*
X167027219Y-93259619D01*
X167027219Y-93259619D02*
X166931981Y-93212000D01*
X166931981Y-93212000D02*
X166884362Y-93164380D01*
X167741505Y-92259619D02*
X168074838Y-93259619D01*
X168074838Y-93259619D02*
X168408171Y-92259619D01*
X246728895Y-90410019D02*
X246728895Y-89410019D01*
X246728895Y-89886209D02*
X247300323Y-89886209D01*
X247300323Y-90410019D02*
X247300323Y-89410019D01*
X247728895Y-89505257D02*
X247776514Y-89457638D01*
X247776514Y-89457638D02*
X247871752Y-89410019D01*
X247871752Y-89410019D02*
X248109847Y-89410019D01*
X248109847Y-89410019D02*
X248205085Y-89457638D01*
X248205085Y-89457638D02*
X248252704Y-89505257D01*
X248252704Y-89505257D02*
X248300323Y-89600495D01*
X248300323Y-89600495D02*
X248300323Y-89695733D01*
X248300323Y-89695733D02*
X248252704Y-89838590D01*
X248252704Y-89838590D02*
X247681276Y-90410019D01*
X247681276Y-90410019D02*
X248300323Y-90410019D01*
X184808019Y-58942266D02*
X184331828Y-59275599D01*
X184808019Y-59513694D02*
X183808019Y-59513694D01*
X183808019Y-59513694D02*
X183808019Y-59132742D01*
X183808019Y-59132742D02*
X183855638Y-59037504D01*
X183855638Y-59037504D02*
X183903257Y-58989885D01*
X183903257Y-58989885D02*
X183998495Y-58942266D01*
X183998495Y-58942266D02*
X184141352Y-58942266D01*
X184141352Y-58942266D02*
X184236590Y-58989885D01*
X184236590Y-58989885D02*
X184284209Y-59037504D01*
X184284209Y-59037504D02*
X184331828Y-59132742D01*
X184331828Y-59132742D02*
X184331828Y-59513694D01*
X184141352Y-58085123D02*
X184808019Y-58085123D01*
X183760400Y-58323218D02*
X184474685Y-58561313D01*
X184474685Y-58561313D02*
X184474685Y-57942266D01*
X178148780Y-84120041D02*
X178196400Y-84167660D01*
X178196400Y-84167660D02*
X178244019Y-84310517D01*
X178244019Y-84310517D02*
X178244019Y-84405755D01*
X178244019Y-84405755D02*
X178196400Y-84548612D01*
X178196400Y-84548612D02*
X178101161Y-84643850D01*
X178101161Y-84643850D02*
X178005923Y-84691469D01*
X178005923Y-84691469D02*
X177815447Y-84739088D01*
X177815447Y-84739088D02*
X177672590Y-84739088D01*
X177672590Y-84739088D02*
X177482114Y-84691469D01*
X177482114Y-84691469D02*
X177386876Y-84643850D01*
X177386876Y-84643850D02*
X177291638Y-84548612D01*
X177291638Y-84548612D02*
X177244019Y-84405755D01*
X177244019Y-84405755D02*
X177244019Y-84310517D01*
X177244019Y-84310517D02*
X177291638Y-84167660D01*
X177291638Y-84167660D02*
X177339257Y-84120041D01*
X177339257Y-83739088D02*
X177291638Y-83691469D01*
X177291638Y-83691469D02*
X177244019Y-83596231D01*
X177244019Y-83596231D02*
X177244019Y-83358136D01*
X177244019Y-83358136D02*
X177291638Y-83262898D01*
X177291638Y-83262898D02*
X177339257Y-83215279D01*
X177339257Y-83215279D02*
X177434495Y-83167660D01*
X177434495Y-83167660D02*
X177529733Y-83167660D01*
X177529733Y-83167660D02*
X177672590Y-83215279D01*
X177672590Y-83215279D02*
X178244019Y-83786707D01*
X178244019Y-83786707D02*
X178244019Y-83167660D01*
D11*
X230806666Y-94707419D02*
X230806666Y-95421704D01*
X230806666Y-95421704D02*
X230759047Y-95564561D01*
X230759047Y-95564561D02*
X230663809Y-95659800D01*
X230663809Y-95659800D02*
X230520952Y-95707419D01*
X230520952Y-95707419D02*
X230425714Y-95707419D01*
X231235238Y-94802657D02*
X231282857Y-94755038D01*
X231282857Y-94755038D02*
X231378095Y-94707419D01*
X231378095Y-94707419D02*
X231616190Y-94707419D01*
X231616190Y-94707419D02*
X231711428Y-94755038D01*
X231711428Y-94755038D02*
X231759047Y-94802657D01*
X231759047Y-94802657D02*
X231806666Y-94897895D01*
X231806666Y-94897895D02*
X231806666Y-94993133D01*
X231806666Y-94993133D02*
X231759047Y-95135990D01*
X231759047Y-95135990D02*
X231187619Y-95707419D01*
X231187619Y-95707419D02*
X231806666Y-95707419D01*
D12*
X239696666Y-47714819D02*
X239696666Y-48429104D01*
X239696666Y-48429104D02*
X239649047Y-48571961D01*
X239649047Y-48571961D02*
X239553809Y-48667200D01*
X239553809Y-48667200D02*
X239410952Y-48714819D01*
X239410952Y-48714819D02*
X239315714Y-48714819D01*
X240696666Y-48714819D02*
X240125238Y-48714819D01*
X240410952Y-48714819D02*
X240410952Y-47714819D01*
X240410952Y-47714819D02*
X240315714Y-47857676D01*
X240315714Y-47857676D02*
X240220476Y-47952914D01*
X240220476Y-47952914D02*
X240125238Y-48000533D01*
X244167066Y-55030019D02*
X244167066Y-55744304D01*
X244167066Y-55744304D02*
X244119447Y-55887161D01*
X244119447Y-55887161D02*
X244024209Y-55982400D01*
X244024209Y-55982400D02*
X243881352Y-56030019D01*
X243881352Y-56030019D02*
X243786114Y-56030019D01*
X245119447Y-55030019D02*
X244643257Y-55030019D01*
X244643257Y-55030019D02*
X244595638Y-55506209D01*
X244595638Y-55506209D02*
X244643257Y-55458590D01*
X244643257Y-55458590D02*
X244738495Y-55410971D01*
X244738495Y-55410971D02*
X244976590Y-55410971D01*
X244976590Y-55410971D02*
X245071828Y-55458590D01*
X245071828Y-55458590D02*
X245119447Y-55506209D01*
X245119447Y-55506209D02*
X245167066Y-55601447D01*
X245167066Y-55601447D02*
X245167066Y-55839542D01*
X245167066Y-55839542D02*
X245119447Y-55934780D01*
X245119447Y-55934780D02*
X245071828Y-55982400D01*
X245071828Y-55982400D02*
X244976590Y-56030019D01*
X244976590Y-56030019D02*
X244738495Y-56030019D01*
X244738495Y-56030019D02*
X244643257Y-55982400D01*
X244643257Y-55982400D02*
X244595638Y-55934780D01*
X196175333Y-69136419D02*
X195842000Y-68660228D01*
X195603905Y-69136419D02*
X195603905Y-68136419D01*
X195603905Y-68136419D02*
X195984857Y-68136419D01*
X195984857Y-68136419D02*
X196080095Y-68184038D01*
X196080095Y-68184038D02*
X196127714Y-68231657D01*
X196127714Y-68231657D02*
X196175333Y-68326895D01*
X196175333Y-68326895D02*
X196175333Y-68469752D01*
X196175333Y-68469752D02*
X196127714Y-68564990D01*
X196127714Y-68564990D02*
X196080095Y-68612609D01*
X196080095Y-68612609D02*
X195984857Y-68660228D01*
X195984857Y-68660228D02*
X195603905Y-68660228D01*
X196508667Y-68136419D02*
X197127714Y-68136419D01*
X197127714Y-68136419D02*
X196794381Y-68517371D01*
X196794381Y-68517371D02*
X196937238Y-68517371D01*
X196937238Y-68517371D02*
X197032476Y-68564990D01*
X197032476Y-68564990D02*
X197080095Y-68612609D01*
X197080095Y-68612609D02*
X197127714Y-68707847D01*
X197127714Y-68707847D02*
X197127714Y-68945942D01*
X197127714Y-68945942D02*
X197080095Y-69041180D01*
X197080095Y-69041180D02*
X197032476Y-69088800D01*
X197032476Y-69088800D02*
X196937238Y-69136419D01*
X196937238Y-69136419D02*
X196651524Y-69136419D01*
X196651524Y-69136419D02*
X196556286Y-69088800D01*
X196556286Y-69088800D02*
X196508667Y-69041180D01*
X238929104Y-52784285D02*
X238929104Y-52308095D01*
X239214819Y-52879523D02*
X238214819Y-52546190D01*
X238214819Y-52546190D02*
X239214819Y-52212857D01*
X239214819Y-51355714D02*
X239214819Y-51927142D01*
X239214819Y-51641428D02*
X238214819Y-51641428D01*
X238214819Y-51641428D02*
X238357676Y-51736666D01*
X238357676Y-51736666D02*
X238452914Y-51831904D01*
X238452914Y-51831904D02*
X238500533Y-51927142D01*
X233134819Y-59681904D02*
X233944342Y-59681904D01*
X233944342Y-59681904D02*
X234039580Y-59634285D01*
X234039580Y-59634285D02*
X234087200Y-59586666D01*
X234087200Y-59586666D02*
X234134819Y-59491428D01*
X234134819Y-59491428D02*
X234134819Y-59300952D01*
X234134819Y-59300952D02*
X234087200Y-59205714D01*
X234087200Y-59205714D02*
X234039580Y-59158095D01*
X234039580Y-59158095D02*
X233944342Y-59110476D01*
X233944342Y-59110476D02*
X233134819Y-59110476D01*
X234087200Y-58681904D02*
X234134819Y-58539047D01*
X234134819Y-58539047D02*
X234134819Y-58300952D01*
X234134819Y-58300952D02*
X234087200Y-58205714D01*
X234087200Y-58205714D02*
X234039580Y-58158095D01*
X234039580Y-58158095D02*
X233944342Y-58110476D01*
X233944342Y-58110476D02*
X233849104Y-58110476D01*
X233849104Y-58110476D02*
X233753866Y-58158095D01*
X233753866Y-58158095D02*
X233706247Y-58205714D01*
X233706247Y-58205714D02*
X233658628Y-58300952D01*
X233658628Y-58300952D02*
X233611009Y-58491428D01*
X233611009Y-58491428D02*
X233563390Y-58586666D01*
X233563390Y-58586666D02*
X233515771Y-58634285D01*
X233515771Y-58634285D02*
X233420533Y-58681904D01*
X233420533Y-58681904D02*
X233325295Y-58681904D01*
X233325295Y-58681904D02*
X233230057Y-58634285D01*
X233230057Y-58634285D02*
X233182438Y-58586666D01*
X233182438Y-58586666D02*
X233134819Y-58491428D01*
X233134819Y-58491428D02*
X233134819Y-58253333D01*
X233134819Y-58253333D02*
X233182438Y-58110476D01*
X233611009Y-57348571D02*
X233658628Y-57205714D01*
X233658628Y-57205714D02*
X233706247Y-57158095D01*
X233706247Y-57158095D02*
X233801485Y-57110476D01*
X233801485Y-57110476D02*
X233944342Y-57110476D01*
X233944342Y-57110476D02*
X234039580Y-57158095D01*
X234039580Y-57158095D02*
X234087200Y-57205714D01*
X234087200Y-57205714D02*
X234134819Y-57300952D01*
X234134819Y-57300952D02*
X234134819Y-57681904D01*
X234134819Y-57681904D02*
X233134819Y-57681904D01*
X233134819Y-57681904D02*
X233134819Y-57348571D01*
X233134819Y-57348571D02*
X233182438Y-57253333D01*
X233182438Y-57253333D02*
X233230057Y-57205714D01*
X233230057Y-57205714D02*
X233325295Y-57158095D01*
X233325295Y-57158095D02*
X233420533Y-57158095D01*
X233420533Y-57158095D02*
X233515771Y-57205714D01*
X233515771Y-57205714D02*
X233563390Y-57253333D01*
X233563390Y-57253333D02*
X233611009Y-57348571D01*
X233611009Y-57348571D02*
X233611009Y-57681904D01*
G36*
X165423448Y-51920118D02*
G01*
X165423448Y-52177986D01*
X165058135Y-52177986D01*
X164692822Y-52177986D01*
X164692822Y-53284669D01*
X164692822Y-54391353D01*
X164402720Y-54391353D01*
X164112619Y-54391353D01*
X164112619Y-53285177D01*
X164112619Y-52179001D01*
X163741933Y-52173121D01*
X163371248Y-52167241D01*
X163353569Y-51985537D01*
X163346826Y-51891732D01*
X163344777Y-51805680D01*
X163347692Y-51742949D01*
X163349171Y-51733041D01*
X163362451Y-51662250D01*
X164392949Y-51662250D01*
X165423448Y-51662250D01*
X165423448Y-51920118D01*
G37*
G36*
X171685026Y-43062427D02*
G01*
X171824889Y-43097583D01*
X171969500Y-43148719D01*
X172063549Y-43190486D01*
X172188840Y-43264948D01*
X172318636Y-43365859D01*
X172442299Y-43482985D01*
X172549191Y-43606092D01*
X172628674Y-43724946D01*
X172638474Y-43743552D01*
X172686295Y-43848892D01*
X172727226Y-43958265D01*
X172757123Y-44058961D01*
X172771846Y-44138272D01*
X172772686Y-44155405D01*
X172753071Y-44223232D01*
X172701674Y-44282456D01*
X172629664Y-44325920D01*
X172548213Y-44346466D01*
X172482585Y-44341288D01*
X172428121Y-44316688D01*
X172383866Y-44269780D01*
X172343591Y-44192595D01*
X172320984Y-44134645D01*
X172236368Y-43953556D01*
X172124502Y-43803666D01*
X171983527Y-43683465D01*
X171811586Y-43591443D01*
X171606821Y-43526088D01*
X171559573Y-43515631D01*
X171474141Y-43498088D01*
X171406515Y-43484372D01*
X171366326Y-43476427D01*
X171359469Y-43475222D01*
X171339815Y-43456428D01*
X171314275Y-43411348D01*
X171289574Y-43354783D01*
X171272438Y-43301533D01*
X171268537Y-43275100D01*
X171282163Y-43199318D01*
X171317044Y-43126251D01*
X171363900Y-43074064D01*
X171374711Y-43067286D01*
X171451858Y-43045834D01*
X171557990Y-43044696D01*
X171685026Y-43062427D01*
G37*
G36*
X166735773Y-52330821D02*
G01*
X166785810Y-52342519D01*
X166816953Y-52370197D01*
X166833220Y-52420550D01*
X166838630Y-52500272D01*
X166837199Y-52616055D01*
X166837128Y-52618791D01*
X166830977Y-52854889D01*
X166708267Y-52847745D01*
X166560873Y-52855200D01*
X166422579Y-52892249D01*
X166301919Y-52954872D01*
X166207431Y-53039051D01*
X166163721Y-53104136D01*
X166154240Y-53130285D01*
X166146795Y-53170953D01*
X166141172Y-53230797D01*
X166137155Y-53314473D01*
X166134529Y-53426636D01*
X166133079Y-53571944D01*
X166132589Y-53755052D01*
X166132585Y-53777849D01*
X166132585Y-54391353D01*
X165852553Y-54391353D01*
X165727085Y-54390042D01*
X165640080Y-54385835D01*
X165587098Y-54378322D01*
X165563697Y-54367091D01*
X165562224Y-54364492D01*
X165560237Y-54338095D01*
X165558615Y-54273118D01*
X165557379Y-54173958D01*
X165556550Y-54045012D01*
X165556147Y-53890675D01*
X165556190Y-53715346D01*
X165556701Y-53523419D01*
X165557526Y-53349136D01*
X165563126Y-52360642D01*
X165825001Y-52354619D01*
X166086876Y-52348597D01*
X166101335Y-52495331D01*
X166115794Y-52642066D01*
X166247751Y-52511163D01*
X166347372Y-52422792D01*
X166440370Y-52366749D01*
X166539940Y-52337226D01*
X166659273Y-52328414D01*
X166662824Y-52328409D01*
X166735773Y-52330821D01*
G37*
G36*
X171505565Y-42085990D02*
G01*
X171609804Y-42094331D01*
X171630988Y-42096226D01*
X171949274Y-42145845D01*
X172254407Y-42235094D01*
X172543061Y-42362191D01*
X172811912Y-42525356D01*
X173057633Y-42722809D01*
X173276901Y-42952767D01*
X173313001Y-42997094D01*
X173422299Y-43146487D01*
X173517758Y-43300321D01*
X173596898Y-43452607D01*
X173657242Y-43597353D01*
X173696311Y-43728569D01*
X173711626Y-43840264D01*
X173700708Y-43926448D01*
X173699213Y-43930552D01*
X173655453Y-43990572D01*
X173585188Y-44032635D01*
X173502357Y-44053197D01*
X173420900Y-44048718D01*
X173356895Y-44017537D01*
X173328981Y-43980504D01*
X173293290Y-43915168D01*
X173256307Y-43833768D01*
X173245918Y-43808020D01*
X173121092Y-43545358D01*
X172962786Y-43307660D01*
X172773470Y-43097663D01*
X172555614Y-42918103D01*
X172311686Y-42771720D01*
X172310673Y-42771210D01*
X172201331Y-42718872D01*
X172098479Y-42676355D01*
X171993972Y-42641611D01*
X171879667Y-42612590D01*
X171747420Y-42587244D01*
X171589085Y-42563523D01*
X171396519Y-42539379D01*
X171382786Y-42537766D01*
X171282435Y-42509734D01*
X171211717Y-42454367D01*
X171174449Y-42374727D01*
X171173457Y-42369766D01*
X171174245Y-42270435D01*
X171212385Y-42184509D01*
X171283516Y-42120822D01*
X171300637Y-42111854D01*
X171339900Y-42095565D01*
X171380530Y-42086138D01*
X171432446Y-42083102D01*
X171505565Y-42085990D01*
G37*
G36*
X171657634Y-41139292D02*
G01*
X171841095Y-41159542D01*
X172028468Y-41188021D01*
X172207371Y-41223233D01*
X172288366Y-41242537D01*
X172646233Y-41354966D01*
X172984998Y-41503989D01*
X173302106Y-41687466D01*
X173594999Y-41903262D01*
X173861123Y-42149237D01*
X174097921Y-42423254D01*
X174302838Y-42723176D01*
X174473317Y-43046863D01*
X174489922Y-43083976D01*
X174534388Y-43194289D01*
X174577834Y-43317456D01*
X174612147Y-43430167D01*
X174617364Y-43450051D01*
X174639045Y-43540624D01*
X174649403Y-43601946D01*
X174649170Y-43646021D01*
X174639075Y-43684851D01*
X174632642Y-43701120D01*
X174581680Y-43773828D01*
X174507470Y-43820569D01*
X174422008Y-43838013D01*
X174337287Y-43822836D01*
X174290842Y-43795938D01*
X174254062Y-43753973D01*
X174219214Y-43684530D01*
X174182814Y-43580474D01*
X174178058Y-43564931D01*
X174073333Y-43286764D01*
X173929684Y-43011717D01*
X173751056Y-42745997D01*
X173541393Y-42495809D01*
X173421131Y-42373641D01*
X173193665Y-42175213D01*
X172958268Y-42011997D01*
X172704074Y-41877347D01*
X172432909Y-41769008D01*
X172253127Y-41712280D01*
X172074022Y-41668836D01*
X171882408Y-41636099D01*
X171665098Y-41611496D01*
X171595379Y-41605514D01*
X171454930Y-41591640D01*
X171351020Y-41574437D01*
X171277222Y-41551582D01*
X171227110Y-41520749D01*
X171194256Y-41479612D01*
X171183068Y-41456345D01*
X171167238Y-41372712D01*
X171181530Y-41287317D01*
X171220305Y-41211072D01*
X171277926Y-41154888D01*
X171348754Y-41129678D01*
X171351970Y-41129457D01*
X171490465Y-41128765D01*
X171657634Y-41139292D01*
G37*
G36*
X180981290Y-52334442D02*
G01*
X181018219Y-52348944D01*
X181037423Y-52363555D01*
X181058209Y-52385170D01*
X181070415Y-52411284D01*
X181075223Y-52451539D01*
X181073815Y-52515579D01*
X181067609Y-52609810D01*
X181059730Y-52701199D01*
X181050915Y-52776996D01*
X181042521Y-52826522D01*
X181038524Y-52838778D01*
X181008493Y-52850793D01*
X180944095Y-52853087D01*
X180898495Y-52850136D01*
X180745248Y-52854496D01*
X180610709Y-52897387D01*
X180493787Y-52979193D01*
X180472382Y-53000297D01*
X180419811Y-53058622D01*
X180377595Y-53112031D01*
X180360814Y-53138206D01*
X180352321Y-53178081D01*
X180345675Y-53260851D01*
X180340875Y-53386472D01*
X180337924Y-53554901D01*
X180336823Y-53766093D01*
X180336815Y-53788248D01*
X180336815Y-54391353D01*
X180056784Y-54391353D01*
X179931315Y-54390042D01*
X179844311Y-54385835D01*
X179791329Y-54378322D01*
X179767927Y-54367091D01*
X179766454Y-54364492D01*
X179764467Y-54338095D01*
X179762845Y-54273118D01*
X179761610Y-54173958D01*
X179760780Y-54045012D01*
X179760377Y-53890675D01*
X179760421Y-53715346D01*
X179760931Y-53523419D01*
X179761756Y-53349136D01*
X179767356Y-52360642D01*
X180023515Y-52354556D01*
X180142200Y-52353107D01*
X180223533Y-52355660D01*
X180272991Y-52362645D01*
X180296051Y-52374491D01*
X180297171Y-52376045D01*
X180306698Y-52411423D01*
X180313189Y-52474302D01*
X180314997Y-52531100D01*
X180315326Y-52658581D01*
X180428143Y-52538897D01*
X180522620Y-52447895D01*
X180609865Y-52388018D01*
X180703198Y-52352645D01*
X180815937Y-52335153D01*
X180841807Y-52333229D01*
X180926621Y-52329845D01*
X180981290Y-52334442D01*
G37*
G36*
X177908678Y-53010684D02*
G01*
X177909393Y-53182512D01*
X177911362Y-53341977D01*
X177914419Y-53483286D01*
X177918395Y-53600649D01*
X177923121Y-53688272D01*
X177928432Y-53740364D01*
X177930031Y-53747904D01*
X177960340Y-53813922D01*
X178007514Y-53877709D01*
X178016587Y-53886921D01*
X178058567Y-53921730D01*
X178103240Y-53942138D01*
X178165394Y-53953068D01*
X178229651Y-53957853D01*
X178357826Y-53957187D01*
X178459642Y-53935640D01*
X178548519Y-53888609D01*
X178628050Y-53821158D01*
X178725140Y-53726797D01*
X178725140Y-53038347D01*
X178725140Y-52349898D01*
X179004497Y-52349898D01*
X179283854Y-52349898D01*
X179283854Y-53370625D01*
X179283854Y-54391353D01*
X179017928Y-54391353D01*
X178752001Y-54391353D01*
X178738570Y-54324200D01*
X178728671Y-54257263D01*
X178725140Y-54203559D01*
X178723576Y-54174017D01*
X178713758Y-54167719D01*
X178687995Y-54187057D01*
X178644556Y-54228611D01*
X178577493Y-54283737D01*
X178494213Y-54338725D01*
X178446052Y-54365014D01*
X178382344Y-54393224D01*
X178321351Y-54411249D01*
X178249359Y-54421696D01*
X178152655Y-54427171D01*
X178112973Y-54428331D01*
X177982020Y-54427673D01*
X177876415Y-54419034D01*
X177811857Y-54405436D01*
X177659940Y-54338865D01*
X177540328Y-54247745D01*
X177446830Y-54126636D01*
X177405837Y-54048621D01*
X177394104Y-54021434D01*
X177384534Y-53992583D01*
X177376860Y-53957477D01*
X177370819Y-53911530D01*
X177366145Y-53850152D01*
X177362574Y-53768755D01*
X177359841Y-53662751D01*
X177357681Y-53527551D01*
X177355831Y-53358568D01*
X177354024Y-53151213D01*
X177354017Y-53150363D01*
X177347446Y-52349898D01*
X177628002Y-52349898D01*
X177908558Y-52349898D01*
X177908678Y-53010684D01*
G37*
G36*
X171563930Y-51581024D02*
G01*
X171837915Y-51587038D01*
X171843552Y-52376759D01*
X171845285Y-52556188D01*
X171847751Y-52721321D01*
X171850812Y-52867412D01*
X171854332Y-52989715D01*
X171858172Y-53083484D01*
X171862196Y-53143974D01*
X171866264Y-53166439D01*
X171866440Y-53166480D01*
X171884235Y-53150499D01*
X171925089Y-53105585D01*
X171985110Y-53036282D01*
X172060403Y-52947133D01*
X172147076Y-52842681D01*
X172215372Y-52759285D01*
X172547052Y-52352090D01*
X172874759Y-52350994D01*
X173012242Y-52351943D01*
X173114298Y-52355721D01*
X173178487Y-52362171D01*
X173202367Y-52371139D01*
X173202466Y-52371837D01*
X173188896Y-52393896D01*
X173150982Y-52442984D01*
X173092919Y-52513998D01*
X173018904Y-52601833D01*
X172933132Y-52701384D01*
X172906605Y-52731778D01*
X172812137Y-52839871D01*
X172722146Y-52943155D01*
X172642382Y-53035006D01*
X172578599Y-53108797D01*
X172536546Y-53157903D01*
X172532466Y-53162734D01*
X172454188Y-53255689D01*
X172849816Y-53801616D01*
X172947088Y-53936516D01*
X173035682Y-54060677D01*
X173112558Y-54169736D01*
X173174675Y-54259329D01*
X173218992Y-54325091D01*
X173242469Y-54362659D01*
X173245444Y-54369448D01*
X173224419Y-54378561D01*
X173163080Y-54385278D01*
X173064036Y-54389428D01*
X172929894Y-54390842D01*
X172917737Y-54390831D01*
X172590030Y-54390310D01*
X172272252Y-53933521D01*
X172183476Y-53806334D01*
X172100126Y-53687720D01*
X172026155Y-53583238D01*
X171965513Y-53498449D01*
X171922152Y-53438914D01*
X171902340Y-53412934D01*
X171850205Y-53349136D01*
X171849432Y-53870245D01*
X171848659Y-54391353D01*
X171569302Y-54391353D01*
X171289945Y-54391353D01*
X171289945Y-52983181D01*
X171289945Y-51575010D01*
X171563930Y-51581024D01*
G37*
G36*
X174319895Y-52092030D02*
G01*
X174319895Y-52349898D01*
X174600314Y-52349898D01*
X174880733Y-52349898D01*
X174877626Y-52462715D01*
X174873281Y-52553717D01*
X174866068Y-52647945D01*
X174863051Y-52677605D01*
X174851583Y-52779678D01*
X174585739Y-52779678D01*
X174319895Y-52779678D01*
X174319895Y-53274615D01*
X174320691Y-53455649D01*
X174323628Y-53598754D01*
X174329524Y-53708963D01*
X174339199Y-53791303D01*
X174353473Y-53850806D01*
X174373165Y-53892501D01*
X174399096Y-53921418D01*
X174428438Y-53940672D01*
X174476363Y-53952392D01*
X174551528Y-53956480D01*
X174638961Y-53953396D01*
X174723693Y-53943599D01*
X174784251Y-53929752D01*
X174816974Y-53926280D01*
X174834912Y-53950221D01*
X174843346Y-53984034D01*
X174850589Y-54042086D01*
X174855578Y-54123818D01*
X174857120Y-54198031D01*
X174855964Y-54271523D01*
X174847397Y-54320368D01*
X174823772Y-54352567D01*
X174777442Y-54376119D01*
X174700759Y-54399026D01*
X174652974Y-54411605D01*
X174579467Y-54423367D01*
X174479114Y-54429933D01*
X174367741Y-54431235D01*
X174261173Y-54427206D01*
X174175235Y-54417779D01*
X174155116Y-54413717D01*
X174020476Y-54361289D01*
X173911634Y-54275559D01*
X173832614Y-54160375D01*
X173771925Y-54036784D01*
X173764858Y-53409138D01*
X173757791Y-52781492D01*
X173603690Y-52775213D01*
X173449590Y-52768933D01*
X173449590Y-52564788D01*
X173449590Y-52360642D01*
X173605385Y-52354329D01*
X173761180Y-52348015D01*
X173761180Y-52145567D01*
X173762307Y-52048365D01*
X173766679Y-51985461D01*
X173775783Y-51948213D01*
X173791109Y-51927977D01*
X173799574Y-51922571D01*
X173841521Y-51907930D01*
X173913365Y-51890007D01*
X174002409Y-51871252D01*
X174095956Y-51854115D01*
X174181309Y-51841047D01*
X174245771Y-51834495D01*
X174257801Y-51834162D01*
X174319895Y-51834162D01*
X174319895Y-52092030D01*
G37*
G36*
X170544125Y-52335602D02*
G01*
X170728296Y-52383645D01*
X170834157Y-52427214D01*
X170898228Y-52460757D01*
X170930943Y-52486662D01*
X170940571Y-52513941D01*
X170937732Y-52540108D01*
X170930355Y-52590034D01*
X170921422Y-52666324D01*
X170912861Y-52752502D01*
X170912825Y-52752901D01*
X170902331Y-52844610D01*
X170888958Y-52898969D01*
X170869488Y-52921607D01*
X170840708Y-52918152D01*
X170823434Y-52909337D01*
X170690333Y-52848763D01*
X170538481Y-52806043D01*
X170381818Y-52783388D01*
X170234286Y-52783012D01*
X170133694Y-52799832D01*
X170036983Y-52843736D01*
X169940849Y-52917680D01*
X169858216Y-53010540D01*
X169821765Y-53068313D01*
X169799746Y-53116089D01*
X169785781Y-53167549D01*
X169778173Y-53234041D01*
X169775227Y-53326912D01*
X169774971Y-53381370D01*
X169776353Y-53490157D01*
X169781617Y-53567290D01*
X169792441Y-53624035D01*
X169810502Y-53671659D01*
X169821353Y-53692960D01*
X169909134Y-53814081D01*
X170023517Y-53907305D01*
X170059161Y-53927159D01*
X170170937Y-53963886D01*
X170307300Y-53978040D01*
X170456699Y-53970311D01*
X170607584Y-53941387D01*
X170748402Y-53891958D01*
X170763120Y-53885137D01*
X170824242Y-53859646D01*
X170869032Y-53847674D01*
X170884022Y-53849486D01*
X170893425Y-53877699D01*
X170904444Y-53936050D01*
X170915580Y-54012172D01*
X170925332Y-54093698D01*
X170932200Y-54168263D01*
X170934684Y-54223500D01*
X170932149Y-54246153D01*
X170899120Y-54273425D01*
X170835251Y-54306885D01*
X170751324Y-54342023D01*
X170658123Y-54374325D01*
X170566432Y-54399281D01*
X170565822Y-54399419D01*
X170428233Y-54421323D01*
X170274112Y-54431072D01*
X170119613Y-54428649D01*
X169980891Y-54414035D01*
X169914649Y-54400131D01*
X169725430Y-54332661D01*
X169564799Y-54236978D01*
X169464138Y-54149592D01*
X169350800Y-54020965D01*
X169268667Y-53889027D01*
X169213256Y-53743385D01*
X169180085Y-53573648D01*
X169169760Y-53467152D01*
X169173853Y-53251412D01*
X169215386Y-53048093D01*
X169291497Y-52861277D01*
X169399326Y-52695048D01*
X169536011Y-52553489D01*
X169698690Y-52440683D01*
X169884503Y-52360713D01*
X169959627Y-52340008D01*
X170146064Y-52312415D01*
X170345472Y-52311403D01*
X170544125Y-52335602D01*
G37*
G36*
X175016840Y-47082187D02*
G01*
X175237357Y-47153100D01*
X175443807Y-47257772D01*
X175632291Y-47393902D01*
X175798907Y-47559193D01*
X175939756Y-47751346D01*
X176050938Y-47968064D01*
X176116436Y-48159542D01*
X176142775Y-48302743D01*
X176152988Y-48480753D01*
X176153114Y-48524855D01*
X176148042Y-48667757D01*
X176133161Y-48803345D01*
X176106517Y-48935288D01*
X176066155Y-49067252D01*
X176010123Y-49202906D01*
X175936466Y-49345918D01*
X175843231Y-49499956D01*
X175728465Y-49668688D01*
X175590213Y-49855780D01*
X175426522Y-50064902D01*
X175235439Y-50299721D01*
X175157966Y-50393177D01*
X175039204Y-50535554D01*
X174944552Y-50648109D01*
X174870875Y-50734255D01*
X174815033Y-50797407D01*
X174773891Y-50840979D01*
X174744310Y-50868384D01*
X174723153Y-50883036D01*
X174707283Y-50888349D01*
X174702647Y-50888635D01*
X174678247Y-50872831D01*
X174630714Y-50828390D01*
X174564322Y-50759781D01*
X174483347Y-50671472D01*
X174392064Y-50567930D01*
X174358287Y-50528705D01*
X174166280Y-50303159D01*
X174000799Y-50105752D01*
X173859342Y-49932923D01*
X173739410Y-49781117D01*
X173638502Y-49646776D01*
X173554117Y-49526341D01*
X173483754Y-49416254D01*
X173424913Y-49312959D01*
X173375092Y-49212898D01*
X173331793Y-49112512D01*
X173295514Y-49016666D01*
X173258603Y-48878513D01*
X173234585Y-48715172D01*
X173224249Y-48542079D01*
X173225334Y-48498156D01*
X174047498Y-48498156D01*
X174062534Y-48650765D01*
X174113248Y-48794369D01*
X174196045Y-48922927D01*
X174307331Y-49030396D01*
X174443511Y-49110736D01*
X174550568Y-49147309D01*
X174648691Y-49159118D01*
X174768299Y-49154518D01*
X174891604Y-49134560D01*
X174929513Y-49124940D01*
X175003478Y-49089173D01*
X175091854Y-49021340D01*
X175136357Y-48979781D01*
X175245696Y-48847207D01*
X175317679Y-48703613D01*
X175349834Y-48554355D01*
X175351367Y-48514111D01*
X175331309Y-48373035D01*
X175274966Y-48232295D01*
X175188085Y-48101196D01*
X175076413Y-47989042D01*
X174989799Y-47928670D01*
X174920866Y-47895250D01*
X174844466Y-47875108D01*
X174744087Y-47864112D01*
X174727622Y-47863094D01*
X174635117Y-47859845D01*
X174567273Y-47864897D01*
X174506110Y-47881195D01*
X174435074Y-47911033D01*
X174302456Y-47985767D01*
X174202350Y-48077048D01*
X174127788Y-48193150D01*
X174071803Y-48342348D01*
X174071735Y-48342582D01*
X174047498Y-48498156D01*
X173225334Y-48498156D01*
X173228383Y-48374672D01*
X173247779Y-48228390D01*
X173253860Y-48201817D01*
X173332055Y-47971817D01*
X173445487Y-47757125D01*
X173589696Y-47562418D01*
X173760221Y-47392370D01*
X173952599Y-47251659D01*
X174162371Y-47144959D01*
X174309892Y-47094972D01*
X174549208Y-47050824D01*
X174786157Y-47047328D01*
X175016840Y-47082187D01*
G37*
G36*
X167994892Y-52312226D02*
G01*
X168187624Y-52339148D01*
X168363269Y-52389572D01*
X168514947Y-52462537D01*
X168635524Y-52556823D01*
X168692167Y-52620494D01*
X168738930Y-52688719D01*
X168776628Y-52766032D01*
X168806077Y-52856970D01*
X168828092Y-52966068D01*
X168843489Y-53097862D01*
X168853083Y-53256888D01*
X168857690Y-53447682D01*
X168858125Y-53674779D01*
X168857181Y-53789661D01*
X168850944Y-54380608D01*
X168593076Y-54380608D01*
X168335208Y-54380608D01*
X168328662Y-54266350D01*
X168322117Y-54152092D01*
X168241015Y-54225363D01*
X168175609Y-54275798D01*
X168092268Y-54328774D01*
X168033386Y-54360538D01*
X167964078Y-54391430D01*
X167900113Y-54410819D01*
X167826486Y-54421768D01*
X167728190Y-54427336D01*
X167701998Y-54428136D01*
X167576873Y-54427523D01*
X167473904Y-54418880D01*
X167411180Y-54405599D01*
X167253887Y-54335524D01*
X167131196Y-54239974D01*
X167043070Y-54118917D01*
X167013496Y-54052971D01*
X166976069Y-53898292D01*
X166975843Y-53776810D01*
X167533086Y-53776810D01*
X167543937Y-53863987D01*
X167587626Y-53933233D01*
X167660108Y-53982144D01*
X167757337Y-54008315D01*
X167875270Y-54009341D01*
X168009862Y-53982817D01*
X168054375Y-53968611D01*
X168130446Y-53934312D01*
X168203614Y-53889713D01*
X168210170Y-53884846D01*
X168246422Y-53855160D01*
X168267683Y-53826758D01*
X168277951Y-53787474D01*
X168281220Y-53725143D01*
X168281485Y-53667729D01*
X168281485Y-53505007D01*
X168028989Y-53515128D01*
X167871361Y-53525583D01*
X167751184Y-53543822D01*
X167663361Y-53571571D01*
X167602794Y-53610555D01*
X167564386Y-53662498D01*
X167559116Y-53674110D01*
X167533086Y-53776810D01*
X166975843Y-53776810D01*
X166975779Y-53742618D01*
X167010437Y-53593662D01*
X167077855Y-53459141D01*
X167175843Y-53346768D01*
X167224663Y-53308670D01*
X167308856Y-53259432D01*
X167405170Y-53221921D01*
X167520383Y-53194748D01*
X167661269Y-53176525D01*
X167834605Y-53165863D01*
X167936003Y-53162925D01*
X168281461Y-53155735D01*
X168281440Y-53080524D01*
X168262167Y-52975735D01*
X168209696Y-52881906D01*
X168131958Y-52813166D01*
X168131062Y-52812642D01*
X168087823Y-52791704D01*
X168038436Y-52778823D01*
X167971770Y-52772408D01*
X167876690Y-52770863D01*
X167840961Y-52771111D01*
X167724781Y-52774693D01*
X167631097Y-52785013D01*
X167539754Y-52805506D01*
X167430600Y-52839607D01*
X167421925Y-52842540D01*
X167333505Y-52872220D01*
X167259863Y-52896354D01*
X167210799Y-52911762D01*
X167196825Y-52915575D01*
X167185530Y-52897432D01*
X167172296Y-52845573D01*
X167159155Y-52769078D01*
X167152343Y-52716715D01*
X167141750Y-52612163D01*
X167142471Y-52538700D01*
X167160424Y-52487740D01*
X167201526Y-52450695D01*
X167271696Y-52418977D01*
X167376851Y-52383998D01*
X167382953Y-52382066D01*
X167585678Y-52332726D01*
X167791951Y-52309766D01*
X167994892Y-52312226D01*
G37*
G36*
X176146460Y-52312440D02*
G01*
X176356082Y-52342416D01*
X176539368Y-52405523D01*
X176695382Y-52501121D01*
X176823187Y-52628570D01*
X176921847Y-52787228D01*
X176955359Y-52865634D01*
X176969903Y-52925495D01*
X176981653Y-53013776D01*
X176990168Y-53119134D01*
X176995006Y-53230225D01*
X176995725Y-53335707D01*
X176991884Y-53424238D01*
X176983041Y-53484474D01*
X176979833Y-53494187D01*
X176972767Y-53504761D01*
X176958206Y-53513155D01*
X176931633Y-53519619D01*
X176888530Y-53524400D01*
X176824382Y-53527748D01*
X176734670Y-53529913D01*
X176614879Y-53531142D01*
X176460492Y-53531685D01*
X176297557Y-53531793D01*
X176110939Y-53531865D01*
X175962846Y-53532276D01*
X175848826Y-53533317D01*
X175764426Y-53535280D01*
X175705194Y-53538457D01*
X175666678Y-53543138D01*
X175644425Y-53549617D01*
X175633983Y-53558183D01*
X175630898Y-53569129D01*
X175630724Y-53575461D01*
X175643371Y-53642075D01*
X175675648Y-53722260D01*
X175719059Y-53797088D01*
X175744567Y-53829065D01*
X175835242Y-53902157D01*
X175950177Y-53950185D01*
X176095515Y-53975476D01*
X176139132Y-53978620D01*
X176315100Y-53975096D01*
X176494889Y-53948136D01*
X176661894Y-53900918D01*
X176756479Y-53860489D01*
X176812481Y-53833805D01*
X176850540Y-53824699D01*
X176875840Y-53838501D01*
X176893564Y-53880541D01*
X176908894Y-53956148D01*
X176920561Y-54029238D01*
X176933109Y-54123994D01*
X176935251Y-54185044D01*
X176927060Y-54220360D01*
X176922380Y-54227395D01*
X176879544Y-54259997D01*
X176805579Y-54297825D01*
X176711248Y-54336515D01*
X176607316Y-54371703D01*
X176504546Y-54399025D01*
X176492694Y-54401590D01*
X176379984Y-54418348D01*
X176243392Y-54428278D01*
X176098618Y-54431150D01*
X175961364Y-54426736D01*
X175847332Y-54414807D01*
X175827548Y-54411275D01*
X175663882Y-54360857D01*
X175503134Y-54278345D01*
X175361343Y-54172566D01*
X175318618Y-54131111D01*
X175207378Y-53993291D01*
X175127752Y-53843313D01*
X175077268Y-53674219D01*
X175053456Y-53479052D01*
X175050776Y-53377107D01*
X175068675Y-53149580D01*
X175080028Y-53105414D01*
X175631609Y-53105414D01*
X175649779Y-53124692D01*
X175691187Y-53136435D01*
X175760339Y-53142500D01*
X175861742Y-53144742D01*
X175999902Y-53145016D01*
X176062895Y-53144991D01*
X176495067Y-53144991D01*
X176480330Y-53064407D01*
X176439361Y-52935345D01*
X176369667Y-52838220D01*
X176271545Y-52773272D01*
X176145292Y-52740738D01*
X176072212Y-52736700D01*
X175932370Y-52752730D01*
X175819087Y-52801917D01*
X175729699Y-52885904D01*
X175671464Y-52983823D01*
X175646958Y-53036836D01*
X175632171Y-53076747D01*
X175631609Y-53105414D01*
X175080028Y-53105414D01*
X175121406Y-52944442D01*
X175206644Y-52763953D01*
X175322064Y-52610372D01*
X175465340Y-52485959D01*
X175634148Y-52392971D01*
X175826162Y-52333669D01*
X176039059Y-52310312D01*
X176146460Y-52312440D01*
G37*
G36*
X168902033Y-46365699D02*
G01*
X169164337Y-46403898D01*
X169421274Y-46477465D01*
X169668915Y-46585808D01*
X169903329Y-46728334D01*
X170120588Y-46904448D01*
X170316761Y-47113558D01*
X170331014Y-47131179D01*
X170496735Y-47371081D01*
X170625637Y-47628395D01*
X170716675Y-47898626D01*
X170768801Y-48177279D01*
X170780971Y-48459859D01*
X170752138Y-48741874D01*
X170730394Y-48847190D01*
X170645290Y-49117632D01*
X170523113Y-49372816D01*
X170367559Y-49608903D01*
X170182323Y-49822058D01*
X169971104Y-50008441D01*
X169737597Y-50164214D01*
X169485498Y-50285542D01*
X169279564Y-50353468D01*
X169118112Y-50385399D01*
X168932217Y-50404333D01*
X168737616Y-50409889D01*
X168550048Y-50401685D01*
X168385252Y-50379338D01*
X168367441Y-50375620D01*
X168103836Y-50300455D01*
X167864139Y-50193871D01*
X167641119Y-50052002D01*
X167433166Y-49876341D01*
X167238122Y-49661698D01*
X167074910Y-49419623D01*
X167068237Y-49405904D01*
X168947644Y-49405904D01*
X169009175Y-49405904D01*
X169057150Y-49396267D01*
X169128865Y-49370730D01*
X169210541Y-49334351D01*
X169228624Y-49325321D01*
X169301994Y-49285686D01*
X169358361Y-49251083D01*
X169388331Y-49227426D01*
X169390791Y-49223248D01*
X169377618Y-49200449D01*
X169338758Y-49157113D01*
X169281161Y-49100667D01*
X169245684Y-49068215D01*
X169096329Y-48934671D01*
X169021986Y-48970122D01*
X168947644Y-49005573D01*
X168947644Y-49205739D01*
X168947644Y-49405904D01*
X167068237Y-49405904D01*
X166982520Y-49229669D01*
X168168046Y-49229669D01*
X168251627Y-49282175D01*
X168336964Y-49328209D01*
X168432037Y-49367945D01*
X168520616Y-49395295D01*
X168576959Y-49404208D01*
X168599607Y-49402907D01*
X168613774Y-49391690D01*
X168621431Y-49362486D01*
X168624550Y-49307225D01*
X168625100Y-49217835D01*
X168625091Y-49207131D01*
X168624872Y-49008358D01*
X168544507Y-48974833D01*
X168464142Y-48941307D01*
X168316094Y-49085488D01*
X168168046Y-49229669D01*
X166982520Y-49229669D01*
X166945537Y-49153631D01*
X166852009Y-48867232D01*
X166848272Y-48852290D01*
X166824378Y-48714243D01*
X166813862Y-48578578D01*
X167765822Y-48578578D01*
X167774690Y-48629619D01*
X167797601Y-48700425D01*
X167829890Y-48780900D01*
X167866896Y-48860951D01*
X167903956Y-48930482D01*
X167936408Y-48979400D01*
X167959375Y-48997613D01*
X167978536Y-48983303D01*
X168020409Y-48944866D01*
X168077802Y-48889041D01*
X168114173Y-48852563D01*
X168180334Y-48784856D01*
X168220802Y-48739291D01*
X168240084Y-48707426D01*
X168241603Y-48691874D01*
X169343139Y-48691874D01*
X169357621Y-48721605D01*
X169391908Y-48762728D01*
X169450576Y-48823426D01*
X169475141Y-48848215D01*
X169550926Y-48922045D01*
X169605249Y-48963219D01*
X169645849Y-48970616D01*
X169680465Y-48943114D01*
X169716835Y-48879593D01*
X169749558Y-48808448D01*
X169781566Y-48732482D01*
X169807482Y-48663405D01*
X169818780Y-48626928D01*
X169833352Y-48567833D01*
X169607995Y-48567833D01*
X169382638Y-48567833D01*
X169355291Y-48633857D01*
X169343887Y-48665352D01*
X169343139Y-48691874D01*
X168241603Y-48691874D01*
X168242682Y-48680820D01*
X168233102Y-48651032D01*
X168228066Y-48639135D01*
X168198834Y-48570759D01*
X167982245Y-48563924D01*
X167877584Y-48562668D01*
X167805007Y-48566221D01*
X167768992Y-48574281D01*
X167765822Y-48578578D01*
X166813862Y-48578578D01*
X166811539Y-48548615D01*
X166809575Y-48369312D01*
X166816659Y-48224009D01*
X167746577Y-48224009D01*
X167979111Y-48224009D01*
X168211646Y-48224009D01*
X168225434Y-48155069D01*
X168229465Y-48120305D01*
X168228247Y-48114878D01*
X169348210Y-48114878D01*
X169357708Y-48146768D01*
X169360550Y-48154341D01*
X169386847Y-48224009D01*
X169605507Y-48224009D01*
X169824167Y-48224009D01*
X169806964Y-48147731D01*
X169787558Y-48085472D01*
X169756821Y-48011055D01*
X169720583Y-47936112D01*
X169684676Y-47872273D01*
X169654931Y-47831172D01*
X169644029Y-47822719D01*
X169618597Y-47832449D01*
X169571087Y-47866439D01*
X169509730Y-47918475D01*
X169476805Y-47948962D01*
X169409966Y-48013335D01*
X169369488Y-48056732D01*
X169350520Y-48087723D01*
X169348210Y-48114878D01*
X168228247Y-48114878D01*
X168222393Y-48088797D01*
X168199019Y-48051992D01*
X168154140Y-48001336D01*
X168095433Y-47941231D01*
X168031791Y-47879885D01*
X167978638Y-47833813D01*
X167943403Y-47809192D01*
X167934163Y-47807136D01*
X167905935Y-47839089D01*
X167869675Y-47899477D01*
X167831555Y-47976171D01*
X167797744Y-48057040D01*
X167779488Y-48111192D01*
X167746577Y-48224009D01*
X166816659Y-48224009D01*
X166818306Y-48190235D01*
X166837549Y-48025288D01*
X166860503Y-47912419D01*
X166957489Y-47619205D01*
X166979162Y-47575157D01*
X168174443Y-47575157D01*
X168319292Y-47716545D01*
X168383093Y-47777810D01*
X168435001Y-47825762D01*
X168467716Y-47853754D01*
X168474886Y-47858234D01*
X168498454Y-47848290D01*
X168543273Y-47823288D01*
X168555470Y-47815954D01*
X168625309Y-47773372D01*
X168625309Y-47579655D01*
X168624586Y-47487661D01*
X168621213Y-47430468D01*
X168613389Y-47399908D01*
X168599310Y-47387811D01*
X168582557Y-47385938D01*
X168533276Y-47395298D01*
X168460270Y-47419519D01*
X168377508Y-47452811D01*
X168298957Y-47489384D01*
X168238585Y-47523451D01*
X168222592Y-47535132D01*
X168174443Y-47575157D01*
X166979162Y-47575157D01*
X167074907Y-47380566D01*
X168947644Y-47380566D01*
X168947644Y-47587398D01*
X168948483Y-47683740D01*
X168951938Y-47744885D01*
X168959415Y-47778595D01*
X168972322Y-47792634D01*
X168985250Y-47794913D01*
X169031787Y-47807995D01*
X169064569Y-47827146D01*
X169101402Y-47851506D01*
X169118912Y-47858696D01*
X169138575Y-47844403D01*
X169180760Y-47806087D01*
X169238084Y-47750592D01*
X169270600Y-47718053D01*
X169409658Y-47577410D01*
X169355935Y-47535643D01*
X169298984Y-47501256D01*
X169216310Y-47462755D01*
X169123827Y-47426675D01*
X169037450Y-47399551D01*
X169007294Y-47392496D01*
X168947644Y-47380566D01*
X167074907Y-47380566D01*
X167090300Y-47349281D01*
X167258203Y-47103748D01*
X167460466Y-46883711D01*
X167647549Y-46726008D01*
X167877742Y-46578461D01*
X168122217Y-46469251D01*
X168377043Y-46397782D01*
X168638292Y-46363463D01*
X168902033Y-46365699D01*
G37*
G36*
X169647025Y-43475237D02*
G01*
X169885006Y-43476097D01*
X170104545Y-43477474D01*
X170302212Y-43479321D01*
X170474580Y-43481593D01*
X170618219Y-43484242D01*
X170729701Y-43487222D01*
X170805599Y-43490488D01*
X170842482Y-43493991D01*
X170844497Y-43494557D01*
X170915187Y-43538095D01*
X170988684Y-43610963D01*
X171054558Y-43701601D01*
X171088565Y-43765044D01*
X171111116Y-43818545D01*
X171144984Y-43904348D01*
X171187043Y-44014273D01*
X171234170Y-44140142D01*
X171283241Y-44273776D01*
X171289731Y-44291655D01*
X171380923Y-44543056D01*
X171458745Y-44757080D01*
X171524403Y-44936779D01*
X171579104Y-45085207D01*
X171624053Y-45205417D01*
X171660457Y-45300463D01*
X171689522Y-45373397D01*
X171712453Y-45427272D01*
X171730457Y-45465143D01*
X171744740Y-45490062D01*
X171756508Y-45505083D01*
X171766967Y-45513258D01*
X171773484Y-45516290D01*
X171792932Y-45522100D01*
X171824133Y-45528441D01*
X171871044Y-45535792D01*
X171937618Y-45544629D01*
X172027812Y-45555428D01*
X172145582Y-45568666D01*
X172294883Y-45584820D01*
X172479670Y-45604366D01*
X172665241Y-45623758D01*
X172821197Y-45640032D01*
X172990451Y-45657753D01*
X173157230Y-45675267D01*
X173305764Y-45690917D01*
X173374378Y-45698175D01*
X173487574Y-45709948D01*
X173587018Y-45719869D01*
X173664152Y-45727118D01*
X173710420Y-45730871D01*
X173718202Y-45731210D01*
X173728505Y-45726264D01*
X173736399Y-45708191D01*
X173742189Y-45672155D01*
X173746182Y-45613319D01*
X173748682Y-45526845D01*
X173749996Y-45407896D01*
X173750428Y-45251636D01*
X173750436Y-45220889D01*
X173750636Y-45058735D01*
X173751549Y-44933549D01*
X173753643Y-44839319D01*
X173757385Y-44770037D01*
X173763246Y-44719692D01*
X173771692Y-44682274D01*
X173783193Y-44651773D01*
X173796903Y-44624602D01*
X173889844Y-44496290D01*
X174012391Y-44397577D01*
X174161036Y-44330669D01*
X174314290Y-44299462D01*
X174413572Y-44293807D01*
X174478387Y-44305032D01*
X174515579Y-44338165D01*
X174531991Y-44398237D01*
X174534785Y-44461504D01*
X174532841Y-44570100D01*
X174524746Y-44643466D01*
X174507104Y-44689262D01*
X174476519Y-44715148D01*
X174429595Y-44728783D01*
X174415255Y-44731124D01*
X174334030Y-44748772D01*
X174278473Y-44778128D01*
X174242926Y-44826979D01*
X174221733Y-44903109D01*
X174209235Y-45014304D01*
X174209208Y-45014667D01*
X174202463Y-45123908D01*
X174197602Y-45244907D01*
X174194643Y-45369602D01*
X174193607Y-45489928D01*
X174194512Y-45597821D01*
X174197378Y-45685217D01*
X174202224Y-45744053D01*
X174207406Y-45764951D01*
X174232599Y-45773816D01*
X174294098Y-45785620D01*
X174385409Y-45799411D01*
X174500035Y-45814239D01*
X174631481Y-45829150D01*
X174679384Y-45834123D01*
X174856387Y-45853000D01*
X174995904Y-45870792D01*
X175103326Y-45889321D01*
X175184044Y-45910413D01*
X175243452Y-45935891D01*
X175286942Y-45967580D01*
X175319904Y-46007304D01*
X175347733Y-46056886D01*
X175349676Y-46060873D01*
X175367351Y-46101065D01*
X175379573Y-46141866D01*
X175387130Y-46191663D01*
X175390808Y-46258846D01*
X175391393Y-46351804D01*
X175389674Y-46478924D01*
X175389547Y-46486000D01*
X175386720Y-46613270D01*
X175383102Y-46703309D01*
X175378011Y-46761862D01*
X175370766Y-46794675D01*
X175360684Y-46807493D01*
X175351367Y-46807590D01*
X175315489Y-46797686D01*
X175251630Y-46780048D01*
X175173233Y-46758390D01*
X175168710Y-46757141D01*
X175025284Y-46727751D01*
X174855421Y-46709032D01*
X174674438Y-46701469D01*
X174497652Y-46705549D01*
X174340379Y-46721756D01*
X174297018Y-46729513D01*
X174041503Y-46802796D01*
X173798717Y-46914849D01*
X173572908Y-47062312D01*
X173368321Y-47241822D01*
X173189205Y-47450017D01*
X173039805Y-47683536D01*
X173003762Y-47753235D01*
X172920005Y-47953686D01*
X172858906Y-48171263D01*
X172817588Y-48416532D01*
X172813388Y-48452165D01*
X172788283Y-48675278D01*
X171956314Y-48675278D01*
X171124346Y-48675278D01*
X171112098Y-48369060D01*
X171104956Y-48241863D01*
X171094239Y-48114314D01*
X171081329Y-48000264D01*
X171067605Y-47913565D01*
X171065863Y-47905164D01*
X170977436Y-47589093D01*
X170854743Y-47296752D01*
X170700003Y-47029958D01*
X170515434Y-46790533D01*
X170303254Y-46580297D01*
X170065681Y-46401069D01*
X169804933Y-46254671D01*
X169523229Y-46142921D01*
X169222787Y-46067641D01*
X168905825Y-46030650D01*
X168776938Y-46026990D01*
X168470923Y-46043528D01*
X168182489Y-46096659D01*
X167907150Y-46187923D01*
X167640418Y-46318855D01*
X167377806Y-46490994D01*
X167339938Y-46519364D01*
X167262072Y-46576297D01*
X167193811Y-46622002D01*
X167144068Y-46650741D01*
X167125048Y-46657691D01*
X167028813Y-46653429D01*
X166955734Y-46623128D01*
X166924634Y-46597944D01*
X166868922Y-46518541D01*
X166852759Y-46427455D01*
X166871147Y-46347758D01*
X166918223Y-46273741D01*
X166998947Y-46188450D01*
X167107072Y-46096601D01*
X167236352Y-46002907D01*
X167380541Y-45912083D01*
X167533394Y-45828845D01*
X167603290Y-45795140D01*
X167682885Y-45756681D01*
X167745138Y-45723392D01*
X167781445Y-45700043D01*
X167787238Y-45693134D01*
X167791079Y-45667547D01*
X167802134Y-45603561D01*
X167803633Y-45595153D01*
X168298196Y-45595153D01*
X168456380Y-45575235D01*
X168537052Y-45568700D01*
X168647500Y-45564719D01*
X168774585Y-45563536D01*
X168905169Y-45565393D01*
X168936900Y-45566364D01*
X169052868Y-45571207D01*
X169155556Y-45577116D01*
X169236340Y-45583474D01*
X169286595Y-45589661D01*
X169296840Y-45592180D01*
X169306567Y-45593904D01*
X169314459Y-45588022D01*
X169320709Y-45570569D01*
X169325505Y-45537579D01*
X169329039Y-45485087D01*
X169331502Y-45409128D01*
X169333083Y-45305736D01*
X169333974Y-45170946D01*
X169334365Y-45000793D01*
X169334446Y-44809557D01*
X169334446Y-44012165D01*
X169774971Y-44012165D01*
X169775372Y-44849563D01*
X169776017Y-45071873D01*
X169777685Y-45264825D01*
X169780316Y-45425990D01*
X169783849Y-45552941D01*
X169788222Y-45643251D01*
X169793375Y-45694490D01*
X169796861Y-45705512D01*
X169827518Y-45723443D01*
X169883855Y-45749759D01*
X169929323Y-45768862D01*
X170151068Y-45876888D01*
X170373976Y-46020942D01*
X170590725Y-46194922D01*
X170793994Y-46392726D01*
X170976459Y-46608249D01*
X171038988Y-46693768D01*
X171148598Y-46850413D01*
X171299856Y-46844191D01*
X171451113Y-46837969D01*
X171457137Y-46549241D01*
X171463160Y-46260513D01*
X171202403Y-45528513D01*
X171134668Y-45338509D01*
X171064689Y-45142466D01*
X170995461Y-44948757D01*
X170929979Y-44765757D01*
X170871239Y-44601837D01*
X170822236Y-44465372D01*
X170800263Y-44404339D01*
X170658880Y-44012165D01*
X170216925Y-44012165D01*
X169774971Y-44012165D01*
X169334446Y-44012165D01*
X168961161Y-44012165D01*
X168587876Y-44012165D01*
X168552011Y-44200194D01*
X168501219Y-44467173D01*
X168455293Y-44709987D01*
X168414722Y-44925998D01*
X168379993Y-45112567D01*
X168351595Y-45267057D01*
X168330019Y-45386828D01*
X168315752Y-45469244D01*
X168309806Y-45507424D01*
X168298196Y-45595153D01*
X167803633Y-45595153D01*
X167819702Y-45505020D01*
X167843080Y-45375770D01*
X167871565Y-45219654D01*
X167904457Y-45040517D01*
X167941053Y-44842203D01*
X167980651Y-44628555D01*
X168022549Y-44403419D01*
X168032667Y-44349186D01*
X168052665Y-44240872D01*
X168069453Y-44147706D01*
X168081597Y-44077823D01*
X168087661Y-44039359D01*
X168088084Y-44034957D01*
X168068734Y-44023376D01*
X168019080Y-44012319D01*
X167976543Y-44006915D01*
X167874733Y-43980294D01*
X167800946Y-43927599D01*
X167756350Y-43856311D01*
X167742112Y-43773911D01*
X167759399Y-43687877D01*
X167809376Y-43605691D01*
X167893213Y-43534832D01*
X167902063Y-43529498D01*
X167995159Y-43474940D01*
X169394030Y-43474940D01*
X169647025Y-43475237D01*
G37*
D13*
X174742800Y-89246400D02*
X176072800Y-89246400D01*
X174742800Y-90576400D02*
X174742800Y-89246400D01*
X174742800Y-91846400D02*
X174742800Y-91906400D01*
X174742800Y-91846400D02*
X177402800Y-91846400D01*
X174742800Y-91906400D02*
X177402800Y-91906400D01*
X177402800Y-91846400D02*
X177402800Y-91906400D01*
X191109600Y-61444000D02*
X191109600Y-60794000D01*
X189989600Y-60794000D02*
X192229600Y-60794000D01*
X192229600Y-60794000D02*
X192229600Y-56554000D01*
X189989600Y-60194000D02*
X192229600Y-60194000D01*
X189989600Y-60074000D02*
X192229600Y-60074000D01*
X189989600Y-59954000D02*
X192229600Y-59954000D01*
X189989600Y-56554000D02*
X189989600Y-60794000D01*
X192229600Y-56554000D02*
X189989600Y-56554000D01*
X191109600Y-55904000D02*
X191109600Y-56554000D01*
X179518000Y-73447600D02*
X180848000Y-73447600D01*
X179518000Y-74777600D02*
X179518000Y-73447600D01*
X179518000Y-76047600D02*
X179518000Y-76107600D01*
X179518000Y-76047600D02*
X182178000Y-76047600D01*
X179518000Y-76107600D02*
X182178000Y-76107600D01*
X182178000Y-76047600D02*
X182178000Y-76107600D01*
X188690000Y-78700000D02*
X184049000Y-78700000D01*
X188690000Y-78700000D02*
X188690000Y-88940000D01*
X187180000Y-78700000D02*
X187180000Y-88940000D01*
X184049000Y-78700000D02*
X184049000Y-88940000D01*
X188690000Y-81970000D02*
X187180000Y-81970000D01*
X188690000Y-85671000D02*
X187180000Y-85671000D01*
X188690000Y-88940000D02*
X184049000Y-88940000D01*
X236270800Y-92038400D02*
X236270800Y-91128400D01*
X233550800Y-91128400D02*
X238990800Y-91128400D01*
X238990800Y-91128400D02*
X238990800Y-81388400D01*
X233550800Y-89703400D02*
X238990800Y-89703400D01*
X233550800Y-89583400D02*
X238990800Y-89583400D01*
X233550800Y-89463400D02*
X238990800Y-89463400D01*
X233550800Y-81388400D02*
X233550800Y-91128400D01*
X238990800Y-81388400D02*
X233550800Y-81388400D01*
X236270800Y-80478400D02*
X236270800Y-81388400D01*
X162306000Y-77954000D02*
X162306000Y-77184000D01*
X160936000Y-77184000D02*
X163676000Y-77184000D01*
X163676000Y-77184000D02*
X163676000Y-70644000D01*
X160936000Y-70644000D02*
X160936000Y-77184000D01*
X163676000Y-70644000D02*
X160936000Y-70644000D01*
X162306000Y-69874000D02*
X162306000Y-70644000D01*
X213488400Y-70967600D02*
X212838400Y-70967600D01*
X212838400Y-72087600D02*
X212838400Y-69847600D01*
X212838400Y-69847600D02*
X208598400Y-69847600D01*
X212238400Y-72087600D02*
X212238400Y-69847600D01*
X212118400Y-72087600D02*
X212118400Y-69847600D01*
X211998400Y-72087600D02*
X211998400Y-69847600D01*
X208598400Y-72087600D02*
X212838400Y-72087600D01*
X208598400Y-69847600D02*
X208598400Y-72087600D01*
X207948400Y-70967600D02*
X208598400Y-70967600D01*
X235526400Y-74320400D02*
X236516400Y-74320400D01*
X236516400Y-72400400D02*
X236516400Y-76240400D01*
X236516400Y-76240400D02*
X244356400Y-76240400D01*
X237656400Y-72400400D02*
X237656400Y-76240400D01*
X237776400Y-72400400D02*
X237776400Y-76240400D01*
X237896400Y-72400400D02*
X237896400Y-76240400D01*
X244356400Y-72400400D02*
X236516400Y-72400400D01*
X244356400Y-76240400D02*
X244356400Y-72400400D01*
X245346400Y-74320400D02*
X244356400Y-74320400D01*
X217567200Y-71180000D02*
X217567200Y-69850000D01*
X218897200Y-71180000D02*
X217567200Y-71180000D01*
X220167200Y-71180000D02*
X232927200Y-71180000D01*
X220167200Y-71180000D02*
X220167200Y-68520000D01*
X232927200Y-71180000D02*
X232927200Y-68520000D01*
X220167200Y-68520000D02*
X232927200Y-68520000D01*
X187824288Y-94591400D02*
X187324288Y-94591400D01*
X187574288Y-94841400D02*
X187574288Y-94341400D01*
X185019513Y-95696400D02*
X185019513Y-90536400D01*
X184979513Y-95696400D02*
X184979513Y-90536400D01*
X184939513Y-95695400D02*
X184939513Y-90537400D01*
X184899513Y-95694400D02*
X184899513Y-90538400D01*
X184859513Y-95692400D02*
X184859513Y-90540400D01*
X184819513Y-95689400D02*
X184819513Y-90543400D01*
X184779513Y-95685400D02*
X184779513Y-94156400D01*
X184779513Y-92076400D02*
X184779513Y-90547400D01*
X184739513Y-95681400D02*
X184739513Y-94156400D01*
X184739513Y-92076400D02*
X184739513Y-90551400D01*
X184699513Y-95677400D02*
X184699513Y-94156400D01*
X184699513Y-92076400D02*
X184699513Y-90555400D01*
X184659513Y-95672400D02*
X184659513Y-94156400D01*
X184659513Y-92076400D02*
X184659513Y-90560400D01*
X184619513Y-95666400D02*
X184619513Y-94156400D01*
X184619513Y-92076400D02*
X184619513Y-90566400D01*
X184579513Y-95659400D02*
X184579513Y-94156400D01*
X184579513Y-92076400D02*
X184579513Y-90573400D01*
X184539513Y-95652400D02*
X184539513Y-94156400D01*
X184539513Y-92076400D02*
X184539513Y-90580400D01*
X184499513Y-95644400D02*
X184499513Y-94156400D01*
X184499513Y-92076400D02*
X184499513Y-90588400D01*
X184459513Y-95636400D02*
X184459513Y-94156400D01*
X184459513Y-92076400D02*
X184459513Y-90596400D01*
X184419513Y-95627400D02*
X184419513Y-94156400D01*
X184419513Y-92076400D02*
X184419513Y-90605400D01*
X184379513Y-95617400D02*
X184379513Y-94156400D01*
X184379513Y-92076400D02*
X184379513Y-90615400D01*
X184339513Y-95607400D02*
X184339513Y-94156400D01*
X184339513Y-92076400D02*
X184339513Y-90625400D01*
X184298513Y-95596400D02*
X184298513Y-94156400D01*
X184298513Y-92076400D02*
X184298513Y-90636400D01*
X184258513Y-95584400D02*
X184258513Y-94156400D01*
X184258513Y-92076400D02*
X184258513Y-90648400D01*
X184218513Y-95571400D02*
X184218513Y-94156400D01*
X184218513Y-92076400D02*
X184218513Y-90661400D01*
X184178513Y-95558400D02*
X184178513Y-94156400D01*
X184178513Y-92076400D02*
X184178513Y-90674400D01*
X184138513Y-95544400D02*
X184138513Y-94156400D01*
X184138513Y-92076400D02*
X184138513Y-90688400D01*
X184098513Y-95530400D02*
X184098513Y-94156400D01*
X184098513Y-92076400D02*
X184098513Y-90702400D01*
X184058513Y-95514400D02*
X184058513Y-94156400D01*
X184058513Y-92076400D02*
X184058513Y-90718400D01*
X184018513Y-95498400D02*
X184018513Y-94156400D01*
X184018513Y-92076400D02*
X184018513Y-90734400D01*
X183978513Y-95481400D02*
X183978513Y-94156400D01*
X183978513Y-92076400D02*
X183978513Y-90751400D01*
X183938513Y-95464400D02*
X183938513Y-94156400D01*
X183938513Y-92076400D02*
X183938513Y-90768400D01*
X183898513Y-95445400D02*
X183898513Y-94156400D01*
X183898513Y-92076400D02*
X183898513Y-90787400D01*
X183858513Y-95426400D02*
X183858513Y-94156400D01*
X183858513Y-92076400D02*
X183858513Y-90806400D01*
X183818513Y-95406400D02*
X183818513Y-94156400D01*
X183818513Y-92076400D02*
X183818513Y-90826400D01*
X183778513Y-95384400D02*
X183778513Y-94156400D01*
X183778513Y-92076400D02*
X183778513Y-90848400D01*
X183738513Y-95363400D02*
X183738513Y-94156400D01*
X183738513Y-92076400D02*
X183738513Y-90869400D01*
X183698513Y-95340400D02*
X183698513Y-94156400D01*
X183698513Y-92076400D02*
X183698513Y-90892400D01*
X183658513Y-95316400D02*
X183658513Y-94156400D01*
X183658513Y-92076400D02*
X183658513Y-90916400D01*
X183618513Y-95291400D02*
X183618513Y-94156400D01*
X183618513Y-92076400D02*
X183618513Y-90941400D01*
X183578513Y-95265400D02*
X183578513Y-94156400D01*
X183578513Y-92076400D02*
X183578513Y-90967400D01*
X183538513Y-95238400D02*
X183538513Y-94156400D01*
X183538513Y-92076400D02*
X183538513Y-90994400D01*
X183498513Y-95211400D02*
X183498513Y-94156400D01*
X183498513Y-92076400D02*
X183498513Y-91021400D01*
X183458513Y-95181400D02*
X183458513Y-94156400D01*
X183458513Y-92076400D02*
X183458513Y-91051400D01*
X183418513Y-95151400D02*
X183418513Y-94156400D01*
X183418513Y-92076400D02*
X183418513Y-91081400D01*
X183378513Y-95120400D02*
X183378513Y-94156400D01*
X183378513Y-92076400D02*
X183378513Y-91112400D01*
X183338513Y-95087400D02*
X183338513Y-94156400D01*
X183338513Y-92076400D02*
X183338513Y-91145400D01*
X183298513Y-95053400D02*
X183298513Y-94156400D01*
X183298513Y-92076400D02*
X183298513Y-91179400D01*
X183258513Y-95017400D02*
X183258513Y-94156400D01*
X183258513Y-92076400D02*
X183258513Y-91215400D01*
X183218513Y-94980400D02*
X183218513Y-94156400D01*
X183218513Y-92076400D02*
X183218513Y-91252400D01*
X183178513Y-94942400D02*
X183178513Y-94156400D01*
X183178513Y-92076400D02*
X183178513Y-91290400D01*
X183138513Y-94901400D02*
X183138513Y-94156400D01*
X183138513Y-92076400D02*
X183138513Y-91331400D01*
X183098513Y-94859400D02*
X183098513Y-94156400D01*
X183098513Y-92076400D02*
X183098513Y-91373400D01*
X183058513Y-94815400D02*
X183058513Y-94156400D01*
X183058513Y-92076400D02*
X183058513Y-91417400D01*
X183018513Y-94769400D02*
X183018513Y-94156400D01*
X183018513Y-92076400D02*
X183018513Y-91463400D01*
X182978513Y-94721400D02*
X182978513Y-94156400D01*
X182978513Y-92076400D02*
X182978513Y-91511400D01*
X182938513Y-94670400D02*
X182938513Y-94156400D01*
X182938513Y-92076400D02*
X182938513Y-91562400D01*
X182898513Y-94616400D02*
X182898513Y-94156400D01*
X182898513Y-92076400D02*
X182898513Y-91616400D01*
X182858513Y-94559400D02*
X182858513Y-94156400D01*
X182858513Y-92076400D02*
X182858513Y-91673400D01*
X182818513Y-94499400D02*
X182818513Y-94156400D01*
X182818513Y-92076400D02*
X182818513Y-91733400D01*
X182778513Y-94435400D02*
X182778513Y-94156400D01*
X182778513Y-92076400D02*
X182778513Y-91797400D01*
X182738513Y-94367400D02*
X182738513Y-94156400D01*
X182738513Y-92076400D02*
X182738513Y-91865400D01*
X182698513Y-94294400D02*
X182698513Y-91938400D01*
X182658513Y-94214400D02*
X182658513Y-92018400D01*
X182618513Y-94127400D02*
X182618513Y-92105400D01*
X182578513Y-94031400D02*
X182578513Y-92201400D01*
X182538513Y-93921400D02*
X182538513Y-92311400D01*
X182498513Y-93793400D02*
X182498513Y-92439400D01*
X182458513Y-93634400D02*
X182458513Y-92598400D01*
X182418513Y-93400400D02*
X182418513Y-92832400D01*
X187639513Y-93116400D02*
G75*
G03*
X182399513Y-93116400I-2620000J0D01*
G01*
X182399513Y-93116400D02*
G75*
G03*
X187639513Y-93116400I2620000J0D01*
G01*
X171907200Y-82983200D02*
X171907200Y-82213200D01*
X170537200Y-82213200D02*
X173277200Y-82213200D01*
X173277200Y-82213200D02*
X173277200Y-75673200D01*
X170537200Y-75673200D02*
X170537200Y-82213200D01*
X173277200Y-75673200D02*
X170537200Y-75673200D01*
X171907200Y-74903200D02*
X171907200Y-75673200D01*
X165480800Y-77397200D02*
X165480800Y-80997200D01*
X169930800Y-79197200D02*
G75*
G03*
X165492322Y-77358722I-2600000J0D01*
G01*
X165492322Y-81035678D02*
G75*
G03*
X169930800Y-79197200I1838478J1838478D01*
G01*
X162500000Y-64830000D02*
X162500000Y-63500000D01*
X163830000Y-64830000D02*
X162500000Y-64830000D01*
X165100000Y-64830000D02*
X180400000Y-64830000D01*
X165100000Y-64830000D02*
X165100000Y-62170000D01*
X180400000Y-64830000D02*
X180400000Y-62170000D01*
X165100000Y-62170000D02*
X180400000Y-62170000D01*
X165649600Y-89144800D02*
X166979600Y-89144800D01*
X165649600Y-90474800D02*
X165649600Y-89144800D01*
X165649600Y-91744800D02*
X165649600Y-91804800D01*
X165649600Y-91744800D02*
X168309600Y-91744800D01*
X165649600Y-91804800D02*
X168309600Y-91804800D01*
X168309600Y-91744800D02*
X168309600Y-91804800D01*
X186791600Y-53262400D02*
X186791600Y-54032400D01*
X188161600Y-54032400D02*
X185421600Y-54032400D01*
X185421600Y-54032400D02*
X185421600Y-60572400D01*
X188161600Y-60572400D02*
X188161600Y-54032400D01*
X185421600Y-60572400D02*
X188161600Y-60572400D01*
X186791600Y-61342400D02*
X186791600Y-60572400D01*
X178919200Y-84763600D02*
X179234200Y-84763600D01*
X178919200Y-84763600D02*
X178919200Y-79523600D01*
X181344200Y-84763600D02*
X181659200Y-84763600D01*
X181659200Y-84763600D02*
X181659200Y-79523600D01*
X178919200Y-79523600D02*
X179234200Y-79523600D01*
X181344200Y-79523600D02*
X181659200Y-79523600D01*
D11*
X232220000Y-94220000D02*
X189675000Y-94220000D01*
X189675000Y-94220000D02*
X189675000Y-73646000D01*
X189675000Y-73646000D02*
X232220000Y-73646000D01*
X232220000Y-73646000D02*
X232220000Y-94220000D01*
D13*
X190440000Y-47220000D02*
X190440000Y-45890000D01*
X191770000Y-47220000D02*
X190440000Y-47220000D01*
X193040000Y-47220000D02*
X241360000Y-47220000D01*
X193040000Y-47220000D02*
X193040000Y-44620000D01*
X241360000Y-47220000D02*
X241360000Y-42020000D01*
X190440000Y-44620000D02*
X190440000Y-42020000D01*
X193040000Y-44620000D02*
X190440000Y-44620000D01*
X190440000Y-42020000D02*
X241360000Y-42020000D01*
X241849600Y-48708000D02*
X243179600Y-48708000D01*
X241849600Y-50038000D02*
X241849600Y-48708000D01*
X241849600Y-51308000D02*
X241849600Y-53908000D01*
X241849600Y-51308000D02*
X244449600Y-51308000D01*
X241849600Y-53908000D02*
X247049600Y-53908000D01*
X244449600Y-48708000D02*
X247049600Y-48708000D01*
X244449600Y-51308000D02*
X244449600Y-48708000D01*
X247049600Y-48708000D02*
X247049600Y-53908000D01*
X200534400Y-71120000D02*
X199764400Y-71120000D01*
X199764400Y-72490000D02*
X199764400Y-69750000D01*
X199764400Y-69750000D02*
X193224400Y-69750000D01*
X193224400Y-72490000D02*
X199764400Y-72490000D01*
X193224400Y-69750000D02*
X193224400Y-72490000D01*
X192454400Y-71120000D02*
X193224400Y-71120000D01*
X194180000Y-67440000D02*
X196850000Y-67440000D01*
X199390000Y-67440000D02*
X237620000Y-67440000D01*
X237620000Y-67440000D02*
X237620000Y-62360000D01*
X196850000Y-64770000D02*
X196850000Y-67440000D01*
X199390000Y-64770000D02*
X199390000Y-67440000D01*
X199390000Y-64770000D02*
X196850000Y-64770000D01*
X199390000Y-64770000D02*
X234950000Y-64770000D01*
X234950000Y-64770000D02*
X234950000Y-67440000D01*
X229740000Y-62360000D02*
X229740000Y-54480000D01*
X240160000Y-62360000D02*
X229740000Y-62360000D01*
X229740000Y-54480000D02*
X240160000Y-54480000D01*
X240160000Y-54480000D02*
X240160000Y-62360000D01*
X196850000Y-52070000D02*
X234950000Y-52070000D01*
X196850000Y-52070000D02*
X196850000Y-49400000D01*
X234950000Y-52070000D02*
X234950000Y-49400000D01*
X194180000Y-49400000D02*
X194180000Y-67440000D01*
X237620000Y-49400000D02*
X237620000Y-54480000D01*
X237620000Y-49400000D02*
X194180000Y-49400000D01*
%LPC*%
D14*
X176072800Y-90576400D03*
D15*
X191109600Y-62484000D03*
D16*
X191109600Y-54864000D03*
D14*
X180848000Y-74777600D03*
D17*
X185420000Y-81280000D03*
D18*
X185420000Y-83820000D03*
X185420000Y-86360000D03*
D19*
X236270800Y-93878400D03*
D20*
X236270800Y-78638400D03*
D21*
X158100000Y-44620000D03*
D22*
X162306000Y-78994000D03*
D16*
X162306000Y-68834000D03*
D15*
X214528400Y-70967600D03*
D16*
X206908400Y-70967600D03*
D23*
X234086400Y-74320400D03*
D24*
X246786400Y-74320400D03*
D25*
X243840000Y-86812000D03*
D26*
X243840000Y-79612000D03*
D14*
X218897200Y-69850000D03*
D27*
X221437200Y-69850000D03*
X223977200Y-69850000D03*
X226517200Y-69850000D03*
X229057200Y-69850000D03*
X231597200Y-69850000D03*
D15*
X186269513Y-93116400D03*
D22*
X183769513Y-93116400D03*
D21*
X186900000Y-67620000D03*
X244900000Y-44620000D03*
D22*
X171907200Y-84023200D03*
D16*
X171907200Y-73863200D03*
D21*
X158100000Y-92800000D03*
D28*
X167330800Y-77927200D03*
D29*
X167330800Y-79197200D03*
X167330800Y-80467200D03*
D14*
X163830000Y-63500000D03*
D27*
X166370000Y-63500000D03*
X168910000Y-63500000D03*
X171450000Y-63500000D03*
X173990000Y-63500000D03*
X176530000Y-63500000D03*
X179070000Y-63500000D03*
D14*
X166979600Y-90474800D03*
D21*
X244900000Y-67620000D03*
X244900000Y-92800000D03*
D22*
X186791600Y-52222400D03*
D16*
X186791600Y-62382400D03*
D22*
X180289200Y-84643600D03*
X180289200Y-79643600D03*
D30*
X230720000Y-92720000D03*
X191170000Y-92720000D03*
X230720000Y-75220000D03*
X191170000Y-75220000D03*
D21*
X186900000Y-44620000D03*
D14*
X191770000Y-45890000D03*
D27*
X191770000Y-43350000D03*
X194310000Y-45890000D03*
X194310000Y-43350000D03*
X196850000Y-45890000D03*
X196850000Y-43350000D03*
X199390000Y-45890000D03*
X199390000Y-43350000D03*
X201930000Y-45890000D03*
X201930000Y-43350000D03*
X204470000Y-45890000D03*
X204470000Y-43350000D03*
X207010000Y-45890000D03*
X207010000Y-43350000D03*
X209550000Y-45890000D03*
X209550000Y-43350000D03*
X212090000Y-45890000D03*
X212090000Y-43350000D03*
X214630000Y-45890000D03*
X214630000Y-43350000D03*
X217170000Y-45890000D03*
X217170000Y-43350000D03*
X219710000Y-45890000D03*
X219710000Y-43350000D03*
X222250000Y-45890000D03*
X222250000Y-43350000D03*
X224790000Y-45890000D03*
X224790000Y-43350000D03*
X227330000Y-45890000D03*
X227330000Y-43350000D03*
X229870000Y-45890000D03*
X229870000Y-43350000D03*
X232410000Y-45890000D03*
X232410000Y-43350000D03*
X234950000Y-45890000D03*
X234950000Y-43350000D03*
X237490000Y-45890000D03*
X237490000Y-43350000D03*
X240030000Y-45890000D03*
X240030000Y-43350000D03*
D14*
X243179600Y-50038000D03*
D27*
X245719600Y-50038000D03*
X243179600Y-52578000D03*
X245719600Y-52578000D03*
D22*
X201574400Y-71120000D03*
D16*
X191414400Y-71120000D03*
D15*
X198120000Y-66040000D03*
D16*
X200660000Y-66040000D03*
X203200000Y-66040000D03*
X205740000Y-66040000D03*
X208280000Y-66040000D03*
X210820000Y-66040000D03*
X213360000Y-66040000D03*
X215900000Y-66040000D03*
X218440000Y-66040000D03*
X220980000Y-66040000D03*
X223520000Y-66040000D03*
X226060000Y-66040000D03*
X228600000Y-66040000D03*
X231140000Y-66040000D03*
X233680000Y-66040000D03*
X233680000Y-50800000D03*
X231140000Y-50800000D03*
X228600000Y-50800000D03*
X226060000Y-50800000D03*
X223520000Y-50800000D03*
X220980000Y-50800000D03*
X218440000Y-50800000D03*
X215900000Y-50800000D03*
X213360000Y-50800000D03*
X210820000Y-50800000D03*
X208280000Y-50800000D03*
X205740000Y-50800000D03*
X203200000Y-50800000D03*
X200660000Y-50800000D03*
X198120000Y-50800000D03*
%LPD*%
M02*
