G04 #@! TF.GenerationSoftware,KiCad,Pcbnew,7.0.11+dfsg-1build4*
G04 #@! TF.CreationDate,2025-04-03T15:14:43-04:00*
G04 #@! TF.ProjectId,trackteur_arduino_V1,74726163-6b74-4657-9572-5f6172647569,rev?*
G04 #@! TF.SameCoordinates,Original*
G04 #@! TF.FileFunction,Soldermask,Top*
G04 #@! TF.FilePolarity,Negative*
%FSLAX46Y46*%
G04 Gerber Fmt 4.6, Leading zero omitted, Abs format (unit mm)*
G04 Created by KiCad (PCBNEW 7.0.11+dfsg-1build4) date 2025-04-03 15:14:43*
%MOMM*%
%LPD*%
G01*
G04 APERTURE LIST*
G04 Aperture macros list*
%AMRoundRect*
0 Rectangle with rounded corners*
0 $1 Rounding radius*
0 $2 $3 $4 $5 $6 $7 $8 $9 X,Y pos of 4 corners*
0 Add a 4 corners polygon primitive as box body*
4,1,4,$2,$3,$4,$5,$6,$7,$8,$9,$2,$3,0*
0 Add four circle primitives for the rounded corners*
1,1,$1+$1,$2,$3*
1,1,$1+$1,$4,$5*
1,1,$1+$1,$6,$7*
1,1,$1+$1,$8,$9*
0 Add four rect primitives between the rounded corners*
20,1,$1+$1,$2,$3,$4,$5,0*
20,1,$1+$1,$4,$5,$6,$7,0*
20,1,$1+$1,$6,$7,$8,$9,0*
20,1,$1+$1,$8,$9,$2,$3,0*%
G04 Aperture macros list end*
%ADD10R,1.700000X1.700000*%
%ADD11R,1.600000X1.600000*%
%ADD12O,1.600000X1.600000*%
%ADD13R,2.000000X1.905000*%
%ADD14O,2.000000X1.905000*%
%ADD15R,3.200000X3.200000*%
%ADD16O,3.200000X3.200000*%
%ADD17C,2.700000*%
%ADD18C,1.600000*%
%ADD19R,2.400000X2.400000*%
%ADD20O,2.400000X2.400000*%
%ADD21RoundRect,0.250000X1.750000X-1.750000X1.750000X1.750000X-1.750000X1.750000X-1.750000X-1.750000X0*%
%ADD22C,4.000000*%
%ADD23O,1.700000X1.700000*%
%ADD24R,1.500000X1.050000*%
%ADD25O,1.500000X1.050000*%
%ADD26R,3.000000X3.000000*%
G04 APERTURE END LIST*
D10*
X176072800Y-90576400D03*
D11*
X191109600Y-62484000D03*
D12*
X191109600Y-54864000D03*
D10*
X180848000Y-74777600D03*
D13*
X185420000Y-81280000D03*
D14*
X185420000Y-83820000D03*
X185420000Y-86360000D03*
D15*
X236270800Y-93878400D03*
D16*
X236270800Y-78638400D03*
D17*
X158100000Y-44620000D03*
D18*
X162306000Y-78994000D03*
D12*
X162306000Y-68834000D03*
D11*
X214528400Y-70967600D03*
D12*
X206908400Y-70967600D03*
D19*
X234086400Y-74320400D03*
D20*
X246786400Y-74320400D03*
D21*
X243840000Y-86812000D03*
D22*
X243840000Y-79612000D03*
D10*
X218897200Y-69850000D03*
D23*
X221437200Y-69850000D03*
X223977200Y-69850000D03*
X226517200Y-69850000D03*
X229057200Y-69850000D03*
X231597200Y-69850000D03*
D11*
X186269513Y-93116400D03*
D18*
X183769513Y-93116400D03*
D17*
X186900000Y-67620000D03*
X244900000Y-44620000D03*
D18*
X171907200Y-84023200D03*
D12*
X171907200Y-73863200D03*
D17*
X158100000Y-92800000D03*
D24*
X167330800Y-77927200D03*
D25*
X167330800Y-79197200D03*
X167330800Y-80467200D03*
D10*
X163830000Y-63500000D03*
D23*
X166370000Y-63500000D03*
X168910000Y-63500000D03*
X171450000Y-63500000D03*
X173990000Y-63500000D03*
X176530000Y-63500000D03*
X179070000Y-63500000D03*
D10*
X166979600Y-90474800D03*
D17*
X244900000Y-67620000D03*
X244900000Y-92800000D03*
D18*
X186791600Y-52222400D03*
D12*
X186791600Y-62382400D03*
D18*
X180289200Y-84643600D03*
X180289200Y-79643600D03*
D26*
X230720000Y-92720000D03*
X191170000Y-92720000D03*
X230720000Y-75220000D03*
X191170000Y-75220000D03*
D17*
X186900000Y-44620000D03*
D10*
X191770000Y-45890000D03*
D23*
X191770000Y-43350000D03*
X194310000Y-45890000D03*
X194310000Y-43350000D03*
X196850000Y-45890000D03*
X196850000Y-43350000D03*
X199390000Y-45890000D03*
X199390000Y-43350000D03*
X201930000Y-45890000D03*
X201930000Y-43350000D03*
X204470000Y-45890000D03*
X204470000Y-43350000D03*
X207010000Y-45890000D03*
X207010000Y-43350000D03*
X209550000Y-45890000D03*
X209550000Y-43350000D03*
X212090000Y-45890000D03*
X212090000Y-43350000D03*
X214630000Y-45890000D03*
X214630000Y-43350000D03*
X217170000Y-45890000D03*
X217170000Y-43350000D03*
X219710000Y-45890000D03*
X219710000Y-43350000D03*
X222250000Y-45890000D03*
X222250000Y-43350000D03*
X224790000Y-45890000D03*
X224790000Y-43350000D03*
X227330000Y-45890000D03*
X227330000Y-43350000D03*
X229870000Y-45890000D03*
X229870000Y-43350000D03*
X232410000Y-45890000D03*
X232410000Y-43350000D03*
X234950000Y-45890000D03*
X234950000Y-43350000D03*
X237490000Y-45890000D03*
X237490000Y-43350000D03*
X240030000Y-45890000D03*
X240030000Y-43350000D03*
D10*
X243179600Y-50038000D03*
D23*
X245719600Y-50038000D03*
X243179600Y-52578000D03*
X245719600Y-52578000D03*
D18*
X201574400Y-71120000D03*
D12*
X191414400Y-71120000D03*
D11*
X198120000Y-66040000D03*
D12*
X200660000Y-66040000D03*
X203200000Y-66040000D03*
X205740000Y-66040000D03*
X208280000Y-66040000D03*
X210820000Y-66040000D03*
X213360000Y-66040000D03*
X215900000Y-66040000D03*
X218440000Y-66040000D03*
X220980000Y-66040000D03*
X223520000Y-66040000D03*
X226060000Y-66040000D03*
X228600000Y-66040000D03*
X231140000Y-66040000D03*
X233680000Y-66040000D03*
X233680000Y-50800000D03*
X231140000Y-50800000D03*
X228600000Y-50800000D03*
X226060000Y-50800000D03*
X223520000Y-50800000D03*
X220980000Y-50800000D03*
X218440000Y-50800000D03*
X215900000Y-50800000D03*
X213360000Y-50800000D03*
X210820000Y-50800000D03*
X208280000Y-50800000D03*
X205740000Y-50800000D03*
X203200000Y-50800000D03*
X200660000Y-50800000D03*
X198120000Y-50800000D03*
M02*
