G04 #@! TF.GenerationSoftware,KiCad,Pcbnew,7.0.11+dfsg-1build4*
G04 #@! TF.CreationDate,2025-04-03T15:14:43-04:00*
G04 #@! TF.ProjectId,trackteur_arduino_V1,74726163-6b74-4657-9572-5f6172647569,rev?*
G04 #@! TF.SameCoordinates,Original*
G04 #@! TF.FileFunction,Legend,Bot*
G04 #@! TF.FilePolarity,Positive*
%FSLAX46Y46*%
G04 Gerber Fmt 4.6, Leading zero omitted, Abs format (unit mm)*
G04 Created by KiCad (PCBNEW 7.0.11+dfsg-1build4) date 2025-04-03 15:14:43*
%MOMM*%
%LPD*%
G01*
G04 APERTURE LIST*
G04 Aperture macros list*
%AMRoundRect*
0 Rectangle with rounded corners*
0 $1 Rounding radius*
0 $2 $3 $4 $5 $6 $7 $8 $9 X,Y pos of 4 corners*
0 Add a 4 corners polygon primitive as box body*
4,1,4,$2,$3,$4,$5,$6,$7,$8,$9,$2,$3,0*
0 Add four circle primitives for the rounded corners*
1,1,$1+$1,$2,$3*
1,1,$1+$1,$4,$5*
1,1,$1+$1,$6,$7*
1,1,$1+$1,$8,$9*
0 Add four rect primitives between the rounded corners*
20,1,$1+$1,$2,$3,$4,$5,0*
20,1,$1+$1,$4,$5,$6,$7,0*
20,1,$1+$1,$6,$7,$8,$9,0*
20,1,$1+$1,$8,$9,$2,$3,0*%
G04 Aperture macros list end*
%ADD10C,0.100000*%
%ADD11C,0.200000*%
%ADD12C,0.300000*%
%ADD13R,1.700000X1.700000*%
%ADD14R,1.600000X1.600000*%
%ADD15O,1.600000X1.600000*%
%ADD16R,2.000000X1.905000*%
%ADD17O,2.000000X1.905000*%
%ADD18R,3.200000X3.200000*%
%ADD19O,3.200000X3.200000*%
%ADD20C,2.700000*%
%ADD21C,1.600000*%
%ADD22R,2.400000X2.400000*%
%ADD23O,2.400000X2.400000*%
%ADD24RoundRect,0.250000X1.750000X-1.750000X1.750000X1.750000X-1.750000X1.750000X-1.750000X-1.750000X0*%
%ADD25C,4.000000*%
%ADD26O,1.700000X1.700000*%
%ADD27R,1.500000X1.050000*%
%ADD28O,1.500000X1.050000*%
%ADD29R,3.000000X3.000000*%
G04 APERTURE END LIST*
D10*
X156017419Y-65567143D02*
X156017419Y-65090953D01*
X156017419Y-65090953D02*
X156493609Y-65043334D01*
X156493609Y-65043334D02*
X156445990Y-65090953D01*
X156445990Y-65090953D02*
X156398371Y-65186191D01*
X156398371Y-65186191D02*
X156398371Y-65424286D01*
X156398371Y-65424286D02*
X156445990Y-65519524D01*
X156445990Y-65519524D02*
X156493609Y-65567143D01*
X156493609Y-65567143D02*
X156588847Y-65614762D01*
X156588847Y-65614762D02*
X156826942Y-65614762D01*
X156826942Y-65614762D02*
X156922180Y-65567143D01*
X156922180Y-65567143D02*
X156969800Y-65519524D01*
X156969800Y-65519524D02*
X157017419Y-65424286D01*
X157017419Y-65424286D02*
X157017419Y-65186191D01*
X157017419Y-65186191D02*
X156969800Y-65090953D01*
X156969800Y-65090953D02*
X156922180Y-65043334D01*
X156017419Y-66471905D02*
X156017419Y-66281429D01*
X156017419Y-66281429D02*
X156065038Y-66186191D01*
X156065038Y-66186191D02*
X156112657Y-66138572D01*
X156112657Y-66138572D02*
X156255514Y-66043334D01*
X156255514Y-66043334D02*
X156445990Y-65995715D01*
X156445990Y-65995715D02*
X156826942Y-65995715D01*
X156826942Y-65995715D02*
X156922180Y-66043334D01*
X156922180Y-66043334D02*
X156969800Y-66090953D01*
X156969800Y-66090953D02*
X157017419Y-66186191D01*
X157017419Y-66186191D02*
X157017419Y-66376667D01*
X157017419Y-66376667D02*
X156969800Y-66471905D01*
X156969800Y-66471905D02*
X156922180Y-66519524D01*
X156922180Y-66519524D02*
X156826942Y-66567143D01*
X156826942Y-66567143D02*
X156588847Y-66567143D01*
X156588847Y-66567143D02*
X156493609Y-66519524D01*
X156493609Y-66519524D02*
X156445990Y-66471905D01*
X156445990Y-66471905D02*
X156398371Y-66376667D01*
X156398371Y-66376667D02*
X156398371Y-66186191D01*
X156398371Y-66186191D02*
X156445990Y-66090953D01*
X156445990Y-66090953D02*
X156493609Y-66043334D01*
X156493609Y-66043334D02*
X156588847Y-65995715D01*
X156969800Y-67043334D02*
X157017419Y-67043334D01*
X157017419Y-67043334D02*
X157112657Y-66995715D01*
X157112657Y-66995715D02*
X157160276Y-66948096D01*
X156017419Y-67376667D02*
X156017419Y-68043333D01*
X156017419Y-68043333D02*
X157017419Y-67614762D01*
X156445990Y-68567143D02*
X156398371Y-68471905D01*
X156398371Y-68471905D02*
X156350752Y-68424286D01*
X156350752Y-68424286D02*
X156255514Y-68376667D01*
X156255514Y-68376667D02*
X156207895Y-68376667D01*
X156207895Y-68376667D02*
X156112657Y-68424286D01*
X156112657Y-68424286D02*
X156065038Y-68471905D01*
X156065038Y-68471905D02*
X156017419Y-68567143D01*
X156017419Y-68567143D02*
X156017419Y-68757619D01*
X156017419Y-68757619D02*
X156065038Y-68852857D01*
X156065038Y-68852857D02*
X156112657Y-68900476D01*
X156112657Y-68900476D02*
X156207895Y-68948095D01*
X156207895Y-68948095D02*
X156255514Y-68948095D01*
X156255514Y-68948095D02*
X156350752Y-68900476D01*
X156350752Y-68900476D02*
X156398371Y-68852857D01*
X156398371Y-68852857D02*
X156445990Y-68757619D01*
X156445990Y-68757619D02*
X156445990Y-68567143D01*
X156445990Y-68567143D02*
X156493609Y-68471905D01*
X156493609Y-68471905D02*
X156541228Y-68424286D01*
X156541228Y-68424286D02*
X156636466Y-68376667D01*
X156636466Y-68376667D02*
X156826942Y-68376667D01*
X156826942Y-68376667D02*
X156922180Y-68424286D01*
X156922180Y-68424286D02*
X156969800Y-68471905D01*
X156969800Y-68471905D02*
X157017419Y-68567143D01*
X157017419Y-68567143D02*
X157017419Y-68757619D01*
X157017419Y-68757619D02*
X156969800Y-68852857D01*
X156969800Y-68852857D02*
X156922180Y-68900476D01*
X156922180Y-68900476D02*
X156826942Y-68948095D01*
X156826942Y-68948095D02*
X156636466Y-68948095D01*
X156636466Y-68948095D02*
X156541228Y-68900476D01*
X156541228Y-68900476D02*
X156493609Y-68852857D01*
X156493609Y-68852857D02*
X156445990Y-68757619D01*
X157017419Y-70138572D02*
X156350752Y-70138572D01*
X156445990Y-70138572D02*
X156398371Y-70186191D01*
X156398371Y-70186191D02*
X156350752Y-70281429D01*
X156350752Y-70281429D02*
X156350752Y-70424286D01*
X156350752Y-70424286D02*
X156398371Y-70519524D01*
X156398371Y-70519524D02*
X156493609Y-70567143D01*
X156493609Y-70567143D02*
X157017419Y-70567143D01*
X156493609Y-70567143D02*
X156398371Y-70614762D01*
X156398371Y-70614762D02*
X156350752Y-70710000D01*
X156350752Y-70710000D02*
X156350752Y-70852857D01*
X156350752Y-70852857D02*
X156398371Y-70948096D01*
X156398371Y-70948096D02*
X156493609Y-70995715D01*
X156493609Y-70995715D02*
X157017419Y-70995715D01*
X157017419Y-71471905D02*
X156350752Y-71471905D01*
X156445990Y-71471905D02*
X156398371Y-71519524D01*
X156398371Y-71519524D02*
X156350752Y-71614762D01*
X156350752Y-71614762D02*
X156350752Y-71757619D01*
X156350752Y-71757619D02*
X156398371Y-71852857D01*
X156398371Y-71852857D02*
X156493609Y-71900476D01*
X156493609Y-71900476D02*
X157017419Y-71900476D01*
X156493609Y-71900476D02*
X156398371Y-71948095D01*
X156398371Y-71948095D02*
X156350752Y-72043333D01*
X156350752Y-72043333D02*
X156350752Y-72186190D01*
X156350752Y-72186190D02*
X156398371Y-72281429D01*
X156398371Y-72281429D02*
X156493609Y-72329048D01*
X156493609Y-72329048D02*
X157017419Y-72329048D01*
X157600000Y-97100000D02*
X157073580Y-97100000D01*
X157600000Y-40320000D02*
X157073580Y-40320000D01*
X157660000Y-97100000D02*
X157660000Y-40320000D01*
X157660000Y-97100000D02*
X157660000Y-40320000D01*
X157660000Y-97100000D02*
X157073579Y-95973496D01*
X157660000Y-97100000D02*
X158246421Y-95973496D01*
X157660000Y-40320000D02*
X158246421Y-41446504D01*
X157660000Y-40320000D02*
X157073579Y-41446504D01*
X204595237Y-92287419D02*
X204404761Y-92287419D01*
X204404761Y-92287419D02*
X204309523Y-92239800D01*
X204309523Y-92239800D02*
X204261904Y-92192180D01*
X204261904Y-92192180D02*
X204166666Y-92049323D01*
X204166666Y-92049323D02*
X204119047Y-91858847D01*
X204119047Y-91858847D02*
X204119047Y-91477895D01*
X204119047Y-91477895D02*
X204166666Y-91382657D01*
X204166666Y-91382657D02*
X204214285Y-91335038D01*
X204214285Y-91335038D02*
X204309523Y-91287419D01*
X204309523Y-91287419D02*
X204499999Y-91287419D01*
X204499999Y-91287419D02*
X204595237Y-91335038D01*
X204595237Y-91335038D02*
X204642856Y-91382657D01*
X204642856Y-91382657D02*
X204690475Y-91477895D01*
X204690475Y-91477895D02*
X204690475Y-91715990D01*
X204690475Y-91715990D02*
X204642856Y-91811228D01*
X204642856Y-91811228D02*
X204595237Y-91858847D01*
X204595237Y-91858847D02*
X204499999Y-91906466D01*
X204499999Y-91906466D02*
X204309523Y-91906466D01*
X204309523Y-91906466D02*
X204214285Y-91858847D01*
X204214285Y-91858847D02*
X204166666Y-91811228D01*
X204166666Y-91811228D02*
X204119047Y-91715990D01*
X203214285Y-91287419D02*
X203690475Y-91287419D01*
X203690475Y-91287419D02*
X203738094Y-91763609D01*
X203738094Y-91763609D02*
X203690475Y-91715990D01*
X203690475Y-91715990D02*
X203595237Y-91668371D01*
X203595237Y-91668371D02*
X203357142Y-91668371D01*
X203357142Y-91668371D02*
X203261904Y-91715990D01*
X203261904Y-91715990D02*
X203214285Y-91763609D01*
X203214285Y-91763609D02*
X203166666Y-91858847D01*
X203166666Y-91858847D02*
X203166666Y-92096942D01*
X203166666Y-92096942D02*
X203214285Y-92192180D01*
X203214285Y-92192180D02*
X203261904Y-92239800D01*
X203261904Y-92239800D02*
X203357142Y-92287419D01*
X203357142Y-92287419D02*
X203595237Y-92287419D01*
X203595237Y-92287419D02*
X203690475Y-92239800D01*
X203690475Y-92239800D02*
X203738094Y-92192180D01*
X202690475Y-92239800D02*
X202690475Y-92287419D01*
X202690475Y-92287419D02*
X202738094Y-92382657D01*
X202738094Y-92382657D02*
X202785713Y-92430276D01*
X201833333Y-91620752D02*
X201833333Y-92287419D01*
X202071428Y-91239800D02*
X202309523Y-91954085D01*
X202309523Y-91954085D02*
X201690476Y-91954085D01*
X200547618Y-92287419D02*
X200547618Y-91620752D01*
X200547618Y-91715990D02*
X200499999Y-91668371D01*
X200499999Y-91668371D02*
X200404761Y-91620752D01*
X200404761Y-91620752D02*
X200261904Y-91620752D01*
X200261904Y-91620752D02*
X200166666Y-91668371D01*
X200166666Y-91668371D02*
X200119047Y-91763609D01*
X200119047Y-91763609D02*
X200119047Y-92287419D01*
X200119047Y-91763609D02*
X200071428Y-91668371D01*
X200071428Y-91668371D02*
X199976190Y-91620752D01*
X199976190Y-91620752D02*
X199833333Y-91620752D01*
X199833333Y-91620752D02*
X199738094Y-91668371D01*
X199738094Y-91668371D02*
X199690475Y-91763609D01*
X199690475Y-91763609D02*
X199690475Y-92287419D01*
X199214285Y-92287419D02*
X199214285Y-91620752D01*
X199214285Y-91715990D02*
X199166666Y-91668371D01*
X199166666Y-91668371D02*
X199071428Y-91620752D01*
X199071428Y-91620752D02*
X198928571Y-91620752D01*
X198928571Y-91620752D02*
X198833333Y-91668371D01*
X198833333Y-91668371D02*
X198785714Y-91763609D01*
X198785714Y-91763609D02*
X198785714Y-92287419D01*
X198785714Y-91763609D02*
X198738095Y-91668371D01*
X198738095Y-91668371D02*
X198642857Y-91620752D01*
X198642857Y-91620752D02*
X198500000Y-91620752D01*
X198500000Y-91620752D02*
X198404761Y-91668371D01*
X198404761Y-91668371D02*
X198357142Y-91763609D01*
X198357142Y-91763609D02*
X198357142Y-92287419D01*
X249200000Y-93300000D02*
X249200000Y-93516420D01*
X153800000Y-93300000D02*
X153800000Y-93516420D01*
X249200000Y-92930000D02*
X153800000Y-92930000D01*
X249200000Y-92930000D02*
X153800000Y-92930000D01*
X249200000Y-92930000D02*
X248073496Y-93516421D01*
X249200000Y-92930000D02*
X248073496Y-92343579D01*
X153800000Y-92930000D02*
X154926504Y-92343579D01*
X153800000Y-92930000D02*
X154926504Y-93516421D01*
X157069046Y-48832776D02*
X157069046Y-49166109D01*
X157188094Y-48642300D02*
X157307141Y-48999442D01*
X157307141Y-48999442D02*
X156997618Y-48999442D01*
X156783332Y-49142300D02*
X156783332Y-49166109D01*
X156783332Y-49166109D02*
X156807142Y-49213728D01*
X156807142Y-49213728D02*
X156830951Y-49237538D01*
X156616666Y-48666109D02*
X156307142Y-48666109D01*
X156307142Y-48666109D02*
X156473809Y-48856585D01*
X156473809Y-48856585D02*
X156402380Y-48856585D01*
X156402380Y-48856585D02*
X156354761Y-48880395D01*
X156354761Y-48880395D02*
X156330952Y-48904204D01*
X156330952Y-48904204D02*
X156307142Y-48951823D01*
X156307142Y-48951823D02*
X156307142Y-49070871D01*
X156307142Y-49070871D02*
X156330952Y-49118490D01*
X156330952Y-49118490D02*
X156354761Y-49142300D01*
X156354761Y-49142300D02*
X156402380Y-49166109D01*
X156402380Y-49166109D02*
X156545237Y-49166109D01*
X156545237Y-49166109D02*
X156592856Y-49142300D01*
X156592856Y-49142300D02*
X156616666Y-49118490D01*
X155711905Y-49166109D02*
X155711905Y-48832776D01*
X155711905Y-48880395D02*
X155688095Y-48856585D01*
X155688095Y-48856585D02*
X155640476Y-48832776D01*
X155640476Y-48832776D02*
X155569048Y-48832776D01*
X155569048Y-48832776D02*
X155521429Y-48856585D01*
X155521429Y-48856585D02*
X155497619Y-48904204D01*
X155497619Y-48904204D02*
X155497619Y-49166109D01*
X155497619Y-48904204D02*
X155473810Y-48856585D01*
X155473810Y-48856585D02*
X155426191Y-48832776D01*
X155426191Y-48832776D02*
X155354762Y-48832776D01*
X155354762Y-48832776D02*
X155307143Y-48856585D01*
X155307143Y-48856585D02*
X155283333Y-48904204D01*
X155283333Y-48904204D02*
X155283333Y-49166109D01*
X155045238Y-49166109D02*
X155045238Y-48832776D01*
X155045238Y-48880395D02*
X155021428Y-48856585D01*
X155021428Y-48856585D02*
X154973809Y-48832776D01*
X154973809Y-48832776D02*
X154902381Y-48832776D01*
X154902381Y-48832776D02*
X154854762Y-48856585D01*
X154854762Y-48856585D02*
X154830952Y-48904204D01*
X154830952Y-48904204D02*
X154830952Y-49166109D01*
X154830952Y-48904204D02*
X154807143Y-48856585D01*
X154807143Y-48856585D02*
X154759524Y-48832776D01*
X154759524Y-48832776D02*
X154688095Y-48832776D01*
X154688095Y-48832776D02*
X154640476Y-48856585D01*
X154640476Y-48856585D02*
X154616666Y-48904204D01*
X154616666Y-48904204D02*
X154616666Y-49166109D01*
X158100000Y-45120000D02*
X158100000Y-50126420D01*
X153800000Y-45120000D02*
X153800000Y-50126420D01*
X158100000Y-49540000D02*
X153800000Y-49540000D01*
X158100000Y-49540000D02*
X153800000Y-49540000D01*
X158100000Y-49540000D02*
X157656495Y-49770874D01*
X158100000Y-49540000D02*
X157656495Y-49309126D01*
X153800000Y-49540000D02*
X154243505Y-49309126D01*
X153800000Y-49540000D02*
X154243505Y-49770874D01*
X164342776Y-41350953D02*
X164676109Y-41350953D01*
X164152300Y-41231905D02*
X164509442Y-41112858D01*
X164509442Y-41112858D02*
X164509442Y-41422381D01*
X164652300Y-41636667D02*
X164676109Y-41636667D01*
X164676109Y-41636667D02*
X164723728Y-41612857D01*
X164723728Y-41612857D02*
X164747538Y-41589048D01*
X164176109Y-41803333D02*
X164176109Y-42112857D01*
X164176109Y-42112857D02*
X164366585Y-41946190D01*
X164366585Y-41946190D02*
X164366585Y-42017619D01*
X164366585Y-42017619D02*
X164390395Y-42065238D01*
X164390395Y-42065238D02*
X164414204Y-42089047D01*
X164414204Y-42089047D02*
X164461823Y-42112857D01*
X164461823Y-42112857D02*
X164580871Y-42112857D01*
X164580871Y-42112857D02*
X164628490Y-42089047D01*
X164628490Y-42089047D02*
X164652300Y-42065238D01*
X164652300Y-42065238D02*
X164676109Y-42017619D01*
X164676109Y-42017619D02*
X164676109Y-41874762D01*
X164676109Y-41874762D02*
X164652300Y-41827143D01*
X164652300Y-41827143D02*
X164628490Y-41803333D01*
X164676109Y-42708094D02*
X164342776Y-42708094D01*
X164390395Y-42708094D02*
X164366585Y-42731904D01*
X164366585Y-42731904D02*
X164342776Y-42779523D01*
X164342776Y-42779523D02*
X164342776Y-42850951D01*
X164342776Y-42850951D02*
X164366585Y-42898570D01*
X164366585Y-42898570D02*
X164414204Y-42922380D01*
X164414204Y-42922380D02*
X164676109Y-42922380D01*
X164414204Y-42922380D02*
X164366585Y-42946189D01*
X164366585Y-42946189D02*
X164342776Y-42993808D01*
X164342776Y-42993808D02*
X164342776Y-43065237D01*
X164342776Y-43065237D02*
X164366585Y-43112856D01*
X164366585Y-43112856D02*
X164414204Y-43136666D01*
X164414204Y-43136666D02*
X164676109Y-43136666D01*
X164676109Y-43374761D02*
X164342776Y-43374761D01*
X164390395Y-43374761D02*
X164366585Y-43398571D01*
X164366585Y-43398571D02*
X164342776Y-43446190D01*
X164342776Y-43446190D02*
X164342776Y-43517618D01*
X164342776Y-43517618D02*
X164366585Y-43565237D01*
X164366585Y-43565237D02*
X164414204Y-43589047D01*
X164414204Y-43589047D02*
X164676109Y-43589047D01*
X164414204Y-43589047D02*
X164366585Y-43612856D01*
X164366585Y-43612856D02*
X164342776Y-43660475D01*
X164342776Y-43660475D02*
X164342776Y-43731904D01*
X164342776Y-43731904D02*
X164366585Y-43779523D01*
X164366585Y-43779523D02*
X164414204Y-43803333D01*
X164414204Y-43803333D02*
X164676109Y-43803333D01*
X158600000Y-44620000D02*
X165636420Y-44620000D01*
X158600000Y-40320000D02*
X165636420Y-40320000D01*
X165050000Y-44620000D02*
X165050000Y-40320000D01*
X165050000Y-44620000D02*
X165050000Y-40320000D01*
X165050000Y-44620000D02*
X164819126Y-44176495D01*
X165050000Y-44620000D02*
X165280874Y-44176495D01*
X165050000Y-40320000D02*
X165280874Y-40763505D01*
X165050000Y-40320000D02*
X164819126Y-40763505D01*
X163816115Y-47772419D02*
X163816115Y-46772419D01*
X163816115Y-46772419D02*
X163482782Y-47486704D01*
X163482782Y-47486704D02*
X163149449Y-46772419D01*
X163149449Y-46772419D02*
X163149449Y-47772419D01*
X162720877Y-46867657D02*
X162673258Y-46820038D01*
X162673258Y-46820038D02*
X162578020Y-46772419D01*
X162578020Y-46772419D02*
X162339925Y-46772419D01*
X162339925Y-46772419D02*
X162244687Y-46820038D01*
X162244687Y-46820038D02*
X162197068Y-46867657D01*
X162197068Y-46867657D02*
X162149449Y-46962895D01*
X162149449Y-46962895D02*
X162149449Y-47058133D01*
X162149449Y-47058133D02*
X162197068Y-47200990D01*
X162197068Y-47200990D02*
X162768496Y-47772419D01*
X162768496Y-47772419D02*
X162149449Y-47772419D01*
X161720877Y-47677180D02*
X161673258Y-47724800D01*
X161673258Y-47724800D02*
X161720877Y-47772419D01*
X161720877Y-47772419D02*
X161768496Y-47724800D01*
X161768496Y-47724800D02*
X161720877Y-47677180D01*
X161720877Y-47677180D02*
X161720877Y-47772419D01*
X160768497Y-46772419D02*
X161244687Y-46772419D01*
X161244687Y-46772419D02*
X161292306Y-47248609D01*
X161292306Y-47248609D02*
X161244687Y-47200990D01*
X161244687Y-47200990D02*
X161149449Y-47153371D01*
X161149449Y-47153371D02*
X160911354Y-47153371D01*
X160911354Y-47153371D02*
X160816116Y-47200990D01*
X160816116Y-47200990D02*
X160768497Y-47248609D01*
X160768497Y-47248609D02*
X160720878Y-47343847D01*
X160720878Y-47343847D02*
X160720878Y-47581942D01*
X160720878Y-47581942D02*
X160768497Y-47677180D01*
X160768497Y-47677180D02*
X160816116Y-47724800D01*
X160816116Y-47724800D02*
X160911354Y-47772419D01*
X160911354Y-47772419D02*
X161149449Y-47772419D01*
X161149449Y-47772419D02*
X161244687Y-47724800D01*
X161244687Y-47724800D02*
X161292306Y-47677180D01*
X232968800Y-68427600D02*
X217576400Y-68529200D01*
X233019600Y-71120000D02*
X232968800Y-68427600D01*
X227838000Y-68478400D02*
X227838000Y-71120000D01*
X241858800Y-53898800D02*
X241858800Y-48717200D01*
X241858800Y-53898800D02*
X237744000Y-54813200D01*
X207365600Y-74625200D02*
X210058000Y-74625200D01*
X210058000Y-77368400D01*
X207365600Y-77368400D01*
X207365600Y-74625200D01*
X220218000Y-71069200D02*
X210058000Y-74625200D01*
X223520000Y-74625200D02*
X233019600Y-71120000D01*
D11*
X237744000Y-54813200D02*
X246380000Y-54813200D01*
X246380000Y-63246000D01*
X237744000Y-63246000D01*
X237744000Y-54813200D01*
D10*
X230479600Y-71120000D02*
X220827600Y-74625200D01*
X175310800Y-64820800D02*
X175310800Y-58216800D01*
X222707200Y-71120000D02*
X212750400Y-74625200D01*
X217525600Y-71120000D02*
X207365600Y-74625200D01*
D11*
X242062000Y-54813200D02*
X246380000Y-54813200D01*
X246380000Y-59029600D01*
X242062000Y-59029600D01*
X242062000Y-54813200D01*
D10*
X220218000Y-68478400D02*
X220218000Y-71069200D01*
X217576400Y-68529200D02*
X217525600Y-71120000D01*
X230479600Y-68427600D02*
X230479600Y-71120000D01*
X218135200Y-74625200D02*
X220827600Y-74625200D01*
X220827600Y-77368400D01*
X218135200Y-77368400D01*
X218135200Y-74625200D01*
X244475000Y-48742600D02*
X244449600Y-53898800D01*
X241858800Y-51308000D02*
X247065800Y-51333400D01*
X222707200Y-68478400D02*
X222707200Y-71120000D01*
X172720000Y-64871600D02*
X172720000Y-58267600D01*
X247040400Y-53898800D02*
X246380000Y-54813200D01*
X247040400Y-53898800D02*
X241858800Y-53898800D01*
X177800000Y-64770000D02*
X177800000Y-58166000D01*
X247091200Y-48768000D02*
X247040400Y-53898800D01*
X241858800Y-48717200D02*
X247091200Y-48768000D01*
X165100000Y-64770000D02*
X165100000Y-58166000D01*
X225272600Y-71120000D02*
X215442800Y-74625200D01*
X225272600Y-68478400D02*
X225272600Y-71120000D01*
X210058000Y-74625200D02*
X212750400Y-74625200D01*
X212750400Y-77368400D01*
X210058000Y-77368400D01*
X210058000Y-74625200D01*
X220827600Y-74625200D02*
X223520000Y-74625200D01*
X223520000Y-77368400D01*
X220827600Y-77368400D01*
X220827600Y-74625200D01*
X167640000Y-64770000D02*
X167640000Y-58166000D01*
X162356800Y-62128400D02*
X180390800Y-62128400D01*
X180390800Y-64820800D01*
X162356800Y-64820800D01*
X162356800Y-62128400D01*
X215442800Y-74625200D02*
X218135200Y-74625200D01*
X218135200Y-77368400D01*
X215442800Y-77368400D01*
X215442800Y-74625200D01*
X242062000Y-54813200D02*
X244449600Y-53898800D01*
X227838000Y-71120000D02*
X218135200Y-74625200D01*
X217525600Y-71120000D02*
X233019600Y-71120000D01*
X162356800Y-58216800D02*
X180340000Y-58216800D01*
X180340000Y-62128400D01*
X162356800Y-62128400D01*
X162356800Y-58216800D01*
X170180000Y-64820800D02*
X170180000Y-58216800D01*
X212750400Y-74625200D02*
X215442800Y-74625200D01*
X215442800Y-77368400D01*
X212750400Y-77368400D01*
X212750400Y-74625200D01*
D11*
X237744000Y-59029600D02*
X242062000Y-59029600D01*
X242062000Y-63246000D01*
X237744000Y-63246000D01*
X237744000Y-59029600D01*
D10*
X222666877Y-75645666D02*
X222733544Y-75612333D01*
X222733544Y-75612333D02*
X222833544Y-75612333D01*
X222833544Y-75612333D02*
X222933544Y-75645666D01*
X222933544Y-75645666D02*
X223000211Y-75712333D01*
X223000211Y-75712333D02*
X223033544Y-75779000D01*
X223033544Y-75779000D02*
X223066877Y-75912333D01*
X223066877Y-75912333D02*
X223066877Y-76012333D01*
X223066877Y-76012333D02*
X223033544Y-76145666D01*
X223033544Y-76145666D02*
X223000211Y-76212333D01*
X223000211Y-76212333D02*
X222933544Y-76279000D01*
X222933544Y-76279000D02*
X222833544Y-76312333D01*
X222833544Y-76312333D02*
X222766877Y-76312333D01*
X222766877Y-76312333D02*
X222666877Y-76279000D01*
X222666877Y-76279000D02*
X222633544Y-76245666D01*
X222633544Y-76245666D02*
X222633544Y-76012333D01*
X222633544Y-76012333D02*
X222766877Y-76012333D01*
X222333544Y-76312333D02*
X222333544Y-75612333D01*
X222333544Y-75612333D02*
X221933544Y-76312333D01*
X221933544Y-76312333D02*
X221933544Y-75612333D01*
X221600211Y-76312333D02*
X221600211Y-75612333D01*
X221600211Y-75612333D02*
X221433544Y-75612333D01*
X221433544Y-75612333D02*
X221333544Y-75645666D01*
X221333544Y-75645666D02*
X221266878Y-75712333D01*
X221266878Y-75712333D02*
X221233544Y-75779000D01*
X221233544Y-75779000D02*
X221200211Y-75912333D01*
X221200211Y-75912333D02*
X221200211Y-76012333D01*
X221200211Y-76012333D02*
X221233544Y-76145666D01*
X221233544Y-76145666D02*
X221266878Y-76212333D01*
X221266878Y-76212333D02*
X221333544Y-76279000D01*
X221333544Y-76279000D02*
X221433544Y-76312333D01*
X221433544Y-76312333D02*
X221600211Y-76312333D01*
X240535734Y-61410304D02*
X240059544Y-61410304D01*
X240630972Y-61696019D02*
X240297639Y-60696019D01*
X240297639Y-60696019D02*
X239964306Y-61696019D01*
X239440496Y-60696019D02*
X239345258Y-60696019D01*
X239345258Y-60696019D02*
X239250020Y-60743638D01*
X239250020Y-60743638D02*
X239202401Y-60791257D01*
X239202401Y-60791257D02*
X239154782Y-60886495D01*
X239154782Y-60886495D02*
X239107163Y-61076971D01*
X239107163Y-61076971D02*
X239107163Y-61315066D01*
X239107163Y-61315066D02*
X239154782Y-61505542D01*
X239154782Y-61505542D02*
X239202401Y-61600780D01*
X239202401Y-61600780D02*
X239250020Y-61648400D01*
X239250020Y-61648400D02*
X239345258Y-61696019D01*
X239345258Y-61696019D02*
X239440496Y-61696019D01*
X239440496Y-61696019D02*
X239535734Y-61648400D01*
X239535734Y-61648400D02*
X239583353Y-61600780D01*
X239583353Y-61600780D02*
X239630972Y-61505542D01*
X239630972Y-61505542D02*
X239678591Y-61315066D01*
X239678591Y-61315066D02*
X239678591Y-61076971D01*
X239678591Y-61076971D02*
X239630972Y-60886495D01*
X239630972Y-60886495D02*
X239583353Y-60791257D01*
X239583353Y-60791257D02*
X239535734Y-60743638D01*
X239535734Y-60743638D02*
X239440496Y-60696019D01*
X174573619Y-59485884D02*
X173573619Y-59485884D01*
X173573619Y-59485884D02*
X173573619Y-59723979D01*
X173573619Y-59723979D02*
X173621238Y-59866836D01*
X173621238Y-59866836D02*
X173716476Y-59962074D01*
X173716476Y-59962074D02*
X173811714Y-60009693D01*
X173811714Y-60009693D02*
X174002190Y-60057312D01*
X174002190Y-60057312D02*
X174145047Y-60057312D01*
X174145047Y-60057312D02*
X174335523Y-60009693D01*
X174335523Y-60009693D02*
X174430761Y-59962074D01*
X174430761Y-59962074D02*
X174526000Y-59866836D01*
X174526000Y-59866836D02*
X174573619Y-59723979D01*
X174573619Y-59723979D02*
X174573619Y-59485884D01*
X173573619Y-60676360D02*
X173573619Y-60866836D01*
X173573619Y-60866836D02*
X173621238Y-60962074D01*
X173621238Y-60962074D02*
X173716476Y-61057312D01*
X173716476Y-61057312D02*
X173906952Y-61104931D01*
X173906952Y-61104931D02*
X174240285Y-61104931D01*
X174240285Y-61104931D02*
X174430761Y-61057312D01*
X174430761Y-61057312D02*
X174526000Y-60962074D01*
X174526000Y-60962074D02*
X174573619Y-60866836D01*
X174573619Y-60866836D02*
X174573619Y-60676360D01*
X174573619Y-60676360D02*
X174526000Y-60581122D01*
X174526000Y-60581122D02*
X174430761Y-60485884D01*
X174430761Y-60485884D02*
X174240285Y-60438265D01*
X174240285Y-60438265D02*
X173906952Y-60438265D01*
X173906952Y-60438265D02*
X173716476Y-60485884D01*
X173716476Y-60485884D02*
X173621238Y-60581122D01*
X173621238Y-60581122D02*
X173573619Y-60676360D01*
X244701334Y-61257904D02*
X244225144Y-61257904D01*
X244796572Y-61543619D02*
X244463239Y-60543619D01*
X244463239Y-60543619D02*
X244129906Y-61543619D01*
X243272763Y-61543619D02*
X243844191Y-61543619D01*
X243558477Y-61543619D02*
X243558477Y-60543619D01*
X243558477Y-60543619D02*
X243653715Y-60686476D01*
X243653715Y-60686476D02*
X243748953Y-60781714D01*
X243748953Y-60781714D02*
X243844191Y-60829333D01*
D12*
X193020574Y-77366257D02*
X193163432Y-77294828D01*
X193163432Y-77294828D02*
X193377717Y-77294828D01*
X193377717Y-77294828D02*
X193592003Y-77366257D01*
X193592003Y-77366257D02*
X193734860Y-77509114D01*
X193734860Y-77509114D02*
X193806289Y-77651971D01*
X193806289Y-77651971D02*
X193877717Y-77937685D01*
X193877717Y-77937685D02*
X193877717Y-78151971D01*
X193877717Y-78151971D02*
X193806289Y-78437685D01*
X193806289Y-78437685D02*
X193734860Y-78580542D01*
X193734860Y-78580542D02*
X193592003Y-78723400D01*
X193592003Y-78723400D02*
X193377717Y-78794828D01*
X193377717Y-78794828D02*
X193234860Y-78794828D01*
X193234860Y-78794828D02*
X193020574Y-78723400D01*
X193020574Y-78723400D02*
X192949146Y-78651971D01*
X192949146Y-78651971D02*
X192949146Y-78151971D01*
X192949146Y-78151971D02*
X193234860Y-78151971D01*
X192306289Y-78794828D02*
X192306289Y-77294828D01*
X192306289Y-77294828D02*
X191449146Y-78794828D01*
X191449146Y-78794828D02*
X191449146Y-77294828D01*
X190734860Y-78794828D02*
X190734860Y-77294828D01*
X190734860Y-77294828D02*
X190377717Y-77294828D01*
X190377717Y-77294828D02*
X190163431Y-77366257D01*
X190163431Y-77366257D02*
X190020574Y-77509114D01*
X190020574Y-77509114D02*
X189949145Y-77651971D01*
X189949145Y-77651971D02*
X189877717Y-77937685D01*
X189877717Y-77937685D02*
X189877717Y-78151971D01*
X189877717Y-78151971D02*
X189949145Y-78437685D01*
X189949145Y-78437685D02*
X190020574Y-78580542D01*
X190020574Y-78580542D02*
X190163431Y-78723400D01*
X190163431Y-78723400D02*
X190377717Y-78794828D01*
X190377717Y-78794828D02*
X190734860Y-78794828D01*
D10*
X163931066Y-59028684D02*
X163931066Y-59790589D01*
X164312019Y-59409636D02*
X163550114Y-59409636D01*
X163312019Y-60742969D02*
X163312019Y-60266779D01*
X163312019Y-60266779D02*
X163788209Y-60219160D01*
X163788209Y-60219160D02*
X163740590Y-60266779D01*
X163740590Y-60266779D02*
X163692971Y-60362017D01*
X163692971Y-60362017D02*
X163692971Y-60600112D01*
X163692971Y-60600112D02*
X163740590Y-60695350D01*
X163740590Y-60695350D02*
X163788209Y-60742969D01*
X163788209Y-60742969D02*
X163883447Y-60790588D01*
X163883447Y-60790588D02*
X164121542Y-60790588D01*
X164121542Y-60790588D02*
X164216780Y-60742969D01*
X164216780Y-60742969D02*
X164264400Y-60695350D01*
X164264400Y-60695350D02*
X164312019Y-60600112D01*
X164312019Y-60600112D02*
X164312019Y-60362017D01*
X164312019Y-60362017D02*
X164264400Y-60266779D01*
X164264400Y-60266779D02*
X164216780Y-60219160D01*
X163312019Y-61076303D02*
X164312019Y-61409636D01*
X164312019Y-61409636D02*
X163312019Y-61742969D01*
D12*
X232425374Y-77142428D02*
X231925374Y-78642428D01*
X231925374Y-78642428D02*
X231425374Y-77142428D01*
X230425375Y-77856714D02*
X230211089Y-77928142D01*
X230211089Y-77928142D02*
X230139660Y-77999571D01*
X230139660Y-77999571D02*
X230068232Y-78142428D01*
X230068232Y-78142428D02*
X230068232Y-78356714D01*
X230068232Y-78356714D02*
X230139660Y-78499571D01*
X230139660Y-78499571D02*
X230211089Y-78571000D01*
X230211089Y-78571000D02*
X230353946Y-78642428D01*
X230353946Y-78642428D02*
X230925375Y-78642428D01*
X230925375Y-78642428D02*
X230925375Y-77142428D01*
X230925375Y-77142428D02*
X230425375Y-77142428D01*
X230425375Y-77142428D02*
X230282518Y-77213857D01*
X230282518Y-77213857D02*
X230211089Y-77285285D01*
X230211089Y-77285285D02*
X230139660Y-77428142D01*
X230139660Y-77428142D02*
X230139660Y-77571000D01*
X230139660Y-77571000D02*
X230211089Y-77713857D01*
X230211089Y-77713857D02*
X230282518Y-77785285D01*
X230282518Y-77785285D02*
X230425375Y-77856714D01*
X230425375Y-77856714D02*
X230925375Y-77856714D01*
X229496803Y-78213857D02*
X228782518Y-78213857D01*
X229639660Y-78642428D02*
X229139660Y-77142428D01*
X229139660Y-77142428D02*
X228639660Y-78642428D01*
X228353946Y-77142428D02*
X227496804Y-77142428D01*
X227925375Y-78642428D02*
X227925375Y-77142428D01*
X226996804Y-78071000D02*
X225853947Y-78071000D01*
D10*
X240535734Y-57193904D02*
X240059544Y-57193904D01*
X240630972Y-57479619D02*
X240297639Y-56479619D01*
X240297639Y-56479619D02*
X239964306Y-57479619D01*
X239678591Y-56574857D02*
X239630972Y-56527238D01*
X239630972Y-56527238D02*
X239535734Y-56479619D01*
X239535734Y-56479619D02*
X239297639Y-56479619D01*
X239297639Y-56479619D02*
X239202401Y-56527238D01*
X239202401Y-56527238D02*
X239154782Y-56574857D01*
X239154782Y-56574857D02*
X239107163Y-56670095D01*
X239107163Y-56670095D02*
X239107163Y-56765333D01*
X239107163Y-56765333D02*
X239154782Y-56908190D01*
X239154782Y-56908190D02*
X239726210Y-57479619D01*
X239726210Y-57479619D02*
X239107163Y-57479619D01*
D12*
X232374574Y-89182028D02*
X231874574Y-90682028D01*
X231874574Y-90682028D02*
X231374574Y-89182028D01*
X230374575Y-89896314D02*
X230160289Y-89967742D01*
X230160289Y-89967742D02*
X230088860Y-90039171D01*
X230088860Y-90039171D02*
X230017432Y-90182028D01*
X230017432Y-90182028D02*
X230017432Y-90396314D01*
X230017432Y-90396314D02*
X230088860Y-90539171D01*
X230088860Y-90539171D02*
X230160289Y-90610600D01*
X230160289Y-90610600D02*
X230303146Y-90682028D01*
X230303146Y-90682028D02*
X230874575Y-90682028D01*
X230874575Y-90682028D02*
X230874575Y-89182028D01*
X230874575Y-89182028D02*
X230374575Y-89182028D01*
X230374575Y-89182028D02*
X230231718Y-89253457D01*
X230231718Y-89253457D02*
X230160289Y-89324885D01*
X230160289Y-89324885D02*
X230088860Y-89467742D01*
X230088860Y-89467742D02*
X230088860Y-89610600D01*
X230088860Y-89610600D02*
X230160289Y-89753457D01*
X230160289Y-89753457D02*
X230231718Y-89824885D01*
X230231718Y-89824885D02*
X230374575Y-89896314D01*
X230374575Y-89896314D02*
X230874575Y-89896314D01*
X229446003Y-90253457D02*
X228731718Y-90253457D01*
X229588860Y-90682028D02*
X229088860Y-89182028D01*
X229088860Y-89182028D02*
X228588860Y-90682028D01*
X228303146Y-89182028D02*
X227446004Y-89182028D01*
X227874575Y-90682028D02*
X227874575Y-89182028D01*
X226946004Y-90110600D02*
X225803147Y-90110600D01*
X226374575Y-90682028D02*
X226374575Y-89539171D01*
X208528746Y-89072428D02*
X208171603Y-90072428D01*
X208171603Y-90072428D02*
X207814460Y-89072428D01*
X207314460Y-88715285D02*
X207243032Y-88643857D01*
X207243032Y-88643857D02*
X207100175Y-88572428D01*
X207100175Y-88572428D02*
X206743032Y-88572428D01*
X206743032Y-88572428D02*
X206600175Y-88643857D01*
X206600175Y-88643857D02*
X206528746Y-88715285D01*
X206528746Y-88715285D02*
X206457317Y-88858142D01*
X206457317Y-88858142D02*
X206457317Y-89001000D01*
X206457317Y-89001000D02*
X206528746Y-89215285D01*
X206528746Y-89215285D02*
X207385889Y-90072428D01*
X207385889Y-90072428D02*
X206457317Y-90072428D01*
X205528746Y-88572428D02*
X205385889Y-88572428D01*
X205385889Y-88572428D02*
X205243032Y-88643857D01*
X205243032Y-88643857D02*
X205171604Y-88715285D01*
X205171604Y-88715285D02*
X205100175Y-88858142D01*
X205100175Y-88858142D02*
X205028746Y-89143857D01*
X205028746Y-89143857D02*
X205028746Y-89501000D01*
X205028746Y-89501000D02*
X205100175Y-89786714D01*
X205100175Y-89786714D02*
X205171604Y-89929571D01*
X205171604Y-89929571D02*
X205243032Y-90001000D01*
X205243032Y-90001000D02*
X205385889Y-90072428D01*
X205385889Y-90072428D02*
X205528746Y-90072428D01*
X205528746Y-90072428D02*
X205671604Y-90001000D01*
X205671604Y-90001000D02*
X205743032Y-89929571D01*
X205743032Y-89929571D02*
X205814461Y-89786714D01*
X205814461Y-89786714D02*
X205885889Y-89501000D01*
X205885889Y-89501000D02*
X205885889Y-89143857D01*
X205885889Y-89143857D02*
X205814461Y-88858142D01*
X205814461Y-88858142D02*
X205743032Y-88715285D01*
X205743032Y-88715285D02*
X205671604Y-88643857D01*
X205671604Y-88643857D02*
X205528746Y-88572428D01*
X204457318Y-88715285D02*
X204385890Y-88643857D01*
X204385890Y-88643857D02*
X204243033Y-88572428D01*
X204243033Y-88572428D02*
X203885890Y-88572428D01*
X203885890Y-88572428D02*
X203743033Y-88643857D01*
X203743033Y-88643857D02*
X203671604Y-88715285D01*
X203671604Y-88715285D02*
X203600175Y-88858142D01*
X203600175Y-88858142D02*
X203600175Y-89001000D01*
X203600175Y-89001000D02*
X203671604Y-89215285D01*
X203671604Y-89215285D02*
X204528747Y-90072428D01*
X204528747Y-90072428D02*
X203600175Y-90072428D01*
X202243033Y-88572428D02*
X202957319Y-88572428D01*
X202957319Y-88572428D02*
X203028747Y-89286714D01*
X203028747Y-89286714D02*
X202957319Y-89215285D01*
X202957319Y-89215285D02*
X202814462Y-89143857D01*
X202814462Y-89143857D02*
X202457319Y-89143857D01*
X202457319Y-89143857D02*
X202314462Y-89215285D01*
X202314462Y-89215285D02*
X202243033Y-89286714D01*
X202243033Y-89286714D02*
X202171604Y-89429571D01*
X202171604Y-89429571D02*
X202171604Y-89786714D01*
X202171604Y-89786714D02*
X202243033Y-89929571D01*
X202243033Y-89929571D02*
X202314462Y-90001000D01*
X202314462Y-90001000D02*
X202457319Y-90072428D01*
X202457319Y-90072428D02*
X202814462Y-90072428D01*
X202814462Y-90072428D02*
X202957319Y-90001000D01*
X202957319Y-90001000D02*
X203028747Y-89929571D01*
X201528748Y-89929571D02*
X201457319Y-90001000D01*
X201457319Y-90001000D02*
X201528748Y-90072428D01*
X201528748Y-90072428D02*
X201600176Y-90001000D01*
X201600176Y-90001000D02*
X201528748Y-89929571D01*
X201528748Y-89929571D02*
X201528748Y-90072428D01*
X200528747Y-88572428D02*
X200385890Y-88572428D01*
X200385890Y-88572428D02*
X200243033Y-88643857D01*
X200243033Y-88643857D02*
X200171605Y-88715285D01*
X200171605Y-88715285D02*
X200100176Y-88858142D01*
X200100176Y-88858142D02*
X200028747Y-89143857D01*
X200028747Y-89143857D02*
X200028747Y-89501000D01*
X200028747Y-89501000D02*
X200100176Y-89786714D01*
X200100176Y-89786714D02*
X200171605Y-89929571D01*
X200171605Y-89929571D02*
X200243033Y-90001000D01*
X200243033Y-90001000D02*
X200385890Y-90072428D01*
X200385890Y-90072428D02*
X200528747Y-90072428D01*
X200528747Y-90072428D02*
X200671605Y-90001000D01*
X200671605Y-90001000D02*
X200743033Y-89929571D01*
X200743033Y-89929571D02*
X200814462Y-89786714D01*
X200814462Y-89786714D02*
X200885890Y-89501000D01*
X200885890Y-89501000D02*
X200885890Y-89143857D01*
X200885890Y-89143857D02*
X200814462Y-88858142D01*
X200814462Y-88858142D02*
X200743033Y-88715285D01*
X200743033Y-88715285D02*
X200671605Y-88643857D01*
X200671605Y-88643857D02*
X200528747Y-88572428D01*
X198743034Y-89072428D02*
X198743034Y-90072428D01*
X199100176Y-88501000D02*
X199457319Y-89572428D01*
X199457319Y-89572428D02*
X198528748Y-89572428D01*
X197957320Y-89929571D02*
X197885891Y-90001000D01*
X197885891Y-90001000D02*
X197957320Y-90072428D01*
X197957320Y-90072428D02*
X198028748Y-90001000D01*
X198028748Y-90001000D02*
X197957320Y-89929571D01*
X197957320Y-89929571D02*
X197957320Y-90072428D01*
X196957319Y-88572428D02*
X196814462Y-88572428D01*
X196814462Y-88572428D02*
X196671605Y-88643857D01*
X196671605Y-88643857D02*
X196600177Y-88715285D01*
X196600177Y-88715285D02*
X196528748Y-88858142D01*
X196528748Y-88858142D02*
X196457319Y-89143857D01*
X196457319Y-89143857D02*
X196457319Y-89501000D01*
X196457319Y-89501000D02*
X196528748Y-89786714D01*
X196528748Y-89786714D02*
X196600177Y-89929571D01*
X196600177Y-89929571D02*
X196671605Y-90001000D01*
X196671605Y-90001000D02*
X196814462Y-90072428D01*
X196814462Y-90072428D02*
X196957319Y-90072428D01*
X196957319Y-90072428D02*
X197100177Y-90001000D01*
X197100177Y-90001000D02*
X197171605Y-89929571D01*
X197171605Y-89929571D02*
X197243034Y-89786714D01*
X197243034Y-89786714D02*
X197314462Y-89501000D01*
X197314462Y-89501000D02*
X197314462Y-89143857D01*
X197314462Y-89143857D02*
X197243034Y-88858142D01*
X197243034Y-88858142D02*
X197171605Y-88715285D01*
X197171605Y-88715285D02*
X197100177Y-88643857D01*
X197100177Y-88643857D02*
X196957319Y-88572428D01*
X195028748Y-90072428D02*
X195885891Y-90072428D01*
X195457320Y-90072428D02*
X195457320Y-88572428D01*
X195457320Y-88572428D02*
X195600177Y-88786714D01*
X195600177Y-88786714D02*
X195743034Y-88929571D01*
X195743034Y-88929571D02*
X195885891Y-89001000D01*
D10*
X220239544Y-76210733D02*
X220239544Y-75510733D01*
X220239544Y-75510733D02*
X220072877Y-75510733D01*
X220072877Y-75510733D02*
X219972877Y-75544066D01*
X219972877Y-75544066D02*
X219906211Y-75610733D01*
X219906211Y-75610733D02*
X219872877Y-75677400D01*
X219872877Y-75677400D02*
X219839544Y-75810733D01*
X219839544Y-75810733D02*
X219839544Y-75910733D01*
X219839544Y-75910733D02*
X219872877Y-76044066D01*
X219872877Y-76044066D02*
X219906211Y-76110733D01*
X219906211Y-76110733D02*
X219972877Y-76177400D01*
X219972877Y-76177400D02*
X220072877Y-76210733D01*
X220072877Y-76210733D02*
X220239544Y-76210733D01*
X219172877Y-76210733D02*
X219572877Y-76210733D01*
X219372877Y-76210733D02*
X219372877Y-75510733D01*
X219372877Y-75510733D02*
X219439544Y-75610733D01*
X219439544Y-75610733D02*
X219506211Y-75677400D01*
X219506211Y-75677400D02*
X219572877Y-75710733D01*
X218739544Y-75510733D02*
X218672877Y-75510733D01*
X218672877Y-75510733D02*
X218606210Y-75544066D01*
X218606210Y-75544066D02*
X218572877Y-75577400D01*
X218572877Y-75577400D02*
X218539544Y-75644066D01*
X218539544Y-75644066D02*
X218506210Y-75777400D01*
X218506210Y-75777400D02*
X218506210Y-75944066D01*
X218506210Y-75944066D02*
X218539544Y-76077400D01*
X218539544Y-76077400D02*
X218572877Y-76144066D01*
X218572877Y-76144066D02*
X218606210Y-76177400D01*
X218606210Y-76177400D02*
X218672877Y-76210733D01*
X218672877Y-76210733D02*
X218739544Y-76210733D01*
X218739544Y-76210733D02*
X218806210Y-76177400D01*
X218806210Y-76177400D02*
X218839544Y-76144066D01*
X218839544Y-76144066D02*
X218872877Y-76077400D01*
X218872877Y-76077400D02*
X218906210Y-75944066D01*
X218906210Y-75944066D02*
X218906210Y-75777400D01*
X218906210Y-75777400D02*
X218872877Y-75644066D01*
X218872877Y-75644066D02*
X218839544Y-75577400D01*
X218839544Y-75577400D02*
X218806210Y-75544066D01*
X218806210Y-75544066D02*
X218739544Y-75510733D01*
X209673144Y-76147266D02*
X209139811Y-76147266D01*
X209406477Y-76413933D02*
X209406477Y-75880600D01*
X208473144Y-75713933D02*
X208806477Y-75713933D01*
X208806477Y-75713933D02*
X208839810Y-76047266D01*
X208839810Y-76047266D02*
X208806477Y-76013933D01*
X208806477Y-76013933D02*
X208739810Y-75980600D01*
X208739810Y-75980600D02*
X208573144Y-75980600D01*
X208573144Y-75980600D02*
X208506477Y-76013933D01*
X208506477Y-76013933D02*
X208473144Y-76047266D01*
X208473144Y-76047266D02*
X208439810Y-76113933D01*
X208439810Y-76113933D02*
X208439810Y-76280600D01*
X208439810Y-76280600D02*
X208473144Y-76347266D01*
X208473144Y-76347266D02*
X208506477Y-76380600D01*
X208506477Y-76380600D02*
X208573144Y-76413933D01*
X208573144Y-76413933D02*
X208739810Y-76413933D01*
X208739810Y-76413933D02*
X208806477Y-76380600D01*
X208806477Y-76380600D02*
X208839810Y-76347266D01*
X208239810Y-75713933D02*
X208006477Y-76413933D01*
X208006477Y-76413933D02*
X207773143Y-75713933D01*
D12*
X197209889Y-93717400D02*
X196067032Y-93717400D01*
X196638460Y-94288828D02*
X196638460Y-93145971D01*
X194638460Y-92788828D02*
X195352746Y-92788828D01*
X195352746Y-92788828D02*
X195424174Y-93503114D01*
X195424174Y-93503114D02*
X195352746Y-93431685D01*
X195352746Y-93431685D02*
X195209889Y-93360257D01*
X195209889Y-93360257D02*
X194852746Y-93360257D01*
X194852746Y-93360257D02*
X194709889Y-93431685D01*
X194709889Y-93431685D02*
X194638460Y-93503114D01*
X194638460Y-93503114D02*
X194567031Y-93645971D01*
X194567031Y-93645971D02*
X194567031Y-94003114D01*
X194567031Y-94003114D02*
X194638460Y-94145971D01*
X194638460Y-94145971D02*
X194709889Y-94217400D01*
X194709889Y-94217400D02*
X194852746Y-94288828D01*
X194852746Y-94288828D02*
X195209889Y-94288828D01*
X195209889Y-94288828D02*
X195352746Y-94217400D01*
X195352746Y-94217400D02*
X195424174Y-94145971D01*
X194138460Y-92788828D02*
X193638460Y-94288828D01*
X193638460Y-94288828D02*
X193138460Y-92788828D01*
D10*
X217191544Y-76261533D02*
X217191544Y-75561533D01*
X217191544Y-75561533D02*
X217024877Y-75561533D01*
X217024877Y-75561533D02*
X216924877Y-75594866D01*
X216924877Y-75594866D02*
X216858211Y-75661533D01*
X216858211Y-75661533D02*
X216824877Y-75728200D01*
X216824877Y-75728200D02*
X216791544Y-75861533D01*
X216791544Y-75861533D02*
X216791544Y-75961533D01*
X216791544Y-75961533D02*
X216824877Y-76094866D01*
X216824877Y-76094866D02*
X216858211Y-76161533D01*
X216858211Y-76161533D02*
X216924877Y-76228200D01*
X216924877Y-76228200D02*
X217024877Y-76261533D01*
X217024877Y-76261533D02*
X217191544Y-76261533D01*
X216558211Y-75561533D02*
X216091544Y-75561533D01*
X216091544Y-75561533D02*
X216391544Y-76261533D01*
X169442819Y-59638284D02*
X168442819Y-59638284D01*
X168442819Y-59638284D02*
X168442819Y-59876379D01*
X168442819Y-59876379D02*
X168490438Y-60019236D01*
X168490438Y-60019236D02*
X168585676Y-60114474D01*
X168585676Y-60114474D02*
X168680914Y-60162093D01*
X168680914Y-60162093D02*
X168871390Y-60209712D01*
X168871390Y-60209712D02*
X169014247Y-60209712D01*
X169014247Y-60209712D02*
X169204723Y-60162093D01*
X169204723Y-60162093D02*
X169299961Y-60114474D01*
X169299961Y-60114474D02*
X169395200Y-60019236D01*
X169395200Y-60019236D02*
X169442819Y-59876379D01*
X169442819Y-59876379D02*
X169442819Y-59638284D01*
X169442819Y-60638284D02*
X168442819Y-60638284D01*
X214549944Y-76261533D02*
X214549944Y-75561533D01*
X214549944Y-75561533D02*
X214383277Y-75561533D01*
X214383277Y-75561533D02*
X214283277Y-75594866D01*
X214283277Y-75594866D02*
X214216611Y-75661533D01*
X214216611Y-75661533D02*
X214183277Y-75728200D01*
X214183277Y-75728200D02*
X214149944Y-75861533D01*
X214149944Y-75861533D02*
X214149944Y-75961533D01*
X214149944Y-75961533D02*
X214183277Y-76094866D01*
X214183277Y-76094866D02*
X214216611Y-76161533D01*
X214216611Y-76161533D02*
X214283277Y-76228200D01*
X214283277Y-76228200D02*
X214383277Y-76261533D01*
X214383277Y-76261533D02*
X214549944Y-76261533D01*
X213816611Y-76261533D02*
X213683277Y-76261533D01*
X213683277Y-76261533D02*
X213616611Y-76228200D01*
X213616611Y-76228200D02*
X213583277Y-76194866D01*
X213583277Y-76194866D02*
X213516611Y-76094866D01*
X213516611Y-76094866D02*
X213483277Y-75961533D01*
X213483277Y-75961533D02*
X213483277Y-75694866D01*
X213483277Y-75694866D02*
X213516611Y-75628200D01*
X213516611Y-75628200D02*
X213549944Y-75594866D01*
X213549944Y-75594866D02*
X213616611Y-75561533D01*
X213616611Y-75561533D02*
X213749944Y-75561533D01*
X213749944Y-75561533D02*
X213816611Y-75594866D01*
X213816611Y-75594866D02*
X213849944Y-75628200D01*
X213849944Y-75628200D02*
X213883277Y-75694866D01*
X213883277Y-75694866D02*
X213883277Y-75861533D01*
X213883277Y-75861533D02*
X213849944Y-75928200D01*
X213849944Y-75928200D02*
X213816611Y-75961533D01*
X213816611Y-75961533D02*
X213749944Y-75994866D01*
X213749944Y-75994866D02*
X213616611Y-75994866D01*
X213616611Y-75994866D02*
X213549944Y-75961533D01*
X213549944Y-75961533D02*
X213516611Y-75928200D01*
X213516611Y-75928200D02*
X213483277Y-75861533D01*
X176916780Y-60057312D02*
X176964400Y-60009693D01*
X176964400Y-60009693D02*
X177012019Y-59866836D01*
X177012019Y-59866836D02*
X177012019Y-59771598D01*
X177012019Y-59771598D02*
X176964400Y-59628741D01*
X176964400Y-59628741D02*
X176869161Y-59533503D01*
X176869161Y-59533503D02*
X176773923Y-59485884D01*
X176773923Y-59485884D02*
X176583447Y-59438265D01*
X176583447Y-59438265D02*
X176440590Y-59438265D01*
X176440590Y-59438265D02*
X176250114Y-59485884D01*
X176250114Y-59485884D02*
X176154876Y-59533503D01*
X176154876Y-59533503D02*
X176059638Y-59628741D01*
X176059638Y-59628741D02*
X176012019Y-59771598D01*
X176012019Y-59771598D02*
X176012019Y-59866836D01*
X176012019Y-59866836D02*
X176059638Y-60009693D01*
X176059638Y-60009693D02*
X176107257Y-60057312D01*
X177012019Y-60485884D02*
X176012019Y-60485884D01*
X176012019Y-60485884D02*
X176012019Y-60723979D01*
X176012019Y-60723979D02*
X176059638Y-60866836D01*
X176059638Y-60866836D02*
X176154876Y-60962074D01*
X176154876Y-60962074D02*
X176250114Y-61009693D01*
X176250114Y-61009693D02*
X176440590Y-61057312D01*
X176440590Y-61057312D02*
X176583447Y-61057312D01*
X176583447Y-61057312D02*
X176773923Y-61009693D01*
X176773923Y-61009693D02*
X176869161Y-60962074D01*
X176869161Y-60962074D02*
X176964400Y-60866836D01*
X176964400Y-60866836D02*
X177012019Y-60723979D01*
X177012019Y-60723979D02*
X177012019Y-60485884D01*
X165855200Y-59946169D02*
X167140914Y-59089027D01*
X166807580Y-60850931D02*
X166855200Y-60803312D01*
X166855200Y-60803312D02*
X166902819Y-60660455D01*
X166902819Y-60660455D02*
X166902819Y-60565217D01*
X166902819Y-60565217D02*
X166855200Y-60422360D01*
X166855200Y-60422360D02*
X166759961Y-60327122D01*
X166759961Y-60327122D02*
X166664723Y-60279503D01*
X166664723Y-60279503D02*
X166474247Y-60231884D01*
X166474247Y-60231884D02*
X166331390Y-60231884D01*
X166331390Y-60231884D02*
X166140914Y-60279503D01*
X166140914Y-60279503D02*
X166045676Y-60327122D01*
X166045676Y-60327122D02*
X165950438Y-60422360D01*
X165950438Y-60422360D02*
X165902819Y-60565217D01*
X165902819Y-60565217D02*
X165902819Y-60660455D01*
X165902819Y-60660455D02*
X165950438Y-60803312D01*
X165950438Y-60803312D02*
X165998057Y-60850931D01*
X166855200Y-61231884D02*
X166902819Y-61374741D01*
X166902819Y-61374741D02*
X166902819Y-61612836D01*
X166902819Y-61612836D02*
X166855200Y-61708074D01*
X166855200Y-61708074D02*
X166807580Y-61755693D01*
X166807580Y-61755693D02*
X166712342Y-61803312D01*
X166712342Y-61803312D02*
X166617104Y-61803312D01*
X166617104Y-61803312D02*
X166521866Y-61755693D01*
X166521866Y-61755693D02*
X166474247Y-61708074D01*
X166474247Y-61708074D02*
X166426628Y-61612836D01*
X166426628Y-61612836D02*
X166379009Y-61422360D01*
X166379009Y-61422360D02*
X166331390Y-61327122D01*
X166331390Y-61327122D02*
X166283771Y-61279503D01*
X166283771Y-61279503D02*
X166188533Y-61231884D01*
X166188533Y-61231884D02*
X166093295Y-61231884D01*
X166093295Y-61231884D02*
X165998057Y-61279503D01*
X165998057Y-61279503D02*
X165950438Y-61327122D01*
X165950438Y-61327122D02*
X165902819Y-61422360D01*
X165902819Y-61422360D02*
X165902819Y-61660455D01*
X165902819Y-61660455D02*
X165950438Y-61803312D01*
X171935200Y-59235065D02*
X171982819Y-59377922D01*
X171982819Y-59377922D02*
X171982819Y-59616017D01*
X171982819Y-59616017D02*
X171935200Y-59711255D01*
X171935200Y-59711255D02*
X171887580Y-59758874D01*
X171887580Y-59758874D02*
X171792342Y-59806493D01*
X171792342Y-59806493D02*
X171697104Y-59806493D01*
X171697104Y-59806493D02*
X171601866Y-59758874D01*
X171601866Y-59758874D02*
X171554247Y-59711255D01*
X171554247Y-59711255D02*
X171506628Y-59616017D01*
X171506628Y-59616017D02*
X171459009Y-59425541D01*
X171459009Y-59425541D02*
X171411390Y-59330303D01*
X171411390Y-59330303D02*
X171363771Y-59282684D01*
X171363771Y-59282684D02*
X171268533Y-59235065D01*
X171268533Y-59235065D02*
X171173295Y-59235065D01*
X171173295Y-59235065D02*
X171078057Y-59282684D01*
X171078057Y-59282684D02*
X171030438Y-59330303D01*
X171030438Y-59330303D02*
X170982819Y-59425541D01*
X170982819Y-59425541D02*
X170982819Y-59663636D01*
X170982819Y-59663636D02*
X171030438Y-59806493D01*
X171887580Y-60806493D02*
X171935200Y-60758874D01*
X171935200Y-60758874D02*
X171982819Y-60616017D01*
X171982819Y-60616017D02*
X171982819Y-60520779D01*
X171982819Y-60520779D02*
X171935200Y-60377922D01*
X171935200Y-60377922D02*
X171839961Y-60282684D01*
X171839961Y-60282684D02*
X171744723Y-60235065D01*
X171744723Y-60235065D02*
X171554247Y-60187446D01*
X171554247Y-60187446D02*
X171411390Y-60187446D01*
X171411390Y-60187446D02*
X171220914Y-60235065D01*
X171220914Y-60235065D02*
X171125676Y-60282684D01*
X171125676Y-60282684D02*
X171030438Y-60377922D01*
X171030438Y-60377922D02*
X170982819Y-60520779D01*
X170982819Y-60520779D02*
X170982819Y-60616017D01*
X170982819Y-60616017D02*
X171030438Y-60758874D01*
X171030438Y-60758874D02*
X171078057Y-60806493D01*
X171982819Y-61235065D02*
X170982819Y-61235065D01*
X171982819Y-61806493D02*
X171411390Y-61377922D01*
X170982819Y-61806493D02*
X171554247Y-61235065D01*
X244853734Y-57143104D02*
X244377544Y-57143104D01*
X244948972Y-57428819D02*
X244615639Y-56428819D01*
X244615639Y-56428819D02*
X244282306Y-57428819D01*
X244044210Y-56428819D02*
X243425163Y-56428819D01*
X243425163Y-56428819D02*
X243758496Y-56809771D01*
X243758496Y-56809771D02*
X243615639Y-56809771D01*
X243615639Y-56809771D02*
X243520401Y-56857390D01*
X243520401Y-56857390D02*
X243472782Y-56905009D01*
X243472782Y-56905009D02*
X243425163Y-57000247D01*
X243425163Y-57000247D02*
X243425163Y-57238342D01*
X243425163Y-57238342D02*
X243472782Y-57333580D01*
X243472782Y-57333580D02*
X243520401Y-57381200D01*
X243520401Y-57381200D02*
X243615639Y-57428819D01*
X243615639Y-57428819D02*
X243901353Y-57428819D01*
X243901353Y-57428819D02*
X243996591Y-57381200D01*
X243996591Y-57381200D02*
X244044210Y-57333580D01*
X178853638Y-59958893D02*
X178806019Y-59863655D01*
X178806019Y-59863655D02*
X178806019Y-59720798D01*
X178806019Y-59720798D02*
X178853638Y-59577941D01*
X178853638Y-59577941D02*
X178948876Y-59482703D01*
X178948876Y-59482703D02*
X179044114Y-59435084D01*
X179044114Y-59435084D02*
X179234590Y-59387465D01*
X179234590Y-59387465D02*
X179377447Y-59387465D01*
X179377447Y-59387465D02*
X179567923Y-59435084D01*
X179567923Y-59435084D02*
X179663161Y-59482703D01*
X179663161Y-59482703D02*
X179758400Y-59577941D01*
X179758400Y-59577941D02*
X179806019Y-59720798D01*
X179806019Y-59720798D02*
X179806019Y-59816036D01*
X179806019Y-59816036D02*
X179758400Y-59958893D01*
X179758400Y-59958893D02*
X179710780Y-60006512D01*
X179710780Y-60006512D02*
X179377447Y-60006512D01*
X179377447Y-60006512D02*
X179377447Y-59816036D01*
X179806019Y-60435084D02*
X178806019Y-60435084D01*
X178806019Y-60435084D02*
X179806019Y-61006512D01*
X179806019Y-61006512D02*
X178806019Y-61006512D01*
X179806019Y-61482703D02*
X178806019Y-61482703D01*
X178806019Y-61482703D02*
X178806019Y-61720798D01*
X178806019Y-61720798D02*
X178853638Y-61863655D01*
X178853638Y-61863655D02*
X178948876Y-61958893D01*
X178948876Y-61958893D02*
X179044114Y-62006512D01*
X179044114Y-62006512D02*
X179234590Y-62054131D01*
X179234590Y-62054131D02*
X179377447Y-62054131D01*
X179377447Y-62054131D02*
X179567923Y-62006512D01*
X179567923Y-62006512D02*
X179663161Y-61958893D01*
X179663161Y-61958893D02*
X179758400Y-61863655D01*
X179758400Y-61863655D02*
X179806019Y-61720798D01*
X179806019Y-61720798D02*
X179806019Y-61482703D01*
X211959144Y-76363133D02*
X211959144Y-75663133D01*
X211959144Y-75663133D02*
X211792477Y-75663133D01*
X211792477Y-75663133D02*
X211692477Y-75696466D01*
X211692477Y-75696466D02*
X211625811Y-75763133D01*
X211625811Y-75763133D02*
X211592477Y-75829800D01*
X211592477Y-75829800D02*
X211559144Y-75963133D01*
X211559144Y-75963133D02*
X211559144Y-76063133D01*
X211559144Y-76063133D02*
X211592477Y-76196466D01*
X211592477Y-76196466D02*
X211625811Y-76263133D01*
X211625811Y-76263133D02*
X211692477Y-76329800D01*
X211692477Y-76329800D02*
X211792477Y-76363133D01*
X211792477Y-76363133D02*
X211959144Y-76363133D01*
X210925811Y-75663133D02*
X211259144Y-75663133D01*
X211259144Y-75663133D02*
X211292477Y-75996466D01*
X211292477Y-75996466D02*
X211259144Y-75963133D01*
X211259144Y-75963133D02*
X211192477Y-75929800D01*
X211192477Y-75929800D02*
X211025811Y-75929800D01*
X211025811Y-75929800D02*
X210959144Y-75963133D01*
X210959144Y-75963133D02*
X210925811Y-75996466D01*
X210925811Y-75996466D02*
X210892477Y-76063133D01*
X210892477Y-76063133D02*
X210892477Y-76229800D01*
X210892477Y-76229800D02*
X210925811Y-76296466D01*
X210925811Y-76296466D02*
X210959144Y-76329800D01*
X210959144Y-76329800D02*
X211025811Y-76363133D01*
X211025811Y-76363133D02*
X211192477Y-76363133D01*
X211192477Y-76363133D02*
X211259144Y-76329800D01*
X211259144Y-76329800D02*
X211292477Y-76296466D01*
D12*
X201840699Y-80709967D02*
X201983557Y-80638538D01*
X201983557Y-80638538D02*
X202197842Y-80638538D01*
X202197842Y-80638538D02*
X202412128Y-80709967D01*
X202412128Y-80709967D02*
X202554985Y-80852824D01*
X202554985Y-80852824D02*
X202626414Y-80995681D01*
X202626414Y-80995681D02*
X202697842Y-81281395D01*
X202697842Y-81281395D02*
X202697842Y-81495681D01*
X202697842Y-81495681D02*
X202626414Y-81781395D01*
X202626414Y-81781395D02*
X202554985Y-81924252D01*
X202554985Y-81924252D02*
X202412128Y-82067110D01*
X202412128Y-82067110D02*
X202197842Y-82138538D01*
X202197842Y-82138538D02*
X202054985Y-82138538D01*
X202054985Y-82138538D02*
X201840699Y-82067110D01*
X201840699Y-82067110D02*
X201769271Y-81995681D01*
X201769271Y-81995681D02*
X201769271Y-81495681D01*
X201769271Y-81495681D02*
X202054985Y-81495681D01*
X200912128Y-80638538D02*
X200912128Y-80995681D01*
X201269271Y-80852824D02*
X200912128Y-80995681D01*
X200912128Y-80995681D02*
X200554985Y-80852824D01*
X201126414Y-81281395D02*
X200912128Y-80995681D01*
X200912128Y-80995681D02*
X200697842Y-81281395D01*
X199769271Y-80638538D02*
X199769271Y-80995681D01*
X200126414Y-80852824D02*
X199769271Y-80995681D01*
X199769271Y-80995681D02*
X199412128Y-80852824D01*
X199983557Y-81281395D02*
X199769271Y-80995681D01*
X199769271Y-80995681D02*
X199554985Y-81281395D01*
X198626414Y-80638538D02*
X198626414Y-80995681D01*
X198983557Y-80852824D02*
X198626414Y-80995681D01*
X198626414Y-80995681D02*
X198269271Y-80852824D01*
X198840700Y-81281395D02*
X198626414Y-80995681D01*
X198626414Y-80995681D02*
X198412128Y-81281395D01*
G36*
X209470029Y-84775841D02*
G01*
X209471508Y-84785749D01*
X209474423Y-84848480D01*
X209472374Y-84934532D01*
X209465631Y-85028337D01*
X209447952Y-85210041D01*
X209077267Y-85215921D01*
X208706581Y-85221801D01*
X208706581Y-86327977D01*
X208706581Y-87434153D01*
X208416480Y-87434153D01*
X208126378Y-87434153D01*
X208126378Y-86327469D01*
X208126378Y-85220786D01*
X207761065Y-85220786D01*
X207395752Y-85220786D01*
X207395752Y-84962918D01*
X207395752Y-84705050D01*
X208426251Y-84705050D01*
X209456749Y-84705050D01*
X209470029Y-84775841D01*
G37*
G36*
X201367342Y-76088634D02*
G01*
X201444489Y-76110086D01*
X201455300Y-76116864D01*
X201502156Y-76169051D01*
X201537037Y-76242118D01*
X201550663Y-76317900D01*
X201546762Y-76344333D01*
X201529626Y-76397583D01*
X201504925Y-76454148D01*
X201479385Y-76499228D01*
X201459731Y-76518022D01*
X201452874Y-76519227D01*
X201412685Y-76527172D01*
X201345059Y-76540888D01*
X201259627Y-76558431D01*
X201212379Y-76568888D01*
X201007614Y-76634243D01*
X200835673Y-76726265D01*
X200694698Y-76846466D01*
X200582832Y-76996356D01*
X200498216Y-77177445D01*
X200475609Y-77235395D01*
X200435334Y-77312580D01*
X200391079Y-77359488D01*
X200336615Y-77384088D01*
X200270987Y-77389266D01*
X200189536Y-77368720D01*
X200117526Y-77325256D01*
X200066129Y-77266032D01*
X200046514Y-77198205D01*
X200047354Y-77181072D01*
X200062077Y-77101761D01*
X200091974Y-77001065D01*
X200132905Y-76891692D01*
X200180726Y-76786352D01*
X200190526Y-76767746D01*
X200270009Y-76648892D01*
X200376901Y-76525785D01*
X200500564Y-76408659D01*
X200630360Y-76307748D01*
X200755651Y-76233286D01*
X200849700Y-76191519D01*
X200994311Y-76140383D01*
X201134174Y-76105227D01*
X201261210Y-76087496D01*
X201367342Y-76088634D01*
G37*
G36*
X206159927Y-85371214D02*
G01*
X206279260Y-85380026D01*
X206378830Y-85409549D01*
X206471828Y-85465592D01*
X206571449Y-85553963D01*
X206703406Y-85684866D01*
X206717865Y-85538131D01*
X206732324Y-85391397D01*
X206994199Y-85397419D01*
X207256074Y-85403442D01*
X207261674Y-86391936D01*
X207262499Y-86566219D01*
X207263010Y-86758146D01*
X207263053Y-86933475D01*
X207262650Y-87087812D01*
X207261821Y-87216758D01*
X207260585Y-87315918D01*
X207258963Y-87380895D01*
X207256976Y-87407292D01*
X207255503Y-87409891D01*
X207232102Y-87421122D01*
X207179120Y-87428635D01*
X207092115Y-87432842D01*
X206966647Y-87434153D01*
X206686615Y-87434153D01*
X206686615Y-86820649D01*
X206686611Y-86797852D01*
X206686121Y-86614744D01*
X206684671Y-86469436D01*
X206682045Y-86357273D01*
X206678028Y-86273597D01*
X206672405Y-86213753D01*
X206664960Y-86173085D01*
X206655479Y-86146936D01*
X206611769Y-86081851D01*
X206517281Y-85997672D01*
X206396621Y-85935049D01*
X206258327Y-85898000D01*
X206110933Y-85890545D01*
X205988223Y-85897689D01*
X205982072Y-85661591D01*
X205982001Y-85658855D01*
X205980570Y-85543072D01*
X205985980Y-85463350D01*
X206002247Y-85412997D01*
X206033390Y-85385319D01*
X206083427Y-85373621D01*
X206156376Y-85371209D01*
X206159927Y-85371214D01*
G37*
G36*
X201438670Y-75128938D02*
G01*
X201479300Y-75138365D01*
X201518563Y-75154654D01*
X201535684Y-75163622D01*
X201606815Y-75227309D01*
X201644955Y-75313235D01*
X201645743Y-75412566D01*
X201644751Y-75417527D01*
X201607483Y-75497167D01*
X201536765Y-75552534D01*
X201436414Y-75580566D01*
X201422681Y-75582179D01*
X201230115Y-75606323D01*
X201071780Y-75630044D01*
X200939533Y-75655390D01*
X200825228Y-75684411D01*
X200720721Y-75719155D01*
X200617869Y-75761672D01*
X200508527Y-75814010D01*
X200507514Y-75814520D01*
X200263586Y-75960903D01*
X200045730Y-76140463D01*
X199856414Y-76350460D01*
X199698108Y-76588158D01*
X199573282Y-76850820D01*
X199562893Y-76876568D01*
X199525910Y-76957968D01*
X199490219Y-77023304D01*
X199462305Y-77060337D01*
X199398300Y-77091518D01*
X199316843Y-77095997D01*
X199234012Y-77075435D01*
X199163747Y-77033372D01*
X199119987Y-76973352D01*
X199118492Y-76969248D01*
X199107574Y-76883064D01*
X199122889Y-76771369D01*
X199161958Y-76640153D01*
X199222302Y-76495407D01*
X199301442Y-76343121D01*
X199396901Y-76189287D01*
X199506199Y-76039894D01*
X199542299Y-75995567D01*
X199761567Y-75765609D01*
X200007288Y-75568156D01*
X200276139Y-75404991D01*
X200564793Y-75277894D01*
X200869926Y-75188645D01*
X201188212Y-75139026D01*
X201209396Y-75137131D01*
X201313635Y-75128790D01*
X201386754Y-75125902D01*
X201438670Y-75128938D01*
G37*
G36*
X201467230Y-74172257D02*
G01*
X201470446Y-74172478D01*
X201541274Y-74197688D01*
X201598895Y-74253872D01*
X201637670Y-74330117D01*
X201651962Y-74415512D01*
X201636132Y-74499145D01*
X201624944Y-74522412D01*
X201592090Y-74563549D01*
X201541978Y-74594382D01*
X201468180Y-74617237D01*
X201364270Y-74634440D01*
X201223821Y-74648314D01*
X201154102Y-74654296D01*
X200936792Y-74678899D01*
X200745178Y-74711636D01*
X200566073Y-74755080D01*
X200386291Y-74811808D01*
X200115126Y-74920147D01*
X199860932Y-75054797D01*
X199625535Y-75218013D01*
X199398069Y-75416441D01*
X199277807Y-75538609D01*
X199068144Y-75788797D01*
X198889516Y-76054517D01*
X198745867Y-76329564D01*
X198641142Y-76607731D01*
X198636386Y-76623274D01*
X198599986Y-76727330D01*
X198565138Y-76796773D01*
X198528358Y-76838738D01*
X198481913Y-76865636D01*
X198397192Y-76880813D01*
X198311730Y-76863369D01*
X198237520Y-76816628D01*
X198186558Y-76743920D01*
X198180125Y-76727651D01*
X198170030Y-76688821D01*
X198169797Y-76644746D01*
X198180155Y-76583424D01*
X198201836Y-76492851D01*
X198207053Y-76472967D01*
X198241366Y-76360256D01*
X198284812Y-76237089D01*
X198329278Y-76126776D01*
X198345883Y-76089663D01*
X198516362Y-75765976D01*
X198721279Y-75466054D01*
X198958077Y-75192037D01*
X199224201Y-74946062D01*
X199517094Y-74730266D01*
X199834202Y-74546789D01*
X200172967Y-74397766D01*
X200530834Y-74285337D01*
X200611829Y-74266033D01*
X200790732Y-74230821D01*
X200978105Y-74202342D01*
X201161566Y-74182092D01*
X201328735Y-74171565D01*
X201467230Y-74172257D01*
G37*
G36*
X191977393Y-85376029D02*
G01*
X192003263Y-85377953D01*
X192116002Y-85395445D01*
X192209335Y-85430818D01*
X192296580Y-85490695D01*
X192391057Y-85581697D01*
X192503874Y-85701381D01*
X192504203Y-85573900D01*
X192506011Y-85517102D01*
X192512502Y-85454223D01*
X192522029Y-85418845D01*
X192523149Y-85417291D01*
X192546209Y-85405445D01*
X192595667Y-85398460D01*
X192677000Y-85395907D01*
X192795685Y-85397356D01*
X193051844Y-85403442D01*
X193057444Y-86391936D01*
X193058269Y-86566219D01*
X193058779Y-86758146D01*
X193058823Y-86933475D01*
X193058420Y-87087812D01*
X193057590Y-87216758D01*
X193056355Y-87315918D01*
X193054733Y-87380895D01*
X193052746Y-87407292D01*
X193051273Y-87409891D01*
X193027871Y-87421122D01*
X192974889Y-87428635D01*
X192887885Y-87432842D01*
X192762416Y-87434153D01*
X192482385Y-87434153D01*
X192482385Y-86831048D01*
X192482377Y-86808893D01*
X192481276Y-86597701D01*
X192478325Y-86429272D01*
X192473525Y-86303651D01*
X192466879Y-86220881D01*
X192458386Y-86181006D01*
X192441605Y-86154831D01*
X192399389Y-86101422D01*
X192346818Y-86043097D01*
X192325413Y-86021993D01*
X192208491Y-85940187D01*
X192073952Y-85897296D01*
X191920705Y-85892936D01*
X191875105Y-85895887D01*
X191810707Y-85893593D01*
X191780676Y-85881578D01*
X191776679Y-85869322D01*
X191768285Y-85819796D01*
X191759470Y-85743999D01*
X191751591Y-85652610D01*
X191745385Y-85558379D01*
X191743977Y-85494339D01*
X191748785Y-85454084D01*
X191760991Y-85427970D01*
X191781777Y-85406355D01*
X191800981Y-85391744D01*
X191837910Y-85377242D01*
X191892579Y-85372645D01*
X191977393Y-85376029D01*
G37*
G36*
X194094060Y-86081147D02*
G01*
X194094060Y-86769597D01*
X194191150Y-86863958D01*
X194270681Y-86931409D01*
X194359558Y-86978440D01*
X194461374Y-86999987D01*
X194589549Y-87000653D01*
X194653806Y-86995868D01*
X194715960Y-86984938D01*
X194760633Y-86964530D01*
X194802613Y-86929721D01*
X194811686Y-86920509D01*
X194858860Y-86856722D01*
X194889169Y-86790704D01*
X194890768Y-86783164D01*
X194896079Y-86731072D01*
X194900805Y-86643449D01*
X194904781Y-86526086D01*
X194907838Y-86384777D01*
X194909807Y-86225312D01*
X194910522Y-86053484D01*
X194910642Y-85392698D01*
X195191198Y-85392698D01*
X195471754Y-85392698D01*
X195465183Y-86193163D01*
X195465176Y-86194013D01*
X195463369Y-86401368D01*
X195461519Y-86570351D01*
X195459359Y-86705551D01*
X195456626Y-86811555D01*
X195453055Y-86892952D01*
X195448381Y-86954330D01*
X195442340Y-87000277D01*
X195434666Y-87035383D01*
X195425096Y-87064234D01*
X195413363Y-87091421D01*
X195372370Y-87169436D01*
X195278872Y-87290545D01*
X195159260Y-87381665D01*
X195007343Y-87448236D01*
X194942785Y-87461834D01*
X194837180Y-87470473D01*
X194706227Y-87471131D01*
X194666545Y-87469971D01*
X194569841Y-87464496D01*
X194497849Y-87454049D01*
X194436856Y-87436024D01*
X194373148Y-87407814D01*
X194324987Y-87381525D01*
X194241707Y-87326537D01*
X194174644Y-87271411D01*
X194131205Y-87229857D01*
X194105442Y-87210519D01*
X194095624Y-87216817D01*
X194094060Y-87246359D01*
X194090529Y-87300063D01*
X194080630Y-87367000D01*
X194067199Y-87434153D01*
X193801272Y-87434153D01*
X193535346Y-87434153D01*
X193535346Y-86413425D01*
X193535346Y-85392698D01*
X193814703Y-85392698D01*
X194094060Y-85392698D01*
X194094060Y-86081147D01*
G37*
G36*
X201529255Y-86025981D02*
G01*
X201529255Y-87434153D01*
X201249898Y-87434153D01*
X200970541Y-87434153D01*
X200969768Y-86913045D01*
X200968995Y-86391936D01*
X200916860Y-86455734D01*
X200897048Y-86481714D01*
X200853687Y-86541249D01*
X200793045Y-86626038D01*
X200719074Y-86730520D01*
X200635724Y-86849134D01*
X200546948Y-86976321D01*
X200229170Y-87433110D01*
X199901463Y-87433631D01*
X199889306Y-87433642D01*
X199755164Y-87432228D01*
X199656120Y-87428078D01*
X199594781Y-87421361D01*
X199573756Y-87412248D01*
X199576731Y-87405459D01*
X199600208Y-87367891D01*
X199644525Y-87302129D01*
X199706642Y-87212536D01*
X199783518Y-87103477D01*
X199872112Y-86979316D01*
X199969384Y-86844416D01*
X200365012Y-86298489D01*
X200286734Y-86205534D01*
X200282654Y-86200703D01*
X200240601Y-86151597D01*
X200176818Y-86077806D01*
X200097054Y-85985955D01*
X200007063Y-85882671D01*
X199912595Y-85774578D01*
X199886068Y-85744184D01*
X199800296Y-85644633D01*
X199726281Y-85556798D01*
X199668218Y-85485784D01*
X199630304Y-85436696D01*
X199616734Y-85414637D01*
X199616833Y-85413939D01*
X199640713Y-85404971D01*
X199704902Y-85398521D01*
X199806958Y-85394743D01*
X199944441Y-85393794D01*
X200272148Y-85394890D01*
X200603828Y-85802085D01*
X200672124Y-85885481D01*
X200758797Y-85989933D01*
X200834090Y-86079082D01*
X200894111Y-86148385D01*
X200934965Y-86193299D01*
X200952760Y-86209280D01*
X200952936Y-86209239D01*
X200957004Y-86186774D01*
X200961028Y-86126284D01*
X200964868Y-86032515D01*
X200968388Y-85910212D01*
X200971449Y-85764121D01*
X200973915Y-85598988D01*
X200975648Y-85419559D01*
X200981285Y-84629838D01*
X201255270Y-84623824D01*
X201529255Y-84617810D01*
X201529255Y-86025981D01*
G37*
G36*
X198573429Y-84877295D02*
G01*
X198637891Y-84883847D01*
X198723244Y-84896915D01*
X198816791Y-84914052D01*
X198905835Y-84932807D01*
X198977679Y-84950730D01*
X199019626Y-84965371D01*
X199028091Y-84970777D01*
X199043417Y-84991013D01*
X199052521Y-85028261D01*
X199056893Y-85091165D01*
X199058020Y-85188367D01*
X199058020Y-85390815D01*
X199213815Y-85397129D01*
X199369610Y-85403442D01*
X199369610Y-85607588D01*
X199369610Y-85811733D01*
X199215510Y-85818013D01*
X199061409Y-85824292D01*
X199054342Y-86451938D01*
X199047275Y-87079584D01*
X198986586Y-87203175D01*
X198907566Y-87318359D01*
X198798724Y-87404089D01*
X198664084Y-87456517D01*
X198643965Y-87460579D01*
X198558027Y-87470006D01*
X198451459Y-87474035D01*
X198340086Y-87472733D01*
X198239733Y-87466167D01*
X198166226Y-87454405D01*
X198118441Y-87441826D01*
X198041758Y-87418919D01*
X197995428Y-87395367D01*
X197971803Y-87363168D01*
X197963236Y-87314323D01*
X197962080Y-87240831D01*
X197963622Y-87166618D01*
X197968611Y-87084886D01*
X197975854Y-87026834D01*
X197984288Y-86993021D01*
X198002226Y-86969080D01*
X198034949Y-86972552D01*
X198095507Y-86986399D01*
X198180239Y-86996196D01*
X198267672Y-86999280D01*
X198342837Y-86995192D01*
X198390762Y-86983472D01*
X198420104Y-86964218D01*
X198446035Y-86935301D01*
X198465727Y-86893606D01*
X198480001Y-86834103D01*
X198489676Y-86751763D01*
X198495572Y-86641554D01*
X198498509Y-86498449D01*
X198499305Y-86317415D01*
X198499305Y-85822478D01*
X198233461Y-85822478D01*
X197967617Y-85822478D01*
X197956149Y-85720405D01*
X197953132Y-85690745D01*
X197945919Y-85596517D01*
X197941574Y-85505515D01*
X197938467Y-85392698D01*
X198218886Y-85392698D01*
X198499305Y-85392698D01*
X198499305Y-85134830D01*
X198499305Y-84876962D01*
X198561399Y-84876962D01*
X198573429Y-84877295D01*
G37*
G36*
X202673136Y-85355215D02*
G01*
X202859573Y-85382808D01*
X202934697Y-85403513D01*
X203120510Y-85483483D01*
X203283189Y-85596289D01*
X203419874Y-85737848D01*
X203527703Y-85904077D01*
X203603814Y-86090893D01*
X203645347Y-86294212D01*
X203649440Y-86509952D01*
X203639115Y-86616448D01*
X203605944Y-86786185D01*
X203550533Y-86931827D01*
X203468400Y-87063765D01*
X203355062Y-87192392D01*
X203254401Y-87279778D01*
X203093770Y-87375461D01*
X202904551Y-87442931D01*
X202838309Y-87456835D01*
X202699587Y-87471449D01*
X202545088Y-87473872D01*
X202390967Y-87464123D01*
X202253378Y-87442219D01*
X202252768Y-87442081D01*
X202161077Y-87417125D01*
X202067876Y-87384823D01*
X201983949Y-87349685D01*
X201920080Y-87316225D01*
X201887051Y-87288953D01*
X201884516Y-87266300D01*
X201887000Y-87211063D01*
X201893868Y-87136498D01*
X201903620Y-87054972D01*
X201914756Y-86978850D01*
X201925775Y-86920499D01*
X201935178Y-86892286D01*
X201950168Y-86890474D01*
X201994958Y-86902446D01*
X202056080Y-86927937D01*
X202070798Y-86934758D01*
X202211616Y-86984187D01*
X202362501Y-87013111D01*
X202511900Y-87020840D01*
X202648263Y-87006686D01*
X202760039Y-86969959D01*
X202795683Y-86950105D01*
X202910066Y-86856881D01*
X202997847Y-86735760D01*
X203008698Y-86714459D01*
X203026759Y-86666835D01*
X203037583Y-86610090D01*
X203042847Y-86532957D01*
X203044229Y-86424170D01*
X203043973Y-86369712D01*
X203041027Y-86276841D01*
X203033419Y-86210349D01*
X203019454Y-86158889D01*
X202997435Y-86111113D01*
X202960984Y-86053340D01*
X202878351Y-85960480D01*
X202782217Y-85886536D01*
X202685506Y-85842632D01*
X202584914Y-85825812D01*
X202437382Y-85826188D01*
X202280719Y-85848843D01*
X202128867Y-85891563D01*
X201995766Y-85952137D01*
X201978492Y-85960952D01*
X201949712Y-85964407D01*
X201930242Y-85941769D01*
X201916869Y-85887410D01*
X201906375Y-85795701D01*
X201906339Y-85795302D01*
X201897778Y-85709124D01*
X201888845Y-85632834D01*
X201881468Y-85582908D01*
X201878629Y-85556741D01*
X201888257Y-85529462D01*
X201920972Y-85503557D01*
X201985043Y-85470014D01*
X202090904Y-85426445D01*
X202275075Y-85378402D01*
X202473728Y-85354203D01*
X202673136Y-85355215D01*
G37*
G36*
X199594951Y-81584879D02*
G01*
X199584615Y-81757972D01*
X199560597Y-81921313D01*
X199523686Y-82059466D01*
X199487407Y-82155312D01*
X199444108Y-82255698D01*
X199394287Y-82355759D01*
X199335446Y-82459054D01*
X199265083Y-82569141D01*
X199180698Y-82689576D01*
X199079790Y-82823917D01*
X198959858Y-82975723D01*
X198818401Y-83148552D01*
X198652920Y-83345959D01*
X198460913Y-83571505D01*
X198427136Y-83610730D01*
X198335853Y-83714272D01*
X198254878Y-83802581D01*
X198188486Y-83871190D01*
X198140953Y-83915631D01*
X198116553Y-83931435D01*
X198111917Y-83931149D01*
X198096047Y-83925836D01*
X198074890Y-83911184D01*
X198045309Y-83883779D01*
X198004167Y-83840207D01*
X197948325Y-83777055D01*
X197874648Y-83690909D01*
X197779996Y-83578354D01*
X197661234Y-83435977D01*
X197583761Y-83342521D01*
X197392678Y-83107702D01*
X197228987Y-82898580D01*
X197090735Y-82711488D01*
X196975969Y-82542756D01*
X196882734Y-82388718D01*
X196809077Y-82245706D01*
X196753045Y-82110052D01*
X196712683Y-81978088D01*
X196686039Y-81846145D01*
X196671158Y-81710557D01*
X196666086Y-81567655D01*
X196666117Y-81556911D01*
X197467833Y-81556911D01*
X197469366Y-81597155D01*
X197501521Y-81746413D01*
X197573504Y-81890007D01*
X197682843Y-82022581D01*
X197727346Y-82064140D01*
X197815722Y-82131973D01*
X197889687Y-82167740D01*
X197927596Y-82177360D01*
X198050901Y-82197318D01*
X198170509Y-82201918D01*
X198268632Y-82190109D01*
X198375689Y-82153536D01*
X198511869Y-82073196D01*
X198623155Y-81965727D01*
X198705952Y-81837169D01*
X198756666Y-81693565D01*
X198771702Y-81540956D01*
X198747465Y-81385382D01*
X198747397Y-81385148D01*
X198691412Y-81235950D01*
X198616850Y-81119848D01*
X198516744Y-81028567D01*
X198384126Y-80953833D01*
X198313090Y-80923995D01*
X198251927Y-80907697D01*
X198184083Y-80902645D01*
X198091578Y-80905894D01*
X198075113Y-80906912D01*
X197974734Y-80917908D01*
X197898334Y-80938050D01*
X197829401Y-80971470D01*
X197742787Y-81031842D01*
X197631115Y-81143996D01*
X197544234Y-81275095D01*
X197487891Y-81415835D01*
X197467833Y-81556911D01*
X196666117Y-81556911D01*
X196666212Y-81523553D01*
X196676425Y-81345543D01*
X196702764Y-81202342D01*
X196768262Y-81010864D01*
X196879444Y-80794146D01*
X197020293Y-80601993D01*
X197186909Y-80436702D01*
X197375393Y-80300572D01*
X197581843Y-80195900D01*
X197802360Y-80124987D01*
X198033043Y-80090128D01*
X198269992Y-80093624D01*
X198509308Y-80137772D01*
X198656829Y-80187759D01*
X198866601Y-80294459D01*
X199058979Y-80435170D01*
X199229504Y-80605218D01*
X199373713Y-80799925D01*
X199487145Y-81014617D01*
X199565340Y-81244617D01*
X199571421Y-81271190D01*
X199590817Y-81417472D01*
X199593866Y-81540956D01*
X199594951Y-81584879D01*
G37*
G36*
X205843131Y-86941092D02*
G01*
X205805704Y-87095771D01*
X205776130Y-87161717D01*
X205688004Y-87282774D01*
X205565313Y-87378324D01*
X205408020Y-87448399D01*
X205345296Y-87461680D01*
X205242327Y-87470323D01*
X205117202Y-87470936D01*
X205091010Y-87470136D01*
X204992714Y-87464568D01*
X204919087Y-87453619D01*
X204855122Y-87434230D01*
X204785814Y-87403338D01*
X204726932Y-87371574D01*
X204643591Y-87318598D01*
X204578185Y-87268163D01*
X204497083Y-87194892D01*
X204490538Y-87309150D01*
X204483992Y-87423408D01*
X204226124Y-87423408D01*
X203968256Y-87423408D01*
X203962019Y-86832461D01*
X203961075Y-86717579D01*
X203961089Y-86710529D01*
X204537715Y-86710529D01*
X204537980Y-86767943D01*
X204541249Y-86830274D01*
X204551517Y-86869558D01*
X204572778Y-86897960D01*
X204609030Y-86927646D01*
X204615586Y-86932513D01*
X204688754Y-86977112D01*
X204764825Y-87011411D01*
X204809338Y-87025617D01*
X204943930Y-87052141D01*
X205061863Y-87051115D01*
X205159092Y-87024944D01*
X205231574Y-86976033D01*
X205275263Y-86906787D01*
X205286114Y-86819610D01*
X205260084Y-86716910D01*
X205254814Y-86705298D01*
X205216406Y-86653355D01*
X205155839Y-86614371D01*
X205068016Y-86586622D01*
X204947839Y-86568383D01*
X204790211Y-86557928D01*
X204537715Y-86547807D01*
X204537715Y-86710529D01*
X203961089Y-86710529D01*
X203961510Y-86490482D01*
X203966117Y-86299688D01*
X203975711Y-86140662D01*
X203991108Y-86008868D01*
X204013123Y-85899770D01*
X204042572Y-85808832D01*
X204080270Y-85731519D01*
X204127033Y-85663294D01*
X204183676Y-85599623D01*
X204304253Y-85505337D01*
X204455931Y-85432372D01*
X204631576Y-85381948D01*
X204824308Y-85355026D01*
X205027249Y-85352566D01*
X205233522Y-85375526D01*
X205436247Y-85424866D01*
X205442349Y-85426798D01*
X205547504Y-85461777D01*
X205617674Y-85493495D01*
X205658776Y-85530540D01*
X205676729Y-85581500D01*
X205677450Y-85654963D01*
X205666857Y-85759515D01*
X205660045Y-85811878D01*
X205646904Y-85888373D01*
X205633670Y-85940232D01*
X205622375Y-85958375D01*
X205608401Y-85954562D01*
X205559337Y-85939154D01*
X205485695Y-85915020D01*
X205397275Y-85885340D01*
X205388600Y-85882407D01*
X205279446Y-85848306D01*
X205188103Y-85827813D01*
X205094419Y-85817493D01*
X204978239Y-85813911D01*
X204942510Y-85813663D01*
X204847430Y-85815208D01*
X204780764Y-85821623D01*
X204731377Y-85834504D01*
X204688138Y-85855442D01*
X204687242Y-85855966D01*
X204609504Y-85924706D01*
X204557033Y-86018535D01*
X204537760Y-86123324D01*
X204537739Y-86198535D01*
X204883197Y-86205725D01*
X204984595Y-86208663D01*
X205157931Y-86219325D01*
X205298817Y-86237548D01*
X205414030Y-86264721D01*
X205510344Y-86302232D01*
X205594537Y-86351470D01*
X205643357Y-86389568D01*
X205741345Y-86501941D01*
X205808763Y-86636462D01*
X205843421Y-86785418D01*
X205843357Y-86819610D01*
X205843131Y-86941092D01*
G37*
G36*
X197750525Y-86192380D02*
G01*
X197768424Y-86419907D01*
X197765744Y-86521852D01*
X197741932Y-86717019D01*
X197691448Y-86886113D01*
X197611822Y-87036091D01*
X197500582Y-87173911D01*
X197457857Y-87215366D01*
X197316066Y-87321145D01*
X197155318Y-87403657D01*
X196991652Y-87454075D01*
X196971868Y-87457607D01*
X196857836Y-87469536D01*
X196720582Y-87473950D01*
X196575808Y-87471078D01*
X196439216Y-87461148D01*
X196326506Y-87444390D01*
X196314654Y-87441825D01*
X196211884Y-87414503D01*
X196107952Y-87379315D01*
X196013621Y-87340625D01*
X195939656Y-87302797D01*
X195896820Y-87270195D01*
X195892140Y-87263160D01*
X195883949Y-87227844D01*
X195886091Y-87166794D01*
X195898639Y-87072038D01*
X195910306Y-86998948D01*
X195925636Y-86923341D01*
X195943360Y-86881301D01*
X195968660Y-86867499D01*
X196006719Y-86876605D01*
X196062721Y-86903289D01*
X196157306Y-86943718D01*
X196324311Y-86990936D01*
X196504100Y-87017896D01*
X196680068Y-87021420D01*
X196723685Y-87018276D01*
X196869023Y-86992985D01*
X196983958Y-86944957D01*
X197074633Y-86871865D01*
X197100141Y-86839888D01*
X197143552Y-86765060D01*
X197175829Y-86684875D01*
X197188476Y-86618261D01*
X197188302Y-86611929D01*
X197185217Y-86600983D01*
X197174775Y-86592417D01*
X197152522Y-86585938D01*
X197114006Y-86581257D01*
X197054774Y-86578080D01*
X196970374Y-86576117D01*
X196856354Y-86575076D01*
X196708261Y-86574665D01*
X196521643Y-86574593D01*
X196358708Y-86574485D01*
X196204321Y-86573942D01*
X196084530Y-86572713D01*
X195994818Y-86570548D01*
X195930670Y-86567200D01*
X195887567Y-86562419D01*
X195860994Y-86555955D01*
X195846433Y-86547561D01*
X195839367Y-86536987D01*
X195836159Y-86527274D01*
X195827316Y-86467038D01*
X195823475Y-86378507D01*
X195824194Y-86273025D01*
X195827906Y-86187791D01*
X196324133Y-86187791D01*
X196756305Y-86187791D01*
X196819298Y-86187816D01*
X196957458Y-86187542D01*
X197058861Y-86185300D01*
X197128013Y-86179235D01*
X197169421Y-86167492D01*
X197187591Y-86148214D01*
X197187029Y-86119547D01*
X197172242Y-86079636D01*
X197147736Y-86026623D01*
X197089501Y-85928704D01*
X197000113Y-85844717D01*
X196886830Y-85795530D01*
X196746988Y-85779500D01*
X196673908Y-85783538D01*
X196547655Y-85816072D01*
X196449533Y-85881020D01*
X196379839Y-85978145D01*
X196338870Y-86107207D01*
X196324133Y-86187791D01*
X195827906Y-86187791D01*
X195829032Y-86161934D01*
X195837547Y-86056576D01*
X195849297Y-85968295D01*
X195863841Y-85908434D01*
X195897353Y-85830028D01*
X195996013Y-85671370D01*
X196123818Y-85543921D01*
X196279832Y-85448323D01*
X196463118Y-85385216D01*
X196672740Y-85355240D01*
X196780141Y-85353112D01*
X196993038Y-85376469D01*
X197185052Y-85435771D01*
X197353860Y-85528759D01*
X197497136Y-85653172D01*
X197612556Y-85806753D01*
X197697794Y-85987242D01*
X197739172Y-86148214D01*
X197750525Y-86192380D01*
G37*
G36*
X205840038Y-80617957D02*
G01*
X205861711Y-80662005D01*
X205958697Y-80955219D01*
X205981651Y-81068088D01*
X206000894Y-81233035D01*
X206002541Y-81266809D01*
X206009625Y-81412112D01*
X206007661Y-81591415D01*
X206005338Y-81621378D01*
X205994822Y-81757043D01*
X205970928Y-81895090D01*
X205967191Y-81910032D01*
X205873663Y-82196431D01*
X205836680Y-82272469D01*
X205750963Y-82448704D01*
X205744290Y-82462423D01*
X205581078Y-82704498D01*
X205386034Y-82919141D01*
X205178081Y-83094802D01*
X204955061Y-83236671D01*
X204715364Y-83343255D01*
X204451759Y-83418420D01*
X204433948Y-83422138D01*
X204269152Y-83444485D01*
X204081584Y-83452689D01*
X203886983Y-83447133D01*
X203701088Y-83428199D01*
X203539636Y-83396268D01*
X203333702Y-83328342D01*
X203081603Y-83207014D01*
X202848096Y-83051241D01*
X202636877Y-82864858D01*
X202451641Y-82651703D01*
X202296087Y-82415616D01*
X202224477Y-82266048D01*
X203428409Y-82266048D01*
X203430869Y-82270226D01*
X203460839Y-82293883D01*
X203517206Y-82328486D01*
X203590576Y-82368121D01*
X203608659Y-82377151D01*
X203690335Y-82413530D01*
X203762050Y-82439067D01*
X203810025Y-82448704D01*
X203871556Y-82448704D01*
X203871556Y-82260635D01*
X204194100Y-82260635D01*
X204194650Y-82350025D01*
X204197769Y-82405286D01*
X204205426Y-82434490D01*
X204219593Y-82445707D01*
X204242241Y-82447008D01*
X204298584Y-82438095D01*
X204387163Y-82410745D01*
X204482236Y-82371009D01*
X204567573Y-82324975D01*
X204651154Y-82272469D01*
X204503106Y-82128288D01*
X204355058Y-81984107D01*
X204274693Y-82017633D01*
X204194328Y-82051158D01*
X204194109Y-82249931D01*
X204194100Y-82260635D01*
X203871556Y-82260635D01*
X203871556Y-82248539D01*
X203871556Y-82048373D01*
X203797214Y-82012922D01*
X203722871Y-81977471D01*
X203573516Y-82111015D01*
X203538039Y-82143467D01*
X203480442Y-82199913D01*
X203441582Y-82243249D01*
X203428409Y-82266048D01*
X202224477Y-82266048D01*
X202173910Y-82160432D01*
X202088806Y-81889990D01*
X202067062Y-81784674D01*
X202049268Y-81610633D01*
X202985848Y-81610633D01*
X203000420Y-81669728D01*
X203011718Y-81706205D01*
X203037634Y-81775282D01*
X203069642Y-81851248D01*
X203102365Y-81922393D01*
X203138735Y-81985914D01*
X203173351Y-82013416D01*
X203213951Y-82006019D01*
X203268274Y-81964845D01*
X203344059Y-81891015D01*
X203368624Y-81866226D01*
X203427292Y-81805528D01*
X203461579Y-81764405D01*
X203476061Y-81734674D01*
X203475749Y-81723620D01*
X204576518Y-81723620D01*
X204577597Y-81734674D01*
X204579116Y-81750226D01*
X204598398Y-81782091D01*
X204638866Y-81827656D01*
X204705027Y-81895363D01*
X204741398Y-81931841D01*
X204798791Y-81987666D01*
X204840664Y-82026103D01*
X204859825Y-82040413D01*
X204882792Y-82022200D01*
X204915244Y-81973282D01*
X204952304Y-81903751D01*
X204989310Y-81823700D01*
X205021599Y-81743225D01*
X205044510Y-81672419D01*
X205053378Y-81621378D01*
X205050208Y-81617081D01*
X205014193Y-81609021D01*
X204941616Y-81605468D01*
X204836955Y-81606724D01*
X204620366Y-81613559D01*
X204591134Y-81681935D01*
X204586098Y-81693832D01*
X204576518Y-81723620D01*
X203475749Y-81723620D01*
X203475313Y-81708152D01*
X203463909Y-81676657D01*
X203436562Y-81610633D01*
X203211205Y-81610633D01*
X202985848Y-81610633D01*
X202049268Y-81610633D01*
X202038229Y-81502659D01*
X202048386Y-81266809D01*
X202995033Y-81266809D01*
X203213693Y-81266809D01*
X203432353Y-81266809D01*
X203458650Y-81197141D01*
X203461492Y-81189568D01*
X203469374Y-81163105D01*
X204589735Y-81163105D01*
X204593766Y-81197869D01*
X204607554Y-81266809D01*
X204840089Y-81266809D01*
X205072623Y-81266809D01*
X205039712Y-81153992D01*
X205021456Y-81099840D01*
X204987645Y-81018971D01*
X204949525Y-80942277D01*
X204913265Y-80881889D01*
X204885037Y-80849936D01*
X204875797Y-80851992D01*
X204840562Y-80876613D01*
X204787409Y-80922685D01*
X204723767Y-80984031D01*
X204665060Y-81044136D01*
X204620181Y-81094792D01*
X204596807Y-81131597D01*
X204590953Y-81157678D01*
X204589735Y-81163105D01*
X203469374Y-81163105D01*
X203470990Y-81157678D01*
X203468680Y-81130523D01*
X203449712Y-81099532D01*
X203409234Y-81056135D01*
X203342395Y-80991762D01*
X203309470Y-80961275D01*
X203248113Y-80909239D01*
X203200603Y-80875249D01*
X203175171Y-80865519D01*
X203164269Y-80873972D01*
X203134524Y-80915073D01*
X203098617Y-80978912D01*
X203062379Y-81053855D01*
X203031642Y-81128272D01*
X203012236Y-81190531D01*
X202995033Y-81266809D01*
X202048386Y-81266809D01*
X202050399Y-81220079D01*
X202102525Y-80941426D01*
X202193563Y-80671195D01*
X202219104Y-80620210D01*
X203409542Y-80620210D01*
X203548600Y-80760853D01*
X203581116Y-80793392D01*
X203638440Y-80848887D01*
X203680625Y-80887203D01*
X203700288Y-80901496D01*
X203717798Y-80894306D01*
X203754631Y-80869946D01*
X203787413Y-80850795D01*
X203833950Y-80837713D01*
X203846878Y-80835434D01*
X203859785Y-80821395D01*
X203860943Y-80816172D01*
X204193891Y-80816172D01*
X204263730Y-80858754D01*
X204275927Y-80866088D01*
X204320746Y-80891090D01*
X204344314Y-80901034D01*
X204351484Y-80896554D01*
X204384199Y-80868562D01*
X204436107Y-80820610D01*
X204499908Y-80759345D01*
X204644757Y-80617957D01*
X204596608Y-80577932D01*
X204580615Y-80566251D01*
X204520243Y-80532184D01*
X204441692Y-80495611D01*
X204358930Y-80462319D01*
X204285924Y-80438098D01*
X204236643Y-80428738D01*
X204219890Y-80430611D01*
X204205811Y-80442708D01*
X204197987Y-80473268D01*
X204194614Y-80530461D01*
X204193891Y-80622455D01*
X204193891Y-80816172D01*
X203860943Y-80816172D01*
X203867262Y-80787685D01*
X203870717Y-80726540D01*
X203871556Y-80630198D01*
X203871556Y-80423366D01*
X203811906Y-80435296D01*
X203781750Y-80442351D01*
X203695373Y-80469475D01*
X203602890Y-80505555D01*
X203520216Y-80544056D01*
X203463265Y-80578443D01*
X203409542Y-80620210D01*
X202219104Y-80620210D01*
X202322465Y-80413881D01*
X202488186Y-80173979D01*
X202502439Y-80156358D01*
X202698612Y-79947248D01*
X202915871Y-79771134D01*
X203150285Y-79628608D01*
X203397926Y-79520265D01*
X203654863Y-79446698D01*
X203917167Y-79408499D01*
X204180908Y-79406263D01*
X204442157Y-79440582D01*
X204696983Y-79512051D01*
X204941458Y-79621261D01*
X205171651Y-79768808D01*
X205358734Y-79926511D01*
X205560997Y-80146548D01*
X205728900Y-80392081D01*
X205744293Y-80423366D01*
X205840038Y-80617957D01*
G37*
G36*
X205017066Y-78646361D02*
G01*
X205028121Y-78710347D01*
X205031962Y-78735934D01*
X205037755Y-78742843D01*
X205074062Y-78766192D01*
X205136315Y-78799481D01*
X205215910Y-78837940D01*
X205285806Y-78871645D01*
X205438659Y-78954883D01*
X205582848Y-79045707D01*
X205712128Y-79139401D01*
X205820253Y-79231250D01*
X205900977Y-79316541D01*
X205948053Y-79390558D01*
X205966441Y-79470255D01*
X205950278Y-79561341D01*
X205894566Y-79640744D01*
X205863466Y-79665928D01*
X205790387Y-79696229D01*
X205694152Y-79700491D01*
X205675132Y-79693541D01*
X205625389Y-79664802D01*
X205557128Y-79619097D01*
X205479262Y-79562164D01*
X205441394Y-79533794D01*
X205178782Y-79361655D01*
X204912050Y-79230723D01*
X204636711Y-79139459D01*
X204348277Y-79086328D01*
X204042262Y-79069790D01*
X203913375Y-79073450D01*
X203596413Y-79110441D01*
X203295971Y-79185721D01*
X203014267Y-79297471D01*
X202753519Y-79443869D01*
X202515946Y-79623097D01*
X202303766Y-79833333D01*
X202119197Y-80072758D01*
X201964457Y-80339552D01*
X201841764Y-80631893D01*
X201753337Y-80947964D01*
X201751595Y-80956365D01*
X201737871Y-81043064D01*
X201724961Y-81157114D01*
X201714244Y-81284663D01*
X201707102Y-81411860D01*
X201694854Y-81718078D01*
X200862886Y-81718078D01*
X200030917Y-81718078D01*
X200005812Y-81494965D01*
X200001612Y-81459332D01*
X199960294Y-81214063D01*
X199899195Y-80996486D01*
X199815438Y-80796035D01*
X199779395Y-80726336D01*
X199629995Y-80492817D01*
X199450879Y-80284622D01*
X199246292Y-80105112D01*
X199020483Y-79957649D01*
X198777697Y-79845596D01*
X198522182Y-79772313D01*
X198478821Y-79764556D01*
X198321548Y-79748349D01*
X198144762Y-79744269D01*
X197963779Y-79751832D01*
X197793916Y-79770551D01*
X197650490Y-79799941D01*
X197645967Y-79801190D01*
X197567570Y-79822848D01*
X197503711Y-79840486D01*
X197467833Y-79850390D01*
X197458516Y-79850293D01*
X197448434Y-79837475D01*
X197441189Y-79804662D01*
X197436098Y-79746109D01*
X197432480Y-79656070D01*
X197429653Y-79528800D01*
X197429526Y-79521724D01*
X197427807Y-79394604D01*
X197428382Y-79303313D01*
X201356040Y-79303313D01*
X201362063Y-79592041D01*
X201368087Y-79880769D01*
X201519344Y-79886991D01*
X201670602Y-79893213D01*
X201780212Y-79736568D01*
X201842741Y-79651049D01*
X202025206Y-79435526D01*
X202228475Y-79237722D01*
X202445224Y-79063742D01*
X202668132Y-78919688D01*
X202889877Y-78811662D01*
X202935345Y-78792559D01*
X202991682Y-78766243D01*
X203022339Y-78748312D01*
X203025825Y-78737290D01*
X203030978Y-78686051D01*
X203035351Y-78595741D01*
X203038884Y-78468790D01*
X203041515Y-78307625D01*
X203043183Y-78114673D01*
X203043828Y-77892363D01*
X203043847Y-77852357D01*
X203484754Y-77852357D01*
X203484835Y-78043593D01*
X203485226Y-78213746D01*
X203486117Y-78348536D01*
X203487698Y-78451928D01*
X203490161Y-78527887D01*
X203493695Y-78580379D01*
X203498491Y-78613369D01*
X203504741Y-78630822D01*
X203512633Y-78636704D01*
X203522360Y-78634980D01*
X203532605Y-78632461D01*
X203582860Y-78626274D01*
X203663644Y-78619916D01*
X203766332Y-78614007D01*
X203882300Y-78609164D01*
X203914031Y-78608193D01*
X204044615Y-78606336D01*
X204171700Y-78607519D01*
X204282148Y-78611500D01*
X204362820Y-78618035D01*
X204521004Y-78637953D01*
X204509394Y-78550224D01*
X204503448Y-78512044D01*
X204489181Y-78429628D01*
X204467605Y-78309857D01*
X204439207Y-78155367D01*
X204404478Y-77968798D01*
X204363907Y-77752787D01*
X204317981Y-77509973D01*
X204267189Y-77242994D01*
X204231324Y-77054965D01*
X203858039Y-77054965D01*
X203484754Y-77054965D01*
X203484754Y-77852357D01*
X203043847Y-77852357D01*
X203044229Y-77054965D01*
X202602275Y-77054965D01*
X202160320Y-77054965D01*
X202018937Y-77447139D01*
X201996964Y-77508172D01*
X201947961Y-77644637D01*
X201889221Y-77808557D01*
X201823739Y-77991557D01*
X201754511Y-78185266D01*
X201684532Y-78381309D01*
X201616797Y-78571313D01*
X201356040Y-79303313D01*
X197428382Y-79303313D01*
X197428392Y-79301646D01*
X197432070Y-79234463D01*
X197439627Y-79184666D01*
X197451849Y-79143865D01*
X197469524Y-79103673D01*
X197471467Y-79099686D01*
X197499296Y-79050104D01*
X197532258Y-79010380D01*
X197575748Y-78978691D01*
X197635156Y-78953213D01*
X197715874Y-78932121D01*
X197823296Y-78913592D01*
X197962813Y-78895800D01*
X198139816Y-78876923D01*
X198187719Y-78871950D01*
X198319165Y-78857039D01*
X198433791Y-78842211D01*
X198525102Y-78828420D01*
X198586601Y-78816616D01*
X198611794Y-78807751D01*
X198616976Y-78786853D01*
X198621822Y-78728017D01*
X198624688Y-78640621D01*
X198625593Y-78532728D01*
X198624557Y-78412402D01*
X198621598Y-78287707D01*
X198616737Y-78166708D01*
X198609992Y-78057467D01*
X198609965Y-78057104D01*
X198597467Y-77945909D01*
X198576274Y-77869779D01*
X198540727Y-77820928D01*
X198485170Y-77791572D01*
X198403945Y-77773924D01*
X198389605Y-77771583D01*
X198342681Y-77757948D01*
X198312096Y-77732062D01*
X198294454Y-77686266D01*
X198286359Y-77612900D01*
X198284415Y-77504304D01*
X198287209Y-77441037D01*
X198303621Y-77380965D01*
X198340813Y-77347832D01*
X198405628Y-77336607D01*
X198504910Y-77342262D01*
X198658164Y-77373469D01*
X198806809Y-77440377D01*
X198929356Y-77539090D01*
X199022297Y-77667402D01*
X199036007Y-77694573D01*
X199047508Y-77725074D01*
X199055954Y-77762492D01*
X199061815Y-77812837D01*
X199065557Y-77882119D01*
X199067651Y-77976349D01*
X199068564Y-78101535D01*
X199068764Y-78263689D01*
X199068772Y-78294436D01*
X199069204Y-78450696D01*
X199070518Y-78569645D01*
X199073018Y-78656119D01*
X199077011Y-78714955D01*
X199082801Y-78750991D01*
X199090695Y-78769064D01*
X199100998Y-78774010D01*
X199108780Y-78773671D01*
X199155048Y-78769918D01*
X199232182Y-78762669D01*
X199331626Y-78752748D01*
X199444822Y-78740975D01*
X199513436Y-78733717D01*
X199661970Y-78718067D01*
X199828749Y-78700553D01*
X199998003Y-78682832D01*
X200153959Y-78666558D01*
X200339530Y-78647166D01*
X200524317Y-78627620D01*
X200673618Y-78611466D01*
X200791388Y-78598228D01*
X200881582Y-78587429D01*
X200948156Y-78578592D01*
X200995067Y-78571241D01*
X201026268Y-78564900D01*
X201045716Y-78559090D01*
X201052233Y-78556058D01*
X201062692Y-78547883D01*
X201074460Y-78532862D01*
X201088743Y-78507943D01*
X201106747Y-78470072D01*
X201129678Y-78416197D01*
X201158743Y-78343263D01*
X201195147Y-78248217D01*
X201240096Y-78128007D01*
X201294797Y-77979579D01*
X201360455Y-77799880D01*
X201438277Y-77585856D01*
X201529469Y-77334455D01*
X201535959Y-77316576D01*
X201585030Y-77182942D01*
X201632157Y-77057073D01*
X201674216Y-76947148D01*
X201708084Y-76861345D01*
X201730635Y-76807844D01*
X201764642Y-76744401D01*
X201830516Y-76653763D01*
X201904013Y-76580895D01*
X201974703Y-76537357D01*
X201976718Y-76536791D01*
X202013601Y-76533288D01*
X202089499Y-76530022D01*
X202200981Y-76527042D01*
X202344620Y-76524393D01*
X202516988Y-76522121D01*
X202714655Y-76520274D01*
X202934194Y-76518897D01*
X203172175Y-76518037D01*
X203425170Y-76517740D01*
X204824041Y-76517740D01*
X204917137Y-76572298D01*
X204925987Y-76577632D01*
X205009824Y-76648491D01*
X205059801Y-76730677D01*
X205077088Y-76816711D01*
X205062850Y-76899111D01*
X205018254Y-76970399D01*
X204944467Y-77023094D01*
X204842657Y-77049715D01*
X204800120Y-77055119D01*
X204750466Y-77066176D01*
X204731116Y-77077757D01*
X204731539Y-77082159D01*
X204737603Y-77120623D01*
X204749747Y-77190506D01*
X204766535Y-77283672D01*
X204786533Y-77391986D01*
X204796651Y-77446219D01*
X204838549Y-77671355D01*
X204878147Y-77885003D01*
X204914743Y-78083317D01*
X204947635Y-78262454D01*
X204976120Y-78418570D01*
X204999498Y-78547820D01*
X205015567Y-78637953D01*
X205017066Y-78646361D01*
G37*
%LPC*%
D13*
X176072800Y-90576400D03*
D14*
X191109600Y-62484000D03*
D15*
X191109600Y-54864000D03*
D13*
X180848000Y-74777600D03*
D16*
X185420000Y-81280000D03*
D17*
X185420000Y-83820000D03*
X185420000Y-86360000D03*
D18*
X236270800Y-93878400D03*
D19*
X236270800Y-78638400D03*
D20*
X158100000Y-44620000D03*
D21*
X162306000Y-78994000D03*
D15*
X162306000Y-68834000D03*
D14*
X214528400Y-70967600D03*
D15*
X206908400Y-70967600D03*
D22*
X234086400Y-74320400D03*
D23*
X246786400Y-74320400D03*
D24*
X243840000Y-86812000D03*
D25*
X243840000Y-79612000D03*
D13*
X218897200Y-69850000D03*
D26*
X221437200Y-69850000D03*
X223977200Y-69850000D03*
X226517200Y-69850000D03*
X229057200Y-69850000D03*
X231597200Y-69850000D03*
D14*
X186269513Y-93116400D03*
D21*
X183769513Y-93116400D03*
D20*
X186900000Y-67620000D03*
X244900000Y-44620000D03*
D21*
X171907200Y-84023200D03*
D15*
X171907200Y-73863200D03*
D20*
X158100000Y-92800000D03*
D27*
X167330800Y-77927200D03*
D28*
X167330800Y-79197200D03*
X167330800Y-80467200D03*
D13*
X163830000Y-63500000D03*
D26*
X166370000Y-63500000D03*
X168910000Y-63500000D03*
X171450000Y-63500000D03*
X173990000Y-63500000D03*
X176530000Y-63500000D03*
X179070000Y-63500000D03*
D13*
X166979600Y-90474800D03*
D20*
X244900000Y-67620000D03*
X244900000Y-92800000D03*
D21*
X186791600Y-52222400D03*
D15*
X186791600Y-62382400D03*
D21*
X180289200Y-84643600D03*
X180289200Y-79643600D03*
D29*
X230720000Y-92720000D03*
X191170000Y-92720000D03*
X230720000Y-75220000D03*
X191170000Y-75220000D03*
D20*
X186900000Y-44620000D03*
D13*
X191770000Y-45890000D03*
D26*
X191770000Y-43350000D03*
X194310000Y-45890000D03*
X194310000Y-43350000D03*
X196850000Y-45890000D03*
X196850000Y-43350000D03*
X199390000Y-45890000D03*
X199390000Y-43350000D03*
X201930000Y-45890000D03*
X201930000Y-43350000D03*
X204470000Y-45890000D03*
X204470000Y-43350000D03*
X207010000Y-45890000D03*
X207010000Y-43350000D03*
X209550000Y-45890000D03*
X209550000Y-43350000D03*
X212090000Y-45890000D03*
X212090000Y-43350000D03*
X214630000Y-45890000D03*
X214630000Y-43350000D03*
X217170000Y-45890000D03*
X217170000Y-43350000D03*
X219710000Y-45890000D03*
X219710000Y-43350000D03*
X222250000Y-45890000D03*
X222250000Y-43350000D03*
X224790000Y-45890000D03*
X224790000Y-43350000D03*
X227330000Y-45890000D03*
X227330000Y-43350000D03*
X229870000Y-45890000D03*
X229870000Y-43350000D03*
X232410000Y-45890000D03*
X232410000Y-43350000D03*
X234950000Y-45890000D03*
X234950000Y-43350000D03*
X237490000Y-45890000D03*
X237490000Y-43350000D03*
X240030000Y-45890000D03*
X240030000Y-43350000D03*
D13*
X243179600Y-50038000D03*
D26*
X245719600Y-50038000D03*
X243179600Y-52578000D03*
X245719600Y-52578000D03*
D21*
X201574400Y-71120000D03*
D15*
X191414400Y-71120000D03*
D14*
X198120000Y-66040000D03*
D15*
X200660000Y-66040000D03*
X203200000Y-66040000D03*
X205740000Y-66040000D03*
X208280000Y-66040000D03*
X210820000Y-66040000D03*
X213360000Y-66040000D03*
X215900000Y-66040000D03*
X218440000Y-66040000D03*
X220980000Y-66040000D03*
X223520000Y-66040000D03*
X226060000Y-66040000D03*
X228600000Y-66040000D03*
X231140000Y-66040000D03*
X233680000Y-66040000D03*
X233680000Y-50800000D03*
X231140000Y-50800000D03*
X228600000Y-50800000D03*
X226060000Y-50800000D03*
X223520000Y-50800000D03*
X220980000Y-50800000D03*
X218440000Y-50800000D03*
X215900000Y-50800000D03*
X213360000Y-50800000D03*
X210820000Y-50800000D03*
X208280000Y-50800000D03*
X205740000Y-50800000D03*
X203200000Y-50800000D03*
X200660000Y-50800000D03*
X198120000Y-50800000D03*
%LPD*%
M02*
