G04 #@! TF.GenerationSoftware,KiCad,Pcbnew,7.0.11+dfsg-1build4*
G04 #@! TF.CreationDate,2025-04-23T09:40:31-04:00*
G04 #@! TF.ProjectId,trackteur_arduino_V1,74726163-6b74-4657-9572-5f6172647569,rev?*
G04 #@! TF.SameCoordinates,Original*
G04 #@! TF.FileFunction,Legend,Top*
G04 #@! TF.FilePolarity,Positive*
%FSLAX46Y46*%
G04 Gerber Fmt 4.6, Leading zero omitted, Abs format (unit mm)*
G04 Created by KiCad (PCBNEW 7.0.11+dfsg-1build4) date 2025-04-23 09:40:31*
%MOMM*%
%LPD*%
G01*
G04 APERTURE LIST*
G04 Aperture macros list*
%AMRoundRect*
0 Rectangle with rounded corners*
0 $1 Rounding radius*
0 $2 $3 $4 $5 $6 $7 $8 $9 X,Y pos of 4 corners*
0 Add a 4 corners polygon primitive as box body*
4,1,4,$2,$3,$4,$5,$6,$7,$8,$9,$2,$3,0*
0 Add four circle primitives for the rounded corners*
1,1,$1+$1,$2,$3*
1,1,$1+$1,$4,$5*
1,1,$1+$1,$6,$7*
1,1,$1+$1,$8,$9*
0 Add four rect primitives between the rounded corners*
20,1,$1+$1,$2,$3,$4,$5,0*
20,1,$1+$1,$4,$5,$6,$7,0*
20,1,$1+$1,$6,$7,$8,$9,0*
20,1,$1+$1,$8,$9,$2,$3,0*%
G04 Aperture macros list end*
%ADD10C,0.100000*%
%ADD11C,0.300000*%
%ADD12C,0.150000*%
%ADD13C,0.120000*%
%ADD14C,0.127000*%
%ADD15R,1.700000X1.700000*%
%ADD16R,1.600000X1.600000*%
%ADD17O,1.600000X1.600000*%
%ADD18R,2.000000X1.905000*%
%ADD19O,2.000000X1.905000*%
%ADD20O,3.200000X3.200000*%
%ADD21R,3.200000X3.200000*%
%ADD22C,2.700000*%
%ADD23C,1.600000*%
%ADD24R,2.400000X2.400000*%
%ADD25O,2.400000X2.400000*%
%ADD26RoundRect,0.102000X0.825000X-0.825000X0.825000X0.825000X-0.825000X0.825000X-0.825000X-0.825000X0*%
%ADD27C,1.854000*%
%ADD28O,1.700000X1.700000*%
%ADD29R,1.500000X1.050000*%
%ADD30O,1.500000X1.050000*%
%ADD31R,3.000000X3.000000*%
G04 APERTURE END LIST*
D10*
X239941027Y-89282419D02*
X240274360Y-90282419D01*
X240274360Y-90282419D02*
X240607693Y-89282419D01*
X241274360Y-89758609D02*
X241417217Y-89806228D01*
X241417217Y-89806228D02*
X241464836Y-89853847D01*
X241464836Y-89853847D02*
X241512455Y-89949085D01*
X241512455Y-89949085D02*
X241512455Y-90091942D01*
X241512455Y-90091942D02*
X241464836Y-90187180D01*
X241464836Y-90187180D02*
X241417217Y-90234800D01*
X241417217Y-90234800D02*
X241321979Y-90282419D01*
X241321979Y-90282419D02*
X240941027Y-90282419D01*
X240941027Y-90282419D02*
X240941027Y-89282419D01*
X240941027Y-89282419D02*
X241274360Y-89282419D01*
X241274360Y-89282419D02*
X241369598Y-89330038D01*
X241369598Y-89330038D02*
X241417217Y-89377657D01*
X241417217Y-89377657D02*
X241464836Y-89472895D01*
X241464836Y-89472895D02*
X241464836Y-89568133D01*
X241464836Y-89568133D02*
X241417217Y-89663371D01*
X241417217Y-89663371D02*
X241369598Y-89710990D01*
X241369598Y-89710990D02*
X241274360Y-89758609D01*
X241274360Y-89758609D02*
X240941027Y-89758609D01*
X241893408Y-89996704D02*
X242369598Y-89996704D01*
X241798170Y-90282419D02*
X242131503Y-89282419D01*
X242131503Y-89282419D02*
X242464836Y-90282419D01*
X242655313Y-89282419D02*
X243226741Y-89282419D01*
X242941027Y-90282419D02*
X242941027Y-89282419D01*
X243560075Y-89901466D02*
X244321980Y-89901466D01*
D11*
X167661653Y-55642028D02*
X168018796Y-56642028D01*
X168018796Y-56642028D02*
X168375939Y-55642028D01*
X168875939Y-55284885D02*
X168947367Y-55213457D01*
X168947367Y-55213457D02*
X169090225Y-55142028D01*
X169090225Y-55142028D02*
X169447367Y-55142028D01*
X169447367Y-55142028D02*
X169590225Y-55213457D01*
X169590225Y-55213457D02*
X169661653Y-55284885D01*
X169661653Y-55284885D02*
X169733082Y-55427742D01*
X169733082Y-55427742D02*
X169733082Y-55570600D01*
X169733082Y-55570600D02*
X169661653Y-55784885D01*
X169661653Y-55784885D02*
X168804510Y-56642028D01*
X168804510Y-56642028D02*
X169733082Y-56642028D01*
X170661653Y-55142028D02*
X170804510Y-55142028D01*
X170804510Y-55142028D02*
X170947367Y-55213457D01*
X170947367Y-55213457D02*
X171018796Y-55284885D01*
X171018796Y-55284885D02*
X171090224Y-55427742D01*
X171090224Y-55427742D02*
X171161653Y-55713457D01*
X171161653Y-55713457D02*
X171161653Y-56070600D01*
X171161653Y-56070600D02*
X171090224Y-56356314D01*
X171090224Y-56356314D02*
X171018796Y-56499171D01*
X171018796Y-56499171D02*
X170947367Y-56570600D01*
X170947367Y-56570600D02*
X170804510Y-56642028D01*
X170804510Y-56642028D02*
X170661653Y-56642028D01*
X170661653Y-56642028D02*
X170518796Y-56570600D01*
X170518796Y-56570600D02*
X170447367Y-56499171D01*
X170447367Y-56499171D02*
X170375938Y-56356314D01*
X170375938Y-56356314D02*
X170304510Y-56070600D01*
X170304510Y-56070600D02*
X170304510Y-55713457D01*
X170304510Y-55713457D02*
X170375938Y-55427742D01*
X170375938Y-55427742D02*
X170447367Y-55284885D01*
X170447367Y-55284885D02*
X170518796Y-55213457D01*
X170518796Y-55213457D02*
X170661653Y-55142028D01*
X171733081Y-55284885D02*
X171804509Y-55213457D01*
X171804509Y-55213457D02*
X171947367Y-55142028D01*
X171947367Y-55142028D02*
X172304509Y-55142028D01*
X172304509Y-55142028D02*
X172447367Y-55213457D01*
X172447367Y-55213457D02*
X172518795Y-55284885D01*
X172518795Y-55284885D02*
X172590224Y-55427742D01*
X172590224Y-55427742D02*
X172590224Y-55570600D01*
X172590224Y-55570600D02*
X172518795Y-55784885D01*
X172518795Y-55784885D02*
X171661652Y-56642028D01*
X171661652Y-56642028D02*
X172590224Y-56642028D01*
X173947366Y-55142028D02*
X173233080Y-55142028D01*
X173233080Y-55142028D02*
X173161652Y-55856314D01*
X173161652Y-55856314D02*
X173233080Y-55784885D01*
X173233080Y-55784885D02*
X173375938Y-55713457D01*
X173375938Y-55713457D02*
X173733080Y-55713457D01*
X173733080Y-55713457D02*
X173875938Y-55784885D01*
X173875938Y-55784885D02*
X173947366Y-55856314D01*
X173947366Y-55856314D02*
X174018795Y-55999171D01*
X174018795Y-55999171D02*
X174018795Y-56356314D01*
X174018795Y-56356314D02*
X173947366Y-56499171D01*
X173947366Y-56499171D02*
X173875938Y-56570600D01*
X173875938Y-56570600D02*
X173733080Y-56642028D01*
X173733080Y-56642028D02*
X173375938Y-56642028D01*
X173375938Y-56642028D02*
X173233080Y-56570600D01*
X173233080Y-56570600D02*
X173161652Y-56499171D01*
X174661651Y-56499171D02*
X174733080Y-56570600D01*
X174733080Y-56570600D02*
X174661651Y-56642028D01*
X174661651Y-56642028D02*
X174590223Y-56570600D01*
X174590223Y-56570600D02*
X174661651Y-56499171D01*
X174661651Y-56499171D02*
X174661651Y-56642028D01*
X175661652Y-55142028D02*
X175804509Y-55142028D01*
X175804509Y-55142028D02*
X175947366Y-55213457D01*
X175947366Y-55213457D02*
X176018795Y-55284885D01*
X176018795Y-55284885D02*
X176090223Y-55427742D01*
X176090223Y-55427742D02*
X176161652Y-55713457D01*
X176161652Y-55713457D02*
X176161652Y-56070600D01*
X176161652Y-56070600D02*
X176090223Y-56356314D01*
X176090223Y-56356314D02*
X176018795Y-56499171D01*
X176018795Y-56499171D02*
X175947366Y-56570600D01*
X175947366Y-56570600D02*
X175804509Y-56642028D01*
X175804509Y-56642028D02*
X175661652Y-56642028D01*
X175661652Y-56642028D02*
X175518795Y-56570600D01*
X175518795Y-56570600D02*
X175447366Y-56499171D01*
X175447366Y-56499171D02*
X175375937Y-56356314D01*
X175375937Y-56356314D02*
X175304509Y-56070600D01*
X175304509Y-56070600D02*
X175304509Y-55713457D01*
X175304509Y-55713457D02*
X175375937Y-55427742D01*
X175375937Y-55427742D02*
X175447366Y-55284885D01*
X175447366Y-55284885D02*
X175518795Y-55213457D01*
X175518795Y-55213457D02*
X175661652Y-55142028D01*
X177447366Y-55642028D02*
X177447366Y-56642028D01*
X177090223Y-55070600D02*
X176733080Y-56142028D01*
X176733080Y-56142028D02*
X177661651Y-56142028D01*
X178233079Y-56499171D02*
X178304508Y-56570600D01*
X178304508Y-56570600D02*
X178233079Y-56642028D01*
X178233079Y-56642028D02*
X178161651Y-56570600D01*
X178161651Y-56570600D02*
X178233079Y-56499171D01*
X178233079Y-56499171D02*
X178233079Y-56642028D01*
X179233080Y-55142028D02*
X179375937Y-55142028D01*
X179375937Y-55142028D02*
X179518794Y-55213457D01*
X179518794Y-55213457D02*
X179590223Y-55284885D01*
X179590223Y-55284885D02*
X179661651Y-55427742D01*
X179661651Y-55427742D02*
X179733080Y-55713457D01*
X179733080Y-55713457D02*
X179733080Y-56070600D01*
X179733080Y-56070600D02*
X179661651Y-56356314D01*
X179661651Y-56356314D02*
X179590223Y-56499171D01*
X179590223Y-56499171D02*
X179518794Y-56570600D01*
X179518794Y-56570600D02*
X179375937Y-56642028D01*
X179375937Y-56642028D02*
X179233080Y-56642028D01*
X179233080Y-56642028D02*
X179090223Y-56570600D01*
X179090223Y-56570600D02*
X179018794Y-56499171D01*
X179018794Y-56499171D02*
X178947365Y-56356314D01*
X178947365Y-56356314D02*
X178875937Y-56070600D01*
X178875937Y-56070600D02*
X178875937Y-55713457D01*
X178875937Y-55713457D02*
X178947365Y-55427742D01*
X178947365Y-55427742D02*
X179018794Y-55284885D01*
X179018794Y-55284885D02*
X179090223Y-55213457D01*
X179090223Y-55213457D02*
X179233080Y-55142028D01*
X180304508Y-55284885D02*
X180375936Y-55213457D01*
X180375936Y-55213457D02*
X180518794Y-55142028D01*
X180518794Y-55142028D02*
X180875936Y-55142028D01*
X180875936Y-55142028D02*
X181018794Y-55213457D01*
X181018794Y-55213457D02*
X181090222Y-55284885D01*
X181090222Y-55284885D02*
X181161651Y-55427742D01*
X181161651Y-55427742D02*
X181161651Y-55570600D01*
X181161651Y-55570600D02*
X181090222Y-55784885D01*
X181090222Y-55784885D02*
X180233079Y-56642028D01*
X180233079Y-56642028D02*
X181161651Y-56642028D01*
D10*
X243331027Y-76872419D02*
X243664360Y-77872419D01*
X243664360Y-77872419D02*
X243997693Y-76872419D01*
X244664360Y-77348609D02*
X244807217Y-77396228D01*
X244807217Y-77396228D02*
X244854836Y-77443847D01*
X244854836Y-77443847D02*
X244902455Y-77539085D01*
X244902455Y-77539085D02*
X244902455Y-77681942D01*
X244902455Y-77681942D02*
X244854836Y-77777180D01*
X244854836Y-77777180D02*
X244807217Y-77824800D01*
X244807217Y-77824800D02*
X244711979Y-77872419D01*
X244711979Y-77872419D02*
X244331027Y-77872419D01*
X244331027Y-77872419D02*
X244331027Y-76872419D01*
X244331027Y-76872419D02*
X244664360Y-76872419D01*
X244664360Y-76872419D02*
X244759598Y-76920038D01*
X244759598Y-76920038D02*
X244807217Y-76967657D01*
X244807217Y-76967657D02*
X244854836Y-77062895D01*
X244854836Y-77062895D02*
X244854836Y-77158133D01*
X244854836Y-77158133D02*
X244807217Y-77253371D01*
X244807217Y-77253371D02*
X244759598Y-77300990D01*
X244759598Y-77300990D02*
X244664360Y-77348609D01*
X244664360Y-77348609D02*
X244331027Y-77348609D01*
X245283408Y-77586704D02*
X245759598Y-77586704D01*
X245188170Y-77872419D02*
X245521503Y-76872419D01*
X245521503Y-76872419D02*
X245854836Y-77872419D01*
X246045313Y-76872419D02*
X246616741Y-76872419D01*
X246331027Y-77872419D02*
X246331027Y-76872419D01*
X246950075Y-77491466D02*
X247711980Y-77491466D01*
X247331027Y-77872419D02*
X247331027Y-77110514D01*
D12*
X175198095Y-87654819D02*
X175769523Y-87654819D01*
X175483809Y-88654819D02*
X175483809Y-87654819D01*
X176102857Y-88654819D02*
X176102857Y-87654819D01*
X176102857Y-87654819D02*
X176483809Y-87654819D01*
X176483809Y-87654819D02*
X176579047Y-87702438D01*
X176579047Y-87702438D02*
X176626666Y-87750057D01*
X176626666Y-87750057D02*
X176674285Y-87845295D01*
X176674285Y-87845295D02*
X176674285Y-87988152D01*
X176674285Y-87988152D02*
X176626666Y-88083390D01*
X176626666Y-88083390D02*
X176579047Y-88131009D01*
X176579047Y-88131009D02*
X176483809Y-88178628D01*
X176483809Y-88178628D02*
X176102857Y-88178628D01*
X177055238Y-87750057D02*
X177102857Y-87702438D01*
X177102857Y-87702438D02*
X177198095Y-87654819D01*
X177198095Y-87654819D02*
X177436190Y-87654819D01*
X177436190Y-87654819D02*
X177531428Y-87702438D01*
X177531428Y-87702438D02*
X177579047Y-87750057D01*
X177579047Y-87750057D02*
X177626666Y-87845295D01*
X177626666Y-87845295D02*
X177626666Y-87940533D01*
X177626666Y-87940533D02*
X177579047Y-88083390D01*
X177579047Y-88083390D02*
X177007619Y-88654819D01*
X177007619Y-88654819D02*
X177626666Y-88654819D01*
X175698095Y-92362438D02*
X175602857Y-92314819D01*
X175602857Y-92314819D02*
X175460000Y-92314819D01*
X175460000Y-92314819D02*
X175317143Y-92362438D01*
X175317143Y-92362438D02*
X175221905Y-92457676D01*
X175221905Y-92457676D02*
X175174286Y-92552914D01*
X175174286Y-92552914D02*
X175126667Y-92743390D01*
X175126667Y-92743390D02*
X175126667Y-92886247D01*
X175126667Y-92886247D02*
X175174286Y-93076723D01*
X175174286Y-93076723D02*
X175221905Y-93171961D01*
X175221905Y-93171961D02*
X175317143Y-93267200D01*
X175317143Y-93267200D02*
X175460000Y-93314819D01*
X175460000Y-93314819D02*
X175555238Y-93314819D01*
X175555238Y-93314819D02*
X175698095Y-93267200D01*
X175698095Y-93267200D02*
X175745714Y-93219580D01*
X175745714Y-93219580D02*
X175745714Y-92886247D01*
X175745714Y-92886247D02*
X175555238Y-92886247D01*
X176174286Y-93314819D02*
X176174286Y-92314819D01*
X176174286Y-92314819D02*
X176745714Y-93314819D01*
X176745714Y-93314819D02*
X176745714Y-92314819D01*
X177221905Y-93314819D02*
X177221905Y-92314819D01*
X177221905Y-92314819D02*
X177460000Y-92314819D01*
X177460000Y-92314819D02*
X177602857Y-92362438D01*
X177602857Y-92362438D02*
X177698095Y-92457676D01*
X177698095Y-92457676D02*
X177745714Y-92552914D01*
X177745714Y-92552914D02*
X177793333Y-92743390D01*
X177793333Y-92743390D02*
X177793333Y-92886247D01*
X177793333Y-92886247D02*
X177745714Y-93076723D01*
X177745714Y-93076723D02*
X177698095Y-93171961D01*
X177698095Y-93171961D02*
X177602857Y-93267200D01*
X177602857Y-93267200D02*
X177460000Y-93314819D01*
X177460000Y-93314819D02*
X177221905Y-93314819D01*
X189352819Y-56524894D02*
X188352819Y-56524894D01*
X188352819Y-56524894D02*
X188352819Y-56286799D01*
X188352819Y-56286799D02*
X188400438Y-56143942D01*
X188400438Y-56143942D02*
X188495676Y-56048704D01*
X188495676Y-56048704D02*
X188590914Y-56001085D01*
X188590914Y-56001085D02*
X188781390Y-55953466D01*
X188781390Y-55953466D02*
X188924247Y-55953466D01*
X188924247Y-55953466D02*
X189114723Y-56001085D01*
X189114723Y-56001085D02*
X189209961Y-56048704D01*
X189209961Y-56048704D02*
X189305200Y-56143942D01*
X189305200Y-56143942D02*
X189352819Y-56286799D01*
X189352819Y-56286799D02*
X189352819Y-56524894D01*
X188686152Y-55096323D02*
X189352819Y-55096323D01*
X188305200Y-55334418D02*
X189019485Y-55572513D01*
X189019485Y-55572513D02*
X189019485Y-54953466D01*
X189584819Y-60061904D02*
X188584819Y-60061904D01*
X189584819Y-59490476D02*
X189013390Y-59919047D01*
X188584819Y-59490476D02*
X189156247Y-60061904D01*
X179428095Y-74234819D02*
X179999523Y-74234819D01*
X179713809Y-75234819D02*
X179713809Y-74234819D01*
X180332857Y-75234819D02*
X180332857Y-74234819D01*
X180332857Y-74234819D02*
X180713809Y-74234819D01*
X180713809Y-74234819D02*
X180809047Y-74282438D01*
X180809047Y-74282438D02*
X180856666Y-74330057D01*
X180856666Y-74330057D02*
X180904285Y-74425295D01*
X180904285Y-74425295D02*
X180904285Y-74568152D01*
X180904285Y-74568152D02*
X180856666Y-74663390D01*
X180856666Y-74663390D02*
X180809047Y-74711009D01*
X180809047Y-74711009D02*
X180713809Y-74758628D01*
X180713809Y-74758628D02*
X180332857Y-74758628D01*
X181237619Y-74234819D02*
X181856666Y-74234819D01*
X181856666Y-74234819D02*
X181523333Y-74615771D01*
X181523333Y-74615771D02*
X181666190Y-74615771D01*
X181666190Y-74615771D02*
X181761428Y-74663390D01*
X181761428Y-74663390D02*
X181809047Y-74711009D01*
X181809047Y-74711009D02*
X181856666Y-74806247D01*
X181856666Y-74806247D02*
X181856666Y-75044342D01*
X181856666Y-75044342D02*
X181809047Y-75139580D01*
X181809047Y-75139580D02*
X181761428Y-75187200D01*
X181761428Y-75187200D02*
X181666190Y-75234819D01*
X181666190Y-75234819D02*
X181380476Y-75234819D01*
X181380476Y-75234819D02*
X181285238Y-75187200D01*
X181285238Y-75187200D02*
X181237619Y-75139580D01*
X178690000Y-79513866D02*
X179451905Y-79513866D01*
X179070952Y-79894819D02*
X179070952Y-79132914D01*
X179832857Y-78894819D02*
X180451904Y-78894819D01*
X180451904Y-78894819D02*
X180118571Y-79275771D01*
X180118571Y-79275771D02*
X180261428Y-79275771D01*
X180261428Y-79275771D02*
X180356666Y-79323390D01*
X180356666Y-79323390D02*
X180404285Y-79371009D01*
X180404285Y-79371009D02*
X180451904Y-79466247D01*
X180451904Y-79466247D02*
X180451904Y-79704342D01*
X180451904Y-79704342D02*
X180404285Y-79799580D01*
X180404285Y-79799580D02*
X180356666Y-79847200D01*
X180356666Y-79847200D02*
X180261428Y-79894819D01*
X180261428Y-79894819D02*
X179975714Y-79894819D01*
X179975714Y-79894819D02*
X179880476Y-79847200D01*
X179880476Y-79847200D02*
X179832857Y-79799580D01*
X180880476Y-79799580D02*
X180928095Y-79847200D01*
X180928095Y-79847200D02*
X180880476Y-79894819D01*
X180880476Y-79894819D02*
X180832857Y-79847200D01*
X180832857Y-79847200D02*
X180880476Y-79799580D01*
X180880476Y-79799580D02*
X180880476Y-79894819D01*
X181261428Y-78894819D02*
X181880475Y-78894819D01*
X181880475Y-78894819D02*
X181547142Y-79275771D01*
X181547142Y-79275771D02*
X181689999Y-79275771D01*
X181689999Y-79275771D02*
X181785237Y-79323390D01*
X181785237Y-79323390D02*
X181832856Y-79371009D01*
X181832856Y-79371009D02*
X181880475Y-79466247D01*
X181880475Y-79466247D02*
X181880475Y-79704342D01*
X181880475Y-79704342D02*
X181832856Y-79799580D01*
X181832856Y-79799580D02*
X181785237Y-79847200D01*
X181785237Y-79847200D02*
X181689999Y-79894819D01*
X181689999Y-79894819D02*
X181404285Y-79894819D01*
X181404285Y-79894819D02*
X181309047Y-79847200D01*
X181309047Y-79847200D02*
X181261428Y-79799580D01*
X182166190Y-78894819D02*
X182499523Y-79894819D01*
X182499523Y-79894819D02*
X182832856Y-78894819D01*
X187234819Y-77631904D02*
X188044342Y-77631904D01*
X188044342Y-77631904D02*
X188139580Y-77584285D01*
X188139580Y-77584285D02*
X188187200Y-77536666D01*
X188187200Y-77536666D02*
X188234819Y-77441428D01*
X188234819Y-77441428D02*
X188234819Y-77250952D01*
X188234819Y-77250952D02*
X188187200Y-77155714D01*
X188187200Y-77155714D02*
X188139580Y-77108095D01*
X188139580Y-77108095D02*
X188044342Y-77060476D01*
X188044342Y-77060476D02*
X187234819Y-77060476D01*
X188234819Y-76060476D02*
X188234819Y-76631904D01*
X188234819Y-76346190D02*
X187234819Y-76346190D01*
X187234819Y-76346190D02*
X187377676Y-76441428D01*
X187377676Y-76441428D02*
X187472914Y-76536666D01*
X187472914Y-76536666D02*
X187520533Y-76631904D01*
X241204019Y-94439694D02*
X240204019Y-94439694D01*
X240204019Y-94439694D02*
X240204019Y-94201599D01*
X240204019Y-94201599D02*
X240251638Y-94058742D01*
X240251638Y-94058742D02*
X240346876Y-93963504D01*
X240346876Y-93963504D02*
X240442114Y-93915885D01*
X240442114Y-93915885D02*
X240632590Y-93868266D01*
X240632590Y-93868266D02*
X240775447Y-93868266D01*
X240775447Y-93868266D02*
X240965923Y-93915885D01*
X240965923Y-93915885D02*
X241061161Y-93963504D01*
X241061161Y-93963504D02*
X241156400Y-94058742D01*
X241156400Y-94058742D02*
X241204019Y-94201599D01*
X241204019Y-94201599D02*
X241204019Y-94439694D01*
X241204019Y-92915885D02*
X241204019Y-93487313D01*
X241204019Y-93201599D02*
X240204019Y-93201599D01*
X240204019Y-93201599D02*
X240346876Y-93296837D01*
X240346876Y-93296837D02*
X240442114Y-93392075D01*
X240442114Y-93392075D02*
X240489733Y-93487313D01*
X234974819Y-95151904D02*
X233974819Y-95151904D01*
X234974819Y-94580476D02*
X234403390Y-95009047D01*
X233974819Y-94580476D02*
X234546247Y-95151904D01*
D11*
X170978500Y-47667167D02*
X170835643Y-47595738D01*
X170835643Y-47595738D02*
X170621357Y-47595738D01*
X170621357Y-47595738D02*
X170407071Y-47667167D01*
X170407071Y-47667167D02*
X170264214Y-47810024D01*
X170264214Y-47810024D02*
X170192785Y-47952881D01*
X170192785Y-47952881D02*
X170121357Y-48238595D01*
X170121357Y-48238595D02*
X170121357Y-48452881D01*
X170121357Y-48452881D02*
X170192785Y-48738595D01*
X170192785Y-48738595D02*
X170264214Y-48881452D01*
X170264214Y-48881452D02*
X170407071Y-49024310D01*
X170407071Y-49024310D02*
X170621357Y-49095738D01*
X170621357Y-49095738D02*
X170764214Y-49095738D01*
X170764214Y-49095738D02*
X170978500Y-49024310D01*
X170978500Y-49024310D02*
X171049928Y-48952881D01*
X171049928Y-48952881D02*
X171049928Y-48452881D01*
X171049928Y-48452881D02*
X170764214Y-48452881D01*
X171907071Y-47595738D02*
X171907071Y-47952881D01*
X171549928Y-47810024D02*
X171907071Y-47952881D01*
X171907071Y-47952881D02*
X172264214Y-47810024D01*
X171692785Y-48238595D02*
X171907071Y-47952881D01*
X171907071Y-47952881D02*
X172121357Y-48238595D01*
X173049928Y-47595738D02*
X173049928Y-47952881D01*
X172692785Y-47810024D02*
X173049928Y-47952881D01*
X173049928Y-47952881D02*
X173407071Y-47810024D01*
X172835642Y-48238595D02*
X173049928Y-47952881D01*
X173049928Y-47952881D02*
X173264214Y-48238595D01*
X174192785Y-47595738D02*
X174192785Y-47952881D01*
X173835642Y-47810024D02*
X174192785Y-47952881D01*
X174192785Y-47952881D02*
X174549928Y-47810024D01*
X173978499Y-48238595D02*
X174192785Y-47952881D01*
X174192785Y-47952881D02*
X174407071Y-48238595D01*
D12*
X164229695Y-41907619D02*
X164229695Y-40907619D01*
X164229695Y-41383809D02*
X164801123Y-41383809D01*
X164801123Y-41907619D02*
X164801123Y-40907619D01*
X165801123Y-41907619D02*
X165229695Y-41907619D01*
X165515409Y-41907619D02*
X165515409Y-40907619D01*
X165515409Y-40907619D02*
X165420171Y-41050476D01*
X165420171Y-41050476D02*
X165324933Y-41145714D01*
X165324933Y-41145714D02*
X165229695Y-41193333D01*
X166114819Y-71526666D02*
X165638628Y-71859999D01*
X166114819Y-72098094D02*
X165114819Y-72098094D01*
X165114819Y-72098094D02*
X165114819Y-71717142D01*
X165114819Y-71717142D02*
X165162438Y-71621904D01*
X165162438Y-71621904D02*
X165210057Y-71574285D01*
X165210057Y-71574285D02*
X165305295Y-71526666D01*
X165305295Y-71526666D02*
X165448152Y-71526666D01*
X165448152Y-71526666D02*
X165543390Y-71574285D01*
X165543390Y-71574285D02*
X165591009Y-71621904D01*
X165591009Y-71621904D02*
X165638628Y-71717142D01*
X165638628Y-71717142D02*
X165638628Y-72098094D01*
X165210057Y-71145713D02*
X165162438Y-71098094D01*
X165162438Y-71098094D02*
X165114819Y-71002856D01*
X165114819Y-71002856D02*
X165114819Y-70764761D01*
X165114819Y-70764761D02*
X165162438Y-70669523D01*
X165162438Y-70669523D02*
X165210057Y-70621904D01*
X165210057Y-70621904D02*
X165305295Y-70574285D01*
X165305295Y-70574285D02*
X165400533Y-70574285D01*
X165400533Y-70574285D02*
X165543390Y-70621904D01*
X165543390Y-70621904D02*
X166114819Y-71193332D01*
X166114819Y-71193332D02*
X166114819Y-70574285D01*
X208862705Y-69308019D02*
X208862705Y-68308019D01*
X208862705Y-68308019D02*
X209100800Y-68308019D01*
X209100800Y-68308019D02*
X209243657Y-68355638D01*
X209243657Y-68355638D02*
X209338895Y-68450876D01*
X209338895Y-68450876D02*
X209386514Y-68546114D01*
X209386514Y-68546114D02*
X209434133Y-68736590D01*
X209434133Y-68736590D02*
X209434133Y-68879447D01*
X209434133Y-68879447D02*
X209386514Y-69069923D01*
X209386514Y-69069923D02*
X209338895Y-69165161D01*
X209338895Y-69165161D02*
X209243657Y-69260400D01*
X209243657Y-69260400D02*
X209100800Y-69308019D01*
X209100800Y-69308019D02*
X208862705Y-69308019D01*
X209767467Y-68308019D02*
X210386514Y-68308019D01*
X210386514Y-68308019D02*
X210053181Y-68688971D01*
X210053181Y-68688971D02*
X210196038Y-68688971D01*
X210196038Y-68688971D02*
X210291276Y-68736590D01*
X210291276Y-68736590D02*
X210338895Y-68784209D01*
X210338895Y-68784209D02*
X210386514Y-68879447D01*
X210386514Y-68879447D02*
X210386514Y-69117542D01*
X210386514Y-69117542D02*
X210338895Y-69212780D01*
X210338895Y-69212780D02*
X210291276Y-69260400D01*
X210291276Y-69260400D02*
X210196038Y-69308019D01*
X210196038Y-69308019D02*
X209910324Y-69308019D01*
X209910324Y-69308019D02*
X209815086Y-69260400D01*
X209815086Y-69260400D02*
X209767467Y-69212780D01*
X213098095Y-73444819D02*
X213098095Y-72444819D01*
X213669523Y-73444819D02*
X213240952Y-72873390D01*
X213669523Y-72444819D02*
X213098095Y-73016247D01*
X232751905Y-72574819D02*
X232751905Y-71574819D01*
X232751905Y-71574819D02*
X232990000Y-71574819D01*
X232990000Y-71574819D02*
X233132857Y-71622438D01*
X233132857Y-71622438D02*
X233228095Y-71717676D01*
X233228095Y-71717676D02*
X233275714Y-71812914D01*
X233275714Y-71812914D02*
X233323333Y-72003390D01*
X233323333Y-72003390D02*
X233323333Y-72146247D01*
X233323333Y-72146247D02*
X233275714Y-72336723D01*
X233275714Y-72336723D02*
X233228095Y-72431961D01*
X233228095Y-72431961D02*
X233132857Y-72527200D01*
X233132857Y-72527200D02*
X232990000Y-72574819D01*
X232990000Y-72574819D02*
X232751905Y-72574819D01*
X233704286Y-71670057D02*
X233751905Y-71622438D01*
X233751905Y-71622438D02*
X233847143Y-71574819D01*
X233847143Y-71574819D02*
X234085238Y-71574819D01*
X234085238Y-71574819D02*
X234180476Y-71622438D01*
X234180476Y-71622438D02*
X234228095Y-71670057D01*
X234228095Y-71670057D02*
X234275714Y-71765295D01*
X234275714Y-71765295D02*
X234275714Y-71860533D01*
X234275714Y-71860533D02*
X234228095Y-72003390D01*
X234228095Y-72003390D02*
X233656667Y-72574819D01*
X233656667Y-72574819D02*
X234275714Y-72574819D01*
X247248095Y-76934819D02*
X247248095Y-75934819D01*
X247819523Y-76934819D02*
X247390952Y-76363390D01*
X247819523Y-75934819D02*
X247248095Y-76506247D01*
X241515987Y-77073724D02*
X241515987Y-77789466D01*
X241515987Y-77789466D02*
X241468271Y-77932614D01*
X241468271Y-77932614D02*
X241372839Y-78028047D01*
X241372839Y-78028047D02*
X241229690Y-78075763D01*
X241229690Y-78075763D02*
X241134258Y-78075763D01*
X241897716Y-77073724D02*
X242518026Y-77073724D01*
X242518026Y-77073724D02*
X242184013Y-77455453D01*
X242184013Y-77455453D02*
X242327161Y-77455453D01*
X242327161Y-77455453D02*
X242422594Y-77503169D01*
X242422594Y-77503169D02*
X242470310Y-77550885D01*
X242470310Y-77550885D02*
X242518026Y-77646317D01*
X242518026Y-77646317D02*
X242518026Y-77884898D01*
X242518026Y-77884898D02*
X242470310Y-77980330D01*
X242470310Y-77980330D02*
X242422594Y-78028047D01*
X242422594Y-78028047D02*
X242327161Y-78075763D01*
X242327161Y-78075763D02*
X242040864Y-78075763D01*
X242040864Y-78075763D02*
X241945432Y-78028047D01*
X241945432Y-78028047D02*
X241897716Y-77980330D01*
X213464819Y-69903333D02*
X214179104Y-69903333D01*
X214179104Y-69903333D02*
X214321961Y-69950952D01*
X214321961Y-69950952D02*
X214417200Y-70046190D01*
X214417200Y-70046190D02*
X214464819Y-70189047D01*
X214464819Y-70189047D02*
X214464819Y-70284285D01*
X213464819Y-68998571D02*
X213464819Y-69189047D01*
X213464819Y-69189047D02*
X213512438Y-69284285D01*
X213512438Y-69284285D02*
X213560057Y-69331904D01*
X213560057Y-69331904D02*
X213702914Y-69427142D01*
X213702914Y-69427142D02*
X213893390Y-69474761D01*
X213893390Y-69474761D02*
X214274342Y-69474761D01*
X214274342Y-69474761D02*
X214369580Y-69427142D01*
X214369580Y-69427142D02*
X214417200Y-69379523D01*
X214417200Y-69379523D02*
X214464819Y-69284285D01*
X214464819Y-69284285D02*
X214464819Y-69093809D01*
X214464819Y-69093809D02*
X214417200Y-68998571D01*
X214417200Y-68998571D02*
X214369580Y-68950952D01*
X214369580Y-68950952D02*
X214274342Y-68903333D01*
X214274342Y-68903333D02*
X214036247Y-68903333D01*
X214036247Y-68903333D02*
X213941009Y-68950952D01*
X213941009Y-68950952D02*
X213893390Y-68998571D01*
X213893390Y-68998571D02*
X213845771Y-69093809D01*
X213845771Y-69093809D02*
X213845771Y-69284285D01*
X213845771Y-69284285D02*
X213893390Y-69379523D01*
X213893390Y-69379523D02*
X213941009Y-69427142D01*
X213941009Y-69427142D02*
X214036247Y-69474761D01*
X180427333Y-93425180D02*
X180379714Y-93472800D01*
X180379714Y-93472800D02*
X180236857Y-93520419D01*
X180236857Y-93520419D02*
X180141619Y-93520419D01*
X180141619Y-93520419D02*
X179998762Y-93472800D01*
X179998762Y-93472800D02*
X179903524Y-93377561D01*
X179903524Y-93377561D02*
X179855905Y-93282323D01*
X179855905Y-93282323D02*
X179808286Y-93091847D01*
X179808286Y-93091847D02*
X179808286Y-92948990D01*
X179808286Y-92948990D02*
X179855905Y-92758514D01*
X179855905Y-92758514D02*
X179903524Y-92663276D01*
X179903524Y-92663276D02*
X179998762Y-92568038D01*
X179998762Y-92568038D02*
X180141619Y-92520419D01*
X180141619Y-92520419D02*
X180236857Y-92520419D01*
X180236857Y-92520419D02*
X180379714Y-92568038D01*
X180379714Y-92568038D02*
X180427333Y-92615657D01*
X181379714Y-93520419D02*
X180808286Y-93520419D01*
X181094000Y-93520419D02*
X181094000Y-92520419D01*
X181094000Y-92520419D02*
X180998762Y-92663276D01*
X180998762Y-92663276D02*
X180903524Y-92758514D01*
X180903524Y-92758514D02*
X180808286Y-92806133D01*
X179054819Y-79983466D02*
X178578628Y-80316799D01*
X179054819Y-80554894D02*
X178054819Y-80554894D01*
X178054819Y-80554894D02*
X178054819Y-80173942D01*
X178054819Y-80173942D02*
X178102438Y-80078704D01*
X178102438Y-80078704D02*
X178150057Y-80031085D01*
X178150057Y-80031085D02*
X178245295Y-79983466D01*
X178245295Y-79983466D02*
X178388152Y-79983466D01*
X178388152Y-79983466D02*
X178483390Y-80031085D01*
X178483390Y-80031085D02*
X178531009Y-80078704D01*
X178531009Y-80078704D02*
X178578628Y-80173942D01*
X178578628Y-80173942D02*
X178578628Y-80554894D01*
X179054819Y-79031085D02*
X179054819Y-79602513D01*
X179054819Y-79316799D02*
X178054819Y-79316799D01*
X178054819Y-79316799D02*
X178197676Y-79412037D01*
X178197676Y-79412037D02*
X178292914Y-79507275D01*
X178292914Y-79507275D02*
X178340533Y-79602513D01*
X160338095Y-89554819D02*
X160338095Y-88554819D01*
X160338095Y-89031009D02*
X160909523Y-89031009D01*
X160909523Y-89554819D02*
X160909523Y-88554819D01*
X161290476Y-88554819D02*
X161909523Y-88554819D01*
X161909523Y-88554819D02*
X161576190Y-88935771D01*
X161576190Y-88935771D02*
X161719047Y-88935771D01*
X161719047Y-88935771D02*
X161814285Y-88983390D01*
X161814285Y-88983390D02*
X161861904Y-89031009D01*
X161861904Y-89031009D02*
X161909523Y-89126247D01*
X161909523Y-89126247D02*
X161909523Y-89364342D01*
X161909523Y-89364342D02*
X161861904Y-89459580D01*
X161861904Y-89459580D02*
X161814285Y-89507200D01*
X161814285Y-89507200D02*
X161719047Y-89554819D01*
X161719047Y-89554819D02*
X161433333Y-89554819D01*
X161433333Y-89554819D02*
X161338095Y-89507200D01*
X161338095Y-89507200D02*
X161290476Y-89459580D01*
X170500057Y-72825238D02*
X170452438Y-72920476D01*
X170452438Y-72920476D02*
X170357200Y-73015714D01*
X170357200Y-73015714D02*
X170214342Y-73158571D01*
X170214342Y-73158571D02*
X170166723Y-73253809D01*
X170166723Y-73253809D02*
X170166723Y-73349047D01*
X170404819Y-73301428D02*
X170357200Y-73396666D01*
X170357200Y-73396666D02*
X170261961Y-73491904D01*
X170261961Y-73491904D02*
X170071485Y-73539523D01*
X170071485Y-73539523D02*
X169738152Y-73539523D01*
X169738152Y-73539523D02*
X169547676Y-73491904D01*
X169547676Y-73491904D02*
X169452438Y-73396666D01*
X169452438Y-73396666D02*
X169404819Y-73301428D01*
X169404819Y-73301428D02*
X169404819Y-73110952D01*
X169404819Y-73110952D02*
X169452438Y-73015714D01*
X169452438Y-73015714D02*
X169547676Y-72920476D01*
X169547676Y-72920476D02*
X169738152Y-72872857D01*
X169738152Y-72872857D02*
X170071485Y-72872857D01*
X170071485Y-72872857D02*
X170261961Y-72920476D01*
X170261961Y-72920476D02*
X170357200Y-73015714D01*
X170357200Y-73015714D02*
X170404819Y-73110952D01*
X170404819Y-73110952D02*
X170404819Y-73301428D01*
X170404819Y-71920476D02*
X170404819Y-72491904D01*
X170404819Y-72206190D02*
X169404819Y-72206190D01*
X169404819Y-72206190D02*
X169547676Y-72301428D01*
X169547676Y-72301428D02*
X169642914Y-72396666D01*
X169642914Y-72396666D02*
X169690533Y-72491904D01*
X163754819Y-63854533D02*
X164469104Y-63854533D01*
X164469104Y-63854533D02*
X164611961Y-63902152D01*
X164611961Y-63902152D02*
X164707200Y-63997390D01*
X164707200Y-63997390D02*
X164754819Y-64140247D01*
X164754819Y-64140247D02*
X164754819Y-64235485D01*
X164088152Y-62949771D02*
X164754819Y-62949771D01*
X163707200Y-63187866D02*
X164421485Y-63425961D01*
X164421485Y-63425961D02*
X164421485Y-62806914D01*
X168708095Y-85144819D02*
X169279523Y-85144819D01*
X168993809Y-86144819D02*
X168993809Y-85144819D01*
X169612857Y-86144819D02*
X169612857Y-85144819D01*
X169612857Y-85144819D02*
X169993809Y-85144819D01*
X169993809Y-85144819D02*
X170089047Y-85192438D01*
X170089047Y-85192438D02*
X170136666Y-85240057D01*
X170136666Y-85240057D02*
X170184285Y-85335295D01*
X170184285Y-85335295D02*
X170184285Y-85478152D01*
X170184285Y-85478152D02*
X170136666Y-85573390D01*
X170136666Y-85573390D02*
X170089047Y-85621009D01*
X170089047Y-85621009D02*
X169993809Y-85668628D01*
X169993809Y-85668628D02*
X169612857Y-85668628D01*
X171136666Y-86144819D02*
X170565238Y-86144819D01*
X170850952Y-86144819D02*
X170850952Y-85144819D01*
X170850952Y-85144819D02*
X170755714Y-85287676D01*
X170755714Y-85287676D02*
X170660476Y-85382914D01*
X170660476Y-85382914D02*
X170565238Y-85430533D01*
X168684286Y-90423866D02*
X169446191Y-90423866D01*
X169065238Y-90804819D02*
X169065238Y-90042914D01*
X170398571Y-89804819D02*
X169922381Y-89804819D01*
X169922381Y-89804819D02*
X169874762Y-90281009D01*
X169874762Y-90281009D02*
X169922381Y-90233390D01*
X169922381Y-90233390D02*
X170017619Y-90185771D01*
X170017619Y-90185771D02*
X170255714Y-90185771D01*
X170255714Y-90185771D02*
X170350952Y-90233390D01*
X170350952Y-90233390D02*
X170398571Y-90281009D01*
X170398571Y-90281009D02*
X170446190Y-90376247D01*
X170446190Y-90376247D02*
X170446190Y-90614342D01*
X170446190Y-90614342D02*
X170398571Y-90709580D01*
X170398571Y-90709580D02*
X170350952Y-90757200D01*
X170350952Y-90757200D02*
X170255714Y-90804819D01*
X170255714Y-90804819D02*
X170017619Y-90804819D01*
X170017619Y-90804819D02*
X169922381Y-90757200D01*
X169922381Y-90757200D02*
X169874762Y-90709580D01*
X170731905Y-89804819D02*
X171065238Y-90804819D01*
X171065238Y-90804819D02*
X171398571Y-89804819D01*
X246728895Y-90410019D02*
X246728895Y-89410019D01*
X246728895Y-89886209D02*
X247300323Y-89886209D01*
X247300323Y-90410019D02*
X247300323Y-89410019D01*
X247728895Y-89505257D02*
X247776514Y-89457638D01*
X247776514Y-89457638D02*
X247871752Y-89410019D01*
X247871752Y-89410019D02*
X248109847Y-89410019D01*
X248109847Y-89410019D02*
X248205085Y-89457638D01*
X248205085Y-89457638D02*
X248252704Y-89505257D01*
X248252704Y-89505257D02*
X248300323Y-89600495D01*
X248300323Y-89600495D02*
X248300323Y-89695733D01*
X248300323Y-89695733D02*
X248252704Y-89838590D01*
X248252704Y-89838590D02*
X247681276Y-90410019D01*
X247681276Y-90410019D02*
X248300323Y-90410019D01*
X184808019Y-58942266D02*
X184331828Y-59275599D01*
X184808019Y-59513694D02*
X183808019Y-59513694D01*
X183808019Y-59513694D02*
X183808019Y-59132742D01*
X183808019Y-59132742D02*
X183855638Y-59037504D01*
X183855638Y-59037504D02*
X183903257Y-58989885D01*
X183903257Y-58989885D02*
X183998495Y-58942266D01*
X183998495Y-58942266D02*
X184141352Y-58942266D01*
X184141352Y-58942266D02*
X184236590Y-58989885D01*
X184236590Y-58989885D02*
X184284209Y-59037504D01*
X184284209Y-59037504D02*
X184331828Y-59132742D01*
X184331828Y-59132742D02*
X184331828Y-59513694D01*
X184141352Y-58085123D02*
X184808019Y-58085123D01*
X183760400Y-58323218D02*
X184474685Y-58561313D01*
X184474685Y-58561313D02*
X184474685Y-57942266D01*
X180189580Y-85626441D02*
X180237200Y-85674060D01*
X180237200Y-85674060D02*
X180284819Y-85816917D01*
X180284819Y-85816917D02*
X180284819Y-85912155D01*
X180284819Y-85912155D02*
X180237200Y-86055012D01*
X180237200Y-86055012D02*
X180141961Y-86150250D01*
X180141961Y-86150250D02*
X180046723Y-86197869D01*
X180046723Y-86197869D02*
X179856247Y-86245488D01*
X179856247Y-86245488D02*
X179713390Y-86245488D01*
X179713390Y-86245488D02*
X179522914Y-86197869D01*
X179522914Y-86197869D02*
X179427676Y-86150250D01*
X179427676Y-86150250D02*
X179332438Y-86055012D01*
X179332438Y-86055012D02*
X179284819Y-85912155D01*
X179284819Y-85912155D02*
X179284819Y-85816917D01*
X179284819Y-85816917D02*
X179332438Y-85674060D01*
X179332438Y-85674060D02*
X179380057Y-85626441D01*
X179380057Y-85245488D02*
X179332438Y-85197869D01*
X179332438Y-85197869D02*
X179284819Y-85102631D01*
X179284819Y-85102631D02*
X179284819Y-84864536D01*
X179284819Y-84864536D02*
X179332438Y-84769298D01*
X179332438Y-84769298D02*
X179380057Y-84721679D01*
X179380057Y-84721679D02*
X179475295Y-84674060D01*
X179475295Y-84674060D02*
X179570533Y-84674060D01*
X179570533Y-84674060D02*
X179713390Y-84721679D01*
X179713390Y-84721679D02*
X180284819Y-85293107D01*
X180284819Y-85293107D02*
X180284819Y-84674060D01*
D10*
X231576666Y-94687419D02*
X231576666Y-95401704D01*
X231576666Y-95401704D02*
X231529047Y-95544561D01*
X231529047Y-95544561D02*
X231433809Y-95639800D01*
X231433809Y-95639800D02*
X231290952Y-95687419D01*
X231290952Y-95687419D02*
X231195714Y-95687419D01*
X232005238Y-94782657D02*
X232052857Y-94735038D01*
X232052857Y-94735038D02*
X232148095Y-94687419D01*
X232148095Y-94687419D02*
X232386190Y-94687419D01*
X232386190Y-94687419D02*
X232481428Y-94735038D01*
X232481428Y-94735038D02*
X232529047Y-94782657D01*
X232529047Y-94782657D02*
X232576666Y-94877895D01*
X232576666Y-94877895D02*
X232576666Y-94973133D01*
X232576666Y-94973133D02*
X232529047Y-95115990D01*
X232529047Y-95115990D02*
X231957619Y-95687419D01*
X231957619Y-95687419D02*
X232576666Y-95687419D01*
D12*
X239696666Y-47714819D02*
X239696666Y-48429104D01*
X239696666Y-48429104D02*
X239649047Y-48571961D01*
X239649047Y-48571961D02*
X239553809Y-48667200D01*
X239553809Y-48667200D02*
X239410952Y-48714819D01*
X239410952Y-48714819D02*
X239315714Y-48714819D01*
X240696666Y-48714819D02*
X240125238Y-48714819D01*
X240410952Y-48714819D02*
X240410952Y-47714819D01*
X240410952Y-47714819D02*
X240315714Y-47857676D01*
X240315714Y-47857676D02*
X240220476Y-47952914D01*
X240220476Y-47952914D02*
X240125238Y-48000533D01*
X244167066Y-55030019D02*
X244167066Y-55744304D01*
X244167066Y-55744304D02*
X244119447Y-55887161D01*
X244119447Y-55887161D02*
X244024209Y-55982400D01*
X244024209Y-55982400D02*
X243881352Y-56030019D01*
X243881352Y-56030019D02*
X243786114Y-56030019D01*
X245119447Y-55030019D02*
X244643257Y-55030019D01*
X244643257Y-55030019D02*
X244595638Y-55506209D01*
X244595638Y-55506209D02*
X244643257Y-55458590D01*
X244643257Y-55458590D02*
X244738495Y-55410971D01*
X244738495Y-55410971D02*
X244976590Y-55410971D01*
X244976590Y-55410971D02*
X245071828Y-55458590D01*
X245071828Y-55458590D02*
X245119447Y-55506209D01*
X245119447Y-55506209D02*
X245167066Y-55601447D01*
X245167066Y-55601447D02*
X245167066Y-55839542D01*
X245167066Y-55839542D02*
X245119447Y-55934780D01*
X245119447Y-55934780D02*
X245071828Y-55982400D01*
X245071828Y-55982400D02*
X244976590Y-56030019D01*
X244976590Y-56030019D02*
X244738495Y-56030019D01*
X244738495Y-56030019D02*
X244643257Y-55982400D01*
X244643257Y-55982400D02*
X244595638Y-55934780D01*
X196175333Y-69136419D02*
X195842000Y-68660228D01*
X195603905Y-69136419D02*
X195603905Y-68136419D01*
X195603905Y-68136419D02*
X195984857Y-68136419D01*
X195984857Y-68136419D02*
X196080095Y-68184038D01*
X196080095Y-68184038D02*
X196127714Y-68231657D01*
X196127714Y-68231657D02*
X196175333Y-68326895D01*
X196175333Y-68326895D02*
X196175333Y-68469752D01*
X196175333Y-68469752D02*
X196127714Y-68564990D01*
X196127714Y-68564990D02*
X196080095Y-68612609D01*
X196080095Y-68612609D02*
X195984857Y-68660228D01*
X195984857Y-68660228D02*
X195603905Y-68660228D01*
X196508667Y-68136419D02*
X197127714Y-68136419D01*
X197127714Y-68136419D02*
X196794381Y-68517371D01*
X196794381Y-68517371D02*
X196937238Y-68517371D01*
X196937238Y-68517371D02*
X197032476Y-68564990D01*
X197032476Y-68564990D02*
X197080095Y-68612609D01*
X197080095Y-68612609D02*
X197127714Y-68707847D01*
X197127714Y-68707847D02*
X197127714Y-68945942D01*
X197127714Y-68945942D02*
X197080095Y-69041180D01*
X197080095Y-69041180D02*
X197032476Y-69088800D01*
X197032476Y-69088800D02*
X196937238Y-69136419D01*
X196937238Y-69136419D02*
X196651524Y-69136419D01*
X196651524Y-69136419D02*
X196556286Y-69088800D01*
X196556286Y-69088800D02*
X196508667Y-69041180D01*
X238929104Y-52784285D02*
X238929104Y-52308095D01*
X239214819Y-52879523D02*
X238214819Y-52546190D01*
X238214819Y-52546190D02*
X239214819Y-52212857D01*
X239214819Y-51355714D02*
X239214819Y-51927142D01*
X239214819Y-51641428D02*
X238214819Y-51641428D01*
X238214819Y-51641428D02*
X238357676Y-51736666D01*
X238357676Y-51736666D02*
X238452914Y-51831904D01*
X238452914Y-51831904D02*
X238500533Y-51927142D01*
X233134819Y-59681904D02*
X233944342Y-59681904D01*
X233944342Y-59681904D02*
X234039580Y-59634285D01*
X234039580Y-59634285D02*
X234087200Y-59586666D01*
X234087200Y-59586666D02*
X234134819Y-59491428D01*
X234134819Y-59491428D02*
X234134819Y-59300952D01*
X234134819Y-59300952D02*
X234087200Y-59205714D01*
X234087200Y-59205714D02*
X234039580Y-59158095D01*
X234039580Y-59158095D02*
X233944342Y-59110476D01*
X233944342Y-59110476D02*
X233134819Y-59110476D01*
X234087200Y-58681904D02*
X234134819Y-58539047D01*
X234134819Y-58539047D02*
X234134819Y-58300952D01*
X234134819Y-58300952D02*
X234087200Y-58205714D01*
X234087200Y-58205714D02*
X234039580Y-58158095D01*
X234039580Y-58158095D02*
X233944342Y-58110476D01*
X233944342Y-58110476D02*
X233849104Y-58110476D01*
X233849104Y-58110476D02*
X233753866Y-58158095D01*
X233753866Y-58158095D02*
X233706247Y-58205714D01*
X233706247Y-58205714D02*
X233658628Y-58300952D01*
X233658628Y-58300952D02*
X233611009Y-58491428D01*
X233611009Y-58491428D02*
X233563390Y-58586666D01*
X233563390Y-58586666D02*
X233515771Y-58634285D01*
X233515771Y-58634285D02*
X233420533Y-58681904D01*
X233420533Y-58681904D02*
X233325295Y-58681904D01*
X233325295Y-58681904D02*
X233230057Y-58634285D01*
X233230057Y-58634285D02*
X233182438Y-58586666D01*
X233182438Y-58586666D02*
X233134819Y-58491428D01*
X233134819Y-58491428D02*
X233134819Y-58253333D01*
X233134819Y-58253333D02*
X233182438Y-58110476D01*
X233611009Y-57348571D02*
X233658628Y-57205714D01*
X233658628Y-57205714D02*
X233706247Y-57158095D01*
X233706247Y-57158095D02*
X233801485Y-57110476D01*
X233801485Y-57110476D02*
X233944342Y-57110476D01*
X233944342Y-57110476D02*
X234039580Y-57158095D01*
X234039580Y-57158095D02*
X234087200Y-57205714D01*
X234087200Y-57205714D02*
X234134819Y-57300952D01*
X234134819Y-57300952D02*
X234134819Y-57681904D01*
X234134819Y-57681904D02*
X233134819Y-57681904D01*
X233134819Y-57681904D02*
X233134819Y-57348571D01*
X233134819Y-57348571D02*
X233182438Y-57253333D01*
X233182438Y-57253333D02*
X233230057Y-57205714D01*
X233230057Y-57205714D02*
X233325295Y-57158095D01*
X233325295Y-57158095D02*
X233420533Y-57158095D01*
X233420533Y-57158095D02*
X233515771Y-57205714D01*
X233515771Y-57205714D02*
X233563390Y-57253333D01*
X233563390Y-57253333D02*
X233611009Y-57348571D01*
X233611009Y-57348571D02*
X233611009Y-57681904D01*
D13*
X175130000Y-89200000D02*
X176460000Y-89200000D01*
X175130000Y-90530000D02*
X175130000Y-89200000D01*
X175130000Y-91800000D02*
X175130000Y-91860000D01*
X175130000Y-91800000D02*
X177790000Y-91800000D01*
X175130000Y-91860000D02*
X177790000Y-91860000D01*
X177790000Y-91800000D02*
X177790000Y-91860000D01*
X190930000Y-58760000D02*
X190930000Y-58110000D01*
X189810000Y-58110000D02*
X192050000Y-58110000D01*
X192050000Y-58110000D02*
X192050000Y-53870000D01*
X189810000Y-57510000D02*
X192050000Y-57510000D01*
X189810000Y-57390000D02*
X192050000Y-57390000D01*
X189810000Y-57270000D02*
X192050000Y-57270000D01*
X189810000Y-53870000D02*
X189810000Y-58110000D01*
X192050000Y-53870000D02*
X189810000Y-53870000D01*
X190930000Y-53220000D02*
X190930000Y-53870000D01*
X179360000Y-75780000D02*
X180690000Y-75780000D01*
X179360000Y-77110000D02*
X179360000Y-75780000D01*
X179360000Y-78380000D02*
X179360000Y-78440000D01*
X179360000Y-78380000D02*
X182020000Y-78380000D01*
X179360000Y-78440000D02*
X182020000Y-78440000D01*
X182020000Y-78380000D02*
X182020000Y-78440000D01*
X189560000Y-78490000D02*
X184919000Y-78490000D01*
X189560000Y-78490000D02*
X189560000Y-88730000D01*
X188050000Y-78490000D02*
X188050000Y-88730000D01*
X184919000Y-78490000D02*
X184919000Y-88730000D01*
X189560000Y-81760000D02*
X188050000Y-81760000D01*
X189560000Y-85461000D02*
X188050000Y-85461000D01*
X189560000Y-88730000D02*
X184919000Y-88730000D01*
X237120000Y-80410000D02*
X237120000Y-81320000D01*
X239840000Y-81320000D02*
X234400000Y-81320000D01*
X234400000Y-81320000D02*
X234400000Y-91060000D01*
X234400000Y-89395000D02*
X239840000Y-89395000D01*
X234400000Y-89515000D02*
X239840000Y-89515000D01*
X234400000Y-89635000D02*
X239840000Y-89635000D01*
X239840000Y-91060000D02*
X239840000Y-81320000D01*
X234400000Y-91060000D02*
X239840000Y-91060000D01*
X237120000Y-91970000D02*
X237120000Y-91060000D01*
G36*
X165423448Y-51920118D02*
G01*
X165423448Y-52177986D01*
X165058135Y-52177986D01*
X164692822Y-52177986D01*
X164692822Y-53284669D01*
X164692822Y-54391353D01*
X164402720Y-54391353D01*
X164112619Y-54391353D01*
X164112619Y-53285177D01*
X164112619Y-52179001D01*
X163741933Y-52173121D01*
X163371248Y-52167241D01*
X163353569Y-51985537D01*
X163346826Y-51891732D01*
X163344777Y-51805680D01*
X163347692Y-51742949D01*
X163349171Y-51733041D01*
X163362451Y-51662250D01*
X164392949Y-51662250D01*
X165423448Y-51662250D01*
X165423448Y-51920118D01*
G37*
G36*
X171685026Y-43062427D02*
G01*
X171824889Y-43097583D01*
X171969500Y-43148719D01*
X172063549Y-43190486D01*
X172188840Y-43264948D01*
X172318636Y-43365859D01*
X172442299Y-43482985D01*
X172549191Y-43606092D01*
X172628674Y-43724946D01*
X172638474Y-43743552D01*
X172686295Y-43848892D01*
X172727226Y-43958265D01*
X172757123Y-44058961D01*
X172771846Y-44138272D01*
X172772686Y-44155405D01*
X172753071Y-44223232D01*
X172701674Y-44282456D01*
X172629664Y-44325920D01*
X172548213Y-44346466D01*
X172482585Y-44341288D01*
X172428121Y-44316688D01*
X172383866Y-44269780D01*
X172343591Y-44192595D01*
X172320984Y-44134645D01*
X172236368Y-43953556D01*
X172124502Y-43803666D01*
X171983527Y-43683465D01*
X171811586Y-43591443D01*
X171606821Y-43526088D01*
X171559573Y-43515631D01*
X171474141Y-43498088D01*
X171406515Y-43484372D01*
X171366326Y-43476427D01*
X171359469Y-43475222D01*
X171339815Y-43456428D01*
X171314275Y-43411348D01*
X171289574Y-43354783D01*
X171272438Y-43301533D01*
X171268537Y-43275100D01*
X171282163Y-43199318D01*
X171317044Y-43126251D01*
X171363900Y-43074064D01*
X171374711Y-43067286D01*
X171451858Y-43045834D01*
X171557990Y-43044696D01*
X171685026Y-43062427D01*
G37*
G36*
X166735773Y-52330821D02*
G01*
X166785810Y-52342519D01*
X166816953Y-52370197D01*
X166833220Y-52420550D01*
X166838630Y-52500272D01*
X166837199Y-52616055D01*
X166837128Y-52618791D01*
X166830977Y-52854889D01*
X166708267Y-52847745D01*
X166560873Y-52855200D01*
X166422579Y-52892249D01*
X166301919Y-52954872D01*
X166207431Y-53039051D01*
X166163721Y-53104136D01*
X166154240Y-53130285D01*
X166146795Y-53170953D01*
X166141172Y-53230797D01*
X166137155Y-53314473D01*
X166134529Y-53426636D01*
X166133079Y-53571944D01*
X166132589Y-53755052D01*
X166132585Y-53777849D01*
X166132585Y-54391353D01*
X165852553Y-54391353D01*
X165727085Y-54390042D01*
X165640080Y-54385835D01*
X165587098Y-54378322D01*
X165563697Y-54367091D01*
X165562224Y-54364492D01*
X165560237Y-54338095D01*
X165558615Y-54273118D01*
X165557379Y-54173958D01*
X165556550Y-54045012D01*
X165556147Y-53890675D01*
X165556190Y-53715346D01*
X165556701Y-53523419D01*
X165557526Y-53349136D01*
X165563126Y-52360642D01*
X165825001Y-52354619D01*
X166086876Y-52348597D01*
X166101335Y-52495331D01*
X166115794Y-52642066D01*
X166247751Y-52511163D01*
X166347372Y-52422792D01*
X166440370Y-52366749D01*
X166539940Y-52337226D01*
X166659273Y-52328414D01*
X166662824Y-52328409D01*
X166735773Y-52330821D01*
G37*
G36*
X171505565Y-42085990D02*
G01*
X171609804Y-42094331D01*
X171630988Y-42096226D01*
X171949274Y-42145845D01*
X172254407Y-42235094D01*
X172543061Y-42362191D01*
X172811912Y-42525356D01*
X173057633Y-42722809D01*
X173276901Y-42952767D01*
X173313001Y-42997094D01*
X173422299Y-43146487D01*
X173517758Y-43300321D01*
X173596898Y-43452607D01*
X173657242Y-43597353D01*
X173696311Y-43728569D01*
X173711626Y-43840264D01*
X173700708Y-43926448D01*
X173699213Y-43930552D01*
X173655453Y-43990572D01*
X173585188Y-44032635D01*
X173502357Y-44053197D01*
X173420900Y-44048718D01*
X173356895Y-44017537D01*
X173328981Y-43980504D01*
X173293290Y-43915168D01*
X173256307Y-43833768D01*
X173245918Y-43808020D01*
X173121092Y-43545358D01*
X172962786Y-43307660D01*
X172773470Y-43097663D01*
X172555614Y-42918103D01*
X172311686Y-42771720D01*
X172310673Y-42771210D01*
X172201331Y-42718872D01*
X172098479Y-42676355D01*
X171993972Y-42641611D01*
X171879667Y-42612590D01*
X171747420Y-42587244D01*
X171589085Y-42563523D01*
X171396519Y-42539379D01*
X171382786Y-42537766D01*
X171282435Y-42509734D01*
X171211717Y-42454367D01*
X171174449Y-42374727D01*
X171173457Y-42369766D01*
X171174245Y-42270435D01*
X171212385Y-42184509D01*
X171283516Y-42120822D01*
X171300637Y-42111854D01*
X171339900Y-42095565D01*
X171380530Y-42086138D01*
X171432446Y-42083102D01*
X171505565Y-42085990D01*
G37*
G36*
X171657634Y-41139292D02*
G01*
X171841095Y-41159542D01*
X172028468Y-41188021D01*
X172207371Y-41223233D01*
X172288366Y-41242537D01*
X172646233Y-41354966D01*
X172984998Y-41503989D01*
X173302106Y-41687466D01*
X173594999Y-41903262D01*
X173861123Y-42149237D01*
X174097921Y-42423254D01*
X174302838Y-42723176D01*
X174473317Y-43046863D01*
X174489922Y-43083976D01*
X174534388Y-43194289D01*
X174577834Y-43317456D01*
X174612147Y-43430167D01*
X174617364Y-43450051D01*
X174639045Y-43540624D01*
X174649403Y-43601946D01*
X174649170Y-43646021D01*
X174639075Y-43684851D01*
X174632642Y-43701120D01*
X174581680Y-43773828D01*
X174507470Y-43820569D01*
X174422008Y-43838013D01*
X174337287Y-43822836D01*
X174290842Y-43795938D01*
X174254062Y-43753973D01*
X174219214Y-43684530D01*
X174182814Y-43580474D01*
X174178058Y-43564931D01*
X174073333Y-43286764D01*
X173929684Y-43011717D01*
X173751056Y-42745997D01*
X173541393Y-42495809D01*
X173421131Y-42373641D01*
X173193665Y-42175213D01*
X172958268Y-42011997D01*
X172704074Y-41877347D01*
X172432909Y-41769008D01*
X172253127Y-41712280D01*
X172074022Y-41668836D01*
X171882408Y-41636099D01*
X171665098Y-41611496D01*
X171595379Y-41605514D01*
X171454930Y-41591640D01*
X171351020Y-41574437D01*
X171277222Y-41551582D01*
X171227110Y-41520749D01*
X171194256Y-41479612D01*
X171183068Y-41456345D01*
X171167238Y-41372712D01*
X171181530Y-41287317D01*
X171220305Y-41211072D01*
X171277926Y-41154888D01*
X171348754Y-41129678D01*
X171351970Y-41129457D01*
X171490465Y-41128765D01*
X171657634Y-41139292D01*
G37*
G36*
X180981290Y-52334442D02*
G01*
X181018219Y-52348944D01*
X181037423Y-52363555D01*
X181058209Y-52385170D01*
X181070415Y-52411284D01*
X181075223Y-52451539D01*
X181073815Y-52515579D01*
X181067609Y-52609810D01*
X181059730Y-52701199D01*
X181050915Y-52776996D01*
X181042521Y-52826522D01*
X181038524Y-52838778D01*
X181008493Y-52850793D01*
X180944095Y-52853087D01*
X180898495Y-52850136D01*
X180745248Y-52854496D01*
X180610709Y-52897387D01*
X180493787Y-52979193D01*
X180472382Y-53000297D01*
X180419811Y-53058622D01*
X180377595Y-53112031D01*
X180360814Y-53138206D01*
X180352321Y-53178081D01*
X180345675Y-53260851D01*
X180340875Y-53386472D01*
X180337924Y-53554901D01*
X180336823Y-53766093D01*
X180336815Y-53788248D01*
X180336815Y-54391353D01*
X180056784Y-54391353D01*
X179931315Y-54390042D01*
X179844311Y-54385835D01*
X179791329Y-54378322D01*
X179767927Y-54367091D01*
X179766454Y-54364492D01*
X179764467Y-54338095D01*
X179762845Y-54273118D01*
X179761610Y-54173958D01*
X179760780Y-54045012D01*
X179760377Y-53890675D01*
X179760421Y-53715346D01*
X179760931Y-53523419D01*
X179761756Y-53349136D01*
X179767356Y-52360642D01*
X180023515Y-52354556D01*
X180142200Y-52353107D01*
X180223533Y-52355660D01*
X180272991Y-52362645D01*
X180296051Y-52374491D01*
X180297171Y-52376045D01*
X180306698Y-52411423D01*
X180313189Y-52474302D01*
X180314997Y-52531100D01*
X180315326Y-52658581D01*
X180428143Y-52538897D01*
X180522620Y-52447895D01*
X180609865Y-52388018D01*
X180703198Y-52352645D01*
X180815937Y-52335153D01*
X180841807Y-52333229D01*
X180926621Y-52329845D01*
X180981290Y-52334442D01*
G37*
G36*
X177908678Y-53010684D02*
G01*
X177909393Y-53182512D01*
X177911362Y-53341977D01*
X177914419Y-53483286D01*
X177918395Y-53600649D01*
X177923121Y-53688272D01*
X177928432Y-53740364D01*
X177930031Y-53747904D01*
X177960340Y-53813922D01*
X178007514Y-53877709D01*
X178016587Y-53886921D01*
X178058567Y-53921730D01*
X178103240Y-53942138D01*
X178165394Y-53953068D01*
X178229651Y-53957853D01*
X178357826Y-53957187D01*
X178459642Y-53935640D01*
X178548519Y-53888609D01*
X178628050Y-53821158D01*
X178725140Y-53726797D01*
X178725140Y-53038347D01*
X178725140Y-52349898D01*
X179004497Y-52349898D01*
X179283854Y-52349898D01*
X179283854Y-53370625D01*
X179283854Y-54391353D01*
X179017928Y-54391353D01*
X178752001Y-54391353D01*
X178738570Y-54324200D01*
X178728671Y-54257263D01*
X178725140Y-54203559D01*
X178723576Y-54174017D01*
X178713758Y-54167719D01*
X178687995Y-54187057D01*
X178644556Y-54228611D01*
X178577493Y-54283737D01*
X178494213Y-54338725D01*
X178446052Y-54365014D01*
X178382344Y-54393224D01*
X178321351Y-54411249D01*
X178249359Y-54421696D01*
X178152655Y-54427171D01*
X178112973Y-54428331D01*
X177982020Y-54427673D01*
X177876415Y-54419034D01*
X177811857Y-54405436D01*
X177659940Y-54338865D01*
X177540328Y-54247745D01*
X177446830Y-54126636D01*
X177405837Y-54048621D01*
X177394104Y-54021434D01*
X177384534Y-53992583D01*
X177376860Y-53957477D01*
X177370819Y-53911530D01*
X177366145Y-53850152D01*
X177362574Y-53768755D01*
X177359841Y-53662751D01*
X177357681Y-53527551D01*
X177355831Y-53358568D01*
X177354024Y-53151213D01*
X177354017Y-53150363D01*
X177347446Y-52349898D01*
X177628002Y-52349898D01*
X177908558Y-52349898D01*
X177908678Y-53010684D01*
G37*
G36*
X171563930Y-51581024D02*
G01*
X171837915Y-51587038D01*
X171843552Y-52376759D01*
X171845285Y-52556188D01*
X171847751Y-52721321D01*
X171850812Y-52867412D01*
X171854332Y-52989715D01*
X171858172Y-53083484D01*
X171862196Y-53143974D01*
X171866264Y-53166439D01*
X171866440Y-53166480D01*
X171884235Y-53150499D01*
X171925089Y-53105585D01*
X171985110Y-53036282D01*
X172060403Y-52947133D01*
X172147076Y-52842681D01*
X172215372Y-52759285D01*
X172547052Y-52352090D01*
X172874759Y-52350994D01*
X173012242Y-52351943D01*
X173114298Y-52355721D01*
X173178487Y-52362171D01*
X173202367Y-52371139D01*
X173202466Y-52371837D01*
X173188896Y-52393896D01*
X173150982Y-52442984D01*
X173092919Y-52513998D01*
X173018904Y-52601833D01*
X172933132Y-52701384D01*
X172906605Y-52731778D01*
X172812137Y-52839871D01*
X172722146Y-52943155D01*
X172642382Y-53035006D01*
X172578599Y-53108797D01*
X172536546Y-53157903D01*
X172532466Y-53162734D01*
X172454188Y-53255689D01*
X172849816Y-53801616D01*
X172947088Y-53936516D01*
X173035682Y-54060677D01*
X173112558Y-54169736D01*
X173174675Y-54259329D01*
X173218992Y-54325091D01*
X173242469Y-54362659D01*
X173245444Y-54369448D01*
X173224419Y-54378561D01*
X173163080Y-54385278D01*
X173064036Y-54389428D01*
X172929894Y-54390842D01*
X172917737Y-54390831D01*
X172590030Y-54390310D01*
X172272252Y-53933521D01*
X172183476Y-53806334D01*
X172100126Y-53687720D01*
X172026155Y-53583238D01*
X171965513Y-53498449D01*
X171922152Y-53438914D01*
X171902340Y-53412934D01*
X171850205Y-53349136D01*
X171849432Y-53870245D01*
X171848659Y-54391353D01*
X171569302Y-54391353D01*
X171289945Y-54391353D01*
X171289945Y-52983181D01*
X171289945Y-51575010D01*
X171563930Y-51581024D01*
G37*
G36*
X174319895Y-52092030D02*
G01*
X174319895Y-52349898D01*
X174600314Y-52349898D01*
X174880733Y-52349898D01*
X174877626Y-52462715D01*
X174873281Y-52553717D01*
X174866068Y-52647945D01*
X174863051Y-52677605D01*
X174851583Y-52779678D01*
X174585739Y-52779678D01*
X174319895Y-52779678D01*
X174319895Y-53274615D01*
X174320691Y-53455649D01*
X174323628Y-53598754D01*
X174329524Y-53708963D01*
X174339199Y-53791303D01*
X174353473Y-53850806D01*
X174373165Y-53892501D01*
X174399096Y-53921418D01*
X174428438Y-53940672D01*
X174476363Y-53952392D01*
X174551528Y-53956480D01*
X174638961Y-53953396D01*
X174723693Y-53943599D01*
X174784251Y-53929752D01*
X174816974Y-53926280D01*
X174834912Y-53950221D01*
X174843346Y-53984034D01*
X174850589Y-54042086D01*
X174855578Y-54123818D01*
X174857120Y-54198031D01*
X174855964Y-54271523D01*
X174847397Y-54320368D01*
X174823772Y-54352567D01*
X174777442Y-54376119D01*
X174700759Y-54399026D01*
X174652974Y-54411605D01*
X174579467Y-54423367D01*
X174479114Y-54429933D01*
X174367741Y-54431235D01*
X174261173Y-54427206D01*
X174175235Y-54417779D01*
X174155116Y-54413717D01*
X174020476Y-54361289D01*
X173911634Y-54275559D01*
X173832614Y-54160375D01*
X173771925Y-54036784D01*
X173764858Y-53409138D01*
X173757791Y-52781492D01*
X173603690Y-52775213D01*
X173449590Y-52768933D01*
X173449590Y-52564788D01*
X173449590Y-52360642D01*
X173605385Y-52354329D01*
X173761180Y-52348015D01*
X173761180Y-52145567D01*
X173762307Y-52048365D01*
X173766679Y-51985461D01*
X173775783Y-51948213D01*
X173791109Y-51927977D01*
X173799574Y-51922571D01*
X173841521Y-51907930D01*
X173913365Y-51890007D01*
X174002409Y-51871252D01*
X174095956Y-51854115D01*
X174181309Y-51841047D01*
X174245771Y-51834495D01*
X174257801Y-51834162D01*
X174319895Y-51834162D01*
X174319895Y-52092030D01*
G37*
G36*
X170544125Y-52335602D02*
G01*
X170728296Y-52383645D01*
X170834157Y-52427214D01*
X170898228Y-52460757D01*
X170930943Y-52486662D01*
X170940571Y-52513941D01*
X170937732Y-52540108D01*
X170930355Y-52590034D01*
X170921422Y-52666324D01*
X170912861Y-52752502D01*
X170912825Y-52752901D01*
X170902331Y-52844610D01*
X170888958Y-52898969D01*
X170869488Y-52921607D01*
X170840708Y-52918152D01*
X170823434Y-52909337D01*
X170690333Y-52848763D01*
X170538481Y-52806043D01*
X170381818Y-52783388D01*
X170234286Y-52783012D01*
X170133694Y-52799832D01*
X170036983Y-52843736D01*
X169940849Y-52917680D01*
X169858216Y-53010540D01*
X169821765Y-53068313D01*
X169799746Y-53116089D01*
X169785781Y-53167549D01*
X169778173Y-53234041D01*
X169775227Y-53326912D01*
X169774971Y-53381370D01*
X169776353Y-53490157D01*
X169781617Y-53567290D01*
X169792441Y-53624035D01*
X169810502Y-53671659D01*
X169821353Y-53692960D01*
X169909134Y-53814081D01*
X170023517Y-53907305D01*
X170059161Y-53927159D01*
X170170937Y-53963886D01*
X170307300Y-53978040D01*
X170456699Y-53970311D01*
X170607584Y-53941387D01*
X170748402Y-53891958D01*
X170763120Y-53885137D01*
X170824242Y-53859646D01*
X170869032Y-53847674D01*
X170884022Y-53849486D01*
X170893425Y-53877699D01*
X170904444Y-53936050D01*
X170915580Y-54012172D01*
X170925332Y-54093698D01*
X170932200Y-54168263D01*
X170934684Y-54223500D01*
X170932149Y-54246153D01*
X170899120Y-54273425D01*
X170835251Y-54306885D01*
X170751324Y-54342023D01*
X170658123Y-54374325D01*
X170566432Y-54399281D01*
X170565822Y-54399419D01*
X170428233Y-54421323D01*
X170274112Y-54431072D01*
X170119613Y-54428649D01*
X169980891Y-54414035D01*
X169914649Y-54400131D01*
X169725430Y-54332661D01*
X169564799Y-54236978D01*
X169464138Y-54149592D01*
X169350800Y-54020965D01*
X169268667Y-53889027D01*
X169213256Y-53743385D01*
X169180085Y-53573648D01*
X169169760Y-53467152D01*
X169173853Y-53251412D01*
X169215386Y-53048093D01*
X169291497Y-52861277D01*
X169399326Y-52695048D01*
X169536011Y-52553489D01*
X169698690Y-52440683D01*
X169884503Y-52360713D01*
X169959627Y-52340008D01*
X170146064Y-52312415D01*
X170345472Y-52311403D01*
X170544125Y-52335602D01*
G37*
G36*
X175016840Y-47082187D02*
G01*
X175237357Y-47153100D01*
X175443807Y-47257772D01*
X175632291Y-47393902D01*
X175798907Y-47559193D01*
X175939756Y-47751346D01*
X176050938Y-47968064D01*
X176116436Y-48159542D01*
X176142775Y-48302743D01*
X176152988Y-48480753D01*
X176153114Y-48524855D01*
X176148042Y-48667757D01*
X176133161Y-48803345D01*
X176106517Y-48935288D01*
X176066155Y-49067252D01*
X176010123Y-49202906D01*
X175936466Y-49345918D01*
X175843231Y-49499956D01*
X175728465Y-49668688D01*
X175590213Y-49855780D01*
X175426522Y-50064902D01*
X175235439Y-50299721D01*
X175157966Y-50393177D01*
X175039204Y-50535554D01*
X174944552Y-50648109D01*
X174870875Y-50734255D01*
X174815033Y-50797407D01*
X174773891Y-50840979D01*
X174744310Y-50868384D01*
X174723153Y-50883036D01*
X174707283Y-50888349D01*
X174702647Y-50888635D01*
X174678247Y-50872831D01*
X174630714Y-50828390D01*
X174564322Y-50759781D01*
X174483347Y-50671472D01*
X174392064Y-50567930D01*
X174358287Y-50528705D01*
X174166280Y-50303159D01*
X174000799Y-50105752D01*
X173859342Y-49932923D01*
X173739410Y-49781117D01*
X173638502Y-49646776D01*
X173554117Y-49526341D01*
X173483754Y-49416254D01*
X173424913Y-49312959D01*
X173375092Y-49212898D01*
X173331793Y-49112512D01*
X173295514Y-49016666D01*
X173258603Y-48878513D01*
X173234585Y-48715172D01*
X173224249Y-48542079D01*
X173225334Y-48498156D01*
X174047498Y-48498156D01*
X174062534Y-48650765D01*
X174113248Y-48794369D01*
X174196045Y-48922927D01*
X174307331Y-49030396D01*
X174443511Y-49110736D01*
X174550568Y-49147309D01*
X174648691Y-49159118D01*
X174768299Y-49154518D01*
X174891604Y-49134560D01*
X174929513Y-49124940D01*
X175003478Y-49089173D01*
X175091854Y-49021340D01*
X175136357Y-48979781D01*
X175245696Y-48847207D01*
X175317679Y-48703613D01*
X175349834Y-48554355D01*
X175351367Y-48514111D01*
X175331309Y-48373035D01*
X175274966Y-48232295D01*
X175188085Y-48101196D01*
X175076413Y-47989042D01*
X174989799Y-47928670D01*
X174920866Y-47895250D01*
X174844466Y-47875108D01*
X174744087Y-47864112D01*
X174727622Y-47863094D01*
X174635117Y-47859845D01*
X174567273Y-47864897D01*
X174506110Y-47881195D01*
X174435074Y-47911033D01*
X174302456Y-47985767D01*
X174202350Y-48077048D01*
X174127788Y-48193150D01*
X174071803Y-48342348D01*
X174071735Y-48342582D01*
X174047498Y-48498156D01*
X173225334Y-48498156D01*
X173228383Y-48374672D01*
X173247779Y-48228390D01*
X173253860Y-48201817D01*
X173332055Y-47971817D01*
X173445487Y-47757125D01*
X173589696Y-47562418D01*
X173760221Y-47392370D01*
X173952599Y-47251659D01*
X174162371Y-47144959D01*
X174309892Y-47094972D01*
X174549208Y-47050824D01*
X174786157Y-47047328D01*
X175016840Y-47082187D01*
G37*
G36*
X167994892Y-52312226D02*
G01*
X168187624Y-52339148D01*
X168363269Y-52389572D01*
X168514947Y-52462537D01*
X168635524Y-52556823D01*
X168692167Y-52620494D01*
X168738930Y-52688719D01*
X168776628Y-52766032D01*
X168806077Y-52856970D01*
X168828092Y-52966068D01*
X168843489Y-53097862D01*
X168853083Y-53256888D01*
X168857690Y-53447682D01*
X168858125Y-53674779D01*
X168857181Y-53789661D01*
X168850944Y-54380608D01*
X168593076Y-54380608D01*
X168335208Y-54380608D01*
X168328662Y-54266350D01*
X168322117Y-54152092D01*
X168241015Y-54225363D01*
X168175609Y-54275798D01*
X168092268Y-54328774D01*
X168033386Y-54360538D01*
X167964078Y-54391430D01*
X167900113Y-54410819D01*
X167826486Y-54421768D01*
X167728190Y-54427336D01*
X167701998Y-54428136D01*
X167576873Y-54427523D01*
X167473904Y-54418880D01*
X167411180Y-54405599D01*
X167253887Y-54335524D01*
X167131196Y-54239974D01*
X167043070Y-54118917D01*
X167013496Y-54052971D01*
X166976069Y-53898292D01*
X166975843Y-53776810D01*
X167533086Y-53776810D01*
X167543937Y-53863987D01*
X167587626Y-53933233D01*
X167660108Y-53982144D01*
X167757337Y-54008315D01*
X167875270Y-54009341D01*
X168009862Y-53982817D01*
X168054375Y-53968611D01*
X168130446Y-53934312D01*
X168203614Y-53889713D01*
X168210170Y-53884846D01*
X168246422Y-53855160D01*
X168267683Y-53826758D01*
X168277951Y-53787474D01*
X168281220Y-53725143D01*
X168281485Y-53667729D01*
X168281485Y-53505007D01*
X168028989Y-53515128D01*
X167871361Y-53525583D01*
X167751184Y-53543822D01*
X167663361Y-53571571D01*
X167602794Y-53610555D01*
X167564386Y-53662498D01*
X167559116Y-53674110D01*
X167533086Y-53776810D01*
X166975843Y-53776810D01*
X166975779Y-53742618D01*
X167010437Y-53593662D01*
X167077855Y-53459141D01*
X167175843Y-53346768D01*
X167224663Y-53308670D01*
X167308856Y-53259432D01*
X167405170Y-53221921D01*
X167520383Y-53194748D01*
X167661269Y-53176525D01*
X167834605Y-53165863D01*
X167936003Y-53162925D01*
X168281461Y-53155735D01*
X168281440Y-53080524D01*
X168262167Y-52975735D01*
X168209696Y-52881906D01*
X168131958Y-52813166D01*
X168131062Y-52812642D01*
X168087823Y-52791704D01*
X168038436Y-52778823D01*
X167971770Y-52772408D01*
X167876690Y-52770863D01*
X167840961Y-52771111D01*
X167724781Y-52774693D01*
X167631097Y-52785013D01*
X167539754Y-52805506D01*
X167430600Y-52839607D01*
X167421925Y-52842540D01*
X167333505Y-52872220D01*
X167259863Y-52896354D01*
X167210799Y-52911762D01*
X167196825Y-52915575D01*
X167185530Y-52897432D01*
X167172296Y-52845573D01*
X167159155Y-52769078D01*
X167152343Y-52716715D01*
X167141750Y-52612163D01*
X167142471Y-52538700D01*
X167160424Y-52487740D01*
X167201526Y-52450695D01*
X167271696Y-52418977D01*
X167376851Y-52383998D01*
X167382953Y-52382066D01*
X167585678Y-52332726D01*
X167791951Y-52309766D01*
X167994892Y-52312226D01*
G37*
G36*
X176146460Y-52312440D02*
G01*
X176356082Y-52342416D01*
X176539368Y-52405523D01*
X176695382Y-52501121D01*
X176823187Y-52628570D01*
X176921847Y-52787228D01*
X176955359Y-52865634D01*
X176969903Y-52925495D01*
X176981653Y-53013776D01*
X176990168Y-53119134D01*
X176995006Y-53230225D01*
X176995725Y-53335707D01*
X176991884Y-53424238D01*
X176983041Y-53484474D01*
X176979833Y-53494187D01*
X176972767Y-53504761D01*
X176958206Y-53513155D01*
X176931633Y-53519619D01*
X176888530Y-53524400D01*
X176824382Y-53527748D01*
X176734670Y-53529913D01*
X176614879Y-53531142D01*
X176460492Y-53531685D01*
X176297557Y-53531793D01*
X176110939Y-53531865D01*
X175962846Y-53532276D01*
X175848826Y-53533317D01*
X175764426Y-53535280D01*
X175705194Y-53538457D01*
X175666678Y-53543138D01*
X175644425Y-53549617D01*
X175633983Y-53558183D01*
X175630898Y-53569129D01*
X175630724Y-53575461D01*
X175643371Y-53642075D01*
X175675648Y-53722260D01*
X175719059Y-53797088D01*
X175744567Y-53829065D01*
X175835242Y-53902157D01*
X175950177Y-53950185D01*
X176095515Y-53975476D01*
X176139132Y-53978620D01*
X176315100Y-53975096D01*
X176494889Y-53948136D01*
X176661894Y-53900918D01*
X176756479Y-53860489D01*
X176812481Y-53833805D01*
X176850540Y-53824699D01*
X176875840Y-53838501D01*
X176893564Y-53880541D01*
X176908894Y-53956148D01*
X176920561Y-54029238D01*
X176933109Y-54123994D01*
X176935251Y-54185044D01*
X176927060Y-54220360D01*
X176922380Y-54227395D01*
X176879544Y-54259997D01*
X176805579Y-54297825D01*
X176711248Y-54336515D01*
X176607316Y-54371703D01*
X176504546Y-54399025D01*
X176492694Y-54401590D01*
X176379984Y-54418348D01*
X176243392Y-54428278D01*
X176098618Y-54431150D01*
X175961364Y-54426736D01*
X175847332Y-54414807D01*
X175827548Y-54411275D01*
X175663882Y-54360857D01*
X175503134Y-54278345D01*
X175361343Y-54172566D01*
X175318618Y-54131111D01*
X175207378Y-53993291D01*
X175127752Y-53843313D01*
X175077268Y-53674219D01*
X175053456Y-53479052D01*
X175050776Y-53377107D01*
X175068675Y-53149580D01*
X175080028Y-53105414D01*
X175631609Y-53105414D01*
X175649779Y-53124692D01*
X175691187Y-53136435D01*
X175760339Y-53142500D01*
X175861742Y-53144742D01*
X175999902Y-53145016D01*
X176062895Y-53144991D01*
X176495067Y-53144991D01*
X176480330Y-53064407D01*
X176439361Y-52935345D01*
X176369667Y-52838220D01*
X176271545Y-52773272D01*
X176145292Y-52740738D01*
X176072212Y-52736700D01*
X175932370Y-52752730D01*
X175819087Y-52801917D01*
X175729699Y-52885904D01*
X175671464Y-52983823D01*
X175646958Y-53036836D01*
X175632171Y-53076747D01*
X175631609Y-53105414D01*
X175080028Y-53105414D01*
X175121406Y-52944442D01*
X175206644Y-52763953D01*
X175322064Y-52610372D01*
X175465340Y-52485959D01*
X175634148Y-52392971D01*
X175826162Y-52333669D01*
X176039059Y-52310312D01*
X176146460Y-52312440D01*
G37*
G36*
X168902033Y-46365699D02*
G01*
X169164337Y-46403898D01*
X169421274Y-46477465D01*
X169668915Y-46585808D01*
X169903329Y-46728334D01*
X170120588Y-46904448D01*
X170316761Y-47113558D01*
X170331014Y-47131179D01*
X170496735Y-47371081D01*
X170625637Y-47628395D01*
X170716675Y-47898626D01*
X170768801Y-48177279D01*
X170780971Y-48459859D01*
X170752138Y-48741874D01*
X170730394Y-48847190D01*
X170645290Y-49117632D01*
X170523113Y-49372816D01*
X170367559Y-49608903D01*
X170182323Y-49822058D01*
X169971104Y-50008441D01*
X169737597Y-50164214D01*
X169485498Y-50285542D01*
X169279564Y-50353468D01*
X169118112Y-50385399D01*
X168932217Y-50404333D01*
X168737616Y-50409889D01*
X168550048Y-50401685D01*
X168385252Y-50379338D01*
X168367441Y-50375620D01*
X168103836Y-50300455D01*
X167864139Y-50193871D01*
X167641119Y-50052002D01*
X167433166Y-49876341D01*
X167238122Y-49661698D01*
X167074910Y-49419623D01*
X167068237Y-49405904D01*
X168947644Y-49405904D01*
X169009175Y-49405904D01*
X169057150Y-49396267D01*
X169128865Y-49370730D01*
X169210541Y-49334351D01*
X169228624Y-49325321D01*
X169301994Y-49285686D01*
X169358361Y-49251083D01*
X169388331Y-49227426D01*
X169390791Y-49223248D01*
X169377618Y-49200449D01*
X169338758Y-49157113D01*
X169281161Y-49100667D01*
X169245684Y-49068215D01*
X169096329Y-48934671D01*
X169021986Y-48970122D01*
X168947644Y-49005573D01*
X168947644Y-49205739D01*
X168947644Y-49405904D01*
X167068237Y-49405904D01*
X166982520Y-49229669D01*
X168168046Y-49229669D01*
X168251627Y-49282175D01*
X168336964Y-49328209D01*
X168432037Y-49367945D01*
X168520616Y-49395295D01*
X168576959Y-49404208D01*
X168599607Y-49402907D01*
X168613774Y-49391690D01*
X168621431Y-49362486D01*
X168624550Y-49307225D01*
X168625100Y-49217835D01*
X168625091Y-49207131D01*
X168624872Y-49008358D01*
X168544507Y-48974833D01*
X168464142Y-48941307D01*
X168316094Y-49085488D01*
X168168046Y-49229669D01*
X166982520Y-49229669D01*
X166945537Y-49153631D01*
X166852009Y-48867232D01*
X166848272Y-48852290D01*
X166824378Y-48714243D01*
X166813862Y-48578578D01*
X167765822Y-48578578D01*
X167774690Y-48629619D01*
X167797601Y-48700425D01*
X167829890Y-48780900D01*
X167866896Y-48860951D01*
X167903956Y-48930482D01*
X167936408Y-48979400D01*
X167959375Y-48997613D01*
X167978536Y-48983303D01*
X168020409Y-48944866D01*
X168077802Y-48889041D01*
X168114173Y-48852563D01*
X168180334Y-48784856D01*
X168220802Y-48739291D01*
X168240084Y-48707426D01*
X168241603Y-48691874D01*
X169343139Y-48691874D01*
X169357621Y-48721605D01*
X169391908Y-48762728D01*
X169450576Y-48823426D01*
X169475141Y-48848215D01*
X169550926Y-48922045D01*
X169605249Y-48963219D01*
X169645849Y-48970616D01*
X169680465Y-48943114D01*
X169716835Y-48879593D01*
X169749558Y-48808448D01*
X169781566Y-48732482D01*
X169807482Y-48663405D01*
X169818780Y-48626928D01*
X169833352Y-48567833D01*
X169607995Y-48567833D01*
X169382638Y-48567833D01*
X169355291Y-48633857D01*
X169343887Y-48665352D01*
X169343139Y-48691874D01*
X168241603Y-48691874D01*
X168242682Y-48680820D01*
X168233102Y-48651032D01*
X168228066Y-48639135D01*
X168198834Y-48570759D01*
X167982245Y-48563924D01*
X167877584Y-48562668D01*
X167805007Y-48566221D01*
X167768992Y-48574281D01*
X167765822Y-48578578D01*
X166813862Y-48578578D01*
X166811539Y-48548615D01*
X166809575Y-48369312D01*
X166816659Y-48224009D01*
X167746577Y-48224009D01*
X167979111Y-48224009D01*
X168211646Y-48224009D01*
X168225434Y-48155069D01*
X168229465Y-48120305D01*
X168228247Y-48114878D01*
X169348210Y-48114878D01*
X169357708Y-48146768D01*
X169360550Y-48154341D01*
X169386847Y-48224009D01*
X169605507Y-48224009D01*
X169824167Y-48224009D01*
X169806964Y-48147731D01*
X169787558Y-48085472D01*
X169756821Y-48011055D01*
X169720583Y-47936112D01*
X169684676Y-47872273D01*
X169654931Y-47831172D01*
X169644029Y-47822719D01*
X169618597Y-47832449D01*
X169571087Y-47866439D01*
X169509730Y-47918475D01*
X169476805Y-47948962D01*
X169409966Y-48013335D01*
X169369488Y-48056732D01*
X169350520Y-48087723D01*
X169348210Y-48114878D01*
X168228247Y-48114878D01*
X168222393Y-48088797D01*
X168199019Y-48051992D01*
X168154140Y-48001336D01*
X168095433Y-47941231D01*
X168031791Y-47879885D01*
X167978638Y-47833813D01*
X167943403Y-47809192D01*
X167934163Y-47807136D01*
X167905935Y-47839089D01*
X167869675Y-47899477D01*
X167831555Y-47976171D01*
X167797744Y-48057040D01*
X167779488Y-48111192D01*
X167746577Y-48224009D01*
X166816659Y-48224009D01*
X166818306Y-48190235D01*
X166837549Y-48025288D01*
X166860503Y-47912419D01*
X166957489Y-47619205D01*
X166979162Y-47575157D01*
X168174443Y-47575157D01*
X168319292Y-47716545D01*
X168383093Y-47777810D01*
X168435001Y-47825762D01*
X168467716Y-47853754D01*
X168474886Y-47858234D01*
X168498454Y-47848290D01*
X168543273Y-47823288D01*
X168555470Y-47815954D01*
X168625309Y-47773372D01*
X168625309Y-47579655D01*
X168624586Y-47487661D01*
X168621213Y-47430468D01*
X168613389Y-47399908D01*
X168599310Y-47387811D01*
X168582557Y-47385938D01*
X168533276Y-47395298D01*
X168460270Y-47419519D01*
X168377508Y-47452811D01*
X168298957Y-47489384D01*
X168238585Y-47523451D01*
X168222592Y-47535132D01*
X168174443Y-47575157D01*
X166979162Y-47575157D01*
X167074907Y-47380566D01*
X168947644Y-47380566D01*
X168947644Y-47587398D01*
X168948483Y-47683740D01*
X168951938Y-47744885D01*
X168959415Y-47778595D01*
X168972322Y-47792634D01*
X168985250Y-47794913D01*
X169031787Y-47807995D01*
X169064569Y-47827146D01*
X169101402Y-47851506D01*
X169118912Y-47858696D01*
X169138575Y-47844403D01*
X169180760Y-47806087D01*
X169238084Y-47750592D01*
X169270600Y-47718053D01*
X169409658Y-47577410D01*
X169355935Y-47535643D01*
X169298984Y-47501256D01*
X169216310Y-47462755D01*
X169123827Y-47426675D01*
X169037450Y-47399551D01*
X169007294Y-47392496D01*
X168947644Y-47380566D01*
X167074907Y-47380566D01*
X167090300Y-47349281D01*
X167258203Y-47103748D01*
X167460466Y-46883711D01*
X167647549Y-46726008D01*
X167877742Y-46578461D01*
X168122217Y-46469251D01*
X168377043Y-46397782D01*
X168638292Y-46363463D01*
X168902033Y-46365699D01*
G37*
G36*
X169647025Y-43475237D02*
G01*
X169885006Y-43476097D01*
X170104545Y-43477474D01*
X170302212Y-43479321D01*
X170474580Y-43481593D01*
X170618219Y-43484242D01*
X170729701Y-43487222D01*
X170805599Y-43490488D01*
X170842482Y-43493991D01*
X170844497Y-43494557D01*
X170915187Y-43538095D01*
X170988684Y-43610963D01*
X171054558Y-43701601D01*
X171088565Y-43765044D01*
X171111116Y-43818545D01*
X171144984Y-43904348D01*
X171187043Y-44014273D01*
X171234170Y-44140142D01*
X171283241Y-44273776D01*
X171289731Y-44291655D01*
X171380923Y-44543056D01*
X171458745Y-44757080D01*
X171524403Y-44936779D01*
X171579104Y-45085207D01*
X171624053Y-45205417D01*
X171660457Y-45300463D01*
X171689522Y-45373397D01*
X171712453Y-45427272D01*
X171730457Y-45465143D01*
X171744740Y-45490062D01*
X171756508Y-45505083D01*
X171766967Y-45513258D01*
X171773484Y-45516290D01*
X171792932Y-45522100D01*
X171824133Y-45528441D01*
X171871044Y-45535792D01*
X171937618Y-45544629D01*
X172027812Y-45555428D01*
X172145582Y-45568666D01*
X172294883Y-45584820D01*
X172479670Y-45604366D01*
X172665241Y-45623758D01*
X172821197Y-45640032D01*
X172990451Y-45657753D01*
X173157230Y-45675267D01*
X173305764Y-45690917D01*
X173374378Y-45698175D01*
X173487574Y-45709948D01*
X173587018Y-45719869D01*
X173664152Y-45727118D01*
X173710420Y-45730871D01*
X173718202Y-45731210D01*
X173728505Y-45726264D01*
X173736399Y-45708191D01*
X173742189Y-45672155D01*
X173746182Y-45613319D01*
X173748682Y-45526845D01*
X173749996Y-45407896D01*
X173750428Y-45251636D01*
X173750436Y-45220889D01*
X173750636Y-45058735D01*
X173751549Y-44933549D01*
X173753643Y-44839319D01*
X173757385Y-44770037D01*
X173763246Y-44719692D01*
X173771692Y-44682274D01*
X173783193Y-44651773D01*
X173796903Y-44624602D01*
X173889844Y-44496290D01*
X174012391Y-44397577D01*
X174161036Y-44330669D01*
X174314290Y-44299462D01*
X174413572Y-44293807D01*
X174478387Y-44305032D01*
X174515579Y-44338165D01*
X174531991Y-44398237D01*
X174534785Y-44461504D01*
X174532841Y-44570100D01*
X174524746Y-44643466D01*
X174507104Y-44689262D01*
X174476519Y-44715148D01*
X174429595Y-44728783D01*
X174415255Y-44731124D01*
X174334030Y-44748772D01*
X174278473Y-44778128D01*
X174242926Y-44826979D01*
X174221733Y-44903109D01*
X174209235Y-45014304D01*
X174209208Y-45014667D01*
X174202463Y-45123908D01*
X174197602Y-45244907D01*
X174194643Y-45369602D01*
X174193607Y-45489928D01*
X174194512Y-45597821D01*
X174197378Y-45685217D01*
X174202224Y-45744053D01*
X174207406Y-45764951D01*
X174232599Y-45773816D01*
X174294098Y-45785620D01*
X174385409Y-45799411D01*
X174500035Y-45814239D01*
X174631481Y-45829150D01*
X174679384Y-45834123D01*
X174856387Y-45853000D01*
X174995904Y-45870792D01*
X175103326Y-45889321D01*
X175184044Y-45910413D01*
X175243452Y-45935891D01*
X175286942Y-45967580D01*
X175319904Y-46007304D01*
X175347733Y-46056886D01*
X175349676Y-46060873D01*
X175367351Y-46101065D01*
X175379573Y-46141866D01*
X175387130Y-46191663D01*
X175390808Y-46258846D01*
X175391393Y-46351804D01*
X175389674Y-46478924D01*
X175389547Y-46486000D01*
X175386720Y-46613270D01*
X175383102Y-46703309D01*
X175378011Y-46761862D01*
X175370766Y-46794675D01*
X175360684Y-46807493D01*
X175351367Y-46807590D01*
X175315489Y-46797686D01*
X175251630Y-46780048D01*
X175173233Y-46758390D01*
X175168710Y-46757141D01*
X175025284Y-46727751D01*
X174855421Y-46709032D01*
X174674438Y-46701469D01*
X174497652Y-46705549D01*
X174340379Y-46721756D01*
X174297018Y-46729513D01*
X174041503Y-46802796D01*
X173798717Y-46914849D01*
X173572908Y-47062312D01*
X173368321Y-47241822D01*
X173189205Y-47450017D01*
X173039805Y-47683536D01*
X173003762Y-47753235D01*
X172920005Y-47953686D01*
X172858906Y-48171263D01*
X172817588Y-48416532D01*
X172813388Y-48452165D01*
X172788283Y-48675278D01*
X171956314Y-48675278D01*
X171124346Y-48675278D01*
X171112098Y-48369060D01*
X171104956Y-48241863D01*
X171094239Y-48114314D01*
X171081329Y-48000264D01*
X171067605Y-47913565D01*
X171065863Y-47905164D01*
X170977436Y-47589093D01*
X170854743Y-47296752D01*
X170700003Y-47029958D01*
X170515434Y-46790533D01*
X170303254Y-46580297D01*
X170065681Y-46401069D01*
X169804933Y-46254671D01*
X169523229Y-46142921D01*
X169222787Y-46067641D01*
X168905825Y-46030650D01*
X168776938Y-46026990D01*
X168470923Y-46043528D01*
X168182489Y-46096659D01*
X167907150Y-46187923D01*
X167640418Y-46318855D01*
X167377806Y-46490994D01*
X167339938Y-46519364D01*
X167262072Y-46576297D01*
X167193811Y-46622002D01*
X167144068Y-46650741D01*
X167125048Y-46657691D01*
X167028813Y-46653429D01*
X166955734Y-46623128D01*
X166924634Y-46597944D01*
X166868922Y-46518541D01*
X166852759Y-46427455D01*
X166871147Y-46347758D01*
X166918223Y-46273741D01*
X166998947Y-46188450D01*
X167107072Y-46096601D01*
X167236352Y-46002907D01*
X167380541Y-45912083D01*
X167533394Y-45828845D01*
X167603290Y-45795140D01*
X167682885Y-45756681D01*
X167745138Y-45723392D01*
X167781445Y-45700043D01*
X167787238Y-45693134D01*
X167791079Y-45667547D01*
X167802134Y-45603561D01*
X167803633Y-45595153D01*
X168298196Y-45595153D01*
X168456380Y-45575235D01*
X168537052Y-45568700D01*
X168647500Y-45564719D01*
X168774585Y-45563536D01*
X168905169Y-45565393D01*
X168936900Y-45566364D01*
X169052868Y-45571207D01*
X169155556Y-45577116D01*
X169236340Y-45583474D01*
X169286595Y-45589661D01*
X169296840Y-45592180D01*
X169306567Y-45593904D01*
X169314459Y-45588022D01*
X169320709Y-45570569D01*
X169325505Y-45537579D01*
X169329039Y-45485087D01*
X169331502Y-45409128D01*
X169333083Y-45305736D01*
X169333974Y-45170946D01*
X169334365Y-45000793D01*
X169334446Y-44809557D01*
X169334446Y-44012165D01*
X169774971Y-44012165D01*
X169775372Y-44849563D01*
X169776017Y-45071873D01*
X169777685Y-45264825D01*
X169780316Y-45425990D01*
X169783849Y-45552941D01*
X169788222Y-45643251D01*
X169793375Y-45694490D01*
X169796861Y-45705512D01*
X169827518Y-45723443D01*
X169883855Y-45749759D01*
X169929323Y-45768862D01*
X170151068Y-45876888D01*
X170373976Y-46020942D01*
X170590725Y-46194922D01*
X170793994Y-46392726D01*
X170976459Y-46608249D01*
X171038988Y-46693768D01*
X171148598Y-46850413D01*
X171299856Y-46844191D01*
X171451113Y-46837969D01*
X171457137Y-46549241D01*
X171463160Y-46260513D01*
X171202403Y-45528513D01*
X171134668Y-45338509D01*
X171064689Y-45142466D01*
X170995461Y-44948757D01*
X170929979Y-44765757D01*
X170871239Y-44601837D01*
X170822236Y-44465372D01*
X170800263Y-44404339D01*
X170658880Y-44012165D01*
X170216925Y-44012165D01*
X169774971Y-44012165D01*
X169334446Y-44012165D01*
X168961161Y-44012165D01*
X168587876Y-44012165D01*
X168552011Y-44200194D01*
X168501219Y-44467173D01*
X168455293Y-44709987D01*
X168414722Y-44925998D01*
X168379993Y-45112567D01*
X168351595Y-45267057D01*
X168330019Y-45386828D01*
X168315752Y-45469244D01*
X168309806Y-45507424D01*
X168298196Y-45595153D01*
X167803633Y-45595153D01*
X167819702Y-45505020D01*
X167843080Y-45375770D01*
X167871565Y-45219654D01*
X167904457Y-45040517D01*
X167941053Y-44842203D01*
X167980651Y-44628555D01*
X168022549Y-44403419D01*
X168032667Y-44349186D01*
X168052665Y-44240872D01*
X168069453Y-44147706D01*
X168081597Y-44077823D01*
X168087661Y-44039359D01*
X168088084Y-44034957D01*
X168068734Y-44023376D01*
X168019080Y-44012319D01*
X167976543Y-44006915D01*
X167874733Y-43980294D01*
X167800946Y-43927599D01*
X167756350Y-43856311D01*
X167742112Y-43773911D01*
X167759399Y-43687877D01*
X167809376Y-43605691D01*
X167893213Y-43534832D01*
X167902063Y-43529498D01*
X167995159Y-43474940D01*
X169394030Y-43474940D01*
X169647025Y-43475237D01*
G37*
X163120000Y-75400000D02*
X163120000Y-74630000D01*
X161750000Y-74630000D02*
X164490000Y-74630000D01*
X164490000Y-74630000D02*
X164490000Y-68090000D01*
X161750000Y-68090000D02*
X161750000Y-74630000D01*
X164490000Y-68090000D02*
X161750000Y-68090000D01*
X163120000Y-67320000D02*
X163120000Y-68090000D01*
X212320000Y-71190000D02*
X211670000Y-71190000D01*
X211670000Y-72310000D02*
X211670000Y-70070000D01*
X211670000Y-70070000D02*
X207430000Y-70070000D01*
X211070000Y-72310000D02*
X211070000Y-70070000D01*
X210950000Y-72310000D02*
X210950000Y-70070000D01*
X210830000Y-72310000D02*
X210830000Y-70070000D01*
X207430000Y-72310000D02*
X211670000Y-72310000D01*
X207430000Y-70070000D02*
X207430000Y-72310000D01*
X206780000Y-71190000D02*
X207430000Y-71190000D01*
X246070000Y-74280000D02*
X245080000Y-74280000D01*
X245080000Y-76200000D02*
X245080000Y-72360000D01*
X245080000Y-72360000D02*
X237240000Y-72360000D01*
X243940000Y-76200000D02*
X243940000Y-72360000D01*
X243820000Y-76200000D02*
X243820000Y-72360000D01*
X243700000Y-76200000D02*
X243700000Y-72360000D01*
X237240000Y-76200000D02*
X245080000Y-76200000D01*
X237240000Y-72360000D02*
X237240000Y-76200000D01*
X236250000Y-74280000D02*
X237240000Y-74280000D01*
D14*
X240630000Y-88750000D02*
X240630000Y-78590000D01*
X247830000Y-88750000D02*
X240630000Y-88750000D01*
X247830000Y-88750000D02*
X247830000Y-78590000D01*
X248830000Y-88750000D02*
X247830000Y-88750000D01*
X240630000Y-78590000D02*
X247830000Y-78590000D01*
X247830000Y-78590000D02*
X248830000Y-78590000D01*
X248830000Y-78590000D02*
X248830000Y-88750000D01*
D13*
X215010000Y-70900000D02*
X215010000Y-69570000D01*
X216340000Y-70900000D02*
X215010000Y-70900000D01*
X217610000Y-70900000D02*
X230370000Y-70900000D01*
X217610000Y-70900000D02*
X217610000Y-68240000D01*
X230370000Y-70900000D02*
X230370000Y-68240000D01*
X217610000Y-68240000D02*
X230370000Y-68240000D01*
X187824288Y-94591400D02*
X187324288Y-94591400D01*
X187574288Y-94841400D02*
X187574288Y-94341400D01*
X185019513Y-95696400D02*
X185019513Y-90536400D01*
X184979513Y-95696400D02*
X184979513Y-90536400D01*
X184939513Y-95695400D02*
X184939513Y-90537400D01*
X184899513Y-95694400D02*
X184899513Y-90538400D01*
X184859513Y-95692400D02*
X184859513Y-90540400D01*
X184819513Y-95689400D02*
X184819513Y-90543400D01*
X184779513Y-95685400D02*
X184779513Y-94156400D01*
X184779513Y-92076400D02*
X184779513Y-90547400D01*
X184739513Y-95681400D02*
X184739513Y-94156400D01*
X184739513Y-92076400D02*
X184739513Y-90551400D01*
X184699513Y-95677400D02*
X184699513Y-94156400D01*
X184699513Y-92076400D02*
X184699513Y-90555400D01*
X184659513Y-95672400D02*
X184659513Y-94156400D01*
X184659513Y-92076400D02*
X184659513Y-90560400D01*
X184619513Y-95666400D02*
X184619513Y-94156400D01*
X184619513Y-92076400D02*
X184619513Y-90566400D01*
X184579513Y-95659400D02*
X184579513Y-94156400D01*
X184579513Y-92076400D02*
X184579513Y-90573400D01*
X184539513Y-95652400D02*
X184539513Y-94156400D01*
X184539513Y-92076400D02*
X184539513Y-90580400D01*
X184499513Y-95644400D02*
X184499513Y-94156400D01*
X184499513Y-92076400D02*
X184499513Y-90588400D01*
X184459513Y-95636400D02*
X184459513Y-94156400D01*
X184459513Y-92076400D02*
X184459513Y-90596400D01*
X184419513Y-95627400D02*
X184419513Y-94156400D01*
X184419513Y-92076400D02*
X184419513Y-90605400D01*
X184379513Y-95617400D02*
X184379513Y-94156400D01*
X184379513Y-92076400D02*
X184379513Y-90615400D01*
X184339513Y-95607400D02*
X184339513Y-94156400D01*
X184339513Y-92076400D02*
X184339513Y-90625400D01*
X184298513Y-95596400D02*
X184298513Y-94156400D01*
X184298513Y-92076400D02*
X184298513Y-90636400D01*
X184258513Y-95584400D02*
X184258513Y-94156400D01*
X184258513Y-92076400D02*
X184258513Y-90648400D01*
X184218513Y-95571400D02*
X184218513Y-94156400D01*
X184218513Y-92076400D02*
X184218513Y-90661400D01*
X184178513Y-95558400D02*
X184178513Y-94156400D01*
X184178513Y-92076400D02*
X184178513Y-90674400D01*
X184138513Y-95544400D02*
X184138513Y-94156400D01*
X184138513Y-92076400D02*
X184138513Y-90688400D01*
X184098513Y-95530400D02*
X184098513Y-94156400D01*
X184098513Y-92076400D02*
X184098513Y-90702400D01*
X184058513Y-95514400D02*
X184058513Y-94156400D01*
X184058513Y-92076400D02*
X184058513Y-90718400D01*
X184018513Y-95498400D02*
X184018513Y-94156400D01*
X184018513Y-92076400D02*
X184018513Y-90734400D01*
X183978513Y-95481400D02*
X183978513Y-94156400D01*
X183978513Y-92076400D02*
X183978513Y-90751400D01*
X183938513Y-95464400D02*
X183938513Y-94156400D01*
X183938513Y-92076400D02*
X183938513Y-90768400D01*
X183898513Y-95445400D02*
X183898513Y-94156400D01*
X183898513Y-92076400D02*
X183898513Y-90787400D01*
X183858513Y-95426400D02*
X183858513Y-94156400D01*
X183858513Y-92076400D02*
X183858513Y-90806400D01*
X183818513Y-95406400D02*
X183818513Y-94156400D01*
X183818513Y-92076400D02*
X183818513Y-90826400D01*
X183778513Y-95384400D02*
X183778513Y-94156400D01*
X183778513Y-92076400D02*
X183778513Y-90848400D01*
X183738513Y-95363400D02*
X183738513Y-94156400D01*
X183738513Y-92076400D02*
X183738513Y-90869400D01*
X183698513Y-95340400D02*
X183698513Y-94156400D01*
X183698513Y-92076400D02*
X183698513Y-90892400D01*
X183658513Y-95316400D02*
X183658513Y-94156400D01*
X183658513Y-92076400D02*
X183658513Y-90916400D01*
X183618513Y-95291400D02*
X183618513Y-94156400D01*
X183618513Y-92076400D02*
X183618513Y-90941400D01*
X183578513Y-95265400D02*
X183578513Y-94156400D01*
X183578513Y-92076400D02*
X183578513Y-90967400D01*
X183538513Y-95238400D02*
X183538513Y-94156400D01*
X183538513Y-92076400D02*
X183538513Y-90994400D01*
X183498513Y-95211400D02*
X183498513Y-94156400D01*
X183498513Y-92076400D02*
X183498513Y-91021400D01*
X183458513Y-95181400D02*
X183458513Y-94156400D01*
X183458513Y-92076400D02*
X183458513Y-91051400D01*
X183418513Y-95151400D02*
X183418513Y-94156400D01*
X183418513Y-92076400D02*
X183418513Y-91081400D01*
X183378513Y-95120400D02*
X183378513Y-94156400D01*
X183378513Y-92076400D02*
X183378513Y-91112400D01*
X183338513Y-95087400D02*
X183338513Y-94156400D01*
X183338513Y-92076400D02*
X183338513Y-91145400D01*
X183298513Y-95053400D02*
X183298513Y-94156400D01*
X183298513Y-92076400D02*
X183298513Y-91179400D01*
X183258513Y-95017400D02*
X183258513Y-94156400D01*
X183258513Y-92076400D02*
X183258513Y-91215400D01*
X183218513Y-94980400D02*
X183218513Y-94156400D01*
X183218513Y-92076400D02*
X183218513Y-91252400D01*
X183178513Y-94942400D02*
X183178513Y-94156400D01*
X183178513Y-92076400D02*
X183178513Y-91290400D01*
X183138513Y-94901400D02*
X183138513Y-94156400D01*
X183138513Y-92076400D02*
X183138513Y-91331400D01*
X183098513Y-94859400D02*
X183098513Y-94156400D01*
X183098513Y-92076400D02*
X183098513Y-91373400D01*
X183058513Y-94815400D02*
X183058513Y-94156400D01*
X183058513Y-92076400D02*
X183058513Y-91417400D01*
X183018513Y-94769400D02*
X183018513Y-94156400D01*
X183018513Y-92076400D02*
X183018513Y-91463400D01*
X182978513Y-94721400D02*
X182978513Y-94156400D01*
X182978513Y-92076400D02*
X182978513Y-91511400D01*
X182938513Y-94670400D02*
X182938513Y-94156400D01*
X182938513Y-92076400D02*
X182938513Y-91562400D01*
X182898513Y-94616400D02*
X182898513Y-94156400D01*
X182898513Y-92076400D02*
X182898513Y-91616400D01*
X182858513Y-94559400D02*
X182858513Y-94156400D01*
X182858513Y-92076400D02*
X182858513Y-91673400D01*
X182818513Y-94499400D02*
X182818513Y-94156400D01*
X182818513Y-92076400D02*
X182818513Y-91733400D01*
X182778513Y-94435400D02*
X182778513Y-94156400D01*
X182778513Y-92076400D02*
X182778513Y-91797400D01*
X182738513Y-94367400D02*
X182738513Y-94156400D01*
X182738513Y-92076400D02*
X182738513Y-91865400D01*
X182698513Y-94294400D02*
X182698513Y-91938400D01*
X182658513Y-94214400D02*
X182658513Y-92018400D01*
X182618513Y-94127400D02*
X182618513Y-92105400D01*
X182578513Y-94031400D02*
X182578513Y-92201400D01*
X182538513Y-93921400D02*
X182538513Y-92311400D01*
X182498513Y-93793400D02*
X182498513Y-92439400D01*
X182458513Y-93634400D02*
X182458513Y-92598400D01*
X182418513Y-93400400D02*
X182418513Y-92832400D01*
X187639513Y-93116400D02*
G75*
G03*
X182399513Y-93116400I-2620000J0D01*
G01*
X182399513Y-93116400D02*
G75*
G03*
X187639513Y-93116400I2620000J0D01*
G01*
X176060000Y-84060000D02*
X176060000Y-83290000D01*
X174690000Y-83290000D02*
X177430000Y-83290000D01*
X177430000Y-83290000D02*
X177430000Y-76750000D01*
X174690000Y-76750000D02*
X174690000Y-83290000D01*
X177430000Y-76750000D02*
X174690000Y-76750000D01*
X176060000Y-75980000D02*
X176060000Y-76750000D01*
X168100000Y-74740000D02*
X168100000Y-78340000D01*
X172550000Y-76540000D02*
G75*
G03*
X168111522Y-74701522I-2600000J0D01*
G01*
X168111522Y-78378478D02*
G75*
G03*
X172550000Y-76540000I1838478J1838478D01*
G01*
X165300000Y-64851200D02*
X165300000Y-63521200D01*
X166630000Y-64851200D02*
X165300000Y-64851200D01*
X167900000Y-64851200D02*
X183200000Y-64851200D01*
X167900000Y-64851200D02*
X167900000Y-62191200D01*
X183200000Y-64851200D02*
X183200000Y-62191200D01*
X167900000Y-62191200D02*
X183200000Y-62191200D01*
X168640000Y-86690000D02*
X169970000Y-86690000D01*
X168640000Y-88020000D02*
X168640000Y-86690000D01*
X168640000Y-89290000D02*
X168640000Y-89350000D01*
X168640000Y-89290000D02*
X171300000Y-89290000D01*
X168640000Y-89350000D02*
X171300000Y-89350000D01*
X171300000Y-89290000D02*
X171300000Y-89350000D01*
X186791600Y-53262400D02*
X186791600Y-54032400D01*
X188161600Y-54032400D02*
X185421600Y-54032400D01*
X185421600Y-54032400D02*
X185421600Y-60572400D01*
X188161600Y-60572400D02*
X188161600Y-54032400D01*
X185421600Y-60572400D02*
X188161600Y-60572400D01*
X186791600Y-61342400D02*
X186791600Y-60572400D01*
X180960000Y-86270000D02*
X181275000Y-86270000D01*
X180960000Y-86270000D02*
X180960000Y-81030000D01*
X183385000Y-86270000D02*
X183700000Y-86270000D01*
X183700000Y-86270000D02*
X183700000Y-81030000D01*
X180960000Y-81030000D02*
X181275000Y-81030000D01*
X183385000Y-81030000D02*
X183700000Y-81030000D01*
D10*
X232990000Y-94200000D02*
X190445000Y-94200000D01*
X190445000Y-94200000D02*
X190445000Y-73626000D01*
X190445000Y-73626000D02*
X232990000Y-73626000D01*
X232990000Y-73626000D02*
X232990000Y-94200000D01*
D13*
X190440000Y-47220000D02*
X190440000Y-45890000D01*
X191770000Y-47220000D02*
X190440000Y-47220000D01*
X193040000Y-47220000D02*
X241360000Y-47220000D01*
X193040000Y-47220000D02*
X193040000Y-44620000D01*
X241360000Y-47220000D02*
X241360000Y-42020000D01*
X190440000Y-44620000D02*
X190440000Y-42020000D01*
X193040000Y-44620000D02*
X190440000Y-44620000D01*
X190440000Y-42020000D02*
X241360000Y-42020000D01*
X241849600Y-48708000D02*
X243179600Y-48708000D01*
X241849600Y-50038000D02*
X241849600Y-48708000D01*
X241849600Y-51308000D02*
X241849600Y-53908000D01*
X241849600Y-51308000D02*
X244449600Y-51308000D01*
X241849600Y-53908000D02*
X247049600Y-53908000D01*
X244449600Y-48708000D02*
X247049600Y-48708000D01*
X244449600Y-51308000D02*
X244449600Y-48708000D01*
X247049600Y-48708000D02*
X247049600Y-53908000D01*
X200534400Y-71120000D02*
X199764400Y-71120000D01*
X199764400Y-72490000D02*
X199764400Y-69750000D01*
X199764400Y-69750000D02*
X193224400Y-69750000D01*
X193224400Y-72490000D02*
X199764400Y-72490000D01*
X193224400Y-69750000D02*
X193224400Y-72490000D01*
X192454400Y-71120000D02*
X193224400Y-71120000D01*
X194180000Y-67440000D02*
X196850000Y-67440000D01*
X199390000Y-67440000D02*
X237620000Y-67440000D01*
X237620000Y-67440000D02*
X237620000Y-62360000D01*
X196850000Y-64770000D02*
X196850000Y-67440000D01*
X199390000Y-64770000D02*
X199390000Y-67440000D01*
X199390000Y-64770000D02*
X196850000Y-64770000D01*
X199390000Y-64770000D02*
X234950000Y-64770000D01*
X234950000Y-64770000D02*
X234950000Y-67440000D01*
X229740000Y-62360000D02*
X229740000Y-54480000D01*
X240160000Y-62360000D02*
X229740000Y-62360000D01*
X229740000Y-54480000D02*
X240160000Y-54480000D01*
X240160000Y-54480000D02*
X240160000Y-62360000D01*
X196850000Y-52070000D02*
X234950000Y-52070000D01*
X196850000Y-52070000D02*
X196850000Y-49400000D01*
X234950000Y-52070000D02*
X234950000Y-49400000D01*
X194180000Y-49400000D02*
X194180000Y-67440000D01*
X237620000Y-49400000D02*
X237620000Y-54480000D01*
X237620000Y-49400000D02*
X194180000Y-49400000D01*
%LPC*%
D15*
X176460000Y-90530000D03*
D16*
X190930000Y-59800000D03*
D17*
X190930000Y-52180000D03*
D15*
X180690000Y-77110000D03*
D18*
X186290000Y-81070000D03*
D19*
X186290000Y-83610000D03*
X186290000Y-86150000D03*
D20*
X237120000Y-78570000D03*
D21*
X237120000Y-93810000D03*
D22*
X161100000Y-44620000D03*
D23*
X163120000Y-76440000D03*
D17*
X163120000Y-66280000D03*
D16*
X213360000Y-71190000D03*
D17*
X205740000Y-71190000D03*
D24*
X247510000Y-74280000D03*
D25*
X234810000Y-74280000D03*
D26*
X244730000Y-86210000D03*
D27*
X244730000Y-81130000D03*
D15*
X216340000Y-69570000D03*
D28*
X218880000Y-69570000D03*
X221420000Y-69570000D03*
X223960000Y-69570000D03*
X226500000Y-69570000D03*
X229040000Y-69570000D03*
D16*
X186269513Y-93116400D03*
D23*
X183769513Y-93116400D03*
D22*
X186900000Y-67620000D03*
X244900000Y-44620000D03*
D23*
X176060000Y-85100000D03*
D17*
X176060000Y-74940000D03*
D22*
X161100000Y-92800000D03*
D29*
X169950000Y-75270000D03*
D30*
X169950000Y-76540000D03*
X169950000Y-77810000D03*
D15*
X166630000Y-63521200D03*
D28*
X169170000Y-63521200D03*
X171710000Y-63521200D03*
X174250000Y-63521200D03*
X176790000Y-63521200D03*
X179330000Y-63521200D03*
X181870000Y-63521200D03*
D15*
X169970000Y-88020000D03*
D22*
X244900000Y-67620000D03*
X244900000Y-92800000D03*
D23*
X186791600Y-52222400D03*
D17*
X186791600Y-62382400D03*
D23*
X182330000Y-86150000D03*
X182330000Y-81150000D03*
D31*
X231490000Y-92700000D03*
X191940000Y-92700000D03*
X231490000Y-75200000D03*
X191940000Y-75200000D03*
D22*
X186900000Y-44620000D03*
D15*
X191770000Y-45890000D03*
D28*
X191770000Y-43350000D03*
X194310000Y-45890000D03*
X194310000Y-43350000D03*
X196850000Y-45890000D03*
X196850000Y-43350000D03*
X199390000Y-45890000D03*
X199390000Y-43350000D03*
X201930000Y-45890000D03*
X201930000Y-43350000D03*
X204470000Y-45890000D03*
X204470000Y-43350000D03*
X207010000Y-45890000D03*
X207010000Y-43350000D03*
X209550000Y-45890000D03*
X209550000Y-43350000D03*
X212090000Y-45890000D03*
X212090000Y-43350000D03*
X214630000Y-45890000D03*
X214630000Y-43350000D03*
X217170000Y-45890000D03*
X217170000Y-43350000D03*
X219710000Y-45890000D03*
X219710000Y-43350000D03*
X222250000Y-45890000D03*
X222250000Y-43350000D03*
X224790000Y-45890000D03*
X224790000Y-43350000D03*
X227330000Y-45890000D03*
X227330000Y-43350000D03*
X229870000Y-45890000D03*
X229870000Y-43350000D03*
X232410000Y-45890000D03*
X232410000Y-43350000D03*
X234950000Y-45890000D03*
X234950000Y-43350000D03*
X237490000Y-45890000D03*
X237490000Y-43350000D03*
X240030000Y-45890000D03*
X240030000Y-43350000D03*
D15*
X243179600Y-50038000D03*
D28*
X245719600Y-50038000D03*
X243179600Y-52578000D03*
X245719600Y-52578000D03*
D23*
X201574400Y-71120000D03*
D17*
X191414400Y-71120000D03*
D16*
X198120000Y-66040000D03*
D17*
X200660000Y-66040000D03*
X203200000Y-66040000D03*
X205740000Y-66040000D03*
X208280000Y-66040000D03*
X210820000Y-66040000D03*
X213360000Y-66040000D03*
X215900000Y-66040000D03*
X218440000Y-66040000D03*
X220980000Y-66040000D03*
X223520000Y-66040000D03*
X226060000Y-66040000D03*
X228600000Y-66040000D03*
X231140000Y-66040000D03*
X233680000Y-66040000D03*
X233680000Y-50800000D03*
X231140000Y-50800000D03*
X228600000Y-50800000D03*
X226060000Y-50800000D03*
X223520000Y-50800000D03*
X220980000Y-50800000D03*
X218440000Y-50800000D03*
X215900000Y-50800000D03*
X213360000Y-50800000D03*
X210820000Y-50800000D03*
X208280000Y-50800000D03*
X205740000Y-50800000D03*
X203200000Y-50800000D03*
X200660000Y-50800000D03*
X198120000Y-50800000D03*
%LPD*%
M02*
